<svg width="16" height="16" viewBox="0 0 16 16" fill="none" xmlns="http://www.w3.org/2000/svg">
<path d="M15.1772 10.7314L10.7315 15.1771C10.5708 15.3376 10.3529 15.4278 10.1258 15.4278C9.89862 15.4278 9.68077 15.3376 9.52005 15.1771L0.697193 6.35428C0.65286 6.31189 0.618564 6.26014 0.596812 6.20279C0.575061 6.14545 0.566405 6.08397 0.571478 6.02285L1.24576 1.6457C1.25127 1.5414 1.29517 1.44282 1.36903 1.36897C1.44289 1.29511 1.54146 1.2512 1.64576 1.2457L6.02291 0.571417C6.08403 0.566344 6.14551 0.575 6.20285 0.596751C6.2602 0.618503 6.31196 0.652799 6.35434 0.697132L15.1772 9.51999C15.3377 9.6807 15.4279 9.89856 15.4279 10.1257C15.4279 10.3528 15.3377 10.5707 15.1772 10.7314Z" stroke="black" stroke-linecap="round" stroke-linejoin="round"/>
<path d="M4.69716 5.26859C5.01275 5.26859 5.26859 5.01275 5.26859 4.69716C5.26859 4.38157 5.01275 4.12573 4.69716 4.12573C4.38157 4.12573 4.12573 4.38157 4.12573 4.69716C4.12573 5.01275 4.38157 5.26859 4.69716 5.26859Z" stroke="black" stroke-linecap="round" stroke-linejoin="round"/>
</svg>
