<svg width="17" height="14" viewBox="0 0 17 14" fill="none" xmlns="http://www.w3.org/2000/svg">
<path fill-rule="evenodd" clip-rule="evenodd" d="M15.8287 0.266003C16.3228 0.674363 16.3924 1.40598 15.984 1.90013L6.65191 13.1929L6.6491 13.1963C6.43683 13.4512 6.17042 13.6556 5.86926 13.7946C5.56807 13.9336 5.23971 14.0037 4.90804 13.9999C4.57093 13.9957 4.23811 13.9151 3.93657 13.7645C3.63604 13.6141 3.37332 13.398 3.16801 13.132L3.16593 13.1293L0.244554 9.37331C-0.149007 8.86731 -0.0578521 8.13806 0.448155 7.7445C0.954164 7.35094 1.68341 7.4421 2.07697 7.9481L4.93646 11.6246L14.1945 0.421352C14.6028 -0.0727945 15.3345 -0.142347 15.8287 0.266003Z" fill="#FEFEFE"/>
</svg>
