<svg width="23" height="23" viewBox="0 0 23 23" fill="none" xmlns="http://www.w3.org/2000/svg">
<circle cx="11.5" cy="11.5" r="11.5" fill="#4CA8DF"/>
<g clip-path="url(#clip0_505_2935)">
<path d="M11.3355 8.30488C9.82126 8.30488 8.59983 9.50722 8.59983 10.9978C8.59983 12.4885 9.82126 13.6908 11.3355 13.6908C12.8498 13.6908 14.0713 12.4885 14.0713 10.9978C14.0713 9.50722 12.8498 8.30488 11.3355 8.30488ZM11.3355 12.7486C10.357 12.7486 9.55697 11.9635 9.55697 10.9978C9.55697 10.0322 10.3546 9.24707 11.3355 9.24707C12.3165 9.24707 13.1141 10.0322 13.1141 10.9978C13.1141 11.9635 12.3141 12.7486 11.3355 12.7486V12.7486ZM14.8213 8.19473C14.8213 8.54394 14.5355 8.82285 14.1832 8.82285C13.8284 8.82285 13.5451 8.5416 13.5451 8.19473C13.5451 7.84785 13.8308 7.5666 14.1832 7.5666C14.5355 7.5666 14.8213 7.84785 14.8213 8.19473ZM16.6332 8.83223C16.5927 7.99082 16.3974 7.24551 15.7713 6.63144C15.1474 6.01738 14.3903 5.8252 13.5355 5.78301C12.6546 5.73379 10.0141 5.73379 9.13316 5.78301C8.28078 5.82285 7.52364 6.01504 6.89745 6.6291C6.27126 7.24316 6.0784 7.98848 6.03555 8.82988C5.98555 9.69707 5.98555 12.2963 6.03555 13.1635C6.07602 14.0049 6.27126 14.7502 6.89745 15.3643C7.52364 15.9783 8.2784 16.1705 9.13316 16.2127C10.0141 16.2619 12.6546 16.2619 13.5355 16.2127C14.3903 16.1728 15.1474 15.9807 15.7713 15.3643C16.3951 14.7502 16.5903 14.0049 16.6332 13.1635C16.6832 12.2963 16.6832 9.69941 16.6332 8.83223V8.83223ZM15.4951 14.0939C15.3093 14.5533 14.9498 14.9072 14.4808 15.0924C13.7784 15.3666 12.1117 15.3033 11.3355 15.3033C10.5594 15.3033 8.89031 15.3643 8.19031 15.0924C7.72364 14.9096 7.36412 14.5557 7.17602 14.0939C6.89745 13.4025 6.96174 11.7619 6.96174 10.9978C6.96174 10.2338 6.89983 8.59082 7.17602 7.90176C7.36174 7.44238 7.72126 7.08848 8.19031 6.90332C8.89269 6.6291 10.5594 6.69238 11.3355 6.69238C12.1117 6.69238 13.7808 6.63144 14.4808 6.90332C14.9474 7.08613 15.307 7.44004 15.4951 7.90176C15.7736 8.59316 15.7093 10.2338 15.7093 10.9978C15.7093 11.7619 15.7736 13.4049 15.4951 14.0939Z" fill="#FEFEFE"/>
</g>
<defs>
<clipPath id="clip0_505_2935">
<rect width="10.6667" height="12" fill="white" transform="translate(6 5)"/>
</clipPath>
</defs>
</svg>
