<svg width="23" height="23" viewBox="0 0 23 23" fill="none" xmlns="http://www.w3.org/2000/svg">
<circle cx="11.5" cy="11.5" r="11.5" fill="#4CA8DF"/>
<g clip-path="url(#clip0_505_2934)">
<path d="M9.42179 16V9.25302H7.13492V16H9.42179ZM8.27865 8.33128C9.07612 8.33128 9.57251 7.81319 9.57251 7.16575C9.55765 6.50371 9.07616 6 8.29379 6C7.51154 6 7 6.50372 7 7.16575C7 7.81322 7.49627 8.33128 8.26372 8.33128H8.27858H8.27865ZM10.6876 16H12.9744V12.2322C12.9744 12.0305 12.9893 11.8291 13.0497 11.6849C13.215 11.282 13.5913 10.8647 14.223 10.8647C15.0505 10.8647 15.3816 11.4835 15.3816 12.3905V16H17.6683V12.1313C17.6683 10.0589 16.5401 9.09462 15.0355 9.09462C13.8018 9.09462 13.2601 9.77084 12.9592 10.2314H12.9745V9.25288H10.6876C10.7176 9.88598 10.6876 15.9999 10.6876 15.9999L10.6876 16Z" fill="#FEFEFE"/>
</g>
<defs>
<clipPath id="clip0_505_2934">
<rect width="10.6667" height="10" fill="white" transform="translate(7 6)"/>
</clipPath>
</defs>
</svg>
