<?xml version="1.0" standalone="no"?>
<!DOCTYPE svg PUBLIC "-//W3C//DTD SVG 20010904//EN"
 "http://www.w3.org/TR/2001/REC-SVG-20010904/DTD/svg10.dtd">
<svg version="1.0" xmlns="http://www.w3.org/2000/svg"
 width="500.000000pt" height="500.000000pt" viewBox="0 0 500.000000 500.000000"
 preserveAspectRatio="xMidYMid meet">

<g transform="translate(0.000000,500.000000) scale(0.100000,-0.100000)"
fill="#000000" stroke="none">
<path d="M2245 4685 c-393 -56 -750 -202 -1064 -438 -123 -92 -336 -305 -428
-428 -239 -319 -386 -679 -438 -1073 -20 -152 -19 -420 1 -578 95 -739 562
-1387 1238 -1719 961 -472 2131 -192 2775 665 507 674 593 1577 222 2332 -319
650 -910 1094 -1631 1225 -150 28 -523 35 -675 14z m-388 -1051 c64 -31 105
-78 127 -146 56 -175 -56 -330 -250 -346 -159 -12 -288 89 -301 237 -16 176
119 300 312 285 36 -2 81 -14 112 -30z m1533 -690 c150 -44 256 -134 325 -278
77 -160 80 -188 80 -761 l0 -500 -250 0 -250 0 -5 470 c-6 519 -8 531 -72 610
-111 134 -342 97 -431 -69 -22 -40 -22 -50 -27 -526 l-5 -485 -252 -3 -253 -2
0 765 0 765 256 0 255 0 -3 -100 c-2 -55 -1 -100 2 -100 3 0 16 16 29 36 60
88 198 173 311 193 73 13 222 6 290 -15z m-1422 -776 l-3 -763 -250 0 -250 0
-3 763 -2 762 255 0 255 0 -2 -762z"/>
</g>
</svg>
