<svg width="12" height="17" viewBox="0 0 12 17" fill="none" xmlns="http://www.w3.org/2000/svg">
<path d="M11.1429 6.04764C11.1429 8.89336 6.00004 15.7619 6.00004 15.7619C6.00004 15.7619 0.857178 8.89336 0.857178 6.04764C0.857178 4.68367 1.39901 3.37557 2.36349 2.41109C3.32796 1.44662 4.63606 0.904785 6.00004 0.904785C7.36401 0.904785 8.67211 1.44662 9.63658 2.41109C10.6011 3.37557 11.1429 4.68367 11.1429 6.04764Z" stroke="black" stroke-linecap="round" stroke-linejoin="round"/>
<path d="M5.99993 7.76195C6.9467 7.76195 7.71422 6.99443 7.71422 6.04766C7.71422 5.10089 6.9467 4.33337 5.99993 4.33337C5.05316 4.33337 4.28564 5.10089 4.28564 6.04766C4.28564 6.99443 5.05316 7.76195 5.99993 7.76195Z" stroke="black" stroke-linecap="round" stroke-linejoin="round"/>
</svg>
