<svg width="560" height="204" viewBox="0 0 560 204" fill="none" xmlns="http://www.w3.org/2000/svg">
<path d="M559.982 57.5091V60.677C559.312 60.9766 559.169 61.576 559.027 62.2181C557.971 67.3124 555.361 71.6361 551.967 75.4603C546.904 81.1539 540.799 85.5775 534.153 89.2305C525.524 93.9681 516.368 97.5069 506.912 100.261C495.445 103.6 483.778 105.955 471.898 107.324C464.082 108.223 456.252 108.751 448.393 108.794C444.699 108.809 441.005 108.794 437.311 108.794C435.628 108.794 433.931 108.809 432.248 108.709C426.515 108.352 420.781 107.995 415.048 107.51C409 107.011 402.967 106.411 396.949 105.755C391.543 105.17 386.166 104.456 380.775 103.743C379.335 103.557 378.122 103.814 376.924 104.67C374.015 106.754 371.034 108.766 368.067 110.778C357.142 118.169 345.903 125.076 334.365 131.469C326.335 135.921 318.348 140.43 310.176 144.597C300.734 149.406 291.15 153.943 281.551 158.453C270.526 163.632 259.33 168.456 247.949 172.808C238.536 176.418 229.108 179.971 219.595 183.282C212.721 185.665 205.704 187.648 198.744 189.76C189.644 192.5 180.431 194.826 171.146 196.809C162.888 198.579 154.587 200.106 146.201 201.076C142.792 201.476 139.383 201.79 135.975 202.132C134.848 202.246 133.707 202.36 132.409 202.503C132.851 202.717 133.122 202.86 133.393 203.002C121.998 203.002 110.588 203.002 99.1919 203.002C99.3916 202.874 99.5912 202.731 99.8052 202.589C96.097 202.103 92.5028 201.604 88.8944 201.176C80.6793 200.191 72.7208 198.165 64.8622 195.654C55.8769 192.785 47.405 188.804 39.4323 183.738C32.5721 179.386 26.3251 174.292 20.9339 168.256C18.0957 165.088 15.4857 161.663 13.1324 158.11C8.69676 151.446 5.45922 144.183 3.22002 136.492C1.38016 130.184 0.510151 123.706 0.0965407 117.185C-0.188708 112.704 0.196395 108.223 0.738367 103.786C2.42133 90.1153 7.14219 77.5294 14.416 65.8711C17.7107 60.5914 21.3904 55.597 25.4266 50.8309C29.1919 46.3788 33.3137 42.3262 37.7066 38.5305C44.0248 33.0795 50.828 28.2849 58.0305 24.0325C68.6275 17.7824 79.8378 12.9165 91.5044 9.13501C104.64 4.88265 118.047 1.8004 131.867 0.830063C136.702 0.487591 141.551 0.18794 146.386 0.0167043C148.854 -0.0689136 151.335 0.202209 153.817 0.216479C161.376 0.287827 168.878 0.987035 176.366 1.92883C186.478 3.19883 196.49 5.08242 206.403 7.40837C221.934 11.0471 237.167 15.6991 252.242 20.8932C266.619 25.8448 280.795 31.2815 294.887 36.9751C314.412 44.8662 333.866 52.9 353.391 60.7483C362.391 64.3728 371.504 67.7262 380.604 71.1081C383.77 72.2782 383.143 72.5065 386.38 70.3661C390.431 67.6976 394.396 64.8723 398.746 62.7033C403.138 60.5057 407.46 58.1655 411.938 56.182C419.469 52.8572 427.028 49.618 434.687 46.6071C439.936 44.538 445.341 42.8827 450.704 41.1133C459.19 38.3307 467.833 36.1617 476.576 34.3495C484.021 32.8084 491.523 31.5526 499.125 31.2102C504.231 30.9818 509.365 30.8534 514.471 31.0389C520.076 31.2387 525.581 32.3232 531.015 33.6931C537.562 35.3484 543.766 37.817 549.343 41.6984C554.449 45.2515 558.157 49.832 559.298 56.1535C559.383 56.6387 559.726 57.0668 559.954 57.5234L559.982 57.5091ZM344.734 98.2062C344.178 97.9921 343.892 97.8494 343.593 97.7923C341.254 97.35 338.929 96.9362 336.59 96.5081C326.834 94.7386 317.065 92.9835 307.309 91.214C296.199 89.1877 285.103 87.1186 273.992 85.1352C265.791 83.6797 257.576 82.267 249.347 80.9541C243.57 80.0266 237.766 79.2703 231.961 78.4712C228.509 78.0003 225.058 77.5152 221.606 77.1727C216.472 76.659 211.323 76.2166 206.16 75.8028C202.067 75.4746 197.959 75.232 193.852 74.9466C192.226 74.8325 190.586 74.6755 188.96 74.647C182.156 74.5471 175.353 74.7468 168.564 75.1892C162.446 75.5888 156.384 76.3308 150.365 77.4724C143.077 78.8708 136.032 81.054 129.328 84.2362C123.68 86.9046 118.46 90.2437 113.811 94.4818C109.675 98.249 106.152 102.444 103.385 107.31C102.044 109.665 101.075 112.148 100.818 114.887C100.162 122.036 102.002 128.586 105.781 134.594C109.932 141.201 115.679 146.166 122.226 150.29C127.531 153.629 133.265 156.027 139.169 158.053C145.431 160.193 151.835 161.663 158.352 162.791C166.582 164.218 174.883 164.902 183.212 165.273C189.174 165.53 195.15 165.174 201.068 164.574C207.415 163.932 213.748 163.019 220.009 161.863C229.094 160.193 237.965 157.625 246.665 154.471C260.842 149.334 274.463 143.013 287.427 135.336C296.042 130.227 304.585 124.99 313.071 119.668C317.978 116.585 322.727 113.232 327.533 109.993C332.91 106.368 338.287 102.744 343.664 99.1051C343.964 98.9054 344.206 98.6485 344.705 98.2204L344.734 98.2062ZM416.317 82.0529C417.116 82.3098 417.544 82.4953 417.986 82.5952C421.066 83.2944 424.161 84.0079 427.256 84.65C434.074 86.0484 440.948 87.19 447.894 87.7608C452.358 88.1318 456.851 88.4029 461.315 88.3601C465.579 88.3173 469.844 87.9463 474.08 87.4754C479.214 86.8903 484.306 85.9913 489.269 84.4359C491.651 83.6939 493.862 82.5809 495.83 81.0112C497.071 80.0266 497.855 78.7281 498.297 77.244C498.754 75.7172 498.44 74.4044 497.313 73.1772C495.145 70.8084 492.493 69.2816 489.54 68.1828C480.769 64.9151 471.727 64.5298 462.556 65.6285C456.979 66.2992 451.602 67.8118 446.254 69.4956C436.527 72.5779 427.171 76.5734 418 80.997C417.515 81.2395 417.073 81.5677 416.317 82.0386V82.0529Z" fill="url(#paint0_linear_792_1452)"/>
<defs>
<linearGradient id="paint0_linear_792_1452" x1="21.9824" y1="119.002" x2="546.482" y2="44.0025" gradientUnits="userSpaceOnUse">
<stop stop-color="white"/>
<stop offset="1" stop-color="white" stop-opacity="0"/>
</linearGradient>
</defs>
</svg>
