<svg width="560" height="204" viewBox="0 0 560 204" fill="none" xmlns="http://www.w3.org/2000/svg">
<path d="M0 145.493V142.325C0.670334 142.026 0.812958 141.426 0.955583 140.784C2.011 135.69 4.62103 131.366 8.01548 127.542C13.0786 121.849 19.183 117.425 25.8293 113.772C34.458 109.034 43.6145 105.496 53.0705 102.741C64.5375 99.4024 76.2042 97.0479 88.0848 95.678C95.9006 94.779 103.731 94.251 111.589 94.2082C115.283 94.1939 118.977 94.2082 122.671 94.2082C124.354 94.2082 126.051 94.1939 127.734 94.2938C133.468 94.6506 139.201 95.0073 144.935 95.4925C150.982 95.9919 157.015 96.5912 163.034 97.2476C168.439 97.8327 173.816 98.5462 179.207 99.2597C180.648 99.4452 181.86 99.1883 183.058 98.3321C185.968 96.2488 188.949 94.2367 191.915 92.2247C202.84 84.8331 214.079 77.9265 225.617 71.5337C233.647 67.0816 241.634 62.5724 249.806 58.4057C259.248 53.5968 268.833 49.0591 278.431 44.5498C289.456 39.37 300.652 34.5468 312.033 30.1946C321.447 26.5844 330.874 23.0312 340.387 19.7207C347.262 17.3376 354.279 15.3541 361.239 13.2422C370.338 10.5025 379.552 8.17651 388.837 6.19303C397.095 4.42359 405.395 2.89674 413.782 1.9264C417.19 1.52685 420.599 1.21292 424.008 0.870448C425.134 0.756291 426.275 0.642134 427.573 0.499438C427.131 0.285393 426.86 0.142696 426.589 0C437.985 0 449.395 0 460.791 0C460.591 0.128427 460.391 0.271123 460.177 0.41382C463.885 0.898988 467.48 1.39843 471.088 1.82651C479.303 2.81112 487.262 4.83741 495.12 7.34887C504.106 10.2171 512.577 14.1983 520.55 19.264C527.41 23.6163 533.657 28.7105 539.049 34.7466C541.887 37.9145 544.497 41.3392 546.85 44.8923C551.286 51.5562 554.523 58.8195 556.762 66.5108C558.602 72.818 559.472 79.2964 559.886 85.8177C560.171 90.2983 559.786 94.779 559.244 99.2169C557.561 112.887 552.84 125.473 545.566 137.131C542.272 142.411 538.592 147.405 534.556 152.172C530.791 156.624 526.669 160.676 522.276 164.472C515.958 169.923 509.154 174.718 501.952 178.97C491.355 185.22 480.145 190.086 468.478 193.867C455.342 198.12 441.936 201.202 428.115 202.172C423.28 202.515 418.431 202.814 413.596 202.986C411.129 203.071 408.647 202.8 406.165 202.786C398.606 202.715 391.104 202.015 383.617 201.074C373.504 199.804 363.492 197.92 353.58 195.594C338.048 191.955 322.816 187.303 307.74 182.109C293.364 177.158 279.187 171.721 265.096 166.027C245.57 158.136 226.117 150.102 206.591 142.254C197.592 138.63 188.478 135.276 179.379 131.894C176.212 130.724 176.84 130.496 173.602 132.636C169.552 135.305 165.587 138.13 161.237 140.299C156.844 142.497 152.522 144.837 148.044 146.82C140.513 150.145 132.954 153.384 125.295 156.395C120.047 158.464 114.641 160.12 109.279 161.889C100.793 164.672 92.1496 166.841 83.4067 168.653C75.9617 170.194 68.4597 171.45 60.8578 171.792C55.7518 172.021 50.6174 172.149 45.5114 171.964C39.9063 171.764 34.401 170.679 28.967 169.309C22.4205 167.654 16.2164 165.185 10.6398 161.304C5.53382 157.751 1.82559 153.17 0.684597 146.849C0.599022 146.364 0.256724 145.936 0.0285249 145.479L0 145.493ZM215.249 104.796C215.805 105.01 216.09 105.153 216.39 105.21C218.729 105.652 221.053 106.066 223.392 106.494C233.148 108.264 242.918 110.019 252.673 111.788C263.784 113.815 274.88 115.884 285.99 117.867C294.191 119.323 302.406 120.735 310.636 122.048C316.412 122.976 322.217 123.732 328.022 124.531C331.473 125.002 334.925 125.487 338.376 125.83C343.511 126.343 348.659 126.786 353.822 127.2C357.916 127.528 362.023 127.77 366.131 128.056C367.757 128.17 369.397 128.327 371.023 128.355C377.826 128.455 384.629 128.256 391.418 127.813C397.537 127.414 403.598 126.672 409.617 125.53C416.905 124.132 423.951 121.948 430.654 118.766C436.302 116.098 441.522 112.759 446.172 108.521C450.308 104.753 453.83 100.558 456.597 95.6923C457.938 93.3378 458.908 90.8548 459.165 88.1151C459.821 80.966 457.981 74.4162 454.201 68.4087C450.051 61.8018 444.303 56.836 437.757 52.7121C432.451 49.373 426.718 46.9757 420.813 44.9494C414.552 42.8089 408.148 41.3392 401.63 40.2119C393.401 38.7849 385.1 38.1 376.771 37.729C370.809 37.4721 364.833 37.8288 358.914 38.4282C352.567 39.0703 346.235 39.9836 339.974 41.1394C330.888 42.8089 322.017 45.3775 313.317 48.5311C299.14 53.6681 285.52 59.9896 272.555 67.6667C263.941 72.7752 255.397 78.0122 246.911 83.3347C242.005 86.417 237.255 89.7704 232.449 93.0096C227.072 96.6341 221.695 100.259 216.318 103.897C216.019 104.097 215.776 104.354 215.277 104.782L215.249 104.796ZM143.665 120.95C142.867 120.693 142.439 120.507 141.997 120.407C138.916 119.708 135.821 118.995 132.726 118.352C125.909 116.954 119.034 115.812 112.088 115.242C107.624 114.871 103.132 114.6 98.6675 114.642C94.403 114.685 90.1385 115.056 85.9026 115.527C80.7681 116.112 75.6764 117.011 70.7131 118.566C68.3313 119.309 66.1206 120.422 64.1524 121.991C62.9116 122.976 62.1271 124.274 61.685 125.758C61.2286 127.285 61.5424 128.598 62.6691 129.825C64.837 132.194 67.4898 133.721 70.4421 134.82C79.2135 138.087 88.2559 138.473 97.4266 137.374C103.003 136.703 108.38 135.191 113.729 133.507C123.456 130.425 132.812 126.429 141.982 122.005C142.467 121.763 142.91 121.435 143.665 120.964V120.95Z" fill="url(#paint0_linear_790_1465)"/>
<defs>
<linearGradient id="paint0_linear_790_1465" x1="538" y1="84" x2="13.5" y2="159" gradientUnits="userSpaceOnUse">
<stop stop-color="white"/>
<stop offset="1" stop-color="white" stop-opacity="0"/>
</linearGradient>
</defs>
</svg>
