<svg width="288" height="276" viewBox="0 0 288 276" fill="none" xmlns="http://www.w3.org/2000/svg">
<path fill-rule="evenodd" clip-rule="evenodd" d="M75.174 64.348C95.7047 64.348 112.348 47.7047 112.348 27.174C112.348 6.64337 95.7047 -10 75.174 -10C54.6434 -10 38 6.64337 38 27.174C38 47.7047 54.6434 64.348 75.174 64.348ZM148.993 41.4571C142.321 76.144 111.808 102.348 75.174 102.348C33.6566 102.348 0 68.6915 0 27.174C0 -14.3434 33.6566 -48 75.174 -48C111.808 -48 142.321 -21.7959 148.993 12.891H172.752C179.424 -21.7959 209.937 -48 246.571 -48C288.088 -48 321.745 -14.3434 321.745 27.174C321.745 63.8077 295.541 94.3211 260.854 100.993V127.007C295.541 133.679 321.745 164.192 321.745 200.826C321.745 242.343 288.088 276 246.571 276C205.053 276 171.397 242.343 171.397 200.826C171.397 164.192 197.601 133.679 232.288 127.007V100.993C202.225 95.2105 178.534 71.5197 172.752 41.4571H148.993ZM246.571 64.348C267.101 64.348 283.745 47.7047 283.745 27.174C283.745 6.64337 267.101 -10 246.571 -10C226.04 -10 209.397 6.64337 209.397 27.174C209.397 47.7047 226.04 64.348 246.571 64.348ZM283.745 200.826C283.745 221.357 267.101 238 246.571 238C226.04 238 209.397 221.357 209.397 200.826C209.397 180.295 226.04 163.652 246.571 163.652C267.101 163.652 283.745 180.295 283.745 200.826Z" fill="url(#paint0_linear_110_1551)" fill-opacity="0.3"/>
<defs>
<linearGradient id="paint0_linear_110_1551" x1="177.035" y1="14.7703" x2="192.07" y2="276" gradientUnits="userSpaceOnUse">
<stop stop-color="#D9D9D9"/>
<stop offset="1" stop-color="#D9D9D9" stop-opacity="0"/>
</linearGradient>
</defs>
</svg>
