<svg width="290" height="270" viewBox="0 0 290 270" fill="none" xmlns="http://www.w3.org/2000/svg">
<path fill-rule="evenodd" clip-rule="evenodd" d="M214.571 211.652C194.04 211.652 177.397 228.295 177.397 248.826C177.397 269.357 194.04 286 214.571 286C235.101 286 251.745 269.357 251.745 248.826C251.745 228.295 235.101 211.652 214.571 211.652ZM140.752 234.543C147.424 199.856 177.937 173.652 214.571 173.652C256.088 173.652 289.745 207.309 289.745 248.826C289.745 290.343 256.088 324 214.571 324C177.937 324 147.424 297.796 140.752 263.109H116.993C110.321 297.796 79.8075 324 43.1739 324C1.6564 324 -32.0002 290.343 -32.0002 248.826C-32.0002 212.192 -5.79605 181.679 28.8908 175.007V148.993C-5.79605 142.321 -32.0002 111.808 -32.0002 75.174C-32.0002 33.6566 1.6564 0 43.1739 0C84.6913 0 118.348 33.6566 118.348 75.174C118.348 111.808 92.1438 142.321 57.4569 148.993V175.007C87.5195 180.789 111.21 204.48 116.993 234.543H140.752ZM43.1739 211.652C22.6432 211.652 5.99985 228.295 5.99985 248.826C5.99985 269.357 22.6432 286 43.1739 286C63.7045 286 80.3479 269.357 80.3479 248.826C80.3479 228.295 63.7045 211.652 43.1739 211.652ZM5.99985 75.174C5.99985 54.6434 22.6432 38 43.1739 38C63.7045 38 80.3479 54.6434 80.3479 75.174C80.3479 95.7047 63.7045 112.348 43.1739 112.348C22.6432 112.348 5.99985 95.7047 5.99985 75.174Z" fill="url(#paint0_linear_110_1557)" fill-opacity="0.3"/>
<defs>
<linearGradient id="paint0_linear_110_1557" x1="26.4998" y1="251.5" x2="331" y2="260.5" gradientUnits="userSpaceOnUse">
<stop stop-color="#D9D9D9"/>
<stop offset="1" stop-color="#D9D9D9" stop-opacity="0"/>
</linearGradient>
</defs>
</svg>
