<svg width="24" height="24" viewBox="0 0 24 24" fill="none" xmlns="http://www.w3.org/2000/svg">
<circle cx="11.5" cy="12.5" r="11.5" fill="#4CA8DF"/>
<g clip-path="url(#clip0_505_2933)">
<path d="M19 8.32609C18.4758 8.54734 17.9197 8.69257 17.3503 8.75695C17.9434 8.4183 18.3988 7.88204 18.6132 7.24308C18.0494 7.56182 17.4326 7.7864 16.7893 7.9071C16.2654 7.37531 15.5189 7.04297 14.6928 7.04297C13.1065 7.04297 11.8204 8.26815 11.8204 9.77926C11.8204 9.99375 11.8458 10.2026 11.8948 10.4029C9.50767 10.2887 7.39127 9.19938 5.97459 7.54386C5.7274 7.948 5.58576 8.41809 5.58576 8.9195C5.58576 9.86887 6.09288 10.7064 6.86353 11.1971C6.40741 11.1835 5.96132 11.0661 5.56252 10.8548C5.56235 10.8663 5.56235 10.8777 5.56235 10.8892C5.56235 12.215 6.55241 13.321 7.86634 13.5724C7.44338 13.682 6.99972 13.698 6.56926 13.6193C6.93473 14.7064 7.99551 15.4975 9.25234 15.5196C8.26933 16.2535 7.03082 16.691 5.68518 16.691C5.4533 16.691 5.22471 16.678 5 16.6527C6.2711 17.4291 7.78086 17.8821 9.40289 17.8821C14.6861 17.8821 17.5751 13.7125 17.5751 10.0966C17.5751 9.97791 17.5723 9.85991 17.5668 9.74258C18.1291 9.35531 18.6144 8.87564 19 8.32609Z" fill="#FEFEFE"/>
</g>
<defs>
<clipPath id="clip0_505_2933">
<rect width="14" height="10.8889" fill="white" transform="translate(5 7)"/>
</clipPath>
</defs>
</svg>
