<svg width="160" height="160" viewBox="0 0 160 160" fill="none" xmlns="http://www.w3.org/2000/svg">
<path d="M134.248 94.212C131.828 93.8219 129.446 93.4392 127.02 93.0768C126.49 92.998 126.406 93.7198 126.376 94.0987C126.325 94.741 126.305 95.3856 126.263 95.9911C126.229 96.4833 128.269 98.8297 128.647 99.2078C128.694 99.2525 128.751 99.2864 128.813 99.3071C128.875 99.3278 128.94 99.3348 129.005 99.3276C129.07 99.3205 129.132 99.2994 129.188 99.2657C129.244 99.2321 129.292 99.1868 129.328 99.1328C129.934 98.2624 129.12 97.353 129.178 96.4458C129.206 95.9911 129.895 95.6812 130.389 95.5379C130.803 95.4171 131.978 98.3007 131.941 98.4515C131.739 98.9692 131.687 99.5331 131.791 100.079C131.828 100.344 132.358 100.609 132.396 100.571C132.396 100.609 132.056 102.918 131.867 103.675C130.996 103.41 128.233 102.728 127.704 102.614L126.606 99.8899C126.606 99.7398 125.697 98.8679 125.622 98.9812C125.277 100.18 125.049 101.41 124.941 102.653C124.948 102.77 124.998 102.881 125.081 102.964C125.164 103.048 125.274 103.098 125.391 103.107C126.222 103.233 131.142 104.399 132.128 104.734C132.185 104.752 132.245 104.759 132.304 104.753C132.364 104.748 132.421 104.731 132.474 104.703C132.527 104.675 132.574 104.637 132.612 104.591C132.65 104.544 132.678 104.491 132.695 104.434C133.415 101.217 134.058 98.0005 134.587 94.7838C134.589 94.5527 134.479 94.2488 134.248 94.212Z" fill="#38A1FF"/>
<path d="M146.737 75.7817C146.832 75.777 146.922 75.7395 146.992 75.6755C147.062 75.6116 147.108 75.5253 147.122 75.4314C147.135 75.3375 147.115 75.2418 147.066 75.1608C147.017 75.0797 146.941 75.0183 146.851 74.9871C145.762 74.5144 141.213 74.0319 140.152 73.8901C138.035 73.6065 133.302 72.9057 133.037 73.133C132.28 73.7003 129.406 76.2004 128.685 76.8037C128.006 77.3732 125.459 79.4082 125.09 80.0205C124.934 80.2823 125.24 80.5127 125.506 80.4369C125.976 80.2606 132.95 74.7725 133.719 74.0034C135.763 74.4957 142.084 75.3188 143.105 75.4418C144.301 75.6793 145.518 75.7932 146.737 75.7817Z" fill="#38A1FF"/>
<path d="M134.06 119.758C132.917 119.474 131.752 119.284 130.578 119.19C130.238 119.271 130.203 119.607 130.162 119.909C130.105 120.945 130.143 121.984 130.275 123.013C130.345 123.317 133.038 124.413 133.227 123.846C133.452 123.164 134.287 120.855 134.362 120.363C134.384 120.304 134.394 120.24 134.391 120.177C134.387 120.113 134.371 120.051 134.343 119.995C134.314 119.938 134.275 119.887 134.226 119.847C134.177 119.806 134.121 119.776 134.06 119.758Z" fill="#38A1FF"/>
<path d="M148.63 100.23C147.875 104.412 146.224 120.507 146.095 120.894C145.644 121.399 142.985 124.336 142.765 124.946C142.689 125.096 142.915 125.435 143.029 125.362C143.324 125.155 143.579 124.899 143.786 124.605C144.086 124.264 146.7 121.729 146.776 121.653C147.067 121.094 147.197 120.465 147.151 119.836C147.212 119.116 148.817 101.903 148.854 100.27C148.861 100.117 148.63 100.078 148.63 100.23Z" fill="#38A1FF"/>
<path d="M137.05 107.723C136.985 107.708 136.919 107.706 136.854 107.719C136.789 107.732 136.728 107.759 136.674 107.798C135.984 108.277 136.167 109.8 136.031 110.523C135.989 110.748 136.145 111.053 136.407 111.014C137.779 110.924 138.632 111.548 138.867 110.599C139.034 109.923 139.207 109.236 139.358 108.555C139.771 107.867 137.285 107.782 137.05 107.723Z" fill="#38A1FF"/>
<path d="M129.556 111.848C129.144 111.778 128.726 111.74 128.308 111.735C127.399 111.735 127.437 112.946 127.399 113.589C127.393 113.704 127.406 113.819 127.437 113.93C127.478 113.98 127.53 114.019 127.589 114.045C127.648 114.071 127.713 114.083 127.777 114.08C128.286 114.196 128.809 114.234 129.329 114.193C129.425 114.14 129.506 114.063 129.566 113.971C129.625 113.878 129.661 113.773 129.67 113.663C129.788 113.244 129.852 112.812 129.859 112.376C129.859 111.991 129.772 111.92 129.556 111.848Z" fill="#38A1FF"/>
<path d="M46.183 63.028C46.742 62.1148 46.9033 60.9098 47.6214 60.1137C47.9621 59.7385 48.3027 59.8008 48.7567 59.8135C49.5521 59.8323 51.1788 59.2838 51.103 58.2243C51.0647 57.9594 50.7624 57.6938 50.4975 57.8836C49.9677 58.2588 49.8537 58.7886 49.1349 58.9049C48.4528 59.0159 47.7722 58.7548 47.205 59.2455C46.2949 60.2715 45.7727 61.5837 45.729 62.9545C45.7253 63.1413 46.0674 63.2163 46.183 63.028Z" fill="#191919"/>
<path d="M100.529 56.707C100.635 56.8502 100.761 56.9767 100.904 57.0822C101.027 57.1863 101.141 57.3003 101.245 57.4228C101.375 57.5526 101.026 57.9481 100.904 58.0666C100.454 58.6969 100.405 59.7174 100.979 59.8449C101.129 59.8795 101.32 59.8074 101.32 59.6559C101.328 59.5542 101.315 59.452 101.282 59.3557C101.244 59.3174 101.244 59.2417 101.207 59.2056C101.181 59.0911 101.195 58.9713 101.244 58.865C101.357 58.5717 101.524 58.3022 101.736 58.0704C102.267 57.221 101.385 56.8901 100.79 56.5187C100.564 56.3288 100.414 56.5554 100.529 56.707Z" fill="#191919"/>
<path d="M149.159 87.7787C145.283 102.988 142.31 122.935 142.31 125.094C142.314 125.204 142.358 125.308 142.432 125.389C142.507 125.469 142.607 125.521 142.716 125.534C142.825 125.548 142.935 125.522 143.027 125.463C143.119 125.403 143.187 125.312 143.218 125.207C143.51 124.013 143.713 122.799 143.824 121.574C143.994 120.361 149.233 90.6975 149.576 87.9303C149.618 87.5904 149.237 87.4763 149.159 87.7787Z" fill="#191919"/>
<path d="M113.358 76.5007C113.183 77.0826 112.915 77.6322 112.563 78.1282C112.543 78.1702 112.537 78.2174 112.545 78.2633C112.553 78.3092 112.575 78.3515 112.607 78.3844C112.64 78.4173 112.683 78.4392 112.729 78.4471C112.774 78.4549 112.822 78.4484 112.864 78.4283C113.365 78.098 113.769 77.6411 114.037 77.104C114.465 76.2186 114.141 75.8044 115.059 73.1271C115.441 72.0136 115.723 71.6317 115.509 71.159C115.474 71.1027 115.423 71.0583 115.362 71.0315C115.301 71.0047 115.234 70.9969 115.169 71.0089C114.601 71.1987 114.418 72.1097 114.26 72.5989C113.811 73.8607 113.508 75.1699 113.358 76.5007Z" fill="#191919"/>
<path d="M111.882 74.1164C112.056 74.2294 112.264 74.2798 112.47 74.2592C112.676 74.2386 112.87 74.1483 113.018 74.0031C113.495 73.3191 113.866 72.566 114.115 71.77C114.126 71.7352 114.129 71.6986 114.125 71.6625C114.121 71.6263 114.11 71.5913 114.093 71.5595C114.075 71.5278 114.051 71.4999 114.022 71.4775C113.994 71.4551 113.961 71.4388 113.926 71.4294C113.776 71.3543 113.661 71.4294 113.55 71.5427C112.511 72.9286 112.645 72.867 112.378 73.2084C111.446 71.9937 110.599 70.7166 109.841 69.3862C109.691 69.1213 109.501 68.6291 109.198 68.4775C108.973 68.4025 108.706 68.44 108.63 68.7026C108.635 69.1405 108.782 69.5652 109.047 69.9137C109.237 70.2048 111.143 73.5618 111.882 74.1164Z" fill="#191919"/>
<path d="M108.287 72.2237C108.469 72.5689 109.009 73.0199 109.271 72.4488C109.453 72.0534 109.076 71.4952 108.249 70.0643C108.139 69.8737 107.985 69.1938 107.72 69.1938C107.57 69.1938 107.495 69.3079 107.495 69.4587C107.565 70.4251 107.835 71.3665 108.287 72.2237Z" fill="#191919"/>
<path d="M106.168 71.505C106.313 71.9034 106.756 72.8609 107.151 73.0192C107.527 73.2083 107.833 72.8691 107.833 72.4887C107.574 71.7644 107.244 71.0673 106.849 70.4072C106.812 70.3248 106.749 70.2566 106.669 70.2131C106.59 70.1696 106.499 70.153 106.409 70.1659C106.319 70.1787 106.236 70.2203 106.172 70.2844C106.108 70.3485 106.067 70.4316 106.054 70.5213C105.974 70.8522 106.014 71.2009 106.168 71.505Z" fill="#191919"/>
<path d="M104.165 72.8294C104.947 74.9184 106.245 74.4344 106.132 73.7381C106.065 73.3201 105.682 73.0568 105.451 72.7919C105.221 72.527 104.992 72.2276 104.77 71.959C104.616 71.7729 104.202 71.5051 104.051 71.8089C103.794 71.977 104.025 72.5578 104.165 72.8294Z" fill="#191919"/>
<path d="M116.386 79.9066C116.04 79.3353 115.634 78.8026 115.175 78.3173C115.121 78.2864 115.062 78.2676 115 78.2624C114.939 78.2572 114.877 78.2656 114.819 78.2871C114.761 78.3087 114.709 78.3427 114.665 78.3868C114.622 78.431 114.589 78.4841 114.569 78.5424C114.304 79.3378 112.223 80.4731 111.92 80.5864C111.882 80.5489 111.012 79.716 110.974 79.6777C111 79.6018 111.007 79.5205 110.994 79.4412C110.981 79.3619 110.948 79.2871 110.899 79.2237C110.506 78.8313 109.848 79.9741 108.704 79.716C107.966 79.4704 107.311 79.0249 106.811 78.4291C104.516 76.1338 103.854 75.0601 102.8 74.1904C102.613 74.0404 102.232 74.1904 102.35 74.4553C102.88 76.0453 104.205 77.3681 105.339 78.5424C106.362 79.6012 107.573 80.9758 109.2 80.8513C109.671 80.7572 110.128 80.606 110.562 80.401C110.966 81.0073 110.89 80.5271 110.448 80.9683C110.398 81.0221 110.36 81.0865 110.338 81.1569C110.317 81.2272 110.311 81.3016 110.322 81.3745C110.333 81.4473 110.36 81.5168 110.402 81.5776C110.443 81.6383 110.498 81.6889 110.562 81.7254C111.052 82.1022 111.496 82.5339 111.887 83.0123C112.416 83.7694 114.952 81.9528 115.596 81.4605C115.894 81.3067 116.795 80.6292 116.386 79.9066Z" fill="#191919"/>
<path d="M97.9176 61.6277C99.9239 61.0153 101.844 60.1505 103.632 59.054C104.304 58.7189 104.938 58.3129 105.524 57.8429C105.564 57.8034 105.596 57.7563 105.618 57.7043C105.64 57.6524 105.651 57.5965 105.651 57.5401C105.651 57.4837 105.64 57.4279 105.618 57.3759C105.596 57.324 105.564 57.2768 105.524 57.2374C105.099 56.8119 104.419 57.5615 103.178 58.2593C101.316 59.3098 97.9499 61.0626 97.7278 61.1737C97.5387 61.3245 97.6895 61.7012 97.9176 61.6277Z" fill="#38A1FF"/>
<path d="M118.316 58.2221C118.316 57.907 117.866 57.3907 115.326 53.7951C114.647 52.8324 113.473 51.4502 113.283 51.2596C113.245 51.1665 113.173 51.0913 113.081 51.0494C112.99 51.0076 112.886 51.0023 112.79 51.0345C112.429 51.1741 111.386 52.3356 109.838 53.6457C107.383 55.7242 107.559 55.6417 106.735 56.2945C106.545 56.4445 106.81 56.7867 107 56.6351C107.605 56.2945 108.182 55.9666 108.741 55.5756C110.291 54.4461 111.746 53.1932 113.093 51.8292C113.585 52.6238 114.119 53.4537 114.645 54.213C115.727 55.7767 117.325 58.3557 117.408 58.4517C116.011 60.0138 114.452 61.4225 112.756 62.6537C109.865 64.7464 106.675 66.3921 103.295 67.5354C103.115 67.3607 102.925 67.1964 102.727 67.0432C101.006 65.5535 99.3638 63.9757 97.8066 62.316C97.6175 62.1269 97.3114 62.391 97.4314 62.5809C98.7581 64.4636 100.294 66.1901 102.009 67.7275C102.243 67.9826 102.526 68.1885 102.841 68.333C102.936 68.3526 103.035 68.3413 103.124 68.3009C103.212 68.2604 103.285 68.1928 103.333 68.1079C107.985 67.1993 112.262 64.5415 115.822 61.4471C116.375 60.9541 118.836 58.7413 118.316 58.2221Z" fill="#38A1FF"/>
<path d="M38.6893 52.6579C38.938 52.8322 39.2226 52.9486 39.5222 52.9985C41.792 53.5665 41.912 53.7331 42.3225 53.6423C42.3986 53.6207 42.4678 53.5795 42.5229 53.5226C42.578 53.4658 42.6171 53.3955 42.6364 53.3187C42.6556 53.2419 42.6543 53.1614 42.6325 53.0853C42.6107 53.0092 42.5693 52.9402 42.5123 52.8852C42.2872 52.6204 41.8685 52.5851 41.5279 52.4688C40.9929 52.3352 39.2926 51.9938 38.8034 52.2039C38.6518 52.3172 38.5385 52.5071 38.6893 52.6579Z" fill="#38A1FF"/>
<path d="M57.1188 51.8624C56.7781 50.7272 55.2617 49.823 54.3943 49.2512C51.3576 47.3413 47.9535 46.0907 44.4026 45.5805C43.8354 45.5055 43.2291 45.4755 42.6243 45.4305C42.09 45.3077 41.5363 45.2947 40.9968 45.3922C40.6967 45.5423 40.5759 46.0713 40.4288 46.3767C40.1947 46.8651 39.9373 47.3604 39.71 47.8526C39.3971 48.1655 39.3183 49.0636 37.6668 51.8294C37.51 52.0913 37.8919 52.2796 38.0825 52.0545C39.3179 50.2861 40.3945 48.4119 41.3 46.4539C41.3971 46.3009 41.4728 46.1353 41.5251 45.9617C43.36 46.1994 45.1716 46.592 46.9403 47.1353C50.4175 48.1087 53.6358 49.8405 56.3639 52.2061C56.5935 52.3914 54.8872 55.2337 54.8122 55.4228C54.2196 56.5185 53.5085 57.5459 52.6917 58.4865C51.7643 57.3272 46.749 54.3041 44.8198 53.9844C44.7664 53.9682 44.7089 53.972 44.6581 53.995C44.6072 54.018 44.5664 54.0587 44.5433 54.1095C44.5202 54.1603 44.5163 54.2178 44.5324 54.2712C44.5485 54.3247 44.5834 54.3705 44.6308 54.4001C45.9161 55.245 47.1819 55.6007 50.3454 57.8442C50.7716 58.1443 51.9962 59.2068 52.3511 59.2068C52.3682 59.2247 52.3887 59.239 52.4115 59.2487C52.4342 59.2585 52.4587 59.2635 52.4835 59.2635C52.5083 59.2635 52.5328 59.2585 52.5555 59.2487C52.5783 59.239 52.5988 59.2247 52.6159 59.2068C53.7857 58.3131 54.764 57.1934 55.4928 55.9143C56.1099 54.9459 56.6295 53.9187 57.0437 52.8476C57.1296 52.6997 57.1809 52.5342 57.1939 52.3636C57.2069 52.193 57.1812 52.0217 57.1188 51.8624Z" fill="#38A1FF"/>
<path d="M46.4103 50.3867C46.2327 50.7046 46.1539 51.0682 46.184 51.431C46.214 51.7939 46.3515 52.1396 46.5789 52.4239C46.8064 52.7083 47.1134 52.9184 47.4608 53.0274C47.8081 53.1365 48.1802 53.1395 48.5293 53.0362C49.0209 52.9042 49.4469 52.5959 49.726 52.1702C50.0051 51.7444 50.1178 51.2309 50.0427 50.7274C49.9813 50.2306 49.7533 49.7694 49.396 49.4189C49.0387 49.0684 48.5731 48.8493 48.0753 48.7975C47.6206 48.7697 46.9776 49.0226 47.0158 49.5921C47.0147 49.6438 47.0254 49.6952 47.047 49.7422C47.0687 49.7893 47.1007 49.8308 47.1408 49.8636C47.1808 49.8964 47.2278 49.9197 47.2782 49.9317C47.3286 49.9437 47.381 49.944 47.4315 49.9327C47.9995 49.7827 48.4145 49.6686 48.8699 50.1976C48.9937 50.3408 49.085 50.5091 49.1375 50.6909C49.1899 50.8728 49.2023 51.0638 49.1738 51.2509C49.1453 51.438 49.0765 51.6167 48.9722 51.7746C48.8679 51.9326 48.7306 52.066 48.5698 52.1658C48.3534 52.2904 48.1039 52.3452 47.8552 52.3227C47.6065 52.3002 47.3709 52.2014 47.1804 52.04C46.9899 51.8785 46.854 51.6621 46.7911 51.4205C46.7282 51.1788 46.7414 50.9237 46.829 50.6898C46.9753 50.3477 46.5994 50.0843 46.4103 50.3867Z" fill="#38A1FF"/>
<path d="M107.833 59.1685C106.221 60.0914 106.952 62.7378 109.422 63.0282C111.682 63.2939 113.014 60.796 111.655 59.2818C111.287 58.935 110.839 58.6845 110.35 58.5524C109.862 58.4204 109.348 58.4108 108.855 58.5247C108.8 58.5454 108.752 58.5806 108.715 58.6267C108.679 58.6728 108.655 58.7279 108.647 58.7862C108.64 58.8445 108.648 58.9038 108.671 58.9578C108.695 59.0117 108.732 59.0584 108.78 59.0927C109.39 59.4866 110.731 59.2893 111.165 60.2655C111.238 60.4733 111.26 60.6955 111.23 60.9138C111.201 61.132 111.12 61.3402 110.994 61.5212C110.869 61.7021 110.702 61.8508 110.508 61.9549C110.314 62.0591 110.098 62.1158 109.878 62.1203C109.54 62.1553 109.198 62.1082 108.881 61.9829C108.565 61.8577 108.284 61.6579 108.061 61.4007C107.831 61.13 107.707 60.7842 107.714 60.4287C107.721 60.0731 107.858 59.7324 108.099 59.4708C108.253 59.3223 108.025 59.0581 107.833 59.1685Z" fill="#38A1FF"/>
<path d="M43.0036 60.7168C43.3139 60.2641 43.58 59.7827 43.7982 59.2791C43.9408 58.9347 44.0983 58.5603 43.8732 58.2196C43.5536 57.7394 43.3757 57.9443 42.7762 56.8945C42.0191 55.192 42.8513 52.9177 43.3817 51.2557C44.6859 53.7115 44.3887 55.3143 44.6303 55.7975C44.8719 56.1194 45.2734 56.0556 45.2734 55.5724C45.3052 54.1531 44.9801 52.7485 44.3279 51.4875C44.2205 51.2137 44.0524 50.9677 43.8365 50.7679C43.7335 50.6675 43.6052 50.5969 43.4653 50.5636C43.3253 50.5303 43.179 50.5356 43.0418 50.5788C42.4003 50.8482 42.3185 52.0915 42.1714 52.6986C41.7497 54.4334 41.3386 56.2852 42.5113 57.8077C42.7631 58.1228 43.0561 58.4027 43.3825 58.6398C43.2092 58.8124 43.5558 58.405 42.6254 60.5322C42.6093 60.581 42.6114 60.6339 42.6314 60.6812C42.6513 60.7286 42.6877 60.7671 42.7339 60.7896C42.7801 60.8121 42.8328 60.8171 42.8824 60.8038C42.932 60.7904 42.975 60.7595 43.0036 60.7168Z" fill="#191919"/>
<path d="M150.75 75.8571C150.005 79.1316 149.832 83.4259 149.16 86.1136C147.722 85.773 146.171 85.6176 144.694 85.394C142.916 85.1254 124.823 82.0828 122.971 81.8366C122.705 81.8021 122.63 82.1015 122.746 82.2914C122.571 84.5739 122.705 87.5903 122.708 89.0175C119.024 82.0775 118.969 81.2604 117.637 79.6419C117.449 79.4168 117.107 79.6794 117.187 79.9068C117.603 81.2311 118.148 82.5114 118.814 83.729C120.634 87.6413 122.744 91.4114 125.128 95.0075C125.534 95.6078 127.545 98.5431 128.193 98.8673C128.344 98.9423 128.498 98.829 128.458 98.6422C128.337 98.0696 126.255 95.6108 123.709 90.9046C123.863 88.2139 123.797 85.5152 123.511 82.8354C126.162 83.6878 142.845 86.2202 143.9 86.38C145.712 86.7364 147.544 86.9765 149.387 87.0988C149.489 87.1352 149.601 87.1363 149.704 87.1021C149.806 87.0678 149.895 87.0001 149.955 86.9097C150.392 85.9898 150.786 82.1751 150.863 81.2326C150.936 79.4845 151.101 77.7413 151.355 76.0102C151.37 75.932 151.354 75.8511 151.311 75.784C151.268 75.7169 151.201 75.6687 151.124 75.6492C151.047 75.6297 150.965 75.6403 150.896 75.679C150.826 75.7176 150.774 75.7813 150.75 75.8571Z" fill="#191919"/>
<path d="M127.172 100.23C127.097 100.041 126.983 99.7376 126.756 99.6618C126.262 99.0828 125.703 98.5622 125.09 98.1101C119.457 93.0565 119.388 93.7528 111.579 83.9938C111.429 83.8048 111.088 84.0689 111.239 84.2587C114.655 89.6492 117.756 93.5262 123.143 97.6546C122.666 115.627 122.139 116.948 122.366 119.644C122.398 120.019 122.966 120.135 123.047 119.719C123.747 116.148 123.819 101.818 123.852 98.1709C124.638 98.8145 125.47 99.401 126.34 99.9259C126.412 100.785 126.616 101.627 126.945 102.424C126.997 102.507 127.078 102.567 127.172 102.594C127.266 102.622 127.367 102.614 127.455 102.572C127.544 102.53 127.614 102.457 127.652 102.367C127.691 102.277 127.695 102.176 127.664 102.083C127.552 101.453 127.387 100.833 127.172 100.23Z" fill="#191919"/>
<path d="M132.886 99.9266C132.44 99.7558 131.963 99.6792 131.486 99.7015C131.385 99.7046 131.287 99.7391 131.207 99.8001C131.126 99.8611 131.066 99.9457 131.036 100.042C131.014 100.137 130.972 100.227 130.913 100.305C130.855 100.383 130.78 100.448 130.695 100.496C130.19 100.698 129.771 99.8569 129.522 100.231C129.242 100.79 129.905 101.518 130.582 101.518C130.843 101.516 131.099 101.44 131.32 101.3C131.541 101.159 131.718 100.96 131.83 100.724C132.105 100.782 132.383 100.82 132.663 100.837C132.765 100.825 132.86 100.783 132.936 100.715C133.013 100.648 133.067 100.558 133.091 100.459C133.116 100.36 133.109 100.256 133.072 100.161C133.036 100.066 132.971 99.9839 132.886 99.9266Z" fill="#191919"/>
<path d="M131.145 99.2097C131.195 99.1463 131.227 99.0716 131.241 98.9922C131.254 98.9129 131.247 98.8316 131.22 98.7557C131.189 98.7126 131.149 98.6763 131.103 98.649C131.057 98.6218 131.006 98.6041 130.953 98.5971C130.9 98.5901 130.846 98.5939 130.794 98.6082C130.743 98.6226 130.695 98.6472 130.653 98.6807C130.428 98.8697 130.047 99.0558 129.82 98.7557C129.595 98.5306 129.933 98.2147 129.933 97.7712C129.954 97.6892 129.957 97.6038 129.943 97.5204C129.928 97.4371 129.897 97.3575 129.851 97.2866C129.805 97.2157 129.745 97.1551 129.675 97.1083C129.604 97.0616 129.525 97.0298 129.442 97.0149C129.606 96.6721 129.745 96.3178 129.858 95.9547C130.079 96.0113 130.279 96.1308 130.433 96.2988C130.588 96.4667 130.69 96.6758 130.729 96.9008C130.744 97.0572 130.802 97.2066 130.895 97.3331C130.988 97.4597 131.114 97.559 131.258 97.6204C131.448 97.6955 131.634 97.7337 131.709 97.9611C131.746 98.1502 131.709 98.3768 131.934 98.4908C132.123 98.5659 132.234 98.4518 132.309 98.3017C132.553 97.7693 132.631 97.1759 132.534 96.5985C132.478 96.3488 132.352 96.1202 132.171 95.9393C131.99 95.7583 131.762 95.6325 131.512 95.5765C131.324 95.2124 131.003 94.9347 130.615 94.8008C130.228 94.667 129.803 94.6874 129.431 94.8576C128.623 95.2606 128.878 95.8331 129.241 95.9547C129.008 96.2951 128.854 96.6832 128.791 97.0907C128.793 97.226 128.838 97.3571 128.918 97.4657C128.999 97.5743 129.112 97.6549 129.241 97.6962C129.241 98.0766 128.601 98.8968 129.581 99.5503C129.845 99.6661 130.138 99.6955 130.419 99.6343C130.7 99.5731 130.954 99.4244 131.145 99.2097Z" fill="#191919"/>
<path d="M122.592 120.819C124.051 121.534 125.571 122.116 127.133 122.56C131.721 124.033 136.433 125.085 141.212 125.701C141.704 125.771 141.818 124.868 141.325 124.831C135.799 124.078 130.352 122.824 125.052 121.084C124.295 120.819 123.535 120.642 122.781 120.44C122.515 120.369 122.363 120.709 122.592 120.819Z" fill="#191919"/>
<path d="M31.4609 74.3809C31.8004 74.5984 32.1704 74.7643 32.5586 74.8731C32.9338 74.9864 33.4666 75.5162 33.0126 75.8951C32.9447 75.9242 32.8811 75.9623 32.8235 76.0084C32.7748 76.0532 32.7408 76.1117 32.726 76.1763C32.7112 76.2408 32.7164 76.3083 32.7407 76.3698C32.7651 76.4314 32.8076 76.4841 32.8626 76.5209C32.9176 76.5578 32.9824 76.5772 33.0486 76.5764C33.5408 76.6139 33.919 76.0842 33.9573 75.6302C33.964 75.4046 33.9117 75.1812 33.8055 74.9821C33.6993 74.7829 33.5429 74.615 33.3518 74.495C32.8573 74.149 32.1287 74.1806 31.6485 73.6996C31.5123 73.5591 31.3869 73.4087 31.2733 73.2494C31.2357 73.2117 31.187 73.1871 31.1343 73.1794C31.0816 73.1716 31.0279 73.1811 30.981 73.2065C30.9342 73.2318 30.8968 73.2715 30.8744 73.3198C30.8521 73.3681 30.8459 73.4224 30.8569 73.4745C30.8772 73.663 30.9427 73.8438 31.0479 74.0016C31.1531 74.1594 31.2947 74.2895 31.4609 74.3809Z" fill="#191919"/>
<path d="M33.8831 78.2415C34.3138 77.9189 34.307 77.5302 34.1082 77.3329C33.4756 76.7003 32.5325 78.4907 31.4212 78.8471C31.3065 78.8717 31.1869 78.8583 31.0805 78.8088C30.9305 78.7713 30.8554 78.9964 30.9672 79.0737C31.5106 79.5053 32.1684 79.7685 32.8596 79.8308C33.9101 80.0416 34.4128 79.5479 34.3738 79.0362C34.3524 78.8767 34.2977 78.7235 34.2131 78.5865C34.1286 78.4496 34.0161 78.3321 33.8831 78.2415ZM33.658 79.1877C33.5169 79.3288 32.8469 79.1877 32.6743 79.1495C32.9118 79.0339 33.1289 78.8806 33.3173 78.6955C33.3909 78.658 33.79 79.0534 33.6557 79.1877H33.658Z" fill="#191919"/>
<path d="M29.4927 72.8678C29.528 72.6427 29.2676 72.4514 29.0763 72.4139C28.0926 72.1137 27.2222 73.1702 27.1464 74.0789C27.1464 74.6131 27.1396 75.0738 27.1839 75.5166C27.182 75.5403 27.1889 75.5639 27.2033 75.5829C27.2177 75.6019 27.2385 75.615 27.2619 75.6197C27.2852 75.6244 27.3095 75.6204 27.3301 75.6085C27.3507 75.5965 27.3662 75.5774 27.3737 75.5548C27.7174 72.8055 29.3854 73.5619 29.4927 72.8678Z" fill="#191919"/>
<path d="M29.2278 74.9865C28.4775 75.1028 28.4595 75.7369 28.8114 76.0085C29.0282 76.1295 29.2785 76.1764 29.5244 76.1423C29.7703 76.1082 29.9984 75.9948 30.174 75.8194C30.4877 75.4427 29.9932 74.868 29.2278 74.9865Z" fill="#191919"/>
<path d="M50.0426 62.9518C49.7852 62.4558 49.3237 61.6649 48.7565 61.5516C48.7197 61.541 48.6808 61.5404 48.6437 61.5499C48.6067 61.5595 48.5728 61.5788 48.5458 61.6058C48.5187 61.6329 48.4994 61.6667 48.4899 61.7038C48.4804 61.7408 48.4809 61.7798 48.4916 61.8165C48.5389 62.1917 49.1024 62.6614 49.6269 63.7089C49.6982 63.8212 49.7374 63.951 49.7402 64.0841C49.7402 64.3842 49.4753 64.499 49.2104 64.5388C46.8588 64.8899 44.4315 63.2016 42.7769 61.4728C42.3695 61.0474 41.9741 60.6092 41.6034 60.186C41.1614 59.77 40.8576 59.2284 40.733 58.6343C40.8463 58.5968 40.9979 58.5968 41.1082 58.5593C41.2582 58.521 41.2582 58.2936 41.1082 58.2936C40.9191 58.2561 40.733 58.2561 40.5409 58.2186C40.276 58.1803 40.204 58.4077 40.2003 58.6343C40.0178 61.9545 39.5876 65.2564 38.9134 68.5126C38.6823 69.6089 38.3627 70.6668 38.2321 71.7669C38.2192 71.8445 38.2361 71.9242 38.2794 71.9899C38.3226 72.0557 38.3891 72.1028 38.4655 72.1217C38.5419 72.1406 38.6227 72.1301 38.6916 72.0921C38.7606 72.0542 38.8127 71.9916 38.8376 71.9169C39.8551 69.3725 40.3121 64.2139 40.5409 62.1527C40.5784 61.4216 40.5784 60.689 40.5409 59.9579C41.5805 61.3983 42.8163 62.6863 44.2124 63.7847C45.1906 64.5252 46.3333 65.0184 47.5432 65.2223C48.1915 65.3518 48.8577 65.3648 49.5106 65.2606C48.8503 66.9369 49.4768 65.7438 46.5587 74.1147C44.1996 80.8843 43.3742 81.4681 40.4276 87.3605C39.6181 86.3243 38.7461 85.3386 37.8164 84.4087C37.7882 84.3832 37.7522 84.3681 37.7143 84.3659C37.6763 84.3637 37.6388 84.3746 37.6079 84.3967C37.577 84.4187 37.5545 84.4507 37.5443 84.4873C37.534 84.5239 37.5366 84.5629 37.5515 84.5978C39.1423 87.3973 41.9651 90.1031 42.6989 91.8266C43.4027 93.4774 42.3988 94.4588 42.1309 95.4598C40.8963 95.7963 39.798 96.5108 38.99 97.503C38.1089 98.4108 37.2991 99.3851 36.5678 100.417C36.1852 101.183 36.4523 101.514 37.2109 101.893C39.1047 102.543 41.1747 102.448 43.0013 101.628C43.2654 101.478 43.1514 100.99 42.8512 101.023C42.0206 101.113 41.2627 101.368 40.4291 101.473C38.9284 101.669 37.2777 101.376 37.0991 101.023C37.5724 100.392 38.0776 99.7858 38.6125 99.2063C40.2903 97.3304 41.1314 96.3722 43.1146 96.2544C44.3422 96.1794 47.8305 96.3872 48.262 97.4655C48.4121 97.8406 47.9566 98.3344 47.7322 98.6383C45.8826 101.142 43.7036 103.831 42.9638 104.921C42.6276 105.416 42.2074 106.325 41.5254 106.397C41.4439 106.402 41.3669 106.436 41.3079 106.493C41.2489 106.549 41.2117 106.625 41.2027 106.706C41.1938 106.787 41.2137 106.869 41.259 106.937C41.3042 107.005 41.372 107.055 41.4503 107.078C42.2074 107.378 42.8925 106.628 43.3052 106.056C46.203 102.052 48.7827 99.0892 49.1331 98.1085C49.4971 97.0948 48.5329 96.4022 47.6947 96.0653C46.7324 95.7322 45.7235 95.5535 44.7053 95.5356C44.1391 95.4838 43.57 95.4711 43.0021 95.4973C43.339 95.0406 43.5769 94.5186 43.7007 93.9647C43.8244 93.4109 43.8313 92.8373 43.7209 92.2806C43.3202 91.1422 42.6891 90.0987 41.8668 89.2154C41.5299 88.796 41.2237 88.3825 40.8831 87.9661C43.612 84.088 45.7543 79.8288 47.2408 75.3257C49.0243 70.2699 49.5398 68.3955 50.2684 65.6755C50.6083 64.4135 50.8492 64.5057 50.0426 62.9518Z" fill="#191919"/>
<path d="M40.0518 104.165C40.5855 104.232 41.1249 104.098 41.566 103.79C41.6069 103.745 41.635 103.69 41.6475 103.63C41.66 103.57 41.6564 103.509 41.6371 103.451C41.6177 103.393 41.5834 103.341 41.5375 103.301C41.4917 103.261 41.436 103.234 41.3761 103.222C41.0355 103.147 40.6948 103.372 40.3549 103.412C39.7896 103.478 39.2193 103.49 38.6516 103.45C38.6099 103.454 38.5705 103.47 38.5381 103.497C38.5058 103.524 38.4821 103.559 38.47 103.599C38.4579 103.64 38.4579 103.682 38.4701 103.722C38.4822 103.763 38.506 103.798 38.5383 103.825C39.0126 104.045 39.5287 104.162 40.0518 104.165Z" fill="#191919"/>
<path d="M40.6198 105.036C40.554 105.026 40.4868 105.04 40.4299 105.074C39.639 105.273 38.8058 105.22 38.0461 104.924C37.997 104.903 37.9417 104.9 37.8907 104.916C37.8397 104.933 37.7963 104.967 37.7687 105.013C37.7412 105.059 37.7313 105.113 37.7409 105.166C37.7505 105.219 37.779 105.266 37.821 105.299C38.2844 105.651 38.8332 105.874 39.411 105.943C39.9208 106.011 40.4371 105.877 40.8486 105.568C40.8875 105.522 40.9129 105.466 40.9218 105.407C40.9306 105.347 40.9228 105.286 40.899 105.231C40.8752 105.176 40.8365 105.128 40.7871 105.094C40.7378 105.059 40.6798 105.039 40.6198 105.036Z" fill="#191919"/>
<path d="M40.3547 106.663C38.429 107.209 36.3701 107.034 34.5643 106.171C33.6729 105.759 33.3247 105.187 31.8015 105.187C31.4887 105.137 31.1711 105.124 30.8553 105.15C30.8729 103.893 31.1565 102.655 31.6874 101.517C34.9845 102.135 34.989 99.5281 37.1372 98.1857C37.4265 98.0177 37.6936 97.8143 37.9326 97.5802C37.9703 97.5426 37.9948 97.4939 38.0026 97.4412C38.0103 97.3885 38.0008 97.3348 37.9755 97.2879C37.9502 97.2411 37.9104 97.2037 37.8621 97.1813C37.8138 97.159 37.7596 97.1528 37.7075 97.1638C36.7785 97.3288 35.3746 98.876 34.7931 99.6241C33.8499 100.837 33.6106 101.024 31.9553 101.024C32.2048 100.595 32.5396 100.221 32.939 99.9265C33.0315 100.128 33.0705 100.35 33.0523 100.57C33.0148 100.795 33.3592 100.988 33.4688 100.759C33.9325 99.784 33.4373 99.0929 32.8632 99.2077C30.2828 98.8258 20.8825 99.808 19.9205 99.9648C20.6694 98.6952 21.3392 97.3806 21.9262 96.0285C22.8612 95.8613 23.699 95.348 24.2725 94.5908C24.3476 94.4783 24.1975 94.3657 24.1225 94.4407C23.5464 94.7513 22.9353 94.9919 22.3021 95.1573C22.7271 94.0683 23.044 92.9401 23.2483 91.789C23.2858 91.639 23.0555 91.5226 22.9834 91.6757C21.1286 95.606 21.1871 96.622 17.647 101.932C17.3161 102.378 17.0369 102.861 16.8148 103.37C16.805 103.419 16.8087 103.469 16.8257 103.516C16.8426 103.562 16.8721 103.603 16.9108 103.634C16.9496 103.665 16.9962 103.685 17.0454 103.691C17.0947 103.698 17.1447 103.69 17.19 103.67C18.1962 103.033 19.5011 100.705 19.6121 100.567C20.5561 100.672 28.4407 100.037 31.7602 100.037C31.4128 100.396 31.1196 100.804 30.8898 101.248C29.7943 103.649 29.2248 107.032 31.0399 108.93C29.2113 108.649 17.8068 108.171 12.6091 107.113C11.5106 106.888 10.0467 106.545 9.96041 105.183C9.93469 104.095 9.99793 103.007 10.1495 101.929C10.3761 98.5165 11.209 95.1714 12.6091 92.0509C13.8646 89.3656 15.8604 87.0944 18.362 85.5041C20.8223 87.969 24.0037 89.5862 27.445 90.121C30.0937 90.5712 34.586 90.8713 35.6568 87.6231C36.218 85.9206 35.3259 83.7626 34.2949 82.3632C34.505 82.252 34.7073 82.1266 34.9004 81.988C35.4572 81.5207 35.8926 80.9256 36.1694 80.2534C36.4462 79.5813 36.556 78.8521 36.4897 78.1282C37.9394 77.7079 39.2309 76.8645 40.1986 75.7061C40.2389 75.66 40.2675 75.6048 40.2819 75.5453C40.2964 75.4858 40.2962 75.4237 40.2815 75.3642C40.2667 75.3048 40.2379 75.2497 40.1973 75.2038C40.1568 75.1579 40.1057 75.1225 40.0486 75.1006C36.9601 74.2752 36.0717 73.2412 35.1285 72.2995C35.9283 72.0753 36.6411 71.6135 37.1725 70.9752C37.3616 70.7861 37.1725 70.3299 36.8723 70.4454C34.9695 71.1718 32.9923 68.968 29.3411 67.4936C24.674 65.6087 21.3987 68.1959 21.5075 71.24C21.3942 71.2025 20.4855 71.0149 20.1073 70.9399C18.6067 70.726 18.5969 71.742 18.215 73.1729C17.5209 75.2544 16.5912 78.637 13.6379 81.0073C13.5932 81.0547 13.5593 81.1113 13.5386 81.1731C13.5179 81.2349 13.5109 81.3005 13.5181 81.3653C13.5252 81.4301 13.5463 81.4925 13.58 81.5483C13.6136 81.6042 13.6589 81.652 13.7129 81.6886C15.8372 82.642 18.0761 83.3162 20.3737 83.6943C17.2065 84.715 14.4998 86.8184 12.7284 89.6355C10.1157 93.6874 9.22657 98.5309 8.90617 103.26C8.83489 104.32 8.60603 105.569 9.17105 106.553C10.0437 108.063 12.5814 108.354 14.2044 108.596C19.3915 109.37 24.8871 109.611 28.8129 109.807C29.962 109.869 31.1143 109.831 32.257 109.694C32.7155 109.828 33.2069 109.795 33.6436 109.601C34.0803 109.407 34.4339 109.065 34.6416 108.634C34.6948 108.529 34.7056 108.408 34.6717 108.295C34.6379 108.183 34.5621 108.087 34.4599 108.029C34.3577 107.971 34.237 107.954 34.1228 107.982C34.0085 108.01 33.9095 108.081 33.8462 108.18C32.8707 109.414 31.1104 108.693 30.8185 106.212C31.1451 106.255 31.4737 106.28 31.803 106.287C32.0825 106.307 32.3604 106.345 32.6351 106.401C33.0058 106.5 33.5025 106.972 34.7549 107.422C36.6262 108.098 38.6904 108.255 40.3937 107.197C40.6571 106.852 40.5438 106.587 40.3547 106.663ZM34.8667 84.4484C35.7401 86.8795 34.8096 88.7794 32.0281 89.2926C30.3115 89.5379 28.5637 89.4477 26.8815 89.027V88.9895C26.5978 87.8917 26.0704 84.8858 25.1024 83.9179C26.3811 83.9947 27.6643 83.9313 28.9292 83.7288C28.9825 83.713 29.031 83.6841 29.0703 83.6448C29.1096 83.6055 29.1385 83.557 29.1543 83.5037C29.2713 83.2696 29.053 82.8201 28.662 81.6488C29.8098 82.4491 31.2063 82.8116 32.5984 82.6708C32.2976 83.7833 32.12 84.9254 32.0686 86.0766C32.0686 86.5621 32.7499 86.4946 32.7499 86.1517C32.8632 85.5086 32.861 84.8648 32.939 84.2218C32.99 83.8023 33.1641 82.977 33.1641 82.5943C33.3846 82.5541 33.6001 82.4908 33.8072 82.4052C34.215 83.0565 34.5693 83.7398 34.8667 84.4484ZM34.8291 80.7012C33.2789 82.4269 30.3053 81.9632 28.2816 80.7762C28.3026 80.6812 28.2923 80.5819 28.2522 80.4933C28.2121 80.4046 28.1443 80.3313 28.059 80.2844C27.9738 80.2375 27.8756 80.2195 27.7792 80.2331C27.6829 80.2467 27.5935 80.2911 27.5245 80.3597C27.3613 80.5035 27.1703 80.6121 26.9634 80.6789C26.7565 80.7458 26.538 80.7694 26.3216 80.7483C26.1052 80.7272 25.8954 80.6618 25.7053 80.5562C25.5152 80.4507 25.3488 80.3072 25.2165 80.1346C25.1169 79.9465 25.0606 79.7385 25.0516 79.5258C25.0426 79.3131 25.0813 79.1011 25.1647 78.9053C25.2481 78.7094 25.3741 78.5347 25.5337 78.3937C25.6932 78.2528 25.8822 78.1493 26.0869 78.0907C26.7667 77.7853 26.7974 76.6148 26.8057 76.0092C26.8414 74.6588 26.4435 73.3324 25.6704 72.2245C26.2759 70.8626 27.9057 70.699 29.1903 70.9759C30.3286 71.2213 32.1099 72.1487 32.861 72.1487C33.7239 73.344 35.2568 74.7877 35.6613 77.107C35.8071 77.7295 35.8083 78.3772 35.6647 79.0003C35.5211 79.6234 35.2365 80.2052 34.8329 80.7012H34.8291ZM22.9076 83.8046C23.3999 83.8429 23.8538 83.8796 24.3461 83.8796C25.305 85.0802 25.5331 86.1772 26.1244 88.8372C23.2918 88.1536 21.1121 86.7625 18.7447 85.0532C20.022 84.3319 21.4443 83.9054 22.9076 83.8046Z" fill="#191919"/>
<path d="M96.4793 109.388C96.7569 108.674 97.2761 107.72 96.5926 107.117C96.294 106.876 95.9163 106.754 95.5331 106.776C94.9651 106.739 71.4665 105.66 66.6568 105.566C66.5171 105.569 66.3839 105.625 66.2851 105.724C66.1864 105.823 66.1297 105.956 66.127 106.096C66.0895 108.745 66.0137 111.394 66.0137 114.043C64.8859 113.971 63.7536 114.046 62.6454 114.268C61.7345 114.562 58.9687 116.153 58.4067 116.425C57.9086 116.598 57.4373 116.84 57.0065 117.144C56.395 117.706 56.5526 118.734 56.5526 119.49V125.696C54.9627 126.606 53.4667 127.671 52.0865 128.875C50.8222 130.201 49.9218 131.645 50.7622 133.266C51.0056 133.665 51.3518 133.991 51.7645 134.211C52.1773 134.431 52.6414 134.535 53.1085 134.514C54.168 134.554 82.4733 133.793 84.9742 133.606C85.1013 133.601 85.2216 133.547 85.3098 133.455C85.398 133.363 85.4472 133.241 85.4472 133.114C85.4472 132.987 85.398 132.864 85.3098 132.773C85.2216 132.681 85.1013 132.627 84.9742 132.622C80.7723 132.584 55.4173 133.341 53.3734 133.341C52.5787 133.341 51.8277 133.151 51.6701 132.281C51.4562 131.097 52.2966 129.756 54.5844 129.557C55.4548 129.482 56.5616 129.756 57.2339 129.102C57.45 128.827 57.6056 128.51 57.6903 128.171C57.775 127.832 57.7869 127.479 57.7254 127.135C58.445 127.135 61.5521 127.102 62.3025 126.718C62.7809 126.499 63.189 126.151 63.4815 125.714C63.7739 125.276 63.9391 124.766 63.9587 124.241C63.9783 123.715 63.8516 123.194 63.5925 122.736C63.3335 122.278 62.9523 121.901 62.4916 121.647C61.9399 121.33 61.3161 121.16 60.6799 121.153C60.0437 121.147 59.4165 121.304 58.8584 121.609C58.5928 121.759 58.7834 122.104 59.0482 122.063C59.96 121.837 60.9216 121.931 61.7727 122.328C63.2802 123.192 63.458 125.192 61.5837 125.961C61.0179 126.194 58.3287 126.15 57.6473 126.15C57.4957 123.503 57.4832 120.851 57.6098 118.202C57.6804 117.977 57.91 117.938 58.1396 117.902C60.4222 117.72 62.7192 117.886 64.952 118.395C65.2521 118.47 65.5185 117.98 65.1771 117.827C63.3748 117.147 61.4642 116.801 59.5382 116.805C60.5977 116.354 61.5536 115.693 62.6041 115.253C63.6351 114.821 64.8747 114.988 65.9724 114.953C65.9724 118.359 66.4572 128.729 66.6155 130.545C66.6515 130.961 67.3343 130.995 67.2968 130.545C66.9096 117.628 66.8676 116.86 67.1077 106.778C75.1687 107.153 95.6426 107.989 95.7567 108.065C95.9068 108.179 95.5676 108.822 95.4918 109.011C94.9268 110.412 87.5336 129.557 86.2573 132.93C86.2344 133.005 86.2269 133.084 86.2354 133.163C86.2438 133.241 86.268 133.317 86.3065 133.386C86.3449 133.455 86.3969 133.516 86.4592 133.564C86.5216 133.613 86.5931 133.648 86.6694 133.668C86.7457 133.688 86.8253 133.693 86.9034 133.682C86.9815 133.67 87.0566 133.643 87.1241 133.603C87.1916 133.562 87.2502 133.507 87.2963 133.443C87.3424 133.379 87.3752 133.307 87.3926 133.23C89.9025 126.868 95.9008 110.875 96.4793 109.388ZM56.4385 128.121C56.2787 128.281 55.7745 128.135 55.0767 128.235C54.5544 128.27 54.0357 128.345 53.5249 128.46C53.6 128.409 55.2928 127.133 56.5901 126.302C56.5931 127.487 56.6554 127.935 56.4385 128.121Z" fill="#191919"/>
<path d="M85.2387 134.555C85.0511 135.243 85.3835 135.681 84.709 136.826C84.3173 137.441 83.7312 137.908 83.0439 138.151C82.3931 138.327 81.7055 138.314 81.0619 138.113C80.4184 137.911 79.8456 137.531 79.4108 137.016C79.1331 136.7 78.9474 136.315 78.8739 135.901C78.8005 135.487 78.8421 135.061 78.9943 134.669C79.1369 134.25 78.5058 134.103 78.3505 134.479C77.2122 137.256 80.5303 139.726 83.0777 139.057C85.5193 138.419 86.8099 135.561 85.803 134.288C85.6925 134.259 85.5755 134.27 85.4724 134.319C85.3693 134.368 85.2866 134.452 85.2387 134.555Z" fill="#191919"/>
<path d="M64.3861 135.388C64.1985 136.075 64.5309 136.513 63.8564 137.658C63.465 138.274 62.8788 138.74 62.1914 138.983C61.5404 139.159 60.8528 139.146 60.2093 138.945C59.5658 138.743 58.993 138.363 58.5582 137.847C58.2804 137.532 58.0947 137.146 58.0212 136.733C57.9478 136.319 57.9895 135.893 58.1417 135.501C58.2843 135.082 57.6533 134.935 57.4987 135.312C56.3597 138.088 59.6785 140.558 62.2259 139.889C64.6675 139.251 65.9589 136.393 64.9511 135.121C64.7651 135.085 64.4244 135.199 64.3861 135.388Z" fill="#191919"/>
<path d="M99.0527 131.831C99.0942 131.805 99.1271 131.768 99.1473 131.723C99.1674 131.679 99.1739 131.629 99.1659 131.581C99.1578 131.533 99.1356 131.488 99.1021 131.452C99.0686 131.417 99.0253 131.392 98.9777 131.381C98.493 131.219 97.6848 131.334 94.739 131.57C94.2664 131.576 93.7963 131.64 93.3388 131.759C93.2849 131.779 93.2385 131.815 93.2057 131.863C93.1728 131.91 93.1553 131.966 93.1553 132.024C93.1553 132.081 93.1728 132.138 93.2057 132.185C93.2385 132.232 93.2849 132.268 93.3388 132.289C94.2603 132.571 98.6873 132.04 99.0527 131.831Z" fill="#191919"/>
<path d="M98.0691 133.576C97.694 133.501 96.1768 133.311 95.7986 133.235C95.4204 133.159 93.943 132.827 93.5656 132.785C93.2999 132.752 93.2249 133.125 93.4522 133.277C94.8976 133.893 96.4588 134.19 98.0294 134.147C98.2972 134.108 98.4481 133.651 98.0691 133.576Z" fill="#191919"/>
<path d="M102.611 134.176C102.508 134.519 102.341 134.84 102.118 135.122C101.849 135.399 101.483 135.562 101.096 135.576C100.685 135.591 100.277 135.487 99.9237 135.276C99.5103 135.006 99.583 134.556 99.6588 134.102C99.6739 134.042 99.6643 133.978 99.6323 133.925C99.6003 133.871 99.5484 133.833 99.4881 133.818C99.4278 133.803 99.364 133.813 99.3108 133.845C99.2575 133.877 99.2191 133.928 99.2041 133.989C99.0631 134.266 99.006 134.578 99.0397 134.887C99.0734 135.197 99.1965 135.489 99.394 135.729C99.8555 136.134 100.445 136.362 101.059 136.373C102.544 136.373 103.46 135.022 103.102 134.178C102.951 133.95 102.686 133.95 102.611 134.176Z" fill="#191919"/>
<path d="M106.697 130.507C106.805 130.163 106.818 129.796 106.733 129.446C106.649 129.096 106.471 128.775 106.218 128.518C105.965 128.262 105.647 128.079 105.298 127.989C104.949 127.899 104.583 127.906 104.237 128.009C103.835 128.125 103.486 128.379 103.253 128.728C102.119 126.46 99.637 126.731 99.4307 128.728C99.4627 129.506 99.7263 130.257 100.188 130.885C100.306 131.11 100.642 130.922 100.528 130.696C100.26 130.181 100.117 129.611 100.112 129.031C100.099 128.805 100.158 128.581 100.281 128.39C100.403 128.2 100.582 128.053 100.793 127.971C101.849 127.726 102.422 129.068 102.723 129.863C102.837 130.163 103.374 130.358 103.556 129.976C103.69 129.531 103.987 129.152 104.388 128.917C105.686 128.527 106.543 130.231 104.956 131.15C104.881 131.187 104.843 131.225 104.843 131.3C104.514 131.152 104.172 131.038 103.821 130.959C103.48 130.846 103.371 131.334 103.671 131.451C104.072 131.552 104.447 131.736 104.773 131.99C105.098 132.244 105.368 132.563 105.563 132.927C105.622 133.07 105.642 133.225 105.623 133.378C105.603 133.53 105.543 133.675 105.45 133.798C105.217 134.135 104.844 134.173 104.465 134.289C104.087 134.406 104.009 134.785 104.39 134.971C105.182 135.357 106.133 134.555 106.396 133.835C106.495 133.424 106.465 132.993 106.309 132.6C106.153 132.207 105.879 131.872 105.526 131.64C105.802 131.569 106.056 131.427 106.261 131.228C106.466 131.03 106.617 130.781 106.697 130.507Z" fill="#191919"/>
<path d="M81.9466 136.827C82.9724 136.827 83.6424 135.393 82.6655 134.82C82.3304 134.667 81.9551 134.625 81.5944 134.7C81.2336 134.775 80.9062 134.963 80.6598 135.237C80.0925 136.07 81.1895 136.827 81.9466 136.827Z" fill="#191919"/>
<path d="M61.1697 137.432C62.1954 137.432 62.8655 135.998 61.8885 135.426C61.5534 135.272 61.1782 135.23 60.8174 135.305C60.4567 135.38 60.1293 135.568 59.8828 135.842C59.3148 136.675 60.3743 137.432 61.1697 137.432Z" fill="#191919"/>
<path d="M91.4094 130.922C90.5361 130.876 89.6604 130.926 88.7982 131.072C88.7729 131.088 88.7521 131.11 88.7377 131.137C88.7233 131.163 88.7158 131.192 88.7158 131.222C88.7158 131.252 88.7233 131.282 88.7377 131.308C88.7521 131.334 88.7729 131.356 88.7982 131.372C89.4674 131.532 90.1541 131.608 90.8421 131.597C90.7671 131.747 90.467 132.884 90.467 132.922H88.3855C88.2852 132.922 88.189 132.962 88.1181 133.033C88.0472 133.104 88.0073 133.2 88.0073 133.301C88.0073 133.401 88.0472 133.497 88.1181 133.568C88.189 133.639 88.2852 133.679 88.3855 133.679C90.8444 133.679 91.005 133.739 91.1483 133.454C91.2623 133.265 91.4484 131.978 91.5647 131.864C91.6499 131.783 91.7123 131.68 91.7454 131.568C91.7786 131.455 91.7815 131.335 91.7538 131.221C91.7399 131.139 91.698 131.064 91.6351 131.01C91.5723 130.955 91.4925 130.924 91.4094 130.922Z" fill="#191919"/>
<path d="M67.641 105.111C71.0986 103.842 72.534 102.613 74.3394 102.613C80.2914 102.59 86.2407 102.868 92.1646 103.446C92.3469 103.629 95.0399 105.989 95.1165 106.02C95.1959 106.06 95.2861 106.075 95.3742 106.061C95.4622 106.047 95.5436 106.005 95.6066 105.942C95.6696 105.879 95.7111 105.798 95.7251 105.71C95.7391 105.622 95.7249 105.531 95.6845 105.452C94.7672 104.483 93.7233 103.643 92.581 102.954C92.5711 102.851 92.5228 102.755 92.4457 102.686C92.3687 102.616 92.2683 102.578 92.1646 102.579C86.3297 102.009 80.469 101.744 74.6065 101.784C72.6909 101.784 72.4192 102.196 69.9543 103.373C69.0839 103.789 68.212 104.166 67.3814 104.66C67.1863 104.77 67.3371 105.223 67.641 105.111Z" fill="#191919"/>
<path d="M145.3 91.4491C145.217 91.1489 144.959 91.0334 144.656 90.9576C142.69 90.4552 140.692 90.0884 138.677 89.8598C138.573 89.8513 138.469 89.8813 138.386 89.9441C138.303 90.007 138.246 90.0983 138.226 90.2005C137.501 93.1697 137.033 96.1957 136.826 99.2452C136.778 99.2912 136.742 99.3491 136.723 99.4131C136.704 99.4771 136.702 99.5449 136.717 99.61C136.732 99.675 136.764 99.735 136.81 99.7839C136.855 99.8329 136.912 99.8691 136.976 99.889C137.108 99.9212 142.13 100.732 142.312 100.759C142.406 100.79 142.506 100.801 142.605 100.793C142.704 100.784 142.8 100.756 142.888 100.711C142.976 100.665 143.054 100.602 143.117 100.526C143.181 100.45 143.229 100.362 143.258 100.267C143.498 99.6459 145.47 92.0696 145.3 91.4491Z" fill="#38A1FF"/>
<path d="M114.872 121.99C112.672 121.578 111.256 121.568 109.687 121.082C108.336 120.664 109.193 119.445 110.217 118.471C111.006 117.739 111.899 117.126 112.866 116.654C115.458 115.356 117.307 115.387 119.414 115.216C119.536 115.212 119.653 115.164 119.745 115.082C119.836 115 119.896 114.889 119.914 114.768C119.931 114.646 119.906 114.522 119.842 114.418C119.778 114.313 119.68 114.234 119.564 114.194C115.894 112.971 110.413 115.004 108.059 117.751C105.952 120.21 106.744 122.395 109.118 123.088C112.089 123.955 116.007 123.613 117.972 125.775C119.341 127.28 119.432 130.341 116.459 132.928C113.583 135.43 108.874 136.795 105.105 137.28C98.3648 138.146 92.6111 137.004 90.1177 137.505C89.9507 137.553 89.8028 137.651 89.6943 137.787C89.5858 137.923 89.5222 138.089 89.5122 138.262C89.5183 138.437 89.5805 138.605 89.6896 138.741C89.7986 138.877 89.9488 138.975 90.1177 139.019C91.2241 139.355 92.3691 139.545 93.5243 139.587C96.8599 139.873 100.212 139.911 103.553 139.701C107.905 139.325 112.344 138.316 116.08 135.954C117.95 134.891 119.465 133.299 120.432 131.377C122.428 126.828 120.178 122.986 114.872 121.99Z" fill="#38A1FF"/>
<path d="M24.4591 125.51C24.2033 124.903 23.4837 122.538 22.8316 122.672C21.8134 122.879 22.1503 125.246 22.3394 125.851C22.4576 126.498 22.7337 127.106 23.1431 127.621C23.5525 128.136 24.0826 128.542 24.6865 128.803C24.8563 128.85 25.0362 128.847 25.2041 128.793C25.3721 128.74 25.5209 128.639 25.6327 128.503C26.1827 127.606 24.694 126.215 24.4591 125.51Z" fill="#38A1FF"/>
<path d="M31.6122 132.323C30.7523 131.775 29.4249 131.626 28.5088 131.149C28.0585 130.915 27.1836 130.042 26.6539 130.051C25.5561 130.071 27.7179 132.545 28.054 132.814C28.9767 133.584 30.1099 134.059 31.306 134.175C32.2162 134.211 32.6387 132.975 31.6122 132.323Z" fill="#38A1FF"/>
<path d="M39.1439 135.881C38.0755 135.168 36.2926 135.316 34.9052 135.01C34.5646 134.935 34.2614 135.385 34.5646 135.616C35.2149 136.209 35.9558 136.694 36.7593 137.053C37.3596 137.323 38.3936 137.751 39.0682 137.429C39.8335 137.071 39.6737 136.296 39.1439 135.881Z" fill="#38A1FF"/>
<path d="M46.4479 137.016C45.2361 136.997 44.0363 136.741 42.8522 137.166C42.7736 137.193 42.7039 137.241 42.6509 137.305C42.5979 137.369 42.5636 137.446 42.5519 137.528C42.5401 137.611 42.5514 137.695 42.5844 137.771C42.6174 137.847 42.6709 137.913 42.7389 137.961C43.6626 138.576 45.9834 138.928 46.9776 139.02C48.6112 139.174 48.831 137.053 46.4479 137.016Z" fill="#38A1FF"/>
<path d="M37.137 37.1042C37.106 37.2423 37.1197 37.3867 37.1762 37.5166C37.2326 37.6464 37.3289 37.755 37.4511 37.8265C37.5732 37.8981 37.715 37.929 37.8558 37.9147C37.9967 37.9005 38.1294 37.8418 38.2347 37.7472C40.4318 35.9039 42.7592 34.2217 45.1987 32.7139C45.3063 32.6493 45.3927 32.5548 45.4474 32.4419C45.5021 32.329 45.5228 32.2026 45.5069 32.0781C45.491 31.9537 45.4392 31.8365 45.3578 31.741C45.2764 31.6455 45.169 31.5758 45.0486 31.5404C43.5344 31.2402 38.9948 30.5754 38.2362 30.5191C37.494 30.4396 36.7454 30.4396 36.0032 30.5191C35.553 30.5829 35.7031 31.295 35.8531 31.5028C36.2321 32.0265 36.5376 32.5996 36.7611 33.2061C27.1041 36.5384 21.6858 46.1661 23.0965 54.8911C23.2698 55.9641 23.6135 57.6434 24.3076 58.4868C24.3489 58.5305 24.4012 58.5622 24.459 58.5786C24.5168 58.5951 24.578 58.5957 24.6361 58.5803C24.6942 58.565 24.7471 58.5342 24.7892 58.4914C24.8314 58.4485 24.8612 58.3951 24.8756 58.3367C25.0474 57.1362 24.4254 56.0857 24.6505 51.865C24.8791 48.1896 26.1959 44.6653 28.4333 41.7405C30.6707 38.8156 33.7276 36.6224 37.215 35.4399C37.2513 35.9958 37.2251 36.5541 37.137 37.1042Z" fill="#38A1FF"/>
<path d="M140.532 49.7814C140.452 49.6317 140.339 49.5025 140.201 49.404C140.063 49.3056 139.904 49.2406 139.737 49.2141C138.213 48.9229 136.67 48.7455 135.119 48.6836C133.537 45.5149 131.215 42.7738 128.35 40.6922C125.484 38.6106 122.16 37.2497 118.657 36.7246C115.941 36.2519 113.148 36.5 110.558 37.4442C110.477 37.4728 110.408 37.5292 110.363 37.6035C110.319 37.6778 110.302 37.7653 110.316 37.8508C110.329 37.9363 110.372 38.0143 110.437 38.0714C110.502 38.1284 110.585 38.1608 110.672 38.163C112.903 38.0972 115.135 38.2622 117.333 38.6552C119.479 39.0552 121.564 39.7293 123.539 40.6609C127.148 42.4726 130.147 45.3012 132.168 48.7977C131.08 48.7747 129.991 48.838 128.913 48.9867C128.831 49.0104 128.759 49.0601 128.708 49.1284C128.656 49.1967 128.628 49.2798 128.628 49.3653C128.628 49.4508 128.656 49.5339 128.708 49.6022C128.759 49.6705 128.831 49.7202 128.913 49.7438C130.395 51.1417 131.727 52.6888 132.89 54.3607C133.956 56.1808 134.673 58.1833 135.005 60.266C135.036 60.3745 135.098 60.4716 135.184 60.5457C135.269 60.6197 135.374 60.6676 135.486 60.6834C135.598 60.6993 135.712 60.6825 135.814 60.635C135.917 60.5876 136.004 60.5115 136.064 60.416C137.702 57.2998 139.092 54.0959 140.454 50.8791C140.614 50.5352 140.642 50.1443 140.532 49.7814Z" fill="#38A1FF"/>
<path d="M26.654 119.341C26.3749 118.503 24.9388 117.5 23.6647 113.475C23.6021 113.127 23.4295 112.809 23.1724 112.567C21.7205 111.449 18.882 119.754 18.6313 120.82C18.5511 121.159 18.4813 121.577 18.7446 121.767C18.9697 121.956 19.3097 121.836 19.5775 121.728C21.452 120.972 23.429 120.5 25.443 120.328C26.6128 120.225 26.7884 119.61 26.654 119.341Z" fill="#38A1FF"/>
<path d="M46.8641 41.7206C47.4976 41.5809 48.1455 41.5174 48.794 41.5315C48.9831 41.5315 49.2104 41.569 49.362 41.4174C49.4021 41.3925 49.4364 41.3591 49.4624 41.3197C49.4884 41.2803 49.5056 41.2357 49.5127 41.1889C49.5198 41.1422 49.5168 41.0946 49.5037 41.0492C49.4906 41.0037 49.4679 40.9617 49.437 40.9259C49.0971 40.5508 48.1885 40.6258 47.772 40.6611C46.9016 40.7361 45.4752 41.0107 44.8959 41.7581C44.8682 41.8042 44.8534 41.8569 44.853 41.9106C44.8527 41.9644 44.8667 42.0173 44.8938 42.0638C44.9209 42.1103 44.96 42.1486 45.0069 42.1748C45.0539 42.201 45.1071 42.2142 45.1608 42.2128C45.7488 42.1291 46.3221 41.9634 46.8641 41.7206Z" fill="#191919"/>
<path d="M49.3236 43.3481C49.3858 43.3299 49.4414 43.2938 49.4834 43.2444C49.5254 43.195 49.552 43.1344 49.56 43.07C49.568 43.0056 49.5569 42.9403 49.5283 42.8821C49.4996 42.824 49.4545 42.7755 49.3986 42.7426C48.3804 42.1686 46.6973 42.7201 45.7654 43.3098C45.4195 43.5289 45.6521 44.1052 46.0303 43.9536C46.56 43.8036 47.128 43.6535 47.6578 43.5372C48.2187 43.5426 48.7781 43.4791 49.3236 43.3481Z" fill="#191919"/>
<path d="M76.7238 31.8807C77.7225 30.5488 76.6157 30.2794 76.4986 30.7079C76.4784 30.7829 76.1873 31.5152 75.7416 31.6158C75.4722 31.6773 74.8501 31.6661 74.6821 31.1618C74.6445 31.0485 74.4172 31.0868 74.4172 31.2369C74.3129 32.3586 75.8383 32.8929 76.7238 31.8807Z" fill="#191919"/>
<path d="M74.4908 26.0903C74.4415 26.0845 74.3918 26.0964 74.3506 26.1239C74.3093 26.1514 74.2792 26.1927 74.2657 26.2404C73.9054 27.1177 73.7129 28.0548 73.6984 29.0032C73.6964 29.0747 73.7139 29.1454 73.7491 29.2076C73.7843 29.2699 73.8359 29.3213 73.8983 29.3564C73.9606 29.3915 74.0313 29.4088 74.1028 29.4066C74.1743 29.4044 74.2439 29.3827 74.3039 29.3438C74.475 29.2298 74.8502 29.184 75.1361 29.0437C75.7634 28.7293 75.2681 28.0502 74.7204 28.3241C74.6453 28.3624 74.6063 28.3624 74.5305 28.3991C74.526 26.2366 74.8074 26.1961 74.4908 26.0903Z" fill="#191919"/>
<path d="M77.6702 26.5066C77.6515 26.4091 77.6044 26.3194 77.5348 26.2487C77.4651 26.1779 77.3761 26.1294 77.2789 26.1092C77.1818 26.089 77.0808 26.098 76.9887 26.135C76.8966 26.1721 76.8176 26.2356 76.7616 26.3175C76.6402 26.5365 76.5879 26.7871 76.6115 27.0364C76.6213 27.137 76.659 27.2329 76.7206 27.3131C76.7821 27.3933 76.8649 27.4546 76.9596 27.4901C77.0542 27.5256 77.157 27.5338 77.2561 27.5138C77.3552 27.4938 77.4467 27.4464 77.5202 27.377C77.719 27.1879 77.7903 26.9981 77.6702 26.5066Z" fill="#191919"/>
<path d="M77.935 25.4103C78.479 25.4103 78.3619 24.3125 77.2537 24.3125C77.0424 24.3227 76.8373 24.3872 76.6583 24.4999C76.4792 24.6125 76.3323 24.7695 76.2317 24.9555C76.1945 25.023 76.1816 25.1013 76.1953 25.1771C76.2089 25.2529 76.2483 25.3218 76.3067 25.372C76.374 25.4203 76.4562 25.443 76.5387 25.4362C76.6213 25.4293 76.6986 25.3932 76.7569 25.3345C77.3557 24.7402 77.8592 25.4103 77.935 25.4103Z" fill="#191919"/>
<path d="M73.8855 24.1604C74.9832 23.0626 75.8626 21.7593 77.3295 21.1327C78.6111 20.585 78.6569 21.3969 79.3352 21.7765C79.9415 22.1149 80.9109 22.2598 81.3409 21.5867C81.3731 21.5256 81.3895 21.4573 81.3886 21.3882C81.3877 21.3191 81.3694 21.2514 81.3355 21.1911C81.3016 21.1309 81.2532 21.0801 81.1946 21.0434C81.1361 21.0068 81.0692 20.9853 81.0002 20.9812C80.654 21.0798 80.287 21.0798 79.9408 20.9812C79.6257 20.7881 79.3337 20.5598 79.0703 20.3006C78.6912 20.0858 78.2591 19.9824 77.8238 20.0024C77.3885 20.0225 76.9677 20.1651 76.61 20.4139C75.1812 21.1984 74.0705 22.4563 73.469 23.9713C73.4315 24.1604 73.7339 24.3119 73.8855 24.1604Z" fill="#191919"/>
<path d="M80.357 22.6468C79.6067 22.5455 79.3403 22.2064 78.5022 22.1921C77.9311 22.1639 77.363 22.2896 76.8571 22.5559C76.3512 22.8223 75.9261 23.2196 75.6261 23.7063C75.5511 23.8954 75.7364 24.0432 75.891 23.8954C76.2912 23.5005 76.7971 23.2296 77.3477 23.1155C77.8983 23.0015 78.4702 23.049 78.9944 23.2523C79.5871 23.5638 80.2581 23.6942 80.9243 23.6275C81.454 23.548 82.4385 23.0978 82.2869 22.4165C82.264 22.3561 82.2286 22.3012 82.1829 22.2556C82.1373 22.2099 82.0824 22.1745 82.0221 22.1516C81.4623 22.03 81.1059 22.7489 80.357 22.6468Z" fill="#191919"/>
<path d="M80.6224 24.6141C80.2256 24.6611 79.8541 24.8335 79.5621 25.1063C79.337 25.2984 79.6372 25.5986 79.8623 25.4815C80.3928 25.2166 81.501 25.6526 82.3602 25.7816C82.8 25.868 83.2561 25.7931 83.6452 25.5708C84.0343 25.3484 84.3304 24.9933 84.4792 24.5706C84.5066 24.4447 84.4935 24.3134 84.4417 24.1954C84.4318 24.115 84.3978 24.0395 84.3442 23.9787C84.2907 23.9179 84.22 23.8747 84.1415 23.8548C83.9524 23.8165 83.8766 23.8923 83.7663 24.0048C83.6858 24.0478 83.6199 24.1139 83.5773 24.1947C83.1225 25.1003 81.8259 24.5053 80.6224 24.6141Z" fill="#191919"/>
<path d="M107.644 57.3131C106.784 55.5926 106.576 55.2166 106.206 54.9668C105.597 54.5548 104.806 55.0043 104.2 54.5916C104.125 54.5533 104.05 54.4775 103.975 54.4415C104.88 53.7174 103.763 52.7908 102.272 51.3006C100.456 49.484 98.6708 47.6696 96.7469 45.9266C93.5417 43.0583 90.1122 40.4511 86.4912 38.1297C84.6108 37.0318 82.461 36.4814 80.2843 36.5405C80.3794 34.9272 80.3794 33.3096 80.2843 31.6963C81.9073 32.103 82.8708 30.8131 82.4791 29.7281C82.398 29.503 82.0289 29.2779 81.9869 29.0475C81.8735 28.6311 83.3495 26.4018 82.4416 26.2848C81.8736 26.2097 80.8613 25.9509 80.4734 26.4739C80.1035 26.9721 79.4837 28.1029 79.6788 28.7069C79.8626 29.2764 80.742 29.3072 81.1547 29.539C81.6124 29.7979 81.8435 30.3051 81.3798 30.6743C80.8951 31.0622 80.4336 30.5993 79.9414 30.5993C79.3734 30.5993 79.5565 31.583 79.525 31.9244C79.3801 33.5114 79.3546 35.1028 79.3359 36.6928C79.3306 37.1093 79.8281 37.1851 80.1688 37.2226C79.9782 38.0733 79.5028 38.8334 78.8214 39.3771C78.14 39.9209 77.2933 40.2157 76.4215 40.2127C75.6278 40.218 74.861 39.9254 74.2725 39.3928C73.684 38.8602 73.3167 38.1262 73.2431 37.3359C74.0377 37.2226 75.2105 37.4499 75.2105 36.3147C75.2205 35.8557 75.2045 35.3965 75.1624 34.9393C76.393 34.874 78.464 34.1949 78.8061 33.2135C78.9232 32.8736 78.581 32.6455 78.2764 32.6837C77.9717 32.722 77.7842 32.9486 77.5193 33.0589C75.9713 34.0906 73.3173 34.0861 72.1453 33.0964C71.6951 32.7152 71.8317 32.0362 71.8804 31.5072C72.1596 29.5155 72.6544 27.5601 73.3564 25.6755C73.4374 25.4121 73.0892 25.2951 72.9399 25.4857C71.5624 27.5095 70.8001 29.8888 70.7452 32.3363C70.7452 34.1979 72.6645 34.8545 74.3798 34.9355C74.2969 35.4276 74.2468 35.9247 74.2298 36.4235C71.7824 36.3815 69.3367 36.5715 66.9251 36.9907C65.9868 37.2203 65.1574 37.7688 64.5788 38.5424C63.6611 39.854 63.3302 42.403 63.3302 43.8789C61.8933 43.2539 59.7511 42.3782 58.2969 41.7974C57.3965 41.4358 56.1397 40.927 55.5341 42.0623C53.4437 41.0643 52.9755 37.7328 49.7437 38.6565C48.9323 38.311 48.049 38.168 47.17 38.24C46.1042 38.3576 45.1069 38.823 44.3322 39.5644C44.2848 39.6117 44.2567 39.675 44.2533 39.7418C44.2499 39.8087 44.2714 39.8745 44.3138 39.9264C44.3561 39.9783 44.4162 40.0126 44.4825 40.0226C44.5487 40.0327 44.6163 40.0178 44.6721 39.9808C45.4614 39.4813 46.3552 39.1703 47.2841 39.0722C47.691 39.0478 48.0992 39.0863 48.4944 39.1862C48.3606 39.2748 48.235 39.3752 48.1192 39.4864C48.0833 39.5218 48.0603 39.5683 48.0539 39.6184C48.0476 39.6684 48.0583 39.7192 48.0842 39.7625C48.1102 39.8058 48.15 39.839 48.1971 39.857C48.2443 39.875 48.2961 39.8766 48.3443 39.8615C49.328 39.6717 50.269 39.0797 51.2587 39.4864C52.1238 39.839 52.6926 40.9278 53.3019 41.5678C54.3114 42.5995 55.5769 43.3445 56.9688 43.7266C56.7602 44.7263 56.3894 45.6852 55.871 46.5651C55.6459 46.9043 55.2272 47.4355 54.7733 47.4731C54.0349 47.5789 54.1152 46.1029 54.2811 45.3541C54.605 45.5126 54.9487 45.6272 55.303 45.6947C55.6437 45.7323 55.7195 45.2408 55.4531 45.0892C55.0779 44.8243 52.6573 43.7281 52.4254 44.3704C52.1658 45.0907 50.9105 44.7155 50.4198 44.5955C49.232 44.3374 48.0001 44.3631 46.8241 44.6705C46.4489 44.7553 46.599 45.3173 46.9742 45.2385C47.8551 45.0379 48.7634 44.9871 49.6612 45.0885C50.4948 45.1973 51.3645 45.6557 52.1966 45.3886C52.3452 45.3508 52.4836 45.2802 52.6014 45.1821C52.7193 45.0839 52.8138 44.9607 52.8779 44.8213C52.9162 44.8213 53.5217 45.0464 53.5217 45.0464C53.2216 45.9176 53.067 47.1279 53.7866 47.8475C54.6405 48.7014 60.8398 51.8949 63.8532 52.6159C64.3014 52.7397 64.7696 52.7733 65.2309 52.7148C65.6921 52.6564 66.1371 52.507 66.5402 52.2753C66.5402 55.7089 66.5027 55.6819 66.5785 55.7569C66.535 55.5836 62.387 55.8912 58.0996 55.946C57.8745 55.946 57.4865 56.06 57.494 56.3624C57.5038 56.7639 57.5886 60.1427 57.6831 60.7895C57.8902 62.2091 59.3391 61.8587 60.8623 61.8497C63.9658 61.8302 90.3059 61.5931 91.1763 61.5496C91.489 61.568 91.8013 61.5084 92.0852 61.3763C92.3692 61.2441 92.6159 61.0435 92.8031 60.7925C93.2661 60.0031 93.3651 56.4052 93.0282 55.6076C92.7588 54.9668 89.0514 55.3074 88.1464 55.3427C88.1692 55.3247 88.1877 55.302 88.2007 55.276C88.2137 55.2501 88.2208 55.2216 88.2215 55.1926C88.4106 55.0426 88.2215 50.0452 88.2215 49.9319C91.7083 52.5582 93.8701 54.3635 97.985 57.16C98.4802 57.4969 99.1585 57.9554 99.8023 57.728C99.8764 57.7059 99.9403 57.6584 99.9829 57.5939C100.025 57.5293 100.044 57.4518 100.035 57.375C100.026 57.2982 99.9901 57.227 99.9339 57.174C99.8776 57.121 99.8045 57.0894 99.7273 57.085C99.5022 57.085 99.2733 57.1225 99.0842 56.9349C98.7841 56.6348 99.0092 56.0645 99.2343 55.7997C100.007 54.8732 100.959 54.1134 102.035 53.5666C102.335 53.8315 102.678 54.0964 103.019 54.3612C103.349 54.6793 103.734 54.9357 104.154 55.1183C104.518 55.1664 104.885 55.179 105.251 55.1559C105.867 55.2174 106.166 56.1088 106.614 57.0482C106.614 57.0565 106.566 56.9499 107.03 57.8811C106.218 57.527 105.455 57.0689 104.76 56.5185C104.419 56.2934 104.04 56.7834 104.343 57.0865C105.236 57.8409 106.263 58.4187 107.371 58.789C107.827 58.8783 108.202 58.269 107.644 57.3131ZM92.506 56.0645C92.506 56.0998 92.4309 57.4152 92.4309 58.2218C92.2508 61.2937 93.0162 60.7685 88.9493 60.9088C86.1123 61.0063 60.3761 61.2089 59.9972 61.2089C59.7323 61.2089 59.2784 61.3222 59.0135 61.1714C58.7134 61.0213 58.7831 60.415 58.7486 60.1111C58.7058 59.736 58.4837 57.4624 58.408 56.7436C58.4822 56.7458 90.919 56.2356 92.506 56.0645Z" fill="#191919"/>
<path d="M67.641 68.629C71.0859 65.5976 73.6438 60.8772 74.1128 60.6438C74.3889 60.505 76.4876 63.2933 79.6759 66.8882C80.1201 67.3887 80.8486 66.6631 80.433 66.1311C78.7297 64.2012 76.9994 62.2571 75.3238 60.3032C74.9389 59.853 74.4234 59.4095 73.8096 59.7352C73.2844 60.0128 73.0038 60.6356 72.6744 61.0978C71.022 63.5832 69.2277 65.9713 67.3004 68.2501C67.0355 68.5157 67.3762 68.8954 67.641 68.629Z" fill="#38A1FF"/>
<path d="M86.9424 67.4178C86.9063 67.3066 86.8352 67.21 86.7398 67.1424C86.6443 67.0748 86.5296 67.0398 86.4127 67.0426C62.6792 70.4485 61.5875 69.1436 61.6993 70.2601C61.9495 72.7743 62.3284 75.274 62.8345 77.7493C64.0816 83.8534 63.9218 83.8767 64.273 83.9937C64.2971 84.0423 64.3352 84.0826 64.3824 84.1093C64.4296 84.1361 64.4837 84.1481 64.5378 84.1438C69.8045 83.4932 74.5422 82.2837 88.3426 79.2995C88.5309 79.259 88.759 78.9994 88.7177 78.8073C88.3853 75.6784 87.2253 68.7602 86.9424 67.4178ZM78.6886 74.7217C78.3487 74.5326 77.9698 75.3272 77.894 75.5546C77.5939 76.4625 77.6749 77.4507 77.1752 78.3173C76.1502 80.0949 74.3659 79.9839 73.8444 78.6175C73.3229 77.2511 74.0305 75.2634 74.3366 73.8115C74.4807 73.1287 74.4867 72.1427 73.5045 72.3356C72.7562 72.5614 72.1207 73.0614 71.7254 73.7357C70.9014 75.0411 70.5789 76.6009 70.8175 78.126C70.8175 78.3151 70.5106 78.3924 70.4423 78.2393C69.2065 75.6198 71.438 71.8996 73.47 71.616C73.845 71.5534 74.2298 71.6359 74.5461 71.8468C74.8625 72.0576 75.0867 72.381 75.1732 72.7513C75.5214 74.1169 74.1978 76.5405 74.6052 78.126C74.8994 79.2635 75.9634 78.5012 76.346 77.8611C76.8713 76.9862 76.6814 75.89 77.1031 74.9843C77.4393 74.2632 78.3112 73.4769 79.1471 73.9248C79.4567 74.145 79.6716 74.4741 79.7487 74.846C79.8258 75.218 79.7594 75.6054 79.5628 75.9305C79.3827 76.3132 78.7682 76.1196 78.7682 75.7054C78.7674 75.4788 78.919 74.8733 78.6916 74.7217H78.6886ZM81.7163 74.381C81.7875 74.3228 81.8784 74.2943 81.9701 74.3014C82.0617 74.3085 82.1472 74.3508 82.2085 74.4193C83.2492 75.7346 84.1879 75.8307 84.7439 76.3867C84.7846 76.4316 84.8117 76.4872 84.8218 76.547C84.8319 76.6067 84.8247 76.6681 84.801 76.7239C84.7773 76.7797 84.7382 76.8276 84.6882 76.8618C84.6382 76.8961 84.5794 76.9153 84.5188 76.9172C83.5786 77.0215 82.1447 75.6326 81.5669 74.7975C81.5507 74.7208 81.5564 74.641 81.5833 74.5674C81.6103 74.4937 81.6574 74.4292 81.7193 74.381H81.7163ZM81.2623 73.0567C81.1666 73.1097 81.0549 73.1261 80.9481 73.1028C80.8412 73.0795 80.7465 73.0181 80.6816 72.93C80.6167 72.842 80.5861 72.7333 80.5955 72.6243C80.6049 72.5153 80.6536 72.4135 80.7326 72.3378C81.4629 71.7194 82.2951 71.2327 83.1922 70.8994C83.8908 70.6998 84.3177 71.3496 83.5329 71.8456C83.4826 71.8794 81.4071 73.0004 81.2653 73.0567H81.2623ZM69.0039 78.0495C68.5795 78.4856 68.1241 78.8903 67.6413 79.2605C67.1792 79.655 66.7489 80.0853 66.3544 80.5474C66.2987 80.5984 66.2278 80.6298 66.1525 80.6366C66.0773 80.6433 66.0019 80.6252 65.938 80.5849C65.8795 80.5347 65.8402 80.4658 65.8265 80.39C65.8128 80.3142 65.8257 80.2359 65.8629 80.1684C66.4512 79.1885 67.6368 77.8356 68.7773 77.7088C68.9656 77.6743 69.0789 77.8994 69.0039 78.0495ZM65.0271 73.5474C65.7692 73.3823 67.3854 74.1987 68.0547 74.6444C68.3264 74.8321 68.5159 75.1167 68.5845 75.4398C68.5845 75.9477 67.675 75.5651 67.6 75.5148C66.9869 75.1539 66.3552 74.8256 65.7076 74.5311C65.402 74.4273 65.1098 74.2875 64.8372 74.1147C64.8017 74.0675 64.7782 74.0123 64.7689 73.954C64.7596 73.8957 64.7646 73.8359 64.7836 73.78C64.8026 73.7241 64.835 73.6737 64.878 73.6331C64.9209 73.5926 64.9731 73.5632 65.0301 73.5474H65.0271Z" fill="#38A1FF"/>
<path d="M44.2125 98.8298C45.197 99.3595 45.9916 97.8078 45.0071 97.2781C44.0227 96.7483 43.2311 98.3001 44.2125 98.8298Z" fill="#191919"/>
<path d="M43.2684 100.419C43.4029 100.48 43.5559 100.488 43.6957 100.439C43.8355 100.391 43.9514 100.291 44.0195 100.16C44.0876 100.029 44.1025 99.8761 44.0613 99.7341C44.0201 99.5921 43.9259 99.4713 43.7982 99.3968C43.6636 99.3354 43.5107 99.328 43.3709 99.3762C43.2311 99.4244 43.1151 99.5245 43.0471 99.6558C42.979 99.7871 42.964 99.9395 43.0052 100.082C43.0464 100.224 43.1407 100.344 43.2684 100.419Z" fill="#191919"/>
</svg>
