<svg width="160" height="160" viewBox="0 0 160 160" fill="none" xmlns="http://www.w3.org/2000/svg">
<path d="M35.8728 44.294C35.0514 44.0134 34.2058 44.3643 34.1628 45.2318C34.1601 45.3828 34.1875 45.5329 34.2433 45.6732C34.2992 45.8135 34.3825 45.9413 34.4882 46.0491C34.594 46.1569 34.7202 46.2425 34.8594 46.3011C34.9986 46.3596 35.1481 46.3899 35.2991 46.3901C35.5478 46.3936 35.7907 46.3144 35.9895 46.1649C36.1883 46.0154 36.3319 45.8041 36.3975 45.5641C36.4632 45.3242 36.4473 45.0693 36.3523 44.8394C36.2573 44.6095 36.0886 44.4176 35.8728 44.294ZM35.0303 45.5015C34.97 45.4424 34.9272 45.3679 34.9064 45.2861C34.8857 45.2043 34.8878 45.1184 34.9125 45.0377C34.9373 44.9571 34.9838 44.8848 35.0468 44.8287C35.1099 44.7727 35.1872 44.735 35.2702 44.7199C35.4187 44.7137 35.5648 44.9036 35.6086 44.9958C35.8563 45.5101 35.289 45.7601 35.0303 45.5015Z" fill="#191919"/>
<path d="M39.4384 44.294C38.617 44.0134 37.7722 44.3643 37.7292 45.2318C37.7265 45.3828 37.7539 45.5329 37.8098 45.6732C37.8656 45.8135 37.9489 45.9413 38.0546 46.0491C38.1604 46.1569 38.2866 46.2425 38.4258 46.3011C38.565 46.3596 38.7145 46.3899 38.8655 46.3901C39.1142 46.3934 39.3569 46.3141 39.5556 46.1645C39.7543 46.015 39.8977 45.8036 39.9632 45.5638C40.0288 45.3239 40.0128 45.069 39.9178 44.8392C39.8228 44.6094 39.6542 44.4176 39.4384 44.294ZM38.5967 45.5015C38.5364 45.4424 38.4936 45.368 38.4728 45.2863C38.452 45.2045 38.454 45.1187 38.4787 45.038C38.5034 44.9574 38.5497 44.8851 38.6127 44.829C38.6757 44.7729 38.7529 44.7352 38.8358 44.7199C38.9843 44.7137 39.1305 44.9036 39.175 44.9958C39.4212 45.5101 38.8546 45.7601 38.5967 45.5015Z" fill="#191919"/>
<path d="M43.0041 44.294C42.1827 44.0134 41.3371 44.3643 41.2941 45.2318C41.2915 45.3829 41.319 45.5329 41.375 45.6732C41.4309 45.8135 41.5143 45.9413 41.6201 46.0491C41.7259 46.1569 41.8521 46.2426 41.9914 46.3011C42.1307 46.3596 42.2802 46.3899 42.4312 46.3901C42.6799 46.3934 42.9226 46.3141 43.1213 46.1645C43.32 46.015 43.4634 45.8036 43.5289 45.5638C43.5945 45.3239 43.5785 45.069 43.4835 44.8392C43.3885 44.6094 43.2199 44.4176 43.0041 44.294ZM42.1624 45.5015C42.1022 45.4424 42.0593 45.368 42.0385 45.2863C42.0177 45.2045 42.0197 45.1187 42.0444 45.038C42.0691 44.9574 42.1154 44.8851 42.1784 44.829C42.2414 44.7729 42.3186 44.7352 42.4015 44.7199C42.55 44.7137 42.6962 44.9036 42.7407 44.9958C42.9861 45.5101 42.4211 45.7601 42.1624 45.5015Z" fill="#191919"/>
<path d="M112.416 95.1127C112.482 95.1127 112.546 95.0863 112.593 95.0393C112.64 94.9922 112.667 94.9284 112.667 94.8619C112.667 94.7953 112.64 94.7315 112.593 94.6845C112.546 94.6374 112.482 94.611 112.416 94.611H91.9611V88.3205C99.6919 88.2947 112.416 88.2424 112.416 88.2424C112.482 88.2424 112.546 88.2159 112.593 88.1689C112.64 88.1218 112.667 88.058 112.667 87.9915C112.667 87.925 112.64 87.8612 112.593 87.8141C112.546 87.7671 112.482 87.7406 112.416 87.7406H91.9611V82.4028C90.8669 82.4028 90.8669 82.5146 90.8669 82.6467V87.7477H83.4011C83.3368 87.7477 83.2752 87.7732 83.2297 87.8186C83.1843 87.8641 83.1588 87.9257 83.1588 87.9899C83.1588 88.0542 83.1843 88.1158 83.2297 88.1613C83.2752 88.2067 83.3368 88.2322 83.4011 88.2322C85.9723 88.3674 87.3399 88.3354 90.8669 88.3244V94.6188H83.4011C83.3681 94.6169 83.3352 94.6218 83.3042 94.6331C83.2732 94.6444 83.2449 94.6619 83.2209 94.6846C83.1969 94.7072 83.1779 94.7345 83.1648 94.7648C83.1518 94.7951 83.145 94.8277 83.145 94.8607C83.145 94.8937 83.1518 94.9263 83.1648 94.9566C83.1779 94.9869 83.1969 95.0142 83.2209 95.0368C83.2449 95.0595 83.2732 95.077 83.3042 95.0883C83.3352 95.0996 83.3681 95.1045 83.4011 95.1026C85.9723 95.2386 87.3399 95.2065 90.8669 95.1956V101.488H83.4011C83.3387 101.491 83.28 101.518 83.2371 101.564C83.1942 101.609 83.1703 101.669 83.1703 101.732C83.1703 101.794 83.1942 101.854 83.2371 101.9C83.28 101.945 83.3387 101.973 83.4011 101.976C88.4278 102.054 87.7424 102.121 90.8669 102.11V107.974H83.4011C83.3387 107.978 83.28 108.005 83.2371 108.05C83.1942 108.096 83.1703 108.156 83.1703 108.218C83.1703 108.281 83.1942 108.341 83.2371 108.386C83.28 108.432 83.3387 108.459 83.4011 108.463C88.4278 108.541 87.7424 108.607 90.8669 108.596V112.8C90.8669 112.942 90.8669 113.053 91.9611 113.053V108.592C98.9323 108.561 112.416 108.473 112.416 108.473C112.48 108.469 112.541 108.441 112.585 108.394C112.63 108.347 112.654 108.285 112.654 108.221C112.654 108.156 112.63 108.094 112.585 108.047C112.541 108 112.48 107.972 112.416 107.969H91.9611V102.105C98.9323 102.075 112.416 101.986 112.416 101.986C112.483 101.986 112.547 101.96 112.594 101.913C112.641 101.865 112.668 101.801 112.668 101.735C112.668 101.668 112.641 101.604 112.594 101.557C112.547 101.509 112.483 101.483 112.416 101.483H91.9611V95.1917C99.6919 95.1659 112.416 95.1127 112.416 95.1127Z" fill="#191919"/>
<path d="M129.529 48.278C129.874 49.0774 130.36 49.8079 130.965 50.4342C130.984 50.4629 131.008 50.4874 131.037 50.5063C131.065 50.5253 131.098 50.5381 131.131 50.5442C131.165 50.5502 131.2 50.5493 131.233 50.5415C131.267 50.5337 131.298 50.5192 131.326 50.4988C131.353 50.4784 131.377 50.4526 131.394 50.423C131.411 50.3934 131.422 50.3605 131.427 50.3264C131.431 50.2924 131.428 50.2578 131.418 50.2249C131.409 50.1919 131.392 50.1613 131.371 50.1349C130.958 49.397 130.484 48.696 129.951 48.0396C129.702 47.7778 129.433 47.988 129.529 48.278Z" fill="#191919"/>
<path d="M122.84 40.6535C122.803 39.8599 123.035 39.077 123.499 38.4317C125.47 35.9449 129.069 40.734 131.376 39.0709C131.404 39.0533 131.429 39.0303 131.448 39.0033C131.467 38.9763 131.48 38.9458 131.488 38.9135C131.495 38.8813 131.496 38.8479 131.49 38.8153C131.485 38.7827 131.473 38.7515 131.455 38.7236C131.437 38.6956 131.414 38.6714 131.387 38.6523C131.36 38.6332 131.33 38.6196 131.298 38.6123C131.232 38.5976 131.164 38.6094 131.108 38.645C130.866 38.7842 130.589 38.8479 130.311 38.8279C128.502 38.7435 125.064 35.2329 122.887 37.9448C122.594 38.3309 122.393 38.779 122.299 39.2547C122.206 39.7305 122.223 40.2213 122.349 40.6895C122.354 40.7546 122.384 40.8151 122.434 40.8577C122.483 40.9004 122.547 40.9217 122.612 40.9169C122.678 40.9121 122.738 40.8817 122.781 40.8323C122.823 40.7829 122.845 40.7186 122.84 40.6535Z" fill="#191919"/>
<path d="M126.528 36.73C127.004 36.6946 127.482 36.7273 127.949 36.8269C129.19 37.1754 131.787 39.2496 133.051 37.0496C133.069 37.0216 133.082 36.9903 133.087 36.9575C133.093 36.9247 133.093 36.8911 133.085 36.8585C133.078 36.826 133.064 36.7953 133.045 36.7681C133.026 36.7409 133.001 36.7179 132.973 36.7003C132.622 36.4603 132.603 37.1692 131.766 37.3036C131.032 37.2941 130.314 37.0949 129.68 36.7253C128.246 36.0344 127.678 35.7484 126.414 36.2634C126.383 36.2707 126.354 36.2841 126.328 36.3026C126.303 36.3212 126.281 36.3446 126.264 36.3716C126.248 36.3985 126.237 36.4285 126.232 36.4597C126.227 36.491 126.228 36.5229 126.235 36.5537C126.242 36.5845 126.256 36.6135 126.274 36.6392C126.293 36.6648 126.316 36.6866 126.343 36.7031C126.37 36.7197 126.4 36.7308 126.431 36.7358C126.463 36.7408 126.495 36.7396 126.525 36.7323L126.528 36.73Z" fill="#191919"/>
<path d="M133.373 38.6267C133.315 38.5987 133.247 38.5947 133.186 38.6156C133.124 38.6364 133.074 38.6806 133.044 38.7385C132.63 39.3583 132.027 39.8278 131.325 40.0772C129.96 40.5868 128.507 40.0264 127.201 39.3739C126.328 38.9378 125.293 38.2016 124.162 38.6338C124.1 38.6507 124.047 38.6916 124.015 38.7475C123.983 38.8034 123.975 38.8697 123.991 38.9319C124.008 38.9941 124.049 39.047 124.105 39.0791C124.161 39.1111 124.227 39.1196 124.29 39.1027C125.328 38.9222 126.671 40.2601 128.744 40.8408C129.089 41.2662 129.37 41.7402 129.577 42.2475C129.605 42.3126 129.651 42.3687 129.709 42.4099C129.767 42.4512 129.835 42.4761 129.906 42.482C130.219 42.482 131.203 42.8126 131.358 43.2135C131.622 43.7402 130.817 44.6413 130.202 44.7398C130.137 44.7485 130.078 44.7816 130.037 44.8324C129.996 44.8831 129.976 44.9477 129.982 45.0127C129.987 45.0777 130.017 45.1382 130.065 45.1818C130.114 45.2254 130.177 45.2488 130.242 45.247C131.602 45.3095 132.6 43.7723 132.03 42.7837C132.074 42.0371 132.072 41.2885 132.024 40.5423C132.661 40.1796 133.17 39.6287 133.483 38.9651C133.512 38.9056 133.517 38.8369 133.497 38.7736C133.477 38.7103 133.432 38.6576 133.373 38.6267Z" fill="#191919"/>
<path d="M125.087 41.4169C125.197 41.3465 125.324 41.309 125.455 41.309C125.585 41.309 125.713 41.3465 125.822 41.4169C126.283 41.5732 126.408 41.785 126.604 41.599C126.811 41.4028 126.533 41.0777 126.325 40.8792C126.09 40.6484 125.774 40.519 125.445 40.519C125.116 40.519 124.8 40.6484 124.565 40.8792C124.409 41.0355 124.29 41.5318 124.545 41.6396C124.663 41.7053 124.728 41.6725 125.087 41.4169Z" fill="#191919"/>
<path d="M129.504 45.5375C129.288 46.2476 128.957 46.9176 128.525 47.521C128.303 47.9203 128.022 48.2841 127.692 48.6003C127.435 47.7196 126.902 46.9447 126.171 46.3902C125.292 45.7118 123.894 45.2382 122.94 45.7782C122.94 45.7532 122.936 45.7274 122.934 45.7001C122.93 45.6062 122.892 45.5171 122.827 45.4498C122.761 45.3824 122.673 45.3416 122.579 45.3351L121.895 45.2945C122.167 44.1855 122.507 43.0944 122.915 42.0277C122.939 41.9689 122.941 41.9028 122.918 41.8432C122.895 41.7836 122.85 41.735 122.793 41.7076C122.735 41.6802 122.669 41.6761 122.609 41.6961C122.548 41.7162 122.498 41.7588 122.468 41.8151C121.767 42.9742 121.284 44.2512 121.042 45.5836C121.032 45.6393 121.033 45.6966 121.047 45.7517C121.06 45.8067 121.085 45.8582 121.12 45.9027C121.155 45.9471 121.2 45.9835 121.25 46.0094C121.301 46.0353 121.356 46.05 121.413 46.0526L122.189 46.0987C122.212 47.0829 122.507 48.0416 123.041 48.8684C123.422 49.3072 123.903 49.6472 124.443 49.8592C124.984 50.0711 125.568 50.1487 126.145 50.0852C126.477 50.6952 126.855 51.2787 127.277 51.8304C127.313 51.8861 127.369 51.9255 127.433 51.9401C127.498 51.9547 127.566 51.9434 127.622 51.9085C127.988 51.6701 127.433 51.3286 126.8 49.9195C127.117 49.8494 127.421 49.7263 127.698 49.5553C128.335 49.1571 128.851 48.5922 129.189 47.922C129.663 47.235 129.948 46.4357 130.016 45.604C130.025 45.5361 130.007 45.4675 129.965 45.4133C129.923 45.359 129.861 45.3236 129.794 45.3148C129.726 45.306 129.657 45.3245 129.603 45.3663C129.549 45.4081 129.513 45.4697 129.504 45.5375ZM124.822 49.1849C123.581 48.7707 123.188 47.8563 123.005 46.4246C124.478 45.9994 125.854 46.8599 126.764 48.1119C126.952 48.3633 127.117 48.63 127.26 48.909C126.912 49.1629 126.505 49.3219 126.077 49.3703C125.65 49.4187 125.217 49.3548 124.822 49.1849Z" fill="#191919"/>
<path d="M125.47 47.9393C125.81 47.9479 125.908 47.5822 125.571 47.447C125.134 47.2437 124.651 47.1627 124.171 47.2125C124.032 47.2485 123.927 47.2907 123.907 47.4204C123.849 47.812 125.071 47.9292 125.47 47.9393Z" fill="#191919"/>
<path d="M113.789 56.3071C113.874 56.1243 113.981 55.9523 114.068 55.7695C115.064 53.6875 116.62 51.924 118.561 50.6763C118.618 50.642 118.66 50.5875 118.679 50.5237C118.698 50.4599 118.692 50.3914 118.663 50.3316C118.63 50.2736 118.575 50.2307 118.511 50.2118C118.447 50.1929 118.378 50.1994 118.318 50.23C117 50.8319 115.847 51.7435 114.958 52.8872C114.228 53.7636 113.65 54.7564 113.248 55.8242C113.014 56.6362 112.955 56.9308 113.198 57.0113C113.44 57.0918 113.513 56.8566 113.789 56.3071Z" fill="#191919"/>
<path d="M117.403 53.6991C119.887 51.4921 119.816 51.5476 119.681 51.3405C119.298 50.7528 115.946 53.6108 116.424 54.1149C116.615 54.3298 117.182 53.8788 117.403 53.6991Z" fill="#191919"/>
<path d="M118.216 54.7081C118.529 54.4197 119.195 53.7703 119.302 53.6734C119.648 53.2826 119.807 53.1552 119.667 52.9481C119.324 52.5292 117.879 53.8531 117.582 54.2618C117.462 54.4291 117.243 54.8495 117.445 55.0129C117.626 55.1754 118.055 54.8691 118.216 54.7081Z" fill="#191919"/>
<path d="M117.964 58.251C119.573 54.806 120.217 54.6794 119.886 54.3652C119.835 54.3211 119.768 54.299 119.701 54.3039C119.633 54.3087 119.571 54.34 119.526 54.391C118.889 54.9852 118.36 55.6854 117.963 56.4605C117.668 56.9838 117.415 57.53 117.207 58.0939C117.091 58.5307 116.924 59.0715 117.197 59.1692C117.47 59.2669 117.817 58.5597 117.964 58.251Z" fill="#191919"/>
<path d="M141.974 73.1828C141.646 73.5597 141.373 73.9806 141.162 74.4333C140.348 76.1526 140.085 78.5081 141.492 79.8C141.985 80.2537 142.607 80.5441 143.272 80.6315C143.538 80.6577 143.806 80.6663 144.074 80.6573C144.142 80.6579 144.208 80.6325 144.257 80.5863C144.307 80.5401 144.338 80.4767 144.343 80.4088C144.342 80.3412 144.315 80.2766 144.268 80.2284C144.22 80.1802 144.156 80.1521 144.089 80.1501C141.749 79.9031 140.473 78.2221 141.847 74.7326C141.992 74.3707 142.206 73.8018 142.379 73.4486C142.415 73.3948 142.427 73.3292 142.414 73.2662C142.401 73.2033 142.363 73.1481 142.31 73.1129C142.283 73.0954 142.253 73.0834 142.222 73.0775C142.191 73.0716 142.158 73.0718 142.127 73.0783C142.064 73.0915 142.009 73.129 141.974 73.1828Z" fill="#191919"/>
<path d="M142.826 78.7452C143.484 79.4197 145.006 79.7855 145.092 79.2986C145.137 79.0532 144.93 79.011 144.179 78.6733C143.871 78.5381 143.58 78.368 143.312 78.1661C143.049 78.0348 142.777 77.9114 142.637 78.0599C142.477 78.224 142.712 78.6077 142.826 78.7452Z" fill="#191919"/>
<path d="M143.878 76.7014C144.193 77.2429 144.624 77.7072 145.141 78.0604C145.361 78.2168 146.046 78.5841 146.196 78.2683C146.312 78.055 146.139 77.9682 145.588 77.472C145.189 77.1241 144.83 76.733 144.518 76.3059C144.467 76.2278 144.086 75.8144 143.878 75.9097C143.638 76.041 143.839 76.6224 143.878 76.7014Z" fill="#191919"/>
<path d="M15.6775 60.4236C16.398 59.9281 16.094 58.6902 15.7431 58.7042C15.5086 58.7136 15.5211 58.9066 15.3578 59.5975C15.2929 59.8734 14.9717 59.821 14.7326 59.8609C14.6544 59.8742 14.1722 59.9906 14.159 60.2165C14.1402 60.5697 15.1304 60.7995 15.6775 60.4236Z" fill="#191919"/>
<path d="M12.5374 57.3502C12.8987 57.8006 13.2881 58.2276 13.7034 58.6288C13.9262 58.8445 14.3974 59.2884 14.6217 59.075C14.7936 58.9117 14.6608 58.7499 14.363 58.3044C13.9719 57.7832 13.543 57.2913 13.0798 56.8328C13.0016 56.7367 12.5178 56.4053 12.3444 56.5796C12.1544 56.7508 12.4686 57.265 12.5374 57.3502Z" fill="#191919"/>
<path d="M10.7698 57.7229C10.8138 57.5876 10.8845 57.4625 10.9778 57.3551C11.0711 57.2477 11.1851 57.1602 11.3129 57.0977C11.4403 57.0195 11.5224 56.9078 11.4802 56.778C11.3387 56.3451 10.0672 56.8265 10.2829 57.6807C10.3165 57.8143 10.3743 57.9308 10.5009 57.9394C10.6424 57.9511 10.7104 57.8417 10.7698 57.7229Z" fill="#191919"/>
<path d="M12.6609 55.7428C13.0892 54.9355 13.1697 55.1074 13.2744 55.0527C13.3357 55.0293 13.387 54.9854 13.4193 54.9283C13.4517 54.8713 13.4632 54.8047 13.4518 54.7401C13.3158 54.2571 12.0185 54.8143 12.1787 55.6584C12.2451 56.0124 12.5054 56.0359 12.6609 55.7428Z" fill="#191919"/>
<path d="M19.3305 61.1609C18.7834 60.4942 18.4333 60.1652 17.9808 59.6947C18.0079 58.8609 17.7117 58.0488 17.154 57.4283C17.3512 57.2254 17.4857 56.9699 17.5415 56.6924C17.5972 56.4149 17.5717 56.1273 17.4681 55.864C17.3645 55.6006 17.1872 55.3727 16.9574 55.2076C16.7276 55.0424 16.455 54.9471 16.1724 54.9329C16.2316 54.4548 16.1286 53.9706 15.8799 53.558C15.6312 53.1453 15.2512 52.8281 14.8008 52.6571C14.7205 52.3324 14.5663 52.0306 14.3504 51.7751C14.1344 51.5197 13.8625 51.3174 13.5557 51.1842C13.2489 51.0509 12.9155 50.9901 12.5814 51.0066C12.2473 51.0231 11.9215 51.1164 11.6294 51.2793C11.3269 51.071 10.974 50.948 10.6076 50.9231C10.2413 50.8983 9.87496 50.9726 9.54718 51.1381C9.21941 51.3037 8.94226 51.5545 8.74483 51.8641C8.54739 52.1737 8.43696 52.5308 8.42513 52.8978C7.96718 52.9582 7.53686 53.1511 7.18709 53.4528C6.83733 53.7545 6.58338 54.1519 6.45648 54.5961C6.36633 55.011 6.3851 55.4421 6.51096 55.8477C6.63682 56.2532 6.86547 56.6192 7.1747 56.9101V56.9203C6.95858 57.2151 6.83093 57.5654 6.80671 57.9301C6.78248 58.2948 6.86269 58.6589 7.03793 58.9796C7.31887 59.4474 7.75417 59.8026 8.26883 59.9839C8.38884 60.3972 8.64129 60.7597 8.98738 61.0155C9.33346 61.2714 9.754 61.4065 10.1843 61.4C10.2417 61.6269 10.3566 61.8352 10.518 62.0047C10.6795 62.1742 10.8819 62.2992 11.1058 62.3675C11.4222 62.4262 11.7485 62.4009 12.0522 62.294C12.3558 62.1872 12.6261 62.0026 12.836 61.7587C13.1523 62.1133 13.5525 62.3827 14 62.5423C14.4475 62.702 14.9279 62.7467 15.3971 62.6723C15.8176 63.0342 16.3201 63.4538 16.7523 63.8641C16.8004 63.909 16.8638 63.9339 16.9296 63.9336C16.9954 63.9334 17.0586 63.9081 17.1064 63.8629C17.1542 63.8177 17.183 63.7559 17.1869 63.6903C17.1908 63.6246 17.1695 63.5599 17.1274 63.5093C17.0063 63.3718 16.5663 62.863 16.1114 62.4003C16.3826 62.2515 16.6251 62.0554 16.8273 61.8212C16.9719 61.6391 17.2876 61.1648 17.0711 60.9889C16.8945 60.8459 16.7882 60.9725 16.4068 61.2234C15.6839 61.7759 15.6792 61.8345 15.3041 61.94C14.5468 62.1534 13.6629 61.543 13.1416 60.9381C13.1045 60.8974 13.0594 60.8647 13.0092 60.842C12.959 60.8194 12.9047 60.8072 12.8496 60.8062C12.7945 60.8053 12.7398 60.8156 12.6888 60.8365C12.6378 60.8574 12.5917 60.8886 12.5531 60.928C12.2405 61.2609 11.7466 61.7361 11.3027 61.6134C11.1536 61.5518 11.0279 61.4446 10.9437 61.3071C10.8594 61.1697 10.8209 61.009 10.8338 60.8482C10.8801 60.7286 10.9479 60.6184 11.0339 60.5231C11.7896 59.6197 11.1448 58.2841 10.0898 57.8245C10.2949 57.2443 10.264 56.6067 10.0038 56.0489C10.4578 55.7985 10.7947 55.3793 10.9416 54.8821C11.1864 54.8665 11.4254 54.8013 11.6442 54.6907C11.8631 54.58 12.0571 54.426 12.2147 54.2381C12.4044 54.4035 12.6332 54.5177 12.8793 54.5701C13.1255 54.6225 13.3809 54.6113 13.6215 54.5374C13.9514 55.1199 14.3946 55.6304 14.9251 56.0388C15.2494 56.2927 15.5628 55.6918 16.1122 55.6613C16.4748 55.6136 16.8015 56.052 16.746 56.4123C16.7062 56.6942 16.5678 56.9529 16.3552 57.1423C16.3173 57.1772 16.2868 57.2195 16.2654 57.2664C16.2441 57.3134 16.2324 57.3642 16.231 57.4158C16.2296 57.4674 16.2386 57.5187 16.2574 57.5668C16.2761 57.6148 16.3044 57.6586 16.3404 57.6956C16.6173 57.9847 16.8451 58.317 17.0149 58.6795C17.4392 59.6556 17.0524 59.8049 17.3196 60.0863C18.1184 60.7795 18.2442 60.8264 18.9327 61.493C18.9768 61.5457 19.04 61.5788 19.1084 61.585C19.1768 61.5912 19.2449 61.5699 19.2977 61.5258C19.3504 61.4818 19.3835 61.4186 19.3897 61.3501C19.3958 61.2817 19.3746 61.2136 19.3305 61.1609Z" fill="#191919"/>
<path d="M12.4779 58.3284C12.5705 58.4029 12.6314 58.5098 12.6482 58.6275C12.665 58.7451 12.6366 58.8648 12.5685 58.9623C12.2051 59.3139 11.4931 58.5981 11.8487 58.2417C11.9442 58.1713 12.0634 58.1409 12.1809 58.1571C12.2985 58.1733 12.405 58.2348 12.4779 58.3284Z" fill="#191919"/>
<path d="M14.5038 56.3317C14.9852 56.8132 14.4389 57.3423 13.9661 56.8694C13.8721 56.797 13.8099 56.6909 13.7928 56.5734C13.7758 56.456 13.8051 56.3365 13.8747 56.2403C13.9713 56.1721 14.0904 56.1436 14.2075 56.1606C14.3245 56.1776 14.4306 56.2388 14.5038 56.3317Z" fill="#191919"/>
<path d="M94.2311 63.019C94.1709 62.6907 93.5856 62.822 92.679 63.019C92.4008 63.0823 91.9561 63.2136 91.6552 63.3034C91.5091 62.9228 91.3614 62.5446 91.2035 62.1695C91.0214 61.8225 90.7885 61.1746 90.4735 61.2715C90.0046 61.4473 90.6978 63.0385 90.8964 63.5379C90.5837 63.6356 89.7569 63.8997 89.4584 64.0303C88.873 64.2975 88.755 64.3843 88.7831 64.5828C88.9168 65.0775 90.7072 64.4265 91.198 64.2702C91.2934 64.4875 91.3645 64.6789 91.5177 64.9861C91.9999 65.9637 92.1054 66.2365 92.3703 66.1326C92.679 66.0114 92.4281 65.351 92.1929 64.7071C92.1257 64.4804 92.0257 64.2592 91.9381 64.0373C92.0163 64.0115 92.7978 63.7583 93.1104 63.6465C94.0584 63.3214 94.2858 63.3128 94.2311 63.019Z" fill="#191919"/>
<path d="M89.4987 41.471C89.6457 41.471 91.0712 41.3983 91.7151 41.3389C92.4748 41.2607 93.0609 41.2185 93.0437 40.9083C93.0226 40.5175 91.662 40.5769 91.2681 40.5957C90.7257 40.605 88.5742 40.6183 88.6148 41.1537C88.6156 41.4335 89.2268 41.471 89.4987 41.471Z" fill="#191919"/>
<path d="M112.169 45.0344C111.889 44.8656 111.654 44.7453 111.337 44.5913C111.418 44.4295 111.489 44.2627 111.549 44.0919C111.74 43.6425 111.958 43.183 111.676 43.047C111.421 42.9251 111.327 43.1869 110.96 43.7371C110.876 43.8879 110.817 43.9512 110.642 44.2639C110.234 44.0755 108.909 43.3792 108.751 43.802C108.535 44.1818 109.864 44.7875 110.266 44.9602C110.043 45.3551 109.848 45.7651 109.682 46.1872C109.604 46.4607 109.426 47.0539 109.692 47.1563C109.933 47.243 110.17 46.8523 110.337 46.5576C110.456 46.3458 110.917 45.4182 110.984 45.2861C111.184 45.3744 111.38 45.469 111.609 45.5565C112.499 45.8925 112.791 45.9527 112.882 45.7245C113.005 45.4932 112.781 45.3853 112.169 45.0344Z" fill="#191919"/>
<path d="M107.095 48.2554C106.554 46.2226 106.134 44.1597 105.837 42.0774C105.818 41.98 105.838 41.8791 105.893 41.7965C105.948 41.7139 106.033 41.6562 106.13 41.6359C108.053 41.1716 110.122 40.5019 112.837 39.7946C112.869 39.7836 112.904 39.7793 112.938 39.7821C112.972 39.7848 113.006 39.7945 113.036 39.8105C113.066 39.8265 113.093 39.8486 113.115 39.8753C113.136 39.902 113.152 39.9329 113.162 39.966C113.171 39.9991 113.173 40.0337 113.169 40.0678C113.164 40.1018 113.153 40.1346 113.135 40.1642C113.118 40.1937 113.094 40.2193 113.066 40.2395C113.039 40.2596 113.007 40.2739 112.973 40.2815C110.525 41.063 109.378 41.6007 106.663 42.3002C106.982 44.5809 107.479 46.8333 108.148 49.0369C108.175 49.112 108.177 49.1935 108.155 49.27C108.132 49.3464 108.087 49.4139 108.024 49.4628C107.961 49.5117 107.884 49.5395 107.804 49.5423C107.725 49.5451 107.646 49.5228 107.58 49.4785C106.658 48.8698 105.769 48.2126 104.917 47.5098C104.865 47.4707 104.831 47.4127 104.822 47.3484C104.813 47.2841 104.83 47.2189 104.869 47.1671C104.908 47.1153 104.966 47.0811 105.03 47.0721C105.094 47.0631 105.16 47.08 105.211 47.119C105.598 47.3683 106.753 48.0451 107.095 48.2554Z" fill="#191919"/>
<path d="M103.192 55.6361C100.806 52.5264 99.0304 50.4194 96.2576 47.1597C96.2105 47.1043 96.1489 47.0631 96.0797 47.0408C96.0106 47.0185 95.9365 47.016 95.866 47.0334C95.7954 47.0509 95.7311 47.0877 95.6803 47.1396C95.6295 47.1916 95.5942 47.2568 95.5784 47.3277C94.9298 49.8325 94.6766 52.449 94.2694 54.9671C94.2594 55.0227 94.2625 55.0799 94.2784 55.1341C94.2942 55.1884 94.3225 55.2382 94.3608 55.2797C94.5117 55.4813 94.5288 55.3805 96.2427 55.4774C97.8175 55.5665 102.539 56.0057 102.782 55.908L102.822 55.9385C102.99 56.1839 103.396 55.9018 103.192 55.6361ZM95.0962 54.6748C95.1822 54.1981 95.2611 53.7206 95.3377 53.2415C95.759 53.3691 96.1973 53.4315 96.6374 53.4267C96.5638 53.8686 96.5225 54.3152 96.5139 54.7631C96.0419 54.7209 95.5714 54.6904 95.0962 54.6748ZM97.143 54.8202C97.1626 54.742 97.3095 54.1168 97.3478 53.8683C97.451 53.1602 97.5572 52.9984 97.383 52.8132C97.3515 52.7696 97.3105 52.7337 97.2631 52.7082C97.2157 52.6828 97.1632 52.6684 97.1094 52.6663C96.552 52.597 95.9885 52.5923 95.4299 52.6522C95.8527 49.9169 95.8137 50.0365 96.1771 48.2577C96.7874 48.9462 101.804 54.7952 102.335 55.3852C100.601 55.2516 98.8718 54.9874 97.143 54.8178V54.8202Z" fill="#38A1FF"/>
<path d="M28.6962 73.3605C29.9256 72.2 30.7282 71.4185 32.3233 71.0941C32.7941 70.9896 33.2762 70.9452 33.7582 70.962C33.7921 70.9688 33.8271 70.9686 33.861 70.9613C33.8949 70.954 33.9269 70.9399 33.9551 70.9197C33.9833 70.8995 34.007 70.8738 34.0249 70.8441C34.0427 70.8144 34.0543 70.7814 34.0588 70.747C34.0634 70.7127 34.0608 70.6778 34.0513 70.6444C34.0419 70.6111 34.0256 70.5801 34.0037 70.5533C33.9817 70.5265 33.9545 70.5045 33.9237 70.4886C33.8929 70.4728 33.8592 70.4634 33.8246 70.4611C33.29 70.3332 32.7371 70.3004 32.1912 70.3642C30.8754 70.5724 29.6763 71.2413 28.808 72.2516C28.6029 72.5051 28.4324 72.7847 28.3008 73.0831C28.2698 73.1356 28.2597 73.1979 28.2725 73.2575C28.2854 73.3171 28.3203 73.3696 28.3702 73.4047C28.4201 73.4397 28.4814 73.4546 28.5419 73.4464C28.6023 73.4382 28.6574 73.4076 28.6962 73.3605Z" fill="#191919"/>
<path d="M31.8361 72.7723C32.0237 72.7614 32.3441 72.6496 33.0131 72.5949C33.9853 72.5222 34.1111 72.5816 34.1541 72.3464C34.2323 72.0908 33.8814 71.9744 33.4898 71.8775C32.8753 71.7834 32.2471 71.8391 31.6587 72.04C30.8913 72.3706 30.9851 72.8575 31.8361 72.7723Z" fill="#191919"/>
<path d="M32.5008 74.3245C33.967 73.958 34.4241 74.1237 34.464 73.7509C34.4835 73.4914 34.1451 73.4508 33.8607 73.3961C33.2836 73.327 32.6984 73.4077 32.1616 73.6305C32.0835 73.6602 31.6357 73.9525 31.7404 74.2042C31.8232 74.4292 32.2687 74.3691 32.5008 74.3245Z" fill="#191919"/>
<path d="M33.6683 75.9055C33.9495 75.7532 34.2475 75.6342 34.5561 75.5507C34.6218 75.5407 34.6809 75.5055 34.7211 75.4527C34.7612 75.3998 34.7793 75.3334 34.7713 75.2675C34.7634 75.2016 34.7302 75.1414 34.6786 75.0996C34.6271 75.0578 34.5613 75.0376 34.4952 75.0435C34.1141 75.0397 33.735 75.0997 33.3737 75.2209C31.7645 75.8187 30.6735 77.5928 31.162 77.8687C31.6114 78.1117 32.0568 76.6979 33.6683 75.9055Z" fill="#191919"/>
<path d="M30.1511 63.9429C28.964 65.3356 28.8374 68.2085 31.1671 69.3401C31.6889 69.562 32.2359 69.7194 32.7958 69.809C32.8596 69.8224 32.9261 69.8108 32.9816 69.7767C33.0372 69.7425 33.0775 69.6884 33.0943 69.6254C33.1111 69.5624 33.1032 69.4954 33.0721 69.4381C33.041 69.3808 32.9891 69.3376 32.9271 69.3174C31.1218 68.7532 29.9628 67.9107 30.1277 66.0507C30.204 65.4365 30.3876 64.8406 30.6701 64.2899C30.9131 63.8499 31.0827 63.7038 30.8881 63.5295C30.6646 63.3489 30.4036 63.6334 30.1511 63.9429Z" fill="#191919"/>
<path d="M31.7602 67.619C32.2244 67.8472 33.9359 68.624 34.0633 68.1309C34.1993 67.7792 33.2646 67.4189 32.3486 67.0203C32.2323 66.9689 32.1121 66.9266 31.9891 66.8937C31.8868 66.8523 31.3522 66.7679 31.253 67.0149C31.1779 67.272 31.5523 67.4799 31.7602 67.619Z" fill="#191919"/>
<path d="M32.4368 66.3365C32.515 66.3709 33.3559 66.6593 33.5474 66.6968C33.6693 66.7273 34.2617 66.8586 34.3594 66.6054C34.4211 66.4029 34.2812 66.2927 33.7959 66.0122C33.4282 65.8304 33.0398 65.6939 32.6392 65.6058C32.5501 65.5878 32.0515 65.6058 32.0054 65.834C31.9429 66.0387 32.3571 66.3068 32.4368 66.3365Z" fill="#191919"/>
<path d="M31.8662 64.6172C31.9928 64.6868 33.169 65.1831 33.53 65.3073C33.8254 65.4058 34.4507 65.6317 34.5757 65.348C34.6773 65.0932 34.4038 64.9509 33.8247 64.6274C33.5636 64.4875 32.4179 63.9912 32.1452 63.9123C31.8326 63.849 31.4027 63.7755 31.3183 64.0084C31.2339 64.2413 31.7528 64.5649 31.8662 64.6172Z" fill="#191919"/>
<path d="M134.851 75.9882C131.536 68.4856 131.172 59.5184 132.888 51.5265C132.906 51.4412 132.894 51.3523 132.854 51.2747C132.814 51.1972 132.749 51.1357 132.669 51.1006C132.414 50.979 132.152 50.8746 131.883 50.788C131.818 50.7673 131.748 50.7644 131.681 50.7797C131.614 50.7949 131.553 50.8277 131.503 50.8747C130.414 51.8821 128.822 52.6503 127.389 52.2439C127.292 52.2169 127.187 52.2282 127.098 52.2754C127.008 52.3226 126.94 52.4022 126.907 52.4979C126.118 54.8425 126.125 56.9979 126.029 59.6043C125.892 63.6922 126.221 67.7824 127.009 71.7961C127.248 73.4672 127.623 75.1162 128.129 76.7267C128.911 78.9603 133.01 77.6184 135.013 76.4329C135.072 76.4114 135.12 76.3674 135.146 76.3105C135.173 76.2537 135.176 76.1886 135.154 76.1296C135.133 76.0707 135.089 76.0226 135.032 75.9961C134.975 75.9696 134.91 75.9667 134.851 75.9882ZM130.131 75.9249C129.187 72.5979 128.547 69.1921 128.218 65.7494C127.783 62.3177 127.693 58.851 127.949 55.4013C127.954 55.339 127.982 55.2809 128.029 55.2388C128.075 55.1968 128.135 55.1741 128.198 55.1754C128.26 55.1767 128.32 55.2019 128.364 55.2458C128.409 55.2898 128.434 55.349 128.436 55.4115C128.454 62.2665 129.187 69.101 130.625 75.8037C130.633 75.8362 130.634 75.8698 130.629 75.9028C130.624 75.9359 130.612 75.9675 130.595 75.9961C130.578 76.0247 130.555 76.0495 130.528 76.0693C130.501 76.089 130.471 76.1033 130.438 76.1113C130.406 76.1192 130.372 76.1207 130.339 76.1156C130.306 76.1106 130.274 76.0991 130.246 76.0818C130.217 76.0644 130.192 76.0417 130.173 76.0148C130.153 75.9878 130.139 75.9573 130.131 75.9249ZM130.777 55.7444C130.743 55.7871 130.7 55.8218 130.651 55.8461C130.602 55.8705 130.548 55.8838 130.494 55.8852C130.439 55.8866 130.385 55.8761 130.335 55.8543C130.284 55.8326 130.24 55.8001 130.203 55.7592C129.869 55.3904 128.361 53.6491 128.296 53.571C128.127 53.8492 127.134 55.5451 127.023 55.864C127 55.9192 126.958 55.9641 126.904 55.9902C126.85 56.0163 126.788 56.0217 126.73 56.0054C126.673 55.9892 126.623 55.9524 126.591 55.902C126.558 55.8516 126.545 55.7911 126.554 55.7319C126.798 54.6457 127.257 53.6193 127.904 52.7136C127.936 52.6623 127.98 52.619 128.032 52.5871C128.083 52.5552 128.141 52.5356 128.202 52.5297C128.262 52.5238 128.323 52.5318 128.38 52.5532C128.437 52.5745 128.488 52.6085 128.529 52.6527C129.662 53.9117 129.771 54.0813 130.477 54.9152L131.994 52.9926C132.157 52.7371 132.582 52.9926 132.399 53.292C131.795 54.2126 131.524 54.7229 130.777 55.7444Z" fill="#38A1FF"/>
<path d="M18.1826 64.7422C18.7094 64.527 19.1741 64.1837 19.5347 63.7434C19.8952 63.3032 20.1402 62.7799 20.2474 62.221C20.2974 61.8193 20.4334 61.1269 20.0598 61.1003C19.6987 61.0753 19.8722 61.4434 19.4557 62.3226C19.1781 63.0732 18.625 63.6899 17.909 64.0474C17.2174 64.364 17.1275 64.414 17.1525 64.6C17.19 64.9251 17.8997 64.843 18.1826 64.7422Z" fill="#191919"/>
<path d="M19.7089 64.8901C20.0511 64.6728 20.3361 64.3765 20.5401 64.0262C20.7441 63.6759 20.861 63.2817 20.8811 62.8769C20.8903 62.8109 20.8736 62.744 20.8345 62.69C20.7954 62.6361 20.737 62.5994 20.6714 62.5876C20.6059 62.5758 20.5383 62.5898 20.4829 62.6266C20.4274 62.6635 20.3884 62.7204 20.3739 62.7854C20.1543 63.4183 19.8226 64.0066 19.3947 64.522C19.2016 64.8526 19.4517 65.0268 19.7089 64.8901Z" fill="#191919"/>
<path d="M33.2633 79.9443C31.463 78.043 29.7717 76.0415 28.1975 73.9492C27.6559 74.594 27.019 75.3106 26.5954 75.9194C25.5744 77.3125 24.6635 78.7831 23.871 80.3178C23.8349 80.3881 23.7784 80.4458 23.7089 80.4833C23.6393 80.5208 23.5601 80.5363 23.4815 80.5278C23.403 80.5194 23.3289 80.4873 23.2689 80.4359C23.209 80.3844 23.166 80.316 23.1458 80.2397C22.6456 78.4305 21.9633 76.2344 21.8117 75.2379C21.6773 74.6174 21.5233 74.1118 21.8367 74.036C22.1087 73.9711 22.1204 74.1657 22.5877 75.599C23.0277 76.9885 23.4701 78.511 23.6326 79.0838C24.8035 76.9126 26.3122 74.9415 28.1022 73.2443C28.6318 71.958 29.6242 70.9168 30.8836 70.3261C30.9361 70.2948 30.9789 70.2495 31.0072 70.1954C31.0356 70.1412 31.0483 70.0803 31.0441 70.0193C31.0399 69.9584 31.0189 69.8998 30.9834 69.85C30.9479 69.8003 30.8993 69.7614 30.843 69.7376C28.2405 68.5864 28.3421 64.5967 30.6398 63.072C30.6911 63.0418 30.7336 62.9987 30.7631 62.947C30.7925 62.8953 30.808 62.8368 30.8078 62.7773C30.8789 60.1983 31.0892 57.6248 31.0423 54.9301C31.0406 54.8737 31.0262 54.8184 31.0004 54.7683C30.9745 54.7181 30.9377 54.6745 30.8927 54.6404C30.8477 54.6064 30.7957 54.5829 30.7404 54.5716C30.6852 54.5603 30.6281 54.5616 30.5733 54.5752C28.9722 54.9428 27.4292 55.5284 25.9874 56.3157C26.1633 57.1547 26.2318 58.0127 26.1913 58.8689C26.1515 60.0963 26.0075 61.318 25.7607 62.521C25.752 62.5878 25.7174 62.6485 25.6644 62.6902C25.6114 62.7318 25.5443 62.7511 25.4773 62.7439C25.4103 62.7366 25.3488 62.7034 25.3059 62.6514C25.2631 62.5994 25.2423 62.5326 25.248 62.4655C25.3145 59.3191 25.4895 59.781 25.3989 56.2047C24.715 54.9871 23.1692 55.4959 22.6487 57.4098C21.5194 56.4447 20.5386 57.8006 20.4729 59.3019C20.4354 60.5523 21.4108 63.7753 21.807 64.8312C20.6113 64.9507 19.6641 65.1352 18.4644 65.3587C17.3016 65.5157 16.1662 65.8331 15.0906 66.302C14.0441 66.8397 13.1368 67.9237 13.7112 68.9553C13.4975 69.1655 13.3325 69.4202 13.2279 69.7012C13.1233 69.9822 13.0816 70.2827 13.1058 70.5816C13.13 70.8804 13.2196 71.1704 13.368 71.4308C13.5165 71.6913 13.7204 71.9161 13.9652 72.0892C14.9319 71.7695 16.8342 71.2709 17.2171 71.1685C17.9219 70.9698 18.641 70.8256 19.3679 70.7371C19.4332 70.7204 19.5024 70.7302 19.5605 70.7645C19.6185 70.7988 19.6606 70.8547 19.6774 70.92C19.6941 70.9853 19.6843 71.0546 19.65 71.1126C19.6157 71.1707 19.5598 71.2127 19.4945 71.2295C19.1201 71.3585 18.5824 71.5749 18.044 71.7367C17.1515 72.0095 15.1773 72.5636 14.2559 72.7121C14.7202 78.6798 16.8068 83.304 18.9615 85.8416C19.955 87.1934 21.3614 88.1851 22.9683 88.6668C27.0237 89.7782 30.2084 85.9049 32.3326 82.2802C32.6858 81.6746 33.1821 80.9446 33.3728 80.4827C33.4087 80.4827 33.4939 80.378 33.479 80.2702C33.4941 80.2345 33.5002 80.1957 33.4966 80.1572C33.4931 80.1186 33.48 80.0816 33.4587 80.0493C33.4373 80.017 33.4083 79.9906 33.3742 79.9722C33.3401 79.9539 33.302 79.9443 33.2633 79.9443ZM24.7385 65.3071C25.0972 65.2712 25.216 66.2793 25.2965 66.8545C26.046 72.1017 26.1327 72.4917 25.7654 72.5456C25.4317 72.5956 25.4122 72.1548 25.1066 70.7403C24.8127 69.2522 24.6075 67.748 24.4923 66.2356C24.4947 65.708 24.4603 65.3353 24.7385 65.3071ZM23.1481 68.2081C23.5654 68.1847 23.6772 69.997 23.7819 70.6887C23.8483 71.1959 23.9241 71.7047 23.9851 72.2103C24.0156 72.4284 24.0257 72.6519 24.0508 72.8699C24.0883 73.6929 24.1625 74.111 23.8632 74.1485C23.5639 74.186 23.5568 73.846 23.3763 73.027C23.1286 71.8071 22.9491 70.5742 22.8386 69.3343C22.8331 69.4125 22.7964 68.2285 23.1481 68.2081Z" fill="#38A1FF"/>
<path d="M122.724 61.6175C122.342 61.587 121.969 61.5636 121.587 61.5519C121.523 61.5484 121.46 61.5291 121.404 61.4956C121.348 61.4622 121.302 61.4157 121.268 61.3601C121.235 61.3046 121.215 61.2416 121.212 61.1768C121.208 61.112 121.22 61.0473 121.247 60.9884C122.012 59.2486 122.918 57.5742 123.956 55.9819C123.99 55.9278 124.044 55.8889 124.106 55.8737C124.168 55.8585 124.233 55.8682 124.288 55.9006C124.343 55.9331 124.383 55.9857 124.4 56.0474C124.417 56.109 124.408 56.1747 124.377 56.2305C123.944 57.0487 124.195 56.6994 122.212 60.7906C122.853 60.8321 123.046 60.8516 123.687 60.918C123.766 60.925 123.84 60.9554 123.901 61.0054C123.962 61.0554 124.006 61.1227 124.028 61.1983C124.05 61.2739 124.049 61.3544 124.024 61.4292C124 61.504 123.953 61.5696 123.89 61.6175C123.381 62.0416 122.91 62.5103 122.484 63.018C123.404 64.7373 124.347 66.7615 125.091 68.2425C125.121 68.3022 125.127 68.3711 125.108 68.4352C125.089 68.4993 125.047 68.5538 124.989 68.5879C124.929 68.6189 124.859 68.625 124.795 68.605C124.731 68.585 124.677 68.5404 124.645 68.4808C123.316 66.2558 122.412 64.4794 121.682 63.1493C121.643 63.0821 121.627 63.0046 121.634 62.9275C121.641 62.8504 121.672 62.7775 121.723 62.7187C122.036 62.334 122.371 61.9665 122.724 61.6175Z" fill="#191919"/>
<path d="M128.475 77.2604C127.387 75.1503 126.918 72.4447 126.512 70.2806C125.578 65.8395 125.355 61.2783 125.852 56.7673C125.979 55.6447 126.171 54.5302 126.426 53.4294C126.433 53.3761 126.426 53.3218 126.405 53.2722C126.384 53.2226 126.35 53.1795 126.307 53.1475C126.264 53.1155 126.213 53.0958 126.159 53.0904C126.106 53.085 126.052 53.0941 126.003 53.1168C124.481 53.8214 123.058 54.7201 121.767 55.7904C120.408 56.8013 119.269 58.0775 118.419 59.5417C118.386 59.5943 118.374 59.6576 118.386 59.7186C118.398 59.7796 118.433 59.8337 118.484 59.8695C118.535 59.9054 118.597 59.9203 118.659 59.9113C118.72 59.9022 118.776 59.8698 118.814 59.8207C120.81 57.4847 123.159 55.4751 125.775 53.8648C125.16 55.8929 124.834 57.9977 124.807 60.1169C124.672 64.7615 125.739 73.2082 127.877 77.219C126.541 77.5105 125.508 77.6801 123.715 78.0552C122.12 74.1572 121.088 70.0522 120.65 65.8635C120.646 65.8012 120.617 65.7431 120.571 65.701C120.525 65.659 120.464 65.6363 120.402 65.6376C120.34 65.6389 120.28 65.6641 120.236 65.708C120.191 65.7519 120.165 65.8112 120.163 65.8736C120.102 67.5475 120.266 69.2219 120.652 70.8519C118.641 72.7213 116.181 75.4332 113.43 75.0018C111.533 74.6986 110.694 72.5971 110.315 70.7206C109.714 67.6727 110.286 63.9026 111.051 60.9047C111.315 59.6434 111.707 58.4125 112.223 57.2316C113.807 58.4231 115.462 59.5192 117.176 60.5139C117.062 62.9444 117.239 65.3797 117.704 67.768C117.716 67.8335 117.753 67.8916 117.807 67.9305C117.861 67.9694 117.928 67.986 117.994 67.9769C118.06 67.9677 118.12 67.9335 118.161 67.8814C118.202 67.8292 118.222 67.7632 118.216 67.6969C118.038 66.0229 118.02 64.7897 117.988 64.0042C117.831 60.2178 118.13 60.2013 117.77 59.9661C114.317 57.8028 114.212 57.688 112.393 56.729C112.377 56.6929 112.353 56.6611 112.323 56.6364C112.292 56.6116 112.256 56.5946 112.218 56.587C112.179 56.5793 112.14 56.5811 112.102 56.5922C112.064 56.6033 112.03 56.6235 112.002 56.6509C111.67 57.1592 111.383 57.695 111.142 58.2522C110.822 59.0551 110.551 59.8767 110.33 60.7125C109.447 63.8964 108.902 67.6516 109.549 70.8676C109.975 73.098 111.06 75.4215 113.317 75.7529C116.349 76.189 118.667 73.599 120.788 71.46C121.417 73.8991 122.203 76.2952 123.14 78.6336C123.174 78.717 123.237 78.7857 123.316 78.8274C123.396 78.8692 123.488 78.8814 123.576 78.8618C125.313 78.4116 126.4 78.2045 128.279 77.6543C128.32 77.6445 128.358 77.6258 128.391 77.5997C128.424 77.5735 128.45 77.5405 128.469 77.503C128.488 77.4654 128.498 77.4242 128.499 77.3823C128.5 77.3404 128.492 77.2988 128.475 77.2604Z" fill="#191919"/>
<path d="M135.752 76.0019C137.187 75.9116 138.607 75.6632 139.987 75.261C140.02 75.2489 140.054 75.2435 140.088 75.2451C140.123 75.2467 140.156 75.2553 140.187 75.2703C140.218 75.2854 140.246 75.3065 140.268 75.3326C140.291 75.3586 140.308 75.3889 140.318 75.4217C140.328 75.4545 140.332 75.4891 140.328 75.5233C140.325 75.5575 140.315 75.5907 140.298 75.6207C140.281 75.6508 140.259 75.6772 140.232 75.6982C140.204 75.7193 140.173 75.7346 140.14 75.7432C138.662 76.1902 137.14 76.4709 135.6 76.5802C135.539 76.5872 135.478 76.5746 135.425 76.5444C135.372 76.5142 135.33 76.4679 135.305 76.4122C134.035 73.333 133.221 70.0844 132.891 66.7697C132.068 59.7282 133.027 53.5518 133.13 50.897C133.137 50.8173 133.167 50.7415 133.217 50.6785C133.266 50.6156 133.333 50.5683 133.409 50.5422C138.312 49.1089 143.1 51.1963 147.398 53.9715C148.698 54.7796 149.929 55.6923 151.08 56.7006C155.492 60.7559 156.004 63.0911 152.962 68.4586C151.77 70.5594 149.972 73.4479 147.726 76.681C147.684 76.7429 147.624 76.7908 147.555 76.8187C147.485 76.8465 147.409 76.853 147.335 76.8373C146.237 76.5747 145.21 76.0717 144.33 75.3647C143.449 74.6576 142.736 73.7641 142.242 72.7484C142.22 72.7017 142.208 72.6505 142.208 72.5987C142.208 72.5469 142.22 72.4958 142.242 72.4491C143.058 70.8921 143.956 69.3791 144.931 67.9162L147.067 64.451C147.102 64.3992 147.155 64.3626 147.216 64.3488C147.277 64.335 147.341 64.345 147.395 64.3768C147.449 64.4086 147.488 64.4597 147.505 64.5197C147.523 64.5797 147.516 64.644 147.488 64.6995C144.713 69.5793 143.561 71.3206 142.955 72.5929C143.404 73.4248 144.014 74.1582 144.752 74.7498C145.489 75.3414 146.337 75.7791 147.246 76.037C148.95 73.5362 152.776 67.8357 153.733 64.9988C154.04 64.249 154.16 63.4361 154.084 62.6296C154.008 61.823 153.738 61.0469 153.297 60.3675C152.161 58.7475 150.768 57.3239 149.173 56.1528C148.462 55.6096 147.696 55.1126 146.961 54.6358C142.975 52.0513 138.442 49.9998 133.894 51.212C133.692 55.2759 131.863 66.304 135.752 76.0019Z" fill="#191919"/>
<path d="M142.97 63.545C143.511 65.1452 143.918 66.7876 144.187 68.4553C144.195 68.5146 144.181 68.5747 144.147 68.6242C144.114 68.6737 144.063 68.709 144.005 68.7235C143.947 68.7379 143.885 68.7304 143.833 68.7024C143.78 68.6744 143.739 68.6279 143.718 68.5717C143.031 66.6604 142.442 64.7153 141.953 62.7439C141.933 62.6683 141.936 62.5885 141.962 62.5148C141.988 62.4411 142.036 62.3769 142.098 62.3304C142.161 62.284 142.237 62.2574 142.315 62.2542C142.393 62.251 142.47 62.2714 142.537 62.3125C143.826 63.1337 144.971 64.1619 145.925 65.3558C146.137 65.6051 145.755 65.945 145.539 65.691C144.745 64.9043 143.885 64.1863 142.97 63.545Z" fill="#191919"/>
<path d="M125.507 42.4341C125.639 42.4052 125.777 42.4178 125.901 42.4704C126.025 42.523 126.13 42.6129 126.201 42.7277C126.272 42.8425 126.306 42.9766 126.298 43.1113C126.289 43.2461 126.239 43.3749 126.154 43.48C126.07 43.585 125.954 43.6612 125.824 43.6979C125.695 43.7347 125.556 43.7302 125.429 43.685C125.302 43.6399 125.192 43.5563 125.114 43.4459C125.036 43.3355 124.995 43.2037 124.995 43.0687C124.981 42.917 125.026 42.7657 125.122 42.6471C125.218 42.5285 125.356 42.452 125.507 42.4341Z" fill="#191919"/>
<path d="M136.772 56.8228C135.889 55.0706 135.449 53.5897 135.012 52.5565C134.986 52.4975 134.984 52.4305 135.007 52.37C135.029 52.3095 135.075 52.2603 135.133 52.233C135.192 52.2057 135.259 52.2025 135.32 52.2242C135.381 52.2458 135.431 52.2905 135.459 52.3486C136.787 54.8424 136.997 55.649 137.701 56.9236C137.731 56.978 137.748 57.0389 137.75 57.1011C137.751 57.1634 137.738 57.2251 137.711 57.281C137.683 57.3368 137.643 57.3852 137.592 57.422C137.542 57.4587 137.484 57.4827 137.422 57.4918C136.724 57.6134 136.038 57.7965 135.373 58.0389C136.315 58.5781 136.762 58.736 137.316 59.0549C137.363 59.0791 137.405 59.1132 137.438 59.1549C137.472 59.1966 137.496 59.2449 137.509 59.2966C137.523 59.3483 137.525 59.4022 137.516 59.4549C137.507 59.5075 137.487 59.5576 137.457 59.6019C136.31 61.4221 135.379 63.3694 134.683 65.4047C134.673 65.4372 134.658 65.4675 134.636 65.4936C134.615 65.5198 134.589 65.5414 134.559 65.5571C134.529 65.5727 134.496 65.5821 134.462 65.5847C134.429 65.5872 134.395 65.5829 134.363 65.572C134.301 65.5504 134.25 65.506 134.22 65.4479C134.19 65.3898 134.183 65.3224 134.2 65.2594C134.723 63.2521 135.524 61.3278 136.58 59.5425C135.765 59.2078 134.998 58.764 134.302 58.2233C134.251 58.1801 134.212 58.1245 134.188 58.0617C134.164 57.999 134.157 57.9312 134.168 57.865C134.178 57.7987 134.205 57.7362 134.246 57.6835C134.288 57.6307 134.342 57.5895 134.404 57.5637C135.169 57.2447 135.962 56.9967 136.772 56.8228Z" fill="#191919"/>
<path d="M71.1813 61.4084V61.3959C70.9082 61.3821 70.6367 61.4457 70.3982 61.5794C70.1597 61.7131 69.9638 61.9116 69.8331 62.1518C69.7024 62.392 69.6422 62.6643 69.6595 62.9372C69.6768 63.2101 69.7709 63.4726 69.9309 63.6944C66.9041 66.2734 64.0366 69.4651 62.7823 70.5249C61.5569 69.529 60.2635 68.62 58.9114 67.8044C58.9888 67.5413 58.9928 67.2621 58.923 66.997C58.8531 66.7318 58.7121 66.4908 58.5152 66.3C58.3675 66.1775 58.1966 66.086 58.0128 66.0311C57.829 65.9762 57.6359 65.9589 57.4453 65.9803V65.9702C57.1524 65.957 56.8625 66.0324 56.6132 66.1867C56.3639 66.3409 56.167 66.5668 56.0482 66.8347C55.9293 67.1027 55.894 67.4002 55.947 67.6885C55.9999 67.9768 56.1386 68.2425 56.3449 68.4507C53.6924 71.1649 52.5662 72.2802 49.8114 75.4336C49.1947 74.9037 47.3214 73.3446 46.4063 72.635C46.5142 72.4655 46.5858 72.2756 46.6167 72.0771C46.6475 71.8785 46.6369 71.6758 46.5855 71.4816C46.5341 71.2874 46.4431 71.1059 46.3181 70.9487C46.193 70.7914 46.0368 70.6617 45.8592 70.5679C45.624 70.451 45.3588 70.4085 45.0988 70.4459V70.4311C44.8186 70.4174 44.5405 70.4852 44.298 70.6263C44.0555 70.7673 43.8591 70.9756 43.7324 71.2259C43.6058 71.4762 43.5544 71.7578 43.5844 72.0367C43.6144 72.3156 43.7245 72.5799 43.9015 72.7975C43.4029 73.2008 43.4279 73.1961 42.0719 74.4614C41.4697 74.9514 40.9357 75.5197 40.4839 76.1511C40.4596 76.1721 40.4398 76.1979 40.4256 76.2267C40.4114 76.2556 40.4031 76.287 40.4013 76.3191C40.3994 76.3512 40.404 76.3834 40.4148 76.4137C40.4256 76.444 40.4424 76.4718 40.4641 76.4955C40.4858 76.5192 40.5121 76.5384 40.5414 76.5518C40.5706 76.5652 40.6022 76.5725 40.6344 76.5735C40.6665 76.5745 40.6985 76.569 40.7285 76.5574C40.7585 76.5458 40.7859 76.5282 40.809 76.5059C41.4737 76.1017 42.0788 75.6066 42.6065 75.035C43.1645 74.5145 43.9273 73.7909 44.4376 73.218C44.6816 73.3348 44.9522 73.3848 45.2218 73.363C45.4915 73.3412 45.7505 73.2483 45.9725 73.0937C46.9885 74.1324 48.3171 75.2039 49.5785 76.2808C49.6175 76.3154 49.663 76.3418 49.7124 76.3585C49.7618 76.3752 49.814 76.3819 49.866 76.3781C49.918 76.3743 49.9688 76.3601 50.0152 76.3365C50.0616 76.3128 50.1029 76.28 50.1365 76.2402C51.122 75.1109 55.0046 70.8086 56.8279 68.779C57.1345 68.9127 57.4763 68.9428 57.8016 68.8646C58.1268 68.7865 58.4177 68.6044 58.6301 68.346C59.9219 69.319 62.1962 71.0469 62.5572 71.3306C62.6242 71.3828 62.7067 71.4112 62.7917 71.4112C62.8766 71.4112 62.9591 71.3828 63.0261 71.3306C64.497 70.1943 66.9463 67.4136 70.3685 64.1008C70.6009 64.2465 70.8681 64.3272 71.1423 64.3343C71.4165 64.3414 71.6875 64.2748 71.9271 64.1413C72.1667 64.0079 72.3661 63.8125 72.5044 63.5756C72.6426 63.3388 72.7147 63.0691 72.7131 62.7948C72.7211 62.5979 72.6857 62.4016 72.6095 62.2198C72.5332 62.0381 72.4179 61.8753 72.2718 61.743C72.1256 61.6108 71.9522 61.5122 71.7638 61.4544C71.5753 61.3966 71.3765 61.3809 71.1813 61.4084Z" fill="#38A1FF"/>
<path d="M39.4997 82.2552C41.5746 82.2552 74.2423 82.3919 74.2423 82.3919C74.2748 82.3923 74.3069 82.3993 74.3367 82.4123C74.3665 82.4254 74.3933 82.4444 74.4156 82.4681C74.4378 82.4919 74.4551 82.5198 74.4663 82.5504C74.4774 82.5809 74.4823 82.6134 74.4807 82.6459C74.4807 82.7827 74.3798 82.9679 74.2423 82.9679H39.1199C38.901 82.9679 38.7236 82.8593 38.7236 82.6459L38.8799 70.4307C38.8835 70.3685 38.9106 70.3101 38.9559 70.2673C39.0012 70.2245 39.0611 70.2007 39.1234 70.2007C39.1857 70.2007 39.2456 70.2245 39.2908 70.2673C39.3361 70.3101 39.3633 70.3685 39.3668 70.4307C39.3668 70.4307 39.4997 81.3369 39.4997 82.2552Z" fill="#191919"/>
<path d="M37.587 53.8723C41.1039 54.185 52.2875 53.6293 51.588 53.6293C51.6523 53.6246 51.7124 53.5955 51.7558 53.5478C51.7993 53.5002 51.8228 53.4377 51.8215 53.3732C51.8202 53.3087 51.7942 53.2472 51.7488 53.2014C51.7035 53.1555 51.6423 53.1288 51.5778 53.1268C51.5778 53.1268 50.1625 53.076 48.2173 53.0713C47.8578 53.0713 40.345 53.1549 38.9297 53.2635C38.0927 53.33 37.58 53.3909 37.58 53.3909C37.5161 53.3919 37.4553 53.4181 37.4108 53.4639C37.3663 53.5097 37.3419 53.5713 37.3428 53.6352C37.3437 53.699 37.37 53.7598 37.4158 53.8043C37.4616 53.8488 37.5232 53.8733 37.587 53.8723Z" fill="#191919"/>
<path d="M38.8759 87.2265C38.5125 90.92 38.8611 106.569 38.8611 105.549C38.8611 105.616 38.8875 105.68 38.9345 105.727C38.9816 105.774 39.0454 105.8 39.1119 105.8C39.1785 105.8 39.2423 105.774 39.2893 105.727C39.3364 105.68 39.3628 105.616 39.3628 105.549C39.3628 105.549 39.4339 103.692 39.4847 101.156C39.4996 100.329 39.4746 89.3366 39.4589 88.9865C39.4089 87.8923 39.3628 87.2265 39.3628 87.2265C39.3603 87.1628 39.3339 87.1024 39.2888 87.0574C39.2438 87.0123 39.1834 86.9859 39.1197 86.9834C39.0876 86.9829 39.0558 86.9888 39.026 87.0008C38.9962 87.0129 38.9692 87.0307 38.9464 87.0534C38.9237 87.0761 38.9057 87.1031 38.8936 87.1328C38.8815 87.1625 38.8755 87.1944 38.8759 87.2265Z" fill="#191919"/>
<path d="M55.7756 88.7566C55.7763 88.7244 55.7706 88.6924 55.7586 88.6626C55.7467 88.6327 55.7288 88.6056 55.7061 88.5828C55.6834 88.56 55.6563 88.5421 55.6265 88.53C55.5967 88.518 55.5647 88.5121 55.5325 88.5127C50.8637 88.4346 52.1853 88.3666 41.0244 88.3604C40.9194 88.3606 40.8188 88.4024 40.7447 88.4767C40.6705 88.551 40.6289 88.6516 40.6289 88.7566V91.0441C40.6303 91.0932 40.6419 91.1414 40.663 91.1858C40.6841 91.2301 40.7142 91.2695 40.7515 91.3015C40.7887 91.3335 40.8322 91.3574 40.8792 91.3716C40.9262 91.3858 40.9756 91.3901 41.0244 91.3841H55.5325C55.614 91.3718 55.6884 91.3307 55.7423 91.2684C55.7962 91.2061 55.826 91.1265 55.8264 91.0441L55.7756 88.7566Z" fill="#38A1FF"/>
<path d="M53.1099 101.353C53.1083 101.289 53.0814 101.227 53.035 101.181C52.9886 101.136 52.9263 101.111 52.8614 101.11C50.0057 101.036 49.2101 100.966 41.0268 100.958C40.922 100.958 40.8215 101 40.7474 101.074C40.6733 101.148 40.6316 101.249 40.6313 101.353V103.641C40.6324 103.69 40.6437 103.739 40.6645 103.784C40.6854 103.829 40.7154 103.869 40.7526 103.902C40.7898 103.935 40.8333 103.959 40.8805 103.974C40.9278 103.989 40.9776 103.994 41.0268 103.989H52.8614C52.9436 103.977 53.0184 103.934 53.0709 103.87C53.1234 103.806 53.1499 103.724 53.1451 103.641L53.1099 101.353Z" fill="#38A1FF"/>
<path d="M71.8066 94.8641C71.8066 94.7273 71.6956 94.5444 71.5635 94.5444H41.0201C40.8067 94.5444 40.6191 94.646 40.6191 94.8641V97.1516C40.6191 97.3704 40.8067 97.4845 41.0201 97.4845H71.5628C71.6948 97.4845 71.8261 97.304 71.8261 97.1516L71.8066 94.8641Z" fill="#38A1FF"/>
<path d="M114.248 81.121C114.237 81.0423 114.202 80.9689 114.147 80.9118C114.092 80.8547 114.02 80.8168 113.941 80.8037H81.877C81.659 80.8037 81.4761 80.9077 81.4761 81.121V114.712C81.4774 114.763 81.4888 114.814 81.5097 114.86C81.5305 114.907 81.5604 114.95 81.5977 114.985C81.6349 115.02 81.6787 115.048 81.7267 115.066C81.7746 115.085 81.8257 115.094 81.877 115.092H113.941C114.144 115.092 114.248 114.92 114.248 114.712V81.121ZM113.687 81.3641C112.262 81.3742 83.9519 81.511 82.2576 81.5063V114.33H113.561C113.576 112.358 113.672 82.5864 113.687 81.3641Z" fill="#191919"/>
<path d="M109.358 74.7675C109.358 74.7675 80.8959 74.6354 78.1613 74.6307C77.7959 74.6294 77.4338 74.7001 77.0958 74.8389C76.7577 74.9777 76.4504 75.1818 76.1913 75.4395C75.9322 75.6972 75.7265 76.0034 75.5859 76.3407C75.4454 76.678 75.3727 77.0397 75.3721 77.4051V119.955C75.3715 120.321 75.4432 120.684 75.5833 121.022C75.7233 121.361 75.9289 121.668 76.1881 121.926C76.4473 122.185 76.7551 122.39 77.0937 122.529C77.4324 122.668 77.7952 122.739 78.1613 122.737H117.647C118.382 122.731 119.086 122.436 119.605 121.915C120.125 121.395 120.418 120.691 120.422 119.955C120.221 74.0102 120.45 76.4892 120.188 75.7061C120.102 75.4194 119.944 75.1599 119.728 74.9529C119.512 74.7459 119.246 74.5985 118.956 74.5252C118.893 74.5104 118.826 74.5204 118.77 74.5532C118.714 74.5859 118.673 74.639 118.654 74.7013C118.636 74.7637 118.643 74.8307 118.672 74.8885C118.702 74.9463 118.753 74.9905 118.814 75.0121C120.071 75.3966 119.783 76.7799 119.783 78.0655C119.783 78.0655 119.681 116.47 119.666 119.955C119.668 120.22 119.617 120.483 119.516 120.728C119.415 120.973 119.266 121.195 119.078 121.382C118.89 121.569 118.666 121.716 118.421 121.816C118.175 121.915 117.912 121.965 117.647 121.961H78.1613C77.6299 121.958 77.1211 121.746 76.7451 121.371C76.3691 120.995 76.1563 120.487 76.1528 119.955V77.4051C76.1512 77.1407 76.202 76.8786 76.3022 76.6339C76.4025 76.3892 76.5503 76.1668 76.7371 75.9796C76.9239 75.7924 77.1459 75.644 77.3904 75.5432C77.6348 75.4423 77.8969 75.3909 78.1613 75.3919C80.8967 75.3865 109.358 75.2544 109.358 75.2544C109.422 75.2528 109.483 75.2267 109.529 75.1815C109.574 75.1363 109.6 75.0754 109.602 75.0113C109.601 74.9469 109.575 74.8854 109.53 74.8398C109.484 74.7943 109.423 74.7683 109.358 74.7675Z" fill="#191919"/>
<path d="M142.925 108.661C142.378 107.193 141.656 105.796 140.774 104.502C140.735 104.44 140.678 104.392 140.611 104.363C140.544 104.334 140.471 104.326 140.399 104.339C140.327 104.352 140.261 104.386 140.209 104.436C140.157 104.487 140.12 104.552 140.105 104.623C139.607 106.685 139.167 109.005 138.562 110.918C138.465 111.226 138.656 111.287 139.266 112.012C139.863 112.751 139.853 112.879 140.108 112.9C140.162 112.906 140.217 112.9 140.269 112.883C140.321 112.865 140.368 112.836 140.407 112.798C141.565 111.768 142.412 110.434 142.852 108.948C142.895 108.916 142.926 108.87 142.94 108.818C142.953 108.765 142.948 108.71 142.925 108.661Z" fill="#191919"/>
<path d="M142.84 81.5727C141.939 81.1514 141.175 80.4851 140.635 79.65C140.094 78.8148 139.8 77.8445 139.786 76.85C139.786 76.8073 139.777 76.765 139.759 76.7264C139.741 76.6877 139.714 76.6537 139.681 76.6268C139.648 76.5999 139.609 76.581 139.567 76.5713C139.526 76.5616 139.483 76.5615 139.441 76.571C137.951 76.9117 136.424 76.6491 134.942 77.2611C132.936 78.1028 130.592 79.3978 128.69 78.1989C128.533 78.0895 128.572 78.1012 126.046 78.7413C125.991 78.7558 125.939 78.7838 125.897 78.8227C125.854 78.8617 125.822 78.9105 125.803 78.9648C124.029 83.5492 123.253 88.7002 122.8 93.5988C122.473 97.3657 122.033 99.9659 126.376 103.146C128.004 104.343 129.887 105.291 131.494 106.402C131.546 106.439 131.605 106.463 131.668 106.471C131.73 106.479 131.794 106.471 131.853 106.449C131.912 106.426 131.964 106.389 132.005 106.341C132.046 106.293 132.074 106.236 132.088 106.174C131.634 110.539 131.243 114.698 130.681 118.769C130.673 118.842 130.686 118.916 130.717 118.982C130.749 119.048 130.797 119.105 130.858 119.145C132.431 120.073 133.608 120.597 135.135 121.392C135.182 121.418 135.234 121.433 135.288 121.436C135.341 121.44 135.395 121.43 135.445 121.41C135.495 121.389 135.539 121.358 135.575 121.318C135.611 121.278 135.637 121.23 135.652 121.179C138.365 112.81 142.507 91.6536 142.842 82.0182C142.889 82.0025 142.93 81.9725 142.958 81.9323C142.987 81.8922 143.003 81.844 143.002 81.7946C143.002 81.7452 142.986 81.6972 142.957 81.6574C142.928 81.6175 142.887 81.5879 142.84 81.5727ZM130.804 80.3114C130.861 79.8893 130.94 79.3282 131.251 79.3579C131.759 79.4063 131.329 81.0655 132.063 82.9795C132.439 84.0595 132.714 84.1713 132.458 84.3698C132.105 84.6269 131.514 83.5586 131.373 83.2639C130.975 82.3307 130.781 81.3233 130.804 80.309L130.804 80.3114ZM132.102 106.063C132.086 105.125 132.137 104.171 132.213 103.222C132.501 99.1421 132.81 98.8772 132.492 98.5865C131.689 97.8503 130.274 96.9891 129.926 95.9942C129.509 94.9079 129.903 93.5574 130.194 92.4328C130.826 90.0037 131.676 87.637 132.736 85.3616L134.161 85.4397C134.009 91.4684 132.8 99.0656 132.102 106.063ZM140.38 83.4351C140.234 83.7157 139.833 83.5133 139.396 83.3132C138.899 83.0695 138.459 82.7227 138.107 82.2959C137.754 81.8691 137.497 81.3722 137.351 80.8381C137.293 80.5669 137.287 79.8823 137.59 79.8589C137.787 79.8432 137.819 79.9581 138.082 80.6404C138.412 81.5733 139.058 82.3613 139.908 82.8677C140.249 83.1139 140.477 83.192 140.38 83.4351Z" fill="#191919"/>
<path d="M130.917 119.597C127.009 121.394 127.236 120.738 125.545 121.25C123.854 121.762 123.522 123.374 124.784 123.848C125.444 124.002 126.125 124.039 126.798 123.959C128.792 123.897 130.777 123.67 132.733 123.28C133.634 123.098 134.687 123.06 134.94 121.936C134.948 121.904 134.951 121.87 134.946 121.837C134.942 121.804 134.931 121.772 134.915 121.744C134.898 121.715 134.876 121.69 134.849 121.669C134.823 121.649 134.793 121.635 134.76 121.626C134.728 121.618 134.695 121.616 134.662 121.62C134.629 121.625 134.597 121.636 134.569 121.653C134.54 121.67 134.515 121.692 134.495 121.719C134.475 121.746 134.461 121.776 134.453 121.808C134.225 122.584 133.415 122.524 132.622 122.635C130.688 122.93 128.738 123.111 126.783 123.178C126.351 123.185 124.873 123.374 124.81 122.859C124.81 122.763 124.835 122.669 124.882 122.585C124.929 122.502 124.997 122.432 125.078 122.382C126.065 121.557 127.267 122.069 129.426 121.012C130.014 120.718 130.577 120.362 131.145 120.023C131.201 119.993 131.244 119.942 131.263 119.882C131.282 119.821 131.276 119.755 131.247 119.698C131.216 119.642 131.164 119.6 131.102 119.581C131.041 119.562 130.975 119.568 130.917 119.597Z" fill="#191919"/>
<path d="M140.934 112.726C141.034 113.092 141.092 113.468 141.106 113.847C140.704 115.292 140.033 116.649 139.128 117.844C138.616 118.488 137.068 118.585 137.189 119.61C137.24 120.22 137.843 120.416 138.453 120.441C139.314 120.462 140.174 120.404 141.024 120.269C142.97 119.995 143.571 117.657 144.657 116.191C145.265 115.331 145.885 114.525 145.681 113.482C145.42 112.153 144.22 111.28 143.236 110.468C142.998 110.254 142.646 110.639 142.906 110.849C143.713 111.582 144.86 112.524 145.016 113.598C145.133 114.391 144.538 115.117 144.047 115.745C143.077 117.053 142.386 119.292 140.921 119.488C139.964 119.666 138.985 119.695 138.019 119.574C137.959 119.538 137.954 119.523 137.994 119.483C138.398 119.078 139.225 119 139.74 118.326C140.461 117.384 141.025 116.33 141.408 115.207C141.577 114.779 141.678 114.327 141.707 113.867C141.673 113.438 141.572 113.016 141.408 112.617C141.306 112.296 140.842 112.429 140.934 112.726Z" fill="#191919"/>
<path d="M33.011 47.765L78.0587 47.0155C78.1236 47.0108 78.1843 46.9814 78.2282 46.9333C78.272 46.8852 78.2958 46.8222 78.2944 46.7571C78.2931 46.692 78.2669 46.6299 78.2212 46.5836C78.1754 46.5373 78.1136 46.5104 78.0486 46.5083L32.9984 47.2844C32.9388 47.2916 32.884 47.3208 32.8448 47.3663C32.8055 47.4118 32.7847 47.4703 32.7862 47.5304C32.7878 47.5904 32.8117 47.6477 32.8532 47.6911C32.8948 47.7345 32.951 47.7608 33.011 47.765Z" fill="#191919"/>
<path d="M31.7229 62.7944C31.7229 62.7944 31.8495 48.0689 31.8651 46.2324C31.864 45.4578 32.1677 44.714 32.7105 44.1615C33.2533 43.609 33.9917 43.2923 34.7661 43.2798L76.1868 42.6155C76.5796 42.6082 76.9699 42.6793 77.3348 42.8248C77.6997 42.9702 78.0319 43.1869 78.312 43.4623C78.5922 43.7377 78.8145 44.0662 78.9661 44.4286C79.1177 44.791 79.1955 45.1799 79.1949 45.5728C79.2106 48.2299 79.327 71.9554 79.327 71.9554C79.327 72.0207 79.3529 72.0833 79.3991 72.1295C79.4453 72.1756 79.5079 72.2016 79.5732 72.2016C79.6385 72.2016 79.7011 72.1756 79.7473 72.1295C79.7934 72.0833 79.8194 72.0207 79.8194 71.9554C79.8194 71.9554 79.9358 48.2307 79.9514 45.5728C79.9518 45.079 79.8539 44.59 79.6634 44.1345C79.4729 43.6789 79.1936 43.2658 78.8418 42.9193C78.4901 42.5727 78.0728 42.2997 77.6144 42.116C77.1561 41.9324 76.6657 41.8418 76.172 41.8496L34.7513 42.5037C33.7742 42.5205 32.8429 42.921 32.1586 43.6187C31.4742 44.3163 31.0918 45.2551 31.0938 46.2324C31.0938 48.0689 31.236 62.7944 31.236 62.7944C31.236 62.859 31.2616 62.9209 31.3073 62.9665C31.353 63.0122 31.4149 63.0378 31.4794 63.0378C31.544 63.0378 31.6059 63.0122 31.6516 62.9665C31.6972 62.9209 31.7229 62.859 31.7229 62.7944Z" fill="#191919"/>
<path d="M29.7114 87.9893C29.7114 87.9893 29.5645 108.331 29.5645 111.755C29.5632 112.194 29.6488 112.63 29.8162 113.037C29.9836 113.444 30.2296 113.813 30.5401 114.125C30.8506 114.436 31.2194 114.684 31.6256 114.852C32.0318 115.021 32.4672 115.108 32.907 115.108C36.4684 115.103 71.9465 114.966 71.9465 114.966C72.0113 114.962 72.0723 114.934 72.1169 114.887C72.1615 114.84 72.1864 114.777 72.1864 114.712C72.1864 114.647 72.1615 114.585 72.1169 114.538C72.0723 114.491 72.0113 114.462 71.9465 114.459C71.9465 114.459 36.4653 114.322 32.907 114.316C32.2274 114.314 31.576 114.044 31.0945 113.564C30.613 113.085 30.3404 112.434 30.3358 111.755C30.3358 108.331 30.1983 87.9893 30.1983 87.9893C30.1948 87.9271 30.1676 87.8687 30.1223 87.8259C30.077 87.7831 30.0171 87.7593 29.9548 87.7593C29.8926 87.7593 29.8326 87.7831 29.7874 87.8259C29.7421 87.8687 29.7149 87.9271 29.7114 87.9893Z" fill="#191919"/>
</svg>
