<svg width="160" height="160" viewBox="0 0 160 160" fill="none" xmlns="http://www.w3.org/2000/svg">
<path d="M57.115 66.0198C51.6879 64.3966 51.8352 64.4699 53.3639 62.8065C54.9689 61.0605 51.7817 62.9459 44.5818 51.4768C40.8811 45.5819 36.785 32.6321 36.7661 23.7808C36.763 22.2813 37.8033 23.6217 41.3206 24.4911C43.2469 24.9676 42.3412 26.0521 43.7281 34.4553C44.3708 38.3498 46.5995 45.9363 48.8669 50.5199C50.9831 54.7995 52.1085 55.6217 55.547 59.9383C55.9368 60.4281 55.966 60.1832 57.0882 59.1058C57.5135 58.6971 57.9868 58.7601 58.1821 59.3153C60.874 66.9625 62.4105 67.6035 57.115 66.0198Z" fill="#38A1FF"/>
<path d="M120.582 24.099C120.383 36.1486 114.447 53.563 103.852 61.3417C103.058 61.9245 103.773 62.1316 104.682 63.2681C105.467 64.2494 103.596 64.6179 101.505 65.2425C97.6125 66.4041 96.328 66.9562 96.7848 65.2952C97.1376 64.0099 98.7363 59.9777 99.1152 59.0594C99.82 57.3504 100.735 59.8666 101.505 59.7343C101.718 59.6981 106.193 54.8074 108.408 50.26C113.616 39.576 114.053 30.794 114.723 25.17C114.824 24.3273 114.932 24.5668 119.388 22.9279C120.632 22.4703 120.604 22.8247 120.583 24.099H120.582Z" fill="#38A1FF"/>
<path d="M52.9225 53.2229C52.9304 52.8826 54.3007 48.2432 56.6122 42.5838C56.8524 41.9947 56.7366 42.1884 70.3755 46.8051C72.9264 47.6682 73.373 47.6454 73.1068 48.5637C72.8406 49.482 70.9095 55.191 70.5142 56.3377C69.4423 59.4501 69.4494 59.3627 68.8185 59.1689C66.8449 58.5617 67.171 58.7058 55.4498 54.6917C52.9209 53.8254 52.7926 53.7206 52.9225 53.2229ZM69.3368 57.0803C69.1808 56.4873 69.3265 57.0843 67.1095 51.339C66.904 50.8074 66.9465 50.939 63.7112 52.1699C62.5772 52.6015 62.2598 52.711 60.5193 49.4962C59.9703 48.4818 59.534 49.6663 54.3543 52.0471C54.003 52.2085 53.8762 52.4983 53.7392 52.8133C53.5037 53.3528 52.4594 52.7425 68.435 58.2506C68.9453 58.4263 68.7973 58.5286 69.3368 57.0803ZM57.9329 43.3351C57.777 43.643 58.1542 44.0841 59.4616 46.1112C62.8504 51.3642 62.6016 51.554 63.3104 51.2808C71.2159 48.2337 71.1725 48.4542 71.1741 48.0597C71.1741 47.9596 57.9503 43.3414 57.9329 43.3351ZM54.3354 51.3099C54.6512 51.2918 54.359 51.3564 59.5482 48.6046C60.0365 48.3455 59.8026 48.4692 57.0375 43.847C56.0113 46.3207 55.1663 48.796 54.3354 51.3099ZM69.6187 56.1431L72.1216 49.1024C70.5984 49.5371 69.2068 50.0734 67.8136 50.6113C67.4033 50.7696 67.5395 50.7019 69.6187 56.1431Z" fill="#38A1FF"/>
<path d="M85.2565 49.6961C85.7668 49.8962 85.9669 49.5481 86.2047 49.0472C88.109 45.0314 94.1401 47.4752 93.7889 50.7593C93.7038 51.5532 93.6652 52.2494 94.4622 52.8385C95.2592 53.4276 93.8338 56.7282 92.7619 60.1336C92.3421 61.467 91.9681 62.1246 90.3669 61.8647C87.7696 61.4425 85.2557 60.7306 82.8072 59.7792C80.9549 59.0594 81.3597 58.3884 82.1984 54.5191C82.2323 54.3632 82.1771 53.9749 82.5284 54.1198C83.3144 54.4435 82.9403 54.3632 82.4111 57.0464C82.1189 58.5294 82.1953 58.6585 83.6011 59.1468C85.87 59.9352 88.1555 60.6566 90.5371 61.0346C91.7531 61.2275 91.3435 61.226 93.1651 56.2092C93.4116 55.5296 93.5873 54.8389 93.7015 54.1254C93.7905 53.5701 93.64 53.2189 93.0651 53.0236C84.3004 50.0411 84.5847 50.1395 83.8696 51.6194C83.8066 51.7501 83.7909 52.006 83.5703 51.8493C83.3837 51.7162 83.0143 51.7154 83.0821 51.3406C83.2435 50.4404 84.1854 49.6977 85.2565 49.6961ZM89.5999 47.9958C87.7397 47.9895 86.252 49.8032 87.108 49.9993C91.6121 51.0318 92.6713 52.3116 92.6816 51.1232C92.6965 49.3504 91.3813 48.0021 89.5999 47.9958Z" fill="#38A1FF"/>
<path d="M75.5567 50.3654C75.5331 47.3246 80.0482 46.975 80.3656 49.9984C80.4947 51.2317 80.8649 50.7245 85.4563 53.3274C86.5305 53.9362 86.7526 53.822 85.2634 56.3603C85.1523 56.5501 84.9861 56.7438 84.727 56.6005C84.4821 56.465 84.5932 56.2524 84.679 56.0736C85.5831 54.2039 85.8469 54.1071 85.3264 53.8653C80.516 51.6294 80.4081 50.9537 80.112 51.5239C79.9529 51.8303 80.171 51.8578 80.3356 51.9429C84.501 54.0905 84.9326 54.0323 84.4049 54.8285C84.186 55.1585 83.8206 56.254 83.4339 56.0445C83.1763 55.9051 83.5142 55.1569 83.5788 55.0624C84.1427 54.2441 83.5496 54.3307 80.1616 52.4453C79.8072 52.2484 79.5205 52.2532 79.1677 52.4627C77.5366 53.429 75.5717 52.2776 75.5567 50.3654ZM77.9194 52.1114C80.3467 52.1311 80.3364 48.5863 77.8698 48.5816C75.5237 48.5769 75.4992 52.0909 77.9194 52.1114Z" fill="#38A1FF"/>
<path d="M87.8299 58.7182C85.4207 58.6828 87.2683 57.0848 86.6446 55.5759C86.3697 54.9119 86.8281 53.9299 87.4322 53.6125C89.2207 52.6713 90.9817 55.023 89.7176 56.2453C88.1473 57.7637 88.9868 58.8938 87.8299 58.7182ZM87.2242 57.5518C87.1195 58.0716 87.8314 58.4087 88.0685 57.7353C88.3056 57.062 88.3922 56.3303 89.0522 55.8224C89.4483 55.5176 89.3601 54.9812 89.0459 54.5709C88.3197 53.6235 86.8399 54.5268 87.3416 55.5278C87.6432 56.1303 87.4219 56.5713 87.2242 57.5518Z" fill="#38A1FF"/>
<path d="M78.9789 50.3317C79.008 51.6312 77.0045 51.7099 76.9879 50.4105C76.9698 49.0283 78.9497 49.0141 78.9789 50.3317ZM77.9401 49.8403C77.2021 49.9513 77.3454 50.8373 77.9305 50.8728C78.4842 50.9066 78.7371 50.0112 77.9401 49.8403Z" fill="#38A1FF"/>
<path d="M85.0728 37.4255C80.0742 37.4396 76.3798 32.8695 77.3925 28.0504C78.4187 23.166 83.7867 20.519 88.3018 22.6635C88.7735 22.8872 89.3264 23.0037 89.0586 23.4219C88.468 24.3434 87.8025 22.4863 84.5491 22.7549C79.0929 23.2046 76.3065 29.0876 79.2843 33.5192C81.7674 37.2136 86.9149 37.5869 89.9879 34.4611C92.3073 32.1016 92.5743 28.3906 90.629 25.5853C90.4589 25.3404 90.2155 25.1309 90.5274 24.8104C90.7416 24.5899 90.8669 24.5544 91.085 24.8246C95.2425 29.9555 91.1252 37.7696 85.0728 37.427V37.4255Z" fill="#38A1FF"/>
<path d="M80.1346 29.7887C80.1094 25.8659 84.3055 23.83 86.8666 25.1342C87.0635 25.2342 87.4707 25.1681 87.3273 25.5871C87.0414 26.4227 86.1838 24.9003 83.7621 25.6162C79.2651 26.9472 80.1968 33.6265 84.7898 33.8422C88.233 34.0037 90.3909 30.5849 88.6599 27.4796C88.4874 27.1701 88.3362 27.0378 88.6953 26.7676C89.3151 26.3014 90.9902 30.2573 88.9158 32.6719C85.6207 36.5065 80.1614 34.0423 80.1338 29.7879L80.1346 29.7887Z" fill="#38A1FF"/>
<path d="M91.0358 21.9019C90.5546 21.5956 90.2467 21.3034 90.5885 20.5568C92.4865 16.4143 92.4573 15.7244 93.5079 19.1865C93.6773 19.7456 93.8592 19.5928 95.7918 19.6291C96.4794 19.6417 96.5069 20.1252 96.1218 20.4119C93.2882 22.5186 92.5558 23.4093 92.0328 22.773C91.5272 22.1579 91.5335 22.5588 88.0628 26.7013C85.3362 29.9547 85.352 29.95 85.1283 29.7696C84.6936 29.4192 91.0279 22.4525 91.0358 21.9019ZM95.5745 20.2048C93.1811 19.7488 93.0929 20.6182 92.1943 21.7074C92.0446 21.8893 91.9415 22.065 92.1833 22.2697C92.6692 22.6824 92.4337 22.6383 95.5745 20.2048ZM92.4471 17.7791C90.7672 21.3207 90.6885 21.0664 91.2185 21.4767C91.513 21.7043 91.4965 21.479 92.8196 19.9646C93.1307 19.6086 93.0236 19.6228 92.4471 17.7791Z" fill="#38A1FF"/>
<path d="M85.3858 27.974C85.2976 28.3221 85.0716 28.4135 84.8046 28.4812C84.0123 28.682 83.5957 29.3585 83.7532 30.1626C84.0336 31.5944 86.5782 31.622 86.5215 29.7539C86.512 29.4546 86.3364 28.9892 86.768 28.9663C87.3736 28.934 87.1901 31.7881 85.1574 31.7637C82.1104 31.7267 82.8964 27.4109 85.3858 27.974Z" fill="#38A1FF"/>
<path d="M93.7874 70.2105C95.2775 70.3042 94.8231 70.1735 94.8065 76.8638C94.8049 77.6269 94.7372 77.4387 87.0152 85.8938C84.9558 88.1485 84.8171 88.5565 83.6075 88.5604C72.7494 88.5966 73.144 88.8392 72.0792 87.6618C63.0129 77.6356 62.6876 77.5946 62.6789 77.0331C62.5789 70.5925 62.3616 70.4452 63.0507 70.3145C64.5675 70.0278 95.2263 70.3003 93.7882 70.2097L93.7874 70.2105ZM63.257 71.4375C63.4295 76.9504 63.2798 76.8165 63.5823 77.1292C73.0983 86.9829 72.5895 87.6421 73.6346 87.6185C84.3029 87.3814 84.0146 87.9422 84.5809 87.3137C87.661 83.8902 90.7144 80.4409 93.9056 77.1166C94.0442 76.9717 94.1017 76.8473 94.1056 76.6527C94.2261 70.9815 94.4584 70.9965 93.8465 70.9981C60.9944 71.0745 63.2326 70.6586 63.257 71.4375Z" fill="#191919"/>
<path d="M62.2711 68.4889C62.2861 64.0297 62.1372 64.0841 63.5241 64.0683C68.6102 64.0124 69.2591 64.0242 91.191 64.0282C94.7759 64.0282 95.139 63.8171 95.1477 64.7543C95.1847 68.9929 95.5147 69.33 94.4467 69.3245C62.2546 69.1449 62.2664 69.9593 62.2711 68.4889ZM80.0297 64.7511C61.8293 64.6795 62.9697 64.3676 63.0146 65.104C63.2185 68.455 62.8941 68.4345 63.5706 68.4267H93.9458C94.5806 68.4251 94.268 68.3188 94.468 65.3331C94.5294 64.4188 95.2311 64.811 80.0297 64.7511Z" fill="#191919"/>
<path d="M90.2536 75.3418C90.2552 75.5576 90.1228 75.6576 90.0165 75.7765C81.2888 85.4784 81.2904 85.7312 80.9045 85.3248C80.5422 84.9428 80.9604 84.8428 87.5979 77.4202C88.8399 76.0309 90.1134 74.3125 90.2536 75.3418Z" fill="#191919"/>
<path d="M60.8525 28.6904C60.8123 25.2827 63.5388 22.4167 66.9663 22.4356C71.0986 22.4593 73.7684 25.9726 73.1793 29.6749C72.5815 33.4307 70.0692 33.3118 70.7237 34.4191C71.731 36.1218 71.7578 36.9149 72.7414 36.9283C73.2777 36.9353 73.4542 37.096 76.365 42.9531C76.6146 43.4555 76.9674 44.0438 76.4744 44.5762C75.8672 45.2315 75.1348 45.767 74.1811 45.6906C73.5865 45.6426 73.2903 45.0968 72.9989 44.655C72.0744 43.2523 71.1064 41.8757 70.3724 40.3565C69.2061 37.9411 70.4228 38.2789 70.0023 37.6796C68.539 35.5918 68.7123 34.7318 67.9767 34.8467C63.931 35.4799 60.702 32.2006 60.8517 28.6912L60.8525 28.6904ZM72.4429 28.7062C72.6107 25.8591 70.1173 23.298 67.1813 23.2145C64.1712 23.1295 61.5684 25.4228 61.4943 28.5707C61.4203 31.7186 63.957 34.1372 66.9938 34.1498C69.8621 34.1616 72.5288 31.8178 72.4437 28.7062H72.4429ZM73.1131 38.7136C72.9556 38.4207 72.7698 37.8631 72.3012 38.1466C71.5672 38.59 74.9678 44.1155 75.479 43.865C75.9901 43.6146 75.0757 42.36 73.1131 38.7136ZM69.7684 34.2899C68.3784 34.3514 69.2959 35.1728 70.3205 37.2094C70.6245 37.8135 70.9119 37.2827 71.1884 37.2141C71.5554 37.1228 71.4136 36.8723 71.2931 36.6534C69.9361 34.1836 70.0141 34.175 69.7692 34.2907L69.7684 34.2899Z" fill="#38A1FF"/>
<path d="M62.9073 28.7371C62.8774 23.4888 71.0467 22.9233 71.1979 28.7142C71.257 30.9721 69.3762 32.871 66.9702 32.8403C64.7446 32.812 62.9199 30.9611 62.9073 28.7371ZM66.975 32.0142C71.4373 32.0693 71.6215 25.3971 67.038 25.2648C62.6591 25.138 62.6443 31.9606 66.975 32.0142Z" fill="#38A1FF"/>
<path d="M103.645 41.4682C102.102 41.4391 102.498 41.061 101.337 42.1557C101.054 42.4227 101.315 42.8094 101.363 43.1236C101.554 44.3428 101.573 44.3388 100.373 44.6554C99.063 45.0012 98.896 45.3123 98.5463 44.5987C97.8273 43.1331 98.0549 43.1804 97.5335 42.911C96.5562 42.4054 96.3191 43.111 95.5993 43.8002C95.0811 44.2963 94.774 43.7521 93.2752 42.5283C92.9374 42.2526 92.9657 41.9447 93.1689 41.6249C94.1636 40.0593 94.3132 40.8035 94.0817 39.0354C94.0463 38.7645 93.8383 38.77 93.6407 38.7275C91.3567 38.2282 92.3743 38.0849 92.7869 35.8868C92.9319 35.1134 93.6407 35.3182 94.4408 35.4276C95.3426 35.5513 95.8687 35.0252 95.7324 34.1345C95.4835 32.5098 95.76 32.1554 97.4698 31.901C98.6952 31.719 98.6905 31.7206 98.9787 32.9153C99.1394 33.5808 98.6511 33.8045 100.777 34.3629C101.019 34.4267 101.186 34.1502 101.362 33.9896C102.609 32.8508 102.341 33.0729 104.25 34.8913C104.733 35.352 104.241 35.5481 103.288 36.8366C102.81 37.4824 103.032 38.0345 103.817 38.1912C104.708 38.37 105.089 38.9157 104.959 39.8277C104.724 41.4674 104.96 41.4926 103.646 41.4674L103.645 41.4682ZM94.6653 38.4629C94.8433 43.6679 102.419 43.5796 102.47 38.5999C102.527 33.0681 94.4928 33.4383 94.6653 38.4629ZM102.88 36.4192C103.995 35.0354 103.894 35.3221 103.367 34.8236C102.442 33.9486 102.448 33.9652 101.702 34.6275C101.493 34.8141 101.48 34.9079 101.685 35.0788C102.541 35.7939 102.556 36.4302 102.879 36.4184L102.88 36.4192ZM94.6684 40.824C93.9376 41.7903 93.6761 41.9659 94.0778 42.2668C94.844 42.8409 95.0244 43.3166 95.3504 42.9354C96.2947 41.8328 96.0372 42.6362 94.6684 40.824ZM96.4081 33.395C96.3853 34.733 96.9476 34.0022 98.0415 33.9266C98.67 33.8833 98.2479 33.5194 98.1786 32.8925C98.1384 32.5239 97.921 32.5271 96.7129 32.8972C96.4727 32.9713 96.3719 33.1595 96.4081 33.395ZM104.335 39.6017C104.301 39.4166 104.399 39.2347 104.182 39.1087C103.657 38.8031 103.192 38.9764 103.031 39.5434C102.782 40.416 102.457 40.7405 102.875 40.7807C104.564 40.9437 104.055 41.1351 104.334 39.6017H104.335ZM100.811 43.5316C100.818 42.2944 99.7742 42.974 99.2008 42.9567C98.4731 42.9354 98.6873 43.3174 98.9771 43.9388C99.074 44.1467 99.1929 44.3735 99.467 44.2239C99.7828 44.0514 100.86 43.9821 100.811 43.5316ZM93.9864 36.1302C93.2201 35.8947 93.3666 36.6295 93.1327 37.2351C92.9216 37.7824 93.3225 37.8628 93.6816 37.9746C94.1652 38.1258 94.0565 37.7171 94.1345 37.4879C94.4928 36.4373 94.8692 36.0175 93.9864 36.1302Z" fill="#38A1FF"/>
<path d="M103.568 28.2671C102.011 28.3734 100.593 29.3059 99.7984 31.1417C99.7315 31.296 99.7567 31.6055 99.433 31.4827C99.2267 31.4039 98.9337 31.2527 99.0865 31.0204C99.6866 30.1076 99.0605 29.4468 98.6872 28.7286C97.9477 27.3047 98.2981 27.7 100.504 25.8784C101.192 25.3114 101.605 26.069 102.304 27.1716C102.49 27.4653 102.689 27.5559 102.863 27.5685C102.942 27.574 104.145 27.548 104.483 27.3622C105.485 26.8125 105.234 25.1137 106.36 25.5744C109.131 26.7085 109.186 26.0076 108.366 28.8341C108.1 29.7524 108.64 30.3502 109.555 30.1415C110.983 29.8154 110.956 29.8257 111.487 31.237C111.658 31.6914 111.681 32.1678 111.861 32.6175C112.019 33.0168 111.88 33.3547 111.416 33.5067C110.942 33.6626 110.486 33.88 110.006 34.0123C109.199 34.236 108.258 35.3803 109.049 36.3395C109.238 36.5695 109.326 36.8955 109.542 37.0869C110.063 37.5492 109.827 37.8233 109.388 38.1383C107.61 39.411 107.529 40.0064 106.816 39.3464C105.335 37.9784 105.365 38.0021 105.159 37.9981C104.812 37.9902 104.806 37.7067 104.778 37.4815C104.741 37.1806 105.012 37.2224 105.194 37.1704C110.351 35.6843 109.48 28.1883 103.568 28.2663L103.568 28.2671ZM107.69 28.842C108.247 26.8952 108.346 26.9794 107.158 26.5825C105.922 26.1698 106.227 26.1076 105.681 27.2377C105.34 27.9434 105.996 27.4323 107.69 28.842ZM109.248 31.5472C109.578 32.475 109.148 33.717 109.789 33.2917C110.21 33.0129 111.012 33.2854 111.081 32.5923C111.124 32.1576 110.809 31.6937 110.68 31.2362C110.582 30.8865 110.336 30.8534 110.082 30.9692C109.786 31.1046 109.261 30.9306 109.248 31.5472ZM100.052 29.2862C100.365 29.0027 100.653 28.7546 100.926 28.4907C101.199 28.2269 101.764 28.1978 101.728 27.8127C101.698 27.5016 101.28 27.2377 101.065 26.9314C100.933 26.7416 100.82 26.788 100.662 26.8668C99.2566 27.5709 99.1408 28.0111 100.052 29.2862ZM107.891 36.4529C106.963 37.4815 106.032 37.3791 106.378 37.8721C107.042 38.8172 107.35 38.8542 108.192 38.0572C108.815 37.4689 108.947 37.5043 108.803 37.2838C108.517 36.8491 108.117 36.2017 107.89 36.4529H107.891Z" fill="#38A1FF"/>
<path d="M106.341 32.7864C106.321 33.9055 104.893 35.205 104.723 34.5742C104.668 34.3725 104.366 34.1724 104.666 33.9393C104.745 33.8779 104.843 33.8449 104.923 33.785C106.221 32.8179 105.266 31.1546 103.975 31.2837C103.371 31.3444 102.84 31.8555 102.759 32.4919C102.724 32.7675 102.658 32.9573 102.334 32.9416C101.672 32.9101 102.076 30.4718 104.385 30.5584C105.442 30.5978 106.363 31.5838 106.341 32.7864Z" fill="#38A1FF"/>
<path d="M100.499 38.4334C100.401 41.0969 96.7388 40.7039 96.8609 38.3436C96.9853 35.9281 100.589 36.0163 100.499 38.4334ZM99.8733 38.4302C99.8922 36.8149 97.4626 36.7653 97.461 38.3806C97.4594 39.9959 99.8552 39.9573 99.8733 38.4302Z" fill="#38A1FF"/>
<path d="M79.8113 7.69608C81.5218 7.69608 81.8817 7.53699 81.9243 8.31273C82.0621 10.803 82.3157 15.2251 82.5346 17.7099C82.6331 18.8322 82.307 18.4084 73.2627 19.0527C71.549 19.1747 72.1302 19.2811 71.3718 9.6587C71.2001 7.48422 70.9985 8.03394 79.812 7.71183L79.8113 7.69608ZM81.3509 11.8418C81.1722 8.41748 81.3525 8.46788 80.7327 8.49702C79.5277 8.55451 74.0361 8.75928 72.4405 8.79787C71.9184 8.81047 71.7931 8.87977 72.0617 11.1314C72.2145 12.412 72.1924 13.713 72.4515 15.0432C75.349 12.9853 75.4923 12.6301 76.7823 13.7241C77.4462 14.2872 77.1745 14.3265 78.5212 12.5884C79.4718 11.3614 79.8191 11.2645 81.3509 11.8426V11.8418ZM75.5356 18.0934C81.7408 17.6941 81.7297 17.9115 81.6896 17.2507C81.3856 12.2387 81.6817 12.9523 80.4476 12.3206C79.8246 12.0017 79.3813 12.6168 78.3251 14.0359C77.3746 15.3141 76.4602 16.6168 75.5356 18.0934ZM72.5382 16.6782C72.5382 18.4061 72.6602 18.3399 74.0778 18.1919C74.9166 18.1045 74.422 18.4738 76.6193 15.0952C76.6965 14.9763 76.7902 14.87 76.7611 14.7164C76.6713 14.2415 75.5561 13.7146 75.1474 13.995C72.6902 15.6827 72.3499 16.0403 72.5382 16.6782Z" fill="#38A1FF"/>
<path d="M75.7514 11.0296C75.7286 12.7063 73.2494 12.6189 73.2951 11.0005C73.3376 9.49155 75.7719 9.54589 75.7514 11.0296ZM75.0702 11.0493C74.9867 10.2617 73.9574 10.2799 73.9251 10.9705C73.8912 11.6904 74.8883 11.9203 75.0702 11.0493Z" fill="#38A1FF"/>
<path d="M47.7461 33.0061C47.8816 28.9077 50.6372 25.5621 54.3687 27.3806C58.5057 29.3968 57.3094 35.9516 54.8113 39.8169C52.9463 42.7025 48.7172 42.8057 47.7461 33.0061ZM54.6742 28.9636C52.0217 26.4481 47.5524 29.218 49.0668 35.2089C49.6339 37.4511 50.7388 41.2857 52.7723 40.1453C55.3153 38.7191 57.296 31.4499 54.6742 28.9636Z" fill="#38A1FF"/>
<path d="M50.5047 32.2507C50.5582 30.8591 52.3444 29.7321 53.684 30.8992C55.4718 32.4562 54.3779 35.304 52.294 35.0079C51.2521 34.8598 50.444 33.8061 50.5047 32.2507ZM51.36 32.4476C51.3418 34.3605 53.3588 34.5929 53.5824 33.0437C53.8534 31.1646 51.508 30.7023 51.36 32.4476Z" fill="#38A1FF"/>
<path d="M64.3438 12.2566C64.2903 12.5677 59.9193 23.5754 59.6185 24.3385C59.1105 25.6254 59.361 25.1481 50.9703 21.5781C50.4049 21.3371 50.3182 21.0339 50.5529 20.5086C52.2336 16.7457 53.8504 12.9536 55.6697 9.25448C56.0831 8.41495 56.2288 8.7536 62.2166 10.976C64.1312 11.6864 64.3942 11.6313 64.3438 12.2566ZM63.4657 12.4614C63.4767 12.1085 63.3783 12.3551 57.0219 9.92465C55.7917 9.45452 56.0855 10.3035 51.4381 20.3417C51.0774 21.1198 51.3121 20.8 58.2166 23.9085C59.1475 24.3275 58.7908 24.1708 63.4657 12.4614Z" fill="#38A1FF"/>
<path d="M61.3194 8.34989C61.1714 9.62728 61.2194 10.0423 60.7815 9.9423C60.435 9.86276 60.2846 9.80842 60.4255 8.92087C60.5547 8.10575 60.5531 8.14277 59.7057 8.05298C57.8565 7.85767 56.0097 7.63322 54.1653 7.39459C52.4712 7.17565 52.9044 6.96143 51.2119 15.9766C50.5677 19.4072 50.5244 20.0041 50.0715 19.9025C49.321 19.7332 52.2287 7.05436 52.2326 7.03625C52.331 6.49205 52.6287 6.35344 53.1139 6.41329C61.5305 7.4568 61.3777 7.09532 61.3194 8.34989Z" fill="#38A1FF"/>
<path d="M56.6927 10.978C62.4261 12.8217 62.3631 12.954 62.2457 13.2698C62.1252 13.5951 61.8157 13.4407 61.5661 13.3699C60.7155 13.1281 57.2432 11.9089 56.4737 11.4726C56.1996 11.3167 56.1689 10.9749 56.6927 10.978Z" fill="#38A1FF"/>
<path d="M56.1918 12.5646C60.5029 14.1184 60.469 14.1184 60.358 14.4421C60.258 14.7351 60.028 14.6689 59.8122 14.5823C55.8201 12.9812 55.761 13.0505 55.8524 12.7402C55.8894 12.615 56.002 12.5614 56.1918 12.5646Z" fill="#38A1FF"/>
<path d="M99.2065 19.9796C98.5914 19.9717 98.808 20.1536 96.6446 14.1241C95.5459 11.0613 95.4885 12.5513 103.043 9.42155C103.951 9.04509 103.767 9.28766 105.891 14.5769C106.909 17.1105 107.121 17.1152 106.16 17.4649L99.2073 19.9788L99.2065 19.9796ZM103.476 10.5179C103.232 9.9012 103.232 10.2139 97.2912 12.33C96.4942 12.6135 96.7911 12.6569 99.0592 18.8313C99.2821 19.4385 99.1797 19.2322 105.631 16.8679C106.108 16.6931 105.941 16.7624 103.476 10.5179Z" fill="#38A1FF"/>
<path d="M100.011 13.4858C99.1995 13.5071 99.4043 13.7245 100.599 16.599C100.875 17.2637 101.518 16.3147 103.029 14.364C103.601 13.626 102.408 13.7103 100.011 13.4858ZM101.239 15.5973C100.849 16.1013 100.935 15.6296 100.471 14.6601C100.167 14.0253 100.593 14.1931 102.263 14.3592C101.87 14.831 101.542 15.2043 101.239 15.5973Z" fill="#38A1FF"/>
<path d="M43.8371 137.692C42.2959 137.678 42.37 138.777 42.2652 127.005C42.2172 121.637 42.3416 98.348 42.529 92.9832C42.5857 91.3569 43.0851 91.4845 53.3351 91.4514C114.616 91.2545 113.94 91.364 114.948 91.553C116.862 91.9129 116.4 92.3972 116.429 107.766C116.452 119.727 116.523 118.337 116.433 136.064C116.429 136.953 115.71 137.672 114.82 137.677C105.351 137.727 57.5919 137.815 43.838 137.692H43.8371ZM112.459 129.511C113.174 129.516 113.029 129.312 113.033 126.837C113.084 99.7853 113.489 99.9389 112.559 99.9483H46.7849C45.9446 99.9373 46.3267 100.064 46.2519 106.377C45.9778 129.416 45.5225 129.416 46.4999 129.41C66.926 129.292 52.1396 129.015 112.458 129.512L112.459 129.511ZM45.9014 130.477C45.836 134.342 45.6439 134.356 46.2574 134.341C64.1294 133.905 111.521 134.747 113.042 134.402C112.861 131.555 113.349 130.62 112.183 130.621C45.877 130.716 45.9179 129.476 45.9006 130.476L45.9014 130.477ZM112.637 98.9403C113.397 98.9403 112.961 98.5331 113.083 96.4728C113.131 95.6656 116.001 96.0279 69.0666 95.7869C46.2763 95.6703 46.2754 95.2687 46.2809 96.0074C46.3053 99.2474 46.0038 99.3553 46.8638 99.338C52.1176 99.2324 109.793 98.9387 112.638 98.9403H112.637Z" fill="#191919"/>
<path d="M115.762 139.211C116.365 139.203 116.644 139.511 119.42 143.359C125.766 152.157 127.325 153.391 124.534 153.336C116.711 153.18 37.4353 154.014 34.352 153.534C32.7706 153.287 33.9677 151.983 35.3372 150.055C42.278 140.282 42.0236 139.857 44.2689 139.815C56.1508 139.594 53.0391 139.983 115.763 139.211L115.762 139.211ZM40.3981 150.463C41.3857 150.48 56.3359 150.344 56.3563 150.344C57.4061 150.344 57.121 150.051 57.3439 148.66C57.5164 147.585 58.845 147.919 42.2843 147.919C41.8125 147.919 42.0606 147.754 40.3981 150.463ZM86.9828 146.537C100.003 146.38 99.0427 146.666 98.7056 145.737C98.5788 145.389 98.6284 144.916 97.9677 144.93C73.0454 145.408 73.2344 144.175 73.0761 146.089C73.0163 146.814 72.0421 146.718 86.9828 146.537ZM100.045 149.958C99.3671 147.83 99.475 147.715 98.8474 147.721H83.097C82.4433 147.721 82.8222 148.146 82.8584 149.607C82.8773 150.387 82.8505 149.958 100.045 149.958ZM71.19 150.167C72.5768 150.152 71.9082 149.669 72.1468 148.381C72.3004 147.552 72.669 147.803 60.3177 147.9C59.6979 147.904 58.9096 147.704 58.504 148.006C58.0559 148.339 58.2362 149.193 58.1323 149.817C58.0448 150.345 56.3721 150.328 71.19 150.166V150.167ZM100.398 147.642C101.058 149.857 100.942 150.001 101.583 149.982C115.206 149.579 113.4 150.819 112.267 148.025C111.977 147.31 112.278 147.643 100.398 147.643V147.642ZM63.2089 143.904C64.5501 143.9 64.5343 143.892 64.658 142.545C64.6997 142.094 64.6131 141.925 64.1075 141.93C53.2959 142.028 54.0795 141.347 53.5266 143.547C53.3258 144.345 52.9194 143.941 63.2089 143.904ZM81.5589 150.069C82.337 150.079 81.8582 149.673 81.8275 148.288C81.8101 147.525 81.8598 147.779 74.3433 147.804C73.4699 147.807 73.0384 148.233 73.047 149.083C73.0651 150.793 72.9454 149.965 81.5597 150.069L81.5589 150.069ZM103.634 143.666C102.868 141.839 102.959 141.759 102.47 141.764C92.4784 141.858 92.617 141.591 92.9218 142.289C93.3274 143.217 93.062 143.698 93.8015 143.684C95.0978 143.659 103.634 143.666 103.634 143.666ZM114.895 143.603C113.698 141.739 113.799 141.632 113.118 141.644C110.196 141.696 107.272 141.728 104.348 141.765C104.204 141.766 104.036 141.709 103.885 141.858C104.363 142.985 104.233 143.675 105.868 143.633C108.846 143.554 111.829 143.604 114.895 143.604L114.895 143.603ZM60.0445 146.688C61.1864 146.681 61.1746 146.668 61.2833 145.537C61.3463 144.883 61.8338 145.085 50.6347 145.149C49.3557 145.156 49.366 145.16 49.0966 146.413C48.9612 147.043 48.5406 146.763 60.0445 146.688ZM91.0269 143.664C91.4569 143.658 92.109 143.891 92.2587 143.59C92.4083 143.289 92.046 142.75 91.9476 142.306C91.7932 141.611 91.9295 141.894 83.8255 141.895C82.4118 141.895 82.426 141.882 82.6418 143.314C82.7387 143.958 82.6229 143.788 91.0277 143.663L91.0269 143.664ZM71.26 146.605C72.2122 146.6 72.1775 146.592 72.2453 145.634C72.2823 145.102 72.0941 145.024 71.6192 145.03C61.8968 145.135 62.2378 144.656 62.0126 146.143C61.8834 146.993 61.6322 146.649 71.26 146.605ZM44.2791 144.036C52.6099 144.036 52.5225 144.164 52.602 143.811C52.732 143.233 53.0092 142.692 53.0478 142.088H45.7007C45.3187 142.088 45.429 142.07 44.2791 144.036ZM71.6932 143.834C73.1155 143.848 73.0825 143.847 73.2557 142.454C73.3179 141.958 73.1384 141.949 72.758 141.951C65.1439 142 65.4085 141.483 65.3526 143.212C65.3171 144.302 65.2998 143.771 71.6932 143.834ZM77.8968 141.902C77.8968 141.999 74.682 141.768 74.3181 142.006C73.9188 142.269 74.2425 142.9 74.1102 143.355C73.9976 143.74 74.1669 143.819 74.5355 143.815C82.5221 143.75 81.9409 144.171 81.6991 142.817C81.4857 141.62 81.9196 141.902 77.8968 141.902ZM107.923 146.39C107.519 145.239 107.547 144.933 106.844 144.946C98.7631 145.09 99.2325 144.584 99.7003 145.765C99.8019 146.021 99.7389 146.405 100.246 146.4C102.784 146.377 105.323 146.39 107.923 146.39ZM113.041 147.54C114.517 150.453 113.212 149.853 119.222 149.853C117.641 147.619 117.681 147.533 117.327 147.535C115.932 147.542 114.537 147.54 113.042 147.54H113.041ZM116.75 146.367C116.046 145.283 115.99 144.879 115.053 144.9C107.906 145.061 108.432 144.552 108.715 145.702C108.956 146.677 108.931 146.367 116.75 146.367ZM42.6221 146.814C48.6517 146.814 48.1059 147.101 48.5902 145.55C48.7659 144.988 48.8092 145.152 44.0248 145.05C43.5396 145.039 43.7286 144.942 42.6221 146.814Z" fill="#191919"/>
<path d="M49.2421 106.349C49.4666 101.576 48.7168 102.483 51.7639 102.423C59.2622 102.276 97.5933 102.214 97.6146 102.214C98.7227 102.212 98.3344 102.083 98.3974 106.514C98.414 107.676 98.4187 107.245 80.4805 107.233C47.5237 107.211 49.1964 107.324 49.2421 106.349ZM96.8885 106.431C97.8194 106.445 97.465 106.157 97.5524 103.527C97.5768 102.792 97.2901 103.104 94.0013 103.125C91.6512 103.14 50.5455 103.218 50.4581 103.226C49.6784 103.294 50.1116 103.806 49.9848 105.42C49.8596 107.014 48.5065 105.702 96.8885 106.431Z" fill="#38A1FF"/>
<path d="M106.591 108.355C107.713 108.355 107.776 108.423 107.776 109.544V124.999C107.773 126.004 107.708 126.035 106.691 126.034C72.8787 125.986 77.5182 126.011 72.8094 125.934C71.5115 125.912 72.0911 125.978 72.0029 113.578C71.9919 111.998 72.162 110.419 72.0478 108.84C71.9911 108.049 70.1892 108.353 106.59 108.355H106.591ZM73.2764 109.277C72.9724 109.277 72.6724 109.18 72.6771 109.728C72.7149 114.658 72.7188 119.591 72.7078 124.521C72.7054 125.733 72.6952 125.189 106.351 125.207C106.795 125.207 106.944 125.103 106.937 124.644C106.854 119.755 106.989 114.865 106.856 109.974C106.847 109.616 106.85 109.3 105.821 109.303C103.448 109.312 96.3762 109.273 73.2764 109.277Z" fill="#38A1FF"/>
<path d="M61.1779 124.816C62.3797 125.072 62.0458 124.881 61.8095 114.769C61.7961 114.189 61.9402 113.616 61.8253 113.031C61.5874 111.825 65.5394 113.06 65.3976 111.82C65.3448 111.358 65.6244 110.845 64.8999 110.883C62.1552 111.028 53.1417 110.997 52.3265 110.957C52.0462 110.943 51.7178 110.894 51.7359 110.509C51.7713 109.782 52.0659 110.322 65.4189 110.123C66.6396 110.105 66.1797 110.083 66.2356 124.92C66.2403 126.09 66.2742 125.683 51.6059 125.688C50.2253 125.688 50.6837 125.746 50.7073 111.2C50.7073 110.984 50.6073 110.643 50.9696 110.633C51.3578 110.622 51.2807 110.978 51.298 111.219C51.4744 113.741 51.4429 123.306 51.4287 124.383C51.424 124.773 51.5595 124.948 51.9454 124.922C52.2856 124.9 52.525 124.842 52.5463 124.378C52.792 119.133 52.8148 119.129 53.4512 119.109C56.2328 119.021 56.2076 118.938 56.2116 119.648C56.2431 124.911 56.0525 124.889 56.8046 124.876C57.5874 124.863 57.3299 124.911 57.4331 115.525C57.4441 114.536 57.248 114.687 60.4644 114.722C61.7559 114.736 61.1763 114.674 61.1763 124.815L61.1779 124.816ZM65.3945 118.928C65.3945 112.996 65.6276 112.933 64.8408 112.989C62.816 113.13 62.2529 112.763 62.3884 113.567C62.5333 114.42 62.4868 124.248 62.4868 124.263C62.4844 125.185 62.9215 124.728 64.8369 124.861C65.6307 124.916 65.3937 124.815 65.3929 118.928H65.3945ZM60.7164 115.858C60.7376 115.048 60.3746 115.385 58.5679 115.301C57.7481 115.262 58.0702 115.267 57.8946 124.442C57.882 125.105 58.3183 124.764 60.054 124.866C60.9235 124.917 60.4762 124.848 60.7164 115.858ZM55.6642 123.774C55.6642 119.334 55.9635 119.534 53.893 119.733C53.4275 119.778 53.3842 119.658 53.2393 123.505C53.222 123.956 52.9062 124.537 53.2117 124.822C53.526 125.117 54.1285 124.917 54.6049 124.915C55.7343 124.911 55.7351 124.897 55.6642 123.774Z" fill="#38A1FF"/>
<path d="M50.368 96.6777C50.1719 97.4361 49.2496 97.3739 49.8269 98.0063C50.0435 98.2441 50.6287 98.4993 50.2057 98.9002C49.8513 99.2364 49.5631 98.7356 49.3457 98.5024C48.6479 97.7543 48.3164 99.3577 47.7871 98.8474C47.1626 98.2449 48.8503 98.137 48.1077 97.303C47.9076 97.0778 47.4461 96.7927 47.7714 96.4705C48.0872 96.1579 48.3802 96.591 48.6038 96.8068C49.2339 97.4156 49.2906 96.7147 49.8828 96.4304C50.1278 96.313 50.3018 96.4178 50.3672 96.6769L50.368 96.6777Z" fill="#191919"/>
<path d="M52.7514 98.5894C51.5772 98.561 51.5693 96.7725 52.8467 96.7725C54.0903 96.7725 54.158 98.6232 52.7514 98.5894Z" fill="#191919"/>
<path d="M78.7355 119.06C79.1915 119.01 79.0922 118.913 82.5362 121.596C83.197 122.112 82.941 121.959 88.2838 115.196C88.9863 114.307 89.0564 114.768 92.2452 119.77C92.4452 120.084 92.5602 120.15 92.8343 119.824C93.4132 119.135 94.0519 118.5 94.6331 117.814C95.2356 117.103 95.3561 117.326 99.2104 120.421C100.007 121.062 99.7396 120.872 104.926 114.73C105.193 114.414 105.502 114.022 105.846 114.323C106.238 114.666 105.834 115.005 104.704 116.365C99.8018 122.256 100.181 122.33 99.0796 121.462C95.297 118.482 95.3608 118.289 94.9386 118.786C92.4956 121.658 92.4358 121.812 91.805 120.825C88.6177 115.838 88.9012 115.85 88.4232 116.477C83.1678 123.379 83.4482 123.351 82.3464 122.556C78.9473 120.104 79.0497 119.847 78.2732 120.18C74.2149 121.921 74.0251 121.95 73.7542 121.953C73.2257 121.959 73.236 121.649 73.5707 121.398C73.8747 121.17 78.2133 119.234 78.737 119.058L78.7355 119.06Z" fill="#38A1FF"/>
</svg>
