<svg width="160" height="160" viewBox="0 0 160 160" fill="none" xmlns="http://www.w3.org/2000/svg">
<path fill-rule="evenodd" clip-rule="evenodd" d="M121.054 54.9799C121.075 54.1514 121.093 53.4274 121.074 52.6717C121.832 53.2871 122.568 53.9235 123.284 54.581C123.299 56.3666 123.309 58.4468 123.307 60.8702C123.306 61.7689 123.534 61.7637 125.522 61.7182C126.374 61.6986 127.548 61.6717 129.166 61.7052L129.175 61.7054C129.326 61.7086 129.453 61.7113 129.561 61.6926C130.33 62.7808 131.049 63.9084 131.717 65.0753C134.868 70.5805 136.353 76.2774 136.375 81.8703C136.074 82.1551 135.963 82.4732 136.108 82.6688C136.187 82.7751 136.271 82.8123 136.364 82.8061C136.354 83.2345 136.335 83.662 136.307 84.0881C135.288 81.5622 131.821 81.4699 130.834 83.7327C130.866 83.1949 130.882 82.6548 130.882 82.1124C130.882 73.9161 127.233 66.3204 121.05 60.1376C121.048 59.9533 121.044 59.7499 121.04 59.5253C121.032 59.0822 121.023 58.5564 121.018 57.9333C121.01 56.7497 121.033 55.8118 121.054 54.9799ZM121.662 103.452C122.341 105.511 123.025 107.537 123.596 109.213C118.848 113.659 112.911 117.419 106.014 120.162C105.99 118.195 105.956 116.28 105.908 114.194C112.139 111.451 117.513 107.782 121.662 103.452ZM48.48 112.308C42.0274 108.857 36.7152 104.347 33.0367 99.1346C32.4458 100.733 31.7349 102.731 30.8946 105.232C35.3573 110.539 41.3479 115.129 48.5604 118.554C48.5311 116.501 48.5033 114.38 48.48 112.308ZM131.114 86.9825C131.028 86.5596 130.861 86.1584 130.634 85.7968C130.681 85.4515 130.721 85.1046 130.755 84.757C130.778 84.7787 130.804 84.7989 130.836 84.8175C131.137 85.003 131.278 84.7694 131.416 84.5397C131.467 84.4551 131.518 84.3705 131.577 84.3077C133.624 82.1341 135.582 83.7047 135.613 85.7301C135.431 85.7805 135.274 85.8232 135.135 85.862L134.861 85.9365C133.963 86.184 133.763 86.2384 131.114 86.9825ZM106.766 44.3293C105.727 45.9146 105.212 47.852 105.509 49.8426C97.7827 46.5085 88.7641 44.5913 79.1378 44.5913C77.9109 44.5913 76.6938 44.6224 75.4881 44.6837C75.1991 44.5728 74.9338 44.4654 74.6908 44.3671C73.3637 43.8298 72.7057 43.5634 72.5209 44.498C72.4942 44.6334 72.4678 44.7686 72.4418 44.904C64.1191 45.6871 56.4115 47.9095 49.8103 51.2142C49.7051 51.1411 49.6122 51.0317 49.7328 50.9141C50.2226 50.4361 50.2047 49.8592 50.1869 49.2828C50.1825 49.1407 50.178 48.9984 50.1813 48.8577C50.2358 46.5562 48.3593 46.5991 46.5972 46.6395L46.5007 46.6417C54.5959 42.4652 63.9308 40.0316 73.4702 39.3413C73.4881 39.5175 73.5069 39.7005 73.5266 39.8909C73.8618 43.1377 75.8305 43.5839 79.03 44.266C81.8919 44.8766 83.3112 42.3078 84.7219 39.7532L84.7654 39.6744C84.8267 39.5638 84.8888 39.4557 84.9524 39.3499C92.5292 39.9096 99.9726 41.5694 106.766 44.3293ZM33.3287 64.6748C30.3533 64.6781 28.2834 64.6778 26.8456 64.6084C26.7542 64.7633 26.6637 64.919 26.5742 65.0753C23.1706 71.0176 21.708 77.1845 21.9313 83.2034C23.8378 83.7086 25.7115 84.3255 27.5514 85.0557C27.4468 84.085 27.3936 83.1026 27.3936 82.1124C27.3936 75.8222 29.5395 69.888 33.3287 64.6748Z" fill="#38A1FF"/>
<path d="M92.7741 26.6726C92.6212 34.8509 87.4336 34.847 84.7658 39.6745C83.3403 42.2546 81.9217 44.883 79.0304 44.266C75.8309 43.5839 73.8622 43.1377 73.527 39.891C72.7906 32.765 73.3268 35.9023 71.6871 31.5273C69.8333 26.5795 71.6095 19.7306 77.2526 17.072C84.6726 13.5769 92.9153 19.1129 92.7741 26.6726ZM72.2745 27.43C72.2435 30.7381 73.5255 31.9913 73.9748 33.8925C75.0837 38.578 74.1688 41.0612 75.8612 42.1328C76.2306 42.3672 76.371 42.3183 76.5107 41.9008C77.2991 39.5356 77.9292 37.1199 78.443 34.6809C78.5477 34.1851 78.4274 33.9841 77.9634 33.7994C76.4029 33.1786 75.8558 31.2448 76.804 29.8728C77.6499 28.6483 79.4029 28.4504 79.8654 30.5837C80.2371 32.2994 79.309 33.3338 80.2673 33.4285C80.7314 33.4742 81.2094 33.7839 81.4422 33.011C82.3974 29.8403 85.0979 29.5469 85.4463 31.8051C85.7303 33.6442 84.2691 35.1426 82.4316 34.8664C82.1375 34.8222 81.8775 34.7283 81.7355 35.1605C81.5989 35.5787 79.2927 42.7513 79.8801 43.0757C81.8123 44.1427 83.4699 37.8687 87.332 34.8509C95.4543 28.504 89.7973 15.9018 80.1432 17.7526C75.5392 18.6349 72.3196 22.5917 72.2738 27.4308L72.2745 27.43ZM78.2264 42.9981C79.0304 43.199 78.8566 40.4202 80.6072 35.2063C80.7003 34.9285 80.9168 34.5839 80.3597 34.5102C79.9887 34.4613 79.5681 34.123 79.4323 34.8811C78.0092 42.8064 76.0932 42.6116 78.2264 42.9981ZM78.876 31.6196C78.8915 27.7389 76.056 31.5102 78.1954 32.7176C78.9256 33.1297 78.7828 32.5322 78.876 31.6196ZM84.4724 32.2226C84.4771 31.3255 83.9424 30.9204 83.251 31.774C82.8778 32.2358 82.6628 32.7945 82.416 33.3198C81.9512 34.3092 84.4647 33.8459 84.4724 32.2226Z" fill="#191919"/>
<path d="M71.9956 48.4862C72.0235 47.1414 72.2618 45.8277 72.521 44.5131C72.8965 42.6127 75.2269 45.7602 81.1632 45.889C81.7196 45.9014 81.8632 46.1373 81.7662 46.6619C81.4705 48.2565 80.925 49.7666 80.2359 51.2224C79.4397 52.904 71.9258 51.8866 71.9956 48.4862ZM74.021 46.9715C73.8502 46.8799 73.574 46.8334 73.6811 46.554C73.917 45.9371 76.2954 47.8228 80.4059 47.6055C80.9165 47.5783 80.8544 47.2035 80.9312 46.8947C80.9933 46.6471 80.8381 46.6518 80.6526 46.6471C75.1136 46.5237 73.5088 44.1422 73.2473 45.0237C72.9361 46.0744 72.1974 49.0411 73.1697 49.6929C75.3991 51.1875 79.2031 51.6732 79.6477 50.6513C81.5342 46.3142 79.9674 50.1647 74.021 46.9715Z" fill="#191919"/>
<path d="M113.954 57.0211C111.62 57.0335 111.467 56.2715 111.001 57.1142C110.874 57.3439 110.043 58.7066 109.749 58.7687C108.651 58.9999 107.708 61.9378 105.111 64.9215C102.838 67.5335 98.8436 66.6605 105.868 57.3152C106.611 56.3266 105.467 56.5431 107.105 54.5635C107.399 54.2081 107.417 53.9893 107.12 53.5897C101.414 45.9073 111.348 36.0964 118.87 42.7521C124.472 47.7092 121.42 56.9808 113.954 57.0211ZM113.815 56.1706C117.711 56.1706 120.834 53.017 120.834 49.0749C120.834 45.0397 117.402 41.6083 113.351 41.592C109.409 41.5765 106.27 44.6991 106.27 48.6109C106.27 52.7229 109.703 56.1706 113.815 56.1706ZM102.869 64.6585C102.622 67.8897 108.308 59.0775 108.28 58.6911C108.246 58.2123 107.492 58.1184 107.121 57.7637C106.781 57.4386 106.626 57.562 106.425 57.9026C104.455 61.2534 103.426 62.6642 102.869 64.6585ZM110.584 56.4958C110.553 56.3413 110.46 56.2948 110.352 56.2482C108.281 55.3644 108.252 54.3944 107.847 54.9802C106.649 56.7169 106.765 56.7278 108.234 57.6396C109.656 58.5219 109.486 57.995 110.584 56.4958Z" fill="#191919"/>
<path d="M132.525 39.2288C132.584 37.8444 132.797 37.8576 133.402 37.8669C139.416 37.9585 139.59 37.5115 139.586 38.6243C139.54 53.4349 139.308 57.8876 139.308 60.8248C139.308 61.7366 139.169 61.4673 133.433 61.5356C132.882 61.5418 132.671 61.5433 132.602 60.3235C132.524 58.9399 132.463 40.6714 132.524 39.2288H132.525ZM133.34 60.0519C133.336 61.0413 133.541 60.5927 137.715 60.7014C138.906 60.7324 138.394 60.7324 138.674 43.9119C138.755 39.0115 139.168 38.684 138.148 38.7174C133.386 38.8749 133.309 38.3775 133.309 39.3824C133.309 39.4135 133.356 56.2945 133.34 60.0519Z" fill="#191919"/>
<path d="M129.167 61.7051C123.771 61.5934 123.307 62.1536 123.307 60.8701C123.323 43.7097 122.72 43.7617 124.173 43.7563C130.28 43.733 130.307 43.5553 130.28 44.3593C129.698 61.7493 130.604 61.7354 129.167 61.7051ZM124.05 60.2361C124.046 61.2876 124.561 60.4581 128.626 60.8546C129.709 60.9602 128.745 60.2695 129.523 45.0546C129.572 44.0962 129.229 44.5827 124.607 44.4516C123.571 44.4221 124.104 44.4361 124.05 60.2361Z" fill="#191919"/>
<path d="M121.019 57.9329C121.05 61.5816 121.236 61.8866 120.339 61.8749C114.65 61.8028 114.264 62.2459 114.325 61.0865C114.479 58.1804 113.985 57.5775 114.742 57.5775C115.113 57.5775 115.125 57.5464 115.067 60.5612C115.05 61.4272 115.764 60.5945 119.565 61.0563C120.308 61.1463 120.199 61.1183 120.215 55.3977C120.216 54.7016 120.756 54.0374 120.988 54.1297C121.22 54.1918 120.988 54.1142 121.019 57.9329Z" fill="#191919"/>
<path d="M113.908 54.9493C105.636 55.0269 105.435 42.8438 113.336 42.7359C116.768 42.6894 119.666 45.5031 119.689 48.8888C119.713 52.3055 117.216 54.9183 113.908 54.9493ZM118.994 49.0587C119.025 46.013 116.52 43.4786 113.413 43.4467C110.507 43.4165 108.14 45.7041 108.095 48.6257C108.048 51.656 110.662 54.3223 113.692 54.3456C116.629 54.3681 118.964 52.0277 118.994 49.0587Z" fill="#191919"/>
<path d="M115.086 52.602C115.056 53.1731 114.954 53.2104 114.665 53.2181C114.107 53.2336 114.263 53.2142 114.263 46.2768C114.263 45.5963 114.294 45.334 114.711 45.334C114.972 45.334 115.036 45.3231 115.046 46.1775C115.053 46.7424 115.115 52.0751 115.086 52.602Z" fill="#191919"/>
<path d="M131.748 107.591C131.179 107.798 131.367 106.788 125.812 97.9593C125.735 97.8359 125.611 97.7118 125.689 97.4185C129.074 100.634 132.572 107.291 131.749 107.591H131.748Z" fill="#191919"/>
<path d="M124.08 95.6862C128.559 109.516 128.332 109.57 129.104 109.322C129.12 109.322 146.65 103.707 147.594 103.462C148.32 103.275 148.615 104.065 147.857 104.313C144.238 105.499 146.29 104.837 129.475 110.048C128.083 110.48 128.037 110.28 127.729 109.383L123.106 95.7786C122.55 94.1086 122.55 94.0939 124.188 93.5057C129.183 91.7139 140.56 88.2646 140.591 88.2646C140.931 88.1715 141.413 87.8308 141.581 88.388C141.753 88.9591 141.72 88.8055 124.854 94.1234C123.138 94.6642 124.235 93.9682 128.193 97.6022C133.867 102.811 133.125 105.149 135.861 104.266C152.113 99.0199 152.553 99.7237 151.708 98.6692C150.138 96.7121 150.178 96.5825 150.471 96.3194C150.796 96.0269 150.903 96.4281 151.012 96.567C153.76 100.061 153.964 99.7214 150.007 100.788C148.801 101.113 149.82 101.468 150.486 105.132C150.795 106.833 150.038 108.056 148.353 108.564C128.157 114.642 125.889 115.846 124.885 112.923C124.003 110.357 118.818 95.3619 118.469 92.6249C118.185 90.3994 119.761 90.3342 123.091 89.2548C123.277 89.1942 123.529 89.084 123.555 89.4247C123.574 89.6715 123.709 89.9462 123.277 90.0432C117.359 91.3663 118.657 90.7276 125.379 111.687C126.295 114.546 127.729 113.761 134.006 111.826C151.74 106.359 150.433 108.267 148.399 101.623C148.275 101.221 148.012 101.422 147.811 101.484C135.006 105.441 136.663 104.879 134.995 105.41C133.602 105.854 133.526 104.467 128.548 99.2108C126.894 97.464 124.126 95.2532 124.019 95.3611C123.972 95.4387 124.05 95.5931 124.081 95.6855L124.08 95.6862Z" fill="#191919"/>
<path d="M150.408 93.2586C149.906 89.2156 144.824 88.6763 143.076 89.8605C140.896 91.3372 140.109 93.1833 140.854 95.1605C142.911 100.649 151.027 98.2529 150.408 93.2594V93.2586ZM149.126 95.6549C148.275 97.0928 146.466 97.8657 144.72 97.5413C139.773 96.6443 140.592 89.8574 145.632 89.966C148.786 90.0281 150.672 93.0886 149.126 95.6556L149.126 95.6549Z" fill="#191919"/>
<path d="M142.06 85.5917C142.743 86.3002 143.013 87.912 143.651 88.8113C144.102 89.4469 144.164 88.8307 144.15 88.7105C144.029 87.69 143.28 85.9751 142.544 85.0625C141.753 84.0816 141.876 85.4008 142.06 85.5917Z" fill="#191919"/>
<path d="M135.413 87.8634C134.518 87.3963 136.142 86.8112 135.475 84.8021C134.982 83.3176 133.345 82.4563 131.594 84.307C131.376 84.5375 131.265 85.0714 130.853 84.8169C130.462 84.5763 130.694 84.1045 130.837 83.7654C131.801 81.4816 135.357 81.5119 136.371 84.1829C137.03 85.9164 136.295 88.3236 135.413 87.8634Z" fill="#191919"/>
<path d="M125.225 89.7347C125.227 90.4455 125.071 91.6033 124.39 91.3736C123.51 91.0772 124.827 90.305 124.081 88.5909C123.266 86.7184 120.746 86.5981 119.953 88.7143C119.6 89.6579 119.83 90.0854 119.381 90.0435C118.64 89.9745 118.855 87.1328 121.005 86.3948C123.137 85.6638 125.218 87.3221 125.225 89.7339L125.225 89.7347Z" fill="#191919"/>
<path d="M131.208 87.6013C131.195 88.3594 130.557 89.8913 129.909 89.4722C129.599 89.272 129.719 89.0214 129.878 88.7614C131.551 86.0144 127.432 83.6026 125.626 85.9942C125.453 86.2239 125.364 86.7516 124.992 86.5351C124.513 86.2565 125.192 84.2071 127.543 84.0612C129.397 83.9463 131.239 85.638 131.207 87.6013H131.208Z" fill="#191919"/>
<path d="M126.15 97.7503C129.386 101.11 132.531 107.297 131.748 107.575C131.177 107.778 131.392 106.756 125.811 97.9435C125.532 97.5516 125.593 97.1714 126.15 97.7503Z" fill="#191919"/>
<path d="M141.24 84.6943C141.333 86.7041 139.553 86.9198 140.065 85.6681C140.666 84.1984 139.972 82.762 138.473 82.298C137.127 81.8813 136.569 83.2276 136.154 82.6689C135.811 82.2072 136.897 81.058 138.55 81.2931C140.05 81.5065 141.317 83.0554 141.24 84.6943Z" fill="#191919"/>
<path d="M126.106 89.3173C125.735 88.2658 126.262 88.3178 129.136 87.5395C129.306 87.4937 129.599 87.2306 129.646 87.6473C129.751 88.5599 129.925 88.2658 126.106 89.3173Z" fill="#191919"/>
<path d="M131.872 87.7404C131.702 87.0908 131.78 86.678 132.537 86.581C133.11 86.5073 133.664 86.2466 134.237 86.1325C134.406 86.0991 134.755 85.7934 134.809 86.2404C134.917 87.1234 134.84 86.9062 131.872 87.7404Z" fill="#191919"/>
<path d="M139.803 85.0808C139.85 85.4673 139.777 85.5984 137.902 86.0392C137.763 86.0718 137.46 86.317 137.422 85.9771C137.396 85.7295 137.205 85.3252 137.701 85.2042C139.445 84.7774 139.896 84.3692 139.803 85.0808Z" fill="#191919"/>
<path d="M146.852 92.1463C146.311 93.9551 146.175 93.4849 147.78 94.2795C148.027 94.4021 148.213 94.5736 148.058 94.8669C147.689 95.5638 146.725 94.2888 146.172 94.6039C145.612 94.9228 145.739 96.474 145.028 96.2117C144.147 95.8866 146.438 94.1127 143.884 93.4445C143.282 93.287 143.34 92.3853 144.255 92.7337C144.671 92.892 145.151 93.242 145.508 93.1357C146.032 92.9789 145.893 91.3905 146.62 91.5744C146.868 91.6364 146.806 91.8832 146.852 92.1463Z" fill="#191919"/>
<path d="M72.1038 135.727C48.1256 135.727 48.9 137.397 48.7906 131.816C48.699 127.162 48.2435 101.979 48.4965 97.8662C48.5927 96.3049 49.0839 96.1303 58.7621 96.3204C71.8105 96.5773 76.4168 96.1264 103.487 96.4438C104.987 96.4617 105.425 96.5517 105.466 97.9741C105.975 115.442 105.971 118.814 106.054 132.604C106.068 135.063 105.683 134.922 103.843 134.954C81.9357 135.331 83.6375 135.124 83.7756 135.866C84.675 140.673 84.2234 141.087 85.4145 141.029C87.5167 140.929 88.5356 142.436 88.3059 142.931C88.1189 143.332 88.3214 143.215 76.7575 143.41C67.219 143.57 67.3548 143.659 67.219 143.24C66.9334 142.361 68.6258 141.372 70.6667 141.308C71.6095 141.279 70.9748 141.246 72.1038 135.727ZM51.9287 103.246C50.8307 103.245 51.3017 103.231 51.5733 126.776C51.5881 128.075 51.5733 127.714 53.5831 127.658C63.647 127.371 94.5829 127.155 102.174 127.132C103.194 127.129 102.715 127.148 102.73 120.129C102.732 118.954 102.746 119.51 71.594 119.634C58.5697 119.686 54.3801 119.738 53.0322 119.637C52.1157 119.568 52.1856 119.163 53.0205 119.102C55.1995 118.942 64.3873 118.792 102.112 118.675C103.164 118.672 102.646 118.691 102.638 103.633C102.638 103.239 102.22 103.131 101.326 103.159C98.2992 103.256 88.9034 103.287 51.9295 103.246H51.9287ZM62.7663 130.626C49.0692 130.768 49.5906 130.348 49.6721 131.213C49.8941 133.579 49.4874 134.778 51.2489 134.939C51.8985 134.998 51.3894 134.929 103.967 133.934C105.497 133.905 104.972 133.022 105.065 130.471C105.096 129.62 108.126 130.155 62.7671 130.625L62.7663 130.626ZM94.1965 102.365C103.241 102.349 102.713 102.442 102.638 101.762C102.479 100.325 102.947 99.7853 102.112 99.7985C98.6344 99.8536 65.8431 99.741 62.3806 99.7364C50.8322 99.7209 51.1349 99.3352 51.2342 100.277C51.4515 102.335 50.9556 102.736 51.8682 102.72C51.9147 102.719 85.3687 102.379 94.1965 102.365ZM81.7355 136.439C81.6121 135.774 80.8222 135.99 80.7927 136.501C80.6336 139.206 83.6375 146.658 81.7355 136.439Z" fill="#191919"/>
<path d="M99.9628 106.261C99.9396 116.789 100.287 116.726 99.02 116.727C85.4152 116.743 85.4626 117.191 85.4463 116.016C85.3004 105.627 84.8123 105.469 86.0337 105.473C99.9939 105.52 99.9659 104.792 99.9628 106.261ZM86.6522 106.261C85.7862 106.258 86.1881 106.245 86.2192 115.444C86.2223 116.263 86.2037 115.931 98.6336 115.969C99.5151 115.972 99.1286 115.985 99.1434 106.663C99.1449 105.781 99.0363 106.292 86.6522 106.261Z" fill="#191919"/>
<path d="M55.6552 115.026C55.0212 115.01 55.0212 114.349 55.6242 114.315C58.8104 114.133 75.5673 113.897 80.886 113.897C81.3035 113.897 81.7473 113.852 81.783 114.268C81.8249 114.763 81.35 114.751 80.8402 114.763C59.0137 115.295 55.4085 115.011 55.656 115.027L55.6552 115.026Z" fill="#191919"/>
<path d="M75.8288 106.789C76.5125 106.84 76.5117 106.956 76.5249 107.203C76.5544 107.759 76.5559 107.743 66.7078 107.728C54.8187 107.711 54.7512 107.666 54.7729 107.187C54.7838 106.952 54.835 106.831 55.8469 106.77C57.097 106.694 74.803 106.713 75.8296 106.789L75.8288 106.789Z" fill="#191919"/>
<path d="M74.6717 109.223C75.3608 109.275 75.3569 109.393 75.3507 109.645C75.3337 110.389 75.2514 110.071 56.6446 110.047C56.2907 110.047 55.0041 110.015 55.0212 109.599C55.039 109.166 55.0677 109.212 60.7721 109.15C60.7721 109.15 73.6754 109.148 74.6717 109.223Z" fill="#191919"/>
<path d="M71.9563 125.118C71.0461 125.063 70.9638 124.858 71.0212 124.226C71.1795 122.495 70.3872 121.625 71.8097 121.582C80.8997 121.31 77.1896 121.492 81.0083 121.428C81.8899 121.413 81.5694 121.892 81.6423 124.396C81.6578 124.919 81.5694 125.063 80.5838 125.09C79.821 125.111 72.7137 125.165 71.9563 125.119V125.118ZM74.6855 122.247C71.3153 122.223 71.4395 121.999 71.5629 123.839C71.625 124.767 71.5318 124.459 79.1847 124.396C81.0091 124.381 80.9781 124.38 80.9625 122.556C80.9594 122.187 80.9827 122.088 80.1276 122.071C79.4757 122.058 76.2623 122.259 74.6855 122.247Z" fill="#191919"/>
<path d="M55.5963 112.39C54.648 112.321 54.818 111.819 55.4434 111.739C56.6811 111.581 61.1144 111.633 77.0673 111.594C77.7634 111.593 78.2259 111.625 78.2112 112.027C78.1941 112.507 77.7161 112.445 75.8925 112.445C66.5394 112.445 56.64 112.467 55.5963 112.391V112.39Z" fill="#191919"/>
<path d="M77.6845 131.569C79.0759 131.628 79.0146 133.711 77.5914 133.687C76.2156 133.664 76.1535 131.504 77.6845 131.569Z" fill="#191919"/>
<path d="M54.634 100.494C54.603 100.803 53.723 101.297 54.5564 101.963C54.634 102.025 54.3562 102.473 54.1079 102.179C53.3218 101.25 52.8376 102.877 52.3922 102.272C51.9724 101.702 53.3661 101.531 52.5932 100.959C52.1757 100.65 52.7282 100.08 53.0572 100.495C53.699 101.305 54.2942 99.6589 54.634 100.494Z" fill="#191919"/>
<path d="M56.9071 101.251C56.845 102.055 55.8657 102.085 55.7943 101.329C55.7268 100.616 56.7061 100.525 56.9071 101.251Z" fill="#191919"/>
<path d="M23.3278 112.754C19.648 112.491 10.7885 109.79 7.09474 108.456C5.51714 107.886 5.51714 107.621 5.65681 106.663C6.67104 99.7208 10.6442 90.1559 13.4796 83.7361C14.3325 81.8046 14.3457 81.7728 16.4168 82.0816C21.1783 82.7924 25.7536 84.1543 30.1294 86.1789C32.1695 87.1225 32.8198 87.1372 32.4023 88.1422C25.4494 104.871 24.8115 113.28 23.327 112.754L23.3278 112.754ZM15.3195 82.9313C14.84 82.7614 7.64802 100.429 6.64621 106.461C6.53602 107.125 6.44368 107.255 10.4494 108.533C14.3899 109.79 18.3545 110.918 22.4152 111.702C22.9569 111.807 23.1905 111.733 23.3426 111.146C29.5436 87.2653 32.9246 88.5814 30.2683 87.3064C25.1444 84.8465 18.1178 83.2557 15.3195 82.9313Z" fill="#191919"/>
<path d="M26.204 117.995C22.4939 117.701 13.5552 115.048 9.52239 113.496C8.16127 112.973 8.42511 112.831 8.81156 110.265C8.90468 109.647 9.8809 109.693 9.75441 110.513C9.4665 112.384 9.46184 112.395 11.2389 113.032C17.0247 115.108 25.4326 117.24 25.972 116.959C26.2661 116.806 26.2738 116.107 26.3894 115.645C31.2844 96.0265 35.0783 93.3974 33.7637 92.8263C31.6616 91.9129 31.4451 91.8369 31.7384 91.2495C32.0015 90.7241 32.017 91.0624 34.9231 92.3164C36.1755 92.8565 35.1505 92.3925 30.4549 106.602C26.8333 117.562 27.0847 118.259 26.2032 117.996L26.204 117.995Z" fill="#191919"/>
<path d="M17.3757 93.2897C18.5816 93.4131 25.346 95.0706 24.9976 96.1035C24.8618 96.5062 24.4567 96.3805 24.1626 96.3045C22.325 95.8311 17.4828 94.1891 17.2368 94.0936C17.004 94.0036 16.7363 93.8919 16.7883 93.5683C16.8434 93.2269 17.1437 93.2897 17.3757 93.2897Z" fill="#191919"/>
<path d="M26.6209 90.584C25.7549 90.5064 20.5767 88.7418 19.8961 88.5121C19.5252 88.3871 18.8742 88.3569 18.9991 87.8013C19.1209 87.2596 19.7107 87.5359 20.0506 87.6003C27.6072 89.0382 27.8734 90.584 26.6209 90.584Z" fill="#191919"/>
<path d="M22.1062 102.195C21.4878 102.132 21.8199 102.22 15.3039 100.077C14.8856 99.9395 14.4076 99.768 14.5154 99.3963C14.794 98.4379 21.6243 100.853 22.4461 101.406C22.9086 101.717 22.9257 102.226 22.1062 102.195Z" fill="#191919"/>
<path d="M12.3976 97.6798C14.5005 97.7837 14.2064 100.362 12.3976 100.324C10.5422 100.284 10.4498 97.5835 12.3976 97.6798Z" fill="#191919"/>
<path d="M14.6085 91.8355C16.7573 91.8432 16.526 94.5344 14.6706 94.4793C12.9083 94.4265 12.6763 91.8285 14.6085 91.8355Z" fill="#191919"/>
<path d="M16.8038 86.0847C18.8447 86.1158 18.7516 88.7045 16.8814 88.7285C15.1191 88.751 14.8095 86.0545 16.8038 86.0847Z" fill="#191919"/>
<path d="M37.3811 64.6739C24.6424 64.6514 23.6297 64.9059 23.6219 62.8495C23.6219 62.834 23.4985 48.7039 23.4985 48.6883C23.5063 47.328 23.715 47.1464 31.5844 47.0805C33.0068 47.0688 33.7983 47.0657 34.2748 45.596C34.8351 43.8655 34.7047 41.5748 35.4962 39.6751C36.4049 37.4938 39.1892 37.6358 40.4277 39.3966C41.2766 40.6032 41.4792 41.9473 41.6491 46.0135C41.6957 47.1263 42.4841 46.7095 46.2407 46.6475C48.0961 46.6164 50.2409 46.3999 50.1827 48.8583C50.1664 49.5691 50.3449 50.3187 49.7342 50.9147C49.5775 51.0675 49.7815 51.2072 49.9042 51.2701C50.4023 51.5269 50.3798 51.8885 50.3216 54.0373C50.289 55.2432 49.0513 55.1392 49.7652 55.5831C50.2425 55.8795 50.4163 56.3404 50.3372 56.8666C50.2006 57.7791 50.4745 58.7972 49.6263 59.5259C49.177 59.9116 50.244 59.8503 50.1983 61.4892C50.0888 65.4002 50.8633 64.6979 37.3819 64.6739H37.3811ZM47.4613 63.4214C48.7596 63.4183 49.1289 63.0194 49.1615 61.767C49.191 60.6542 49.1926 60.1056 47.5381 60.0202C44.9261 59.8852 44.1447 60.1746 44.1525 59.4328C44.1579 58.9385 44.3534 58.7771 48.1566 58.8609C48.8061 58.8748 49.0506 58.5668 49.115 57.9949C49.4106 55.3805 47.8943 56.0409 44.7554 55.8151C43.8747 55.7515 43.8281 54.7799 44.8175 54.7171C47.2603 54.5634 48.8511 55.119 49.1002 53.8053C49.8529 49.8314 44.0958 52.8624 44.0756 50.9915C44.0632 49.8322 49.0141 51.5797 49.1313 49.5691C49.2298 47.8689 48.6983 47.7168 43.9523 47.9147C42.0666 47.993 40.2616 48.2235 40.1336 46.2602C39.9093 42.828 40.0405 41.5453 39.4375 40.3394C38.9122 39.2879 37.2864 38.8394 36.7782 40.5093C36.0169 43.0127 36.2831 44.6679 35.5723 46.2292C34.4742 48.641 32.4497 48.5005 29.5117 48.3935C28.2282 48.3469 29.2075 48.5176 28.9553 61.8749C28.9266 63.3896 28.9709 63.3609 30.4856 63.4051C31.042 63.4214 31.2329 63.2973 31.243 62.709C31.2717 61.1322 31.43 52.6296 31.5518 51.0675C31.5829 50.6656 32.0741 50.543 32.1858 51.052C32.3356 51.7333 32.1858 62.879 32.1858 62.8945C32.1703 63.6527 32.1393 63.4587 47.4605 63.4199L47.4613 63.4214ZM27.7502 49.2447C27.7657 48.1933 27.3793 48.4439 25.617 48.4874C24.2722 48.5207 24.5818 48.9514 24.6587 52.708C24.8767 63.3911 24.4887 63.2662 25.787 63.298C27.5958 63.343 27.8356 63.4835 27.8278 62.7416C27.8278 62.7106 27.72 51.2538 27.7502 49.2447Z" fill="#191919"/>
</svg>
