<svg width="250" height="250" viewBox="0 0 250 250" fill="none" xmlns="http://www.w3.org/2000/svg">
<path d="M13.0168 145.782C13.3168 143.195 13.6043 140.62 13.9543 138.045C14.4793 134.232 15.3293 129.72 18.7043 131.795C22.5543 134.17 26.3043 136.67 29.9543 139.295C34.6418 142.62 37.3168 143.045 39.7543 146.545C41.7168 149.307 41.8043 173.132 47.5043 200.745C47.9418 202.845 48.7543 204.845 49.2918 206.92C50.5418 211.57 60.8793 220.17 73.2169 221.72C79.0793 222.445 91.1293 222.645 94.3044 222.607C96.8044 222.607 99.8544 222.257 99.9794 222.32C102.579 223.47 101.942 225.545 101.967 227.57C102.003 227.999 101.872 228.425 101.602 228.76C101.332 229.095 100.944 229.313 100.517 229.37C91.4669 231.632 92.3543 231.007 90.3668 231.12C74.7918 232.032 66.3544 231.12 52.8669 228.457C42.2418 226.382 20.2043 228.37 13.6668 191.257C11.2293 176.945 10.2918 169.232 13.0168 145.782Z" fill="#B1F1FF"/>
<path d="M29.1793 78.3196C30.1293 68.4696 34.5543 65.9196 34.9043 64.5696C37.8543 53.3196 47.4043 42.3696 66.1543 37.5821C75.8543 35.0821 75.3293 34.5321 75.4668 34.6071C76.7918 35.2321 77.1293 33.9946 77.6918 33.3571C78.876 31.9694 80.3881 30.8994 82.0908 30.2445C83.7936 29.5896 85.6329 29.3705 87.4418 29.6071C89.9418 29.8446 93.0418 32.1071 92.6668 35.1946C92.5668 36.0696 92.9418 36.2196 93.6168 36.4446C94.4624 36.6213 95.2623 36.9713 95.9658 37.4726C96.6693 37.9739 97.2613 38.6156 97.7043 39.3571C98.2717 40.7116 98.4632 42.194 98.2586 43.6482C98.054 45.1023 97.4609 46.4743 96.5418 47.6196C93.2418 51.2321 86.5418 53.5946 82.0668 53.2696C76.1668 52.8446 75.8168 52.1696 74.9418 52.8821C71.9773 55.4431 68.7849 57.7276 65.4043 59.7071C64.1543 60.4071 65.0668 60.5821 65.6543 66.6446C65.7486 67.9241 65.3755 69.1943 64.6043 70.2196C64.4108 70.4484 64.2877 70.7284 64.25 71.0257C64.2123 71.3229 64.2616 71.6248 64.3918 71.8946C66.3293 76.1446 64.8668 78.6571 62.0293 80.9821C59.5293 83.0696 57.8043 83.0071 58.8293 87.3571C59.1773 88.7907 59.7377 90.1643 60.4918 91.4321C60.9804 92.5931 61.3003 93.818 61.4418 95.0696C61.8354 96.4622 62.3979 97.8013 63.1168 99.0571C63.1709 99.185 63.2547 99.2982 63.3612 99.3873C63.4677 99.4765 63.5939 99.5389 63.7293 99.5696C64.9793 99.9071 64.4168 101.52 63.4293 101.695C62.1331 102.063 60.7487 101.966 59.5168 101.42C58.5293 100.895 57.9168 101.17 57.3918 102.132C57.0843 102.703 56.6457 103.193 56.112 103.562C55.5783 103.931 54.9647 104.167 54.3217 104.253C53.6786 104.338 53.0245 104.27 52.4131 104.053C51.8016 103.837 51.2503 103.478 50.8043 103.007C49.8491 102.059 48.6625 101.376 47.3624 101.028C46.0622 100.679 44.6934 100.676 43.3918 101.02C42 101.248 40.5865 101.315 39.1793 101.22C37.2918 101.22 36.1418 98.0821 36.0543 96.0946C35.8668 92.0696 33.9293 88.7821 31.8793 85.5196C31.2668 84.5696 30.7418 83.5696 30.1668 82.5946C29.3644 81.322 29.0164 79.8153 29.1793 78.3196ZM52.5543 65.0321C52.6543 65.9071 52.5543 66.4696 53.5418 66.6321C53.9043 66.6321 54.1043 66.4446 54.3043 66.1571C54.5043 65.8696 54.5043 64.9071 55.5543 65.4696C55.9168 65.6821 56.6168 65.2946 56.8918 66.0321C57.1668 66.7696 58.2793 66.5446 58.1418 65.5571C57.8543 63.9071 57.5793 62.2571 57.2668 60.5571C57.2559 60.3961 57.1865 60.2447 57.0718 60.1312C56.957 60.0177 56.8048 59.95 56.6437 59.9408C56.4825 59.9316 56.3236 59.9815 56.1967 60.0812C56.0697 60.1808 55.9836 60.3234 55.9543 60.4821C55.9268 60.7576 55.8723 61.0297 55.7918 61.2946C55.6168 61.6321 55.7918 62.1946 55.3543 62.2821C54.9168 62.3696 54.8293 61.7821 54.5293 61.4071C54.0418 60.8196 53.4043 61.2196 52.8543 61.2071C52.3043 61.1946 52.4793 61.7696 52.4293 62.1446C52.2418 63.0946 52.6543 63.9321 52.5543 65.0321ZM41.3043 64.6571C40.5918 64.8196 40.6168 64.8571 41.0418 65.4196C41.2418 65.6946 40.9543 65.7821 40.8543 65.9196C40.7543 66.0571 40.5793 66.2696 40.8543 66.4571C41.1293 66.6446 41.2168 66.3946 41.3793 66.2946C41.5418 66.1946 41.8168 65.5196 42.2668 65.7196C42.7168 65.9196 42.6793 66.4946 43.0668 66.5071C43.7043 66.5071 43.2168 65.8821 43.4543 65.6571C43.6918 65.4321 44.3168 65.7446 44.3543 65.3196C44.3543 64.6946 43.2793 65.2321 42.7168 64.6571C43.0918 63.9821 43.3793 63.6071 42.9668 63.4071C42.5543 63.2071 42.6418 63.6321 42.5418 63.7946C42.4418 63.9571 42.2043 64.0446 41.9668 63.7946C41.7293 63.5446 41.4793 62.6821 41.0793 62.9696C40.6793 63.2571 41.3043 63.8446 41.4293 64.3196C41.5418 64.4821 41.5418 64.6321 41.3543 64.6571H41.3043ZM50.5918 65.1821C50.4793 64.5446 50.3293 63.7196 50.1918 62.8821C50.1168 62.4821 49.9543 62.1696 49.5168 62.2946C49.3397 62.3282 49.1824 62.4288 49.0776 62.5755C48.9728 62.7222 48.9286 62.9037 48.9543 63.0821C49.0668 63.9196 49.2168 64.7446 49.3418 65.5821C49.3418 65.9821 49.5793 66.2571 50.0168 66.2196C50.4543 66.1821 50.6543 65.7821 50.6418 65.1821H50.5918Z" fill="#B1F1FF"/>
<path d="M241.204 164.107C241.204 166.457 239.954 167.857 238.704 169.395C236.592 171.809 234.21 173.974 231.604 175.845C231.115 176.306 230.481 176.582 229.81 176.625C229.139 176.669 228.474 176.477 227.929 176.082C222.129 172.47 217.504 166.37 212.129 161.007C207.129 156.082 205.967 154.37 207.604 151.52C209.742 147.77 212.879 145.057 216.017 142.295C216.876 141.606 217.843 141.066 218.879 140.695C219.287 140.522 219.739 140.48 220.172 140.577C220.604 140.673 220.996 140.902 221.292 141.232C224.242 144.07 227.279 146.832 230.042 149.845C236.054 156.445 241.629 160.207 241.204 164.107ZM237.117 160.27C236.917 159.27 220.567 143.382 220.079 142.857C220.022 142.764 219.942 142.687 219.847 142.634C219.752 142.581 219.645 142.553 219.536 142.553C219.426 142.553 219.319 142.581 219.224 142.634C219.129 142.687 219.049 142.764 218.992 142.857C217.004 145.557 214.479 147.795 212.304 150.357C211.929 150.795 211.967 151.032 212.304 151.382C214.379 153.295 217.229 158.257 220.954 161.507C222.792 163.095 224.629 164.695 226.417 166.357C228.204 168.02 228.917 168.132 230.879 166.52C233.126 164.611 235.213 162.521 237.117 160.27Z" fill="#B1F1FF"/>
<path d="M213.392 27.007C214.792 27.007 218.154 26.6945 217.604 28.3945C217.054 30.0945 218.854 32.357 216.217 32.7195C215.692 32.7945 215.179 32.9195 214.667 33.0445C214.154 33.1695 214.042 33.4195 214.404 33.9445C216.092 36.4445 215.942 36.232 212.967 38.232C212.542 38.5195 212.354 38.757 212.879 39.1945C213.039 39.299 213.171 39.4418 213.261 39.6098C213.352 39.7779 213.4 39.9659 213.4 40.157C213.4 40.348 213.352 40.5361 213.261 40.7041C213.171 40.8721 213.039 41.0149 212.879 41.1195C208.329 45.0945 208.067 47.157 206.854 46.5195C206.608 46.4057 206.409 46.2104 206.291 45.9666C206.172 45.7229 206.142 45.4457 206.204 45.182C206.709 42.8045 206.911 40.3726 206.804 37.9445C206.804 36.3945 209.704 36.1695 208.054 35.2945C206.167 34.307 206.304 32.157 206.404 29.332C206.382 29.0974 206.407 28.8608 206.478 28.636C206.549 28.4113 206.664 28.203 206.816 28.0236C206.969 27.8441 207.156 27.6971 207.367 27.5912C207.577 27.4853 207.807 27.4226 208.042 27.407C209.803 27.0621 211.599 26.9279 213.392 27.007Z" fill="#B1F1FF"/>
<path d="M177.979 19.4574C175.479 21.9574 166.854 31.4324 166.667 31.6199C166.517 31.7277 166.393 31.8672 166.304 32.0285C166.215 32.1898 166.162 32.3689 166.15 32.5529C166.138 32.7369 166.167 32.9212 166.235 33.0927C166.303 33.2642 166.407 33.4186 166.542 33.5449C167.317 34.6574 168.704 34.5074 173.367 36.2699C175.067 36.9074 176.792 37.3699 178.267 37.8324C179.642 37.8324 180.104 37.4699 180.067 36.0824C179.929 31.7949 180.392 27.5199 180.317 23.2449C180.292 22.7949 181.104 16.2324 177.979 19.4574ZM173.592 34.9074C173.436 34.9406 173.275 34.9407 173.119 34.9076C172.963 34.8746 172.816 34.8091 172.686 34.7155C172.557 34.6218 172.45 34.5021 172.37 34.3641C172.29 34.2261 172.24 34.0728 172.223 33.9143C172.207 33.7557 172.223 33.5954 172.273 33.4438C172.322 33.2922 172.402 33.1526 172.509 33.034C172.616 32.9155 172.746 32.8208 172.892 32.7559C173.037 32.691 173.195 32.6574 173.354 32.6574C173.642 32.6574 174.392 32.6574 174.704 33.8324C174.689 34.1188 174.565 34.3888 174.359 34.5881C174.153 34.7875 173.879 34.9015 173.592 34.9074ZM177.554 26.6699C177.229 27.4949 176.742 28.7449 175.954 30.8324C175.392 32.3449 172.817 31.9949 173.767 29.9449C174.404 28.5699 176.504 24.0824 176.817 23.6949C177.129 23.3074 177.279 23.0324 177.779 23.1949C178.867 23.5699 177.942 25.6699 177.554 26.6324V26.6699Z" fill="#B1F1FF"/>
<path d="M184.704 32.8197C184.379 23.6572 184.929 20.6197 183.879 16.7822C183.779 16.2092 183.537 15.6704 183.175 15.2149C182.813 14.7594 182.343 14.4017 181.807 14.1743C181.272 13.947 180.688 13.8572 180.109 13.9131C179.53 13.9691 178.974 14.169 178.492 14.4947C174.642 16.6947 168.204 23.4322 165.204 26.7072C163.925 28.1379 162.791 29.6912 161.817 31.3447C161.506 31.8767 161.412 32.5078 161.554 33.1072C161.725 33.9647 162.129 34.7584 162.722 35.4004C163.316 36.0424 164.075 36.5077 164.917 36.7447C170.021 38.7341 175.233 40.4326 180.529 41.8322C182.054 42.2197 183.879 41.4947 184.092 40.3447C184.563 37.8653 184.768 35.3427 184.704 32.8197ZM181.717 28.8322C181.429 36.3322 181.717 34.3697 181.367 37.1572C181.079 39.1322 179.817 39.7947 177.979 39.2822C173.617 38.0322 173.079 37.5072 169.742 36.4072C167.979 35.8322 164.567 34.7197 164.342 32.8822C164.154 31.2822 165.304 30.5572 176.704 18.5447C178.479 16.6697 181.792 16.8572 181.867 19.4072C181.954 22.4822 181.829 25.8572 181.717 28.8322Z" fill="#B1F1FF"/>
<path d="M94.1419 130.207C97.9794 132.557 101.717 134.845 105.392 137.145C105.673 137.384 106.036 137.504 106.405 137.481C106.773 137.458 107.118 137.292 107.367 137.02C108.379 136.107 109.529 135.32 110.629 134.52C111.017 134.232 111.529 133.582 111.879 134.182C112.123 134.444 112.258 134.788 112.258 135.145C112.258 135.502 112.123 135.846 111.879 136.107C107.617 139.857 107.529 138.17 110.729 140.795C111.029 141.045 111.317 141.357 111.029 141.795C110.978 141.89 110.907 141.973 110.822 142.039C110.737 142.105 110.639 142.152 110.534 142.178C110.429 142.204 110.32 142.208 110.214 142.189C110.108 142.171 110.007 142.13 109.917 142.07C109.079 141.607 108.242 141.157 107.417 140.62C107.333 140.534 107.232 140.467 107.12 140.425C107.008 140.383 106.888 140.366 106.768 140.375C106.649 140.385 106.533 140.421 106.429 140.48C106.325 140.54 106.235 140.622 106.167 140.72C95.9294 150.345 94.3544 149.47 95.8919 151.07C97.1419 152.432 98.4669 153.795 99.7294 155.182C100.129 155.62 100.904 156.12 100.292 156.745C99.6794 157.37 99.0419 156.807 98.5669 156.332C97.1419 154.907 95.7169 153.482 94.3169 152.032C93.8294 151.52 93.4919 151.457 92.9169 151.945C85.8544 157.882 85.2669 157.482 86.5669 158.445C87.943 159.496 89.2306 160.658 90.4169 161.92C90.8294 162.357 91.2669 162.857 90.7794 163.382C90.2919 163.907 89.6419 163.657 89.1044 163.207C87.6419 161.957 86.1669 160.782 84.7044 159.545C84.6387 159.466 84.5565 159.403 84.4636 159.359C84.3707 159.316 84.2694 159.293 84.1669 159.293C84.0643 159.293 83.963 159.316 83.8701 159.359C83.7773 159.403 83.6951 159.466 83.6294 159.545C80.5669 162.045 77.4669 164.545 74.3794 166.957C73.9919 167.27 73.9044 167.532 74.3044 167.882C76.4169 169.732 78.2419 171.845 80.2169 173.82C80.7044 174.307 80.9044 174.007 81.2044 173.682C87.0044 167.432 86.8919 167.495 87.5794 167.045C87.6776 166.953 87.7932 166.882 87.9194 166.836C88.0457 166.79 88.1799 166.77 88.314 166.777C88.4482 166.784 88.5796 166.818 88.7004 166.877C88.8211 166.936 88.9288 167.019 89.0169 167.12C89.4419 167.632 89.0919 168.057 88.7544 168.432C86.8169 170.532 84.9169 172.67 82.9169 174.682C82.1794 175.42 82.2419 175.832 82.9169 176.52C88.7669 182.332 88.5919 183.27 89.6294 182.17C90.2044 181.545 90.8794 180.92 91.4419 180.382C91.5939 180.195 91.7838 180.041 91.9991 179.931C92.2145 179.821 92.4505 179.758 92.6919 179.745C93.0044 179.745 93.3419 179.357 93.5544 179.745C93.7669 180.132 93.5544 180.52 93.2794 180.795C92.4294 181.695 91.5794 182.595 90.6794 183.432C90.1794 183.907 90.1169 184.245 90.6794 184.682C91.0703 185.074 91.4336 185.491 91.7669 185.932C92.6044 186.932 91.5044 187.87 90.5169 187.032C90.1135 186.687 89.7334 186.316 89.3794 185.92C88.8919 185.332 88.5294 185.32 87.9044 185.832C85.6794 187.67 83.3794 189.432 81.0919 191.207C80.6043 191.679 79.9576 191.951 79.2794 191.97C78.9669 191.97 78.7169 191.882 78.6419 191.545C78.5669 191.207 78.7419 191.095 78.9544 190.932C81.6419 188.92 84.0294 186.545 86.7669 184.607C87.3044 184.22 87.3544 183.932 86.8794 183.445C84.9794 181.495 83.0919 179.532 81.2169 177.557C80.8169 177.145 80.5544 177.095 80.1169 177.557C77.7169 180.007 75.296 182.437 72.8544 184.845C72.4419 185.257 72.4044 185.52 72.8544 185.97C74.1044 187.22 75.2294 188.57 76.3919 189.907C76.6669 190.22 77.3919 190.495 76.8044 191.07C76.6965 191.19 76.5645 191.286 76.417 191.352C76.2694 191.418 76.1097 191.452 75.9481 191.452C75.7865 191.452 75.6268 191.418 75.4793 191.352C75.3317 191.286 75.1997 191.19 75.0919 191.07C70.7419 186.857 71.6794 186.22 69.5669 188.282C62.8294 194.882 62.7169 194.532 62.8669 195.532C62.9544 196.17 62.5169 196.52 61.9544 196.32C61.3919 196.12 60.9419 196.432 60.6044 196.832C58.1044 199.757 55.3044 201.107 52.1169 202.607C51.5419 202.87 50.8669 202.882 50.6419 202.282C50.4169 201.682 50.8919 201.295 51.3544 201.032C52.7044 200.32 54.0419 199.607 55.4169 198.982C57.2919 198.12 58.3419 196.37 59.7919 195.045C60.1419 194.732 59.7919 194.357 59.5919 194.12C57.0919 191.545 55.0044 188.57 52.5419 185.932C52.1419 185.495 51.8419 185.482 51.4044 185.932C50.4169 186.832 49.3794 187.695 48.3419 188.545C47.9669 188.857 47.5294 189.182 47.0919 188.707C46.6544 188.232 46.8294 187.682 47.2044 187.295C48.1815 186.372 49.2125 185.508 50.2919 184.707C51.0419 184.12 50.9669 183.695 50.4044 183.045C48.5612 181.109 46.8884 179.018 45.4044 176.795C45.0544 176.245 44.1544 175.545 45.1044 174.907C46.0544 174.27 46.3544 175.357 46.6919 175.807C48.3294 177.895 50.0919 179.857 51.7794 181.895C52.3419 182.582 52.7294 182.732 53.4544 182.045C60.3419 175.545 61.2919 175.795 60.0919 174.545C58.0419 172.407 56.0169 170.232 54.0169 168.045C53.5294 167.507 53.2419 167.557 52.7669 168.045C50.7419 170.07 48.4919 171.795 46.3044 173.682C45.8544 174.057 45.4044 174.332 44.9044 173.857C44.4044 173.382 44.9044 172.932 45.1794 172.607C46.3237 171.359 47.5516 170.19 48.8544 169.107C51.9919 166.095 52.3294 166.17 51.7669 165.557C44.6044 157.632 44.9544 157.707 44.2669 157.57C43.8982 157.312 43.5937 156.972 43.3769 156.578C43.1602 156.184 43.037 155.745 43.0169 155.295C43.1419 154.87 43.5044 154.682 43.8169 154.995C44.4044 155.607 44.7044 155.182 45.0669 154.782C50.6919 148.395 52.2794 148.532 51.2294 147.645C48.1669 144.92 45.3794 141.92 42.4794 138.995C42.0794 138.582 41.8794 138.882 41.6169 139.12C40.4575 140.311 39.2034 141.406 37.8669 142.395C37.4669 142.607 37.0044 142.682 36.7169 142.257C36.5827 142.06 36.5323 141.818 36.5769 141.583C36.6214 141.349 36.7572 141.142 36.9544 141.007C38.0794 139.995 39.1794 138.945 40.3419 137.97C41.3044 137.157 40.7544 137.445 34.5544 130.757C34.0669 130.245 33.7294 130.232 33.3044 130.757C32.2669 131.782 29.4044 134.607 29.0169 135.02C28.9476 135.115 28.8602 135.195 28.7596 135.256C28.6591 135.317 28.5474 135.358 28.4311 135.375C28.3148 135.393 28.1962 135.387 28.0821 135.358C27.9681 135.329 27.8609 135.278 27.7669 135.207C27.2794 134.82 27.5419 134.395 27.8544 133.957C29.0361 132.413 30.3493 130.975 31.7794 129.657C32.5544 128.97 32.8044 128.407 31.9044 127.645C31.5669 127.357 30.8544 126.87 31.2919 126.395C31.7294 125.92 32.2544 126.62 32.7169 126.857C32.9026 126.966 33.0608 127.116 33.1794 127.295C33.9169 128.345 34.0794 127.482 42.3669 119.445C42.8544 118.982 42.8919 118.707 42.3669 118.195C41.5044 117.295 39.1294 114.657 38.3169 113.595C38.0544 113.27 37.8794 112.895 38.2419 112.545C38.6044 112.195 38.9419 112.395 39.2794 112.632C40.8153 113.883 42.2452 115.259 43.5544 116.745C44.7294 117.995 44.0419 117.457 53.6294 108.182C54.3294 107.495 54.2044 107.195 53.6294 106.545C52.2544 105.032 51.0044 103.407 49.7169 101.82C49.6368 101.748 49.5727 101.661 49.5288 101.563C49.4849 101.465 49.4622 101.359 49.4622 101.251C49.4622 101.144 49.4849 101.038 49.5288 100.94C49.5727 100.842 49.6368 100.754 49.7169 100.682C50.1669 100.282 50.5794 100.507 50.9669 100.895C52.2169 102.27 53.3794 103.67 54.5794 105.045C55.6044 106.232 55.6294 106.232 56.7419 105.045C59.1169 102.632 59.8669 101.295 60.8044 102.195C61.3544 102.732 61.0169 103.27 60.6294 103.695C59.6669 104.782 58.6919 105.845 57.6419 106.845C57.1169 107.357 57.0794 107.67 57.6419 108.182C59.906 110.45 61.9953 112.887 63.8919 115.47C64.4169 116.12 64.7544 116.145 65.3669 115.545C66.9419 114.02 68.5919 112.582 70.2044 111.095C70.7669 110.57 71.3169 110.382 71.9544 110.97C71.8419 111.395 71.4419 111.295 71.1919 111.445C70.4044 111.882 69.6294 112.32 69.9419 113.432C70.0419 113.82 69.7919 114.007 69.5419 114.22C68.5044 115.132 67.5169 116.095 66.4669 116.982C65.4169 117.87 66.3669 118.232 72.8919 125.732C73.1669 126.045 73.4169 126.145 73.7669 125.807C74.8794 124.732 76.0169 123.67 77.1794 122.557L75.0419 121.07C74.7419 120.857 74.2544 120.682 74.5294 120.195C74.8044 119.707 75.2544 119.857 75.6669 120.02C76.3794 120.32 77.1044 120.62 77.7919 120.982C77.9841 121.119 78.2216 121.175 78.4546 121.14C78.6876 121.105 78.898 120.981 79.0419 120.795C81.0919 118.857 83.1544 116.92 85.2919 115.02C86.5419 113.77 85.1669 114.495 76.0044 110.182C75.5419 109.957 75.0044 109.757 75.2169 109.145C75.4294 108.532 75.9794 108.77 76.4669 108.87C77.5876 109.206 78.6823 109.624 79.7419 110.12C82.0419 110.995 84.3669 111.832 86.6669 112.732C86.91 112.838 87.1802 112.863 87.4386 112.804C87.697 112.746 87.9301 112.607 88.1044 112.407C93.2294 107.407 94.3544 107.295 92.8419 106.882C90.7044 106.282 88.6044 105.557 86.4294 105.12C86.0294 105.045 85.6044 104.957 85.6794 104.432C85.7544 103.907 86.2044 103.957 86.6669 103.982C89.53 104.338 92.3489 104.988 95.0794 105.92C96.3294 106.232 96.4169 107.52 95.2919 108.657C94.1669 109.795 93.7044 110.12 89.6669 113.882C92.3169 114.895 100.917 118.17 102.667 118.882C103.028 118.986 103.354 119.185 103.611 119.459C103.867 119.733 104.045 120.071 104.125 120.438C104.204 120.805 104.183 121.186 104.062 121.542C103.942 121.898 103.728 122.214 103.442 122.457C100.154 125.845 96.3669 128.307 94.1419 130.207ZM104.867 139.207C104.867 138.67 104.967 139.407 93.3419 131.945C93.1432 131.771 92.8843 131.681 92.6203 131.695C92.3564 131.709 92.1084 131.826 91.9294 132.02C89.746 134.02 87.5419 136.003 85.3169 137.97C84.6919 138.507 84.7919 138.857 85.3169 139.407C94.0669 148.582 93.4544 148.77 94.4044 148.057C98.3044 145.12 104.142 139.97 104.867 139.207ZM82.6419 157.52C81.7669 156.62 76.3919 151.57 73.8919 149.52C73.4294 149.132 73.1794 149.057 72.6419 149.52C69.9544 152.02 67.2294 154.52 64.5169 156.932C64.4342 156.984 64.3661 157.056 64.3188 157.141C64.2716 157.227 64.2468 157.322 64.2468 157.42C64.2468 157.517 64.2716 157.613 64.3188 157.699C64.3661 157.784 64.4342 157.856 64.5169 157.907L72.0169 165.407C72.0707 165.488 72.142 165.555 72.2254 165.603C72.3089 165.652 72.4023 165.681 72.4986 165.688C72.5949 165.695 72.6916 165.68 72.7814 165.645C72.8712 165.609 72.9517 165.554 73.0169 165.482C83.2544 157.207 82.6419 157.907 82.6419 157.52ZM52.6419 129.082C51.9294 129.67 48.3919 132.907 43.9544 136.882C43.3044 137.47 43.8044 137.82 44.1919 138.132C46.2294 139.882 48.0169 141.882 49.9544 143.745C50.8294 144.57 51.7294 145.357 52.5794 146.245C52.9419 146.607 53.1669 146.595 53.5169 146.245C61.5044 138.07 61.8669 138.207 61.0169 137.495C57.3919 134.22 55.3919 131.632 52.6669 129.082H52.6419ZM64.3919 118.732C63.2294 119.595 62.2794 120.57 54.7419 127.145C54.2044 127.62 54.2669 127.92 54.7419 128.395C56.8044 130.57 58.8419 132.782 61.1169 134.757C61.7169 135.282 62.2669 136.207 62.9169 136.282C63.5669 136.357 64.0669 135.282 64.6294 134.72C71.9044 127.432 72.1294 128.032 71.3169 127.032C69.1794 124.357 65.6169 120.895 64.4169 118.732H64.3919ZM80.3544 122.332C84.2794 124.52 88.2044 126.407 91.8294 128.795C92.2544 129.07 92.4419 128.795 92.7294 128.632C97.0669 125.132 99.6419 123.457 102.417 120.432C94.1669 117.757 95.3169 117.932 88.9294 115.532C87.6544 115.032 88.3544 115.082 80.3794 122.332H80.3544ZM55.6544 108.907C55.0294 109.407 52.5919 111.895 46.1544 118.195C45.7294 118.607 45.7294 118.895 46.1544 119.332C53.1919 126.695 52.6669 126.682 53.3044 126.107C56.3544 123.382 59.4169 120.67 62.4919 117.97C62.9794 117.545 62.9919 117.257 62.5919 116.72C61.8294 115.845 56.5419 109.032 55.6544 108.907ZM73.2669 129.32C72.8044 129.32 73.2669 129.182 64.9419 137.345C64.4794 137.795 64.5669 138.032 64.9419 138.42C73.0794 145.707 72.8419 146.507 73.6919 145.77C76.1919 143.47 78.6919 141.182 81.1919 138.907C81.5919 138.557 81.6294 138.307 81.1919 137.882C75.9669 132.22 74.3794 130.37 73.2669 129.32ZM71.6044 147.495C71.4419 147.082 71.7544 147.495 64.3794 140.557C62.7669 139.057 63.1294 139.395 61.0544 141.445C58.9794 143.495 57.0169 145.495 54.9794 147.507C54.6294 147.857 54.4794 148.07 54.9794 148.507C62.8544 156.195 62.3544 156.32 63.0794 155.645C71.8294 147.407 71.5419 147.882 71.6044 147.495ZM92.3169 149.645C91.7294 149.007 87.1669 144.232 83.7544 140.607C83.3169 140.132 83.0294 140.032 82.5044 140.532C74.3044 148.032 74.3169 147.232 75.4419 148.182C78.3669 150.62 81.1044 153.27 83.9169 155.845C84.4169 156.307 84.7044 156.057 85.0669 155.757C92.9294 149.32 92.3044 149.907 92.3169 149.645ZM62.2169 177.032C61.8044 177.032 62.2169 176.895 54.3419 183.82C53.9294 184.182 53.9044 184.42 54.3419 184.82C55.7919 186.332 58.3919 189.57 61.2169 192.87C61.4669 193.157 61.6919 193.72 62.2794 193.132C70.1919 185.257 70.3544 185.745 69.6544 184.995C65.8669 180.97 63.1794 177.92 62.2169 177.032ZM51.2919 127.782C51.2919 127.27 51.2919 127.62 44.9169 120.67C44.4544 120.157 44.1669 120.157 43.6669 120.67C41.0544 123.245 38.5919 125.97 35.7794 128.345C34.5294 129.407 35.4294 129.07 41.6419 135.532C42.1669 136.082 42.4544 136.045 42.8919 135.595C47.3919 131.157 50.1169 129.132 51.2919 127.782ZM70.8044 167.157C70.7243 166.846 70.5273 166.577 70.2544 166.407C67.9544 164.37 65.8794 162.107 63.7544 159.895C61.8794 157.932 63.0794 158.882 55.2294 165.545C54.2294 166.407 55.2294 166.195 61.5794 173.295C62.1919 173.982 62.5294 173.995 63.1669 173.47C70.9169 167.12 70.7294 167.52 70.8044 167.157ZM79.4544 175.645C78.9294 174.982 80.0919 176.282 72.9294 169.045C72.6044 168.707 72.3669 168.757 72.0294 169.045C69.4377 171.103 66.8419 173.157 64.2419 175.207C63.8294 175.532 63.7669 175.807 64.1669 176.232C66.4044 178.632 68.6169 181.057 70.8044 183.482C71.2044 183.92 71.4419 183.97 71.8794 183.482C79.5169 175.657 79.4169 176.082 79.4544 175.645ZM61.0294 157.407C60.3794 156.62 61.9044 158.245 53.5294 149.795C53.2544 149.507 53.0669 149.482 52.7544 149.795C50.5169 151.845 48.3544 153.982 46.2169 156.132C45.9794 156.382 45.7794 156.557 46.1419 156.907C48.6419 159.232 50.8669 161.757 53.1169 164.282C53.4294 164.62 53.6294 164.632 53.9669 164.282C57.5919 160.707 60.2919 158.245 61.0294 157.407ZM79.1794 123.732C78.5544 124.082 79.5169 123.257 75.1294 127.407C74.8294 127.682 74.7419 127.957 75.1294 128.295L82.7919 136.67C83.4044 137.332 83.0044 137.132 90.0044 130.97C90.6044 130.432 90.5794 130.157 89.8669 129.72C81.7919 125.207 80.5169 124.332 79.1794 123.72V123.732Z" fill="#4CA8DF"/>
<path d="M121.429 137.032C121.704 137.032 121.817 136.87 121.979 136.745C122.417 136.432 122.692 135.607 123.229 135.807C124.06 136.196 124.84 136.683 125.554 137.257C125.817 137.445 125.554 137.632 125.429 137.782C124.692 138.707 124.004 139.245 124.354 139.682C124.704 140.12 125.354 139.17 125.779 138.882C126.204 138.595 126.204 137.857 126.742 138.057C127.473 138.397 128.165 138.816 128.804 139.307C129.104 139.52 128.804 139.645 127.417 141.42C127.279 141.607 127.129 141.882 127.417 142.082C127.704 142.282 127.892 142.082 128.067 141.92C130.079 139.745 129.629 139.72 131.142 140.67C132.654 141.62 132.617 141.532 131.704 142.932C131.542 143.182 131.092 143.482 131.579 143.807C132.067 144.132 132.242 143.72 132.479 143.47C133.729 142.22 133.729 142.22 134.979 143.107C136.229 143.995 136.229 143.895 135.317 145.045C135.272 145.098 135.235 145.157 135.204 145.22C135.017 145.607 134.229 145.907 134.629 146.295C135.029 146.682 135.442 145.995 135.792 145.707C136.024 145.542 136.224 145.334 136.379 145.095C136.767 144.395 137.217 144.47 137.817 144.857C139.354 145.832 139.367 145.807 138.279 147.282C138.067 147.57 138.067 147.57 137.967 148.282C138.596 148.062 139.121 147.617 139.442 147.032C140.254 145.782 140.829 147.032 141.454 147.27C142.079 147.507 141.779 148.12 141.454 148.52C140.592 149.77 139.967 150.082 140.329 150.407C140.692 150.732 140.942 150.007 142.154 148.695C142.367 148.47 142.579 148.007 143.004 148.345C143.429 148.682 144.417 148.87 144.529 149.52C144.642 150.17 142.879 151.232 143.279 151.67C143.679 152.107 143.879 151.532 144.117 151.32C144.314 151.171 144.48 150.984 144.604 150.77C145.029 149.982 145.454 149.857 146.242 150.432C147.492 151.32 147.492 151.257 146.767 152.595C146.661 152.734 146.59 152.896 146.562 153.068C146.534 153.241 146.548 153.417 146.604 153.582C147.967 152.895 147.917 151.195 148.992 152.145C149.215 152.316 149.459 152.458 149.717 152.57C151.367 153.432 149.042 153.995 149.617 154.607C149.967 154.982 150.292 154.607 150.454 154.307C151.117 153.27 151.704 153.87 152.454 154.307C153.204 154.745 153.592 155.395 153.954 154.882C154.317 154.37 153.317 154.057 152.904 153.707C151.867 152.832 151.829 152.87 152.767 151.857C154.017 150.532 154.017 150.532 155.554 151.495L157.279 152.532C157.492 152.67 157.692 152.707 157.829 152.532C157.967 152.357 157.729 152.145 157.592 152.045C156.767 151.432 155.967 150.795 155.092 150.245C154.504 149.87 154.617 149.632 155.004 149.207C156.629 147.432 156.617 147.432 158.754 148.645C159.259 149.076 159.873 149.358 160.529 149.457C159.629 147.345 156.504 147.632 158.029 145.92C159.817 143.97 159.179 143.982 161.504 145.382C163.179 146.382 163.679 147.107 164.004 146.632C164.329 146.157 163.904 146.02 163.667 145.832C158.942 142.082 163.567 146.207 144.604 133.27C136.167 127.507 130.729 124.707 119.392 117.145C118.792 116.757 119.104 116.57 119.392 116.32C121.892 114.32 121.992 114.27 124.754 115.97C131.004 119.72 137.342 123.395 143.504 127.395C158.179 137.02 161.442 136.782 167.342 142.682C167.972 143.334 168.427 144.133 168.666 145.007C168.904 145.882 168.917 146.802 168.704 147.682C168.628 148.139 168.418 148.563 168.099 148.899C167.781 149.236 167.369 149.469 166.917 149.57C165.854 149.857 165.229 150.82 164.417 151.507C162.292 153.32 160.067 154.995 157.817 156.645C156.079 157.895 154.692 159.595 153.004 160.945C152.678 161.347 152.208 161.605 151.693 161.663C151.179 161.722 150.662 161.576 150.254 161.257C145.254 158.757 142.392 155.407 137.404 152.92C135.413 151.779 133.523 150.47 131.754 149.007C122.792 142.257 119.042 140.807 115.217 138.32C115.007 138.183 114.831 137.999 114.705 137.781C114.579 137.564 114.506 137.321 114.492 137.07C114.129 134.932 115.267 133.457 116.529 131.995C116.867 131.607 117.067 131.607 117.492 131.87C119.417 133.12 119.242 132.932 117.654 135.182C117.517 135.37 117.429 135.582 117.654 135.757C117.879 135.932 118.067 135.757 118.217 135.67C118.676 135.27 119.094 134.826 119.467 134.345C119.904 133.657 120.329 133.607 120.892 134.145C120.925 134.152 120.959 134.152 120.992 134.145C122.242 135.045 122.242 135.045 121.579 136.445C121.495 136.514 121.435 136.609 121.408 136.714C121.381 136.82 121.389 136.931 121.429 137.032Z" fill="#4CA8DF"/>
<path d="M184.504 166.157C184.967 163.57 186.854 168.495 193.917 164.432C194.454 164.12 194.492 163.87 194.054 163.395C193.068 162.379 191.742 161.763 190.33 161.667C188.918 161.57 187.52 161.998 186.404 162.87C185.879 163.332 185.154 163.52 184.717 164.12C184.279 164.72 184.029 163.97 183.967 163.62C183.254 160.157 191.392 157.632 194.817 160.57C195.154 160.826 195.45 161.134 195.692 161.482C196.592 163.045 197.217 160.882 198.442 162.97C199.179 164.22 199.454 162.97 201.079 163.545C202.704 164.12 205.179 167.857 204.829 169.632C204.556 171.631 203.684 173.5 202.329 174.995C199.767 177.645 198.367 177.157 197.692 178.982C197.356 179.956 196.815 180.847 196.107 181.595C195.399 182.343 194.54 182.931 193.586 183.321C192.632 183.71 191.606 183.891 190.577 183.852C189.548 183.813 188.538 183.555 187.617 183.095C186.009 182.579 184.664 181.458 183.867 179.97C182.792 177.495 184.104 168.457 184.504 166.157ZM199.442 167.857C198.679 167.932 197.992 168.095 197.929 169.107C197.844 170.612 197.928 172.121 198.179 173.607C198.267 174.145 198.517 174.307 199.017 173.87C201.029 172.12 202.529 167.832 199.442 167.882V167.857Z" fill="#4CA8DF"/>
<path d="M82.0919 81.3322C82.1115 82.7068 81.7949 84.0654 81.1697 85.2897C80.5444 86.5141 79.6295 87.5671 78.5044 88.3572C77.3077 89.042 75.9453 89.3837 74.5669 89.3447C74.1859 89.3444 73.8149 89.2232 73.5071 88.9986C73.1994 88.7739 72.9709 88.4575 72.8544 88.0947C72.7294 87.8572 72.6544 87.4947 72.3294 87.4947C72.0044 87.4947 72.1294 87.8822 72.0294 88.0822C71.6419 88.8947 70.9419 88.7947 70.2919 88.6072C69.331 88.3478 68.4589 87.8313 67.7695 87.1133C67.0802 86.3953 66.5996 85.5029 66.3794 84.5322C64.9919 79.2322 68.0919 74.9072 73.7794 73.7947C74.844 73.6191 75.9344 73.6863 76.9693 73.9913C78.0043 74.2962 78.9569 74.831 79.7562 75.5558C80.5554 76.2805 81.1806 77.1764 81.5851 78.1767C81.9895 79.1769 82.1628 80.2556 82.0919 81.3322Z" fill="#4CA8DF"/>
<path d="M138.642 21.0698C137.129 21.3073 136.779 21.0698 136.342 19.7573C136.004 18.7573 135.692 17.7573 135.404 16.7323C135.328 16.5444 135.292 16.3425 135.299 16.1397C135.305 15.937 135.354 15.7379 135.443 15.5553C135.531 15.3727 135.657 15.2106 135.812 15.0796C135.966 14.9486 136.147 14.8516 136.342 14.7948C139.223 13.47 142.208 12.383 145.267 11.5448C146.729 11.1573 147.242 11.6823 146.892 13.1698C146.561 14.6317 146.071 16.0528 145.429 17.4073C144.929 18.4198 145.317 18.4948 146.192 18.4573C147.067 18.4198 148.304 18.4573 149.367 18.4573C151.167 18.4573 151.792 19.3323 151.317 21.0448C150.492 23.9698 149.367 26.3573 146.404 33.4198C145.754 34.9698 144.329 34.3448 144.242 32.9948C143.854 26.8573 144.242 25.9323 142.754 26.3448C141.434 26.5821 140.076 26.4832 138.804 26.0573C138.623 26.028 138.45 25.9588 138.298 25.8548C138.146 25.7508 138.019 25.6145 137.925 25.4557C137.832 25.2968 137.775 25.1194 137.759 24.936C137.742 24.7526 137.766 24.5678 137.829 24.3948C138.104 23.3573 138.354 22.2698 138.642 21.0698Z" fill="#4CA8DF"/>
<path d="M74.4793 22.1573C73.8543 23.5198 72.4793 23.0573 71.4168 23.4073C70.6668 23.6198 70.2668 23.0698 69.9918 22.4448C69.0418 20.1698 68.5668 17.7698 67.7918 15.4948C66.1658 11.3259 64.817 7.05411 63.7543 2.70732C63.0293 -0.455175 66.5918 1.83233 70.9543 0.0948252C71.6793 -0.192675 72.2043 0.194825 72.3543 0.969825C73.9418 7.83232 73.3793 10.8698 74.3793 17.7448C74.3918 17.7948 74.5168 22.0698 74.4793 22.1573Z" fill="#4CA8DF"/>
<path d="M79.5544 69.5073C79.5782 69.6132 79.5809 69.7227 79.5623 69.8297C79.5438 69.9366 79.5044 70.0388 79.4464 70.1305C79.3883 70.2222 79.3128 70.3016 79.2241 70.3641C79.1354 70.4266 79.0352 70.471 78.9294 70.4948C78.8235 70.5186 78.7139 70.5213 78.607 70.5028C78.5001 70.4843 78.3979 70.4449 78.3062 70.3868C78.2145 70.3288 78.1351 70.2533 78.0726 70.1646C78.0101 70.0759 77.9657 69.9757 77.9419 69.8698C76.9966 68.1211 76.7594 66.076 77.2794 64.1573C77.4044 63.6823 77.6669 63.2823 78.2044 63.3198C79.9169 63.4198 79.6044 67.7573 79.5544 69.5073Z" fill="#4CA8DF"/>
<path d="M116.604 130.108C113.217 127.945 113.204 128.22 114.604 126.72C115.854 125.47 115.854 125.47 117.292 126.408C118.979 127.545 118.979 127.545 117.679 129.245C117.417 129.608 117.229 130.058 116.604 130.108Z" fill="#4CA8DF"/>
<path d="M117.667 121.92C117.16 122.469 116.688 123.049 116.254 123.657C115.867 124.257 115.492 124.157 115.004 123.845L111.829 121.657C112.466 121.054 113.166 120.522 113.917 120.07C114.579 119.682 114.754 120.007 117.667 121.92Z" fill="#4CA8DF"/>
<path d="M138.404 130.22C139.325 130.68 140.189 131.247 140.979 131.907C140.383 132.908 139.592 133.779 138.654 134.47C137.867 134.02 137.104 133.52 136.342 133.007C136.142 132.882 136.254 132.695 136.342 132.557C138.542 129.907 138.167 130.382 138.404 130.22Z" fill="#4CA8DF"/>
<path d="M124.042 121.332C123.332 122.157 122.568 122.934 121.754 123.657C121.617 123.77 120.892 123.182 120.504 122.895C119.067 121.957 119.067 121.945 120.042 120.657C121.017 119.37 120.992 119.407 122.279 120.195C122.9 120.52 123.49 120.901 124.042 121.332Z" fill="#4CA8DF"/>
<path d="M121.292 124.557C120.813 125.295 120.26 125.982 119.642 126.607C119.229 126.945 118.792 126.307 118.392 126.07C117.992 125.832 117.754 125.632 117.442 125.42C116.329 124.67 116.317 124.632 117.304 123.607C118.292 122.582 118.429 122.432 119.804 123.37C120.387 123.643 120.897 124.05 121.292 124.557Z" fill="#4CA8DF"/>
<path d="M128.679 133.882C128.433 134.272 128.144 134.633 127.817 134.957C126.204 136.67 126.054 136.67 124.192 135.17C123.792 134.845 123.867 134.632 124.192 134.332C126.254 132.295 126.192 132.107 126.492 132.295C128.867 133.77 128.529 133.657 128.679 133.882Z" fill="#4CA8DF"/>
<path d="M110.917 122.47C112.029 123.007 112.579 123.495 114.554 124.67C115.092 124.995 114.992 125.27 114.554 125.67C114.117 126.07 113.479 127.257 112.892 127.295C112.304 127.332 112.167 126.045 111.642 125.495C111.117 124.945 110.679 124.245 110.254 123.632C110.152 123.523 110.087 123.384 110.069 123.236C110.052 123.087 110.082 122.937 110.156 122.807C110.23 122.676 110.344 122.574 110.481 122.513C110.618 122.452 110.771 122.437 110.917 122.47Z" fill="#4CA8DF"/>
<path d="M135.479 138.482C135.16 138.857 134.818 139.212 134.454 139.545C133.992 139.907 133.742 140.795 133.204 140.632C132.363 140.288 131.576 139.825 130.867 139.257C130.517 139.02 130.867 138.77 131.029 138.57C132.542 136.832 132.767 136.507 133.154 136.757C133.892 137.207 134.617 137.707 135.354 138.195C135.379 138.245 135.404 138.357 135.479 138.482Z" fill="#4CA8DF"/>
<path d="M137.604 129.757C137.067 130.47 137.042 130.345 136.692 130.795C135.254 132.582 134.954 132.607 133.204 131.107C132.942 130.882 132.817 130.757 133.117 130.47C133.358 130.213 133.584 129.942 133.792 129.657C135.067 128.107 135.817 127.882 137.604 129.757Z" fill="#4CA8DF"/>
<path d="M124.642 121.77C125.542 122.226 126.382 122.793 127.142 123.458C127.142 123.658 127.042 123.783 126.929 123.908C125.129 125.783 124.954 126.32 122.854 124.533C122.354 124.108 122.429 124.245 124.392 121.933C124.467 121.866 124.551 121.812 124.642 121.77Z" fill="#4CA8DF"/>
<path d="M135.767 133.583C136.492 134.058 137.292 134.57 138.067 135.095C138.254 135.22 138.142 135.42 138.067 135.558C136.092 137.795 136.292 137.845 135.667 137.37C135.042 136.895 134.067 136.645 133.604 135.858C133.429 135.645 135.404 133.658 135.767 133.583Z" fill="#4CA8DF"/>
<path d="M134.492 127.695C132.629 128.633 132.692 130.808 130.992 129.695C129.292 128.583 129.267 128.633 130.667 127.195C132.067 125.758 131.667 126.008 134.492 127.695Z" fill="#4CA8DF"/>
<path d="M129.529 138.57C126.942 136.845 127.029 137.32 128.354 135.882C129.679 134.445 129.854 134.27 131.542 135.657C131.779 135.857 132.004 135.995 131.779 136.332C131.196 137.088 130.548 137.79 129.842 138.432C129.779 138.495 129.667 138.507 129.529 138.57Z" fill="#4CA8DF"/>
<path d="M119.842 128.007C122.879 130.007 122.342 129.257 121.229 130.745C119.617 132.795 120.104 132.395 118.029 131.02C117.742 130.832 117.592 130.632 117.804 130.332C119.754 127.795 119.554 128.17 119.842 128.007Z" fill="#4CA8DF"/>
<path d="M125.292 131.695C124.567 132.67 124.242 132.832 123.592 133.695C123.117 134.307 122.729 134.27 122.117 133.832C120.679 132.82 120.629 132.82 121.767 131.495C122.167 131.032 122.454 130.107 123.017 130.245C123.767 130.541 124.46 130.964 125.067 131.495C125.154 131.482 125.204 131.595 125.292 131.695Z" fill="#4CA8DF"/>
<path d="M118.154 121.27C115.029 119.22 115.042 119.47 116.604 118.332C116.845 118.119 117.129 117.959 117.436 117.863C117.744 117.767 118.068 117.737 118.387 117.775C118.707 117.812 119.015 117.917 119.292 118.082C119.568 118.247 119.807 118.469 119.992 118.732C119.992 118.807 120.142 118.882 120.154 118.982C119.606 119.84 118.931 120.612 118.154 121.27Z" fill="#4CA8DF"/>
<path d="M130.842 125.495C130.067 126.445 129.817 126.632 129.492 127.12C128.954 127.882 128.467 128.02 127.617 127.42C125.917 126.17 125.917 126.295 127.342 124.77C127.967 124.095 128.454 123.995 129.179 124.557C129.704 124.919 130.261 125.233 130.842 125.495Z" fill="#4CA8DF"/>
<path d="M138.767 140.445C138.322 141.293 137.73 142.055 137.017 142.695C136.492 143.107 136.104 142.545 135.767 142.295C134.117 141.245 134.117 141.232 135.892 139.432C136.542 138.757 135.942 138.557 138.767 140.445Z" fill="#4CA8DF"/>
<path d="M156.317 145.995C154.154 144.557 154.079 144.632 154.354 144.282C156.279 141.782 156.104 141.595 158.254 143.295C158.379 143.395 158.554 143.507 158.592 143.657C158.704 144.007 156.854 145.995 156.317 145.995Z" fill="#4CA8DF"/>
<path d="M146.979 136.057C146.658 136.497 146.307 136.915 145.929 137.307C145.579 137.657 145.342 138.445 144.867 138.307C144.147 138.034 143.48 137.641 142.892 137.145C142.554 136.92 142.892 136.62 143.579 135.795C143.992 135.332 144.279 134.37 144.829 134.457C145.574 134.742 146.257 135.166 146.842 135.707C146.879 135.845 146.904 135.957 146.979 136.057Z" fill="#4CA8DF"/>
<path d="M134.704 133.12C134.004 133.882 133.354 134.607 132.667 135.307C132.667 135.307 132.404 135.307 132.292 135.22C130.317 133.857 130.192 133.732 130.417 133.457C130.917 132.832 131.467 132.207 132.004 131.632C132.069 131.573 132.154 131.54 132.242 131.54C132.33 131.54 132.415 131.573 132.479 131.632C134.929 133.095 134.379 132.72 134.704 133.12Z" fill="#4CA8DF"/>
<path d="M141.267 137.307C140.726 138.092 140.133 138.84 139.492 139.545C139.079 139.932 138.704 139.257 138.242 139.12C138.085 139.044 137.935 138.957 137.792 138.857C136.542 138.357 137.104 137.757 137.892 136.907C139.042 135.757 139.979 135.67 141.267 137.307Z" fill="#4CA8DF"/>
<path d="M129.042 129.27C129.798 129.705 130.513 130.207 131.179 130.77C131.529 131.108 130.954 131.52 130.692 131.658C130.067 132.008 130.079 133.22 129.004 132.908C128.841 132.847 128.692 132.754 128.567 132.633C128.054 132.208 126.967 132.008 127.042 131.483C127.167 130.608 128.079 130.02 128.742 129.395C128.836 129.341 128.937 129.299 129.042 129.27Z" fill="#4CA8DF"/>
<path d="M125.717 127.132L127.754 128.382C127.783 128.406 127.806 128.435 127.822 128.469C127.838 128.502 127.846 128.539 127.846 128.576C127.846 128.613 127.838 128.65 127.822 128.683C127.806 128.717 127.783 128.746 127.754 128.77C125.642 131.27 126.017 131.057 125.254 130.545C123.092 129.132 123.379 129.557 124.804 127.745C125.017 127.507 125.167 127.132 125.717 127.132Z" fill="#4CA8DF"/>
<path d="M124.579 126.545C124.067 127.375 123.445 128.132 122.729 128.795C121.877 128.401 121.082 127.892 120.367 127.282C120.367 126.945 120.592 126.72 120.779 126.482C122.029 124.857 122.029 124.845 123.842 125.995C124.104 126.157 124.504 126.245 124.579 126.545Z" fill="#4CA8DF"/>
<path d="M149.879 138.107C149.76 138.31 149.631 138.506 149.492 138.695C149.142 139.132 148.717 139.507 148.392 139.945C148.067 140.382 147.742 140.495 147.292 140.095C146.842 139.695 145.692 139.382 145.867 138.845C146.322 137.981 146.908 137.192 147.604 136.507C147.792 136.332 149.854 137.895 149.879 138.107Z" fill="#4CA8DF"/>
<path d="M146.204 148.857C146.617 148.345 146.992 147.845 147.454 147.382C147.917 146.92 147.792 146.445 148.304 146.595C149.039 146.84 149.697 147.271 150.217 147.845C150.367 148.007 150.217 148.17 150.142 148.307C148.742 150.107 148.092 151.157 146.204 148.857Z" fill="#4CA8DF"/>
<path d="M143.692 133.832C143.263 134.773 142.656 135.622 141.904 136.332C141.117 136.182 140.398 135.783 139.854 135.195C139.404 134.782 140.104 134.47 140.317 134.132C140.466 133.937 140.629 133.753 140.804 133.582C141.129 133.207 141.367 132.482 141.892 132.62C142.511 132.858 143.082 133.205 143.579 133.645C143.654 133.657 143.667 133.795 143.692 133.832Z" fill="#4CA8DF"/>
<path d="M142.267 141.682C141.6 141.339 140.975 140.92 140.404 140.432C140.017 140.032 140.654 139.657 140.892 139.332C142.142 137.607 142.142 137.62 143.867 138.895C144.492 139.37 144.404 139.22 142.479 141.62C142.442 141.632 142.367 141.645 142.267 141.682Z" fill="#4CA8DF"/>
<path d="M155.854 146.945C155.591 147.274 155.307 147.587 155.004 147.882C153.654 149.245 153.604 149.257 152.079 147.982C151.959 147.91 151.857 147.811 151.779 147.695C151.642 147.357 153.392 145.307 153.704 145.47C154.385 145.85 155.044 146.267 155.679 146.72C155.754 146.732 155.792 146.845 155.854 146.945Z" fill="#4CA8DF"/>
<path d="M141.667 142.407C141.242 143.27 140.671 144.052 139.979 144.72C139.212 144.472 138.496 144.086 137.867 143.582C137.839 143.561 137.817 143.535 137.799 143.505C137.782 143.475 137.771 143.442 137.767 143.407C138.286 142.624 138.862 141.88 139.492 141.182C139.904 140.782 140.292 141.395 140.642 141.607C140.998 141.855 141.34 142.122 141.667 142.407Z" fill="#4CA8DF"/>
<path d="M150.604 138.395C153.742 140.383 152.842 139.32 150.992 141.733C150.617 142.22 150.354 142.183 149.879 141.858C148.254 140.758 148.367 140.908 150.604 138.395Z" fill="#4CA8DF"/>
<path d="M147.129 141.157C146.69 142.012 146.087 142.773 145.354 143.395C144.588 143.156 143.878 142.765 143.267 142.245C143.154 142.045 143.179 142.045 144.104 140.87C144.272 140.603 144.51 140.387 144.793 140.248C145.076 140.109 145.392 140.051 145.706 140.08C146.019 140.11 146.319 140.227 146.57 140.417C146.822 140.607 147.015 140.863 147.129 141.157Z" fill="#4CA8DF"/>
<path d="M153.654 140.332C154.261 140.662 154.814 141.084 155.292 141.582C155.554 141.957 154.929 142.395 154.617 142.745C153.367 144.195 152.929 144.132 151.654 142.97C151.179 142.545 151.267 142.77 153.104 140.57C153.161 140.479 153.244 140.407 153.342 140.365C153.441 140.322 153.55 140.311 153.654 140.332Z" fill="#4CA8DF"/>
<path d="M153.079 149.995C152.558 150.837 151.914 151.595 151.167 152.245C150.48 151.917 149.84 151.496 149.267 150.995C148.942 150.657 149.629 150.345 149.767 149.97C149.854 149.817 149.968 149.681 150.104 149.57C150.454 149.245 150.554 148.507 151.117 148.607C151.806 148.864 152.432 149.265 152.954 149.782C153.01 149.844 153.053 149.916 153.079 149.995Z" fill="#4CA8DF"/>
<path d="M150.854 147.057C150.093 146.723 149.402 146.248 148.817 145.657C149.375 144.862 150.04 144.147 150.792 143.532C151.531 143.883 152.193 144.376 152.742 144.982C152.241 145.78 151.602 146.483 150.854 147.057Z" fill="#4CA8DF"/>
<path d="M142.654 143.057C143.377 143.385 144.03 143.847 144.579 144.42C144.052 145.231 143.417 145.966 142.692 146.607C141.97 146.267 141.317 145.797 140.767 145.22C141.259 144.39 141.898 143.657 142.654 143.057Z" fill="#4CA8DF"/>
<path d="M149.917 142.92C149.479 143.457 149.104 143.97 148.667 144.407C147.967 145.132 148.329 145.657 146.092 144.12C145.867 143.957 146.092 143.957 147.554 141.945C147.59 141.876 147.642 141.816 147.705 141.771C147.768 141.725 147.842 141.696 147.919 141.685C147.996 141.674 148.075 141.682 148.148 141.707C148.222 141.733 148.288 141.776 148.342 141.832L149.917 142.92Z" fill="#4CA8DF"/>
<path d="M145.192 148.308C144.648 148 144.144 147.626 143.692 147.195C143.354 146.808 143.929 146.483 144.154 146.158C144.229 146.033 144.304 145.908 144.379 145.808C144.512 145.565 144.707 145.362 144.944 145.221C145.182 145.08 145.453 145.006 145.729 145.006C146.006 145.006 146.277 145.08 146.514 145.221C146.752 145.362 146.947 145.565 147.079 145.808C147.079 145.808 147.217 145.895 147.229 145.958C146.777 146.912 146.072 147.724 145.192 148.308Z" fill="#4CA8DF"/>
<path d="M114.317 133.507L113.492 129.17C114.392 129.77 115.129 130.257 115.879 130.732C116.629 131.207 116.017 131.37 114.317 133.507Z" fill="#4CA8DF"/>
<path d="M232.592 56.7573C231.742 56.7573 224.579 59.6573 218.842 64.7448C218.217 65.3073 218.242 65.4948 218.954 65.9948C219.667 66.4948 220.417 66.8073 221.117 67.3323C225.967 70.9073 228.829 73.2198 229.042 73.2198C229.223 72.9721 229.374 72.7035 229.492 72.4198C230.618 69.8883 231.456 67.2384 231.992 64.5198C232.531 62.4629 232.948 60.376 233.242 58.2698C233.242 57.5823 233.192 56.7573 232.592 56.7573ZM225.167 68.2323C223.704 68.2323 224.029 66.0823 225.329 66.1948C225.47 66.1952 225.61 66.2248 225.739 66.2817C225.869 66.3386 225.985 66.4216 226.08 66.5255C226.176 66.6294 226.249 66.752 226.295 66.8855C226.341 67.019 226.359 67.1605 226.348 67.3013C226.337 67.4421 226.297 67.579 226.23 67.7035C226.163 67.828 226.072 67.9374 225.961 68.0249C225.85 68.1123 225.722 68.1758 225.585 68.2115C225.449 68.2472 225.306 68.2543 225.167 68.2323ZM227.904 65.0573C227.856 65.1835 227.782 65.298 227.686 65.3933C227.591 65.4885 227.476 65.5623 227.35 65.6097C227.223 65.6571 227.088 65.677 226.954 65.6681C226.819 65.6593 226.688 65.6218 226.569 65.5583C226.45 65.4947 226.345 65.4065 226.263 65.2995C226.181 65.1926 226.122 65.0693 226.091 64.9379C226.06 64.8066 226.058 64.6701 226.084 64.5377C226.11 64.4052 226.163 64.2798 226.242 64.1698C227.154 62.8323 229.542 58.4323 230.754 59.1698C230.865 59.2544 230.953 59.3646 231.012 59.4908C231.071 59.6171 231.098 59.7557 231.092 59.8948C231.104 60.1948 228.817 63.6573 227.904 65.0573Z" fill="#4CA8DF"/>
<path d="M236.742 55.6324C236.742 53.6699 234.829 51.4324 232.479 52.1699C231.699 52.3707 230.938 52.6384 230.204 52.9699C224.676 55.8924 219.421 59.3062 214.504 63.1699C213.017 64.2699 212.717 65.3949 213.554 66.9199C214.088 67.8831 214.806 68.7325 215.667 69.4199C217.801 71.1577 220.038 72.7648 222.367 74.2324C224.642 75.6449 226.704 77.4074 229.254 78.3574C230.992 79.0074 232.054 78.5699 232.679 76.8449C233.393 74.8912 234.002 72.9009 234.504 70.8824C236.342 63.3324 236.754 61.9574 236.742 55.6324ZM233.604 64.5949C233.154 66.5574 231.367 74.5949 229.404 75.0574C228.717 75.2074 227.979 74.6574 227.404 74.2199C219.254 67.8449 219.517 68.1324 218.654 67.6449C217.179 66.7824 215.679 65.8324 216.892 64.4449C220.279 60.5699 227.104 56.9449 231.054 55.4074C231.56 55.1715 232.12 55.0749 232.676 55.1276C233.232 55.1803 233.764 55.3805 234.217 55.7074C235.429 56.6699 235.167 57.8574 233.604 64.5949Z" fill="#4CA8DF"/>
<path d="M29.8794 33.4573C26.8271 31.9449 23.6098 30.7913 20.2919 30.0198C18.9546 29.5802 17.577 29.2746 16.1794 29.1073C13.2419 28.9323 13.1294 29.0448 13.1419 32.0198C13.2185 34.3564 13.6397 36.6688 14.3919 38.8823C15.0563 41.8651 15.9549 44.7909 17.0794 47.6323C18.1294 50.1323 20.4669 50.1323 22.0794 48.4948C25.3441 45.3721 28.3928 42.0311 31.2044 38.4948C32.6669 36.4323 32.1294 34.6323 29.8794 33.4573ZM21.8544 37.7073C21.7919 38.4573 21.3169 38.7573 20.6919 38.5448C20.0669 38.3323 19.9044 37.9698 19.5294 37.6073C17.0294 35.0198 16.8919 34.7573 16.5044 34.3323C15.3294 33.0198 16.6419 31.8323 17.8919 33.0823C21.9544 37.3198 21.9044 37.2198 21.8544 37.7073ZM24.6419 41.5448C24.5307 41.6656 24.3953 41.7614 24.2445 41.826C24.0937 41.8907 23.9309 41.9226 23.7669 41.9198C22.9919 41.9198 22.6169 41.3948 22.5919 40.4323C22.5798 40.2832 22.6009 40.1332 22.6537 39.9933C22.7066 39.8533 22.7898 39.7267 22.8973 39.6227C23.0049 39.5187 23.1342 39.4399 23.2759 39.3918C23.4176 39.3438 23.5682 39.3277 23.7169 39.3448C24.9169 39.3948 24.9919 41.1573 24.6419 41.5448Z" fill="#4CA8DF"/>
<path d="M169.579 225.795C166.717 220.795 163.567 216.057 160.342 211.345C155.179 203.845 150.629 195.857 144.842 188.745C144.38 188.095 143.763 187.571 143.047 187.222C142.33 186.872 141.538 186.708 140.742 186.745C132.104 186.807 126.792 187.045 107.717 189.72C84.9667 192.907 87.0793 191.807 82.7168 191.645C78.0614 191.374 73.4014 192.09 69.0417 193.745C72.3417 200.707 73.1167 203.62 79.4042 203.832C96.4917 204.395 125.954 196.407 140.917 207.27C147.167 211.795 160.454 228.182 164.254 232.932C165.793 232.241 167.241 231.363 168.567 230.32C171.467 228.095 171.317 228.807 169.579 225.795Z" fill="#B1F1FF"/>
<path d="M126.229 58.4448C126.317 55.5198 127.204 52.4323 127.017 50.3823C126.942 49.5073 127.229 49.2073 128.054 49.5823C130.217 50.5448 132.492 51.1948 134.679 52.0823C140.179 54.6457 145.537 57.504 150.729 60.6448C152.925 61.7805 155.217 62.7176 157.579 63.4448C168.304 67.1948 180.179 74.9823 189.604 80.8573C190.067 81.1573 190.629 81.2323 191.117 81.5323C193.417 82.9573 193.792 85.2823 194.092 87.6323C194.444 91.4255 194.203 95.2505 193.379 98.9698C192.679 102.932 193.067 107.332 192.729 112.057C192.429 116.32 193.267 122.982 190.679 126.157C190.412 126.493 190.045 126.734 189.632 126.847C189.218 126.959 188.779 126.937 188.379 126.782C185.495 125.924 182.771 124.598 180.317 122.857C166.067 112.707 145.742 101.72 137.992 97.0948C134.117 94.7823 130.354 92.2573 126.254 90.3198C126.037 90.2194 125.854 90.0588 125.725 89.8572C125.597 89.6556 125.529 89.4214 125.529 89.1823C124.729 83.3323 126.167 60.2573 126.229 58.4448ZM152.792 68.5198C151.401 69.04 150.191 69.9498 149.304 71.1402C148.417 72.3306 147.892 73.7513 147.792 75.2323C147.67 77.7507 148.416 80.2345 149.904 82.2698C151.029 83.8573 149.204 84.8823 150.354 85.5573C151.999 86.6473 153.75 87.5687 155.579 88.3073C158.542 89.3323 158.592 89.3573 159.942 86.4948C160.365 85.4365 161.136 84.5545 162.129 83.9948C163.598 83.1053 164.717 81.7388 165.299 80.1234C165.882 78.5081 165.892 76.7419 165.329 75.1198C163.792 71.1573 157.529 67.0573 152.792 68.5198ZM148.429 93.8198C150.779 92.9823 153.229 96.7073 156.942 100.382C157.527 100.841 157.941 101.484 158.117 102.207C158.229 102.87 159.054 103.182 159.754 103.057C160.454 102.932 161.229 102.845 161.179 101.807C161.179 101.482 161.379 101.345 161.667 101.207C162.792 100.682 162.404 99.0948 160.792 98.8323C160.279 98.7448 159.604 98.8323 159.254 98.5948C157.925 97.548 156.816 96.2479 155.992 94.7698C155.154 93.2448 159.254 93.7198 159.979 94.3948C160.613 94.9221 161.42 95.196 162.244 95.1637C163.068 95.1313 163.851 94.7951 164.442 94.2198C165.117 93.4948 165.079 90.1448 164.017 89.4073C163.798 89.2194 163.539 89.084 163.26 89.0116C162.981 88.9392 162.689 88.9317 162.407 88.9896C162.125 89.0475 161.859 89.1694 161.631 89.3458C161.403 89.5222 161.219 89.7485 161.092 90.0073C159.654 91.9323 158.592 91.0073 154.067 91.2573C153.699 91.3012 153.325 91.2508 152.982 91.1108C152.639 90.9709 152.337 90.746 152.104 90.4573C150.404 88.3323 147.904 86.7073 147.729 83.5948C147.729 82.5948 146.579 82.4198 145.817 83.1823C145.617 83.3823 145.542 83.6073 145.154 83.4823C144.977 83.3904 144.78 83.3425 144.58 83.3425C144.38 83.3424 144.183 83.3904 144.005 83.4822C143.828 83.574 143.675 83.7071 143.56 83.8702C143.444 84.0334 143.369 84.2218 143.342 84.4198C142.629 86.6948 145.692 85.7823 147.892 90.5698C148.104 91.0323 148.004 91.2198 147.504 91.2573C146.624 91.4861 145.692 91.4021 144.867 91.0198C144.383 90.7934 143.84 90.7277 143.317 90.8323C142.517 90.8323 141.929 91.8073 142.742 92.3698C143.154 92.6573 143.142 92.9198 142.967 93.3448C142.862 93.5586 142.809 93.7939 142.812 94.0318C142.815 94.2698 142.873 94.5038 142.982 94.7152C143.092 94.9266 143.249 95.1095 143.441 95.2492C143.634 95.3889 143.857 95.4815 144.092 95.5198C144.313 95.6184 144.554 95.6654 144.796 95.6573C145.038 95.6492 145.275 95.5862 145.49 95.473C145.704 95.3598 145.89 95.1995 146.033 95.004C146.176 94.8086 146.273 94.5832 146.317 94.3448C146.542 93.6573 146.804 93.8198 148.454 93.8198H148.429ZM178.067 85.0698C177.664 84.5351 177.317 83.9614 177.029 83.3573C176.579 82.6823 175.942 82.6073 175.492 83.2573C174.148 85.0749 173.012 87.0371 172.104 89.1073C172.02 89.2432 171.985 89.4034 172.003 89.5621C172.021 89.7208 172.092 89.8687 172.204 89.9823C172.338 90.1035 172.511 90.1707 172.692 90.1707C172.872 90.1707 173.046 90.1035 173.179 89.9823C175.679 88.3198 175.842 87.4823 176.929 89.6323C177.304 90.3823 177.429 90.9823 178.092 90.9948C178.754 91.0073 178.879 90.4698 179.142 90.0698C179.404 89.6698 179.492 88.9448 180.004 88.9573C180.992 88.9573 181.617 88.2948 182.392 87.9448C184.992 86.6948 182.267 85.4448 180.729 82.2073C180.654 81.9868 180.511 81.7962 180.32 81.6634C180.128 81.5307 179.899 81.4628 179.667 81.4698C178.942 81.5448 178.942 82.0198 178.092 85.1073L178.067 85.0698ZM139.867 67.9448C139.525 66.6194 139.427 65.2427 139.579 63.8823C139.579 63.2323 139.304 62.8073 138.729 63.1323C137.126 63.872 135.73 64.9971 134.667 66.4073C134.47 66.86 134.386 67.3538 134.423 67.8461C134.46 68.3383 134.617 68.8141 134.879 69.2323C135.179 69.9823 135.842 69.3448 136.379 69.3823C136.379 69.9323 136.379 70.4198 136.379 70.9198C136.304 72.4573 136.779 73.3198 137.704 73.2823C138.629 73.2448 138.892 72.7573 139.267 72.7573C139.367 73.3448 139.479 73.9323 139.542 74.5198C139.604 75.1073 139.617 75.3198 140.142 75.3573C140.667 75.3948 140.829 75.0698 141.004 74.7073C141.912 72.5371 142.42 70.2207 142.504 67.8698C142.579 67.0698 142.104 66.7823 141.354 67.1073C140.879 67.3198 140.442 67.6198 139.867 67.9448Z" fill="#B1F1FF"/>
<path d="M92.7917 190.095C95.2917 179.47 95.2917 180.095 95.1542 178.407C94.9542 176.257 95.0292 176.02 96.9417 174.995C100.476 173.025 104.26 171.54 108.192 170.582C114.267 169.182 122.942 169.732 126.529 170.87C130.117 172.007 132.479 174.37 134.917 176.92C136.879 178.982 138.317 181.545 140.829 183.082C140.971 183.145 141.095 183.24 141.193 183.36C141.29 183.481 141.357 183.622 141.389 183.774C141.421 183.925 141.416 184.082 141.375 184.231C141.335 184.38 141.259 184.518 141.154 184.632C140.667 185.12 137.667 185.057 135.854 185.095C111.004 185.657 95.5042 190.445 92.7917 190.095Z" fill="#B1F1FF"/>
<path d="M166.542 125.332C166.559 127.132 166.215 128.918 165.529 130.582C165.28 131.267 164.871 131.883 164.336 132.379C163.802 132.875 163.156 133.236 162.454 133.432C160.526 134.212 158.481 134.664 156.404 134.77C155.547 134.787 154.704 134.552 153.979 134.095C151.704 132.42 149.092 131.257 146.817 129.582C144.742 128.07 142.779 126.395 140.742 124.82C139.904 124.182 139.867 123.57 140.429 122.67C141.754 120.507 143.429 118.57 144.179 116.082C144.796 114.124 144.852 112.033 144.342 110.045C144.342 109.42 144.979 109.02 145.342 109.395C146.192 110.282 147.429 110.345 148.354 111.132C151.204 113.632 158.792 116.445 163.067 119.882C166.392 122.582 166.467 122.407 166.542 125.332Z" fill="#B1F1FF"/>
<path d="M161.229 232.994C159.117 229.894 146.229 215.007 145.642 214.532C141.292 210.782 138.142 206.682 131.892 205.357C118.429 202.532 102.979 203.594 89.5918 205.194C80.1168 206.319 80.0543 206.607 75.5543 205.507C74.4793 205.244 74.1043 206.532 75.2668 206.819C76.7227 207.337 78.2593 207.591 79.8043 207.569C110.604 204.757 119.804 204.682 129.804 206.982C139.067 209.107 142.117 213.644 148.254 220.419C159.229 232.532 156.329 230.519 159.792 234.169C160.667 234.994 162.217 234.457 161.229 232.994Z" fill="#B1F1FF"/>
<path d="M101.542 10.7447C101.867 12.5197 100.654 13.6697 99.3794 14.5822C95.7919 17.1697 91.1544 17.3072 88.7544 19.1447C87.6044 20.0072 86.6919 19.3572 86.9419 17.8947C87.7044 13.5447 91.7544 9.14467 95.8419 8.19467C97.7919 7.79467 101.092 8.39467 101.542 10.7447Z" fill="#B1F1FF"/>
<path d="M47.1044 16.8072C49.7169 16.3572 51.4544 17.7322 52.9794 19.5697C54.5044 21.4072 55.0919 23.6822 55.9669 25.8197L56.9794 28.2572C57.4169 29.3447 56.7794 30.2947 55.3794 29.5072C53.4544 28.3447 50.3793 27.4697 45.8168 22.7072C43.7168 20.4197 44.0419 17.3322 47.1044 16.8072Z" fill="#B1F1FF"/>
<path d="M185.292 165.545C184.792 165.182 185.067 164.645 185.404 164.132C187.004 161.695 191.867 161.632 193.504 164.057C194.267 165.195 194.104 165.645 192.767 166.07C189.454 167.095 188.029 167.532 185.292 165.545Z" fill="#B1F1FF"/>
<path d="M222.967 148.657C222.179 148.657 221.779 149.169 221.317 149.632L218.679 152.232C217.542 153.369 216.817 152.232 215.892 150.982C215.804 150.873 215.74 150.746 215.703 150.611C215.667 150.475 215.659 150.334 215.68 150.195C215.701 150.056 215.751 149.924 215.826 149.805C215.901 149.687 216 149.585 216.117 149.507C220.042 145.757 220.429 144.507 221.579 146.332C221.687 146.567 221.865 146.764 222.089 146.893C222.313 147.023 222.571 147.08 222.829 147.057C223.842 147.007 223.867 148.732 222.967 148.657Z" fill="#B1F1FF"/>
<path d="M222.117 159.232C221.592 158.382 220.479 158.17 219.979 157.332C219.154 155.957 220.817 154.832 223.667 152.195C223.786 152.055 223.954 151.968 224.137 151.952C224.319 151.936 224.5 151.991 224.642 152.107C225.324 152.612 225.877 153.272 226.254 154.032C226.299 154.131 226.323 154.238 226.325 154.347C226.328 154.455 226.307 154.563 226.267 154.664C226.226 154.764 226.165 154.855 226.087 154.932C226.01 155.008 225.918 155.068 225.817 155.107C224.947 155.704 224.165 156.419 223.492 157.232C223.167 157.545 222.854 157.832 223.042 158.407C223.229 158.982 222.292 159.532 222.117 159.232Z" fill="#B1F1FF"/>
<path d="M226.717 161.157C226.329 161.157 225.954 161.157 225.779 160.782C225.682 160.589 225.659 160.366 225.714 160.156C225.769 159.947 225.899 159.765 226.079 159.645C227.12 158.694 228.109 157.688 229.042 156.632C229.232 156.462 229.455 156.331 229.696 156.248C229.937 156.165 230.193 156.13 230.447 156.146C230.702 156.163 230.951 156.23 231.18 156.343C231.408 156.456 231.612 156.614 231.779 156.807C232.079 157.232 231.967 157.732 231.442 157.795C229.042 158.057 228.342 161.157 226.717 161.157Z" fill="#B1F1FF"/>
<path d="M227.617 164.12C227.592 163.926 227.617 163.729 227.689 163.548C227.761 163.366 227.878 163.206 228.029 163.082C229.091 162.053 230.255 161.136 231.504 160.345C231.892 160.107 232.342 159.782 232.754 160.345C233.167 160.907 232.642 161.17 232.329 161.595C231.317 162.845 229.767 163.545 228.979 165.007C228.944 165.08 228.894 165.144 228.832 165.197C228.771 165.25 228.7 165.29 228.623 165.314C228.546 165.339 228.465 165.348 228.384 165.34C228.304 165.332 228.225 165.308 228.154 165.27C228.043 165.231 227.94 165.17 227.852 165.09C227.765 165.011 227.694 164.915 227.644 164.808C227.593 164.701 227.565 164.585 227.561 164.466C227.556 164.348 227.575 164.23 227.617 164.12Z" fill="#B1F1FF"/>
<path d="M160.004 80.4695C159.217 80.4695 158.329 80.4695 158.067 79.5445C157.967 79.1114 158.017 78.6574 158.208 78.2559C158.398 77.8544 158.718 77.5289 159.117 77.332C159.573 76.9455 160.118 76.679 160.703 76.5568C161.288 76.4346 161.894 76.4604 162.467 76.632C162.695 76.6608 162.91 76.7517 163.09 76.8948C163.269 77.0379 163.406 77.2277 163.485 77.4433C163.563 77.659 163.581 77.8921 163.536 78.1172C163.491 78.3424 163.385 78.5507 163.229 78.7195C162.932 79.3033 162.465 79.7831 161.889 80.0955C161.313 80.408 160.656 80.5384 160.004 80.4695Z" fill="#B1F1FF"/>
<path d="M155.054 75.9074C155.054 77.1574 154.904 78.0324 153.929 78.2074C153.51 78.2738 153.08 78.1995 152.707 77.996C152.334 77.7925 152.038 77.4713 151.867 77.0824C151.475 76.4546 151.255 75.7346 151.229 74.9949C151.207 74.6393 151.296 74.2857 151.485 73.9832C151.673 73.6807 151.951 73.4445 152.279 73.3074C153.642 72.7824 154.967 74.5074 155.054 75.9074Z" fill="#B1F1FF"/>
<path d="M158.154 85.3947C158.127 85.3481 158.087 85.3095 158.04 85.2826C157.993 85.2558 157.94 85.2417 157.886 85.2417C157.831 85.2417 157.778 85.2558 157.731 85.2826C157.684 85.3095 157.644 85.3481 157.617 85.3947C157.408 85.7479 157.244 86.1259 157.129 86.5197C156.954 87.0072 156.767 87.3072 156.942 87.6072C156.99 87.7564 157.095 87.8804 157.235 87.9519C157.374 88.0234 157.536 88.0366 157.686 87.9885C157.835 87.9404 157.959 87.8351 158.03 87.6956C158.102 87.5561 158.115 87.3939 158.067 87.2447C158.092 86.7197 158.492 86.1572 158.154 85.3947Z" fill="#B1F1FF"/>
<path d="M155.692 84.9073C154.442 86.1573 155.117 87.5823 155.779 87.0073C156.028 86.7433 156.2 86.4158 156.275 86.0608C156.35 85.7058 156.325 85.337 156.204 84.9948C156.181 84.95 156.148 84.9111 156.108 84.8813C156.067 84.8514 156.02 84.8315 155.97 84.823C155.92 84.8145 155.869 84.8177 155.821 84.8323C155.773 84.847 155.729 84.8727 155.692 84.9073Z" fill="#B1F1FF"/>
<path d="M153.417 84.0448C152.879 85.1948 152.654 85.5073 152.829 85.8448C152.881 85.9231 152.948 85.9903 153.026 86.0423C153.104 86.0943 153.191 86.1301 153.283 86.1476C153.376 86.1651 153.47 86.1639 153.562 86.1441C153.653 86.1243 153.74 86.0863 153.817 86.0323C154.104 85.8073 154.042 85.5073 154.129 84.8823C154.169 84.6594 154.19 84.4337 154.192 84.2073C154.192 83.8573 153.554 83.7323 153.417 84.0448Z" fill="#B1F1FF"/>
<path d="M151.867 82.7698C151.129 83.8573 151.042 84.1698 151.467 85.2698C151.486 85.3347 151.525 85.3917 151.579 85.4323C151.634 85.4729 151.699 85.4948 151.767 85.4948C151.835 85.4948 151.9 85.4729 151.954 85.4323C152.009 85.3917 152.048 85.3347 152.067 85.2698L152.442 83.0948C152.485 83.0185 152.496 82.9283 152.473 82.8439C152.449 82.7595 152.393 82.6879 152.317 82.6448C152.241 82.6017 152.15 82.5907 152.066 82.6141C151.982 82.6375 151.91 82.6935 151.867 82.7698Z" fill="#B1F1FF"/>
<path d="M140.742 215.807C133.092 208.42 126.692 208.307 119.404 207.782C112.117 207.257 104.404 207.97 95.7919 208.332C87.1794 208.695 76.9669 210.395 72.0419 209.582C67.5294 208.832 61.6544 205.632 59.7044 199.257C57.0294 200.707 59.4044 200.507 50.9544 203.245C50.3919 203.42 50.0794 203.657 50.0419 204.22C49.9244 205.172 50.0059 206.138 50.2814 207.057C50.5568 207.975 51.0201 208.827 51.6419 209.557C58.3044 216.77 73.9919 219.27 84.6419 219.67C131.679 221.445 117.067 220.532 119.979 220.732C120.467 220.732 121.117 220.832 121.104 221.582C120.967 231.732 120.354 229.532 120.267 232.632C120.23 232.903 120.249 233.178 120.322 233.44C120.395 233.703 120.521 233.948 120.691 234.161C120.862 234.374 121.074 234.55 121.315 234.678C121.556 234.806 121.82 234.884 122.092 234.907C133.267 237.307 152.529 236.157 157.242 235.107C153.054 229.732 145.867 220.745 140.742 215.807Z" fill="#B1F1FF"/>
<path d="M108.617 151.807C106.567 155.007 105.167 158.245 100.379 160.045C99.1294 160.507 98.7419 162.945 95.5294 163.507C93.7669 163.82 92.0169 164.207 90.0169 164.607C89.977 165.394 90.0316 166.183 90.1794 166.957C90.828 169.497 92.0656 171.848 93.7919 173.82C93.9959 174.058 94.2601 174.237 94.557 174.338C94.8538 174.439 95.1724 174.459 95.4794 174.395C101.942 173.545 118.242 171.457 119.929 171.245C121.904 171.001 123.908 171.212 125.789 171.862C127.669 172.512 129.376 173.584 130.779 174.995C136.192 179.995 138.642 183.495 139.904 183.67C145.792 184.507 149.542 188.132 152.404 193.057C152.479 193.207 162.654 209.307 167.042 218.22C168.379 220.945 169.642 223.707 170.904 226.47C171.517 227.807 170.054 228.97 169.429 227.807C168.379 225.77 168.729 225.62 164.204 217.17C155.117 200.182 156.267 202.82 153.442 198.42C148.942 191.407 146.879 185.92 138.004 185.445C133.727 185.354 129.451 185.66 125.229 186.357C94.3044 190.495 91.3044 190.345 86.6794 192.195C83.8794 193.307 80.9794 192.657 78.0919 192.432C72.1544 191.982 69.3419 193.532 64.2419 196.832C59.1419 200.132 56.2044 202.357 49.2419 202.957C49.6794 206.432 50.4919 209.695 53.5794 211.907C58.8389 215.693 64.9384 218.146 71.3544 219.057C76.6919 219.845 93.0044 220.232 95.8919 220.307C103.979 220.407 107.317 219.57 128.467 215.945C128.862 215.843 129.28 215.876 129.653 216.039C130.027 216.202 130.336 216.486 130.529 216.845C133.879 221.295 136.529 226.282 140.629 230.145C142.042 231.47 143.504 232.745 144.917 234.07C145.854 234.945 144.567 235.382 144.304 235.32C143.61 235.062 142.973 234.672 142.429 234.17C126.529 218.72 132.629 217.17 126.367 218.357C122.442 219.107 122.379 218.77 122.429 221.232C122.517 225.395 122.717 229.557 122.879 233.732C122.879 233.907 122.979 234.107 122.879 234.257C122.604 234.97 122.179 235.57 121.629 234.445C121.463 234.048 121.374 233.624 121.367 233.195C120.454 221.32 120.679 224.445 121.004 219.582L101.792 222.082C102.029 226.182 102.517 227.945 100.304 228.645C93.5919 230.77 90.1419 230.62 71.8544 231.27C71.3294 236.782 71.4169 236.357 71.2669 236.657C70.4919 238.207 69.5669 236.82 69.5544 236.407C69.6391 234.561 69.8521 232.723 70.1919 230.907L63.3419 230.37C62.8669 235.92 62.9044 235.807 62.7419 236.27C62.1669 237.907 61.0794 236.395 61.0794 236.095C61.1549 234.123 61.3721 232.16 61.7294 230.22C52.0544 229.182 50.7169 229.395 42.0919 226.795C34.1169 224.395 28.6419 222.195 22.6419 216.532C16.1044 210.382 13.0794 205.92 10.9169 196.307C7.64193 181.745 7.77943 160.882 9.66693 150.22C10.3544 146.182 11.0044 142.145 11.6419 138.095C12.1669 134.807 14.3294 132.682 16.7419 130.72C16.9571 130.528 17.2351 130.422 17.5232 130.422C17.8112 130.422 18.0893 130.528 18.3044 130.72C21.0794 132.332 23.9419 133.782 26.7544 135.295C29.4169 121.895 36.2919 110.832 45.2919 101.07C44.2561 101.377 43.1927 101.582 42.1169 101.682C40.9387 101.725 39.7845 101.342 38.8661 100.602C37.9477 99.8629 37.3267 98.8173 37.1169 97.6571C36.4419 94.9446 36.4419 91.7946 33.0919 87.1821C28.4919 80.9321 29.8544 71.5321 34.3419 66.5071C34.6287 66.2316 34.9381 65.9807 35.2669 65.7571C33.9169 60.4821 36.4044 56.1196 38.8919 51.8696C42.0704 46.7184 46.7085 42.6285 52.2169 40.1196C61.8544 35.3946 65.2919 33.6571 74.0419 33.6571C75.6794 33.6571 74.8794 32.5196 76.5419 30.9321C79.1227 28.4095 82.5483 26.935 86.1544 26.7946C87.272 26.7662 88.3781 27.0265 89.3657 27.5504C90.3533 28.0743 91.1891 28.844 91.7923 29.7853C92.3956 30.7266 92.7458 31.8075 92.8092 32.9237C92.8727 34.0399 92.6471 35.1535 92.1544 36.1571C92.0669 36.3446 91.9794 36.5321 91.8419 36.7946C92.3169 36.8821 92.7294 36.9321 93.0919 37.0321C93.8804 37.2431 94.6183 37.6108 95.2616 38.1134C95.9048 38.6159 96.4402 39.2429 96.8357 39.9569C97.2312 40.671 97.4788 41.4574 97.5636 42.2693C97.6484 43.0811 97.5688 43.9017 97.3294 44.6821C96.4199 47.1273 94.8642 49.28 92.8281 50.9111C90.792 52.5422 88.3517 53.5906 85.7669 53.9446C88.4544 58.2946 90.6544 61.2071 91.6169 67.6946C91.7169 68.3696 91.9919 68.6446 92.6419 68.5696C98.2544 67.9696 97.3794 67.9821 97.9919 67.9571C98.4034 67.8702 98.8312 67.9024 99.225 68.0499C99.6189 68.1974 99.9626 68.4541 100.216 68.7899C100.469 69.1258 100.621 69.5268 100.655 69.946C100.688 70.3653 100.601 70.7854 100.404 71.1571C99.5794 73.5696 97.1669 75.3196 98.2919 78.0196C98.8794 79.4571 98.1169 80.5196 96.5544 81.1321C94.7461 81.9071 92.9586 82.7404 91.1919 83.6321C90.0169 84.2196 90.0794 84.4821 87.7794 91.0446C87.7519 91.2227 87.7519 91.404 87.7794 91.5821C92.7794 90.1821 91.0919 90.5821 94.6794 89.5321C98.7919 88.2821 98.3169 92.5821 98.4294 97.1946C98.5044 99.6946 96.2919 100.27 94.2419 100.945C95.7419 106.895 99.4669 111.345 107.592 122.907C110.898 119.599 114.445 116.54 118.204 113.757C118.629 113.431 119.156 113.269 119.691 113.298C120.225 113.328 120.731 113.549 121.117 113.92C130.554 120.02 127.929 118.332 136.729 123.657C138.454 121.87 140.167 120.12 141.854 118.345C142.35 117.81 142.708 117.164 142.897 116.46C143.087 115.757 143.102 115.018 142.942 114.307C142.092 108.957 142.154 108.132 141.204 107.595C126.079 99.1696 139.379 107.045 117.129 93.8446C116.779 93.6729 116.486 93.403 116.287 93.0679C116.087 92.7328 115.989 92.3469 116.004 91.9571C116.629 67.5071 116.154 76.7696 118.779 40.5321C118.904 38.9071 118.942 38.8571 120.504 38.3946C121.654 38.0446 123.992 35.6821 127.329 37.1446C130.667 38.6071 134.204 39.9196 137.567 41.4446C167.879 55.2696 186.704 66.0821 201.317 73.1321C202.471 73.5872 203.445 74.4081 204.088 75.4692C204.732 76.5303 205.01 77.773 204.879 79.0071C203.692 105.595 204.167 92.6321 201.679 119.007C201.229 123.77 200.817 131.432 200.292 135.02C200.229 135.291 200.105 135.545 199.93 135.761C199.754 135.978 199.532 136.152 199.279 136.27C197.492 136.895 195.654 137.407 193.817 137.87C193.382 137.904 192.947 137.808 192.567 137.595C190.442 136.582 188.279 135.607 186.229 134.47C178.192 129.982 166.342 122.582 164.817 121.695C165.392 126.57 166.742 130.832 162.054 132.582L155.029 135.57C163.054 140.082 163.554 140.495 166.279 141.92C168.179 142.92 167.679 144.832 168.054 148.432C168.078 148.821 167.991 149.208 167.803 149.549C167.615 149.89 167.334 150.17 166.992 150.357C155.654 158.682 154.492 159.482 153.454 160.357C153.195 160.625 152.848 160.791 152.477 160.825C152.105 160.86 151.734 160.76 151.429 160.545C141.942 155.057 125.179 144.732 113.754 137.882C113.292 139.882 112.004 143.52 111.592 144.67C111.379 145.22 111.392 145.495 111.929 145.92C121.929 152.92 132.342 159.32 142.629 165.92C154.379 173.42 210.642 212.795 220.329 219.42C222.104 220.67 220.529 220.67 219.867 220.22C209.692 213.382 144.954 168.97 135.629 163.145C128.379 158.62 121.304 153.82 114.179 149.107C113.029 148.345 112.004 147.42 110.854 146.52L109.229 150.27C120.779 157.445 136.517 165.732 179.742 197.32C185.167 201.282 190.442 205.445 195.904 209.345C205.704 216.345 213.992 221.557 217.542 224.42C218.704 225.357 217.479 225.607 216.854 225.207C216.229 224.807 199.992 213.957 194.179 209.757C177.504 197.87 172.404 193.257 133.229 166.87C129.042 163.932 129.104 164.232 108.617 151.807ZM50.5419 101.395C49.8435 101.506 49.134 101.531 48.4294 101.47C47.3544 101.257 46.8294 101.757 46.2044 102.52C41.2669 108.657 36.3669 114.757 32.7919 121.782C30.5069 125.723 28.8217 129.982 27.7919 134.42C27.6444 134.81 27.6457 135.241 27.7955 135.631C27.9454 136.02 28.2333 136.341 28.6044 136.532C32.6794 139.032 36.7294 141.532 40.7419 144.032C41.4009 144.462 41.8773 145.121 42.0794 145.882C43.0919 151.832 43.1544 157.745 43.5169 161.045C44.0544 165.945 46.6794 187.782 47.4919 193.795C47.8419 196.47 48.5169 199.095 49.0544 201.782C57.3669 200.97 59.7294 197.757 69.7044 192.157C72.4823 190.796 75.6226 190.358 78.6669 190.907C85.7044 191.67 85.3294 190.445 90.2294 189.17C90.6124 189.115 90.9676 188.938 91.2422 188.666C91.5169 188.393 91.6965 188.04 91.7544 187.657C92.3544 184.107 93.0044 180.557 93.5044 177.007C93.5104 176.493 93.3179 175.996 92.9669 175.62C90.0919 172.395 88.1294 168.832 88.5669 164.37C85.9419 164.195 83.2669 163.995 80.5919 163.857C76.7219 163.698 72.964 162.512 69.7044 160.42C65.5669 157.745 55.9544 151.307 54.3544 146.67C51.8544 139.832 52.6419 137.732 50.1044 136.057C49.5459 135.623 49.0678 135.094 48.6919 134.495C48.5053 134.172 48.3703 133.822 48.2919 133.457C49.5419 133.97 48.7169 133.307 51.2419 135.657C51.0681 134.388 50.7964 133.134 50.4294 131.907C50.4294 131.657 50.5544 131.357 50.6169 131.082C51.2044 131.357 51.5044 131.082 51.8669 132.857C53.9044 141.957 54.3669 146.895 58.1169 150.357C62.1169 154.001 66.5107 157.187 71.2169 159.857C74.8998 161.739 78.9812 162.708 83.1169 162.682C86.8669 162.832 95.5044 163.482 97.6919 160.057C101.385 154.328 104.003 147.975 105.417 141.307C105.755 140.018 105.785 138.668 105.505 137.365C105.225 136.062 104.642 134.843 103.804 133.807C101.541 130.912 99.647 127.746 98.1669 124.382C94.6044 117.082 85.4669 109.245 83.1669 106.62C82.5669 105.957 82.0794 105.782 81.3544 106.182L70.4544 112.27C69.8419 112.62 69.7794 113.032 70.1169 113.657C71.1794 115.67 73.3669 119.782 73.4294 122.057C73.5544 127.057 77.6169 127.845 78.3419 133.145C78.7419 136.032 79.4294 138.882 79.9794 141.757C80.0251 142.349 80.1469 142.933 80.3419 143.495C81.3419 145.32 82.6544 146.62 82.9419 148.157C82.9691 148.34 82.9551 148.527 82.9011 148.705C82.847 148.882 82.7542 149.045 82.6294 149.182C82.2748 149.316 81.8827 149.312 81.5308 149.171C81.1789 149.03 80.8929 148.762 80.7294 148.42C80.1215 147.274 79.6355 146.067 79.2794 144.82C78.4794 141.17 77.7294 137.507 77.2044 133.82C76.3919 128.132 72.5669 127.645 72.2044 122.42C71.9823 121.153 71.5603 119.929 70.9544 118.795C69.7044 115.957 67.1169 113.12 70.0794 110.782C63.3794 105.782 61.8294 104.845 60.7919 102.707L57.0419 102.457C54.8669 104.907 52.3419 104.545 50.5419 101.395ZM100.292 221.77C97.5169 221.957 98.6919 222.195 85.0419 221.77C79.3602 221.694 73.6931 221.176 68.0919 220.22C63.8546 219.39 59.7966 217.821 56.1044 215.582C51.5945 213.18 48.0888 209.249 46.2169 204.495C40.7419 190.87 41.8919 162.982 38.7169 148.782C38.5044 147.807 39.6794 148.97 14.2794 134.807C13.6794 137.307 13.0294 139.57 12.6294 141.857C11.4681 148.848 10.7292 155.902 10.4169 162.982C9.97104 172.696 10.5239 182.431 12.0669 192.032C12.6275 195.983 13.6469 199.855 15.1044 203.57C17.9419 210.182 23.9419 217.132 33.4794 222.082C40.6919 225.832 50.9794 227.52 59.2794 228.27C77.5544 229.907 78.7669 229.332 85.8294 229.145C90.3554 229.189 94.8628 228.561 99.2044 227.282C100.117 226.982 100.592 226.607 100.517 225.607C100.417 224.382 100.367 223.145 100.292 221.77ZM61.3544 91.9196C61.4294 91.3196 57.9044 89.0696 59.1669 84.4196C59.3091 83.8112 59.6185 83.2547 60.0603 82.8129C60.502 82.3711 61.0586 82.0617 61.6669 81.9196C62.6079 81.7161 63.4481 81.1899 64.0419 80.4321C65.8919 77.3696 66.2794 74.8071 63.9669 71.6821C63.8119 71.5438 63.6915 71.371 63.6156 71.1777C63.5396 70.9843 63.5102 70.7758 63.5296 70.569C63.5491 70.3622 63.6169 70.1628 63.7276 69.9871C63.8383 69.8113 63.9888 69.664 64.1669 69.5571C66.9294 67.0571 65.2919 64.1446 64.7794 62.3196C64.5794 61.6321 64.3044 61.2321 63.4544 61.3571C62.8544 61.4571 61.7794 60.5571 63.1544 59.7446C66.2794 57.9071 73.3544 54.6446 76.1419 49.9946C76.6544 49.1321 78.8169 47.6196 77.6169 50.2446L76.7794 52.0446C78.5419 52.4696 76.7794 52.5821 84.9294 52.2196C87.2384 52.0019 89.4457 51.1645 91.3181 49.7959C93.1905 48.4274 94.6585 46.5785 95.5669 44.4446C95.826 43.7716 95.9152 43.0452 95.8267 42.3296C95.7381 41.614 95.4746 40.9312 95.0593 40.3417C94.644 39.7521 94.0899 39.2741 93.4459 38.9497C92.8018 38.6254 92.0878 38.4648 91.3669 38.4821H90.6169C89.5419 38.3821 89.1919 37.7196 89.7669 36.8071C90.4919 35.6696 92.4169 33.6446 90.8669 31.1821C90.4719 30.3556 89.8621 29.6503 89.1013 29.1402C88.3405 28.63 87.4565 28.3337 86.5419 28.2821C80.7544 28.4696 76.6294 32.3196 76.4419 33.9321C76.2919 35.1821 75.5669 35.2446 74.5919 35.1821C65.2919 35.1571 61.2044 37.4071 52.8544 41.5946C47.6708 44.0151 43.3053 47.8941 40.2919 52.7571C34.1419 63.1696 37.5544 64.5696 36.0169 66.5071C31.5419 72.1821 29.9919 79.7946 34.0419 85.6071C36.4282 88.831 37.9591 92.6067 38.4919 96.5821C38.8169 99.4196 41.6669 101.432 44.4669 99.6446C45.8669 98.7571 47.1544 100.307 49.7419 99.9446C51.3669 99.7196 51.3544 99.5821 52.0794 101.057C52.9419 102.782 54.6794 102.995 55.7669 101.445C55.9779 101.072 56.3243 100.796 56.7341 100.672C57.1439 100.549 57.5854 100.588 57.9669 100.782C58.4794 100.957 59.2169 101.182 59.5794 100.945C60.8294 99.9321 61.8044 100.795 62.8419 101.307C63.6419 101.695 64.4544 102.045 65.3419 102.47C61.7169 96.0196 61.1044 95.2321 60.7919 93.3196C60.7794 92.8821 61.1669 92.4071 61.3544 91.9196ZM120.404 39.6071C119.992 43.8321 119.504 47.8321 119.229 51.8446C118.717 59.5571 117.317 89.1696 117.267 91.9571C117.272 92.1344 117.315 92.3085 117.392 92.468C117.47 92.6275 117.581 92.7686 117.717 92.8821C135.079 103.082 138.217 104.195 146.129 108.87C174.342 125.47 182.967 131.745 192.629 136.27C193.265 136.471 193.926 136.58 194.592 136.595C194.497 136.066 194.439 135.531 194.417 134.995C194.542 131.92 195.567 114.157 196.017 108.357C197.404 90.2446 197.529 95.9946 197.904 77.9321C197.904 76.7946 196.654 77.0946 172.904 64.2946C149.542 51.7946 136.117 47.3196 120.404 39.6071ZM64.8294 70.2696C65.4684 71.1062 66.053 71.983 66.5794 72.8946C68.1544 75.9571 67.2044 78.8071 65.5919 81.5071C65.2064 82.1429 64.6513 82.6587 63.9889 82.9965C63.3265 83.3344 62.583 83.4808 61.8419 83.4196C60.8044 83.4196 60.4544 83.8571 60.2294 84.6696C59.9775 85.8412 60.0403 87.0586 60.4113 88.198C60.7823 89.3375 61.4485 90.3585 62.3419 91.1571C62.7169 91.4446 63.4044 91.6196 62.9544 92.4071C62.8669 92.5571 63.3169 92.8571 65.9044 94.9071C65.1491 92.7642 64.5271 90.5767 64.0419 88.3571C63.8169 87.3321 64.9669 86.4071 65.9544 87.5946C67.5919 89.5571 69.8169 92.5196 71.4419 94.7196C71.4419 88.2196 70.7669 86.5321 71.8919 85.9696C72.1044 85.8696 72.5919 86.2446 72.9044 86.4821C73.1 86.69 73.2492 86.9371 73.3419 87.2071C75.6294 92.5071 75.7294 92.7946 76.3294 94.3571C76.6794 93.2071 76.3294 91.9321 76.7419 91.3196C76.9243 90.9286 77.2515 90.6238 77.6544 90.4696C77.9044 90.4696 78.3419 90.8696 78.5419 91.1821C78.9544 91.8321 78.8419 91.6446 81.8794 103.995L83.7794 104.432C84.4336 103.812 85.1547 103.267 85.9294 102.807C88.1294 101.782 93.4294 99.8321 95.4419 98.7446C95.717 98.6033 95.9579 98.4038 96.1479 98.1598C96.3379 97.9159 96.4724 97.6334 96.5419 97.3321C96.598 95.5355 96.5605 93.7372 96.4294 91.9446C96.4294 91.1696 95.9044 90.8946 95.0919 91.1696C92.8794 91.9196 90.6544 92.6071 88.4294 93.2946C87.6794 93.5321 86.7669 93.8821 86.2919 93.1071C85.9721 92.4617 85.9183 91.7167 86.1419 91.0321C86.8492 88.819 87.684 86.6487 88.6419 84.5321C89.1067 83.6496 89.8078 82.9138 90.6669 82.4071C95.0919 79.7821 97.5044 79.9071 96.4544 78.1196C95.4044 76.3321 96.5419 74.6571 98.0419 72.0071C98.441 71.4304 98.7962 70.8245 99.1044 70.1946C99.4044 69.4321 99.0044 68.9446 98.1794 68.9446C97.3544 68.9446 95.3669 69.4821 91.5919 69.8196C88.9544 70.0446 91.2044 66.8446 86.5919 58.6571C85.7544 57.1696 84.9419 55.6571 84.0919 54.1446C83.6096 54.1012 83.1243 54.1012 82.6419 54.1446C80.4729 54.547 78.2339 54.317 76.1919 53.4821C75.9794 53.3946 75.5544 53.5946 75.3169 53.7821C71.4169 56.8446 76.2044 53.5446 65.7044 60.8696C67.9169 65.9321 66.8794 68.5196 64.8294 70.2696ZM108.329 123.407C112.854 132.07 112.692 131.882 113.129 132.157C119.942 137.357 147.429 153.707 150.967 155.907C151.201 156.11 151.506 156.211 151.815 156.19C152.124 156.169 152.412 156.027 152.617 155.795C154.692 153.907 153.579 154.982 166.254 143.87C158.317 138.87 170.104 147.282 120.117 114.845C119.906 114.689 119.645 114.618 119.384 114.643C119.124 114.668 118.882 114.789 118.704 114.982L108.329 123.407ZM121.929 38.8821C149.829 52.3946 135.004 42.5571 198.179 76.2446C198.371 76.3503 198.539 76.4932 198.674 76.6649C198.81 76.8367 198.909 77.0338 198.967 77.2446C199.135 78.3948 199.198 79.5579 199.154 80.7196C197.904 102.595 197.729 101.195 197.104 108.807C196.842 112.082 195.679 134.57 195.579 136.182C196.489 135.974 197.38 135.689 198.242 135.332C198.476 135.201 198.679 135.021 198.838 134.806C198.998 134.591 199.11 134.344 199.167 134.082C203.092 94.8821 202.917 93.2321 203.629 79.4196C203.605 78.4653 203.521 77.5135 203.379 76.5696C202.129 76.9571 201.204 77.3196 200.179 77.5821C199.554 77.7321 198.842 76.9571 199.892 76.5946C200.942 76.2321 201.892 75.9946 203.142 75.6321C202.757 75.2349 202.339 74.8711 201.892 74.5446C153.679 49.3696 142.304 45.0321 127.904 38.5321C126.974 38.0321 125.922 37.8001 124.867 37.8619C123.813 37.9237 122.796 38.2769 121.929 38.8821ZM93.6544 188.732C99.0169 188.245 129.329 183.295 136.504 183.457C136.753 183.439 136.999 183.401 137.242 183.345C134.629 180.845 132.242 178.407 129.617 176.145C128.117 174.848 126.341 173.911 124.423 173.406C122.506 172.901 120.498 172.842 118.554 173.232C113.179 174.02 103.554 175.082 95.6919 175.97C95.0044 180.307 94.3294 184.507 93.6544 188.732ZM101.154 158.42C101.511 158.306 101.852 158.146 102.167 157.945C103.968 156.627 105.447 154.917 106.492 152.945C111.204 142.945 112.379 139.895 112.017 136.695C111.217 129.657 108.017 127.07 98.7794 113.57C96.2794 109.82 93.7794 106.07 92.7919 101.457C90.5799 102.195 88.4136 103.063 86.3044 104.057C84.3544 105.082 84.2919 105.932 85.6169 107.42C85.8794 107.707 86.1669 107.97 86.4294 108.257C95.8419 118.02 97.3544 118.995 99.7794 124.12C101.134 127.156 102.869 130.008 104.942 132.607C106.051 133.887 106.835 135.415 107.229 137.062C107.623 138.709 107.614 140.427 107.204 142.07C105.686 147.7 103.64 153.174 101.092 158.42H101.154ZM153.967 132.02C155.817 130.77 157.717 129.52 159.479 128.27C160.014 127.908 160.423 127.388 160.647 126.783C160.871 126.178 160.9 125.517 160.729 124.895C160.296 122.87 159.809 120.853 159.267 118.845C159.108 118.464 158.826 118.147 158.467 117.945C158.342 117.87 145.254 109.882 143.467 108.945C143.729 110.195 143.892 111.32 144.192 112.407C144.724 113.904 144.755 115.533 144.279 117.048C143.803 118.564 142.847 119.883 141.554 120.807C140.792 121.407 140.117 122.057 139.404 122.77L153.967 132.02ZM65.2169 89.1196C65.8516 92.0182 66.9942 94.7816 68.5919 97.2821C69.4919 98.5321 68.1419 98.4071 67.6794 98.0071C65.992 96.2839 64.1832 94.684 62.2669 93.2196C62.1959 93.6092 62.2483 94.0112 62.4169 94.3696C63.7001 97.3922 65.341 100.25 67.3044 102.882C67.7544 103.432 67.6794 104.32 66.5669 103.907C65.4544 103.495 64.2669 103.007 63.1294 102.532C61.9919 102.057 62.0919 102.532 62.9044 103.195C65.5669 105.445 68.2294 107.695 70.8669 109.945C73.6169 108.382 76.3669 106.732 79.2294 105.27C79.4502 105.194 79.6535 105.075 79.8273 104.92C80.001 104.764 80.1417 104.575 80.2408 104.364C80.34 104.153 80.3956 103.924 80.4044 103.691C80.4132 103.458 80.3749 103.225 80.2919 103.007C77.4794 90.5071 78.0919 91.7571 77.5669 91.7571C77.3044 94.2571 77.5669 94.1321 77.4044 96.3821C77.4044 97.4821 76.4294 97.3571 76.0919 96.7321C75.9544 96.4946 73.2044 89.4321 73.1044 89.2321C71.7669 85.8071 72.4794 89.9571 72.7044 95.8321C72.7044 97.2571 71.6544 97.0071 71.1919 96.3821C70.1169 94.9321 69.1419 93.4196 68.0919 91.9571C67.4044 91.0196 66.8419 89.6821 66.0794 88.6571C65.8544 88.4196 64.7544 87.7196 65.1169 89.1196H65.2169ZM39.2919 147.282C39.6683 148.412 39.9731 149.564 40.2044 150.732C42.6169 168.232 42.7044 181.295 44.7544 194.282C45.3982 197.66 46.2329 200.999 47.2544 204.282C47.5697 205.096 47.9676 205.875 48.4419 206.607C44.9419 186.445 42.7919 166.157 41.2294 145.67L39.2919 147.282ZM113.267 133.882C113.371 134.406 113.438 134.936 113.467 135.47C113.455 135.801 113.538 136.129 113.706 136.415C113.875 136.7 114.121 136.932 114.417 137.082C126.642 144.757 151.329 159.42 151.454 159.495C151.454 158.032 151.617 157.295 150.954 156.907C136.179 148.22 150.292 156.982 113.267 133.882ZM15.4419 133.657C40.0044 147.407 38.3294 147.232 39.0419 146.282C39.4348 145.803 39.852 145.344 40.2919 144.907L17.5669 131.295L15.4419 133.657ZM166.779 144.707C150.854 158.632 151.779 156.32 152.579 159.62C153.829 158.695 162.829 152.12 166.104 149.62C167.217 148.82 166.954 148.557 166.779 144.695V144.707ZM160.604 119.257C162.354 124.882 163.529 127.295 158.742 130.382L154.992 132.682C154.66 132.957 154.419 133.327 154.3 133.742C154.182 134.157 154.192 134.598 154.329 135.007C160.229 131.62 163.267 131.77 163.892 129.22C164.455 126.439 164.177 123.554 163.092 120.932C163.004 120.507 162.442 120.295 160.604 119.245V119.257ZM153.642 133.182L138.404 123.432L138.017 124.557L153.142 134.12L153.642 133.182Z" fill="#282828"/>
<path d="M198.604 164.657C200.479 163.407 202.042 164.182 203.292 165.27C203.997 165.843 204.532 166.597 204.84 167.452C205.149 168.306 205.218 169.229 205.042 170.12C204.517 173.07 202.417 174.845 200.042 176.257C199.339 176.577 198.717 177.049 198.22 177.639C197.722 178.23 197.363 178.923 197.167 179.67C196.992 180.363 196.61 180.987 196.071 181.458C195.533 181.929 194.865 182.225 194.154 182.307C191.217 182.92 188.317 183.257 185.404 181.92C179.867 179.345 182.204 173.395 182.904 162.582C182.924 161.835 183.125 161.104 183.488 160.451C183.852 159.798 184.368 159.243 184.992 158.832C188.617 156.495 192.279 156.22 195.967 158.457C196.868 159.027 197.585 159.847 198.029 160.817C198.472 161.787 198.625 162.865 198.467 163.92C198.654 164.095 198.629 164.27 198.604 164.657ZM184.042 166.045C183.548 169.702 183.381 173.395 183.542 177.082C183.559 177.792 183.772 178.483 184.158 179.079C184.544 179.675 185.088 180.152 185.729 180.457C188.073 181.659 190.77 181.979 193.329 181.357C198.067 180.582 196.704 175.707 197.604 163.132C194.417 167.932 190.017 168.907 184.042 166.045ZM184.517 163.732C188.192 158.732 192.367 161.957 195.342 163.582C195.569 163.372 195.75 163.116 195.874 162.832C195.998 162.548 196.062 162.242 196.062 161.932C196.062 161.622 195.998 161.316 195.874 161.032C195.75 160.748 195.569 160.493 195.342 160.282C193.292 157.657 189.229 158.195 186.304 159.857C185.592 160.184 185.017 160.752 184.681 161.46C184.345 162.169 184.269 162.973 184.467 163.732H184.517ZM194.517 164.395C190.042 160.895 186.292 161.82 185.204 164.757C187.517 166.957 191.542 166.495 194.504 164.395H194.517ZM198.267 176.22C200.393 175.266 202.171 173.677 203.354 171.67C204.604 169.495 203.779 166.232 201.529 165.482C200.829 165.257 200.192 164.957 199.554 165.482C199.183 165.71 198.891 166.048 198.718 166.448C198.546 166.849 198.502 167.293 198.592 167.72C198.948 167.55 199.342 167.479 199.734 167.513C200.127 167.548 200.503 167.686 200.824 167.914C201.145 168.142 201.399 168.451 201.561 168.811C201.722 169.17 201.785 169.566 201.742 169.957C201.809 170.899 201.589 171.839 201.112 172.653C200.634 173.467 199.921 174.118 199.067 174.52C198.242 174.907 197.904 175.27 198.217 176.22H198.267ZM198.142 173.72C198.955 173.411 199.645 172.847 200.11 172.112C200.574 171.377 200.787 170.511 200.717 169.645C200.529 168.632 199.704 168.107 199.142 168.695C198.092 169.732 198.292 170.445 198.092 173.732L198.142 173.72Z" fill="#282828"/>
<path d="M240.692 166.282C237.929 169.245 235.029 172.095 232.104 174.907C230.942 176.032 230.592 176.07 229.229 175.107C223.204 170.832 222.979 170.395 209.067 157.032C207.529 155.557 206.404 154.845 206.904 152.932C207.46 151.114 208.523 149.493 209.967 148.257C213.017 145.407 215.954 142.457 219.029 139.632C219.297 139.467 219.599 139.368 219.913 139.344C220.226 139.32 220.54 139.372 220.829 139.495C221.665 139.943 222.425 140.521 223.079 141.207C223.604 141.745 240.317 158.495 240.817 159.145C242.379 161.232 243.117 163.657 240.692 166.282ZM240.692 160.57C234.734 153.737 228.386 147.256 221.679 141.157C220.354 140.02 220.054 139.782 219.179 140.532C218.492 141.095 214.179 145.407 209.179 150.195C209.014 150.296 208.877 150.439 208.783 150.608C208.688 150.778 208.638 150.969 208.638 151.163C208.638 151.358 208.688 151.549 208.783 151.718C208.877 151.888 209.014 152.03 209.179 152.132C226.154 168.62 222.504 165.42 229.554 171.107C229.739 171.265 229.954 171.382 230.187 171.453C230.419 171.524 230.663 171.547 230.904 171.52C231.576 171.297 232.182 170.91 232.667 170.395C241.404 160.645 240.167 161.732 240.742 160.57H240.692ZM207.829 152.245C207.092 154.27 207.142 154.47 208.992 155.995C209.754 156.645 217.192 163.957 222.817 169.132C224.892 171.032 227.217 172.657 229.454 174.37C229.847 174.574 230.269 174.718 230.704 174.795C230.704 174.032 230.704 173.07 230.792 172.532C230.192 172.732 229.654 172.207 229.192 171.845C225.292 168.657 226.317 169.545 207.879 152.245H207.829ZM231.792 174.345C234.829 171.345 237.954 168.095 240.642 164.957C240.988 164.511 241.224 163.991 241.333 163.438C241.441 162.884 241.419 162.313 241.267 161.77C237.154 167.295 234.429 170.432 231.642 172.27C231.768 172.954 231.835 173.648 231.842 174.345H231.792Z" fill="#282828"/>
<path d="M162.079 164.194C162.004 162.76 162.343 161.335 163.054 160.087C163.765 158.84 164.82 157.823 166.092 157.157C168.892 155.607 171.729 154.432 175.142 155.382C175.982 155.635 176.691 156.203 177.122 156.967C177.553 157.731 177.672 158.632 177.454 159.482C176.825 162.265 175.231 164.736 172.954 166.457C171.608 167.819 169.906 168.776 168.042 169.219C167.303 169.412 166.528 169.425 165.783 169.256C165.038 169.087 164.344 168.742 163.76 168.25C163.176 167.758 162.718 167.133 162.426 166.427C162.134 165.721 162.015 164.956 162.079 164.194ZM175.029 156.919C174.254 157.832 173.492 158.807 172.642 159.694C172.204 160.144 170.992 159.907 171.817 158.919C172.642 157.932 173.229 157.394 174.079 156.507C173.317 156.399 172.542 156.399 171.779 156.507C170.011 157.075 168.282 157.76 166.604 158.557C165.629 159.012 164.81 159.744 164.25 160.662C163.689 161.581 163.413 162.644 163.454 163.719C163.454 166.907 164.779 168.719 168.367 167.657C169.758 167.155 171.034 166.377 172.117 165.369C173.961 163.963 175.303 161.999 175.942 159.769C176.142 159.262 176.161 158.701 175.994 158.182C175.828 157.662 175.487 157.216 175.029 156.919Z" fill="#282828"/>
<path d="M193.317 86.4821C192.904 94.1946 191.479 117.732 191.092 122.395C190.982 123.661 190.765 124.915 190.442 126.145C190.079 127.545 189.079 128.107 187.792 127.457C183.767 125.445 179.704 123.445 175.817 121.207C166.142 115.57 125.604 91.4446 124.954 91.0946C124.538 90.897 124.189 90.5799 123.954 90.1837C123.718 89.7875 123.605 89.3301 123.629 88.8696C123.442 71.5196 123.117 81.2446 124.267 52.8571C124.264 51.8703 124.331 50.8846 124.467 49.9071C124.742 48.3821 125.717 47.7196 127.154 48.3071C130.904 49.9196 134.654 51.5321 138.404 53.3071C147.154 57.6321 186.342 77.9321 189.329 79.5571C192.317 81.1821 193.904 83.6571 193.317 86.4821ZM124.692 86.6446C124.692 88.6446 125.029 90.2572 127.192 90.8196C127.292 90.8196 127.367 90.9321 127.467 90.9821C188.354 126.782 188.467 127.607 188.954 125.532C189.667 122.52 191.767 90.0071 191.879 87.0821C191.879 85.5446 192.479 83.7821 191.042 82.5821C189.676 81.3659 188.18 80.3052 186.579 79.4196C179.229 75.5696 139.317 55.6696 126.754 49.4196C126.154 49.1321 125.879 49.4196 125.729 49.8821C124.967 52.6196 124.692 86.5071 124.692 86.6446Z" fill="#282828"/>
<path d="M151.542 108.732C151.552 109.03 151.445 109.32 151.244 109.539C151.043 109.759 150.764 109.891 150.467 109.907C148.929 110.082 148.167 106.97 150.192 106.97C150.992 106.97 151.542 107.52 151.542 108.732Z" fill="#282828"/>
<path d="M80.1294 70.7071C80.0475 70.9679 79.8959 71.2014 79.691 71.3823C79.486 71.5632 79.2356 71.6847 78.9666 71.7336C78.6977 71.7825 78.4204 71.757 78.1649 71.6598C77.9094 71.5626 77.6854 71.3974 77.5169 71.1821C76.6111 70.0494 75.9963 68.7122 75.7261 67.2872C75.4559 65.8622 75.5386 64.3928 75.9669 63.0071C76.1169 62.4696 76.7919 61.7571 77.2169 61.7571C79.7294 61.7071 80.8669 68.4196 80.1294 70.7071ZM77.4794 63.9571C76.6294 64.1071 77.8669 69.8821 78.6544 69.6946C79.4419 69.5071 78.3294 63.8071 77.4794 63.9571Z" fill="#282828"/>
<path d="M76.1669 58.0446C74.6419 59.8321 73.0794 61.5946 71.5044 63.3446C70.4544 64.5196 69.1669 63.4821 70.1544 62.3946C71.9044 60.4571 73.6419 58.5196 75.4169 56.6196C76.3044 55.6696 77.3419 56.6821 76.1669 58.0446Z" fill="#282828"/>
<path d="M157.567 124.219C156.417 123.044 148.517 119.394 147.292 118.819C145.779 118.107 145.967 119.057 146.154 119.144L156.979 124.919C157.867 125.369 157.904 124.557 157.567 124.219Z" fill="#282828"/>
<path d="M229.167 169.195C221.867 162.832 228.654 169.195 211.367 152.07C211.246 151.983 211.147 151.868 211.079 151.736C211.01 151.603 210.975 151.456 210.975 151.307C210.975 151.158 211.01 151.011 211.079 150.878C211.147 150.746 211.246 150.631 211.367 150.545C214.104 147.732 216.854 144.957 219.579 142.132C219.678 141.998 219.807 141.889 219.956 141.813C220.105 141.738 220.269 141.699 220.436 141.699C220.602 141.699 220.767 141.738 220.916 141.813C221.064 141.889 221.193 141.998 221.292 142.132C231.042 151.607 227.742 148.382 237.229 158.232C238.279 159.32 238.279 159.595 237.229 160.732C228.517 170.045 230.379 168.145 229.167 169.195ZM237.467 159.345C231.829 153.57 225.929 148.257 220.392 142.582L211.479 151.082C216.989 157.144 222.885 162.843 229.129 168.145L237.467 159.345Z" fill="#282828"/>
<path d="M234.179 165.67C234.292 164.27 235.779 163.77 235.879 165.282C235.979 166.795 234.042 167.145 234.179 165.67Z" fill="#282828"/>
<path d="M159.629 62.1071C160.196 62.1071 160.654 61.6482 160.654 61.0821C160.654 60.516 160.196 60.0571 159.629 60.0571C159.063 60.0571 158.604 60.516 158.604 61.0821C158.604 61.6482 159.063 62.1071 159.629 62.1071Z" fill="#282828"/>
</svg>
