<svg width="36" height="36" viewBox="0 0 36 36" fill="none" xmlns="http://www.w3.org/2000/svg">
<path d="M31.8009 26.6543L28.9719 21.7125C28.9454 21.668 28.9079 21.6311 28.8629 21.6055C28.8179 21.5799 28.767 21.5664 28.7152 21.5664C28.6634 21.5664 28.6126 21.5799 28.5676 21.6055C28.5226 21.6311 28.485 21.668 28.4586 21.7125C27.0078 23.914 24.8853 25.5886 22.4067 26.4872C22.3655 26.5021 22.3282 26.5259 22.2972 26.5568C22.2663 26.5877 22.2425 26.6251 22.2276 26.6663C22.2067 26.7047 22.1958 26.7478 22.1958 26.7916C22.1958 26.8354 22.2067 26.8785 22.2276 26.9169L24.615 30.9157C24.7304 31.1101 24.8988 31.2678 25.1003 31.3702C25.3019 31.4727 25.5284 31.5158 25.7535 31.4946C25.9786 31.4733 26.1931 31.3886 26.3719 31.2502C26.5507 31.1117 26.6866 30.9254 26.7636 30.7128L27.7543 27.9793L30.6072 28.4568C30.8321 28.4981 31.0642 28.474 31.2758 28.3872C31.4875 28.3005 31.6697 28.1547 31.8009 27.9674C31.9292 27.7725 31.9976 27.5442 31.9976 27.3108C31.9976 27.0775 31.9292 26.8492 31.8009 26.6543Z" fill="#282828"/>
<path d="M8.04691 21.6649C8.01607 21.6291 7.97745 21.6008 7.93401 21.5822C7.89057 21.5636 7.84345 21.5552 7.79624 21.5575C7.74552 21.5571 7.69558 21.5701 7.65154 21.5953C7.6075 21.6204 7.57093 21.6568 7.54557 21.7008L4.65689 26.6545C4.5447 26.8511 4.49073 27.0756 4.5013 27.3018C4.51187 27.5279 4.58653 27.7464 4.71658 27.9317C4.84775 28.1191 5.02998 28.2648 5.2416 28.3516C5.45322 28.4383 5.6853 28.4625 5.91025 28.4211L8.76311 27.9436L9.75386 30.6771C9.83088 30.8897 9.96671 31.0761 10.1455 31.2145C10.3243 31.3529 10.5388 31.4377 10.7639 31.4589C10.989 31.4802 11.2156 31.4371 11.4171 31.3346C11.6187 31.2321 11.787 31.0745 11.9025 30.8801L14.2898 26.8693C14.3107 26.8309 14.3216 26.7878 14.3216 26.744C14.3216 26.7002 14.3107 26.6571 14.2898 26.6187C14.2559 26.5378 14.1916 26.4735 14.1107 26.4396C11.6294 25.5402 9.5033 23.8661 8.04691 21.6649Z" fill="#282828"/>
<path d="M28.6973 14.9446C28.6973 12.8798 28.0853 10.8614 26.9387 9.14436C25.7921 7.42727 24.1623 6.08855 22.2552 5.29733C20.3481 4.50611 18.2492 4.29788 16.2238 4.69896C14.1984 5.10003 12.3373 6.09241 10.8757 7.55073C9.41405 9.00905 8.41742 10.8679 8.01172 12.8923C7.60602 14.9168 7.80946 17.0161 8.59632 18.925C9.38319 20.8339 10.7182 22.4668 12.4326 23.6173C14.1471 24.7679 16.1641 25.3844 18.2288 25.3892C19.602 25.3907 20.962 25.1218 22.2313 24.5978C23.5005 24.0737 24.6541 23.3048 25.6262 22.335C26.5983 21.3651 27.3698 20.2133 27.8968 18.9452C28.4237 17.6772 28.6957 16.3177 28.6973 14.9446ZM16.0802 18.5256L14.0152 16.5322C13.8475 16.3643 13.7534 16.1367 13.7534 15.8995C13.7534 15.6623 13.8475 15.4347 14.0152 15.2669C14.0975 15.1824 14.1959 15.1153 14.3045 15.0694C14.4132 15.0236 14.5299 15 14.6478 15C14.7658 15 14.8825 15.0236 14.9911 15.0694C15.0998 15.1153 15.1982 15.1824 15.2805 15.2669L17.3455 17.3319L21.8098 11.5068C21.8786 11.4068 21.967 11.3217 22.0696 11.2569C22.1722 11.1921 22.287 11.1488 22.4069 11.1297C22.5267 11.1106 22.6493 11.1161 22.767 11.1458C22.8847 11.1756 22.9951 11.2289 23.0915 11.3027C23.1879 11.3764 23.2684 11.469 23.3279 11.5748C23.3874 11.6806 23.4248 11.7974 23.4378 11.9181C23.4508 12.0388 23.4391 12.1608 23.4034 12.2769C23.3677 12.3929 23.3088 12.5005 23.2303 12.593L18.7779 18.4062C18.6255 18.6139 18.4295 18.7857 18.2037 18.9096C17.9779 19.0335 17.7278 19.1066 17.4707 19.1236C17.2137 19.1407 16.9561 19.1013 16.7159 19.0083C16.4757 18.9153 16.2587 18.7709 16.0802 18.5853V18.5256Z" fill="#282828"/>
</svg>
