<svg width="36" height="36" viewBox="0 0 36 36" fill="none" xmlns="http://www.w3.org/2000/svg">
<path fill-rule="evenodd" clip-rule="evenodd" d="M10.6875 4.5C10.0662 4.5 9.5625 5.00368 9.5625 5.625V7.3125H26.4375V5.625C26.4375 5.00368 25.9338 4.5 25.3125 4.5H10.6875ZM7.875 11.25H6.75C6.12868 11.25 5.625 10.7463 5.625 10.125C5.625 9.50368 6.12868 9 6.75 9H29.25C29.8713 9 30.375 9.50368 30.375 10.125C30.375 10.7463 29.8713 11.25 29.25 11.25H28.125V29.25H30.375C30.9963 29.25 31.5 29.7537 31.5 30.375C31.5 30.9963 30.9963 31.5 30.375 31.5H20.25V28.125C20.25 26.8823 19.2427 25.875 18 25.875C16.7573 25.875 15.75 26.8823 15.75 28.125V31.5H5.625C5.00368 31.5 4.5 30.9963 4.5 30.375C4.5 29.7537 5.00368 29.25 5.625 29.25H7.875V11.25ZM12.375 11.5312C12.841 11.5312 13.2188 11.909 13.2188 12.375V13.5C13.2188 13.966 12.841 14.3438 12.375 14.3438C11.909 14.3438 11.5312 13.966 11.5312 13.5V12.375C11.5312 11.909 11.909 11.5312 12.375 11.5312ZM18.8438 12.375C18.8438 11.909 18.466 11.5312 18 11.5312C17.534 11.5312 17.1562 11.909 17.1562 12.375V13.5C17.1562 13.966 17.534 14.3438 18 14.3438C18.466 14.3438 18.8438 13.966 18.8438 13.5V12.375ZM23.625 11.5312C24.091 11.5312 24.4688 11.909 24.4688 12.375V13.5C24.4688 13.966 24.091 14.3438 23.625 14.3438C23.159 14.3438 22.7812 13.966 22.7812 13.5V12.375C22.7812 11.909 23.159 11.5312 23.625 11.5312ZM13.2188 16.875C13.2188 16.409 12.841 16.0312 12.375 16.0312C11.909 16.0312 11.5312 16.409 11.5312 16.875V18C11.5312 18.466 11.909 18.8438 12.375 18.8438C12.841 18.8438 13.2188 18.466 13.2188 18V16.875ZM12.375 20.5312C12.841 20.5312 13.2188 20.909 13.2188 21.375V22.5C13.2188 22.966 12.841 23.3438 12.375 23.3438C11.909 23.3438 11.5312 22.966 11.5312 22.5V21.375C11.5312 20.909 11.909 20.5312 12.375 20.5312ZM13.2188 25.875C13.2188 25.409 12.841 25.0312 12.375 25.0312C11.909 25.0312 11.5312 25.409 11.5312 25.875V27C11.5312 27.466 11.909 27.8438 12.375 27.8438C12.841 27.8438 13.2188 27.466 13.2188 27V25.875ZM18 16.0312C18.466 16.0312 18.8438 16.409 18.8438 16.875V18C18.8438 18.466 18.466 18.8438 18 18.8438C17.534 18.8438 17.1562 18.466 17.1562 18V16.875C17.1562 16.409 17.534 16.0312 18 16.0312ZM18.8438 21.375C18.8438 20.909 18.466 20.5312 18 20.5312C17.534 20.5312 17.1562 20.909 17.1562 21.375V22.5C17.1562 22.966 17.534 23.3438 18 23.3438C18.466 23.3438 18.8438 22.966 18.8438 22.5V21.375ZM23.625 16.0312C24.091 16.0312 24.4688 16.409 24.4688 16.875V18C24.4688 18.466 24.091 18.8438 23.625 18.8438C23.159 18.8438 22.7812 18.466 22.7812 18V16.875C22.7812 16.409 23.159 16.0312 23.625 16.0312ZM24.4688 21.375C24.4688 20.909 24.091 20.5312 23.625 20.5312C23.159 20.5312 22.7812 20.909 22.7812 21.375V22.5C22.7812 22.966 23.159 23.3438 23.625 23.3438C24.091 23.3438 24.4688 22.966 24.4688 22.5V21.375ZM23.625 25.0312C24.091 25.0312 24.4688 25.409 24.4688 25.875V27C24.4688 27.466 24.091 27.8438 23.625 27.8438C23.159 27.8438 22.7812 27.466 22.7812 27V25.875C22.7812 25.409 23.159 25.0312 23.625 25.0312Z" fill="#282828"/>
</svg>
