<svg width="36" height="36" viewBox="0 0 36 36" fill="none" xmlns="http://www.w3.org/2000/svg">
<path d="M22.7983 12.5801C21.4312 11.7191 19.8452 11.2343 18.203 11.1973C15.8161 11.1436 13.5055 12.0403 11.7797 13.6902C10.0539 15.34 9.05422 17.6079 9.0005 19.9948C8.96989 20.2159 8.98901 20.4411 9.05648 20.6539C9.12395 20.8666 9.23807 21.0618 9.3905 21.2248C9.53779 21.3895 9.71809 21.5214 9.91966 21.6118C10.1212 21.7023 10.3396 21.7492 10.5605 21.7498H13.6407C13.6743 21.7081 13.7105 21.6679 13.7492 21.6292L22.7983 12.5801Z" fill="#282828"/>
<path d="M25.0378 14.5833L17.8711 21.7498H25.7105C25.885 21.7495 26.0575 21.7135 26.2175 21.6438C26.3774 21.5742 26.5214 21.4723 26.6405 21.3448C26.7604 21.2191 26.854 21.0709 26.9158 20.9086C26.9776 20.7463 27.0064 20.5734 27.0005 20.3998C27.0271 19.218 26.8207 18.0424 26.3929 16.9402C26.0626 16.0891 25.6052 15.2946 25.0378 14.5833Z" fill="#282828"/>
<path fill-rule="evenodd" clip-rule="evenodd" d="M23.2353 5.25C23.2353 8.1495 20.8848 10.5 17.9853 10.5C15.0858 10.5 12.7354 8.1495 12.7354 5.25C12.7354 2.3505 15.0858 0 17.9853 0C20.8848 0 23.2353 2.3505 23.2353 5.25ZM15.1734 4.79998C15.1806 4.75422 15.1995 4.71126 15.2279 4.67545C15.2562 4.63963 15.2931 4.61223 15.335 4.59598C15.3752 4.57176 15.4211 4.55901 15.4676 4.55901C15.5142 4.55901 15.56 4.57176 15.6003 4.59598C16.6976 5.27058 17.9487 5.62695 19.2234 5.62798C19.6533 5.62687 20.0823 5.58267 20.5041 5.49598C20.5499 5.48749 20.597 5.49063 20.6412 5.50512C20.6856 5.51961 20.7258 5.54502 20.7587 5.57919C20.7915 5.61336 20.816 5.65528 20.8299 5.70138C20.8439 5.74749 20.8469 5.7964 20.8388 5.84398C20.7744 6.63963 20.4089 7.37614 19.8225 7.8915C19.2362 8.40684 18.4769 8.65881 17.7119 8.59198C16.9467 8.52514 16.2386 8.14498 15.7431 7.53511C15.2475 6.92524 15.0053 6.13563 15.0695 5.33998C15.0869 5.15685 15.1215 4.97595 15.1734 4.79998Z" fill="#282828"/>
<path fill-rule="evenodd" clip-rule="evenodd" d="M34.0606 24.4394C34.3419 24.7206 34.5 25.1022 34.5 25.5C34.5 25.8978 34.3419 26.2794 34.0606 26.5606C33.7794 26.8419 33.3978 27 33 27H31.5C31.4202 27.0063 31.3443 27.0371 31.2825 27.0881C31.2208 27.1391 31.1763 27.2079 31.155 27.285L29.265 34.785C29.1828 35.1179 28.9891 35.4124 28.7163 35.6199C28.4433 35.8273 28.1076 35.9351 27.765 35.925H8.265C7.92236 35.9351 7.58661 35.8273 7.31369 35.6199C7.04078 35.4124 6.84713 35.1179 6.765 34.785L4.875 27.285C4.85211 27.2031 4.80307 27.1309 4.73538 27.0795C4.66769 27.028 4.58504 27.0001 4.5 27H3C2.60217 27 2.22064 26.8419 1.93933 26.5606C1.65804 26.2794 1.5 25.8978 1.5 25.5C1.5 25.1022 1.65804 24.7206 1.93933 24.4394C2.22064 24.1581 2.60217 24 3 24H33C33.3978 24 33.7794 24.1581 34.0606 24.4394ZM17.9993 32.625C19.2418 32.625 20.2493 31.6176 20.2493 30.375C20.2493 29.1324 19.2418 28.125 17.9993 28.125C16.7566 28.125 15.7493 29.1324 15.7493 30.375C15.7493 31.6176 16.7566 32.625 17.9993 32.625Z" fill="#282828"/>
</svg>
