<svg width="36" height="36" viewBox="0 0 36 36" fill="none" xmlns="http://www.w3.org/2000/svg">
<path d="M28.5295 23.2195L28.1245 21.5546C28.0135 21.1015 27.7536 20.6988 27.3864 20.4112C27.0192 20.1235 26.566 19.9676 26.0995 19.9684H21.1496V16.7959C21.1499 16.6458 21.1078 16.4985 21.0282 16.3712C20.9486 16.2439 20.8348 16.1415 20.6997 16.076C20.5043 15.9762 20.2902 15.9186 20.0712 15.907C19.8522 15.8954 19.6332 15.9299 19.4284 16.0085C16.8479 17.2762 14.7823 19.3935 13.5786 22.0046H12.4536C12.4652 22.1468 12.4652 22.2898 12.4536 22.432V28.9231C12.4652 29.1029 12.4652 29.2833 12.4536 29.4631H13.5786C16.3251 30.827 19.3544 31.5246 22.4209 31.4993C22.7573 31.5031 23.0897 31.4252 23.3895 31.2724C23.6892 31.1196 23.9475 30.8963 24.1421 30.6218L28.192 24.997C28.3762 24.7441 28.502 24.4535 28.5604 24.1462C28.6187 23.8388 28.6082 23.5223 28.5295 23.2195Z" fill="#282828"/>
<path d="M23.3095 15.4122V18.2809H26.0769C26.53 18.2787 26.9798 18.3588 27.4044 18.5172V15.6035C28.5877 15.234 29.622 14.496 30.3564 13.4973C31.0908 12.4986 31.4869 11.2914 31.4869 10.0517C31.4869 8.81207 31.0908 7.60484 30.3564 6.60613C29.622 5.60743 28.5877 4.8695 27.4044 4.5V10.0574C27.4044 10.5228 27.2195 10.9692 26.8903 11.2983C26.5612 11.6274 26.1149 11.8123 25.6494 11.8123C25.184 11.8123 24.7376 11.6274 24.4085 11.2983C24.0793 10.9692 23.8945 10.5228 23.8945 10.0574V4.5C22.7582 4.85333 21.7573 5.54606 21.0263 6.48506C20.2954 7.42407 19.8694 8.56435 19.8057 9.75261C19.742 10.9409 20.0436 12.1201 20.67 13.1319C21.2964 14.1437 22.2175 14.9394 23.3095 15.4122Z" fill="#282828"/>
<path d="M9.42738 21.0259H4.5V30.3744H9.42738C9.61205 30.3744 9.7949 30.338 9.96551 30.2674C10.1361 30.1967 10.2911 30.0931 10.4217 29.9625C10.5523 29.832 10.6559 29.6769 10.7266 29.5063C10.7972 29.3357 10.8336 29.1529 10.8336 28.9682V22.4321C10.8336 22.2474 10.7972 22.0646 10.7266 21.894C10.6559 21.7233 10.5523 21.5683 10.4217 21.4377C10.2911 21.3072 10.1361 21.2036 9.96551 21.1329C9.7949 21.0623 9.61205 21.0259 9.42738 21.0259Z" fill="#282828"/>
</svg>
