<svg width="36" height="36" viewBox="0 0 36 36" fill="none" xmlns="http://www.w3.org/2000/svg">
<path d="M21.7681 3H5.15421C4.8672 2.99992 4.58307 3.05824 4.31851 3.17152C4.05396 3.28481 3.81432 3.45077 3.61368 3.65967C3.41304 3.86856 3.25544 4.11616 3.15015 4.38793C3.04486 4.6597 2.994 4.95015 3.00056 5.24221V26.537C3.00056 27.1183 3.22746 27.6759 3.63135 28.087C4.03524 28.4981 4.58303 28.7291 5.15421 28.7291H13.1535C13.3983 28.7291 13.633 28.6301 13.8061 28.4539C13.9792 28.2777 14.0765 28.0387 14.0765 27.7896C14.0765 27.5404 13.9792 27.3015 13.8061 27.1253C13.633 26.9491 13.3983 26.8501 13.1535 26.8501H5.15421C5.07261 26.8501 4.99436 26.8171 4.93666 26.7584C4.87896 26.6997 4.84655 26.62 4.84655 26.537V5.24221C4.84655 5.15916 4.87896 5.0795 4.93666 5.02078C4.99436 4.96205 5.07261 4.92905 5.15421 4.92905H21.7681C21.8497 4.92905 21.9279 4.96205 21.9856 5.02078C22.0433 5.0795 22.0757 5.15916 22.0757 5.24221V12.1317C22.0757 12.3809 22.173 12.6198 22.3461 12.796C22.5192 12.9722 22.7539 13.0712 22.9987 13.0712C23.2435 13.0712 23.4783 12.9722 23.6514 12.796C23.8245 12.6198 23.9217 12.3809 23.9217 12.1317V5.24221C23.9266 4.9506 23.8746 4.6609 23.7687 4.38989C23.6628 4.11888 23.5052 3.87195 23.3048 3.6634C23.1045 3.45485 22.8656 3.28883 22.6018 3.17496C22.338 3.06108 22.0546 3.00161 21.7681 3Z" fill="#282828"/>
<path d="M18.0759 11.2048H14.3839C14.1391 11.2048 13.9044 11.3038 13.7313 11.48C13.5582 11.6562 13.4609 11.8951 13.4609 12.1443C13.4609 12.3935 13.5582 12.6324 13.7313 12.8086C13.9044 12.9848 14.1391 13.0838 14.3839 13.0838H18.0759C18.3207 13.0838 18.5555 12.9848 18.7285 12.8086C18.9016 12.6324 18.9989 12.3935 18.9989 12.1443C18.9989 11.8951 18.9016 11.6562 18.7285 11.48C18.5555 11.3038 18.3207 11.2048 18.0759 11.2048Z" fill="#282828"/>
<path d="M10.9874 8.76221H7.93537C7.51397 8.76221 7.17236 9.10992 7.17236 9.53884V13.422C7.17236 13.8509 7.51397 14.1986 7.93537 14.1986H10.9874C11.4088 14.1986 11.7504 13.8509 11.7504 13.422V9.53884C11.7504 9.10992 11.4088 8.76221 10.9874 8.76221Z" fill="#282828"/>
<path d="M10.9874 17.6306H7.93537C7.51397 17.6306 7.17236 17.9783 7.17236 18.4072V22.2904C7.17236 22.7193 7.51397 23.067 7.93537 23.067H10.9874C11.4088 23.067 11.7504 22.7193 11.7504 22.2904V18.4072C11.7504 17.9783 11.4088 17.6306 10.9874 17.6306Z" fill="#282828"/>
<path d="M24.2171 25.7228C25.3046 25.7228 26.1861 24.8255 26.1861 23.7186C26.1861 22.6117 25.3046 21.7144 24.2171 21.7144C23.1296 21.7144 22.248 22.6117 22.248 23.7186C22.248 24.8255 23.1296 25.7228 24.2171 25.7228Z" fill="#282828"/>
<path d="M31.7855 21.8771C32.1219 21.5042 32.3326 21.0318 32.3871 20.5286C32.4416 20.0255 32.3371 19.5177 32.0888 19.0791C31.8404 18.6405 31.4611 18.294 31.006 18.0898C30.5509 17.8857 30.0437 17.8345 29.5581 17.9439L27.6998 18.3823C27.5547 18.417 27.4021 18.3934 27.2737 18.3164C27.1453 18.2394 27.051 18.1149 27.0106 17.9689L26.4445 16.1025C26.2973 15.6199 26.0023 15.198 25.6026 14.8983C25.2029 14.5987 24.7196 14.437 24.2232 14.437C23.7268 14.437 23.2434 14.5987 22.8437 14.8983C22.444 15.198 22.149 15.6199 22.0018 16.1025L21.3988 18.0315C21.3584 18.1775 21.2641 18.302 21.1357 18.379C21.0074 18.456 20.8547 18.4796 20.7096 18.4449L18.9375 17.9439C18.4519 17.8345 17.9447 17.8857 17.4896 18.0898C17.0345 18.294 16.6552 18.6405 16.4068 19.0791C16.1584 19.5177 16.0539 20.0255 16.1084 20.5286C16.163 21.0318 16.3737 21.5042 16.71 21.8771L18.0145 23.3051C18.1157 23.4182 18.1718 23.5656 18.1718 23.7185C18.1718 23.8714 18.1157 24.0188 18.0145 24.1319L16.6608 25.5473C16.3106 25.9217 16.0897 26.402 16.0315 26.9155C15.9733 27.429 16.0809 27.9479 16.3381 28.3936C16.5953 28.8393 16.9881 29.1877 17.4571 29.3861C17.926 29.5845 18.4457 29.622 18.9375 29.4931L20.7958 29.0547C20.9409 29.02 21.0935 29.0436 21.2219 29.1206C21.3503 29.1976 21.4445 29.3221 21.485 29.4681L22.0511 31.3345C22.1983 31.817 22.4933 32.239 22.8929 32.5386C23.2926 32.8383 23.776 33 24.2724 33C24.7688 33 25.2522 32.8383 25.6519 32.5386C26.0515 32.239 26.3465 31.817 26.4937 31.3345L27.0598 29.4681C27.1003 29.3221 27.1945 29.1976 27.3229 29.1206C27.4513 29.0436 27.6039 29.02 27.749 29.0547L29.6073 29.4931C30.0912 29.5915 30.5934 29.5315 31.0418 29.3217C31.4902 29.1119 31.8619 28.763 32.1037 28.3251C32.3454 27.8871 32.4449 27.3826 32.3877 26.8836C32.3306 26.3847 32.1198 25.9169 31.7855 25.5473L30.481 24.1193C30.3799 24.0063 30.3238 23.8589 30.3238 23.706C30.3238 23.553 30.3799 23.4056 30.481 23.2926L31.7855 21.8771ZM24.217 27.7144C23.4411 27.7119 22.6833 27.4754 22.0393 27.0349C21.3954 26.5943 20.8941 25.9694 20.5988 25.239C20.3036 24.5086 20.2276 23.7056 20.3805 22.9313C20.5333 22.157 20.9082 21.4461 21.4577 20.8886C22.0072 20.331 22.7068 19.9516 23.4679 19.7985C24.2291 19.6453 25.0179 19.7252 25.7345 20.028C26.4511 20.3308 27.0635 20.8429 27.4943 21.4998C27.9252 22.1566 28.1551 22.9287 28.1551 23.7185C28.1551 24.2443 28.0532 24.7649 27.8551 25.2505C27.657 25.7362 27.3668 26.1772 27.0009 26.5484C26.6351 26.9197 26.2008 27.2137 25.7231 27.4138C25.2454 27.6139 24.7336 27.716 24.217 27.7144Z" fill="#282828"/>
</svg>
