<svg width="36" height="36" viewBox="0 0 36 36" fill="none" xmlns="http://www.w3.org/2000/svg">
<path d="M16.3322 14.1692C15.9135 14.1717 15.505 14.2987 15.1587 14.5339C14.8123 14.7691 14.5437 15.102 14.387 15.4903C14.2302 15.8785 14.1924 16.3046 14.2784 16.7143C14.3644 17.1241 14.5702 17.4991 14.8698 17.7916C15.1693 18.0841 15.5491 18.2809 15.9608 18.3571C16.3725 18.4333 16.7975 18.3854 17.1819 18.2195C17.5663 18.0535 17.8927 17.7771 18.1196 17.4252C18.3465 17.0733 18.4637 16.6619 18.4563 16.2433C18.4433 15.6887 18.2137 15.1612 17.8168 14.7736C17.4198 14.386 16.887 14.169 16.3322 14.1692Z" fill="#282828"/>
<path d="M21.1926 2.72387C21.1108 2.69119 21.0365 2.64221 20.9742 2.57992C20.9119 2.51763 20.863 2.44332 20.8303 2.36152C20.5734 1.67001 20.1115 1.07338 19.5064 0.651394C18.9014 0.229403 18.1819 0.00214736 17.4442 0L15.2201 0C14.4572 0.0017921 13.7144 0.244323 13.0974 0.693033C12.4804 1.14174 12.0208 1.77374 11.7841 2.49896C11.7583 2.58742 11.7121 2.66858 11.6491 2.73587C11.5862 2.80316 11.5083 2.85469 11.4217 2.8863C9.52501 3.57299 7.87251 4.803 6.67039 6.42286C5.46828 8.04272 4.76977 9.9807 4.66203 11.995C4.64656 12.3565 4.55277 12.7104 4.38714 13.0321C4.21222 13.3944 3.96232 13.8317 3.74991 14.1941C2.74419 15.6268 2.13237 17.2986 1.97565 19.0421C1.95539 19.3715 2.03838 19.6991 2.21305 19.9792C2.35921 20.1743 2.54741 20.334 2.76371 20.4465C2.98001 20.559 3.21885 20.6213 3.46253 20.6289H4.14974C4.31543 20.6289 4.47434 20.6947 4.5915 20.8119C4.70866 20.929 4.77448 21.088 4.77448 21.2536V23.7526C4.77448 24.5811 5.10359 25.3756 5.68939 25.9614C6.2752 26.5472 7.06972 26.8763 7.89818 26.8763H9.7724C9.93809 26.8763 10.097 26.9421 10.2142 27.0593C10.3313 27.1764 10.3971 27.3354 10.3971 27.501V29.3753C10.3971 29.541 10.463 29.6999 10.5801 29.817C10.6973 29.9342 10.8562 30 11.0219 30H23.5167C23.6824 30 23.8413 29.9342 23.9584 29.817C24.0756 29.6999 24.1414 29.541 24.1414 29.3753V24.7272C24.1412 24.6257 24.1662 24.5258 24.2142 24.4363C24.2622 24.3469 24.3316 24.2708 24.4163 24.2149C27.5525 22.1033 29.1393 18.8172 29.1393 14.444C29.1683 11.9131 28.4226 9.43386 27.0021 7.33895C25.5817 5.24404 23.5545 3.63366 21.1926 2.72387ZM16.782 21.2411C16.5226 21.2533 16.2753 21.3548 16.0823 21.5285C14.6904 22.7179 13.0706 23.6107 11.3218 24.1524C11.1924 24.1911 11.0786 24.2698 10.9969 24.3773C10.8507 24.5706 10.662 24.7275 10.4452 24.8359C10.2285 24.9442 9.98971 25.0011 9.74741 25.0021H9.12267C8.70844 25.0021 8.31118 24.8375 8.01828 24.5446C7.72537 24.2517 7.56082 23.8545 7.56082 23.4402C7.56082 23.026 7.72537 22.6287 8.01828 22.3358C8.31118 22.0429 8.70844 21.8784 9.12267 21.8784H9.74741C10.0639 21.8795 10.3729 21.9752 10.6345 22.1533C10.7138 22.2082 10.8049 22.2436 10.9004 22.2566C10.996 22.2696 11.0932 22.2599 11.1843 22.2282C12.0704 21.9277 12.9112 21.5073 13.6833 20.9788C13.7269 20.9507 13.7626 20.9117 13.7866 20.8657C13.8107 20.8197 13.8225 20.7683 13.8207 20.7164C13.8202 20.6649 13.8075 20.6142 13.7836 20.5686C13.7597 20.523 13.7253 20.4837 13.6833 20.454C12.9614 20.0046 12.3687 19.3754 11.963 18.6281C11.5573 17.8808 11.3526 17.041 11.369 16.1908C11.3854 15.3407 11.6222 14.5094 12.0564 13.7783C12.4905 13.0471 13.1071 12.4413 13.8457 12.02C13.9401 11.9655 14.0186 11.8872 14.0734 11.793C14.1282 11.6987 14.1574 11.5917 14.1581 11.4827V3.5985C14.1579 3.31326 14.2686 3.03912 14.4668 2.83397C14.6649 2.62881 14.9351 2.50868 15.2201 2.49896H17.4442C17.737 2.49894 18.018 2.61438 18.2261 2.82024C18.4343 3.02609 18.5529 3.30574 18.5562 3.5985V11.4827C18.5569 11.5917 18.5861 11.6987 18.6409 11.793C18.6957 11.8872 18.7742 11.9655 18.8686 12.02C19.6236 12.4471 20.2523 13.0661 20.6911 13.8143C21.13 14.5625 21.3633 15.4133 21.3676 16.2807C21.3625 17.5313 20.8886 18.7346 20.0397 19.6529C19.1907 20.5713 18.0283 21.138 16.782 21.2411Z" fill="#282828"/>
</svg>
