<svg width="36" height="36" viewBox="0 0 36 36" fill="none" xmlns="http://www.w3.org/2000/svg">
<path d="M16.1922 26.7862C16.0377 26.787 15.8845 26.7587 15.7415 26.7027C15.5985 26.6467 15.4684 26.5642 15.3587 26.4599L12.1304 23.3887C11.9118 23.1779 11.7891 22.8928 11.7891 22.5956C11.7891 22.2983 11.9118 22.0132 12.1304 21.8024C12.2396 21.697 12.3694 21.6133 12.5124 21.5562C12.6555 21.4991 12.8089 21.4697 12.9639 21.4697C13.1189 21.4697 13.2723 21.4991 13.4154 21.5562C13.5584 21.6133 13.6883 21.697 13.7974 21.8024L16.1452 24.0524L23.3061 17.1787C23.4171 17.0694 23.5495 16.9821 23.6957 16.9218C23.8419 16.8615 23.999 16.8293 24.1582 16.8273C24.3173 16.8252 24.4753 16.8531 24.6232 16.9096C24.7711 16.966 24.9059 17.0498 25.02 17.1562C25.1341 17.2626 25.2252 17.3894 25.2881 17.5295C25.351 17.6696 25.3845 17.8202 25.3867 17.9728C25.3889 18.1253 25.3597 18.2767 25.3008 18.4184C25.2419 18.5601 25.1545 18.6894 25.0435 18.7987L17.0374 26.4599C16.9263 26.5656 16.7943 26.6488 16.6492 26.7049C16.504 26.7609 16.3486 26.7885 16.1922 26.7862Z" fill="#282828"/>
<path d="M29.1522 7.875H25.9239C25.8461 7.875 25.7714 7.84537 25.7164 7.79262C25.6614 7.73988 25.6304 7.66834 25.6304 7.59375V5.625C25.6304 5.32663 25.5068 5.04048 25.2866 4.8295C25.0665 4.61853 24.7679 4.5 24.4565 4.5C24.1452 4.5 23.8466 4.61853 23.6264 4.8295C23.4063 5.04048 23.2826 5.32663 23.2826 5.625V10.9688C23.2796 11.1916 23.1858 11.4045 23.0214 11.5621C22.8569 11.7198 22.6347 11.8096 22.4022 11.8125C22.1696 11.8096 21.9474 11.7198 21.783 11.5621C21.6185 11.4045 21.5248 11.1916 21.5217 10.9688V8.4375C21.5217 8.28832 21.4599 8.14524 21.3498 8.03975C21.2397 7.93426 21.0905 7.875 20.9348 7.875H13.5978C13.52 7.875 13.4453 7.84537 13.3903 7.79262C13.3353 7.73988 13.3043 7.66834 13.3043 7.59375V5.625C13.3043 5.32663 13.1807 5.04048 12.9605 4.8295C12.7404 4.61853 12.4418 4.5 12.1304 4.5C11.8191 4.5 11.5205 4.61853 11.3004 4.8295C11.0802 5.04048 10.9565 5.32663 10.9565 5.625V10.9688C10.9535 11.1916 10.8597 11.4045 10.6953 11.5621C10.5308 11.7198 10.3086 11.8096 10.0761 11.8125C9.84353 11.8096 9.62135 11.7198 9.45689 11.5621C9.29243 11.4045 9.19869 11.1916 9.19565 10.9688V8.4375C9.19565 8.28832 9.13381 8.14524 9.02374 8.03975C8.91366 7.93426 8.76437 7.875 8.6087 7.875H6.84783C6.22514 7.875 5.62797 8.11205 5.18766 8.53401C4.74736 8.95597 4.5 9.52826 4.5 10.125V29.25C4.5 29.8467 4.74736 30.419 5.18766 30.841C5.62797 31.2629 6.22514 31.5 6.84783 31.5H29.1522C29.7749 31.5 30.372 31.2629 30.8123 30.841C31.2526 30.419 31.5 29.8467 31.5 29.25V10.125C31.5 9.52826 31.2526 8.95597 30.8123 8.53401C30.372 8.11205 29.7749 7.875 29.1522 7.875ZM28.5652 29.25H7.43478C7.27911 29.25 7.12982 29.1907 7.01974 29.0852C6.90967 28.9798 6.84783 28.8367 6.84783 28.6875V15.1875C6.84783 15.0383 6.90967 14.8952 7.01974 14.7898C7.12982 14.6843 7.27911 14.625 7.43478 14.625H28.5652C28.7209 14.625 28.8702 14.6843 28.9803 14.7898C29.0903 14.8952 29.1522 15.0383 29.1522 15.1875V28.6875C29.1522 28.8367 29.0903 28.9798 28.9803 29.0852C28.8702 29.1907 28.7209 29.25 28.5652 29.25Z" fill="#282828"/>
</svg>
