<svg width="36" height="36" viewBox="0 0 36 36" fill="none" xmlns="http://www.w3.org/2000/svg">
<g clip-path="url(#clip0_110_1676)">
<path d="M2.25 20.8463C2.25 21.2895 2.35088 21.7283 2.54687 22.1378C2.74286 22.5473 3.03014 22.9193 3.39228 23.2327C3.75443 23.5461 4.18436 23.7947 4.65753 23.9643C5.1307 24.134 5.63784 24.2213 6.15 24.2213H12.65C12.9948 24.2213 13.3254 24.1027 13.5692 23.8917C13.813 23.6808 13.95 23.3946 13.95 23.0963C13.95 22.7979 13.813 22.5117 13.5692 22.3008C13.3254 22.0898 12.9948 21.9713 12.65 21.9713H6.15C5.80522 21.9713 5.47456 21.8527 5.23076 21.6417C4.98696 21.4308 4.85 21.1446 4.85 20.8463V10.4738C4.85 10.3992 4.88424 10.3276 4.94519 10.2749C5.00614 10.2221 5.0888 10.1925 5.175 10.1925H27.834C27.9202 10.1925 28.0029 10.2221 28.0638 10.2749C28.1248 10.3276 28.159 10.3992 28.159 10.4738V15.2325C28.159 15.5309 28.296 15.817 28.5398 16.028C28.7836 16.239 29.1142 16.3575 29.459 16.3575C29.8038 16.3575 30.1344 16.239 30.3782 16.028C30.622 15.817 30.759 15.5309 30.759 15.2325V7.875C30.759 6.97989 30.3481 6.12145 29.6167 5.48851C28.8853 4.85558 27.8933 4.5 26.859 4.5H6.15C5.11566 4.5 4.12368 4.85558 3.39228 5.48851C2.66089 6.12145 2.25 6.97989 2.25 7.875L2.25 20.8463ZM13.586 6.75C13.7814 6.74329 13.9746 6.78758 14.1406 6.87713C14.3065 6.96667 14.4375 7.09733 14.5165 7.25213C14.5955 7.40694 14.619 7.57873 14.5837 7.74519C14.5484 7.91165 14.4562 8.06509 14.3188 8.18558C14.1815 8.30607 14.0055 8.38804 13.8136 8.42084C13.6218 8.45364 13.423 8.43575 13.243 8.36951C13.0631 8.30326 12.9103 8.19172 12.8045 8.04937C12.6988 7.90701 12.6449 7.74043 12.65 7.57125C12.6564 7.35711 12.7567 7.1531 12.9305 7.00059C13.1043 6.84808 13.3387 6.7585 13.586 6.75ZM10.349 6.75C10.5424 6.75001 10.7314 6.7998 10.892 6.89302C11.0526 6.98624 11.1776 7.11868 11.251 7.27351C11.3244 7.42834 11.3429 7.59857 11.3042 7.76254C11.2655 7.92651 11.1714 8.07682 11.0337 8.19436C10.896 8.3119 10.7211 8.39136 10.5311 8.42264C10.3411 8.45391 10.1447 8.43559 9.96679 8.37C9.78887 8.30441 9.63751 8.19451 9.53196 8.05429C9.4264 7.91406 9.37142 7.74984 9.374 7.5825C9.37399 7.47222 9.39929 7.36304 9.44845 7.2613C9.49761 7.15955 9.56963 7.06727 9.66034 6.98982C9.75105 6.91237 9.85864 6.85128 9.97686 6.81011C10.0951 6.76894 10.2216 6.74851 10.349 6.75ZM7.112 6.75C7.30646 6.74782 7.49724 6.79601 7.65981 6.88838C7.82237 6.98076 7.9493 7.11309 8.02428 7.26838C8.09926 7.42367 8.11886 7.59482 8.08057 7.75982C8.04227 7.92483 7.94783 8.07615 7.80938 8.19435C7.67093 8.31254 7.4948 8.3922 7.30362 8.42309C7.11245 8.45399 6.91496 8.4347 6.73655 8.3677C6.55815 8.30071 6.40696 8.18908 6.30244 8.04715C6.19792 7.90522 6.14483 7.73949 6.15 7.57125C6.15342 7.35241 6.25628 7.14354 6.43632 6.98984C6.61636 6.83614 6.8591 6.74998 7.112 6.75Z" fill="#282828"/>
<path d="M20.9701 18.5512C20.9708 18.4571 20.9315 18.3661 20.8595 18.2955C20.7876 18.2249 20.6881 18.1798 20.5801 18.1687H20.3461C20.0499 18.1418 19.7733 18.0276 19.5627 17.8454C19.3521 17.6631 19.2202 17.4238 19.1891 17.1675V16.965C19.1733 16.8706 19.1185 16.7843 19.0348 16.7222C18.9512 16.6602 18.8443 16.6265 18.7341 16.6275C18.6253 16.6268 18.5201 16.6609 18.4386 16.7231C18.357 16.7854 18.3049 16.8715 18.2921 16.965V17.1675C18.2501 17.4201 18.1147 17.6542 17.9061 17.8347C17.6976 18.0152 17.427 18.1324 17.1351 18.1687H16.8881C16.7801 18.1798 16.6806 18.2249 16.6086 18.2955C16.5367 18.3661 16.4973 18.4571 16.4981 18.5512C16.4969 18.6466 16.5359 18.7391 16.6076 18.8115C16.6793 18.8839 16.779 18.9313 16.8881 18.945H17.1351C17.427 18.9813 17.6976 19.0984 17.9061 19.2789C18.1147 19.4594 18.2501 19.6935 18.2921 19.9462V20.1487C18.3049 20.2422 18.357 20.3283 18.4386 20.3905C18.5201 20.4528 18.6253 20.4869 18.7341 20.4862C18.8443 20.4872 18.9512 20.4535 19.0348 20.3914C19.1185 20.3294 19.1733 20.2431 19.1891 20.1487V19.9462C19.2202 19.6899 19.3521 19.4506 19.5627 19.2683C19.7733 19.086 20.0499 18.9719 20.3461 18.945H20.5801C20.6892 18.9313 20.7888 18.8839 20.8606 18.8115C20.9323 18.7391 20.9712 18.6466 20.9701 18.5512Z" fill="#282828"/>
<path d="M25.7928 14.6249C25.7939 14.5295 25.755 14.437 25.6833 14.3646C25.6116 14.2922 25.5119 14.2448 25.4028 14.2311H25.1688C24.8726 14.2042 24.5961 14.09 24.3855 13.9078C24.1748 13.7255 24.0429 13.4862 24.0118 13.2299V13.0274C23.9937 12.9358 23.9388 12.8527 23.8567 12.7927C23.7746 12.7328 23.6707 12.7 23.5633 12.7C23.4559 12.7 23.352 12.7328 23.2699 12.7927C23.1878 12.8527 23.1329 12.9358 23.1148 13.0274V13.2299C23.0837 13.4862 22.9518 13.7255 22.7412 13.9078C22.5306 14.09 22.254 14.2042 21.9578 14.2311H21.7238C21.6135 14.2445 21.5123 14.2915 21.4384 14.3637C21.3645 14.4359 21.3228 14.5285 21.3208 14.6249C21.3201 14.719 21.3594 14.81 21.4314 14.8806C21.5033 14.9512 21.6028 14.9963 21.7108 15.0074H21.9578C22.2498 15.0437 22.5203 15.1609 22.7289 15.3414C22.9375 15.5219 23.0729 15.756 23.1148 16.0086V16.2224C23.1329 16.314 23.1878 16.3971 23.2699 16.457C23.352 16.5169 23.4559 16.5498 23.5633 16.5498C23.6707 16.5498 23.7746 16.5169 23.8567 16.457C23.9388 16.3971 23.9937 16.314 24.0118 16.2224V16.0086C24.0538 15.756 24.1892 15.5219 24.3977 15.3414C24.6063 15.1609 24.8768 15.0437 25.1688 15.0074H25.4028C25.5108 14.9963 25.6103 14.9512 25.6823 14.8806C25.7542 14.81 25.7936 14.719 25.7928 14.6249Z" fill="#282828"/>
<path d="M33.2419 29.2499L29.9529 23.6812C29.9396 23.6331 29.9396 23.583 29.9529 23.5349V19.5862C29.9529 19.1804 29.7666 18.7912 29.4351 18.5043C29.1035 18.2173 28.6538 18.0562 28.1849 18.0562H25.3249C24.856 18.0562 24.4063 18.2173 24.0747 18.5043C23.7432 18.7912 23.5569 19.1804 23.5569 19.5862V23.5349C23.5686 23.5793 23.5686 23.6255 23.5569 23.6699L22.4129 25.6162C22.373 25.6943 22.351 25.7783 22.3479 25.8637V29.5762C22.3691 30.1005 22.2945 30.6244 22.1269 31.1287C22.1051 31.1672 22.0938 31.2095 22.0938 31.2524C22.0938 31.2953 22.1051 31.3376 22.1269 31.3762C22.1585 31.4126 22.1998 31.442 22.2474 31.4615C22.2949 31.4811 22.3473 31.4904 22.3999 31.4887H31.6819C31.9887 31.492 32.291 31.4256 32.5589 31.2963C32.8268 31.1669 33.0509 30.9791 33.2087 30.7514C33.3665 30.5238 33.4527 30.2643 33.4585 29.9989C33.4643 29.7334 33.3896 29.4713 33.2419 29.2387V29.2499ZM28.4969 25.5487C28.4636 25.594 28.4175 25.6313 28.3629 25.6569C28.3083 25.6825 28.247 25.6956 28.1849 25.6949H25.2859C25.2245 25.6956 25.1641 25.6823 25.1105 25.6564C25.0569 25.6306 25.0121 25.593 24.9805 25.5475C24.949 25.5019 24.9317 25.45 24.9306 25.3969C24.9294 25.3439 24.9444 25.2914 24.9739 25.2449L25.4029 24.5024C25.5729 24.262 25.6629 23.9855 25.6629 23.7037V20.2499C25.6629 20.1693 25.6999 20.0921 25.7657 20.0351C25.8315 19.9782 25.9208 19.9462 26.0139 19.9462H27.4309C27.524 19.9462 27.6133 19.9782 27.6791 20.0351C27.7449 20.0921 27.7819 20.1693 27.7819 20.2499V23.7374C27.779 23.9938 27.8553 24.2463 28.0029 24.4687L28.4839 25.2787C28.5286 25.3638 28.5332 25.4606 28.4969 25.5487Z" fill="#282828"/>
<path d="M19.9688 21.6223H17.3688C17.0241 21.6223 16.6934 21.7408 16.4496 21.9518C16.2058 22.1628 16.0688 22.4489 16.0688 22.7473V28.9123C16.0688 29.8236 16.0688 31.5336 18.6688 31.5336C21.2688 31.5336 21.2038 29.8236 21.2038 28.9011V22.7248C21.1977 22.4398 21.0667 22.1675 20.8375 21.9629C20.6082 21.7582 20.2978 21.6365 19.9688 21.6223ZM19.5398 25.8748C19.5399 25.9236 19.5185 25.9707 19.4798 26.0062C19.4411 26.0418 19.3882 26.0632 19.3318 26.0661H18.0318C17.9802 26.0581 17.9336 26.0344 17.9002 25.9994C17.8669 25.9644 17.849 25.9202 17.8498 25.8748V23.4561C17.8498 23.4083 17.8718 23.3625 17.9108 23.3288C17.9498 23.295 18.0027 23.2761 18.0578 23.2761H19.3578C19.413 23.2761 19.4659 23.295 19.5049 23.3288C19.5439 23.3625 19.5658 23.4083 19.5658 23.4561L19.5398 25.8748Z" fill="#282828"/>
</g>
<defs>
<clipPath id="clip0_110_1676">
<rect width="31.2" height="27" fill="white" transform="translate(2.25 4.5)"/>
</clipPath>
</defs>
</svg>
