<svg width="36" height="36" viewBox="0 0 36 36" fill="none" xmlns="http://www.w3.org/2000/svg">
<path d="M22.0216 10.4407C22.0685 10.4424 22.115 10.4314 22.1566 10.409C22.1982 10.3866 22.2334 10.3534 22.2588 10.3128C22.2805 10.2718 22.2919 10.2258 22.2919 10.1791C22.2919 10.1323 22.2805 10.0863 22.2588 10.0453C21.4754 7.81383 20.0337 5.89044 18.1357 4.54449C18.0919 4.51545 18.0409 4.5 17.9888 4.5C17.9367 4.5 17.8858 4.51545 17.842 4.54449C15.9313 5.88507 14.4774 7.80904 13.685 10.0453C13.6633 10.0863 13.6519 10.1323 13.6519 10.1791C13.6519 10.2258 13.6633 10.2718 13.685 10.3128C13.7104 10.3534 13.7456 10.3866 13.7872 10.409C13.8288 10.4314 13.8753 10.4424 13.9222 10.4407H22.0216Z" fill="#282828"/>
<path d="M25.286 16.837C25.2915 16.9111 25.3234 16.9806 25.3755 17.032C25.4276 17.0835 25.4963 17.1135 25.5684 17.1161H31.2165C31.2972 17.1155 31.3744 17.0821 31.4311 17.0231C31.456 16.9926 31.4748 16.9574 31.4864 16.9195C31.498 16.8816 31.5023 16.8417 31.4989 16.8021C31.3697 15.2623 30.9878 13.7562 30.3693 12.3479C30.3456 12.2981 30.3085 12.2563 30.2625 12.2274C30.2165 12.1986 30.1634 12.1839 30.1095 12.1851H25.0714C25.0304 12.1855 24.9899 12.195 24.9529 12.2131C24.9158 12.2312 24.883 12.2574 24.8568 12.2898C24.8379 12.3276 24.8281 12.3694 24.8281 12.4119C24.8281 12.4544 24.8379 12.4962 24.8568 12.534C25.1168 13.9534 25.2604 15.3928 25.286 16.837Z" fill="#282828"/>
<path d="M23.3206 17.1277C23.3973 17.1242 23.4699 17.0909 23.5239 17.0347C23.5558 17.0124 23.5825 16.9831 23.602 16.9489C23.6216 16.9147 23.6335 16.8765 23.6369 16.837C23.5854 15.3488 23.3963 13.869 23.0721 12.4177C23.0558 12.3437 23.0131 12.2787 22.9524 12.2356C22.8917 12.1925 22.8175 12.1745 22.7445 12.1851H13.2331C13.1691 12.1852 13.1069 12.2069 13.0559 12.2467C13.0049 12.2866 12.968 12.3426 12.9507 12.4061C12.6106 13.8596 12.4063 15.3434 12.3407 16.837C12.3369 16.8748 12.341 16.9131 12.3527 16.9492C12.3644 16.9853 12.3834 17.0184 12.4085 17.0463C12.4625 17.1026 12.5351 17.1358 12.6119 17.1393L23.3206 17.1277Z" fill="#282828"/>
<path d="M13.9559 25.5592C13.909 25.5576 13.8625 25.5685 13.8209 25.5909C13.7793 25.6134 13.7441 25.6465 13.7187 25.6872C13.6969 25.7282 13.6855 25.7742 13.6855 25.8209C13.6855 25.8676 13.6969 25.9136 13.7187 25.9547C14.5111 28.1909 15.965 30.1149 17.8757 31.4555C17.9195 31.4845 17.9704 31.5 18.0225 31.5C18.0746 31.5 18.1256 31.4845 18.1694 31.4555C20.08 30.1149 21.534 28.1909 22.3264 25.9547C22.3481 25.9136 22.3595 25.8676 22.3595 25.8209C22.3595 25.7742 22.3481 25.7282 22.3264 25.6872C22.3028 25.6474 22.2695 25.6148 22.2299 25.5923C22.1903 25.5699 22.1456 25.5585 22.1004 25.5592H13.9559Z" fill="#282828"/>
<path d="M12.6684 18.8722C12.5877 18.8728 12.5106 18.9062 12.4538 18.9653C12.4219 18.9875 12.3952 19.0168 12.3757 19.051C12.3561 19.0852 12.3442 19.1235 12.3408 19.163C12.3923 20.6512 12.5814 22.131 12.9056 23.5822C12.9229 23.6457 12.9598 23.7017 13.0108 23.7416C13.0618 23.7815 13.124 23.8031 13.188 23.8032H22.6994C22.7634 23.8031 22.8257 23.7815 22.8766 23.7416C22.9276 23.7017 22.9645 23.6457 22.9818 23.5822C23.3365 22.134 23.5559 20.6542 23.637 19.163C23.6408 19.1251 23.6367 19.0869 23.625 19.0508C23.6133 19.0147 23.5943 18.9816 23.5692 18.9536C23.5152 18.8974 23.4426 18.8641 23.3658 18.8606L12.6684 18.8722Z" fill="#282828"/>
<path d="M4.50112 16.8371C4.49775 16.8767 4.502 16.9166 4.51363 16.9545C4.52526 16.9924 4.54404 17.0276 4.5689 17.058C4.62567 17.1171 4.70284 17.1505 4.78352 17.1511H10.4316C10.5055 17.1423 10.5734 17.105 10.6216 17.0468C10.6698 16.9885 10.6947 16.9136 10.6914 16.8371C10.7468 15.3903 10.9206 13.9508 11.211 12.5341C11.2299 12.4963 11.2397 12.4545 11.2397 12.412C11.2397 12.3695 11.2299 12.3277 11.211 12.2899C11.1766 12.2426 11.1289 12.2072 11.0744 12.1885C11.0199 12.1698 10.9612 12.1687 10.906 12.1852H5.86795C5.80548 12.1749 5.74146 12.1865 5.68616 12.2181C5.63085 12.2498 5.58747 12.2996 5.56296 12.3597C4.96532 13.7795 4.60627 15.2935 4.50112 16.8371Z" fill="#282828"/>
<path d="M10.6917 19.1629C10.6861 19.0888 10.6543 19.0193 10.6022 18.9678C10.5501 18.9164 10.4814 18.8864 10.4093 18.8838H4.76119C4.68051 18.8844 4.60333 18.9178 4.54656 18.9768C4.51228 19.0322 4.49642 19.0975 4.50138 19.1629C4.63054 20.7027 5.0125 22.2088 5.63099 23.6171C5.65304 23.6691 5.68938 23.7133 5.73555 23.7443C5.78172 23.7753 5.83568 23.7917 5.8908 23.7915H10.9063C10.9473 23.7911 10.9877 23.7816 11.0248 23.7635C11.0619 23.7455 11.0947 23.7193 11.1209 23.6868C11.1397 23.6491 11.1496 23.6072 11.1496 23.5647C11.1496 23.5223 11.1397 23.4804 11.1209 23.4426C10.8621 22.0309 10.7185 20.5993 10.6917 19.1629Z" fill="#282828"/>
<path d="M11.7983 25.7569C11.7792 25.6987 11.7427 25.6482 11.694 25.6127C11.6452 25.5771 11.5869 25.5584 11.5272 25.5592H7.14427C7.09322 25.5577 7.04281 25.5712 6.99884 25.5979C6.95488 25.6246 6.91914 25.6636 6.89576 25.7104C6.86754 25.7554 6.85254 25.8079 6.85254 25.8616C6.85254 25.9152 6.86754 25.9677 6.89576 26.0127C8.716 28.6763 11.3798 30.6047 14.4303 31.4671C14.4894 31.4821 14.5516 31.4779 14.6082 31.455C14.6649 31.4321 14.7132 31.3916 14.7466 31.3391C14.7851 31.2896 14.806 31.2281 14.806 31.1647C14.806 31.1013 14.7851 31.0397 14.7466 30.9902C13.4314 29.4681 12.4285 27.688 11.7983 25.7569Z" fill="#282828"/>
<path d="M24.4501 25.5593C24.3904 25.5585 24.3321 25.5772 24.2833 25.6127C24.2346 25.6482 24.1981 25.6987 24.179 25.757C23.5555 27.6862 22.5604 29.4661 21.2533 30.9903C21.2148 31.0398 21.1938 31.1013 21.1938 31.1647C21.1938 31.2282 21.2148 31.2897 21.2533 31.3392C21.2867 31.3916 21.335 31.4321 21.3917 31.455C21.4483 31.478 21.5105 31.4822 21.5696 31.4671C24.62 30.6048 27.2839 28.6764 29.1041 26.0128C29.1314 25.9695 29.1459 25.919 29.1459 25.8674C29.1459 25.8159 29.1314 25.7654 29.1041 25.7221C29.0836 25.6722 29.0488 25.63 29.0045 25.6009C28.9601 25.5718 28.9082 25.5573 28.8556 25.5593H24.4501Z" fill="#282828"/>
<path d="M11.5271 10.4408C11.5868 10.4416 11.6451 10.4228 11.6939 10.3873C11.7426 10.3518 11.7791 10.3013 11.7982 10.2431C12.4217 8.31384 13.4168 6.5339 14.7239 5.00974C14.7624 4.96024 14.7834 4.89871 14.7834 4.8353C14.7834 4.77188 14.7624 4.71036 14.7239 4.66085C14.693 4.61466 14.6502 4.57823 14.6003 4.55564C14.5504 4.53304 14.4954 4.52518 14.4415 4.53292C11.391 5.39529 8.72719 7.32367 6.90695 9.98723C6.87972 10.0305 6.86523 10.081 6.86523 10.1326C6.86523 10.1842 6.87972 10.2347 6.90695 10.278C6.9275 10.3278 6.96226 10.3701 7.00663 10.3991C7.05101 10.4282 7.10291 10.4427 7.15547 10.4408H11.5271Z" fill="#282828"/>
<path d="M31.4764 19.1629C31.4797 19.1233 31.4755 19.0834 31.4638 19.0454C31.4522 19.0075 31.4334 18.9723 31.4086 18.9419C31.3518 18.8829 31.2746 18.8494 31.1939 18.8489H25.5459C25.4737 18.8515 25.405 18.8814 25.3529 18.9329C25.3008 18.9844 25.269 19.0539 25.2635 19.128C25.2174 20.5858 25.0512 22.037 24.7664 23.4659C24.7476 23.5036 24.7378 23.5455 24.7378 23.588C24.7378 23.6304 24.7476 23.6723 24.7664 23.7101C24.7927 23.7425 24.8255 23.7687 24.8626 23.7868C24.8996 23.8048 24.9401 23.8144 24.9811 23.8147H30.0191C30.0743 23.8149 30.1282 23.7985 30.1744 23.7675C30.2206 23.7365 30.2569 23.6923 30.279 23.6403C30.9233 22.2291 31.3283 20.7148 31.4764 19.1629Z" fill="#282828"/>
<path d="M24.1792 10.2429C24.1983 10.3012 24.2348 10.3517 24.2835 10.3872C24.3323 10.4227 24.3906 10.4414 24.4503 10.4406H28.8332C28.8843 10.4421 28.9347 10.4287 28.9787 10.4019C29.0226 10.3752 29.0584 10.3362 29.0817 10.2895C29.11 10.2444 29.125 10.1919 29.125 10.1383C29.125 10.0846 29.11 10.0322 29.0817 9.98709C27.2587 7.32133 24.5905 5.39271 21.5359 4.53278C21.4768 4.51772 21.4146 4.52195 21.358 4.54486C21.3013 4.56778 21.253 4.60826 21.2196 4.66071C21.1811 4.71021 21.1602 4.77173 21.1602 4.83515C21.1602 4.89857 21.1811 4.96009 21.2196 5.00959C22.5389 6.5307 23.5456 8.31085 24.1792 10.2429Z" fill="#282828"/>
</svg>
