<svg width="36" height="36" viewBox="0 0 36 36" fill="none" xmlns="http://www.w3.org/2000/svg">
<path d="M18.6462 18.6524C18.7843 18.7048 18.9314 18.7296 19.0791 18.7252C19.2268 18.7208 19.3722 18.6873 19.5069 18.6267C19.6417 18.5661 19.7632 18.4796 19.8645 18.372C19.9658 18.2645 20.045 18.138 20.0974 17.9999L20.5811 16.7624C20.6 16.7091 20.6351 16.663 20.6815 16.6307C20.7279 16.5984 20.7833 16.5815 20.8399 16.5824H23.4498C23.5064 16.5815 23.5618 16.5984 23.6082 16.6307C23.6546 16.663 23.6897 16.7091 23.7086 16.7624L24.1923 17.9999C24.3142 18.2563 24.5285 18.4572 24.7923 18.5623C25.056 18.6673 25.3498 18.6687 25.6145 18.5662C25.8793 18.4637 26.0956 18.2649 26.2199 18.0096C26.3442 17.7544 26.3674 17.4615 26.2848 17.1899L23.1911 9.15753C23.1082 8.94769 22.964 8.76765 22.7775 8.64077C22.5909 8.51389 22.3705 8.44604 22.1449 8.44604C21.9192 8.44604 21.6988 8.51389 21.5122 8.64077C21.3257 8.76765 21.1816 8.94769 21.0986 9.15753L18.0049 17.2011C17.8984 17.4787 17.906 17.7871 18.0262 18.059C18.1463 18.331 18.3692 18.5443 18.6462 18.6524ZM21.8861 13.3762C21.9077 13.3255 21.9438 13.2822 21.9898 13.2518C22.0358 13.2214 22.0897 13.2052 22.1449 13.2052C22.2 13.2052 22.2539 13.2214 22.2999 13.2518C22.3459 13.2822 22.382 13.3255 22.4036 13.3762L22.8423 14.5012C22.8622 14.5414 22.8725 14.5857 22.8725 14.6306C22.8725 14.6754 22.8622 14.7197 22.8423 14.7599C22.8156 14.7978 22.7802 14.8288 22.7391 14.8503C22.6981 14.8718 22.6525 14.8833 22.6061 14.8837H21.7286C21.6822 14.8833 21.6366 14.8718 21.5956 14.8503C21.5545 14.8288 21.5191 14.7978 21.4924 14.7599C21.4725 14.7197 21.4622 14.6754 21.4622 14.6306C21.4622 14.5857 21.4725 14.5414 21.4924 14.5012L21.8861 13.3762Z" fill="#282828"/>
<path d="M30.0198 6.74996C30.0198 6.15324 29.7827 5.58095 29.3608 5.159C28.9388 4.73705 28.3665 4.5 27.7698 4.5H15.9575C15.6591 4.5 15.373 4.61852 15.162 4.8295C14.951 5.04047 14.8325 5.32662 14.8325 5.62498C14.8325 5.92334 14.951 6.20949 15.162 6.42046C15.373 6.63144 15.6591 6.74996 15.9575 6.74996H27.2073C27.3565 6.74996 27.4996 6.80922 27.6051 6.91471C27.7105 7.0202 27.7698 7.16327 27.7698 7.31245V19.6872C27.7698 19.8364 27.7105 19.9795 27.6051 20.085C27.4996 20.1905 27.3565 20.2497 27.2073 20.2497H18.4887C18.1903 20.2497 17.9042 20.3683 17.6932 20.5792C17.4823 20.7902 17.3637 21.0764 17.3637 21.3747C17.3637 21.6731 17.4823 21.9592 17.6932 22.1702C17.9042 22.3812 18.1903 22.4997 18.4887 22.4997H27.7698C28.3665 22.4997 28.9388 22.2626 29.3608 21.8407C29.7827 21.4187 30.0198 20.8465 30.0198 20.2497V6.74996Z" fill="#282828"/>
<path d="M16.52 24.6034L14.495 17.5272C14.2731 16.6078 13.7791 15.7766 13.0775 15.1423C13.0185 15.0853 12.9474 15.0426 12.8694 15.0173C12.7914 14.9919 12.7087 14.9847 12.6275 14.996C12.5463 15.006 12.4681 15.0333 12.3982 15.0759C12.3284 15.1186 12.2685 15.1758 12.2225 15.2435L10.2426 18.3597C10.1916 18.4387 10.1216 18.5036 10.0391 18.5485C9.95654 18.5935 9.86406 18.617 9.77008 18.617C9.6761 18.617 9.58361 18.5935 9.50107 18.5485C9.41854 18.5036 9.34858 18.4387 9.29758 18.3597L7.34012 15.2323C7.29599 15.1629 7.2372 15.1041 7.16788 15.0599C7.09856 15.0157 7.02039 14.9872 6.93888 14.9765C6.85737 14.9658 6.7745 14.973 6.69611 14.9978C6.61771 15.0225 6.5457 15.0642 6.48513 15.1198C5.77881 15.7549 5.2841 16.5911 5.06766 17.516L3.02019 24.6034C2.99756 24.6856 2.9939 24.7718 3.00949 24.8556C3.02508 24.9394 3.05951 25.0186 3.11019 25.0871C3.16196 25.1576 3.22977 25.2148 3.30802 25.2539C3.38627 25.2931 3.4727 25.313 3.56018 25.3121H6.19264C6.2579 25.3129 6.32103 25.3354 6.372 25.3762C6.42296 25.417 6.45882 25.4736 6.47388 25.5371L7.52011 31.0495C7.54605 31.1766 7.61508 31.2908 7.71553 31.3728C7.81599 31.4548 7.94168 31.4995 8.07135 31.4995H11.4463C11.5798 31.5049 11.7108 31.4625 11.816 31.3801C11.9211 31.2976 11.9934 31.1804 12.02 31.0495L13.0663 25.5371C13.0813 25.4736 13.1172 25.417 13.1682 25.3762C13.2191 25.3354 13.2823 25.3129 13.3475 25.3121H15.9575C16.045 25.313 16.1314 25.2931 16.2096 25.2539C16.2879 25.2148 16.3557 25.1576 16.4075 25.0871C16.462 25.0205 16.5005 24.9422 16.52 24.8583C16.5395 24.7745 16.5395 24.6872 16.52 24.6034Z" fill="#282828"/>
<path d="M9.76998 14.096C10.7146 14.0915 11.6368 13.8074 12.4201 13.2793C13.2034 12.7512 13.8127 12.003 14.1711 11.1289C14.5296 10.2549 14.621 9.2943 14.434 8.36834C14.247 7.44237 13.7899 6.59255 13.1203 5.92614C12.4508 5.25973 11.5988 4.8066 10.672 4.62393C9.74516 4.44126 8.78498 4.53725 7.91265 4.89978C7.04031 5.26231 6.29492 5.87512 5.77054 6.66089C5.24617 7.44665 4.96632 8.37015 4.96631 9.31481C4.96778 9.94416 5.09321 10.5671 5.33541 11.1479C5.57762 11.7288 5.93186 12.2563 6.37793 12.7003C6.82399 13.1442 7.35313 13.496 7.93514 13.7355C8.51715 13.975 9.14063 14.0975 9.76998 14.096ZM9.76998 11.846C9.21509 11.8514 8.67394 11.6735 8.2305 11.3399C7.78706 11.0063 7.46613 10.5357 7.31752 10.001C7.30746 9.96557 7.30478 9.92841 7.30963 9.89185C7.31449 9.85529 7.32679 9.82012 7.34576 9.7885C7.36473 9.75687 7.38998 9.72947 7.41995 9.70799C7.44992 9.6865 7.48398 9.67138 7.52002 9.66356C8.28393 9.39599 8.97656 8.95732 9.54498 8.38108C9.57032 8.35235 9.60148 8.32934 9.63639 8.31358C9.67131 8.29782 9.70917 8.28967 9.74748 8.28967C9.78578 8.28967 9.82365 8.29782 9.85857 8.31358C9.89348 8.32934 9.92464 8.35235 9.94998 8.38108C10.5295 8.96545 11.2387 9.40484 12.0199 9.66356C12.087 9.68675 12.1428 9.73441 12.1761 9.79699C12.2095 9.85958 12.218 9.93246 12.1999 10.001C12.0523 10.532 11.7348 10.9999 11.2959 11.3331C10.857 11.6663 10.321 11.8465 9.76998 11.846Z" fill="#282828"/>
</svg>
