<svg width="36" height="36" viewBox="0 0 36 36" fill="none" xmlns="http://www.w3.org/2000/svg">
<path d="M25.108 24.7343H13.5619C13.4114 24.7343 13.267 24.6767 13.1605 24.5741C13.0541 24.4716 12.9943 24.3325 12.9943 24.1874V9.23584C12.9943 8.94576 12.8746 8.66756 12.6617 8.46244C12.4488 8.25732 12.16 8.14209 11.8589 8.14209C11.5578 8.14209 11.2691 8.25732 11.0562 8.46244C10.8432 8.66756 10.7236 8.94576 10.7236 9.23584V24.9202C10.7236 25.4511 10.9425 25.9602 11.3322 26.3355C11.7218 26.7109 12.2502 26.9218 12.8012 26.9218H25.108C25.4091 26.9218 25.6979 26.8066 25.9108 26.6014C26.1237 26.3963 26.2433 26.1181 26.2433 25.828C26.2433 25.538 26.1237 25.2598 25.9108 25.0546C25.6979 24.8495 25.4091 24.7343 25.108 24.7343Z" fill="#282828"/>
<path d="M21.1344 28.5624H9.58827C9.43772 28.5624 9.29334 28.5048 9.18688 28.4022C9.08043 28.2997 9.02062 28.1606 9.02062 28.0155V13.064C9.02062 12.7739 8.90101 12.4957 8.68809 12.2906C8.47518 12.0854 8.18641 11.9702 7.88531 11.9702C7.58421 11.9702 7.29544 12.0854 7.08252 12.2906C6.86961 12.4957 6.75 12.7739 6.75 13.064V28.7484C6.75 29.2792 6.96889 29.7883 7.35852 30.1637C7.74815 30.539 8.2766 30.7499 8.82762 30.7499H21.1344C21.4355 30.7499 21.7242 30.6347 21.9372 30.4296C22.1501 30.2244 22.2697 29.9462 22.2697 29.6562C22.2697 29.3661 22.1501 29.0879 21.9372 28.8828C21.7242 28.6776 21.4355 28.5624 21.1344 28.5624Z" fill="#282828"/>
<path d="M28.8659 8.40469L25.6189 5.12344C25.4288 4.92957 25.2002 4.77448 24.9467 4.66739C24.6931 4.56029 24.4199 4.50337 24.143 4.5H16.9679C16.3657 4.5 15.7881 4.73047 15.3623 5.1407C14.9365 5.55094 14.6973 6.10734 14.6973 6.6875V20.9063C14.6973 21.4864 14.9365 22.0428 15.3623 22.4531C15.7881 22.8633 16.3657 23.0938 16.9679 23.0938H27.3787C27.9297 23.0938 28.4581 22.8829 28.8478 22.5075C29.2374 22.1322 29.4563 21.623 29.4563 21.0922V9.79375C29.4582 9.5361 29.407 9.28065 29.3057 9.04221C29.2043 8.80376 29.0548 8.58707 28.8659 8.40469Z" fill="#282828"/>
</svg>
