<svg width="36" height="36" viewBox="0 0 36 36" fill="none" xmlns="http://www.w3.org/2000/svg">
<g clip-path="url(#clip0_110_1661)">
<path d="M18 4.5C15.33 4.5 12.7199 5.29176 10.4998 6.77516C8.27974 8.25856 6.54942 10.367 5.52763 12.8338C4.50585 15.3006 4.2385 18.015 4.7594 20.6337C5.28031 23.2525 6.56606 25.6579 8.45406 27.5459C10.3421 29.434 12.7475 30.7197 15.3663 31.2406C17.985 31.7615 20.6994 31.4942 23.1662 30.4724C25.633 29.4506 27.7414 27.7203 29.2248 25.5002C30.7082 23.2801 31.5 20.67 31.5 18C31.5 14.4196 30.0777 10.9858 27.5459 8.45406C25.0142 5.92232 21.5804 4.5 18 4.5ZM23.85 23.8725C23.75 23.9825 23.6291 24.0715 23.4944 24.1345C23.3597 24.1975 23.2139 24.2332 23.0653 24.2394C22.9168 24.2457 22.7685 24.2225 22.6289 24.1711C22.4894 24.1197 22.3615 24.0412 22.2525 23.94L16.6275 18.8325C16.5211 18.7225 16.4383 18.5919 16.3842 18.4487C16.33 18.3056 16.3056 18.1529 16.3125 18V11.8125C16.3125 11.5141 16.431 11.228 16.642 11.017C16.853 10.806 17.1391 10.6875 17.4375 10.6875C17.7359 10.6875 18.022 10.806 18.233 11.017C18.444 11.228 18.5625 11.5141 18.5625 11.8125V17.505L23.7713 22.2863C23.9916 22.4864 24.1236 22.7658 24.1383 23.0631C24.1531 23.3604 24.0494 23.6515 23.85 23.8725Z" fill="#282828"/>
</g>
<defs>
<clipPath id="clip0_110_1661">
<rect width="27" height="27" fill="white" transform="translate(4.5 4.5)"/>
</clipPath>
</defs>
</svg>
