<svg width="36" height="36" viewBox="0 0 36 36" fill="none" xmlns="http://www.w3.org/2000/svg">
<path d="M18.8517 9.76416H3.63407C3.4659 9.76416 3.30462 9.83096 3.18571 9.94987C3.0668 10.0688 3 10.2301 3 10.3982V21.8114C3 22.9886 3.46762 24.1175 4.3 24.9499C5.13237 25.7823 6.26131 26.2499 7.43847 26.2499H22.6561C22.8242 26.2499 22.9855 26.1831 23.1044 26.0642C23.2233 25.9453 23.2901 25.784 23.2901 25.6158V14.2026C23.2901 13.0255 22.8225 11.8965 21.9901 11.0642C21.1578 10.2318 20.0288 9.76416 18.8517 9.76416Z" fill="#282828"/>
<path d="M33.1053 9.84036C33.0055 9.78121 32.8916 9.75 32.7756 9.75C32.6596 9.75 32.5457 9.78121 32.4459 9.84036L24.8371 14.9129C24.7473 14.9748 24.6747 15.0585 24.6259 15.156C24.5771 15.2536 24.5538 15.3619 24.5581 15.4709V20.5434C24.558 20.6481 24.5834 20.7513 24.632 20.8441C24.6806 20.9369 24.751 21.0165 24.8371 21.076L32.4459 26.1485C32.5535 26.2125 32.6758 26.2475 32.801 26.25C32.907 26.249 33.0113 26.2229 33.1053 26.1739C33.2045 26.1181 33.2872 26.0372 33.3451 25.9392C33.403 25.8412 33.434 25.7297 33.4351 25.6159V10.3983C33.434 10.2845 33.403 10.173 33.3451 10.0751C33.2872 9.9771 33.2045 9.89613 33.1053 9.84036Z" fill="#282828"/>
</svg>
