<svg width="36" height="36" viewBox="0 0 36 36" fill="none" xmlns="http://www.w3.org/2000/svg">
<path d="M12.5447 30.6125C12.5854 30.5486 12.6002 30.472 12.5861 30.3978C12.5719 30.3237 12.53 30.2575 12.4685 30.2125C11.5851 29.5077 10.4821 29.1237 9.34497 29.125C8.27453 29.1293 7.23283 29.4664 6.3686 30.0882C5.50437 30.71 4.86181 31.5848 4.53265 32.5875C4.51115 32.6325 4.5 32.6816 4.5 32.7313C4.5 32.781 4.51115 32.83 4.53265 32.875C4.56222 32.9138 4.60056 32.9453 4.64464 32.967C4.68872 32.9887 4.73732 33 4.7866 33H11.4019C11.4739 32.9999 11.5439 32.9766 11.6012 32.9338C11.6585 32.8909 11.7 32.8307 11.7194 32.7625V32.5875C11.8903 31.8915 12.1686 31.2254 12.5447 30.6125Z" fill="#282828"/>
<path d="M27.1214 29.125C26.1653 29.1234 25.2296 29.3972 24.4296 29.9125C24.3932 29.9311 24.3617 29.9577 24.3375 29.9902C24.3133 30.0227 24.297 30.0603 24.2899 30.1C24.2582 30.1761 24.2582 30.2614 24.2899 30.3375C24.7482 31.0248 25.0792 31.7866 25.2676 32.5875V32.7625C25.287 32.8307 25.3285 32.8909 25.3858 32.9338C25.4431 32.9766 25.5131 32.9999 25.5851 33H31.5401C31.5894 33 31.638 32.9887 31.6821 32.967C31.7262 32.9453 31.7645 32.9138 31.7941 32.875C31.8156 32.83 31.8267 32.781 31.8267 32.7313C31.8267 32.6816 31.8156 32.6325 31.7941 32.5875C31.4727 31.6066 30.8513 30.7475 30.0148 30.1277C29.1784 29.5079 28.1678 29.1577 27.1214 29.125Z" fill="#282828"/>
<path d="M23.0453 33.0001C23.0963 32.9993 23.1465 32.9877 23.1925 32.9661C23.2385 32.9446 23.2792 32.9135 23.312 32.8751C23.3335 32.8301 23.3446 32.781 23.3446 32.7313C23.3446 32.6816 23.3335 32.6326 23.312 32.5876C22.975 31.5918 22.3283 30.7256 21.4635 30.1118C20.5986 29.498 19.5595 29.1677 18.4933 29.1677C17.4272 29.1677 16.388 29.498 15.5232 30.1118C14.6583 30.7256 14.0116 31.5918 13.6747 32.5876C13.6629 32.6283 13.6609 32.6712 13.6688 32.7128C13.6766 32.7544 13.6941 32.7937 13.7199 32.8276C13.7457 32.8615 13.7791 32.889 13.8175 32.9081C13.8559 32.9272 13.8983 32.9373 13.9413 32.9376L23.0453 33.0001Z" fill="#282828"/>
<path d="M9.34475 28.025C11.0558 28.025 12.4429 26.6595 12.4429 24.975C12.4429 23.2906 11.0558 21.925 9.34475 21.925C7.63368 21.925 6.24658 23.2906 6.24658 24.975C6.24658 26.6595 7.63368 28.025 9.34475 28.025Z" fill="#282828"/>
<path d="M27.1211 28.025C28.8322 28.025 30.2193 26.6595 30.2193 24.975C30.2193 23.2906 28.8322 21.925 27.1211 21.925C25.41 21.925 24.0229 23.2906 24.0229 24.975C24.0229 26.6595 25.41 28.025 27.1211 28.025Z" fill="#282828"/>
<path d="M20.2777 27.4874C20.8261 27.1211 21.2408 26.5912 21.4607 25.9757C21.6806 25.3602 21.6943 24.6915 21.4996 24.0678C21.305 23.4441 20.9123 22.8983 20.3793 22.5106C19.8462 22.1228 19.2009 21.9136 18.5381 21.9136C17.8753 21.9136 17.23 22.1228 16.697 22.5106C16.1639 22.8983 15.7712 23.4441 15.5766 24.0678C15.3819 24.6915 15.3956 25.3602 15.6155 25.9757C15.8355 26.5912 16.2501 27.1211 16.7986 27.4874C17.3118 27.8303 17.9178 28.0136 18.5381 28.0136C19.1584 28.0136 19.7644 27.8303 20.2777 27.4874Z" fill="#282828"/>
<path d="M29.407 5.1875C29.407 4.60734 29.1729 4.05094 28.7562 3.6407C28.3394 3.23047 27.7743 3 27.1849 3H9.40857C8.82027 3.00328 8.25702 3.2348 7.84103 3.64433C7.42503 4.05386 7.18986 4.60835 7.18652 5.1875V15.1875C7.18986 15.7667 7.42503 16.3211 7.84103 16.7307C8.25702 17.1402 8.82027 17.3717 9.40857 17.375H10.6148C10.7844 17.3734 10.948 17.4361 11.0719 17.55L14.424 20.85C14.6054 21.0215 14.8456 21.1196 15.097 21.125C15.2237 21.1254 15.3491 21.0998 15.4652 21.05C15.6389 20.9801 15.7874 20.8606 15.8915 20.7069C15.9956 20.5531 16.0506 20.3722 16.0493 20.1875V18C16.0493 17.8342 16.1162 17.6753 16.2353 17.5581C16.3543 17.4408 16.5158 17.375 16.6842 17.375H27.1595C27.4535 17.3783 27.7451 17.3242 28.0177 17.2157C28.2902 17.1073 28.5382 16.9467 28.7472 16.7432C28.9562 16.5397 29.1222 16.2975 29.2354 16.0304C29.3487 15.7634 29.407 15.4769 29.407 15.1875V5.1875ZM22.0425 8.35C21.9489 8.26417 21.8739 8.16067 21.8218 8.04567C21.7698 7.93067 21.7418 7.80653 21.7395 7.68065C21.7373 7.55478 21.7608 7.42974 21.8087 7.313C21.8566 7.19627 21.9279 7.09023 22.0183 7.0012C22.1087 6.91218 22.2165 6.842 22.335 6.79485C22.4536 6.7477 22.5806 6.72454 22.7085 6.72676C22.8364 6.72898 22.9625 6.75653 23.0793 6.80777C23.1961 6.85901 23.3012 6.93289 23.3884 7.025L25.9279 9.525C26.0177 9.61118 26.0891 9.7142 26.1379 9.82799C26.1866 9.94177 26.2118 10.064 26.2118 10.1875C26.2118 10.311 26.1866 10.4332 26.1379 10.547C26.0891 10.6608 26.0177 10.7638 25.9279 10.85L23.3884 13.35C23.3009 13.4382 23.1962 13.5081 23.0805 13.5553C22.9649 13.6026 22.8407 13.6263 22.7154 13.625C22.5903 13.6256 22.4663 13.6016 22.3508 13.5543C22.2352 13.5071 22.1304 13.4376 22.0425 13.35C21.8641 13.1742 21.764 12.9359 21.764 12.6875C21.764 12.4391 21.8641 12.2008 22.0425 12.025L23.6931 10.4125C23.7494 10.3506 23.7804 10.2705 23.7804 10.1875C23.7804 10.1045 23.7494 10.0244 23.6931 9.9625L22.0425 8.35ZM16.1763 12.275L18.7158 7.275C18.8277 7.05362 19.0239 6.88475 19.2618 6.80515C19.4996 6.72554 19.7597 6.74167 19.9855 6.85C20.0969 6.9044 20.1963 6.98005 20.2778 7.07254C20.3593 7.16503 20.4213 7.27253 20.4603 7.38881C20.4993 7.50509 20.5144 7.62783 20.5049 7.74991C20.4953 7.872 20.4612 7.99099 20.4045 8.1L17.865 13.1C17.7894 13.2587 17.669 13.3926 17.5181 13.4857C17.3673 13.5788 17.1924 13.6272 17.0143 13.625C16.869 13.6216 16.7261 13.5875 16.5953 13.525C16.3727 13.4126 16.2039 13.2185 16.1255 12.9846C16.0471 12.7507 16.0653 12.4958 16.1763 12.275ZM10.6148 9.525L13.1543 7.025C13.3329 6.84944 13.5749 6.75083 13.8273 6.75083C14.0796 6.75083 14.3217 6.84944 14.5002 7.025C14.5901 7.11118 14.6615 7.2142 14.7102 7.32798C14.759 7.44177 14.7841 7.56401 14.7841 7.6875C14.7841 7.81099 14.759 7.93323 14.7102 8.04702C14.6615 8.1608 14.5901 8.26382 14.5002 8.35L12.8877 9.9625C12.8569 9.99165 12.8325 10.0266 12.8158 10.0653C12.7991 10.1039 12.7905 10.1455 12.7905 10.1875C12.7905 10.2295 12.7991 10.2711 12.8158 10.3097C12.8325 10.3484 12.8569 10.3833 12.8877 10.4125L14.5256 12.025C14.6155 12.1112 14.6869 12.2142 14.7356 12.328C14.7844 12.4418 14.8095 12.564 14.8095 12.6875C14.8095 12.811 14.7844 12.9332 14.7356 13.047C14.6869 13.1608 14.6155 13.2638 14.5256 13.35C14.4381 13.4382 14.3334 13.5081 14.2177 13.5553C14.1021 13.6026 13.9779 13.6263 13.8527 13.625C13.7233 13.629 13.5945 13.6066 13.4743 13.5593C13.3541 13.512 13.2452 13.4407 13.1543 13.35L10.6148 10.85C10.4365 10.6742 10.3363 10.4359 10.3363 10.1875C10.3363 9.93906 10.4365 9.70078 10.6148 9.525Z" fill="#282828"/>
</svg>
