<svg width="129" height="134" viewBox="0 0 129 134" fill="none" xmlns="http://www.w3.org/2000/svg">
<rect x="15" width="114" height="114" rx="4" fill="#D6F0FF"/>
<path d="M66.1278 122.49C66.1278 122.49 65.0163 129.905 64.9642 130.438C64.9122 130.972 70.3597 130.759 74.3792 130.865C78.3988 130.971 81.5197 130.598 88.2373 130.918C94.9548 131.239 98.4426 130.295 99.98 130.545C100.983 130.703 102.005 130.666 102.995 130.438C102.995 130.438 101.038 120.036 101.09 119.287C101.143 118.538 76.8128 107.711 73.2162 109.952C69.6197 112.193 66.1278 122.49 66.1278 122.49Z" fill="white"/>
<path d="M27.1007 95.2889C26.7311 95.6623 26.2629 95.9214 25.7517 96.0352C25.5432 95.5585 25.5268 95.0187 25.7061 94.5295L27.1007 95.2889Z" fill="white"/>
<path d="M25.0626 94.6357V95.9868H11.5322C11.2397 95.1827 11.6076 94.5708 12.3477 94.5673C14.642 94.5472 16.8633 94.6357 25.0626 94.6357Z" fill="white"/>
<path d="M4.2326 96.3579C70.2042 97.1621 61.8756 95.6199 64.7754 98.0312C63.9915 99.2301 65.9454 99.1368 51.0999 98.9062C46.7844 98.8395 26.62 99.1085 12.7298 98.9221C5.47104 98.8247 4.83222 98.9734 3.77922 98.8967C3.78156 95.929 3.63122 96.352 4.2326 96.3579Z" fill="white"/>
<path d="M50.7444 45.5796C50.4654 37.4376 42.9131 32.1011 35.6778 33.3259C32.5124 33.8806 29.6616 35.5947 27.6726 38.1394C25.6837 40.684 24.6966 43.8799 24.9009 47.1136C25.5889 56.6185 35.6649 61.9061 43.4893 57.8516C36.8326 46.0664 34.3557 41.888 34.1521 41.488C33.638 40.7 32.9947 40.0061 32.2497 39.436C31.8712 39.1109 32.3263 38.8235 32.9248 38.4483C33.1079 38.3338 33.2857 38.1574 33.3928 38.2713C33.6159 38.779 33.8078 39.3002 33.9672 39.8318C34.6242 41.3511 35.5883 42.6208 37.5989 45.5737C38.2588 46.5396 44.0269 55.3376 45.1314 56.9507C48.9251 54.0892 50.9071 50.3321 50.7444 45.5796Z" fill="#B1F1FF"/>
<path d="M82.0815 105.127C83.9271 106.531 83.7294 106.341 83.7195 106.497C82.2119 107.001 82.7882 107.092 81.187 106.198L82.0815 105.127Z" fill="#55C6F0"/>
<path d="M90.2818 98.069C90.7322 99.19 89.6968 99.6502 89.4043 98.7899C89.7021 98.5439 89.9776 98.3191 90.2818 98.069Z" fill="#55C6F0"/>
<path d="M88.3163 98.3257C88.6749 98.9747 88.8493 99.7417 89.7642 99.9777C89.4167 100.349 86.996 102.984 86.0875 104.012C85.7172 104.432 85.7412 104.295 84.002 103.186L88.3163 98.3257Z" fill="#55C6F0"/>
<path d="M87.8436 97.8955L83.3391 102.914C82.688 102.358 81.9854 101.867 81.2413 101.446C81.1301 101.399 81.0096 101.379 80.8891 101.388C80.7692 101.398 80.6528 101.436 80.5498 101.499C80.4474 101.562 80.3609 101.649 80.2977 101.753C80.2351 101.857 80.1976 101.974 80.1883 102.095C80.0748 103.305 80.6914 103.819 81.5238 104.787C80.1783 106.239 81.0178 105.756 79.4541 104.239C77.4013 102.247 77.3393 101.016 75.6656 100.713C74.9543 100.584 74.1411 101.133 74.4541 101.82C74.6366 102.221 74.4301 101.927 73.9691 101.672C72.2545 100.724 71.2425 101.774 71.6087 102.596C71.6777 102.751 71.759 102.902 71.862 103.108C71.6321 103.102 71.4057 103.163 71.2085 103.282C71.0114 103.402 70.8529 103.576 70.7505 103.784C68.5836 102.463 66.3209 101.309 63.9814 100.332L72.4534 88.6072C77.9097 91.117 83.0718 94.2322 87.8436 97.8955Z" fill="#B1F1FF"/>
<path d="M92.9074 102.222C93.7311 104.192 94.7794 107.145 94.419 109.253C94.3658 109.56 92.9624 110.161 92.6055 110.251C92.2487 110.342 92.4827 110.373 90.8371 111.107C90.4106 108.324 90.7879 109.677 89.4413 105.068C89.3857 104.879 89.3506 104.849 88.0127 102.779C88.7147 101.893 89.5378 101.112 90.458 100.46C91.1173 99.9405 92.6143 101.519 92.9074 102.222ZM92.9577 108.498C92.9466 108.321 92.8664 108.156 92.7348 108.039C92.6032 107.922 92.4312 107.862 92.2557 107.873C92.0808 107.884 91.917 107.965 91.8012 108.098C91.6847 108.231 91.6257 108.405 91.6368 108.581C91.6391 108.671 91.659 108.759 91.6958 108.841C91.7327 108.923 91.7854 108.996 91.8515 109.057C91.917 109.117 91.9936 109.164 92.0779 109.193C92.1615 109.224 92.2504 109.236 92.3394 109.231C92.4283 109.225 92.5149 109.201 92.5944 109.161C92.674 109.121 92.7448 109.065 92.8027 108.996C92.86 108.928 92.9033 108.849 92.9296 108.763C92.9565 108.677 92.9653 108.587 92.9565 108.498H92.9577Z" fill="white"/>
<path d="M49.1599 63.6838C47.4546 62.9168 47.2715 62.9976 46.8948 62.3858C46.769 62.1817 37.1083 45.9307 37.0995 45.916C36.9463 45.6572 36.8078 45.3899 36.6847 45.1153C36.6573 45.0357 36.6537 45.0015 36.6801 44.9867C36.7971 44.923 36.5379 44.4209 41.6947 52.6709C44.694 57.4658 49.1985 63.613 49.1599 63.6838Z" fill="white"/>
<path d="M53.1244 69.6198C53.4023 69.9808 53.3923 70.2434 53.0179 70.4818C51.5554 71.411 51.4121 70.9402 51.2331 70.395C51.3393 70.2592 51.4035 70.0947 51.4174 69.9223C51.4313 69.7498 51.3945 69.577 51.3115 69.4257C51.019 68.8858 49.9437 68.8734 50.0719 68.3991C50.2169 67.8627 49.8308 67.5813 49.3511 67.2963C49.9572 66.573 49.6904 66.1394 49.2651 65.6013C50.4831 65.3511 49.2482 65.6697 51.6946 67.74C51.9339 67.9424 52.2364 68.4651 53.1244 69.6198Z" fill="white"/>
<path d="M59.1741 72.8169C60.5008 73.9574 60.2686 74.1557 58.8301 76.046C58.6312 76.3074 57.2698 77.7664 57.1212 77.9193C55.5306 79.5553 55.3604 79.7671 54.7075 80.0179C52.7097 80.7849 52.426 80.8628 51.965 80.4533C50.8038 79.4208 50.6026 78.3612 49.9099 77.6591C49.7404 77.508 49.6259 77.3033 49.5847 77.0791C49.5436 76.8543 49.5782 76.6224 49.683 76.4201C49.9679 75.7451 51.6293 72.7621 51.8779 73.2004C52.1973 73.7657 52.0499 73.3019 51.0952 74.7563C50.6792 75.3893 49.9462 76.4773 50.4405 76.9983C50.5601 77.1469 50.7232 77.2531 50.9065 77.3021C51.0899 77.3517 51.284 77.3405 51.4608 77.2714C51.8496 77.134 52.2017 76.908 52.4898 76.6112C53.2351 75.6955 53.7429 75.8608 54.9304 74.6359C56.8826 72.6234 57.4506 71.9485 57.3067 70.9696C57.2242 70.4086 56.8416 70.1761 56.0741 70.4735L55.8342 70.031C56.6158 69.6351 57.5097 69.71 57.7975 70.739C58.1783 71.4811 58.64 72.1781 59.1741 72.8169ZM52.9145 79.589C53.0773 79.5848 53.2323 79.5182 53.3475 79.4019C53.4625 79.2857 53.5288 79.1293 53.5326 78.9647C53.5364 78.8007 53.4773 78.6414 53.3676 78.5199C53.258 78.3983 53.1062 78.3246 52.9437 78.3128C52.8578 78.3057 52.7714 78.3169 52.6897 78.3452C52.6081 78.373 52.5331 78.4178 52.4691 78.4756C52.4051 78.534 52.3537 78.6048 52.3179 78.6845C52.282 78.7635 52.2626 78.8491 52.2607 78.9358C52.2588 79.0226 52.2746 79.1093 52.307 79.1901C52.3393 79.2704 52.3877 79.3435 52.4491 79.4049C52.5104 79.4657 52.5836 79.5134 52.6639 79.5453C52.7442 79.5766 52.8301 79.5913 52.9163 79.5884L52.9145 79.589Z" fill="white"/>
<path d="M75.582 46.739C75.6768 47.2963 75.592 47.8695 75.3399 48.3745C75.3387 46.8482 75.2743 46.9284 75.582 46.739Z" fill="white"/>
<path d="M71.1066 46.1124C71.1938 47.3005 71.1938 48.4933 71.1066 49.6813C70.421 48.9297 70.3871 46.8688 71.1066 46.1124Z" fill="white"/>
<path d="M107.842 92.5679C108.135 101.782 108.015 99.3989 95.8925 106.16C94.9519 106.684 95.118 106.94 95.0004 106.167C94.8196 104.98 93.9538 102.246 93.2214 101.291C91.7975 99.4337 90.9434 99.9647 91.9286 99.2461C93.7339 97.9292 101.906 92.8694 104.58 91.9732C105.098 91.7991 105.209 91.307 104.58 90.2238C104.132 89.4568 103.622 89.773 102.794 90.0698C102.845 89.7748 102.877 89.4769 102.89 89.1777C102.916 88.3812 102.374 88.4078 102.095 88.5742C100.45 89.5494 100.303 89.6214 99.3967 90.186C99.3967 87.8756 99.4879 87.7971 99.3312 87.7004C99.027 87.511 98.917 87.6768 98.6918 87.8296C94.3598 90.7642 94.667 90.9778 93.7813 91.6026C93.4759 90.0881 93.3794 89.6456 93.3185 89.1683C93.2185 88.3895 93.5309 86.8897 93.1331 85.7823C92.7622 84.751 92.0936 84.0359 92.1971 81.847C92.3235 79.123 92.4001 78.9837 92.3299 78.8734C92.0813 78.4828 91.842 78.8049 91.8309 78.8811C91.553 80.7927 91.1704 83.4665 92.2176 85.3634C93.0828 86.9316 92.31 87.6296 92.8611 90.5064C93.1898 92.2174 93.2121 92.3089 93.0611 92.5124C91.4021 94.7544 90.6954 95.378 90.3438 96.9575C90.2607 97.3304 89.6711 97.7593 89.1902 98.1723C87.9471 93.5567 85.0332 90.7772 81.3682 87.213C83.8193 83.2742 83.3238 83.4807 86.2237 79.7967C90.1016 74.8679 91.8806 73.9829 91.1798 72.7633C89.6471 70.0936 89.8483 70.5278 89.4605 70.0889C90.2748 69.5697 89.6834 70.0423 93.3893 67.2569C94.6108 66.3388 92.7856 63.5352 93.2267 63.8113C93.8866 64.1334 94.4856 64.5688 94.9975 65.0981C96.3945 66.8433 96.7654 66.2533 98.6023 67.0504C102.186 68.6044 101.063 68.1342 102.443 74.4148C102.787 75.9818 103.136 75.7163 103.767 77.6928C105.615 83.4748 104.803 80.5749 105.371 84.1975C106.128 89.0497 107.745 89.5247 107.842 92.5679Z" fill="#55C6F0"/>
<path d="M103.721 90.304C104.009 90.1819 104.282 90.858 104.429 91.4492C100.255 93.1153 95.3523 96.3367 91.118 99.1469C91.063 98.9628 91.0642 98.7664 91.1215 98.5835C91.1789 98.4 91.29 98.2389 91.4404 98.1203C92.8941 97.0483 96.8873 93.2009 103.721 90.304Z" fill="white"/>
<path d="M101.659 112.926C102.994 116.275 104.24 119.249 103.765 119.743C101.763 121.842 96.3723 123.739 93.669 124.767C91.4197 125.621 87.2802 127.712 83.9147 127.407C80.1122 127.061 79.2698 128.001 78.7813 126.941C78.3133 125.926 77.898 123.332 76.8923 117.578C76.1389 113.267 76.0113 113.261 75.5796 112.161C75.3778 111.283 75.3041 110.379 75.3608 109.48C76.9795 111.228 77.1228 111.687 83.2846 111.119C84.8191 110.977 86.0026 111.192 88.8726 110.011C89.1124 109.913 89.0264 109.847 89.3183 110.526C89.395 110.782 89.5301 111.018 89.7132 111.212C89.8963 111.407 90.1221 111.556 90.3725 111.646C90.6223 111.737 90.8902 111.768 91.1547 111.735C91.4185 111.702 91.6712 111.608 91.8923 111.458C93.6204 110.532 94.8671 110.514 95.0759 109.298C95.3011 107.985 94.9373 107.555 95.414 107.292C98.1319 105.799 98.1524 105.605 98.4092 106.023C100.253 109.013 99.9987 108.76 101.659 112.926Z" fill="#55C6F0"/>
<path d="M102.356 89.2102C102.345 89.7311 102.301 90.1542 102.069 90.3483C101.712 90.6433 100.649 91.0504 98.1188 92.5679C96.4117 93.5909 93.7207 95.7409 92.8789 96.2524C93.0351 95.8064 98.3405 91.1466 102.211 89.1199C102.227 89.1122 102.244 89.1081 102.261 89.1087C102.278 89.1093 102.294 89.1146 102.309 89.1234C102.324 89.1329 102.336 89.1453 102.344 89.1606C102.352 89.176 102.356 89.1931 102.356 89.2102Z" fill="white"/>
<path d="M98.772 88.439C98.951 88.3092 98.9738 88.2549 98.8457 90.4361C96.0464 92.5395 93.1185 94.8252 90.7773 97.5911C90.8078 96.8282 91.0728 96.0942 91.5349 95.4901C94.1118 91.579 95.5626 90.7642 98.772 88.439Z" fill="white"/>
<path d="M95.3286 42.0822C95.7381 45.3714 93.0424 46.3302 94.1399 48.7173C94.5242 49.5846 94.7582 50.5116 94.8331 51.4585C94.8594 52.149 94.7366 52.837 94.4733 53.4751C94.0855 54.5961 92.1585 56.8971 90.3198 57.0558C89.8969 57.0924 89.516 57.2328 89.3212 57.2428C88.8111 57.2664 88.8158 56.9425 88.2928 56.1112C88.5929 56.0773 88.8801 55.9705 89.1299 55.8C89.3803 55.6295 89.5851 55.4004 89.7284 55.1323C89.8711 54.8641 89.9472 54.565 89.9501 54.2607C89.953 53.9563 89.8828 53.6557 89.7454 53.3848C90.1718 52.7173 90.5562 52.0233 90.8955 51.3068C91.7408 49.2052 90.8615 46.7992 88.7228 47.034C87.5171 47.1668 87.537 47.7285 87.176 47.7238C82.613 47.3261 84.3452 47.5196 83.232 47.4105C83.1255 46.7035 83.2273 45.9805 83.5245 45.3313C83.9925 44.4015 86.0546 41.586 83.1963 39.6166C81.2658 38.2873 79.6453 38.5292 78.6655 37.3976C77.9635 36.5846 78.2624 36.0854 78.0699 35.6789C78.0454 35.624 78.0032 35.5788 77.9506 35.5504C77.8973 35.522 77.8371 35.512 77.778 35.5219C77.7189 35.5318 77.6645 35.561 77.6236 35.6051C77.5826 35.6491 77.5575 35.7056 77.5516 35.7656C77.5996 36.1552 77.5317 36.5503 77.3568 36.901C77.1819 37.2517 76.9075 37.5422 76.5688 37.7356C73.9621 39.0732 72.217 39.344 71.663 41.835C71.3173 43.392 71.3325 44.667 70.8996 45.208C69.8062 46.5768 69.6945 49.102 70.8668 50.4637C70.9423 50.5514 70.9955 50.6562 71.0224 50.7693C71.0488 50.8823 71.0482 51.0001 71.0195 51.1127C70.7779 52.5827 70.9704 54.0919 71.5735 55.4522C71.866 56.0038 70.9405 56.2357 70.9095 57.2416C70.889 57.8954 71.1938 58.2051 72 59.0116C73.215 60.2306 72.1246 61.5935 71.5448 62.9115C70.5948 65.0698 73.5145 65.0467 72.7733 67.7637C72.6909 68.0789 72.5347 68.3696 72.3176 68.6112C72.1006 68.8528 71.8291 69.0383 71.5261 69.152C71.9842 67.1584 71.1014 66.9554 69.8249 65.8934C67.3884 63.8656 69.0399 62.4561 69.4225 61.5669C69.6202 61.0644 69.6442 60.5093 69.4909 59.9914C69.337 59.4734 69.0153 59.0226 68.5765 58.7119C67.5785 57.9243 66.7426 56.4516 67.4621 55.4014C68.0612 54.5259 68.7854 53.8013 67.864 52.1257C67.1761 50.8744 65.992 49.1344 67.5382 47.3591C68.4824 46.2753 69.3628 45.8122 69.2867 44.713C69.1978 43.4274 67.038 42.8946 68.4496 40.157C68.6889 39.7369 69.0153 39.3741 69.4072 39.0936C69.7986 38.8132 70.2461 38.6218 70.7182 38.5327C71.157 38.4129 71.5472 38.1553 71.8309 37.797C72.1152 37.4388 72.2784 36.9986 72.2977 36.5403C72.3182 36.0133 72.4545 35.4975 72.6961 35.0298C72.9377 34.5623 73.2794 34.1545 73.6959 33.8359C74.1124 33.5173 74.5944 33.2958 75.1057 33.1873C75.6176 33.0788 76.147 33.0861 76.6554 33.2086C77.7084 33.4735 77.7458 34.3691 78.1881 34.3886C78.5906 34.4051 78.4162 33.3531 79.8717 32.926C80.3661 32.7563 80.8873 32.6808 81.4091 32.7035C82.0269 32.7686 82.6113 33.0178 83.0881 33.4194C83.5648 33.8211 83.9117 34.3569 84.0849 34.9585C84.5231 36.5804 85.0642 37.0424 85.9838 37.3085C86.4775 37.4819 86.9257 37.7671 87.2936 38.1424C87.661 38.5176 87.9389 38.9728 88.105 39.4731C88.2706 39.9733 88.3209 40.5053 88.2513 41.0281C88.1822 41.551 87.9945 42.0508 87.7037 42.4893C86.1827 44.7 87.6663 46.3992 87.9096 45.2812C87.9681 44.9985 87.2661 44.323 88.0465 43.33C88.7017 42.482 89.0317 41.424 88.9755 40.3503C88.9188 39.2767 88.4806 38.2596 87.74 37.4861C86.7525 36.3834 85.5527 36.7975 85.0618 35.522C87.6943 33.1578 91.0002 35.5715 92.0865 39.3139C92.7113 41.465 90.9165 44.379 91.794 44.4752C91.8449 44.4811 91.897 44.4757 91.9461 44.4593C91.9947 44.443 92.0397 44.4162 92.0772 44.3806C92.1146 44.3451 92.1439 44.3017 92.1632 44.2535C92.1825 44.2054 92.1912 44.1536 92.1883 44.1017C92.2281 43.1347 92.7476 42.2952 92.8821 41.3588C93.2015 39.1393 92.3977 38.5333 92.5896 38.2908C94.1217 39.2366 95.1022 40.2526 95.3286 42.0822Z" fill="#55C6F0"/>
<path d="M92.1515 63.0962C92.7248 64.3895 93.6795 66.2592 92.7552 66.8934C91.0523 68.0616 92.0573 67.474 89.0697 69.4747C88.9293 69.5508 88.8211 69.6763 88.7655 69.8273C88.7099 69.9783 88.7111 70.1446 88.769 70.2948L88.4905 70.3437C88.2589 69.869 88.1296 69.3503 88.1103 68.8216C88.0916 68.2928 88.1834 67.7661 88.3806 67.2757C88.9954 65.6196 89.8793 65.0172 90.713 61.489C91.3219 61.8904 91.8174 62.4441 92.1515 63.0962Z" fill="white"/>
<path d="M90.5373 72.9993C91.1381 74.0784 88.8467 73.6406 80.9392 86.6607C80.8006 86.889 80.8632 86.823 79.8915 86.2052C79.09 85.6955 78.8385 86.3563 77.892 87.5516C76.8764 88.8349 79.417 81.8876 79.6405 81.2321C82.6427 72.4464 84.4832 70.0162 85.2413 68.6498C87.4275 72.0753 88.9268 71.6747 88.7665 71.0806C88.6952 70.8278 88.6027 70.5814 88.4916 70.3437L88.77 70.2947C88.8075 70.3776 88.8607 70.4526 88.9256 70.516C89.5797 71.2602 90.1225 72.0969 90.5373 72.9993Z" fill="#55C6F0"/>
<path d="M88.121 47.9715C89.8924 46.9024 91.3789 49.5574 89.8626 51.7699C89.3507 52.5162 89.2302 52.7269 88.9927 52.633C88.0415 52.256 87.6788 52.7416 87.3348 52.836C86.7861 52.9859 86.8966 51.5828 87.0522 51.0194C87.1359 50.476 87.1763 49.9267 87.1733 49.3768C87.1885 49.2217 87.2318 49.0712 87.2546 48.9184C87.443 48.5225 87.7449 48.1926 88.121 47.9715Z" fill="white"/>
<path d="M89.7293 108.659C89.7515 108.757 89.7661 108.857 89.7743 108.958C88.2656 109.48 86.8318 110.181 85.2283 110.298C76.6498 110.926 78.5341 111.7 73.7623 106.645C73.3183 106.173 72.1524 104.867 71.7241 104.368C71.3609 103.945 71.5486 103.607 72.0985 103.815C74.2297 104.626 73.8711 105.998 75.8718 107.631C76.3228 107.999 76.7247 109.176 77.8859 109.623C78.6845 109.93 78.7137 109.265 78.2159 109.092C77.6818 108.852 77.2302 108.456 76.9201 107.956C75.3722 105.959 75.8771 107.079 74.5959 105.069C73.3949 103.184 71.3977 102.153 72.5929 102.024C73.4885 101.928 74.0554 102.437 75.9595 104.522C79.4268 108.324 78.4616 108.278 79.9791 109.249C80.3002 109.455 80.4471 109.392 80.6056 108.977C78.5353 106.862 76.7259 104.504 75.2166 101.952C74.9329 101.417 75.3798 101.326 75.5957 101.369C76.166 101.536 76.6598 101.901 76.9915 102.398C77.5934 103.248 78.2796 104.034 79.039 104.744C79.8147 105.561 80.0534 106.436 81.0865 106.877C82.7689 107.596 83.3914 108.245 83.4072 107.308C83.8167 107.174 84.218 107.016 84.6093 106.836C84.6918 106.785 84.7509 106.703 84.7737 106.609C84.7966 106.514 84.7813 106.413 84.731 106.33C84.6287 106.161 82.8848 104.864 82.5624 104.636C81.5925 103.95 80.5442 102.571 81.0028 102.217C81.1988 102.064 82.0588 102.801 83.0872 103.579C83.2159 103.676 84.3081 104.251 85.0797 104.712C85.3043 104.845 85.5535 104.928 85.8121 104.958C86.0707 104.988 86.3322 104.963 86.5808 104.886C87.074 104.833 87.5712 104.827 88.0655 104.869C88.6453 104.614 88.6763 105.006 89.7293 108.659Z" fill="white"/>
<path d="M87.5347 56.0356C89.385 58.8782 90.8534 60.1868 89.4506 63.5044C87.9296 67.1034 87.1369 67.5005 87.6371 70.4033C86.7572 69.8038 86.0897 68.937 85.7317 67.9288C84.7583 65.141 88.1302 62.6153 86.3787 60.0493C84.9373 57.9389 83.8515 57.9466 83.6415 55.8421C83.5327 54.7559 84.1148 54.3889 84.87 52.9298C85.995 50.7509 83.1513 48.5325 83.421 48.0535L86.7923 48.3048C86.3319 49.3621 86.6654 49.7928 86.4577 50.9864C86.0681 53.2284 86.9199 53.1947 86.8087 53.6874C86.3273 55.2473 87.3235 55.7117 87.5347 56.0356Z" fill="#55C6F0"/>
<path d="M89.2917 54.3772C89.2882 54.5867 89.2209 54.79 89.098 54.9591C88.9752 55.1282 88.8038 55.2547 88.6067 55.3213C88.4095 55.3879 88.1971 55.3912 87.9982 55.3309C87.7993 55.2705 87.6239 55.1494 87.4957 54.9843C87.3594 54.7517 87.2974 54.4823 87.3185 54.2128C87.3395 53.9434 87.4419 53.687 87.6127 53.4786C87.752 53.3554 87.9187 53.2676 88.0983 53.2227C88.2785 53.1779 88.4662 53.1772 88.6464 53.2208C88.8664 53.3136 89.0489 53.4778 89.1659 53.6873C89.2829 53.8967 89.3274 54.1395 89.2917 54.3772Z" fill="white"/>
<path d="M87.9953 96.3686C87.6472 96.5775 88.2328 95.6476 77.9468 88.6054C79.2396 86.695 79.2823 86.6265 79.7193 86.8885C81.6779 88.0596 84.2548 90.7913 86.004 93.0245C86.8417 94.024 87.5145 95.1532 87.9953 96.3686Z" fill="white"/>
<path d="M87.2316 96.5628C86.5021 96.017 85.8691 95.7114 85.18 95.2323C81.6472 92.8145 77.9617 90.6309 74.1475 88.6957C74.3083 88.2792 74.5704 87.7387 74.9232 87.7842C77.2199 88.2939 87.5867 96.1167 87.2316 96.5628Z" fill="white"/>
<path d="M84.9911 59.424C86.068 60.5863 86.3822 61.6973 85.9943 62.0637C85.3473 62.6749 85.1753 62.6295 82.9576 63.3652C80.0016 64.3464 80.9756 63.8649 80.7106 67.6917C80.6457 68.6268 81.4278 70.729 79.0141 72.2211C79.0018 71.5308 78.494 70.9125 78.8445 70.2151C80.469 66.9866 80.4515 68.9649 79.6915 62.2318C79.626 61.6512 82.792 59.2635 82.4264 58.6033C82.0696 57.959 81.0423 59.8812 76.9573 60.3568C76.5308 60.4263 76.0932 60.3689 75.6983 60.1916C75.3035 60.0143 74.9683 59.7248 74.7343 59.3585C71.8947 55.0049 71.3787 53.97 71.7192 51.1823C73.9515 51.9263 74.839 49.7793 74.5055 50.6082C74.4207 50.761 74.3727 50.9319 74.3657 51.107C74.3593 51.2821 74.3938 51.4562 74.4669 51.6151C74.54 51.7741 74.6494 51.9132 74.7863 52.021C74.9232 52.1289 75.0835 52.2023 75.2543 52.2354C75.5644 52.3183 75.8838 52.3615 76.2044 52.3641C76.257 52.3729 76.3114 52.3697 76.3629 52.3547C76.4144 52.3398 76.4618 52.3134 76.5021 52.2776C76.5419 52.2417 76.5735 52.1973 76.5946 52.1476C76.6156 52.0978 76.625 52.044 76.6226 51.99C76.6612 51.4035 74.5406 51.9469 75.1426 50.7628C75.8452 49.5264 76.2196 48.128 76.2295 46.703C76.9362 47.06 76.4811 46.6652 76.6355 48.2795C76.8894 50.9345 79.4324 52.0337 80.992 50.5085C82.4194 49.1137 81.6092 48.2866 82.6464 48.1402C82.9336 49.3539 84.4096 50.4548 84.4505 51.6867C84.4944 52.9883 83.0693 53.6579 82.936 55.5636C82.7938 57.536 84.7144 59.1237 84.9911 59.424Z" fill="white"/>
<path d="M82.6607 40.0213C83.1486 40.3084 83.53 40.7485 83.7464 41.2745C83.9629 41.8006 84.0032 42.3836 83.8605 42.9347C83.2755 44.6705 82.4232 45.0923 82.5349 47.1927C82.5489 47.4547 82.4629 47.5733 82.2014 47.5792C82.1675 47.2907 82.1488 46.9986 82.0961 46.7154C81.5351 43.7106 78.63 43.3872 77.4232 45.1224C77.1892 45.4599 77.0078 45.834 76.7861 46.2192C76.5462 46.0589 76.266 45.9711 75.9788 45.9663C75.691 45.9615 75.4078 46.0399 75.1633 46.1921C74.6321 44.9112 73.7903 44.1171 72.3407 44.261C72.3664 43.7749 72.8912 43.6238 73.296 43.6551C73.9611 43.7058 74.5666 44.0775 74.7585 43.5524C75.0475 42.7589 73.8523 42.4244 72.907 42.8385C72.5963 42.9962 72.2962 43.1736 72.0078 43.3695C72.0616 42.6399 72.2424 41.9254 72.5407 41.2585C72.6981 40.833 72.9503 40.4496 73.2779 40.1377C73.6055 39.8258 73.9992 39.5938 74.4297 39.4596C77.2816 38.1652 77.4583 37.9197 77.7882 37.2979C78.9208 39.0266 79.9562 38.538 82.6607 40.0213Z" fill="white"/>
<path d="M81.5445 47.5549C81.5656 50.0919 78.8324 51.6707 77.625 49.4146C77.1775 48.6849 77.0336 47.8069 77.2231 46.9706C77.4132 46.1344 77.9216 45.4072 78.6394 44.9465C79.989 44.2314 81.5269 45.4232 81.5445 47.5549ZM78.8336 48.2629C79.2373 48.3331 79.225 47.2705 79.1378 47.064C78.9863 46.7059 78.4984 46.6109 78.451 47.0009C78.3609 47.7349 78.3404 48.175 78.8336 48.26V48.2629Z" fill="white"/>
<path d="M80.4572 53.563C80.2466 54.0692 80.0477 54.4745 79.5107 54.6008C78.1705 54.9135 76.8484 55.3312 75.4461 55.2433C74.9781 55.2138 74.8804 55.1288 74.6733 54.4981C76.6477 54.659 78.6314 54.3382 80.4572 53.563Z" fill="white"/>
<path d="M85.9108 62.9569C81.8158 64.8148 81.3045 63.7663 81.4145 65.6337C81.5128 67.3063 81.239 67.1677 81.4279 69.087C81.5771 70.5891 80.4369 72.0092 79.7449 72.5444C78.173 73.7604 78.9469 74.41 78.2327 77.6184C77.9472 78.9022 77.1486 79.6609 77.2522 80.6132C77.3979 81.9513 76.8626 82.3572 76.697 83.7774C76.5724 84.8488 76.7772 84.4264 76.411 84.8394C76.3168 84.7527 76.1413 84.6659 76.1407 84.5786C76.0565 83.9945 76.0962 83.3992 76.2577 82.8322C77.2727 80.4687 76.0892 80.8339 77.1545 78.8857C78.2865 76.8166 77.774 74.9775 78.3245 73.4093C78.6854 72.378 78.3584 72.516 78.1549 71.2741C77.7998 69.1076 79.8098 68.3678 79.5197 66.7901C79.4734 66.5393 79.4419 66.2721 79.3834 66.0231C79.3453 65.8329 79.274 65.6512 79.1716 65.4868C78.9721 65.2501 78.8574 64.9522 78.8469 64.6416C78.8358 64.3309 78.93 64.0258 79.1131 63.7758C79.343 63.4477 79.1903 63.1486 79.1055 62.8176C78.3327 63.1044 78.1543 63.3486 77.4915 65.3765C77.199 66.2615 76.731 68.0114 77.7108 68.4799C77.8343 68.1377 77.6687 68.6303 78.5298 66.088C78.6539 65.7222 78.9978 65.7859 79.0411 66.0426C79.0517 66.1171 79.0423 66.1931 79.0136 66.2626C77.8354 69.2014 78.8194 68.6681 77.3838 69.1348C77.1422 68.7471 75.269 79.9459 75.269 87.2767L76.9 88.0897C77.368 86.338 77.4973 85.4665 77.867 84.2789C78.5275 82.1549 81.4882 74.2648 83.8024 70.0257C84.2084 69.2828 84.2301 69.4534 83.7252 69.5159C81.8456 69.7519 83.0817 67.199 82.3797 65.7346C81.6415 66.8025 81.4039 65.3245 82.2077 65.2036C83.5328 65.0083 83.2906 66.8178 83.2765 68.2905C83.266 69.441 85.2854 68.7684 84.9953 67.5943C84.5413 65.7576 85.5943 64.4543 85.9108 62.9569Z" fill="white"/>
<path d="M74.4179 66.0036C74.9022 65.4992 77.1469 62.9445 77.5868 63.3333C77.1018 64.623 75.9886 66.9264 76.8158 68.5141C77.1668 69.1938 75.6891 68.5949 74.6092 86.777C74.5811 87.249 74.6589 86.6477 73.5971 88.4054C72.1966 87.8885 72.54 87.495 70.5106 90.1954C67.9156 93.6499 68.2204 93.4617 68.0835 93.3944C67.8161 90.9058 67.6781 88.4048 67.6693 85.9014C67.6874 84.7993 68.3625 82.2286 68.6773 80.4946C68.8218 78.7771 69.0809 77.0715 69.453 75.3894C69.7139 73.984 69.6577 74.4454 69.6285 73.9462C69.1605 73.7846 69.1359 73.5645 68.2461 78.386C67.9682 79.8893 68.4713 79.0096 67.3926 83.3532C66.5432 86.7752 67.213 90.1317 67.3979 92.1554C67.4564 92.818 67.4014 93.8103 67.44 93.8811C67.8015 94.5402 66.9369 94.9833 65.3252 97.3179C63.9838 96.6128 64.3342 96.8913 63.4871 95.9609C60.5112 92.6982 60.0842 92.3684 59.4647 91.1671C58.5053 89.3069 57.151 89.4048 57.0246 87.0436C56.9737 86.0996 56.8076 85.381 56.05 84.9515C54.4641 84.0512 54.1195 82.8865 53.3877 81.2846C55.2597 80.5342 55.2743 80.841 56.5988 79.4993C60.7014 75.3451 58.6363 77.0962 60.4188 75.1333C62.3575 76.085 61.2489 77.4874 63.0033 78.4473C63.8223 78.8957 63.8533 79.2067 64.5899 80.6941C63.3965 82.064 63.9873 81.123 61.8655 84.758C61.466 85.5633 61.3332 86.4766 61.4876 87.3634C61.5063 87.4248 61.5397 87.4802 61.5841 87.5257C61.6292 87.5717 61.6836 87.6053 61.7444 87.6248C62.2048 87.7251 61.9018 86.7398 62.1539 85.804C62.2575 85.4211 64.2055 82.1944 64.4056 81.8623C64.5863 81.9319 64.6981 81.4369 63.7036 86.4294C63.4918 87.4914 63.2549 87.4696 63.4982 88.803C63.5117 88.8762 63.8335 89.2367 64.0376 88.7222C64.0271 88.3694 64.037 88.016 64.0669 87.6637C64.8859 83.3815 65.0192 83.1797 65.1368 82.3915C65.5972 79.3188 65.4182 78.504 66.1863 77.1482C67.0919 75.551 67.0843 73.945 67.4464 71.883C67.7389 70.2162 70.5732 68.2055 70.9283 68.0344C70.9898 68.2391 70.9968 68.4566 70.9488 68.6649C70.9008 68.8732 70.799 69.0652 70.6546 69.2215C69.8701 70.2918 71.7661 70.4434 72.9992 68.9023C75.0099 70.3466 74.7893 69.9838 74.0633 70.2811C73.1636 70.7024 72.3148 71.2273 71.5344 71.8452C71.2062 72.0533 70.9418 72.3489 70.7704 72.6991C70.599 73.0495 70.5264 73.4409 70.5621 73.83C70.6013 74.6796 71.1278 87.1723 71.9661 87.046C72.9437 86.8961 71.1588 83.1231 71.2243 73.4506C71.2296 72.6966 73.139 71.5036 73.6966 71.2505C76.8556 69.8316 75.2176 69.9879 73.7123 68.6191C73.6106 68.5051 73.5363 68.3688 73.4959 68.2209C73.455 68.0731 73.4491 67.9177 73.4783 67.7672C73.5094 67.4245 73.6082 67.0917 73.7697 66.7887C73.9311 66.4857 74.1517 66.2186 74.4179 66.0036Z" fill="#55C6F0"/>
<path d="M76.3193 57.4446C76.6072 57.1113 76.9605 56.8417 77.3571 56.653C77.7537 56.4643 78.1849 56.3606 78.6231 56.3484C78.1118 57.3001 76.9775 58.2883 76.3193 57.4446Z" fill="#55C6F0"/>
<path d="M72.0812 45.0629C73.2366 44.4658 74.7974 45.4941 74.7944 47.909C74.7944 49.492 73.3735 51.1422 72.0122 50.5528C71.7051 50.4201 71.7548 50.4643 71.8203 48.9008C71.9753 45.2281 71.3698 45.4292 72.0812 45.0629ZM73.6648 47.4618C73.6589 47.2961 73.6332 47.1317 73.5888 46.9721C73.5648 46.9143 73.525 46.8644 73.4747 46.8275C73.4244 46.7907 73.3653 46.7685 73.3033 46.7634C73.2413 46.7582 73.1787 46.7703 73.1231 46.7982C73.0675 46.8262 73.0207 46.869 72.9874 46.9219C72.5223 47.896 73.4396 49.0359 73.6648 47.4618Z" fill="white"/>
<path d="M72.7635 106.655C74.1301 108.124 74.8695 108.316 74.7595 110.002C74.6759 111.3 75.0415 112.057 74.3266 114.611C73.0689 119.106 72.8056 125.332 72.6547 126.246C72.5863 126.659 72.4002 126.842 71.9978 126.788C69.5051 126.456 66.3677 124.5 64.401 122.676C64.2594 122.55 64.1535 122.389 64.0938 122.209C64.0342 122.028 64.0225 121.835 64.0605 121.65C64.6396 111.645 68.1742 104.678 68.417 103.222C71.6743 104.905 70.6774 104.413 72.7635 106.655Z" fill="#55C6F0"/>
<path d="M55.5059 70.5036C56.0493 71.5656 56.4969 71.8983 56.1552 72.2689C52.4808 76.2543 54.629 74.9056 51.6572 72.2099C51.4799 72.05 50.1344 71.4387 49.6442 70.5236C50.548 70.5236 50.5047 70.4859 50.6387 70.6688C50.8662 70.9756 51.1722 71.6777 51.8251 71.6222C52.1971 71.5949 52.56 71.4929 52.8925 71.3223C53.225 71.1517 53.5204 70.9159 53.7614 70.6287C53.8956 70.4885 53.9783 70.3062 53.9958 70.112C54.0132 69.9179 53.9643 69.7237 53.8573 69.5613C53.0475 68.412 52.1303 67.3435 51.1184 66.3706C50.0121 65.2496 50.1625 64.3776 49.4184 62.941C48.8954 61.9321 46.8543 59.696 47.2041 59.129C47.358 58.88 47.6136 59.0953 47.6926 59.1815C48.4135 60.0454 49.1901 60.8604 50.0174 61.6211C52.981 63.7729 54.3429 68.2274 55.5059 70.5036Z" fill="white"/>
<path d="M50.7729 69.808C50.8437 70.3638 46.9365 69.7272 47.5712 68.9626C47.6121 68.9144 47.6638 68.8766 47.7219 68.8525C47.7801 68.8284 47.8431 68.8186 47.9058 68.8239C48.9939 69.1107 50.6922 69.182 50.7729 69.808Z" fill="white"/>
<path d="M49.0903 68.4882C48.3883 68.3991 46.5573 67.9673 46.2964 67.3041C46.1524 66.9383 46.6134 66.6321 46.8351 66.7371C47.1007 66.8622 48.5316 67.4622 49.3682 67.8782C49.4394 67.9206 49.4925 67.9883 49.5172 68.0679C49.5419 68.1476 49.5364 68.2336 49.5019 68.3095C49.4673 68.3854 49.4062 68.4456 49.3302 68.4786C49.2541 68.5116 49.1686 68.515 49.0903 68.4882Z" fill="white"/>
<path d="M49.4759 64.9111C49.5829 65.2651 48.8529 65.0527 48.3357 64.9111C47.45 64.6646 46.6031 64.2934 45.8202 63.8083C45.6832 63.6941 45.5744 63.5492 45.5025 63.3851C45.4305 63.2212 45.3973 63.0425 45.4055 62.8633C45.4138 62.6842 45.4631 62.5095 45.5498 62.3528C45.6365 62.1962 45.7582 62.0621 45.905 61.9611C46.0525 62.1752 46.2356 62.3428 46.1227 62.6472C45.915 63.2083 49.191 63.96 49.4759 64.9111Z" fill="white"/>
<path d="M47.4196 65.2131C49.0313 66.0279 49.2992 66.3677 48.8605 66.8651C47.4799 66.5252 47.5056 66.3606 46.2437 65.8509C45.031 65.3606 45.5113 64.2821 46.1168 64.6361C46.3321 64.7611 47.2365 65.1205 47.4196 65.2131Z" fill="white"/>
<path d="M108.312 97.9541L108.605 95.7121C111.289 95.7121 113.737 96.1251 113.778 95.4171C113.821 94.6778 110.264 95.5026 108.624 94.9675C108.624 92.1744 108.613 90.4351 107.389 87.599C106.541 85.6337 106.753 86.7517 105.916 82.0146C105.6 80.2293 106.14 81.5326 104.23 75.8733C104.014 75.2107 103.72 74.5765 103.353 73.9853C102.429 71.6572 102.823 70.8282 102.128 68.221C101.563 66.1047 100.007 66.0834 99.5257 65.7831C98.172 64.9371 97.3384 65.1795 96.2831 64.4556C95.4641 63.8957 95.3652 62.8715 93.017 62.1239C92.6912 62.0201 92.535 61.4891 91.9552 60.8489C91.2673 60.0873 90.8519 59.9822 90.6869 59.5268C90.4295 58.5779 90.0276 57.6752 89.4953 56.8511C91.4902 56.7154 92.6853 56.1484 94.3602 54.0191C95.8759 52.091 95.8811 50.4956 94.7041 47.5503C94.304 46.5473 94.3777 46.5892 95.1669 44.8759C95.935 43.2091 96.1415 42.2421 95.9274 40.7695C95.4307 37.364 92.1898 36.548 92.0079 36.217C90.5892 33.6629 87.8234 31.8681 85.3201 33.3715C85.1452 33.4593 84.9645 33.5337 84.7784 33.5939C84.5567 32.93 84.163 32.338 83.6383 31.8791C83.1135 31.4203 82.4765 31.1113 81.7938 30.9843C81.1105 30.8572 80.4062 30.9167 79.7533 31.1565C79.101 31.3964 78.5236 31.8079 78.0819 32.3484C76.7365 30.864 73.3674 31.2245 72.1816 33.4765C71.8739 34.1362 71.692 34.8486 71.6458 35.5763C71.4662 37.5003 68.1416 36.3929 67.4115 40.0166C67.0605 41.7719 67.6537 42.356 68.3546 43.2764C69.6111 44.9284 64.9159 45.6954 66.3936 49.7918C66.9693 51.3848 68.2703 52.3388 67.1489 53.5984C66.7727 54.0806 66.5563 54.6698 66.5299 55.2828C66.5036 55.8958 66.6692 56.5016 67.0032 57.0145C68.0264 58.6766 69.4333 58.8211 68.7957 60.2005C68.2352 61.413 67.5157 61.9239 67.9217 63.4284C68.3277 64.9329 69.3555 65.4763 70.6021 66.4203C69.049 67.6776 67.3571 68.8169 66.9201 70.4188C66.4083 72.2914 66.5691 74.1004 65.6811 75.7588C65.1792 76.553 64.8949 77.4675 64.8574 78.4085C64.4257 78.1236 64.5883 77.4645 63.5909 76.9589C61.9044 76.1063 62.7023 74.3482 60.8414 73.6614C60.4512 73.5174 61.1784 72.7522 59.8586 71.5409C59.4708 71.2355 59.1543 70.8486 58.9302 70.407C58.7641 70.0234 58.4376 69.7078 58.2867 69.319C57.8018 68.0511 56.909 68.0263 55.6776 68.434C54.8223 66.4029 53.8102 64.4426 52.6508 62.5712C51.5709 61.0041 50.873 60.7935 50.2038 60.1286C47.8603 57.7992 47.6298 57.0694 46.795 57.5857C46.5785 57.7196 46.7429 58.2571 45.3851 56.3207C45.6402 56.1384 46.1234 55.8015 46.2228 55.7207C47.7013 54.5253 48.9123 53.028 49.7763 51.3271C50.6402 49.6262 51.1377 47.7602 51.2359 45.8517C51.3342 43.9432 51.031 42.0353 50.3463 40.2533C49.6616 38.4714 48.6109 36.8556 47.2632 35.5122C45.9154 34.1688 44.3011 33.1282 42.5263 32.4587C40.7516 31.7891 38.8564 31.5058 36.9653 31.6272C35.0743 31.7487 33.2301 32.2724 31.5539 33.1636C29.8777 34.0549 28.4074 35.2937 27.2396 36.7988C19.3836 46.9851 28.564 63.1741 43.829 57.3343L45.6425 60.423C44.5737 61.013 44.6948 62.3611 45.2465 63.1765C45.1053 63.2941 44.9982 63.4478 44.9364 63.6217C44.8747 63.7955 44.8605 63.9829 44.8955 64.1642C45.0493 65.0663 45.4834 65.0857 45.9011 65.4386C44.9651 67.008 46.9301 67.2086 46.8868 67.7938C46.8061 68.8765 47.786 69.0157 48.4991 69.352C49.2543 69.706 49.0929 70.1916 50.6501 71.1533C51.8938 71.9203 51.3521 71.3427 50.4407 72.9015C49.0332 75.3122 48.8735 75.799 49.0121 76.2904C49.2867 76.825 49.603 77.3371 49.9581 77.8209C50.2892 78.6079 51.4206 80.2894 52.2524 80.3284C52.8714 80.3579 53.0387 80.8039 53.261 81.4553C54.3257 84.5852 56.2018 84.154 56.2831 85.5593C56.3521 86.7523 56.4826 87.7547 57.2875 88.6397C60.2178 91.8617 57.5724 89.6156 62.3226 94.853C62.2764 95.1049 36.6903 94.7751 31.0064 94.8979C26.3995 94.9976 27.0489 95.2271 27.583 94.5887C27.8386 94.2831 27.8451 94.1025 27.497 93.9084C25.7824 92.9503 27.8398 93.07 12.5684 92.9845C11.4698 92.978 10.8286 93.5963 10.9397 94.8908C6.80906 94.8908 7.8878 94.9397 7.59296 93.9031C7.52334 93.6594 7.63625 89.0456 7.13022 19.7743C7.13022 19.4268 7.06821 18.9011 8.27156 18.7914C9.92184 18.6409 35.1681 18.7188 60.2313 18.6864C83.5201 18.6563 106.646 18.5094 110.645 18.504C110.691 18.5077 110.737 18.5017 110.779 18.4863C110.823 18.471 110.862 18.4467 110.895 18.4151C110.928 18.3834 110.954 18.3451 110.972 18.3026C110.989 18.2601 110.998 18.2143 110.996 18.1683C110.982 17.6993 107.227 18.1011 101.174 18.0922C97.9877 18.0881 8.43887 18.3099 7.88019 18.3099C7.54323 18.3025 7.21657 18.4271 6.96888 18.6577C6.72119 18.8882 6.57184 19.2066 6.55224 19.546C7.13724 33.4051 6.62829 91.113 7.00445 94.653C6.60665 94.8117 6.94595 94.827 5.40096 94.8011C3.64011 94.771 3.20019 94.604 3.20136 95.2188C3.20721 97.8602 2.98959 98.144 3.63894 98.3836C3.78285 98.4361 12.1799 98.6349 63.6365 98.6349C63.3288 99.0992 63.0568 99.4892 63.5541 99.7299C67.3238 101.559 67.8485 101.774 67.8041 102.012C67.4385 103.959 64.2625 108.777 63.4078 120.765C63.3353 121.778 63.7495 122.009 65.0131 123.135C65.8519 123.883 65.5261 123.105 65.2582 124.96C65.1546 125.673 65.1072 126.394 65.0019 127.107C64.5433 130.221 64.4883 129.305 64.7679 129.95C65.1827 129.726 65.2646 129.933 65.5185 127.98C66.083 123.628 65.8262 124.705 66.0684 123.945C67.6777 124.917 70.3196 126.527 72.1811 126.406C74.2976 126.268 72.4151 124.024 75.2816 112.177C75.7104 113.039 77.7508 126.056 78.2007 126.529C79.2075 127.591 81.6323 126.846 84.2683 127.076C87.2957 127.34 91.3913 125.419 92.6367 124.889C94.2554 124.369 95.8466 123.765 97.4033 123.08C99.1993 122.313 98.2773 122.621 101.284 121.391C102.157 125.441 101.869 125.379 102.158 126.65C102.413 127.653 102.576 128.678 102.647 129.711C102.677 130.412 103.279 129.835 103.263 129.628C102.986 126.181 101.607 121.097 102.131 120.762C105.38 118.68 104.956 119.259 102.808 112.988C102.378 111.735 101.745 110.569 101.339 109.295C100.871 108.063 100.303 106.871 99.6427 105.732C98.9822 104.434 98.6248 104.468 98.9109 104.321C102.32 102.575 101.774 102.989 102.527 102.588C103.229 102.214 103.885 101.752 104.591 101.388C105.929 100.802 107.069 99.8356 107.872 98.6072C108.013 98.3712 108.129 98.5086 110.098 98.5889C113.437 98.7252 113.813 98.8296 113.826 98.4054C113.841 97.9122 113.339 98.2349 108.312 97.9541ZM90.7144 60.489C91.3234 60.8912 91.8183 61.4458 92.1518 62.0986C92.7251 63.3918 93.6798 65.2616 92.7555 65.8958C91.0526 67.064 92.0576 66.477 89.07 68.4771C88.9782 68.5235 88.8992 68.5916 88.8395 68.6757C88.7798 68.7597 88.7412 68.857 88.7272 68.9594C88.7126 69.0617 88.7231 69.1661 88.7576 69.2635C88.7921 69.3608 88.8495 69.4483 88.9249 69.5184C89.5789 70.2629 90.1218 71.0994 90.5366 72.0017C91.1374 73.0808 88.8459 72.6425 80.9385 85.6632C80.8004 85.8915 80.8619 85.8248 79.8908 85.2077C79.0893 84.6979 78.8378 85.3587 77.8912 86.5541C76.8751 87.8373 79.4163 80.8901 79.6398 80.2346C82.642 71.4489 84.4818 69.0187 85.2406 67.6522C87.4267 71.0778 88.9261 70.6772 88.7658 70.083C88.5072 69.1337 87.6666 68.195 88.3809 66.2758C88.9969 64.619 89.8808 64.0149 90.7144 60.489ZM102.069 89.3507C101.712 89.6457 100.649 90.0534 98.1188 91.5703C96.4118 92.5933 93.7202 94.7433 92.8789 95.2548C93.034 94.8117 98.2978 90.1708 102.211 88.1223C102.227 88.1146 102.244 88.1105 102.261 88.1111C102.278 88.1117 102.295 88.117 102.309 88.1258C102.324 88.1353 102.336 88.1477 102.344 88.163C102.352 88.1783 102.357 88.1954 102.357 88.2126C102.344 88.7312 102.301 89.1572 102.069 89.3483V89.3507ZM103.718 89.3064C104.007 89.1843 104.279 89.8604 104.426 90.4516C100.253 92.1178 95.35 95.3392 91.1158 98.1493C91.0608 97.9653 91.0619 97.7688 91.1193 97.5859C91.1766 97.4024 91.2877 97.2413 91.4381 97.1227C92.8941 96.0489 96.8874 92.201 103.721 89.3041L103.718 89.3064ZM98.8459 89.4386C96.0467 91.5419 93.1188 93.8276 90.7776 96.5935C90.808 95.8306 91.073 95.0967 91.5352 94.4925C94.1186 90.5708 95.5957 89.7412 98.7722 87.4414C98.9512 87.3099 98.9746 87.2544 98.8459 89.4362V89.4386ZM92.9076 101.224C93.7313 103.194 94.7796 106.148 94.4192 108.255C94.366 108.562 92.9626 109.163 92.6057 109.254C92.2489 109.344 92.4829 109.376 90.8373 110.109C90.4108 107.327 90.7882 108.68 89.4415 104.071C89.3859 103.881 89.3502 103.852 88.0129 101.781C88.7149 100.895 89.538 100.115 90.4582 99.4627C91.1175 98.9411 92.6145 100.519 92.9076 101.222V101.224ZM89.4023 97.7924C89.7024 97.5464 89.9779 97.3204 90.2798 97.0714C90.7337 98.1901 89.7001 98.6503 89.4023 97.79V97.7924ZM89.7644 98.9801C89.4163 99.3518 86.9962 101.986 86.0877 103.014C85.7174 103.434 85.7413 103.297 84.0021 102.188L88.3165 97.3292C88.6751 97.9717 88.8494 98.7423 89.7644 98.9777V98.9801ZM77.9474 87.6078C79.2402 85.6974 79.2829 85.6289 79.7199 85.8909C81.6791 87.0621 84.2555 89.7938 86.0046 92.0269C86.8423 93.027 87.5139 94.1568 87.9936 95.3734C87.6473 95.5775 88.2329 94.65 77.9468 87.6054L77.9474 87.6078ZM78.5324 65.0893C77.6713 67.6316 77.8368 67.1389 77.7134 67.4811C76.7341 67.0127 77.2039 65.2651 77.494 64.3777C78.1568 62.3517 78.3353 62.1056 79.108 61.8189C79.1929 62.1499 79.3456 62.449 79.1156 62.7771C78.9325 63.0271 78.8384 63.3322 78.8495 63.6428C78.86 63.9535 78.9741 64.2514 79.1741 64.4881C79.373 64.8962 79.4912 65.3395 79.5222 65.7931C79.8147 67.3708 77.8023 68.1107 78.1574 70.2772C78.361 71.5162 78.688 71.381 78.3271 72.4124C77.7783 73.9806 78.2908 75.8196 77.1571 77.8887C76.0918 79.8357 77.2741 79.4717 76.2603 81.8352C76.0988 82.4022 76.059 82.9976 76.1433 83.5816C76.1433 83.669 76.3188 83.7587 76.4135 83.8424C76.7797 83.4294 76.575 83.8531 76.6996 82.7804C76.8652 81.3603 77.4016 80.9544 77.2548 79.6163C77.1512 78.664 77.9497 77.9053 78.2352 76.6214C78.9495 73.4112 78.1767 72.7616 79.7474 71.5474C80.4395 71.0123 81.5797 69.5922 81.4305 68.09C81.2439 66.2097 81.5422 65.8787 81.4088 64.6002C81.2252 62.8402 82.0102 63.7311 85.9133 61.9599C85.5969 63.4573 84.5439 64.7606 84.9984 66.5985C85.2909 67.7726 83.2691 68.4452 83.2797 67.2947C83.2937 65.8197 83.5359 64.0125 82.2109 64.2078C81.4059 64.3258 81.6458 65.8008 82.3829 64.7388C83.0849 66.2032 81.8476 68.7538 83.7284 68.5201C84.2332 68.4576 84.2116 68.2841 83.8056 69.0299C81.4913 73.269 78.5306 81.1615 77.8702 83.2831C77.5005 84.4708 77.3735 85.3422 76.9032 87.0939L75.2722 86.2809C75.2722 78.9501 77.1442 67.7514 77.387 68.139C78.8226 67.6723 77.8386 68.2057 79.0168 65.2669C79.1806 64.8444 78.6827 64.6297 78.5295 65.0869L78.5324 65.0893ZM71.8692 56.7762C71.4691 56.3142 71.5996 56.1903 72.1144 55.4569C73.3785 57.6399 74.8252 61.0867 78.1796 59.7822C78.8044 59.5391 78.8571 60.3722 79.0835 61.2307C75.4816 62.1363 76.7095 62.0337 73.6857 64.7618C73.2498 65.1554 73.2323 64.1547 72.3987 63.3582C71.6429 62.6378 72.3811 62.1287 73.0006 60.4584C73.7769 58.365 72.5402 57.5503 71.8692 56.7762ZM82.5373 46.1928C82.5508 46.4547 82.4659 46.5733 82.2039 46.5792C82.1699 46.2907 82.1518 45.9986 82.0986 45.7154C81.5375 42.7106 78.6324 42.3878 77.4256 44.1224C77.1916 44.4599 77.0102 44.834 76.7885 45.2193C76.5487 45.059 76.2684 44.9713 75.9812 44.9665C75.6934 44.9617 75.4108 45.04 75.1657 45.1921C74.6351 43.9112 73.7927 43.1171 72.3431 43.261C72.3688 42.7749 72.8936 42.6238 73.2984 42.6551C73.9635 42.7059 74.569 43.0776 74.7609 42.5525C75.0505 41.7589 73.8542 41.4244 72.9094 41.8386C72.5987 41.9964 72.2986 42.1738 72.0102 42.3696C72.0646 41.6399 72.2448 40.9254 72.5432 40.2585C72.7005 39.833 72.9527 39.4495 73.2803 39.1377C73.6079 38.8258 74.0016 38.5938 74.4321 38.4596C77.284 37.1652 77.4607 36.9197 77.7906 36.2979C78.9208 38.0224 79.9551 37.5369 82.6631 39.0172C83.151 39.3042 83.5324 39.7444 83.7488 40.2704C83.9653 40.7964 84.0057 41.3794 83.8629 41.9306C83.2779 43.6705 82.4267 44.0924 82.5373 46.1928ZM81.5428 46.555C81.5639 49.092 78.8307 50.6714 77.6233 48.4147C77.1758 47.685 77.0313 46.8069 77.2214 45.9707C77.4109 45.1344 77.9199 44.4072 78.6377 43.9466C79.9885 43.2321 81.527 44.4233 81.5446 46.555H81.5428ZM75.3371 47.3739C75.3371 45.8482 75.2728 45.9278 75.5793 45.7385C75.6747 46.2955 75.5904 46.8688 75.3389 47.3739H75.3371ZM72.0798 44.0629C73.2346 43.4658 74.796 44.4941 74.7931 46.909C74.7931 48.492 73.3721 50.1422 72.0108 49.5528C71.7037 49.4201 71.7534 49.4643 71.8189 47.9008C71.9757 44.2281 71.3702 44.4292 72.0816 44.0629H72.0798ZM74.5 49.6089C74.4152 49.7616 74.3672 49.9325 74.3602 50.1076C74.3537 50.2827 74.3883 50.4569 74.4614 50.6157C74.5345 50.7747 74.6439 50.9138 74.7808 51.0216C74.9177 51.1295 75.078 51.203 75.2488 51.2361C75.5588 51.319 75.8783 51.3622 76.1988 51.3647C76.2515 51.3735 76.3059 51.3704 76.3574 51.3554C76.4088 51.3405 76.4562 51.3141 76.4966 51.2782C76.5364 51.2424 76.568 51.198 76.589 51.1482C76.6101 51.0984 76.6194 51.0446 76.6171 50.9906C76.6557 50.4042 74.5345 50.9476 75.1371 49.7634C75.8396 48.527 76.214 47.1287 76.224 45.7036C76.9307 46.0606 76.4761 45.6659 76.63 47.2801C76.8839 49.9351 79.4263 51.0343 80.9865 49.5091C82.4139 48.1144 81.6036 47.2872 82.6409 47.1409C82.9281 48.3545 84.404 49.4555 84.445 50.6874C84.4889 51.9889 83.0638 52.6592 82.9304 54.5643C82.7924 56.5408 84.7129 58.1255 84.9896 58.424C86.0666 59.5863 86.3802 60.6973 85.9929 61.0637C85.3459 61.6749 85.1739 61.6295 82.9562 62.3652C80.0002 63.3464 80.9748 62.865 80.7092 66.6917C80.6448 67.6269 81.4264 69.729 79.0127 71.2211C79.0004 70.5308 78.4926 69.9119 78.843 69.2151C80.4676 65.9867 80.45 67.9649 79.6901 61.2319C79.6246 60.6513 82.7906 58.2636 82.425 57.6034C82.0687 56.9591 81.0409 58.8813 76.9558 59.3568C76.5294 59.4264 76.0918 59.369 75.6969 59.1917C75.302 59.0144 74.9668 58.7249 74.7328 58.3586C71.8938 54.0049 71.3773 52.9701 71.7177 50.1823C73.9478 50.9257 74.8352 48.7775 74.5017 49.6071L74.5 49.6089ZM87.2302 95.5646C86.5007 95.0188 85.8677 94.7132 85.1786 94.2341C81.6458 91.8163 77.9603 89.6327 74.1461 87.6975C74.3069 87.281 74.569 86.7405 74.9218 86.7859C77.2202 87.2933 87.587 95.1167 87.2319 95.5628L87.2302 95.5646ZM89.4491 62.5063C87.9281 66.1053 87.1354 66.5029 87.6356 69.4051C86.7557 68.8058 86.0882 67.939 85.7302 66.9307C84.7568 64.1429 88.1287 61.6171 86.3772 59.0512C84.9358 56.9408 83.8506 56.9485 83.64 54.8439C83.5312 53.7577 84.1133 53.3913 84.8685 51.9317C85.9952 49.751 83.1516 47.5326 83.4212 47.0536L86.7926 47.3049C86.3316 48.3622 86.6656 48.7923 86.458 49.9865C86.0684 52.2285 86.9201 52.1948 86.809 52.6875C86.3228 54.2474 87.3191 54.7118 87.5303 55.0357C89.3853 57.8783 90.8537 59.1875 89.4508 62.5045L89.4491 62.5063ZM88.991 51.6349C88.0398 51.2579 87.6771 51.7429 87.3331 51.8379C86.7844 51.9877 86.895 50.5847 87.0506 50.0213C87.1342 49.4778 87.1746 48.9286 87.1717 48.3787C87.1869 48.2235 87.2302 48.0731 87.253 47.9203C87.4419 47.5254 87.7438 47.1966 88.1194 46.9763C89.8908 45.9072 91.3772 48.5622 89.8609 50.7747C89.3508 51.5169 89.2303 51.727 88.9928 51.6331L88.991 51.6349ZM89.29 53.379C89.2865 53.5885 89.2192 53.7917 89.0963 53.9608C88.9735 54.1299 88.8021 54.2565 88.6049 54.323C88.4078 54.3896 88.1954 54.393 87.9965 54.3326C87.7976 54.2723 87.6221 54.1512 87.494 53.9861C87.3577 53.7534 87.2957 53.484 87.3168 53.2146C87.3378 52.9451 87.4402 52.6888 87.611 52.4804C87.7502 52.3571 87.917 52.2693 88.0966 52.2245C88.2767 52.1796 88.4645 52.179 88.6447 52.2226C88.8647 52.315 89.0478 52.4787 89.1648 52.6878C89.2818 52.897 89.3268 53.1395 89.2917 53.3772L89.29 53.379ZM69.8299 64.8934C67.3934 62.8656 69.0449 61.4555 69.4275 60.5669C69.6252 60.0644 69.6492 59.5094 69.4959 58.9913C69.3426 58.4733 69.0203 58.0225 68.5816 57.7119C67.5835 56.9243 66.7476 55.4516 67.4671 54.4014C68.0662 53.5259 68.7904 52.8013 67.869 51.1257C67.1811 49.8738 65.997 48.1339 67.5432 46.3591C68.4874 45.2753 69.3678 44.8122 69.2917 43.713C69.2028 42.4274 67.0424 41.8946 68.4546 39.157C68.6939 38.7369 69.0203 38.374 69.4122 38.0936C69.8036 37.8132 70.2511 37.6218 70.7232 37.5327C71.162 37.4129 71.5522 37.1552 71.8359 36.7969C72.1202 36.4387 72.2834 35.9986 72.3027 35.5403C72.3232 35.0133 72.4589 34.4975 72.7011 34.0298C72.9427 33.5622 73.2844 33.1545 73.7009 32.8359C74.1174 32.5173 74.5989 32.2958 75.1107 32.1873C75.6226 32.0788 76.152 32.0861 76.6604 32.2086C77.7134 32.4735 77.7508 33.3691 78.1931 33.3886C78.5956 33.4051 78.4212 32.3531 79.8767 31.926C80.371 31.7563 80.8923 31.6808 81.4141 31.7035C82.0319 31.7684 82.6163 32.0177 83.0931 32.4193C83.5698 32.821 83.9167 33.3569 84.0899 33.9585C84.5281 35.5804 85.0692 36.0424 85.9888 36.3085C86.4831 36.4818 86.9312 36.767 87.2986 37.1422C87.6666 37.5175 87.9439 37.9727 88.11 38.473C88.2762 38.9732 88.3265 39.5052 88.2569 40.0281C88.1872 40.551 87.9995 41.0508 87.7087 41.4893C86.1877 43.7 87.6713 45.3992 87.9146 44.2812C87.9731 43.9985 87.2711 43.323 88.0515 42.33C88.7067 41.482 89.0367 40.4239 88.9805 39.3503C88.9237 38.2767 88.485 37.2596 87.745 36.4861C86.7575 35.3828 85.5577 35.7975 85.0668 34.522C87.6993 32.1578 91.0052 34.5715 92.0915 38.3139C92.7163 40.465 90.9215 43.379 91.799 43.4752C91.8499 43.4811 91.902 43.4757 91.9505 43.4593C91.9997 43.443 92.0447 43.4162 92.0822 43.3806C92.1196 43.3451 92.1489 43.3017 92.1682 43.2536C92.1875 43.2054 92.1957 43.1536 92.1933 43.1017C92.2331 42.1347 92.7526 41.2952 92.8871 40.3588C93.2065 38.1393 92.4027 37.5333 92.5946 37.2908C94.1227 38.2407 95.1025 39.2561 95.3295 41.0863C95.684 43.9449 93.75 44.9591 93.8851 46.791C93.9536 47.7096 94.624 48.1993 94.834 50.4626C94.8603 51.1531 94.7375 51.8412 94.4742 52.4792C94.0864 53.6002 92.1594 55.9012 90.3207 56.0599C89.8978 56.0965 89.5169 56.2369 89.3221 56.2469C88.812 56.27 88.8167 55.946 88.2937 55.1153C88.5938 55.0815 88.8811 54.9747 89.1308 54.8042C89.3812 54.6337 89.586 54.4045 89.7293 54.1363C89.872 53.8682 89.9481 53.5692 89.951 53.2648C89.9539 52.9604 89.8837 52.6599 89.7463 52.3889C90.1727 51.7213 90.5565 51.0272 90.8964 50.311C91.7417 48.2088 90.8624 45.8034 88.7237 46.0382C87.5174 46.1709 87.5379 46.732 87.1769 46.7279C82.6139 46.3302 84.3467 46.5232 83.2329 46.4146C83.127 45.7076 83.2282 44.9847 83.5254 44.3354C83.9934 43.4056 86.0555 40.5901 83.1972 38.6207C81.2667 37.2908 79.6462 37.5333 78.6664 36.4017C77.9644 35.5887 78.2633 35.0895 78.0708 34.683C78.0463 34.6281 78.0041 34.5829 77.9509 34.5545C77.8983 34.5262 77.838 34.5161 77.7789 34.526C77.7198 34.5359 77.6654 34.5651 77.6245 34.6092C77.5835 34.6532 77.5584 34.7097 77.5525 34.7698C77.6005 35.1593 77.5326 35.5545 77.3577 35.9052C77.1828 36.2558 76.9084 36.5463 76.5697 36.7398C73.9624 38.0773 72.2179 38.3481 71.6639 40.8391C71.3182 42.3961 71.3334 43.6711 70.9005 44.2121C69.8077 45.5809 69.696 48.1061 70.8677 49.4678C70.9432 49.5555 70.9964 49.6604 71.0233 49.7734C71.0497 49.8864 71.0491 50.0043 71.0204 50.1168C70.7788 51.5868 70.9719 53.0959 71.5744 54.4563C71.8669 55.0079 70.942 55.2404 70.9104 56.2458C70.89 56.8995 71.1947 57.2092 72.0009 58.0158C73.2159 59.2347 72.1255 60.5976 71.5457 61.9157C70.5957 64.0739 73.5154 64.0509 72.7742 66.7678C72.6918 67.0831 72.5356 67.3737 72.3185 67.6153C72.1015 67.8569 71.8301 68.0423 71.527 68.1561C71.9898 66.159 71.1058 65.9554 69.8299 64.8934ZM71.107 48.6814C70.4214 47.9297 70.3874 45.8688 71.107 45.1125C71.1942 46.3005 71.1942 47.4934 71.107 48.6814ZM24.9014 46.1137C24.6969 42.88 25.684 39.684 27.673 37.1393C29.662 34.5946 32.5128 32.8805 35.6782 32.326C42.9135 31.1011 50.4659 36.4401 50.7449 44.5797C50.8517 46.6462 50.4619 48.7082 49.6088 50.5902C48.7557 52.4722 47.4645 54.1185 45.8449 55.3891C45.7221 55.4917 45.3559 55.7649 45.1242 55.9396C44.001 54.2976 38.2575 45.5373 37.6011 44.5738C35.5911 41.6208 34.6264 40.3512 33.9694 38.8319C33.8099 38.3003 33.618 37.7792 33.395 37.2714C33.2862 37.1575 33.1083 37.3339 32.927 37.4484C32.3285 37.8236 31.874 38.1109 32.2519 38.436C32.9963 39.0063 33.639 39.7002 34.1525 40.488C34.3561 40.8875 36.833 45.0664 43.4897 56.8505C35.6642 60.9062 25.5893 55.6186 24.9014 46.1137ZM36.685 44.1154C36.6575 44.0357 36.654 44.0015 36.6803 43.9867C36.7973 43.923 36.5353 43.418 41.695 51.6709C44.6942 56.4635 49.1987 62.613 49.1601 62.6838C47.4549 61.9168 47.2712 61.9977 46.895 61.3858C43.5096 55.8871 37.046 44.9302 36.685 44.1154ZM45.9052 60.961C46.0526 61.1752 46.2363 61.3428 46.1228 61.6472C45.9151 62.2059 49.1906 62.9582 49.476 63.9069C49.5831 64.2609 48.853 64.0485 48.3359 63.9069C47.4501 63.6605 46.6033 63.2892 45.8204 62.8042C45.6841 62.6898 45.576 62.5451 45.5046 62.3816C45.4331 62.218 45.4002 62.0399 45.4084 61.8613C45.4166 61.6828 45.4657 61.5086 45.5519 61.3523C45.6381 61.1961 45.7591 61.0622 45.9052 60.961ZM51.3118 68.424C51.0193 67.8841 49.944 67.8717 50.0721 67.3974C50.2172 66.861 49.8311 66.5796 49.3514 66.2947C49.9569 65.5713 49.6907 65.1377 49.2654 64.5996C50.4828 64.3494 49.2485 64.668 51.6949 66.7383C51.9342 66.9413 52.2366 67.4634 53.1247 68.6181C53.4025 68.9791 53.3932 69.2417 53.0182 69.4801C51.5557 70.4093 51.4124 69.9385 51.2334 69.3933C51.3394 69.2577 51.4033 69.0935 51.4172 68.9214C51.4312 68.7493 51.3945 68.5769 51.3118 68.4257V68.424ZM46.117 63.6343C46.3311 63.7594 47.2367 64.1181 47.4198 64.2114C49.0314 65.0261 49.2988 65.366 48.8606 65.8634C47.48 65.5235 47.5058 65.3589 46.2439 64.8491C45.0312 64.3606 45.5132 63.2821 46.117 63.6361V63.6343ZM46.2966 66.3023C46.1521 65.9365 46.6136 65.6303 46.8353 65.7353C47.1009 65.8604 48.5318 66.4599 49.3684 66.8764C49.7223 67.0534 49.493 67.5903 49.0905 67.4865C48.3914 67.3991 46.5575 66.9673 46.2966 66.3041V66.3023ZM47.5713 67.9602C47.6122 67.912 47.6638 67.8743 47.722 67.8502C47.7802 67.8261 47.8432 67.8163 47.9059 67.8216C48.9934 68.1089 50.6928 68.1809 50.7724 68.8057C50.8443 69.3638 46.936 68.726 47.5713 67.962V67.9602ZM49.6445 69.522C50.5483 69.522 50.5045 69.4842 50.639 69.6671C50.8666 69.9745 51.1725 70.676 51.8254 70.6205C52.1973 70.5935 52.5603 70.4919 52.8928 70.3216C53.2252 70.1513 53.5207 69.9157 53.7617 69.6287C53.896 69.4885 53.9787 69.3062 53.9961 69.1121C54.0136 68.918 53.9647 68.7237 53.8577 68.5614C53.0479 67.412 52.1307 66.3436 51.1187 65.3707C50.0125 64.2497 50.1628 63.3777 49.4187 61.941C48.8957 60.9321 46.8546 58.696 47.2045 58.129C47.3583 57.8801 47.614 58.0948 47.693 58.1816C48.414 59.0453 49.1906 59.8603 50.0177 60.6212C52.9802 62.7729 54.3497 67.244 55.505 69.5037C56.0491 70.5657 56.496 70.8984 56.1544 71.2689C52.48 75.2538 54.6281 73.9057 51.6563 71.2099C51.4802 71.05 50.1347 70.4388 49.6445 69.5237V69.522ZM51.9652 79.4511C50.804 78.4186 50.6027 77.3589 49.9101 76.6568C49.7405 76.5058 49.626 76.301 49.5849 76.0768C49.5438 75.8521 49.5784 75.6202 49.6831 75.4178C49.968 74.7429 51.6294 71.7598 51.878 72.1982C52.1975 72.7634 52.05 72.2997 51.0953 73.754C50.6794 74.3871 49.9464 75.4751 50.4407 75.996C50.5602 76.1447 50.7234 76.2509 50.9067 76.2999C51.09 76.3494 51.2841 76.3382 51.4609 76.2692C51.8497 76.1317 52.2018 75.9057 52.49 75.609C53.2352 74.6933 53.743 74.8585 54.9306 73.6337C56.8827 71.6206 57.4513 70.9462 57.3068 69.9674C57.2244 69.4063 56.8388 69.1738 56.0742 69.4712L55.8344 69.0287C56.616 68.6328 57.5098 68.7077 57.7977 69.7367C58.1783 70.4797 58.6401 71.1774 59.1742 71.8171C60.5009 72.9575 60.2687 73.1552 58.8302 75.0461C58.6313 75.3075 57.2706 76.7666 57.1214 76.9194C55.5314 78.5554 55.3605 78.7672 54.7077 79.018C52.7087 79.782 52.4256 79.8617 51.9652 79.4528V79.4511ZM59.4661 90.166C58.5073 88.3058 57.1524 88.4037 57.026 86.0425C56.9751 85.0985 56.809 84.3799 56.0514 83.9504C54.4655 83.0501 54.1209 81.8854 53.3891 80.2836C55.2611 79.5331 55.2757 79.8393 56.6002 78.4982C60.7028 74.344 58.6377 76.0951 60.4202 74.1322C62.3589 75.0839 61.2509 76.4863 63.0047 77.4462C63.8237 77.8946 63.8542 78.2056 64.5913 79.693C63.3973 81.0629 63.9887 80.1213 61.8669 83.7569C61.4674 84.5622 61.3346 85.4755 61.489 86.3623C61.5077 86.4237 61.5411 86.4791 61.5855 86.5246C61.6306 86.57 61.6856 86.6042 61.7458 86.6237C62.2068 86.724 61.9032 85.7387 62.1553 84.8029C62.2589 84.4206 64.2069 81.1933 64.407 80.8612C64.5877 80.9308 64.6995 80.4358 63.705 85.4284C63.4932 86.4904 63.2563 86.4685 63.4996 87.8019C63.5131 87.8757 63.8349 88.2356 64.039 87.7211C64.0291 87.3683 64.0384 87.0149 64.0683 86.6626C64.8873 82.3804 65.0201 82.1786 65.1382 81.3904C65.5986 78.3177 65.4196 77.5029 66.1877 76.1471C67.0927 74.5499 67.0857 72.9439 67.4478 70.8819C67.7403 69.2151 70.5746 67.2044 70.9297 67.0333C70.9912 67.238 70.9982 67.4554 70.9502 67.6638C70.9022 67.8721 70.8005 68.0641 70.656 68.2204C69.8715 69.2907 71.7675 69.4423 73.0006 67.9012C75.0113 69.3455 74.7907 68.9827 74.0648 69.28C73.165 69.7015 72.3162 70.2263 71.5358 70.8441C71.2082 71.0522 70.9438 71.3478 70.7718 71.6981C70.6004 72.0484 70.5284 72.4398 70.5635 72.8289C70.6027 73.6785 71.1292 86.1712 71.9675 86.0449C72.9456 85.8956 71.1602 82.122 71.2257 72.4495C71.231 71.6955 73.1404 70.5025 73.698 70.2494C76.8569 68.8305 75.219 68.9868 73.7138 67.618C73.612 67.504 73.5377 67.3677 73.4973 67.2198C73.4564 67.072 73.4505 66.9166 73.4798 66.7661C73.5108 66.4234 73.6108 66.0908 73.7723 65.788C73.9343 65.4851 74.1548 65.2184 74.4216 65.0037C74.906 64.4987 77.1506 61.9446 77.5905 62.3334C77.1056 63.6231 75.9923 65.9265 76.8195 67.5142C77.174 68.1939 75.6934 67.595 74.6129 85.777C74.5848 86.249 74.6626 85.6478 73.6008 87.4054C72.1998 86.8886 72.5432 86.4951 70.5144 89.1955C67.9193 92.6499 68.2241 92.4612 68.0872 92.3945C67.8199 89.9059 67.6818 87.4048 67.673 84.9015C67.6906 83.7994 68.3663 81.2287 68.681 79.4947C68.8255 77.7772 69.0846 76.0715 69.4567 74.3895C69.7176 72.9841 69.6615 73.4454 69.6322 72.9463C69.1642 72.7846 69.1396 72.5652 68.2499 77.3861C67.972 78.8894 68.4751 78.0103 67.3963 82.3533C66.5469 85.7753 67.2167 89.1318 67.4016 91.1555C67.4601 91.8181 67.4051 92.8104 67.4437 92.8812C67.8058 93.5403 66.9406 93.9834 65.3289 96.318C63.9875 95.6129 64.338 95.8914 63.4909 94.961C60.5126 91.7001 60.0862 91.3673 59.4661 90.166ZM25.7063 93.5291L27.101 94.2884C26.7314 94.6624 26.2632 94.9214 25.7519 95.0347C25.5434 94.558 25.527 94.0176 25.7063 93.5291ZM12.3478 93.5668C14.6422 93.5473 16.8635 93.6352 25.0628 93.6352V94.9864H11.5323C11.2416 94.1822 11.6078 93.5733 12.3478 93.5668ZM51.1 97.9069C46.785 97.8402 26.6201 98.1092 12.7298 97.9228C5.47116 97.8254 4.83234 97.9741 3.77934 97.8974C3.77934 94.9285 3.629 95.351 4.23038 95.3604C70.202 96.164 61.8728 94.6223 64.7732 97.0336C63.9916 98.2308 65.9461 98.137 51.1 97.9069ZM63.984 99.3293L72.456 87.6043C77.9105 90.1153 83.0708 93.2317 87.8415 96.895L83.337 101.914C82.6859 101.358 81.9833 100.866 81.2392 100.446C81.128 100.398 81.0075 100.379 80.887 100.388C80.7671 100.397 80.6507 100.435 80.5477 100.498C80.4454 100.562 80.3588 100.649 80.2956 100.752C80.233 100.856 80.1956 100.974 80.1862 101.095C80.0727 102.304 80.6893 102.819 81.5217 103.787C80.1762 105.239 81.0157 104.756 79.452 103.238C77.3998 101.247 77.3378 100.015 75.6636 99.7122C74.9522 99.583 74.139 100.133 74.452 100.82C74.6345 101.22 74.428 100.926 73.9671 100.672C72.2524 99.7229 71.2404 100.774 71.6066 101.596C71.6756 101.751 71.7569 101.901 71.8599 102.108C71.63 102.102 71.4036 102.163 71.2064 102.282C71.0093 102.401 70.8508 102.576 70.7484 102.783C68.5833 101.461 66.3223 100.306 63.984 99.3293ZM82.0816 104.127C83.9273 105.531 83.7295 105.34 83.7196 105.497C82.2126 106 82.7877 106.092 81.1871 105.197L82.0816 104.127ZM74.3268 113.61C73.0691 118.106 72.8058 124.332 72.6549 125.246C72.5865 125.659 72.4004 125.841 71.9979 125.787C69.5053 125.455 66.3679 123.499 64.4011 121.675C64.2596 121.549 64.1537 121.388 64.094 121.208C64.0338 121.028 64.0226 120.835 64.0607 120.649C64.6398 110.645 68.175 103.677 68.4172 102.222C71.6744 103.904 70.6776 103.412 72.7637 105.654C74.1303 107.123 74.8697 107.315 74.7597 109.002C74.6761 110.3 75.0417 111.056 74.3268 113.61ZM73.7611 105.645C73.3171 105.173 72.1512 103.868 71.723 103.368C71.3597 102.946 71.5475 102.607 72.0974 102.816C74.2286 103.626 73.8699 104.999 75.8706 106.632C76.3217 106.999 76.7236 108.177 77.8848 108.624C78.6833 108.931 78.7126 108.266 78.2147 108.093C77.68 107.852 77.229 107.457 76.919 106.956C75.3711 104.96 75.8759 106.08 74.5948 104.069C73.3938 102.185 71.3966 101.154 72.5917 101.025C73.4874 100.928 74.0542 101.438 75.9584 103.523C79.4257 107.324 78.4604 107.28 79.9779 108.25C80.2991 108.456 80.4459 108.392 80.6045 107.978C78.5342 105.863 76.7247 103.504 75.2154 100.952C74.9317 100.417 75.3787 100.326 75.5945 100.37C76.1649 100.537 76.6592 100.902 76.9903 101.399C77.5923 102.249 78.2785 103.035 79.0378 103.744C79.8135 104.561 80.0522 105.436 81.0853 105.878C82.7678 106.597 83.3902 107.246 83.406 106.308C83.8155 106.175 84.2168 106.017 84.6082 105.836C84.6603 105.804 84.7041 105.759 84.7346 105.705C84.765 105.652 84.7814 105.592 84.7831 105.53C84.7843 105.468 84.7702 105.407 84.7416 105.352C84.7135 105.297 84.672 105.251 84.6211 105.216C83.9466 104.675 83.2674 104.135 82.5613 103.636C81.5914 102.951 80.543 101.571 81.0017 101.217C81.1977 101.065 82.0582 101.801 83.086 102.58C83.2147 102.678 84.3069 103.252 85.0785 103.713C85.3032 103.845 85.5524 103.929 85.811 103.958C86.0695 103.989 86.331 103.964 86.5797 103.886C87.0728 103.834 87.5701 103.828 88.0644 103.869C88.6494 103.62 88.6775 104.012 89.7305 107.665C89.7527 107.764 89.7673 107.864 89.7755 107.965C88.2668 108.487 86.833 109.187 85.2295 109.304C76.6499 109.927 78.5347 110.699 73.7611 105.645ZM101.66 111.927C102.995 115.276 104.24 118.25 103.766 118.744C101.763 120.843 96.3726 122.74 93.6693 123.768C91.4199 124.622 87.2805 126.713 83.915 126.407C80.1125 126.062 79.2701 127.002 78.7816 125.941C78.3136 124.927 77.8988 122.332 76.8926 116.579C76.1392 112.267 76.0116 112.262 75.5799 111.162C75.3781 110.283 75.3044 109.38 75.3611 108.48C76.9798 110.229 77.1225 110.688 83.2849 110.119C84.8194 109.978 86.0028 110.193 88.8729 109.012C89.1127 108.913 89.0261 108.848 89.3186 109.526C89.3953 109.783 89.5304 110.018 89.7135 110.213C89.8966 110.408 90.1224 110.556 90.3728 110.647C90.6226 110.738 90.8905 110.768 91.1549 110.735C91.4188 110.703 91.6715 110.608 91.8926 110.459C93.6207 109.533 94.8673 109.515 95.0762 108.299C95.3008 106.985 94.9381 106.556 95.4143 106.293C98.1322 104.8 98.1527 104.605 98.4095 105.023C100.253 108.014 99.999 107.761 101.66 111.927ZM95.8929 105.16C94.9522 105.685 95.1183 105.94 95.0007 105.168C94.82 103.981 93.9542 101.247 93.2217 100.292C91.7979 98.4343 90.9403 98.9653 91.9289 98.2467C93.7342 96.9298 101.907 91.87 104.58 90.9738C105.098 90.7997 105.21 90.3077 104.58 89.2244C104.133 88.4574 103.622 88.7737 102.794 89.0704C102.845 88.7754 102.878 88.4775 102.891 88.1783C102.916 87.3818 102.375 87.4084 102.095 87.5748C100.45 88.55 100.304 88.622 99.397 89.1866C99.397 86.8762 99.4888 86.7983 99.3315 86.701C99.0273 86.5116 98.9173 86.6774 98.6921 86.8302C94.3602 89.7649 94.6673 89.9784 93.7816 90.6032C93.4762 89.0887 93.3797 88.6462 93.3189 88.1689C93.2194 87.3901 93.5312 85.8903 93.1334 84.7829C92.7625 83.7516 92.0939 83.0371 92.1974 80.8476C92.3232 78.1236 92.4004 77.9843 92.3302 77.874C92.0816 77.4834 91.8423 77.8055 91.8312 77.8817C91.5539 79.7933 91.1707 82.4671 92.2179 84.364C93.0831 85.9322 92.3097 86.6302 92.8614 89.507C93.1902 91.218 93.2124 91.3095 93.0615 91.513C91.4024 93.755 90.6957 94.3786 90.3441 95.9581C90.2617 96.331 89.672 96.7599 89.1905 97.1729C87.945 92.5497 85.0224 89.7672 81.3685 86.2136C83.8196 82.2742 83.3247 82.4813 86.224 78.7973C90.1025 73.8685 91.8809 72.9835 91.1801 71.764C89.6474 69.0948 89.8486 69.5284 89.4608 69.0895C90.2751 68.5703 89.6837 69.0429 93.3896 66.2575C94.6111 65.3394 92.7859 62.5358 93.227 62.8119C93.8869 63.134 94.4859 63.5694 94.9978 64.0987C96.3948 65.8439 96.7657 65.2539 98.6026 66.051C102.186 67.605 101.064 67.1348 102.443 73.4154C102.787 74.9824 103.136 74.7169 103.768 76.6934C105.615 82.4754 104.803 79.5756 105.371 83.1982C106.132 88.0497 107.748 88.5253 107.846 91.5685C108.138 100.786 108.015 98.4001 95.8929 105.16Z" fill="#0A0430"/>
<path d="M97.4117 68.3879C93.8883 70.0765 93.6724 72.4152 92.3491 76.1405C92.4263 76.2479 92.5176 76.4591 92.5913 76.4532C93.6782 76.3664 93.697 71.7709 96.1528 70.0074C96.6828 69.5404 97.2731 69.1486 97.9078 68.8428C98.2214 68.7254 97.978 68.1171 97.4117 68.3879Z" fill="#0A0430"/>
<path d="M92.9565 108.498C92.9454 108.321 92.8653 108.156 92.7336 108.039C92.602 107.922 92.43 107.862 92.2545 107.874C92.0796 107.884 91.9158 107.965 91.8 108.098C91.6836 108.231 91.6245 108.405 91.6356 108.581C91.6467 108.757 91.7269 108.923 91.8579 109.04C91.9895 109.157 92.1621 109.216 92.337 109.206C92.5125 109.195 92.6763 109.114 92.7922 108.981C92.9086 108.848 92.9676 108.674 92.9565 108.498Z" fill="#0A0430"/>
<path d="M87.6073 49.8513C87.3973 50.4614 87.9361 50.708 88.1443 50.9723C88.4667 51.3806 87.9402 51.3611 87.7027 51.6803C87.4154 52.0709 87.8197 52.1812 87.8729 52.2166C88.0665 52.1928 88.2526 52.1289 88.4204 52.0291C88.5883 51.9291 88.734 51.7954 88.8481 51.6361C88.9294 51.4064 88.9382 51.1571 88.8738 50.9221C88.8095 50.6871 88.6749 50.4778 88.4883 50.3227C88.1765 50.0637 88.1572 49.9469 88.3842 49.6147C88.631 49.253 88.8715 48.9032 89.133 49.2566C89.4553 49.6926 89.887 49.2861 89.6396 48.8583C89.2412 48.1716 88.1595 48.25 87.6073 49.8513Z" fill="#0A0430"/>
<path d="M79.5956 41.7081C78.6503 41.8739 76.8999 41.9854 77.1731 42.9105C77.2059 43.02 77.2767 43.1137 77.3726 43.1744C77.4691 43.2351 77.5838 43.2585 77.6955 43.2404C78.0928 43.2112 78.483 43.1171 78.8503 42.9619C79.8413 42.527 81.092 42.4627 81.794 43.3967C81.8496 43.4716 82.0544 43.4811 82.1649 43.4457C82.2065 43.4109 82.2387 43.3659 82.2585 43.3149C82.2778 43.264 82.2837 43.2089 82.2761 43.1548C81.6303 42.0368 81.2184 41.9435 79.5956 41.7081Z" fill="#0A0430"/>
<path d="M75.5519 57.579C77.414 60.2682 79.5083 56.5377 81.189 53.744C81.4815 54.452 81.9091 53.9995 81.7155 53.3257C81.3148 51.9422 80.1705 51.974 80.15 52.2047C80.1594 52.3399 80.2021 52.4705 80.2746 52.5847C80.3027 52.6395 80.3741 52.6726 80.4466 52.7339C80.3782 52.8028 80.3015 52.8623 80.2179 52.9109C75.2454 54.9169 73.3149 53.0685 74.0169 54.5559C74.0204 54.5677 75.4262 57.3979 75.5519 57.579ZM76.3189 57.4445C76.6067 57.1112 76.96 56.8416 77.3566 56.6529C77.7533 56.4642 78.1844 56.3605 78.6226 56.3483C78.1113 57.3 76.977 58.2882 76.3189 57.4445ZM80.4571 53.5629C80.2465 54.0691 80.0477 54.4744 79.5106 54.6007C78.1704 54.9134 76.8483 55.3311 75.446 55.2432C74.978 55.2137 74.8803 55.1288 74.6733 54.498C76.6476 54.6589 78.6314 54.3382 80.4571 53.5629Z" fill="#0A0430"/>
<path d="M78.4485 46.9981C78.3584 47.735 78.3379 48.1781 78.8311 48.2601C79.2347 48.3297 79.2225 47.2677 79.1353 47.0612C78.9861 46.7031 78.4982 46.6081 78.4485 46.9981Z" fill="#0A0430"/>
<path d="M73.6651 47.4618C73.6593 47.2961 73.6335 47.1317 73.5891 46.9721C73.5651 46.9143 73.5253 46.8643 73.475 46.8275C73.4247 46.7907 73.3656 46.7685 73.3036 46.7634C73.2416 46.7582 73.1796 46.7702 73.1234 46.7982C73.0678 46.8262 73.021 46.8689 72.9877 46.9219C72.5226 47.8954 73.4399 49.0359 73.6651 47.4618Z" fill="#0A0430"/>
<path d="M52.9452 78.3123C52.8582 78.3035 52.7703 78.3129 52.687 78.34C52.6038 78.3672 52.527 78.4114 52.4615 78.4698C52.3959 78.5282 52.3431 78.5996 52.3062 78.6793C52.2693 78.7595 52.2493 78.8463 52.2472 78.9348C52.2452 79.0227 52.2613 79.1106 52.2944 79.192C52.3276 79.2734 52.3772 79.3472 52.4399 79.4085C52.5027 79.4705 52.5774 79.5177 52.6594 79.5489C52.7413 79.5796 52.8286 79.5932 52.916 79.5885C53.0757 79.5796 53.2262 79.5106 53.3375 79.395C53.4488 79.2793 53.5126 79.1253 53.5164 78.9643C53.5201 78.8026 53.4633 78.6462 53.3574 78.5253C53.2515 78.4043 53.1043 78.3282 52.9452 78.3123Z" fill="#0A0430"/>
</svg>
