<svg width="131" height="132" viewBox="0 0 131 132" fill="none" xmlns="http://www.w3.org/2000/svg">
<rect x="17" width="114" height="114" rx="4" fill="#D6F0FF"/>
<path d="M51.8643 47.1831L51.2983 72.0731L84.6766 73.7207L84.9005 47.5887L51.8643 47.1831Z" fill="white"/>
<path d="M57.6096 92.838C58.1024 92.6694 58.5548 92.3946 58.9363 92.0316C59.3063 91.5684 59.5226 90.9948 59.5535 90.396L60.0397 90.4128C60.8761 90.2466 61.6922 89.985 62.4727 89.6328L62.5821 89.8638L77.8636 92.8638L63.7907 100.373L49.5736 94.8192L49.5439 94.6146C51.2767 94.3488 52.9919 93.9654 54.6438 93.5778C55.6489 93.408 56.6404 93.1608 57.6096 92.838Z" fill="#B1F1FF"/>
<path d="M100.378 116.954C99.7159 114.239 96.8589 102.568 96.8589 102.568C98.3828 102.243 99.8852 101.821 101.358 101.304L101.671 101.339C101.671 101.339 102.439 113.738 102.634 116.924C102.639 117.016 102.626 117.109 102.594 117.196C102.562 117.282 102.513 117.361 102.45 117.427C102.386 117.492 102.309 117.543 102.226 117.575C102.142 117.608 102.052 117.622 101.962 117.617C101.684 117.599 101.363 117.581 101.096 117.565C100.929 117.555 100.769 117.491 100.64 117.381C100.511 117.271 100.419 117.122 100.378 116.954Z" fill="#55C6F0"/>
<path d="M96.8292 36.9635C96.7943 39.4871 97.1543 45.4577 97.1543 45.4577C97.1543 45.4577 111.451 65.1245 113.183 67.5323C113.292 67.6822 113.353 67.8633 113.358 68.0507C113.369 68.5517 113.401 69.6107 113.421 70.3607C113.428 70.6175 113.373 70.872 113.262 71.1017C113.15 71.3313 112.985 71.5288 112.781 71.6765C109.479 74.0597 94.9906 84.4595 94.9906 84.4595L95.0878 90.4649C95.0645 91.8983 92.9432 92.1785 92.717 90.8147C92.7053 90.7427 92.1894 86.1245 92.1132 85.4531C92.0894 85.2479 92.1208 85.0397 92.2034 84.8519C92.286 84.6635 92.4168 84.5021 92.582 84.3851C95.7392 82.1573 111.438 71.0189 111.438 71.0189L111.4 67.8893L95.8829 45.7061L95.6333 37.2995L96.0475 36.6995C96.101 36.6224 96.1766 36.5649 96.2638 36.5354C96.3511 36.5058 96.4453 36.5058 96.5326 36.5352C96.6198 36.5647 96.6954 36.6221 96.7489 36.6992C96.8024 36.7762 96.8304 36.8688 96.8292 36.9635Z" fill="white"/>
<path d="M90.1198 121.474C89.3462 118.212 86.0768 104.233 86.0768 104.233L86.064 104.028C88.0241 103.908 89.7184 103.762 91.0114 103.608C91.0114 103.608 92.5819 117.966 92.9163 121.248C92.9262 121.335 92.9186 121.423 92.8942 121.508C92.8704 121.592 92.8297 121.67 92.7756 121.738C92.7209 121.805 92.654 121.861 92.5784 121.901C92.5022 121.941 92.4196 121.965 92.3347 121.972C91.9165 122.008 91.3721 122.061 90.9492 122.098C90.7613 122.113 90.5746 122.058 90.4228 121.943C90.2704 121.829 90.1634 121.663 90.1198 121.474Z" fill="#55C6F0"/>
<path d="M91.3762 90.378C91.5449 90.3402 92.1056 90.2424 92.6395 90.186C92.6611 90.3912 92.6826 90.5826 92.7029 90.7572C92.7221 90.9168 92.7751 91.0704 92.8588 91.206C92.942 91.3422 93.0531 91.458 93.1851 91.5444C93.3166 91.6308 93.4649 91.6866 93.6196 91.707C93.7743 91.728 93.9319 91.713 94.0803 91.6638C94.3571 91.6158 94.6084 91.47 94.7916 91.2504C94.9748 91.0314 95.0772 90.753 95.0818 90.4638L95.2802 90.4728C96.5395 90.5328 99.2569 91.3662 99.311 92.7348C99.3308 93.2448 98.9038 93.5748 98.7875 94.0332C98.6584 94.5306 98.7788 95.0136 98.3187 95.367C97.6888 95.85 96.7209 95.8746 95.9735 95.9202C94.2873 96.0336 92.5953 96.009 90.9132 95.8464C90.1501 95.8452 89.3986 95.652 88.7245 95.2842C88.3941 95.037 88.4622 94.5042 88.361 94.1442C88.0643 93.081 87.613 92.3988 88.6861 91.5684C89.4975 90.9912 90.4118 90.5862 91.3762 90.378Z" fill="#B1F1FF"/>
<path d="M88.7219 96.3612L74.0278 100.51L69.7731 97.599L69.6085 97.2678L77.8638 92.8614L67.2383 90.7782L67.2592 90.6522L76.5923 88.926L88.7219 96.3612Z" fill="#B1F1FF"/>
<path d="M87.6229 47.6846C87.4484 54.1046 87.0185 69.092 86.8202 76.2132L49.0581 74.1732C49.164 67.226 49.3693 53.3192 49.4594 47.6534C49.4701 46.9884 49.7316 46.3538 50.1883 45.8844C50.6451 45.4149 51.2611 45.1475 51.9058 45.1388C58.6104 45.0476 77.479 44.7884 84.7751 44.6984C85.1544 44.6938 85.5307 44.7683 85.8814 44.9174C86.2316 45.0664 86.5497 45.287 86.8155 45.5659C87.0814 45.8448 87.2902 46.1762 87.4286 46.5403C87.5676 46.9043 87.6333 47.2936 87.6229 47.6846ZM84.9002 47.5886L51.8628 47.183L51.3009 72.0726L84.9031 73.7898L84.9002 47.5886Z" fill="white"/>
<path fill-rule="evenodd" clip-rule="evenodd" d="M52.1969 45.1349C52.199 45.3007 52.0705 45.4367 51.9099 45.4388C50.7449 45.4544 49.7698 46.4567 49.7505 47.6584C49.6934 51.2461 49.5902 58.1378 49.4952 64.4747C49.4402 68.1454 49.388 71.6299 49.3491 74.178C49.3466 74.3436 49.2144 74.4762 49.0538 74.4732C48.8932 74.4708 48.7651 74.3346 48.7676 74.169C48.8064 71.6208 48.8586 68.1366 48.9136 64.4662C49.0086 58.1289 49.1118 51.2364 49.169 47.6485C49.1934 46.1224 50.4228 44.8588 51.9023 44.8389C52.0629 44.8367 52.1948 44.9693 52.1969 45.1349Z" fill="#000001"/>
<path d="M85.0659 44.6946C85.0676 44.8603 84.9391 44.9962 84.7786 44.9982C83.3279 45.0161 81.4201 45.0406 79.2407 45.0693C77.978 45.0859 76.6239 45.1038 75.2152 45.1226C68.6682 45.2099 60.9405 45.3154 55.6781 45.3872L55.0803 45.3954C54.9197 45.3975 54.7878 45.265 54.7857 45.0993C54.7836 44.9337 54.912 44.7976 55.0727 44.7954L55.6702 44.7873C60.9329 44.7154 68.6606 44.61 75.2076 44.5227C76.6164 44.5039 77.9704 44.4859 79.2332 44.4693C81.4126 44.4407 83.321 44.4161 84.7716 44.3982C84.9321 44.3962 85.0642 44.529 85.0659 44.6946Z" fill="#000001"/>
<path d="M87.6311 47.3844C87.7916 47.3891 87.9184 47.5271 87.9137 47.6927C87.8102 51.5061 87.6165 58.3425 87.4345 64.7575L87.4339 64.7735C87.31 69.1527 87.1913 73.3339 87.1111 76.2217C87.1064 76.3873 86.9726 76.5175 86.8121 76.5127C86.6516 76.5085 86.5248 76.3699 86.5294 76.2043C86.6103 73.3159 86.7283 69.1334 86.8528 64.7536V64.7402L86.8534 64.7233C87.0355 58.3133 87.2286 51.486 87.3321 47.6759C87.3367 47.5103 87.4705 47.3798 87.6311 47.3844Z" fill="#000001"/>
<path d="M97.0868 28.421C96.4109 28.4358 95.7374 28.5028 95.0714 28.6214C95.0336 28.6262 94.4205 28.7696 94.4124 28.7612C93.6382 27.3565 92.6703 26.0751 91.5396 24.9566C89.1357 22.6286 85.4132 22.8866 82.384 23.4962C78.1054 24.3668 76.2633 25.8242 76.3802 30.4262C76.4041 33.7677 77.2259 37.0516 78.7719 39.9878C79.2082 40.7587 79.8044 41.4208 80.5175 41.9265C81.2306 42.4323 82.0431 42.7693 82.897 42.9134C86.4537 43.6226 90.9388 41.8202 93.4492 39.5912C94.4589 38.6912 94.4589 37.1912 95.418 36.3314C97.0996 34.8188 100.234 36.1616 100.542 33.1514C100.799 30.644 99.7949 28.3604 97.0868 28.421Z" fill="#B1F1FF"/>
<path d="M79.5153 31.3545C79.6601 31.2282 79.8224 31.1252 79.9969 31.0491L80.2249 30.9927C80.6234 32.7447 80.8676 34.53 80.9561 36.3273L80.8211 36.3357C79.2507 36.1557 78.8604 33.8343 79.0296 32.5353C79.0587 32.0967 79.2297 31.681 79.5153 31.3545Z" fill="white"/>
<path d="M78.0635 54.9192C78.0193 54.6433 78.0204 54.3617 78.0676 54.0864C78.2351 53.0808 78.8022 52.4916 79.4193 51.7764C79.5746 51.5964 79.3687 51.1794 79.3611 50.9658C79.3355 50.3058 79.7101 49.4994 80.4389 49.4976C80.6617 49.4982 80.8798 49.5621 81.0694 49.6823C81.2596 49.8025 81.4138 49.9744 81.515 50.179C81.6162 50.3836 81.661 50.6131 81.6435 50.8422C81.6266 51.0712 81.5493 51.2911 81.419 51.4776C81.3672 51.5598 81.0939 51.8004 81.1107 51.8976C81.1189 51.9714 81.3504 52.0776 81.4015 52.1238C81.8035 52.5001 82.1106 52.9719 82.2961 53.4982C82.4811 54.0244 82.5398 54.5894 82.466 55.1442L82.4532 55.3884L78.0513 55.1484L78.0635 54.9192Z" fill="#55C6F0"/>
<path d="M77.7703 67.2091L77.7744 67.1395C77.6138 67.0915 77.8372 66.4195 77.8634 66.3463C78.0687 65.7796 78.4124 65.2769 78.8603 64.8865C79.0144 64.7491 79.2273 64.6549 79.3634 64.5073C79.4559 64.4065 79.2151 63.9073 79.2029 63.7705C79.1779 63.6067 79.1866 63.4393 79.2291 63.2795C79.2715 63.1196 79.3471 62.971 79.4495 62.8435C79.5525 62.716 79.6804 62.6127 79.8253 62.5403C79.9695 62.468 80.1277 62.4284 80.2882 62.4241C81.2323 62.5513 81.8162 63.6721 81.2189 64.4113C81.1555 64.4983 80.874 64.6597 80.8809 64.7713C80.8972 65.0365 81.2299 65.4115 81.3247 65.6647C81.5382 66.2201 81.6377 66.8153 81.6156 67.4125C79.2267 67.2877 80.1132 67.3351 77.7703 67.2091Z" fill="#55C6F0"/>
<path d="M77.6059 60.9034C77.5297 60.8596 77.6018 60.6328 77.61 60.5806C77.8194 59.8337 78.2126 59.1552 78.7506 58.6108C78.8745 58.4812 79.0885 58.3666 79.1775 58.2142C79.2665 58.0618 79.1665 57.7342 79.1985 57.5602C79.2357 57.2377 79.3852 56.9401 79.619 56.7228C79.8528 56.5056 80.1558 56.3835 80.4705 56.3794C81.2534 56.5396 81.4081 57.5068 81.1336 58.1878C81.0952 58.2838 80.8945 58.5238 80.9056 58.624C80.9126 58.6894 81.0911 58.7806 81.1336 58.8154C81.3081 58.9601 81.4581 59.1338 81.5774 59.3296C81.8531 59.8961 82.041 60.5033 82.1352 61.1296C82.1352 61.1896 82.4842 61.1788 77.6059 60.916V60.9034Z" fill="#55C6F0"/>
<path d="M81.5178 73.6205L77.0142 73.3895C77.0671 72.6737 77.2689 71.9778 77.6057 71.3494C78.0751 70.6492 78.324 70.741 78.4084 70.591C78.4572 70.4035 78.4799 70.2098 78.4758 70.0156C78.687 68.8384 79.1534 68.4292 79.663 68.4292C79.891 68.4362 80.1137 68.5054 80.3074 68.6298C80.5017 68.7543 80.6599 68.9295 80.7669 69.1376C80.8739 69.3458 80.9251 69.5794 80.9164 69.8148C80.9071 70.0502 80.8379 70.2789 80.7152 70.4776C80.6599 70.5646 80.3662 70.7956 80.3662 70.8976C80.3708 70.9804 80.4889 71.0638 80.5407 71.1202C81.1595 71.7973 81.5085 72.6899 81.5178 73.6205Z" fill="#55C6F0"/>
<path d="M49.0584 74.1738C49.0456 74.967 49.0328 75.6684 49.0246 76.2564C49.0172 76.7988 49.2114 77.3232 49.5675 77.7222C49.9236 78.1212 50.4143 78.3636 50.9388 78.4008C54.741 78.6714 62.8567 79.2552 63.4907 79.3008C64.291 78.2862 65.16 77.3316 66.0901 76.4424C66.6717 75.9624 67.6902 76.0284 65.0716 79.2744L65.1734 79.3614L65.9243 79.3878C66.5693 80.3748 67.0841 81.4464 67.4534 82.5738C67.5878 82.9044 67.6058 83.2728 67.504 83.6154C67.137 84.2994 65.954 84.4956 65.3328 84.84C65.1088 84.96 64.8046 85.1754 64.8808 85.3758C64.921 85.461 64.9902 85.5276 65.0751 85.5636C66.0057 86.0604 72.1601 86.7576 74.3023 85.6836C74.8839 85.3956 76.1054 84.402 76.2031 83.8968C76.1671 83.5326 76.0757 83.1768 75.9332 82.842C75.561 81.7614 75.116 80.709 74.6007 79.6926C78.0987 79.8126 77.2448 79.7994 85.093 80.0568C85.3053 80.0634 85.517 80.0268 85.7159 79.9488C85.9142 79.8708 86.0963 79.7532 86.251 79.6032C86.4057 79.4526 86.5296 79.272 86.6169 79.0722C86.7035 78.8718 86.7512 78.6558 86.7571 78.4368C86.7739 77.8314 86.7949 77.082 86.8204 76.2168C86.6297 76.2072 89.7362 76.3728 49.0584 74.1738Z" fill="#B1F1FF"/>
<path d="M66.1144 27.0177C66.2097 27.0766 66.2906 27.1577 66.3499 27.2545C66.4093 27.3514 66.4459 27.4614 66.4564 27.5754C66.4668 27.6895 66.4511 27.8046 66.411 27.9114C66.3709 28.0182 66.3063 28.1136 66.2237 28.1901C64.7615 29.5365 61.4862 32.5155 60.6516 33.2901C60.5951 33.343 60.5236 33.3747 60.4474 33.3802C60.3718 33.3858 60.2962 33.3649 60.2334 33.3207C60.0211 33.1695 59.7011 32.9457 59.4685 32.7807C59.4336 32.7552 59.4039 32.7222 59.3818 32.6841C59.3603 32.6459 59.3463 32.6034 59.3417 32.5594C59.337 32.5153 59.3411 32.4708 59.3545 32.4285C59.3673 32.3863 59.3894 32.3475 59.4179 32.3145C60.2799 31.3689 63.2271 28.1247 64.4113 26.8233C64.5526 26.6679 64.7411 26.5671 64.9458 26.5377C65.1506 26.5083 65.3588 26.5522 65.5356 26.6619C65.7171 26.7735 65.9201 26.8995 66.1144 27.0177Z" fill="#55C6F0"/>
<path d="M66.7486 76.923C66.2809 77.7714 65.7185 78.5604 65.0717 79.2726C64.3993 80.0916 64.5122 79.917 63.1569 81.7482C62.4374 82.7208 62.0605 83.1882 60.9269 82.515L60.8804 82.455C61.106 82.329 64.5971 77.7438 66.0064 76.512C66.7672 75.846 66.9231 76.5168 66.7486 76.923Z" fill="white"/>
<path d="M101.223 89.1601C99.2316 88.1035 97.1656 87.2047 95.042 86.4715H95.021C95.042 87.7567 95.0844 90.4633 95.0844 90.4633L95.2828 90.4723C96.542 90.5323 99.263 91.3657 99.3136 92.7343C99.3345 93.2437 98.9064 93.5707 98.7901 94.0327C98.6592 94.5295 98.7814 95.0131 98.3213 95.3665C97.6914 95.8501 96.7241 95.8807 95.9761 95.9197C94.2899 96.0367 92.5979 96.0121 90.9158 95.8459C88.039 95.5363 88.6154 95.0395 88.3635 94.1419C88.0681 93.0787 87.6202 92.4019 88.6887 91.5661C89.8648 90.7519 91.2299 90.2755 92.6439 90.1861C92.4792 88.7305 92.2472 86.6953 92.1244 85.5799L91.9767 85.5973C86.9722 84.1789 81.8456 83.2681 76.6696 82.8775C75.9326 82.8073 75.9931 82.8175 75.935 82.8385C76.0775 83.1733 76.1688 83.5297 76.2048 83.8933C76.1077 84.3985 74.8828 85.3933 74.304 85.6801C72.1618 86.7565 66.0063 86.0593 65.0768 85.5601C64.8029 85.4449 64.7278 85.1677 65.3345 84.8365C65.9557 84.4921 67.1376 84.2965 67.5058 83.6119C67.6075 83.2693 67.5895 82.9009 67.4552 82.5703C67.397 82.6009 65.4485 82.5457 64.2235 82.6963L63.9909 82.7839C64.095 82.9327 64.1689 83.1019 64.2084 83.2807C64.2474 83.4595 64.2509 83.6449 64.2189 83.8255C64.1218 84.3349 63.7163 84.8275 63.771 85.3591C63.8292 86.0059 64.3562 86.4649 64.3248 87.1897C64.2741 88.4059 63.4668 89.1463 62.474 89.6305L62.5833 89.8615L67.2365 90.7765L67.2574 90.6505L76.5905 88.9243L88.7218 96.3601L74.0277 100.509L69.773 97.5979L69.6084 97.2667L63.792 100.37L49.5737 94.8187L49.544 94.6141C44.0033 95.5363 40.6193 94.4197 35.9231 94.0351L35.9062 94.2181C35.9783 94.2703 35.9149 94.6843 35.9108 94.7497C35.7378 96.1963 35.3635 97.6099 34.7993 98.9461L34.8668 98.9719C41.6941 100.401 51.7455 101.317 58.6787 101.752C69.1483 102.412 79.6633 102.724 90.1114 101.578C94.3702 101.112 98.8064 100.558 102.875 99.1069C104.544 98.5069 106.633 97.6723 107.125 95.9269C107.987 92.8573 103.251 90.2509 101.223 89.1601Z" fill="white"/>
<path d="M62.4728 89.6329C61.6946 89.9911 60.8779 90.2527 60.0398 90.4129L59.5535 90.3961C59.7902 88.5577 59.7018 86.1859 58.1128 85.3561L58.1512 85.2811C57.7202 84.6931 58.2181 83.9401 58.5653 83.5207C58.8532 83.1787 59.2563 82.9621 59.6931 82.9147C60.1195 82.8655 60.5272 82.7083 60.8802 82.4575L60.9268 82.5175C61.89 83.0887 62.3169 82.8229 62.8282 82.1863L63.0992 82.2211C63.276 82.2487 63.4453 82.3129 63.5977 82.4095C63.7501 82.5055 63.8821 82.6327 63.9862 82.7827C64.0903 82.9321 64.1648 83.1019 64.2043 83.2819C64.2439 83.4619 64.2486 83.6479 64.2177 83.8297C64.1235 84.3397 63.7187 84.8317 63.7699 85.3633C63.8321 86.0065 64.355 86.4679 64.3236 87.1939C64.2718 88.4083 63.4709 89.1643 62.4728 89.6329Z" fill="white"/>
<path d="M55.6367 31.4631C55.6058 31.4316 55.5821 31.3934 55.5675 31.3513C55.5528 31.3091 55.5474 31.2641 55.5518 31.2195C55.6681 29.9253 56.0578 25.4973 56.2113 23.7231C56.2301 23.511 56.3187 23.3118 56.4624 23.1588C56.6061 23.0057 56.7963 22.908 57.0012 22.8819C57.2129 22.8537 57.4491 22.8219 57.673 22.7949C57.783 22.7811 57.8947 22.794 57.9989 22.8329C58.1031 22.8717 58.1971 22.9352 58.2733 23.0184C58.3495 23.1015 58.4053 23.2019 58.4367 23.3115C58.4681 23.4212 58.4745 23.5368 58.4548 23.6493C58.1011 25.6365 57.3107 30.0645 57.1065 31.2093C57.0925 31.2869 57.0538 31.3573 56.9965 31.4094C56.939 31.4615 56.8664 31.4923 56.7901 31.4967C55.8379 31.5543 55.7716 31.6011 55.6367 31.4631Z" fill="#55C6F0"/>
<path d="M53.524 89.0801C53.1354 88.8971 52.2077 88.5659 52.5776 88.0001C53.3628 86.7953 53.8031 87.3509 55.4858 88.3193C56.4618 88.8809 58.1306 89.6993 58.6587 90.7469C58.8303 91.1531 58.9245 91.5899 58.9379 92.0333C58.5552 92.3945 58.1032 92.6693 57.6112 92.8397C57.6062 92.4467 57.5163 92.0603 57.3482 91.7081C57.1801 91.3559 56.9379 91.0469 56.6392 90.8033C55.6498 90.1391 54.6077 89.5625 53.524 89.0801Z" fill="#B1F1FF"/>
<path d="M47.7819 85.08C47.7016 85.0974 47.5922 85.2192 47.5288 85.2282C47.1502 84.0798 46.0236 83.742 44.8882 83.4804C49.7995 82.9128 54.7439 82.7088 59.6835 82.8696L59.6928 82.9128C59.2565 82.9614 58.8535 83.1774 58.565 83.5188C58.216 83.9388 57.7198 84.6912 58.1508 85.2792L58.1124 85.3542C55.7231 84.1842 52.9184 85.8804 50.2539 85.4502C48.6695 85.1934 48.2763 85.0122 47.7819 85.08Z" fill="white"/>
<path d="M46.1244 86.2956C46.5216 86.1384 47.3877 85.6548 47.5395 86.3214C47.8612 87.7338 47.1643 87.6918 45.3345 88.3014C44.2701 88.6554 42.5542 89.361 41.4474 89.0424C40.4504 88.755 39.9351 87.6402 38.7986 87.7824C38.0296 87.879 37.2723 88.5876 36.6691 89.0766C36.1701 89.481 35.1103 90.5802 34.5694 88.8846C34.4426 88.92 35.0772 88.2276 35.1778 88.1352C35.4105 87.924 35.6507 87.7266 35.8874 87.525C36.5633 86.922 37.3332 86.442 38.1646 86.1042C40.084 85.3776 40.8983 87.9234 42.7828 87.477C43.9312 87.1962 45.0504 86.8002 46.1244 86.2956Z" fill="#B1F1FF"/>
<path d="M46.1982 103.007L44.7191 110.722C43.4942 110.479 40.8872 109.972 40.811 109.96L42.2268 102.472C43.5407 102.676 44.8715 102.851 46.1982 103.007Z" fill="#55C6F0"/>
<path d="M42.2273 102.472L40.8116 109.96C39.9009 109.806 39.0134 109.531 38.1715 109.141C38.0098 109.064 37.8161 108.953 37.5898 108.835C37.5898 108.835 38.1372 102.014 38.1854 101.765C39.5139 102.035 40.8662 102.266 42.2273 102.472Z" fill="#55C6F0"/>
<path d="M38.5725 27.9464L35.5968 23.906C35.9458 23.3612 40.7153 21.8882 40.7153 21.8882C40.7153 21.8882 49.2696 29.384 48.9822 29.4542C46.2409 30.1244 39.4299 35.8688 39.0495 35.7776C36.499 35.168 26.8652 37.9526 26.8652 37.9526L20.2531 28.2074C20.1775 28.0946 21.0726 27.4874 21.1407 27.4448C22.1595 26.8133 23.2776 26.3708 24.4444 26.1374C25.9556 25.8282 27.4973 25.7073 29.0365 25.7774C29.7271 25.8487 30.4221 25.8662 31.1153 25.8296C31.9011 25.7096 32.9108 24.7922 33.6797 24.5174L33.8234 24.404C35.4671 26.6402 37.2121 29.0108 37.2121 29.0108L39.1641 30.2528L38.5725 27.9464Z" fill="#B1F1FF"/>
<path d="M38.5723 27.9467L32.7326 20.0135C32.6817 19.9441 32.618 19.8859 32.5452 19.842C32.4723 19.7981 32.3918 19.7696 32.3083 19.7579C32.2247 19.7462 32.1397 19.7518 32.0582 19.7741C31.9767 19.7965 31.9003 19.8352 31.8333 19.8881C31.7449 19.9577 31.6519 20.0273 31.5588 20.0975C31.406 20.2183 31.306 20.3968 31.2807 20.5937C31.2554 20.7905 31.3069 20.9897 31.4239 21.1475C31.9433 21.8579 37.2118 29.0141 37.2118 29.0141L39.1638 30.2561L38.5723 27.9467Z" fill="white"/>
<path d="M34.0601 100.804C34.3096 100.185 34.5626 99.5699 34.7993 98.9465L34.8668 98.9723C41.6947 100.402 51.7455 101.317 58.6787 101.753C69.1483 102.413 79.6633 102.724 90.1114 101.579C94.3702 101.112 98.807 100.559 102.875 99.1073C104.155 98.6501 105.942 97.9745 106.772 96.7019L106.946 96.7145C106.231 101.117 96.581 102.693 92.2821 103.422C86.9781 104.322 68.063 104.922 58.4199 104.132C51.7956 103.592 44.7513 103.084 38.1787 101.766C37.4929 101.627 34.5207 100.994 34.0601 100.804Z" fill="white"/>
<path d="M32.1382 110.121C31.6316 110.452 31.102 110.743 30.5538 110.993L30.1566 110.108C30.0189 109.887 29.8395 109.697 29.629 109.55C28.6398 108.889 27.5996 108.314 26.519 107.828C26.1304 107.648 25.2016 107.314 25.5726 106.744C26.355 105.544 26.7987 106.093 28.4809 107.062C29.4115 107.597 30.9691 108.365 31.5694 109.345L32.1382 110.121Z" fill="#B1F1FF"/>
<path d="M28.073 63.9494C28.5895 60.3848 32.3015 58.6502 31.4698 54.9494C31.183 53.6666 30.6208 52.4666 29.8245 51.4378C29.0282 50.409 28.0182 49.5777 26.869 49.0052C25.975 48.6116 22.4624 48.0272 22.9022 47.2964C23.2099 46.7846 23.9654 46.7114 24.5494 46.769C25.7839 46.8604 26.9875 47.2101 28.0868 47.7968C29.186 48.3836 30.158 49.195 30.9434 50.1818C32.3103 51.9962 32.5464 54.1646 33.4404 56.1872C34.1046 57.6902 35.3744 58.1462 35.9543 60.2234C36.2949 61.5753 36.1632 63.0077 35.5823 64.2694C35.0014 65.5312 34.0083 66.5416 32.7773 67.1234C30.025 68.516 27.628 67.028 28.073 63.9494Z" fill="#B1F1FF"/>
<path d="M38.0233 61.92C37.7884 61.4187 37.6933 60.8598 37.7488 60.306C37.6638 60.1746 37.7418 60.2418 37.5673 60.2928C37.0557 60.3435 36.5395 60.3111 36.0376 60.1968L35.9532 60.2232C36.2917 61.575 36.1591 63.0066 35.5784 64.2678C34.9977 65.529 34.0059 66.5396 32.7763 67.1232C30.7231 68.187 28.7455 67.5942 28.1813 65.7678L27.9958 65.8332C27.987 65.8332 27.8899 66.0132 27.8794 66.0204C26.8603 67.394 25.4736 68.4299 23.8905 69L23.8608 69.3102C24.6958 69.4005 25.5216 69.5655 26.3288 69.8034C27.2842 70.0808 28.1629 70.5867 28.8932 71.28C29.7267 72.0719 29.7797 72.4907 30.9802 73.1711C31.1851 72.6431 31.512 72.1751 31.9323 71.8068C32.7268 71.3448 33.8128 71.6268 34.6701 71.1966C36.094 70.4766 37.1671 68.835 37.8261 67.3962C38.2413 66.5525 38.4739 65.6259 38.508 64.6805C38.542 63.7349 38.3766 62.7931 38.0233 61.92Z" fill="white"/>
<path d="M25.2001 119.761C26.692 120.296 27.0125 122.761 26.5902 124.11V124.215C23.7803 124.267 20.9751 124.263 18.1866 124.167L18.1913 124.047C17.5951 122.792 16.9443 121.107 18.043 120.695C19.8089 120.035 23.3755 119.107 25.2001 119.761Z" fill="#B1F1FF"/>
<path d="M30.9434 50.1818C29.6315 48.5016 27.7815 47.3595 25.7261 46.961L25.7557 46.8302C27.6781 46.181 31.4082 46.5644 33.1746 48.3206C33.4886 48.6804 33.8464 48.9968 34.239 49.262C34.6869 49.5062 35.3715 49.409 35.8676 49.5716C39.0713 50.6258 41.4171 53.3354 41.3136 56.7758C41.2973 57.3122 41.1763 58.3808 40.654 58.6958C40.3911 58.8554 40.376 58.2818 40.3632 58.151C40.2845 57.4097 40.088 56.6868 39.7815 56.0114C39.739 55.9154 39.4663 55.2032 39.2871 55.3052C39.1661 55.3742 39.201 55.5284 38.966 57.0452C38.8453 57.9291 38.587 58.7871 38.2012 59.5862C38.0736 59.8887 37.8503 60.1377 37.5678 60.2924C37.0562 60.3434 36.5399 60.311 36.038 60.1964L35.9537 60.2228C35.3686 58.1084 34.1297 57.7466 33.4398 56.1866C32.5447 54.1646 32.3085 51.9962 30.9434 50.1818Z" fill="#000001"/>
<path d="M25.5343 73.3031C26.6266 74.4077 25.9414 74.7815 24.5414 76.4315C23.7271 77.3915 22.4882 79.0619 21.2586 79.4267C20.1535 79.7549 19.0367 79.0433 18.0392 79.8467C17.3592 80.3963 17.0329 81.4937 16.734 82.3067C16.4879 82.9733 16.0942 84.6125 14.6296 83.3789C14.5284 83.4875 14.7459 82.4723 14.7901 82.3331C14.8913 82.0013 15.0141 81.6731 15.1281 81.3479C15.4395 80.3891 15.9036 79.4903 16.5013 78.6893C17.9223 76.8803 20.1075 78.7289 21.6558 77.1947C22.577 76.2437 23.4206 75.2159 24.1779 74.1221C24.4559 73.7405 25.0178 72.7805 25.5343 73.3031Z" fill="#B1F1FF"/>
<path d="M15.3518 75.6265C14.8397 76.2187 14.1518 76.6195 13.3957 76.7665C13.0426 76.8043 12.6863 76.7419 12.365 76.5865C11.9317 76.3747 11.7659 75.9979 11.4861 75.9709C11.2622 75.9499 11.0086 76.2067 10.8359 76.3153C10.6329 76.4791 10.3894 76.5805 10.133 76.6087C9.87668 76.6363 9.61796 76.5889 9.38641 76.4725C8.95872 76.1173 8.68157 75.6043 8.6134 75.0427C8.59653 74.9773 8.55 74.3827 8.46974 74.3761C8.35341 74.3629 8.05619 74.8603 7.97941 74.9383C7.50537 75.4183 6.64628 75.8479 6.04428 75.3391C5.42948 74.8195 5.91457 73.8535 6.2304 73.3081C7.25177 71.5481 8.08469 69.8939 8.27081 67.8005C8.49009 65.3465 8.15099 62.8805 8.21614 60.4205C8.26319 57.8961 9.04324 55.4443 10.4555 53.3819C10.9789 52.6436 11.6203 52.0025 12.3522 51.4859C13.0678 50.9504 13.9359 50.676 14.8195 50.7059C15.2087 50.7269 15.9095 51.2681 16.2521 51.0545C16.7381 50.6763 17.2008 50.2673 17.6376 49.8299C18.6579 49.0067 19.8207 48.3914 21.0641 48.0167C21.6202 47.7797 22.2321 47.7191 22.8218 47.8427L22.944 47.6069C23.4384 48.1913 26.1046 48.6653 26.8689 49.0019C28.0181 49.5745 29.0281 50.4057 29.8244 51.4345C30.6207 52.4633 31.1829 53.6633 31.4697 54.9461C32.3015 58.6469 28.5894 60.3821 28.0729 63.9461C27.982 64.5544 28.0195 65.1758 28.1828 65.7677L27.9973 65.8331C27.9886 65.8331 27.8914 66.0131 27.881 66.0203C26.8639 67.397 25.4757 68.4337 23.8903 69.0005L23.8606 69.3107C22.5134 69.148 21.1491 69.2233 19.8263 69.5333L19.8048 69.4451C18.801 69.2509 17.91 68.661 17.3206 67.8005L17.2787 67.8089C17.4322 68.6831 17.4818 69.5732 17.4265 70.4597C17.4272 70.4932 17.4258 70.5267 17.4224 70.5599C17.3183 72.4441 16.5869 74.2339 15.3518 75.6265Z" fill="#000001"/>
<path d="M20.9881 86.2524C20.9038 86.1522 21.7914 86.4216 21.9135 86.4702C22.2044 86.586 22.4806 86.7216 22.7627 86.8494C23.5894 87.1992 24.3534 87.69 25.023 88.3008C26.5213 89.7408 24.6891 91.6356 25.9315 93.1692C26.7044 94.0878 27.5509 94.9374 28.4623 95.7096C28.7851 95.994 29.5912 96.5772 29.0829 97.0206C28.0121 97.956 27.7317 97.296 26.3748 95.8884C25.5849 95.0688 24.1959 93.8148 23.9708 92.6484C23.7696 91.6032 24.5013 90.6204 23.8609 89.6412C23.4276 88.9812 22.4702 88.6014 21.778 88.2726C21.1987 87.9996 19.7713 87.5166 20.9881 86.2524Z" fill="#B1F1FF"/>
<path d="M17.6236 103.68C17.6422 103.998 17.6376 104.317 17.6405 104.635C17.6693 105.557 17.548 106.478 17.2816 107.359C16.6273 109.354 14.1989 108.407 13.352 110.209C12.847 111.308 12.4454 112.455 12.1527 113.634C12.0212 114.054 11.8444 115.054 11.2482 114.758C9.97731 114.129 10.4496 113.599 11.1319 111.743C11.5291 110.666 12.0736 108.844 13.0077 108.156C13.8482 107.537 15.0167 107.818 15.6187 106.818C16.0299 106.135 15.9677 105.083 15.9735 104.29C15.9776 103.636 15.817 102.098 17.4352 102.721C17.4898 102.6 17.6131 103.544 17.6236 103.68Z" fill="#B1F1FF"/>
<path d="M12.9227 93.5515C13.2432 94.9639 12.5476 94.9195 10.7171 95.5315C9.65331 95.8867 7.92874 96.6199 6.83059 96.2725C6.46654 96.1519 6.13012 95.9557 5.8418 95.6971C6.11226 95.2771 6.39087 94.8601 6.6561 94.4419C7.10699 94.7269 7.64716 94.8223 8.1643 94.7077C9.31032 94.4131 10.4298 94.0183 11.5105 93.5269C11.9008 93.3607 12.7703 92.8807 12.9227 93.5515Z" fill="#B1F1FF"/>
<path d="M45.3362 88.3003C47.1666 87.6931 47.8628 87.7339 47.5412 86.3203C47.3894 85.6537 46.5233 86.1373 46.1261 86.2945C45.052 86.7991 43.9329 87.1945 42.7845 87.4753C40.8977 87.9217 40.088 85.3753 38.1662 86.1025C37.3349 86.4403 36.565 86.9203 35.8891 87.5233C35.6524 87.7249 35.4093 87.9223 35.1795 88.1335C35.0789 88.2259 34.4443 88.9183 34.5711 88.8829C35.112 90.5785 36.1718 89.4793 36.6708 89.0749C37.274 88.5859 38.0313 87.8749 38.8002 87.7807C39.9368 87.6379 40.4515 88.7539 41.4491 89.0407C42.5559 89.3587 44.2718 88.6531 45.3362 88.3003ZM15.973 104.289C15.9684 105.082 16.0312 106.134 15.6182 106.818C15.0162 107.817 13.8477 107.538 13.0072 108.156C12.0731 108.844 11.5287 110.666 11.1314 111.742C10.4468 113.599 9.97453 114.129 11.2477 114.758C11.8439 115.054 12.0208 114.052 12.1522 113.634C12.4449 112.455 12.8466 111.308 13.3516 110.208C14.1973 108.408 16.6268 109.354 17.2811 107.358C17.5475 106.477 17.6689 105.556 17.64 104.634C17.6371 104.316 17.64 103.998 17.6232 103.68C17.6156 103.545 17.4923 102.6 17.437 102.72C15.8166 102.096 15.9771 103.635 15.973 104.289ZM52.5806 87.9979C52.2106 88.5655 53.1384 88.8979 53.5269 89.0779C54.6099 89.5603 55.6515 90.1357 56.6404 90.7993C56.9391 91.0429 57.1813 91.3519 57.3494 91.7041C57.5175 92.0563 57.6074 92.4433 57.6124 92.8357C56.641 93.1513 55.6498 93.3985 54.646 93.5755C51.3702 94.3447 48.0426 95.0449 44.7045 94.9657C41.7637 94.8961 38.8532 94.2727 35.9252 94.0333L35.9083 94.2163C35.9804 94.2685 35.9176 94.6825 35.913 94.7479C35.6913 97.5679 33.9755 100.53 33.1624 103.339C32.8291 104.49 33.7609 104.743 34.1296 105.662C34.3908 106.312 33.9441 106.802 33.8173 107.402C33.7079 108.091 33.7923 108.276 33.5678 108.692C33.2052 109.275 32.7166 109.764 32.1404 110.121L31.5704 109.345C30.9701 108.364 29.4113 107.596 28.4819 107.061C26.8009 106.093 26.3571 105.54 25.5736 106.743C25.2026 107.314 26.1314 107.643 26.52 107.828C27.6006 108.313 28.6408 108.889 29.63 109.549C29.8405 109.697 30.0199 109.887 30.1576 110.107L30.5549 110.992C29.5916 111.441 28.5941 111.813 27.863 112.165C22.3077 114.847 15.6979 117.6 9.45105 117.378C8.45667 117.349 7.47282 117.16 6.53585 116.815C3.14544 115.543 2.47132 111.469 3.14312 107.768C3.53863 105.593 4.67866 103.619 5.01892 101.453C5.23122 100.102 4.34537 98.9893 4.85024 97.6219C5.10582 96.9409 5.43913 96.2941 5.84311 95.6947C7.21695 96.8947 8.5367 96.2575 10.7185 95.5291C12.5489 94.9183 13.2445 94.9627 12.924 93.5491C12.7717 92.8783 11.9021 93.3565 11.513 93.5233C10.4323 94.0147 9.31279 94.4095 8.16678 94.7041C7.64964 94.8187 7.10947 94.7239 6.65857 94.4383C7.96268 92.3233 8.95898 90.0229 9.61565 87.6097C10.423 84.7105 10.9534 79.0093 12.3663 76.5871C12.6878 76.7419 13.0439 76.8037 13.3969 76.7671C14.1531 76.6201 14.8409 76.2193 15.353 75.6271C16.5887 74.2339 17.3201 72.4435 17.4236 70.5583C17.427 70.525 17.4284 70.4916 17.4277 70.4581H17.4527C17.5621 70.408 17.6668 70.3478 17.7657 70.2781C18.5833 69.8703 19.4521 69.5826 20.347 69.4231C22.3434 69.0813 24.389 69.211 26.3298 69.8023C27.2847 70.0809 28.1627 70.5872 28.8931 71.2801C29.3796 71.8529 29.9109 72.3835 30.4816 72.8665C32.3859 74.1517 34.7154 74.3563 36.54 75.8917C38.7153 77.7229 39.9007 80.5003 42.0156 82.3813C43.6116 83.8009 46.8217 83.0803 47.529 85.2265C47.5924 85.2175 47.7035 85.0957 47.782 85.0783C48.2799 85.0117 48.6673 85.1929 50.254 85.4485C52.9016 85.8757 55.7918 84.1765 58.1126 85.3525C59.6929 86.1529 59.79 88.5571 59.5533 90.3925C59.5178 90.9907 59.302 91.5625 58.9362 92.0281C58.9228 91.5847 58.8286 91.1485 58.657 90.7417C58.1289 89.6911 56.4601 88.8763 55.4841 88.3141C53.802 87.3481 53.3629 86.7931 52.5806 87.9979ZM29.0821 97.0201C29.5905 96.5767 28.7843 95.9935 28.4615 95.7091C27.5502 94.9375 26.7036 94.0873 25.9308 93.1687C24.6884 91.6351 26.5206 89.7379 25.0222 88.3003C24.3527 87.6895 23.5887 87.1993 22.762 86.8489C22.4799 86.7211 22.2007 86.5855 21.9128 86.4697C21.7906 86.4211 20.903 86.1517 20.9874 86.2519C19.7706 87.5161 21.1985 88.0003 21.7773 88.2739C22.47 88.6021 23.4268 88.9795 23.8601 89.6425C24.4999 90.6217 23.7688 91.6045 23.9701 92.6497C24.1952 93.8143 25.5841 95.0689 26.374 95.8897C27.731 97.2943 28.0119 97.9555 29.0821 97.0201ZM24.5406 76.4311C25.9407 74.7811 26.6258 74.4073 25.5335 73.3027C25.017 72.7807 24.4551 73.7359 24.1771 74.1223C23.4203 75.2167 22.5767 76.2445 21.6551 77.1949C20.1079 78.7291 17.9215 76.8805 16.5006 78.6895C15.9028 79.4911 15.4387 80.3893 15.1273 81.3481C15.011 81.6739 14.8906 82.0015 14.7894 82.3333C14.7469 82.4725 14.5276 83.4877 14.6288 83.3791C16.0911 84.6127 16.4901 82.9735 16.7332 82.3069C17.0322 81.4957 17.3585 80.3983 18.0384 79.8469C19.036 79.0411 20.1516 79.7527 21.2578 79.4269C22.488 79.0615 23.7263 77.3911 24.5406 76.4311Z" fill="#55C6F0"/>
<path d="M5.052 118.946C5.05607 118.933 6.72947 119.181 6.8551 119.216C8.90307 119.793 9.23984 121.888 10.666 123.248L10.6492 123.3C8.3889 122.607 6.11234 121.317 4.88623 119.04L5.052 118.946Z" fill="#B1F1FF"/>
<path d="M40.8113 109.96C42.081 110.181 47.2349 111.195 49.7558 111.848C51.3658 112.265 53.1293 112.725 54.1577 114.188C55.1284 115.568 55.1436 117.571 54.8975 119.196C54.2577 123.415 48.6576 123.184 45.4801 123.456C43.6002 123.619 32.0936 124.129 26.5906 124.214V124.109C27.0129 122.762 26.6924 120.295 25.2005 119.759C23.3759 119.105 19.8092 120.032 18.0463 120.697C16.9476 121.109 17.5984 122.793 18.1946 124.048L18.1899 124.168C14.7943 124.053 12.9232 123.985 10.653 123.301L10.6699 123.248C9.24193 121.889 8.9069 119.794 6.85893 119.217C6.73271 119.182 5.05932 118.934 5.05583 118.947L4.89065 119.043C4.21904 117.758 3.9033 116.308 3.97805 114.851L4.05831 114.808C4.65808 115.731 5.52646 116.434 6.53845 116.816C7.47542 117.161 8.45927 117.35 9.45365 117.379C15.7005 117.601 22.308 114.848 27.8656 112.166C29.7926 111.236 32.4135 110.552 33.5692 108.693C33.6675 108.512 33.7269 108.311 33.7437 108.104L33.8496 108.122C35.1338 107.651 36.6257 108.338 37.5924 108.836C37.821 108.956 38.0141 109.065 38.1741 109.141C39.0148 109.531 39.9014 109.807 40.8113 109.96Z" fill="white"/>
<path d="M27.7268 35.673C28.0524 35.6066 28.3727 35.5156 28.6854 35.4007C29.3083 35.2375 29.965 35.1204 30.6048 34.9806C32.4882 34.548 34.4104 34.3211 36.3398 34.3039C36.417 34.3039 36.4909 34.2722 36.5454 34.216C36.6 34.1597 36.6306 34.0834 36.6306 34.0039C36.6306 33.9242 36.6 33.848 36.5454 33.7917C36.4909 33.7354 36.417 33.7039 36.3398 33.7039C34.3694 33.7214 32.4062 33.9526 30.4827 34.3938C29.5301 34.5715 28.5876 34.8025 27.6594 35.0856C27.5935 35.1056 27.5366 35.1491 27.4988 35.2082C27.461 35.2673 27.4446 35.3384 27.4527 35.4087C27.4608 35.4791 27.4927 35.5442 27.5429 35.5926C27.5931 35.641 27.6583 35.6695 27.7268 35.673Z" fill="#000001"/>
<path d="M26.3176 33.4611C26.3741 33.4814 26.4349 33.4855 26.4935 33.4729C26.5521 33.4603 26.6063 33.4316 26.6503 33.3897C26.8317 33.2925 28.5115 32.9661 28.9286 32.8959C30.643 32.5724 32.3849 32.4295 34.1273 32.4693C34.2044 32.4701 34.2788 32.4394 34.3339 32.3837C34.389 32.3281 34.4204 32.2522 34.4213 32.1726C34.4222 32.093 34.3924 32.0164 34.3384 31.9595C34.2845 31.9026 34.2108 31.8701 34.1337 31.8693C31.773 31.8275 29.4164 32.0895 27.1185 32.6493C26.8314 32.6858 26.5528 32.7742 26.2955 32.9103C26.2442 32.9357 26.2012 32.976 26.1719 33.0263C26.1427 33.0766 26.1283 33.1346 26.1306 33.1932C26.133 33.2518 26.152 33.3085 26.1852 33.356C26.2184 33.4037 26.2644 33.4402 26.3176 33.4611Z" fill="#000001"/>
<path d="M25.9057 30.3039C25.5791 30.3297 25.2547 30.3793 24.9349 30.4521C24.8806 30.4457 24.8257 30.4543 24.7756 30.4771C24.7257 30.4998 24.6825 30.536 24.6505 30.5816C24.6185 30.6273 24.5989 30.681 24.5937 30.7371C24.5885 30.7932 24.5978 30.8497 24.6208 30.9009C24.7191 31.1013 24.8994 31.0809 25.0954 31.0287C25.2914 30.9765 27.1893 30.7425 27.4947 30.7101C29.2296 30.4723 30.9797 30.372 32.7295 30.4101C32.8061 30.4095 32.8796 30.3788 32.9348 30.3241C32.9901 30.2694 33.023 30.195 33.0267 30.1161C33.0275 30.0767 33.0207 30.0375 33.0068 30.0008C32.9929 29.9641 32.9722 29.9306 32.9457 29.9022C32.9192 29.8737 32.8876 29.851 32.8526 29.8352C32.8176 29.8194 32.7799 29.8109 32.7417 29.8101C30.4537 29.7801 28.1673 29.9453 25.9057 30.3039Z" fill="#000001"/>
<path d="M23.5524 29.1002C26.0715 28.585 28.6353 28.3383 31.2033 28.364C31.2804 28.3653 31.3549 28.3349 31.4103 28.2795C31.4657 28.2242 31.4976 28.1484 31.4988 28.0688C31.5 27.9892 31.4706 27.9124 31.4169 27.8553C31.3632 27.7981 31.2897 27.7653 31.2126 27.764C28.6213 27.7211 26.0332 27.97 23.4942 28.5062C23.4235 28.521 23.3607 28.5624 23.3179 28.6223C23.2751 28.6822 23.2555 28.7563 23.2627 28.8304C23.27 28.9044 23.3036 28.973 23.3572 29.0229C23.4107 29.0727 23.4802 29.1003 23.5524 29.1002Z" fill="#000001"/>
<path d="M39.1605 32.2359C39.1348 32.2659 39.115 32.301 39.1026 32.339C39.0902 32.377 39.0853 32.4172 39.0882 32.4572C39.0911 32.4972 39.1018 32.5362 39.1196 32.5719C39.1373 32.6076 39.1619 32.6393 39.1917 32.665C39.2215 32.6907 39.2561 32.71 39.2933 32.7218C39.3305 32.7335 39.3696 32.7374 39.4083 32.7332C39.447 32.729 39.4845 32.7169 39.5185 32.6976C39.5526 32.6782 39.5826 32.652 39.6066 32.6205C40.9287 30.9867 43.2634 29.6595 45.0584 28.6005C45.1253 28.5607 45.1743 28.4951 45.1943 28.4181C45.2144 28.3412 45.204 28.2591 45.1654 28.1901C45.1269 28.121 45.0633 28.0706 44.9887 28.0499C44.914 28.0292 44.8345 28.0399 44.7676 28.0797C42.904 29.1807 40.5477 30.5211 39.1605 32.2359Z" fill="#000001"/>
<path d="M72.4891 70.1042L61.7496 69.6242C61.6728 69.6217 61.5984 69.6503 61.5414 69.7039C61.485 69.7575 61.4507 69.8318 61.4466 69.911C61.4431 69.9905 61.4704 70.0681 61.5228 70.1267C61.5751 70.1853 61.6478 70.2202 61.7246 70.2236L72.4769 70.7036C72.5543 70.7053 72.6287 70.6753 72.6845 70.6202C72.7398 70.5651 72.7724 70.4894 72.7741 70.4099C72.7753 70.3303 72.7462 70.2533 72.6927 70.1959C72.6397 70.1384 72.5665 70.1059 72.4891 70.1042Z" fill="#000001"/>
<path d="M60.2456 69.4589L53.4264 69.1542C53.3496 69.1518 53.2749 69.1805 53.2184 69.234C53.1618 69.2876 53.1277 69.3618 53.1233 69.4409C53.12 69.5204 53.1475 69.598 53.1996 69.6566C53.2517 69.7152 53.3243 69.7501 53.4013 69.7535L60.2333 70.0583C60.2717 70.0592 60.3095 70.0523 60.345 70.0379C60.3805 70.0236 60.4131 70.0022 60.441 69.9749C60.4683 69.9477 60.4904 69.915 60.5055 69.879C60.5213 69.8429 60.5294 69.804 60.5306 69.7646C60.5311 69.7253 60.5242 69.6861 60.5102 69.6494C60.4968 69.6126 60.4759 69.5791 60.4491 69.5507C60.423 69.5222 60.3915 69.4994 60.3566 69.4836C60.3212 69.4677 60.2839 69.4598 60.2456 69.4589Z" fill="#000001"/>
<path d="M72.3839 66.1841C72.4613 66.1875 72.5363 66.1592 72.5933 66.1053C72.6503 66.0515 72.6841 65.9765 72.687 65.897C72.6905 65.8174 72.6631 65.7397 72.6108 65.681C72.559 65.6224 72.4863 65.5875 72.4089 65.5841L64.6568 65.2403C64.6184 65.2385 64.5806 65.2447 64.5445 65.2582C64.5085 65.2717 64.4759 65.2924 64.4474 65.319C64.4195 65.3456 64.3968 65.3778 64.3805 65.4136C64.3642 65.4493 64.3549 65.488 64.3532 65.5274C64.352 65.5667 64.3578 65.6061 64.3706 65.6431C64.384 65.6802 64.4038 65.7142 64.43 65.7433C64.4817 65.8019 64.5544 65.8369 64.6318 65.8403L72.3839 66.1841Z" fill="#000001"/>
<path d="M53.8791 65.3126L63.4181 65.7326C63.4954 65.7343 63.5699 65.7042 63.6257 65.6492C63.681 65.5941 63.7135 65.5185 63.7153 65.4389C63.7164 65.3594 63.6874 65.2824 63.6339 65.2249C63.5809 65.1675 63.5076 65.1343 63.4303 65.1326L53.9029 64.7126C53.8647 64.7104 53.8264 64.7162 53.7903 64.7295C53.7542 64.7428 53.7211 64.7634 53.6929 64.7901C53.6646 64.8168 53.6418 64.8491 53.6259 64.8851C53.6099 64.921 53.6011 64.9599 53.5999 64.9994C53.5982 65.0389 53.604 65.0784 53.6172 65.1155C53.6303 65.1527 53.6504 65.1868 53.6763 65.2159C53.7023 65.245 53.7336 65.2685 53.7684 65.2851C53.8032 65.3017 53.8408 65.3111 53.8791 65.3126Z" fill="#000001"/>
<path d="M72.5654 67.7032L53.6969 66.8632C53.6201 66.8608 53.5455 66.8895 53.4889 66.9431C53.4323 66.9967 53.3982 67.0709 53.3938 67.15C53.3905 67.2295 53.418 67.3071 53.4701 67.3657C53.5223 67.4243 53.5948 67.4592 53.6719 67.4626L72.5532 68.3026C72.6305 68.3043 72.705 68.2743 72.7608 68.2192C72.8161 68.1641 72.8487 68.0884 72.8504 68.0089C72.8516 67.9293 72.8225 67.8523 72.769 67.7949C72.7161 67.7374 72.6428 67.7049 72.5654 67.7032Z" fill="#000001"/>
<path d="M72.9161 49.2288H54.0267C53.9495 49.2288 53.8756 49.2603 53.821 49.3166C53.7665 49.3729 53.7358 49.4491 53.7358 49.5288V62.1605C53.7358 62.2401 53.7665 62.3164 53.821 62.3727C53.8756 62.4289 53.9495 62.4605 54.0267 62.4605H72.9161C72.9935 62.4605 73.0674 62.4289 73.122 62.3727C73.1761 62.3164 73.207 62.2401 73.207 62.1605V49.5288C73.207 49.4491 73.1761 49.3729 73.122 49.3166C73.0674 49.2603 72.9935 49.2288 72.9161 49.2288ZM72.6253 52.5371H69.8666L69.8416 49.8288H72.6253V52.5371ZM62.9287 52.5443H60.27L60.2462 49.8288H62.9049L62.9287 52.5443ZM63.4865 49.8288H65.9004V52.5414H63.5104L63.4865 49.8288ZM59.6884 52.5461H57.0884V49.8288H59.6645L59.6884 52.5461ZM57.0937 53.1461H59.6936L59.7704 61.8611H57.0948L57.0937 53.1461ZM60.2753 53.1461H62.934L63.0107 61.8636H60.3526L60.2753 53.1461ZM63.5156 53.1431H65.9166V61.8605H63.5901L63.5156 53.1431ZM66.4983 53.1431H69.2902L69.3704 61.866H66.4977L66.4983 53.1431ZM66.4936 52.5431L66.4704 49.8324H69.2623L69.2873 52.5431H66.4936ZM56.4952 49.8288V52.548H54.3175V49.8288H56.4952ZM54.3175 53.1492H56.5487V61.8605H54.3175V53.1492ZM69.9527 61.8605L69.8724 53.1353H72.6253V61.8605H69.9527Z" fill="#000001"/>
<path d="M51.2832 72.3732C87.2928 74.2332 84.9313 74.1432 85.0692 74.0076C85.132 73.953 85.1715 73.875 85.1785 73.791V47.5894C85.1803 47.5514 85.175 47.5134 85.1622 47.4775C85.15 47.4417 85.1308 47.4089 85.1058 47.3809C85.0802 47.3529 85.05 47.3304 85.0168 47.3147C84.9831 47.299 84.9464 47.2904 84.9098 47.2894L51.8637 46.8838C51.7876 46.8838 51.7146 46.9145 51.6603 46.9693C51.6059 47.0242 51.5745 47.0988 51.5728 47.1772L51.0069 72.0672C51.0053 72.1452 51.0333 72.2208 51.0848 72.2778C51.1364 72.3348 51.2076 72.369 51.2832 72.3732ZM75.7512 61.117L84.5922 61.597V67.2778C75.3604 66.778 75.6378 66.7864 75.5767 66.7978L75.7512 61.117ZM84.5992 60.997L75.7692 60.517L75.9286 55.333L84.5992 55.8004V60.997ZM75.3859 73.0074L75.5604 67.3846C75.6186 67.4002 75.1178 67.3666 84.5841 67.879V73.4778L75.3859 73.0074ZM84.6097 55.2004L75.9472 54.7319L76.1607 47.7802L84.6097 47.884V55.2004ZM52.1481 47.4868L75.5791 47.7748L74.8055 72.975L51.5949 71.788L52.1481 47.4868Z" fill="#000001"/>
<path d="M39.1598 35.8804C39.2147 35.8802 39.2683 35.8639 39.3146 35.8335C39.3608 35.8032 39.3978 35.7599 39.4213 35.7088C39.4448 35.6577 39.4538 35.6008 39.4472 35.5447C39.4407 35.4885 39.4189 35.4353 39.3843 35.3914L32.3121 26.4514C32.2886 26.4192 32.2589 26.3922 32.225 26.372C32.1911 26.3519 32.1536 26.339 32.1147 26.3342C32.0758 26.3294 32.0365 26.3327 31.9988 26.3439C31.9613 26.3552 31.9263 26.3741 31.8959 26.3996C31.8656 26.4252 31.8406 26.4567 31.8224 26.4925C31.8042 26.5283 31.7932 26.5674 31.79 26.6076C31.7868 26.6479 31.7916 26.6884 31.8039 26.7267C31.8163 26.765 31.836 26.8004 31.8619 26.8306L38.9341 35.7706C38.9615 35.805 38.996 35.8328 39.035 35.8517C39.074 35.8707 39.1167 35.8805 39.1598 35.8804Z" fill="#000001"/>
<path d="M37.017 29.237C37.0751 29.291 37.1403 29.3228 39.0108 30.5114C39.0603 30.5429 39.1178 30.5584 39.1759 30.5558C39.234 30.5533 39.29 30.5328 39.3367 30.4971C39.3834 30.4614 39.4187 30.412 39.4379 30.3555C39.4572 30.2989 39.4596 30.2376 39.4447 30.1796L39.0958 28.808C40.2958 27.8798 41.5719 27.0611 42.9096 26.3612C42.9453 26.3445 42.9774 26.3204 43.0038 26.2906C43.0303 26.2607 43.0506 26.2256 43.0636 26.1874C43.0766 26.1492 43.082 26.1087 43.0794 26.0683C43.0768 26.028 43.0663 25.9885 43.0486 25.9524C43.0308 25.9163 43.0062 25.8843 42.9761 25.8583C42.946 25.8323 42.9112 25.8128 42.8737 25.801C42.8361 25.7893 42.7966 25.7855 42.7576 25.7899C42.7186 25.7943 42.6809 25.8068 42.6467 25.8266C41.3488 26.505 40.1076 27.2931 38.9358 28.1828C38.8486 27.8426 38.852 27.833 38.8113 27.773L37.6085 26.1374C38.7167 25.4421 39.9057 24.8942 41.1472 24.5066C41.1846 24.496 41.2196 24.4778 41.2501 24.453C41.2806 24.4282 41.3059 24.3975 41.3247 24.3624C41.3435 24.3274 41.3553 24.2888 41.3593 24.249C41.3635 24.2092 41.3598 24.1689 41.3486 24.1306C41.3374 24.0923 41.3188 24.0567 41.294 24.0259C41.2692 23.995 41.2388 23.9697 41.2043 23.9512C41.1699 23.9327 41.1323 23.9215 41.0936 23.9183C41.0549 23.9151 41.016 23.9199 40.9791 23.9324C39.6718 24.3405 38.4206 24.9202 37.2566 25.6574C37.2566 25.6574 33.4928 20.5418 32.9693 19.8326C32.8189 19.6299 32.5966 19.4971 32.3514 19.4633C32.1061 19.4295 31.8578 19.4976 31.6612 19.6526C31.5739 19.721 31.4832 19.7888 31.3861 19.862C31.1725 20.0313 31.0325 20.2808 30.9968 20.5561C30.9611 20.8314 31.0324 21.1102 31.1953 21.3314C31.2244 21.3734 36.9762 29.1992 37.017 29.237ZM37.7248 28.988L38.4019 28.4564L38.6962 29.606L37.7248 28.988ZM31.7292 20.3402C32.0055 20.1332 32.0695 20.0528 32.2213 20.0528C32.2757 20.0524 32.3295 20.0653 32.3782 20.0901C32.427 20.115 32.4695 20.1514 32.5022 20.1962C33.0257 20.9054 38.1651 27.8888 38.1651 27.8888L37.2671 28.5932C37.2671 28.5932 32.1754 21.677 31.6548 20.9654C31.5851 20.872 31.5539 20.7541 31.5678 20.6371C31.5817 20.5201 31.6397 20.4135 31.7292 20.3402Z" fill="#000001"/>
<path d="M89.0038 106.753C88.998 106.713 88.984 106.676 88.9637 106.642C88.9433 106.608 88.9171 106.579 88.8857 106.556C88.8543 106.532 88.8188 106.516 88.781 106.507C88.7432 106.499 88.7048 106.498 88.6664 106.504C88.6286 106.511 88.5926 106.526 88.56 106.547C88.5274 106.568 88.4995 106.597 88.4774 106.629C88.4559 106.662 88.4402 106.699 88.432 106.738C88.4239 106.777 88.4239 106.817 88.4309 106.856L90.7365 120.462C90.7423 120.501 90.7563 120.539 90.7767 120.572C90.797 120.606 90.8232 120.635 90.8546 120.659C90.886 120.682 90.9215 120.698 90.9593 120.707C90.9971 120.716 91.0355 120.717 91.0739 120.71C91.1117 120.703 91.1477 120.689 91.1803 120.667C91.2129 120.646 91.2408 120.618 91.2629 120.585C91.2844 120.553 91.3001 120.515 91.3083 120.477C91.3164 120.438 91.3164 120.398 91.3094 120.359L89.0038 106.753Z" fill="#000001"/>
<path d="M100.295 104.212C100.291 104.173 100.279 104.135 100.26 104.099C100.241 104.065 100.216 104.034 100.186 104.009C100.156 103.985 100.121 103.966 100.084 103.956C100.046 103.945 100.007 103.942 99.969 103.947C99.9306 103.952 99.894 103.965 99.8602 103.985C99.8271 104.005 99.7974 104.031 99.7741 104.063C99.7509 104.095 99.734 104.131 99.7241 104.17C99.7142 104.208 99.7125 104.248 99.7177 104.287L101.179 116.268C101.19 116.346 101.231 116.416 101.291 116.464C101.352 116.512 101.428 116.533 101.503 116.523C101.579 116.513 101.648 116.473 101.695 116.411C101.742 116.35 101.765 116.272 101.756 116.193L100.295 104.212Z" fill="#000001"/>
<path d="M93.74 31.9617C93.9011 33.2697 93.7964 34.5978 93.4329 35.8617C93.4102 35.9378 93.4178 36.0201 93.4538 36.0905C93.4899 36.1608 93.5515 36.2136 93.6254 36.237C93.6987 36.2606 93.7784 36.2528 93.847 36.2156C93.9151 36.1785 93.9662 36.1148 93.9889 36.0387C94.5113 34.1112 94.524 32.0745 94.0256 30.1401C93.8924 29.2809 93.1566 29.8071 93.4439 30.1749C93.5824 30.7628 93.6812 31.3598 93.74 31.9617Z" fill="#000001"/>
<path d="M44.527 83.4816C44.527 83.5608 44.5577 83.637 44.6122 83.6934C44.6667 83.7498 44.7407 83.7816 44.8179 83.7816C49.3657 83.2422 53.9443 83.0286 58.5208 83.1414C58.2777 83.355 58.0798 83.6178 57.9383 83.913C57.7968 84.2082 57.7149 84.5298 57.6978 84.8592C55.3892 84.0792 52.6375 85.5192 50.3004 85.1508C49.1465 84.9618 48.053 84.6528 47.6685 84.7992C47.6124 84.6882 47.5478 84.5826 47.4754 84.483C47.4291 84.4194 47.3602 84.3768 47.2839 84.366C47.2075 84.3546 47.13 84.375 47.0682 84.423C47.0065 84.4704 46.9658 84.5418 46.9548 84.6204C46.9439 84.699 46.9638 84.7794 47.0101 84.843C47.5021 85.5234 47.4457 86.655 47.3009 87.4974C47.2937 87.5364 47.2942 87.5766 47.3022 87.615C47.3102 87.654 47.3256 87.6912 47.3475 87.7236C47.3695 87.7566 47.3975 87.7842 47.43 87.8058C47.4624 87.8268 47.4987 87.8418 47.5366 87.8484C47.5746 87.855 47.6135 87.8544 47.6511 87.8454C47.6886 87.8364 47.7242 87.8202 47.7555 87.7974C47.7869 87.774 47.8135 87.7446 47.8338 87.711C47.8541 87.6774 47.8677 87.6396 47.8738 87.6006C48.0134 86.8632 48.0134 86.1054 47.8738 85.3686C48.0142 85.3572 48.1554 85.365 48.2938 85.392C50.6512 85.806 50.7646 86.0376 53.6554 85.5186C55.1095 85.2576 56.6718 84.9786 57.9776 85.62C59.4456 86.3892 59.477 88.6842 59.2572 90.3768C59.2269 90.912 59.0332 91.4244 58.7046 91.8402C58.6558 91.902 58.6331 91.9812 58.6412 92.0604C58.6494 92.1396 58.6872 92.2122 58.7471 92.262C58.8076 92.3124 58.8843 92.3358 58.9605 92.3274C59.0373 92.319 59.1077 92.28 59.1566 92.2182C59.5201 91.7592 59.7498 91.2036 59.8196 90.6156C59.847 90.6456 59.8801 90.6702 59.9168 90.6864C59.9534 90.7032 59.993 90.7122 60.0331 90.7122C60.8206 90.5682 61.5902 90.3354 62.3283 90.018C62.3492 90.054 62.3771 90.0846 62.4109 90.1086C62.444 90.1332 62.4818 90.1494 62.5219 90.1578L76.977 92.994L63.7667 100.043L50.3179 94.7898C51.8121 94.533 53.2988 94.1982 54.6872 93.8724C55.7062 93.6936 56.7124 93.4446 57.699 93.1266C57.7725 93.1026 57.8339 93.0492 57.8696 92.979C57.9053 92.9082 57.9123 92.826 57.8892 92.7504C57.866 92.6742 57.8146 92.6112 57.7462 92.574C57.6778 92.5374 57.598 92.5302 57.5245 92.5542C56.5605 92.8656 55.5772 93.1098 54.5813 93.2844C52.9603 93.6648 51.2235 94.0536 49.5001 94.3182C42.557 95.4726 38.5233 93.3516 32.4963 93.678C32.4581 93.6798 32.4207 93.6894 32.3861 93.7068C32.3517 93.7236 32.3207 93.7476 32.2951 93.7764C32.2695 93.8058 32.2497 93.84 32.2369 93.8772C32.2242 93.9144 32.2186 93.954 32.2206 93.9936C32.2226 94.0326 32.2321 94.0716 32.2485 94.107C32.265 94.1424 32.2881 94.1748 32.3165 94.2012C32.3449 94.2276 32.3781 94.248 32.4141 94.2606C32.4501 94.2738 32.4883 94.2798 32.5266 94.278C38.4768 93.9498 42.3703 96.0372 49.3169 94.9554C49.3496 95.0214 49.4052 95.073 49.4728 95.1C64.7281 101.062 63.7097 100.672 63.7928 100.672C63.9034 100.672 62.9204 101.17 77.9995 93.129C78.053 93.1002 78.0966 93.0546 78.1246 92.9994C78.1519 92.9436 78.1618 92.8806 78.1531 92.8188C78.1443 92.757 78.1176 92.7 78.0757 92.655C78.0338 92.61 77.9791 92.5794 77.9198 92.568L63.06 89.652C63.5043 89.4204 63.8818 89.0724 64.1546 88.6434C64.4274 88.2144 64.5862 87.7188 64.6153 87.2064C64.6496 86.4264 64.175 85.9698 64.0738 85.4202C63.9336 84.7128 64.8468 84.1062 64.4228 82.9794C65.2446 82.896 66.5295 82.8816 67.4473 82.8774C67.5247 82.8774 67.5985 82.8456 67.6532 82.7892C67.7073 82.7328 67.7381 82.6566 67.7381 82.5774C67.7323 82.4994 67.6997 82.4268 67.6462 82.3722C67.5927 82.317 67.5223 82.2834 67.4473 82.2774C66.3259 82.2594 65.2045 82.3116 64.0895 82.434C63.8917 82.2144 63.6399 82.0548 63.3613 81.972C63.9365 81.192 64.4175 80.535 64.8858 79.965C66.4934 78.0072 67.1879 77.0352 67.1135 76.4982C67.0774 76.3482 66.9994 76.2126 66.8889 76.1082C66.779 76.0032 66.6412 75.9348 66.4934 75.9102C66.2067 75.9102 65.7216 76.1568 63.2729 79.1052C62.3387 80.2308 60.941 81.9804 60.7136 82.2102C60.4402 82.4046 60.1296 82.536 59.8022 82.5942C59.7679 82.5786 59.7306 82.5702 59.6934 82.5696C54.7266 82.4118 49.7553 82.617 44.8167 83.184C44.7402 83.184 44.6669 83.2152 44.6126 83.271C44.5584 83.3268 44.5276 83.4024 44.527 83.4816ZM66.4603 76.5294C66.4923 76.551 66.5283 76.5768 66.5341 76.5822C66.5562 76.7076 66.3759 77.208 64.8503 79.0776C62.3445 82.1472 62.3806 82.8906 61.3348 82.3968C62.0613 81.5406 65.6454 76.9806 66.4603 76.5294ZM60.8614 82.8222C61.8548 83.3814 62.4184 83.1222 62.9611 82.4844C62.9913 82.5006 63.0239 82.5114 63.0576 82.5168C63.1955 82.5384 63.3275 82.5882 63.4462 82.6632C63.5648 82.7382 63.6678 82.8372 63.7492 82.9542C63.8301 83.0706 63.8882 83.2026 63.9191 83.343C63.9505 83.4828 63.954 83.628 63.9301 83.7696C63.8434 84.2262 63.4136 84.765 63.4788 85.3896C63.5369 86.0586 64.0569 86.583 64.0307 87.1788C63.9918 88.1142 63.4409 88.8282 62.3544 89.3574C61.5489 89.6952 60.7189 89.9658 59.8714 90.1662C60.0703 88.353 59.9249 86.1462 58.4272 85.1928C58.4173 85.158 58.4016 85.1256 58.3806 85.0974C58.1567 84.7914 58.2777 84.3258 58.7802 83.7174C59.0216 83.4318 59.3584 83.2506 59.7231 83.2098C60.1244 83.1642 60.5124 83.0322 60.8614 82.8222Z" fill="#000001"/>
<path d="M49.207 74.4737L86.6846 76.5095C86.762 76.5113 86.8365 76.4819 86.8923 76.4267C86.9487 76.3721 86.9813 76.2965 86.983 76.2173C86.9848 76.1375 86.9563 76.0607 86.9033 76.0025C86.8498 75.9449 86.7771 75.9113 86.6998 75.9095L49.2378 73.8743C49.1996 73.8719 49.1614 73.8779 49.1253 73.8911C49.0892 73.9043 49.0561 73.9241 49.0277 73.9505C48.9992 73.9769 48.9761 74.0093 48.9596 74.0447C48.9431 74.0801 48.9336 74.1191 48.9316 74.1581C48.9295 74.1977 48.9351 74.2373 48.9478 74.2745C48.9605 74.3117 48.9802 74.3459 49.0058 74.3753C49.0314 74.4041 49.0623 74.4281 49.0969 74.4455C49.1314 74.4623 49.1688 74.4713 49.207 74.4737Z" fill="#000001"/>
<path d="M66.0223 79.0901C65.9851 79.0901 65.9484 79.0979 65.9141 79.1129C65.8798 79.1279 65.849 79.1501 65.8228 79.1777C65.7972 79.2047 65.7768 79.2377 65.7635 79.2731C65.7495 79.3091 65.7431 79.3469 65.7443 79.3853C65.746 79.4657 65.7774 79.5419 65.8321 79.5989C65.8868 79.6553 65.9612 79.6883 66.0386 79.6901C67.0175 79.7231 74.6417 79.9901 74.6417 79.9901C74.719 79.9919 74.7935 79.9613 74.8488 79.9061C74.904 79.8503 74.936 79.7747 74.9372 79.6949C74.9383 79.6157 74.9087 79.5389 74.8552 79.4813C74.8016 79.4243 74.7284 79.3919 74.651 79.3901C66.8715 79.1195 66.7057 79.1015 66.0223 79.0901Z" fill="#000001"/>
<path d="M89.4421 94.1124C90.1535 94.5924 93.598 94.86 94.7351 94.86C95.4098 94.86 96.0834 94.8264 96.7552 94.7592C96.793 94.7556 96.8302 94.7436 96.8639 94.725C96.8971 94.7064 96.9273 94.6812 96.9512 94.6506C96.9756 94.62 96.9936 94.5852 97.0047 94.5474C97.0157 94.5096 97.0192 94.47 97.0151 94.431C97.0117 94.392 97.0006 94.3536 96.982 94.3188C96.964 94.284 96.9395 94.2534 96.9099 94.2288C96.8808 94.2036 96.8465 94.185 96.8098 94.1736C96.7732 94.1622 96.7348 94.1586 96.697 94.1622C94.3896 94.38 92.0636 94.2048 89.8115 93.6438C89.6981 93.5838 89.4991 93.3822 89.288 93.5706C89.2461 93.6108 89.2153 93.6618 89.2002 93.7182C89.185 93.7752 89.185 93.8346 89.2013 93.891C89.2176 93.948 89.2484 93.9984 89.2909 94.0374C89.3334 94.0764 89.3857 94.1028 89.4421 94.1124Z" fill="#000001"/>
<path d="M113.712 70.3513C113.691 69.6019 113.661 68.5435 113.648 68.0443C113.644 67.7953 113.564 67.5538 113.421 67.3537C111.768 65.0395 98.3957 46.6591 97.4424 45.3493C97.3993 44.5933 97.0998 39.2821 97.123 36.9685C97.1259 36.8095 97.0788 36.6539 96.9898 36.5243C96.9003 36.3947 96.7735 36.298 96.6269 36.2482C96.4803 36.1986 96.3227 36.1985 96.1761 36.2481C96.0295 36.2977 95.9027 36.3943 95.8132 36.5239C95.3612 37.1725 95.342 37.1749 95.3478 37.3075C95.598 46.2757 95.5741 45.7675 95.6521 45.8809L111.112 67.9879L111.147 70.8619C109.646 71.9257 95.4043 82.0218 92.4181 84.1368C92.2419 84.2604 92.0953 84.4242 91.9906 84.6156C91.8859 84.807 91.826 85.0206 91.8149 85.2402C86.6476 83.7978 81.3541 82.887 76.0123 82.521C75.9739 82.518 75.9355 82.5228 75.8994 82.5354C75.8628 82.548 75.829 82.5672 75.8005 82.593C75.7714 82.6188 75.7476 82.6506 75.7301 82.686C75.7133 82.7208 75.7028 82.7592 75.6999 82.7988C75.697 82.8384 75.7017 82.878 75.7139 82.9152C75.7261 82.953 75.7447 82.9878 75.7697 83.0178C75.7947 83.0472 75.8255 83.0718 75.8593 83.0898C75.8936 83.1078 75.9308 83.118 75.9692 83.121C81.3442 83.4888 86.6697 84.4122 91.8655 85.8774C91.9574 86.7084 92.4297 90.8664 92.4297 90.8664C92.4629 91.059 92.5344 91.242 92.6403 91.4034C92.7467 91.5654 92.8846 91.7022 93.0451 91.8054C93.2057 91.9086 93.3854 91.9758 93.5732 92.0028C93.7605 92.0292 93.9513 92.0154 94.1334 91.9608C94.4847 91.8978 94.8028 91.7082 95.0309 91.4256C95.2589 91.1424 95.3822 90.7854 95.3781 90.4176L95.3199 86.8884C97.2999 87.5928 99.228 88.4418 101.09 89.4294C102.887 90.3942 107.658 92.9574 106.849 95.8434C106.391 97.4712 104.333 98.271 102.783 98.8248C98.8017 100.245 94.5045 100.797 90.0834 101.282C79.1252 102.482 68.0693 102.044 58.699 101.455C55.1731 101.233 43.0388 100.378 34.9278 98.6796C34.8903 98.6718 34.8518 98.6718 34.8143 98.679C34.7768 98.6868 34.7411 98.7018 34.7092 98.7234C34.6773 98.745 34.6499 98.7732 34.6286 98.8056C34.6072 98.8386 34.5922 98.8752 34.5846 98.9136C34.577 98.952 34.5768 98.9922 34.584 99.0306C34.5913 99.0696 34.6059 99.1062 34.627 99.1392C34.648 99.1722 34.6752 99.2004 34.7068 99.2226C34.7385 99.2442 34.774 99.2598 34.8115 99.2676C42.9591 100.973 55.1277 101.831 58.663 102.053C69.1076 102.71 79.6859 103.025 90.1445 101.878C94.5999 101.39 98.9337 100.833 102.973 99.3924C104.174 99.0306 105.302 98.451 106.305 97.6794C104.35 101.147 95.9336 102.505 92.243 103.127C87.3962 103.945 69.3931 104.719 57.0576 103.721C49.6393 103.121 41.4538 102.461 34.2275 100.553C34.19 100.541 34.1506 100.538 34.1118 100.543C34.0728 100.547 34.0353 100.559 34.0012 100.579C33.9672 100.599 33.9374 100.626 33.9136 100.658C33.8898 100.69 33.8726 100.727 33.8629 100.766C33.8532 100.805 33.8512 100.846 33.857 100.886C33.863 100.925 33.8767 100.964 33.8972 100.998C33.9178 101.033 33.9449 101.062 33.9768 101.086C34.0088 101.109 34.045 101.125 34.0833 101.134C35.2622 101.446 36.5302 101.739 37.8552 102.007L37.3486 108.381C36.4907 107.961 35.0278 107.37 33.7494 107.841C33.6959 107.861 33.6492 107.896 33.615 107.943C33.5808 107.989 33.5606 108.046 33.5569 108.104C33.2107 108.833 32.6665 109.444 31.9905 109.86C31.9562 109.88 31.9262 109.906 31.902 109.937C31.8779 109.969 31.8602 110.006 31.85 110.045C31.8398 110.084 31.8373 110.124 31.8428 110.164C31.8482 110.204 31.8613 110.243 31.8814 110.277C31.9015 110.312 31.9281 110.342 31.9598 110.366C31.9914 110.389 32.0273 110.406 32.0654 110.415C32.1035 110.424 32.143 110.425 32.1814 110.418C32.22 110.411 32.2567 110.396 32.2895 110.374C33.065 109.896 33.688 109.194 34.0815 108.355C35.3128 107.998 36.8083 108.765 37.4603 109.1C37.4603 109.1 37.9553 109.362 38.0559 109.411C41.7528 111.091 51.8525 111.404 53.9243 114.359C54.8834 115.722 54.8276 117.714 54.6124 119.144C54.0174 123.05 48.7547 122.864 45.4585 123.154C43.8363 123.291 42.6485 123.323 39.1185 123.478C31.8003 123.802 21.9769 124.24 14.3108 123.668C14.2975 123.637 14.2791 123.608 14.2567 123.584C13.344 122.575 12.6541 121.375 12.2344 120.065C12.2228 120.027 12.2041 119.992 12.1793 119.962C12.1544 119.931 12.124 119.906 12.0898 119.888C12.0555 119.87 12.0181 119.859 11.9798 119.856C11.9414 119.853 11.9028 119.858 11.8662 119.87C11.8297 119.882 11.7958 119.902 11.7667 119.928C11.7376 119.954 11.7137 119.986 11.6966 120.021C11.6794 120.057 11.6693 120.095 11.6667 120.135C11.6642 120.175 11.6694 120.215 11.6818 120.252C12.073 121.472 12.6848 122.603 13.4849 123.587C8.69913 123 4.44847 120.535 4.2606 115.569C4.85194 116.257 5.59968 116.782 6.43653 117.097C7.40003 117.455 8.41331 117.651 9.43724 117.676C15.7277 117.964 22.2509 115.202 27.9853 112.436C28.5838 112.147 29.8413 111.653 30.6731 111.265C30.7079 111.249 30.7393 111.226 30.7655 111.197C30.7917 111.169 30.8121 111.135 30.8256 111.098C30.8391 111.061 30.8455 111.022 30.8443 110.983C30.8431 110.943 30.8345 110.905 30.8188 110.869C30.8031 110.833 30.7807 110.8 30.7528 110.773C30.725 110.746 30.6923 110.725 30.6566 110.711C30.6208 110.697 30.5828 110.69 30.5446 110.692C30.5064 110.693 30.4689 110.702 30.434 110.718C29.6197 111.098 28.4058 111.571 27.7387 111.892C21.817 114.749 15.5044 117.359 9.45701 117.077C8.49427 117.053 7.54148 116.869 6.63546 116.533C3.37359 115.295 2.79195 111.334 3.42769 107.82C3.81913 105.676 4.95625 103.706 5.30523 101.497C5.52451 100.096 4.67648 98.9694 5.11969 97.7286C5.37065 97.071 5.69341 96.4446 6.08173 95.862C6.10337 95.8296 6.11861 95.793 6.12657 95.7546C6.13454 95.7162 6.13507 95.676 6.12814 95.6376C6.12122 95.5986 6.10691 95.562 6.08615 95.5284C6.06533 95.4954 6.03846 95.4672 6.00699 95.445C5.97552 95.4222 5.9401 95.4066 5.90276 95.3988C5.86536 95.3904 5.82679 95.3898 5.78924 95.397C5.75168 95.4042 5.71585 95.4186 5.6838 95.4402C5.65175 95.4618 5.62411 95.4894 5.60245 95.5218C5.18819 96.144 4.84397 96.8124 4.57643 97.515C4.04597 99.0006 4.93124 100.12 4.73115 101.401C4.40485 103.466 3.25087 105.55 2.85651 107.709C2.55813 109.359 2.28301 112.43 3.69233 114.776C3.68812 114.794 3.68539 114.812 3.68419 114.83C3.60632 116.344 3.93457 117.851 4.63285 119.185C5.72169 121.207 7.77373 122.728 10.5685 123.585C12.7648 124.245 14.5068 124.34 18.1776 124.464C26.2188 124.741 35.1035 124.241 42.7079 123.924C44.8309 123.834 45.0054 123.775 46.7602 123.665C50.0622 123.46 54.5845 123.179 55.1847 119.238C55.4174 117.696 55.468 115.537 54.3937 114.008C53.3054 112.457 51.4605 111.978 49.826 111.553C46.8765 110.791 43.92 110.266 41.1531 109.718L42.4653 102.81C47.1226 103.519 52.5766 103.958 57.0099 104.317C69.5007 105.326 87.4131 104.551 92.8095 103.635C97.1579 102.898 106.506 101.27 107.239 96.762C107.251 96.6882 107.235 96.6126 107.196 96.5502C107.282 96.3762 107.352 96.1944 107.405 96.0072C108.348 92.6472 103.269 89.9208 101.356 88.8924C99.4048 87.8586 97.383 86.9748 95.3065 86.247C95.2955 85.4982 95.2839 84.888 95.2786 84.6114C96.7141 83.5806 109.817 74.1648 112.944 71.9203C113.187 71.7443 113.385 71.509 113.518 71.2352C113.653 70.9615 113.719 70.6578 113.712 70.3513ZM37.907 108.666L38.4276 102.12C39.5048 102.334 40.643 102.532 41.8895 102.724L40.5814 109.61C39.6513 109.427 38.751 109.109 37.907 108.666ZM112.612 71.4307C109.304 73.8054 94.8209 84.2106 94.8209 84.2106C94.7819 84.2388 94.7499 84.2766 94.7278 84.3204C94.7063 84.3648 94.6952 84.4134 94.6964 84.4626L94.7935 90.4572C94.7767 91.5252 93.1457 91.788 92.9939 90.717C92.9497 90.405 92.4076 85.497 92.3983 85.4136C92.3803 85.263 92.4036 85.11 92.4641 84.9714C92.5251 84.8334 92.6223 84.7146 92.7438 84.6294C95.8952 82.3938 111.6 71.2633 111.6 71.2633C111.639 71.2352 111.671 71.1977 111.693 71.1538C111.715 71.11 111.726 71.0612 111.725 71.0119C111.686 67.6129 111.71 67.8205 111.632 67.7119L96.1709 45.6049L95.9272 37.3903L96.2826 36.8743C96.2994 36.848 96.3239 36.8281 96.3529 36.8178C96.382 36.8074 96.4128 36.807 96.4419 36.8167C96.471 36.8265 96.4966 36.8458 96.514 36.8716C96.5309 36.8976 96.5396 36.9286 96.5385 36.9601C96.5135 39.4651 96.8607 45.4159 96.8642 45.4753C96.8677 45.534 96.888 45.5902 96.9224 45.6373C97.0654 45.8341 111.247 65.3239 112.951 67.7113C113.024 67.8113 113.065 67.9327 113.067 68.0581C113.08 68.5597 113.11 69.6181 113.13 70.3681C113.136 70.5756 113.091 70.7813 113.001 70.9667C112.91 71.1522 112.776 71.3116 112.612 71.4307Z" fill="#000001"/>
<path d="M77.9665 26.8326C78.0247 26.8447 78.0805 26.8695 78.1288 26.9052C78.9594 28.0604 79.5544 29.3767 79.8795 30.7752C79.6672 30.8686 79.4712 30.9964 79.2979 31.1538C78.9733 31.5253 78.7773 31.9973 78.7401 32.496C78.5325 34.095 79.078 36.3414 80.6805 36.6186C80.7648 38.1444 80.7753 39.6342 80.7782 41.1576C80.7782 41.2372 80.809 41.3134 80.8631 41.3697C80.9178 41.426 80.9916 41.4576 81.069 41.4576C81.1464 41.4576 81.2202 41.426 81.2749 41.3697C81.329 41.3134 81.3598 41.2372 81.3598 41.1576C81.3528 37.2888 81.2679 34.2732 80.5083 30.9336C80.1797 29.3334 79.5172 27.8262 78.5668 26.517C78.4342 26.3793 78.2649 26.2854 78.0805 26.247C78.0084 26.2393 77.9363 26.2596 77.8781 26.3038C77.8199 26.3481 77.7798 26.4132 77.7653 26.4863C77.7513 26.5595 77.7641 26.6355 77.8013 26.6995C77.8386 26.7636 77.8973 26.811 77.9665 26.8326ZM80.6467 35.9964C79.5032 35.6676 79.1647 33.7542 79.32 32.5566C79.3427 32.1981 79.4771 31.8567 79.7033 31.5834C79.7975 31.5013 79.9011 31.4308 80.011 31.3734C80.3396 32.8949 80.5519 34.4406 80.6467 35.9964Z" fill="#000001"/>
<path d="M96.2236 31.0043C96.447 30.9677 98.2594 30.7211 98.9062 30.6323C98.944 30.6273 98.9806 30.6146 99.0138 30.5951C99.0469 30.5755 99.076 30.5493 99.0993 30.5182C99.1225 30.487 99.14 30.4514 99.1499 30.4134C99.1597 30.3753 99.1627 30.3357 99.1574 30.2966C99.1528 30.2575 99.1406 30.2198 99.1214 30.1856C99.1028 30.1514 99.0772 30.1214 99.0469 30.0973C99.0167 30.0732 98.9823 30.0555 98.9457 30.0452C98.9085 30.0348 98.8701 30.0321 98.8323 30.0371L96.3597 30.3857C96.0538 30.4151 95.8688 30.4325 95.8112 30.6539C95.7955 30.7102 95.7961 30.7701 95.8124 30.8261C95.8293 30.8821 95.8618 30.9318 95.9054 30.9691C95.9497 31.0064 96.0032 31.0296 96.0596 31.0359C96.116 31.0421 96.173 31.0311 96.2236 31.0043Z" fill="#000001"/>
<path d="M99.0079 31.3037C98.7223 31.3571 96.4487 31.7651 96.4027 31.7693C96.3643 31.7701 96.3271 31.7786 96.2916 31.7945C96.2567 31.8103 96.2253 31.8331 96.1991 31.8616C96.1456 31.919 96.1165 31.996 96.1177 32.0756C96.1195 32.1551 96.152 32.2307 96.2073 32.2858C96.2631 32.3409 96.3376 32.371 96.4149 32.3693C96.5452 32.3693 99.0527 31.9049 99.1114 31.8935C99.1504 31.888 99.1876 31.8745 99.2214 31.8538C99.2551 31.833 99.2848 31.8054 99.308 31.7726C99.3307 31.7398 99.3476 31.7026 99.3563 31.663C99.365 31.6235 99.3656 31.5826 99.3586 31.5427C99.3517 31.5028 99.3371 31.4648 99.3156 31.4309C99.2935 31.3972 99.2656 31.3682 99.233 31.3459C99.1998 31.3235 99.1632 31.3082 99.1248 31.301C99.0858 31.2937 99.0463 31.2946 99.0079 31.3037Z" fill="#000001"/>
<path d="M98.6672 32.5801C98.4078 32.6533 97.0345 33.0415 96.6512 33.0877C96.4767 33.1087 96.2388 33.1363 96.215 33.3931C96.2115 33.4498 96.2231 33.5064 96.2481 33.5569C96.2731 33.6075 96.3103 33.6502 96.3569 33.6805C96.4034 33.7108 96.4575 33.7276 96.5122 33.7293C96.5674 33.7308 96.6215 33.7171 96.6698 33.6895C97.1828 33.6223 98.395 33.2773 98.8184 33.1597C98.855 33.1495 98.8899 33.1318 98.9202 33.1078C98.9504 33.0838 98.976 33.0538 98.9946 33.0197C99.0138 32.9856 99.026 32.9479 99.0313 32.9088C99.0359 32.8697 99.0336 32.83 99.0237 32.7919C99.0138 32.7539 98.997 32.7182 98.9731 32.6869C98.9498 32.6557 98.9213 32.6295 98.8882 32.6098C98.855 32.5902 98.8184 32.5774 98.7806 32.5723C98.7428 32.5672 98.7038 32.5699 98.6672 32.5801Z" fill="#000001"/>
<path d="M29.3214 84.3103C30.7505 81.6061 32.5461 78.6433 35.0326 77.1799C35.0996 77.1403 35.1486 77.0743 35.1687 76.9975C35.1888 76.9207 35.1785 76.8385 35.1399 76.7689C35.1014 76.6999 35.0377 76.6495 34.9631 76.6285C34.8884 76.6081 34.8088 76.6189 34.7418 76.6585C34.1379 77.0191 33.574 77.4463 33.0603 77.9335C31.8302 77.5129 30.6332 76.9951 29.4796 76.3861C29.1772 76.2403 28.3786 75.6439 28.0023 75.7543C27.9611 75.7573 27.921 75.7687 27.8846 75.7891C27.8482 75.8089 27.8164 75.8371 27.7912 75.8707C27.766 75.9043 27.7481 75.9433 27.7386 75.9847C27.7291 76.0261 27.7282 76.0687 27.7361 76.1107C27.744 76.1527 27.7603 76.1923 27.7842 76.2271C27.808 76.2619 27.8387 76.2907 27.8743 76.3123C27.9099 76.3339 27.9495 76.3471 27.9905 76.3519C28.0315 76.3567 28.073 76.3519 28.1122 76.3387C28.5017 76.5073 28.8785 76.7059 29.2394 76.9321C30.3231 77.4913 31.437 77.9857 32.5757 78.4129C31.0786 80.0959 29.8117 81.9823 28.8102 84.0199C28.4361 84.7075 28.1001 85.4167 27.8039 86.1439C27.6748 86.4439 27.4794 86.8999 27.7836 87.1159C27.8366 87.1537 27.9002 87.1717 27.9645 87.1681C28.0288 87.1645 28.09 87.1393 28.1387 87.0955C28.1875 87.0523 28.2208 86.9935 28.2335 86.9281C28.2463 86.8633 28.2378 86.7955 28.2093 86.7361C28.5189 85.8991 28.8907 85.0879 29.3214 84.3103Z" fill="#000001"/>
<path d="M10.6441 99.8454C15.4718 99.213 20.0412 97.6704 24.6304 96.3054C24.7045 96.2832 24.7671 96.2316 24.8044 96.162C24.8417 96.0924 24.8506 96.0102 24.8293 95.934C24.8079 95.8572 24.758 95.793 24.6904 95.7546C24.6229 95.7162 24.5433 95.7066 24.4692 95.7288C19.7544 97.1298 15.3752 98.6202 10.5679 99.2496C10.5299 99.2544 10.493 99.2664 10.4596 99.2862C10.4261 99.3054 10.3968 99.3318 10.3732 99.363C10.3495 99.3942 10.3321 99.4296 10.3219 99.468C10.3118 99.5058 10.309 99.546 10.3138 99.585C10.3187 99.6246 10.331 99.6624 10.3501 99.6966C10.3692 99.7308 10.3947 99.7614 10.4252 99.7854C10.4556 99.8094 10.4904 99.8268 10.5275 99.837C10.5645 99.8472 10.6032 99.8502 10.6412 99.8448L10.6441 99.8454Z" fill="#000001"/>
<path d="M11.4001 97.0319C13.1944 97.0889 14.9903 97.0055 16.7722 96.7811C16.8111 96.7769 16.8489 96.7655 16.8832 96.7463C16.9176 96.7271 16.9479 96.7007 16.9722 96.6695C16.9967 96.6377 17.0146 96.6017 17.0251 96.5627C17.0356 96.5237 17.0384 96.4835 17.0334 96.4433C17.0284 96.4037 17.0156 96.3647 16.9958 96.3299C16.976 96.2957 16.9496 96.2651 16.9182 96.2411C16.8868 96.2171 16.8511 96.1997 16.8131 96.1907C16.7751 96.1811 16.7357 96.1793 16.6972 96.1865C14.9446 96.4067 13.1782 96.4889 11.4135 96.4319C11.1884 96.4265 8.64664 96.4037 8.48494 96.4727C8.41729 96.4985 8.36116 96.5489 8.3272 96.6143C8.29323 96.6803 8.28381 96.7565 8.30062 96.8285C8.31748 96.9011 8.35942 96.9647 8.41857 97.0073C8.47773 97.0499 8.54997 97.0685 8.62162 97.0601C8.80019 97.0601 8.56172 96.9605 11.4001 97.0319Z" fill="#000001"/>
<path d="M6.49562 94.6896C6.52744 94.7112 6.56309 94.7268 6.60061 94.734C6.63812 94.7418 6.67674 94.7418 6.7142 94.734C6.75172 94.7262 6.78737 94.7112 6.81913 94.689C6.85089 94.6674 6.87811 94.6386 6.89928 94.6062C8.21624 92.463 9.22504 90.135 9.89417 87.6936C10.7771 84.54 11.1017 79.7496 12.5389 76.8696C12.5742 76.7988 12.5808 76.7166 12.5573 76.6404C12.5338 76.5648 12.4821 76.5018 12.4136 76.4652C12.345 76.4292 12.2652 76.422 12.1917 76.4466C12.1183 76.4706 12.0571 76.524 12.0218 76.5948C10.5299 79.5846 10.2147 84.3852 9.33463 87.528C8.68254 89.91 7.69927 92.1822 6.41535 94.2732C6.39406 94.3056 6.37929 94.3428 6.37185 94.3812C6.36434 94.4202 6.36434 94.4598 6.37179 94.4982C6.37923 94.5372 6.39401 94.5738 6.41529 94.6068C6.43652 94.6392 6.4638 94.6674 6.49562 94.6896Z" fill="#000001"/>
<path d="M10.6533 74.673C10.6886 74.688 10.7264 74.6958 10.7646 74.6958C10.8029 74.6958 10.8407 74.688 10.876 74.673C10.9112 74.6574 10.9433 74.6358 10.9702 74.6076C10.9972 74.5794 11.0185 74.5464 11.0331 74.5098C12.3031 71.3269 13.0154 67.9365 13.1369 64.4966C13.1383 64.4572 13.1322 64.4179 13.1188 64.381C13.1055 64.344 13.0853 64.3101 13.0593 64.2813C13.0333 64.2523 13.0021 64.229 12.9673 64.2126C12.9325 64.1962 12.895 64.187 12.8568 64.1855C12.8186 64.1841 12.7805 64.1904 12.7447 64.2041C12.7089 64.2178 12.676 64.2387 12.648 64.2655C12.62 64.2924 12.5974 64.3246 12.5815 64.3605C12.5656 64.3963 12.5566 64.435 12.5552 64.4744C12.4361 67.843 11.7385 71.163 10.495 74.28C10.4803 74.3166 10.4727 74.3562 10.4727 74.3952C10.4727 74.4348 10.4802 74.4744 10.4949 74.5104C10.5096 74.547 10.5312 74.5806 10.5583 74.6082C10.5855 74.6364 10.6178 74.658 10.6533 74.673Z" fill="#000001"/>
<path d="M8.84077 73.2493C8.8734 73.2697 8.90964 73.2835 8.94744 73.2895C8.98525 73.2955 9.02381 73.2937 9.06098 73.2847C9.09821 73.2751 9.13322 73.2583 9.16411 73.2355C9.19493 73.2121 9.22105 73.1827 9.24094 73.1491C9.81503 72.1765 10.2588 71.1461 10.7468 70.1663C10.7643 70.1312 10.7749 70.0929 10.778 70.0536C10.7811 70.0143 10.7767 69.9748 10.765 69.9373C10.7533 69.8998 10.7345 69.865 10.7098 69.8349C10.6851 69.8049 10.6549 69.7802 10.6209 69.7622C10.5869 69.7442 10.5498 69.7332 10.5117 69.73C10.4736 69.7268 10.4353 69.7313 10.3989 69.7434C10.3626 69.7555 10.3289 69.7748 10.2997 69.8003C10.2706 69.8258 10.2466 69.857 10.2292 69.8921C9.73709 70.8821 9.29853 71.8985 8.74422 72.8371C8.70409 72.9049 8.6917 72.9865 8.70979 73.0633C8.72787 73.1407 8.77499 73.2073 8.84077 73.2493Z" fill="#000001"/>
<path d="M23.0666 50.3866C23.0487 50.3096 23.0019 50.243 22.9365 50.2014C22.8711 50.1598 22.7924 50.1466 22.7176 50.1646C21.294 50.5163 19.9111 51.0246 18.5926 51.6808C17.6312 52.141 17.1443 52.4668 17.3246 52.87C17.3512 52.9295 17.3958 52.9784 17.4518 53.0093C17.5078 53.0401 17.5721 53.0512 17.6348 53.0409C17.6974 53.0305 17.7551 52.9993 17.799 52.952C17.8429 52.9047 17.8706 52.8439 17.8778 52.7788C19.4234 51.8385 21.1022 51.1533 22.8532 50.7484C22.9279 50.7295 22.9924 50.6808 23.0324 50.613C23.0724 50.5452 23.0847 50.4638 23.0666 50.3866Z" fill="#000001"/>
<path d="M18.1261 53.2158C17.8824 53.2512 17.6521 53.2824 17.6178 53.535C17.6108 53.5972 17.6217 53.6601 17.6493 53.7159C17.6768 53.7717 17.7197 53.8179 17.7725 53.8486C17.8254 53.8794 17.8859 53.8933 17.9464 53.8888C18.0069 53.8842 18.0648 53.8614 18.1128 53.823C19.01 53.7261 19.9136 53.7074 20.8139 53.7672C20.8521 53.769 20.8903 53.7631 20.9262 53.7497C20.9622 53.7363 20.9952 53.7157 21.0235 53.6891C21.0517 53.6625 21.0746 53.6305 21.0908 53.5948C21.1071 53.5591 21.1164 53.5204 21.1181 53.481C21.1199 53.4417 21.1141 53.4022 21.1011 53.3652C21.0881 53.3281 21.0681 53.294 21.0424 53.2648C21.0166 53.2357 20.9855 53.2121 20.9509 53.1954C20.9163 53.1786 20.8789 53.169 20.8407 53.1672C19.936 53.1111 19.0284 53.1273 18.1261 53.2158Z" fill="#000001"/>
<path d="M21.1822 58.2751C21.2201 58.2859 21.2597 58.2887 21.2987 58.2832C21.3376 58.2778 21.375 58.2643 21.4088 58.2434C21.4425 58.2227 21.4718 58.195 21.4949 58.1623C21.518 58.1294 21.5344 58.0921 21.5431 58.0526C21.5519 58.0131 21.5527 57.9722 21.5457 57.9323C21.5387 57.8924 21.5239 57.8544 21.5022 57.8206C21.4805 57.7867 21.4525 57.7578 21.4197 57.7355C21.3868 57.7132 21.35 57.698 21.3113 57.6907C19.8939 57.3493 18.5865 56.6347 17.5167 55.6165C17.4379 55.5225 17.3677 55.4211 17.3073 55.3135C17.2891 55.2777 17.2641 55.246 17.2337 55.2204C17.2034 55.1948 17.1683 55.1758 17.1307 55.1645C17.093 55.1532 17.0535 55.1499 17.0146 55.1548C16.9756 55.1597 16.938 55.1726 16.9041 55.1929C16.8701 55.2131 16.8405 55.2403 16.8169 55.2726C16.7934 55.305 16.7765 55.3419 16.7671 55.3812C16.7578 55.4205 16.7563 55.4614 16.7627 55.5013C16.769 55.5412 16.7831 55.5794 16.8042 55.6135C17.1233 56.1101 17.5462 56.5265 18.0419 56.8321C18.9925 57.5105 20.0575 57.9999 21.1822 58.2751Z" fill="#000001"/>
<path d="M16.499 56.8019C16.4251 56.8246 16.363 56.8765 16.3262 56.9464C16.2895 57.0162 16.2811 57.0983 16.303 57.1745C16.4005 57.5125 16.5519 57.8315 16.7508 58.1183C16.7958 58.183 16.8638 58.2266 16.94 58.2396C17.0161 58.2525 17.0941 58.2337 17.1568 58.1873C17.2195 58.1409 17.2618 58.0707 17.2744 57.9922C17.2869 57.9136 17.2687 57.8332 17.2237 57.7685C17.0622 57.5361 16.9394 57.2775 16.8602 57.0035C16.8381 56.9274 16.7876 56.8635 16.7199 56.8257C16.6522 56.7879 16.5728 56.7793 16.499 56.8019Z" fill="#000001"/>
<path d="M30.8851 72.7207C30.8698 72.7567 30.8616 72.7957 30.8609 72.8347C30.8601 72.8743 30.867 72.9133 30.881 72.9499C30.9091 73.0243 30.9647 73.0837 31.0354 73.1155C31.1062 73.1473 31.1863 73.1491 31.2581 73.1197C31.3299 73.0909 31.3876 73.0333 31.4185 72.9607C31.5635 72.6121 31.7894 72.3067 32.0763 72.0703C32.7743 71.6626 33.8951 71.923 34.799 71.47C36.4799 70.621 37.5827 68.6356 38.0876 67.5328C38.4336 66.8115 38.6593 66.0352 38.7553 65.2366C38.8041 65.2594 38.858 65.2679 38.9112 65.2612C38.9644 65.2544 39.0147 65.2326 39.0566 65.1982C39.8063 64.5808 40.3875 63.773 40.7434 62.854C40.9867 62.2363 41.0398 61.5562 40.8952 60.9064C40.6521 59.9194 39.4992 59.2498 38.5227 59.173C38.4458 59.167 38.3698 59.1928 38.3112 59.2447C38.2528 59.2966 38.2167 59.3702 38.2109 59.4496C38.205 59.5289 38.2298 59.6074 38.28 59.6678C38.3302 59.7283 38.4016 59.7656 38.4785 59.7718C39.2346 59.8318 40.1606 60.3604 40.3293 61.0468C40.4253 61.4815 40.413 61.9342 40.2932 62.3626C40.2558 62.3374 40.2132 62.3215 40.1687 62.3164C39.5924 62.2496 39.0131 62.2142 38.4331 62.2102C38.3895 62.0776 38.3418 61.9408 38.2854 61.7956C38.0731 61.3436 37.9874 60.8395 38.0382 60.34C38.0459 60.2604 38.0226 60.181 37.9735 60.119C37.9244 60.0572 37.8535 60.0179 37.7764 60.01C37.6993 60.002 37.6222 60.026 37.5623 60.0766C37.5023 60.1273 37.4642 60.2004 37.4565 60.28C37.4019 60.9464 37.5258 61.6156 37.8148 62.2144C37.5548 62.218 36.3264 62.242 36.3264 62.242C36.2882 62.2425 36.2505 62.2508 36.2153 62.2663C36.1803 62.2819 36.1485 62.3044 36.1218 62.3326C36.0952 62.3608 36.0742 62.3942 36.06 62.4308C36.0458 62.4674 36.0388 62.5065 36.0393 62.5459C36.0398 62.5853 36.0478 62.6242 36.0629 62.6604C36.078 62.6966 36.0998 62.7293 36.1272 62.7569C36.1546 62.7844 36.1869 62.806 36.2224 62.8206C36.2578 62.8352 36.2957 62.8425 36.3339 62.842C36.3339 62.842 37.6834 62.815 38.0015 62.8126C38.3984 64.3041 38.242 65.8946 37.563 67.2736C37.0877 68.3104 36.0641 70.1638 34.5425 70.9336C33.6997 71.3572 32.7056 71.0164 31.7558 71.575C31.3758 71.8742 31.0762 72.2683 30.8851 72.7207ZM38.8001 64.6366C38.816 64.0213 38.7505 63.4066 38.6053 62.8096C39.0962 62.8186 39.5941 62.851 40.085 62.908C39.7819 63.5726 39.3437 64.1621 38.8001 64.6366Z" fill="#000001"/>
<path d="M15.8989 63.7801C16.5341 65.7601 17.3606 68.3053 17.132 70.5427C17.0424 72.3601 16.3372 74.0869 15.1393 75.4225C15.1008 75.4651 15.0753 75.5185 15.0658 75.5761C15.0563 75.6337 15.0633 75.6931 15.0859 75.7465C15.1085 75.7999 15.1457 75.8455 15.193 75.8773C15.2403 75.9091 15.2956 75.9265 15.3522 75.9265C15.3922 75.9265 15.432 75.9181 15.4687 75.9019C15.5055 75.8851 15.5385 75.8611 15.5656 75.8305C16.4012 74.8729 17.0242 73.7389 17.3914 72.5071C17.7585 71.2758 17.861 69.9765 17.6915 68.7001C18.2803 69.2205 18.988 69.5773 19.7476 69.7368C19.8233 69.7528 19.902 69.737 19.9664 69.6931C20.0309 69.6492 20.0757 69.5806 20.0911 69.5026C20.1065 69.4245 20.0913 69.3433 20.0486 69.2769C20.0061 69.2104 19.9397 69.1642 19.864 69.1483C18.9404 68.9762 18.119 68.4377 17.5758 67.6483C17.5658 67.6296 17.5539 67.6121 17.5403 67.5961C16.7789 63.2635 13.62 57.9607 16.2211 54.5071C16.2674 54.4441 16.2877 54.3649 16.2777 54.2866C16.2677 54.2083 16.2281 54.1372 16.1676 54.0888C16.1071 54.0405 16.0306 54.0186 15.9546 54.028C15.8786 54.0375 15.8093 54.0774 15.7616 54.1393C13.7224 56.8489 14.8793 60.6001 15.8989 63.7801Z" fill="#000001"/>
<path d="M16.2525 51.3604C16.3155 51.3604 16.3767 51.3394 16.427 51.3004C16.9146 50.9215 17.3787 50.5115 17.8166 50.0728C18.8292 49.2559 19.9859 48.6496 21.2227 48.2878C21.6485 48.16 22.4226 47.9278 22.7931 48.1708C22.849 48.2079 22.9155 48.2241 22.9815 48.2167C23.0475 48.2095 23.1091 48.1791 23.1561 48.1306C24.0768 48.6178 26.1347 49.0126 26.7524 49.2838C27.8599 49.8375 28.833 50.6402 29.6001 51.633C30.3673 52.6257 30.9089 53.7832 31.1851 55.0204C31.9761 58.5406 28.2769 60.2608 27.7842 63.9052C27.6983 64.4649 27.7157 65.0364 27.8354 65.5894C27.7671 65.6517 27.7129 65.7287 27.6766 65.815C27.6619 65.8301 27.6488 65.8468 27.6377 65.8648C26.6494 67.1848 25.3095 68.1787 23.7819 68.725C23.6487 68.7802 23.515 68.8318 23.3445 68.8972C23.3099 68.911 23.2783 68.9319 23.2516 68.9587C23.2251 68.9854 23.204 69.0175 23.1898 69.0529C23.1755 69.0882 23.1684 69.1263 23.1688 69.1646C23.1692 69.2029 23.1771 69.2407 23.1921 69.2758C23.2241 69.3507 23.2827 69.4101 23.3559 69.4416C23.4291 69.4731 23.5113 69.4743 23.5853 69.445C24.7952 69.0366 25.9189 68.3948 26.8966 67.5538C27.3312 67.1775 27.7232 66.7518 28.0652 66.2848C28.9202 68.1166 31.0385 68.3644 32.9039 67.3978C32.9383 67.3803 32.9691 67.356 32.9944 67.3263C33.0196 67.2964 33.039 67.2618 33.0512 67.2243C33.0635 67.1868 33.0684 67.1471 33.0657 67.1076C33.063 67.0681 33.0528 67.0296 33.0356 66.9942C33.0184 66.9588 32.9946 66.9273 32.9655 66.9014C32.9364 66.8755 32.9027 66.8559 32.8662 66.8435C32.8298 66.8312 32.7913 66.8264 32.753 66.8295C32.7148 66.8325 32.6775 66.8434 32.6433 66.8614C30.1062 68.176 27.932 66.7744 28.3595 63.994C28.8248 60.5302 32.6189 58.7416 31.7516 54.8848C31.453 53.5568 30.8694 52.3147 30.044 51.25C29.2187 50.1853 28.1724 49.325 26.9821 48.7324C26.2551 48.4126 23.6918 47.9248 23.17 47.4244C23.4271 47.0644 24.0925 47.0218 24.5171 47.071C24.5551 47.0753 24.5936 47.0718 24.6303 47.0608C24.667 47.0497 24.7012 47.0314 24.731 47.0067C24.7608 46.982 24.7857 46.9515 24.8041 46.917C24.8224 46.8824 24.834 46.8444 24.8382 46.8052C24.8424 46.766 24.839 46.7263 24.8283 46.6885C24.8176 46.6506 24.7998 46.6153 24.7758 46.5846C24.7519 46.5538 24.7224 46.5282 24.6888 46.5093C24.6553 46.4903 24.6185 46.4783 24.5805 46.474C23.1846 46.3168 22.5448 47.014 22.575 47.4766C22.0325 47.4544 21.491 47.5423 20.9813 47.7352C19.6922 48.1228 18.4875 48.7631 17.4333 49.621C17.0048 50.0495 16.551 50.4502 16.0746 50.821C16.0257 50.859 15.9898 50.912 15.9718 50.9724C15.9538 51.0327 15.9548 51.0973 15.9745 51.1571C15.9942 51.2169 16.0317 51.2686 16.0816 51.3052C16.1316 51.3417 16.1914 51.361 16.2525 51.3604Z" fill="#000001"/>
<path d="M30.7691 61.2882C31.0826 60.4398 30.5527 60.3348 30.3933 60.6684C30.1708 61.194 29.985 61.7354 29.8373 62.2884C29.308 64.2468 29.4662 65.6628 30.3218 66.6168C30.3472 66.6475 30.3784 66.6726 30.4134 66.6906C30.4485 66.7086 30.4867 66.7191 30.5258 66.7215C30.5649 66.7239 30.604 66.7182 30.6409 66.7046C30.6778 66.691 30.7116 66.6698 30.7404 66.6424C30.7691 66.615 30.7922 66.5819 30.8083 66.5451C30.8243 66.5082 30.8331 66.4684 30.8338 66.428C30.8346 66.3876 30.8275 66.3475 30.8128 66.3101C30.7982 66.2726 30.7764 66.2385 30.7487 66.21C29.643 64.98 30.1874 62.8758 30.7691 61.2882Z" fill="#000001"/>
</svg>
