<svg width="14" height="29" viewBox="0 0 14 29" fill="none" xmlns="http://www.w3.org/2000/svg">
<path d="M6.99614 13.9923C10.86 13.9923 13.9923 10.86 13.9923 6.99614C13.9923 3.13228 10.86 0 6.99614 0C3.13228 0 0 3.13228 0 6.99614C0 10.86 3.13228 13.9923 6.99614 13.9923Z" fill="#4CA8DF"/>
<path d="M6.99616 15.7273C6.76529 15.7273 6.53671 15.773 6.32359 15.8618C6.11047 15.9505 5.91703 16.0806 5.75443 16.2445C5.59184 16.4084 5.4633 16.6029 5.37623 16.8167C5.28916 17.0305 5.24528 17.2595 5.24713 17.4903V26.5853C5.24713 27.0492 5.4314 27.4941 5.75941 27.8221C6.08741 28.1501 6.53229 28.3343 6.99616 28.3343C7.46003 28.3343 7.90491 28.1501 8.23292 27.8221C8.56092 27.4941 8.7452 27.0492 8.7452 26.5853V17.4903C8.74704 17.2595 8.70317 17.0305 8.6161 16.8167C8.52903 16.6029 8.40049 16.4084 8.23789 16.2445C8.07529 16.0806 7.88186 15.9505 7.66874 15.8618C7.45562 15.773 7.22703 15.7273 6.99616 15.7273Z" fill="#4CA8DF"/>
</svg>
