<svg width="20" height="23" viewBox="0 0 20 23" fill="none" xmlns="http://www.w3.org/2000/svg">
<path fill-rule="evenodd" clip-rule="evenodd" d="M0 9.75C0 4.3652 4.3652 0 9.75 0C15.1348 0 19.5 4.3652 19.5 9.75C19.5 13.2437 17.6972 16.1826 15.7371 18.3514C13.7709 20.5271 11.5739 22.0094 10.6183 22.6045C10.0823 22.9382 9.4177 22.9382 8.8817 22.6045C7.92615 22.0094 5.72915 20.5271 3.7629 18.3514C1.8028 16.1826 0 13.2437 0 9.75ZM9.75 13.75C11.9592 13.75 13.75 11.9592 13.75 9.75C13.75 7.54085 11.9592 5.75 9.75 5.75C7.54085 5.75 5.75 7.54085 5.75 9.75C5.75 11.9592 7.54085 13.75 9.75 13.75Z" fill="#4CA8DF"/>
</svg>
