<svg width="345" height="345" viewBox="0 0 345 345" fill="none" xmlns="http://www.w3.org/2000/svg">
<path d="M45.5584 184.293C44.4371 180.532 45.0409 176.548 43.5056 176.617C42.7811 176.617 42.6086 177.324 42.5741 177.945C42.2981 183.223 43.6609 184.845 42.3671 186.915C42.1624 187.208 42.0539 187.558 42.0566 187.915C42.0992 188.357 42.0524 188.804 41.919 189.227C41.7857 189.651 41.5685 190.043 41.2804 190.381C40.9924 190.719 40.6393 190.996 40.2422 191.194C39.8451 191.393 39.4121 191.51 38.9689 191.538C31.7066 193.039 35.6396 200.577 28.6189 205.338C25.5829 207.408 23.2196 205.338 21.8396 209.047C20.9599 211.427 19.8904 213.756 18.8554 216.085C18.3986 217.26 17.6396 218.293 16.6552 219.081C15.6707 219.868 14.4958 220.382 13.2491 220.57C12.9145 220.679 12.551 220.658 12.2311 220.511C11.9113 220.364 11.6588 220.101 11.5241 219.776C11.2136 218.983 11.9554 218.914 12.3866 218.62C13.5596 217.861 12.9386 216.585 12.9386 215.671C12.9386 214.377 12.7489 199.525 12.5074 194.815C8.47089 118.657 13.8011 71.9092 11.4896 55.677C11.3344 54.5557 12.8179 53.6242 14.0081 53.952C17.8204 55.2285 20.9081 53.676 27.1181 53.952C34.2424 54.1762 41.3149 53.2792 48.4219 53.2275C51.8717 53.3811 55.3274 53.335 58.7719 53.0895C64.6541 52.3477 107.434 52.5375 130.256 51.4852C137.604 51.1402 144.901 50.2087 152.267 50.364C153.992 50.364 155.613 50.364 156.752 52.089C157.041 52.4429 157.217 52.8756 157.257 53.3309C157.297 53.7863 157.199 54.2431 156.976 54.642C155.574 57.8103 153.708 60.7521 151.439 63.3705C145.505 69.7702 142.676 68.4592 141.71 69.7875C139.719 72.3259 137.061 74.2609 134.034 75.3765C133.736 75.5063 133.48 75.7176 133.297 75.9862C133.114 76.2548 133.011 76.5696 132.999 76.8945C132.831 77.7325 132.483 78.5242 131.98 79.2151C131.477 79.9059 130.83 80.4796 130.083 80.8965C129.773 81.1381 129.41 81.3036 129.024 81.3797C128.638 81.4559 128.239 81.4405 127.86 81.3348C127.481 81.2292 127.132 81.0362 126.841 80.7713C126.551 80.5065 126.326 80.1772 126.185 79.8097C124.736 75.963 121.303 70.2705 121.959 69.3217C122.804 68.097 122.2 67.0447 121.683 65.958C120.332 67.2457 118.529 67.9518 116.663 67.9245C116.076 67.9245 115.973 68.2695 115.783 68.5627C115.145 69.5287 114.455 70.2877 113.178 69.7012C113.064 69.648 112.937 69.6278 112.812 69.643C112.687 69.6583 112.569 69.7083 112.471 69.7875C110.953 71.133 108.935 71.754 107.4 73.0995C106.951 73.4962 106.761 73.6515 106.917 74.2552C107.905 77.2531 109.134 80.1663 110.591 82.9665C111.091 84.1395 112.437 83.7427 113.403 84.0015C114.343 84.1303 115.218 84.5529 115.904 85.209C116.225 85.5322 116.406 85.9694 116.406 86.4251C116.406 86.8808 116.225 87.318 115.904 87.6412C115.605 88.0465 115.244 88.4017 114.834 88.6935C110.418 91.1775 109.97 95.9902 103.76 99.7335C103.299 99.9791 102.929 100.367 102.705 100.839C102.481 101.311 102.416 101.843 102.518 102.355C102.725 104.264 102.524 106.196 101.929 108.021C101.335 109.847 100.359 111.526 99.0679 112.947C96.2216 114.034 96.5839 116.397 95.6179 123.176C95.5524 123.863 95.2824 124.515 94.8426 125.047C94.4029 125.579 93.8137 125.967 93.1511 126.16C87.1999 128.351 84.2674 126.16 81.6799 129.041C80.9381 129.904 79.9549 131.025 78.7819 130.162C77.6089 129.3 78.3851 128.058 78.6439 127.006C78.7726 126.407 79.0584 125.853 79.4719 125.401C80.9816 123.691 82.3435 121.856 83.5429 119.916C84.1452 119.21 84.5867 118.382 84.8369 117.488C85.0871 116.594 85.14 115.657 84.9919 114.741C84.8736 112.844 84.4844 110.973 83.8361 109.186C82.1111 105.409 87.2861 101.2 79.0406 99.9577C75.7114 99.4575 74.8489 96.5077 73.4344 94.179C72.8908 92.9789 72.2505 91.8251 71.5196 90.729C69.2254 87.9517 70.6916 84.864 66.3446 84.3637C62.3792 83.776 58.329 84.4329 54.7526 86.244C50.6126 88.4175 44.2991 89.694 43.0916 98.6122C42.249 103.685 41.6732 108.798 41.3666 113.93C41.3666 114.862 41.4701 115.828 41.4874 116.776C41.4874 119.312 43.2986 120.916 44.7649 122.624C48.0596 126.488 48.8704 128.092 53.5624 129.835C53.7741 129.883 53.9722 129.978 54.1416 130.113C54.3111 130.249 54.4475 130.421 54.5406 130.617C54.6336 130.814 54.6809 131.028 54.6788 131.245C54.6767 131.462 54.6252 131.676 54.5284 131.87C53.4589 134.389 53.5279 138.908 49.6639 142.22C43.2469 147.861 44.1956 154.606 41.9531 164.8C41.5652 166.485 41.5179 168.231 41.8142 169.934C42.1104 171.637 42.7441 173.264 43.6781 174.719C44.8059 175.968 46.2564 176.881 47.8699 177.358C48.5254 177.548 48.5771 178.066 48.3356 179.256C47.8291 181.134 46.8764 182.862 45.5584 184.293Z" fill="#B1F1FF"/>
<path d="M246.127 140.704C246.351 145.396 243.901 149.45 241.366 153.763C241 154.591 240.869 155.504 240.986 156.402C240.986 160.042 239.261 161.784 235.656 161.732C224.679 161.491 214.231 156.973 206.538 149.14C204.485 147.07 205.572 149.14 199.12 144.413C198.398 144.005 197.815 143.388 197.449 142.643C197.083 141.898 196.95 141.06 197.068 140.239C199.207 126.904 204.14 131.372 218.647 125.283C221.45 124.073 224.524 123.629 227.554 123.996C230.585 124.363 233.464 125.527 235.897 127.37C239.485 129.802 243.229 131.303 245.644 137.151C246.036 138.292 246.2 139.5 246.127 140.704Z" fill="#B1F1FF"/>
<path d="M319.247 304.13C319.337 303.956 319.466 303.805 319.623 303.687C319.781 303.57 319.962 303.49 320.155 303.454C320.348 303.417 320.547 303.425 320.736 303.476C320.925 303.528 321.1 303.622 321.248 303.751C324.819 306.856 326.906 312.721 325.906 316.119C325.272 318.145 323.89 319.854 322.042 320.897C317.47 323.813 312.331 325.724 306.965 326.504C302.175 327.269 297.311 327.466 292.475 327.09C285.834 326.435 276.95 325.986 271.913 321.018C271.202 320.33 270.637 319.505 270.251 318.594C269.864 317.683 269.666 316.703 269.666 315.714C269.666 314.724 269.864 313.745 270.251 312.833C270.637 311.922 271.202 311.098 271.913 310.409C275.248 307.503 277.774 303.783 279.244 299.611C279.503 298.766 279.969 298.507 280.831 298.886C287.248 301.767 294.131 302.664 301.031 303.527C310.57 304.717 312.882 305.579 317.522 305.252C317.885 305.24 318.237 305.13 318.541 304.932C318.845 304.734 319.09 304.457 319.247 304.13Z" fill="#B1F1FF"/>
<path d="M150.73 311.604C142.555 311.632 134.42 310.47 126.58 308.154C125.549 307.894 124.605 307.369 123.841 306.63C123.077 305.891 122.521 304.964 122.228 303.942C121.934 302.921 121.914 301.84 122.169 300.808C122.425 299.777 122.946 298.83 123.682 298.063C126.683 294.613 127.891 290.507 129.34 286.419C129.995 284.539 129.892 284.573 131.72 285.505C143.657 291.611 159.01 294.699 167.169 294.423C170.671 294.568 174.161 293.926 177.381 292.543C178.22 292.181 179.155 292.103 180.042 292.321C180.93 292.539 181.722 293.041 182.297 293.75C183.133 294.748 183.739 295.917 184.073 297.175C184.407 298.433 184.46 299.749 184.229 301.03C183.874 302.294 183.218 303.454 182.317 304.409C181.416 305.365 180.296 306.087 179.054 306.515C171.947 309.655 158.975 311.173 150.73 311.604Z" fill="#B1F1FF"/>
<path d="M175.057 284.739C157.289 283.135 145.887 277.839 135.037 273.82C132.639 272.958 134.657 272.233 137.762 261.159C138.004 260.331 138.331 260.02 139.263 260.434C146.818 263.781 154.788 265.92 162.533 268.869C171.52 272.319 172.676 271.233 173.211 273.389C174.073 276.839 174.936 280.289 175.85 283.739C176.04 284.463 175.954 284.895 175.057 284.739Z" fill="#B1F1FF"/>
<path d="M315.897 295.731C315.897 296.715 315.362 296.542 314.793 296.421C311.498 295.783 308.324 294.696 305.081 293.903C298.02 291.976 291.103 289.555 284.381 286.658C283.519 286.296 283.243 285.951 283.519 284.933C285.244 278.895 284.468 277.412 286.779 278.136C295.025 280.724 303.184 283.605 311.654 285.364C316.984 286.503 313.465 288.21 315.897 295.731Z" fill="#B1F1FF"/>
<path d="M166.707 254.589C166.327 254.589 166.155 254.71 166.051 254.589C158.841 251.432 151.303 249.173 143.954 246.378C142.85 245.964 142.902 245.464 143.247 244.653C144.742 240.893 146.231 237.126 147.715 233.354C148.474 231.44 148.663 233.734 157.444 236.718C158.22 236.977 161.083 236.718 161.635 239.081C162.753 244.421 164.454 249.621 166.707 254.589Z" fill="#B1F1FF"/>
<path d="M313.953 273.011C314.091 273.735 313.694 273.908 312.417 273.753C304.6 272.517 296.952 270.375 289.63 267.37C288.733 267.042 288.319 266.508 288.612 265.645C289.45 262.4 290.499 259.214 291.752 256.106C293.132 253.07 293.649 258.055 311.796 265.749C312.21 265.938 312.59 266.076 312.693 266.628C313.242 268.728 313.662 270.86 313.953 273.011Z" fill="#B1F1FF"/>
<path d="M199.721 115.575C199.748 115.817 199.723 116.062 199.649 116.294C199.574 116.525 199.451 116.739 199.288 116.919C199.125 117.1 198.926 117.245 198.703 117.343C198.48 117.441 198.239 117.491 197.996 117.49C197.244 117.429 196.492 117.617 195.857 118.025C194.563 118.956 194.132 118.818 193.425 117.317C190.285 109.676 189.975 108.347 189.25 106.415C189.128 106.207 189.056 105.973 189.041 105.732C189.025 105.49 189.068 105.249 189.163 105.027C189.259 104.805 189.406 104.609 189.592 104.454C189.778 104.3 189.998 104.192 190.234 104.138C191.821 103.552 193.356 102.793 194.891 102.086C196.426 101.378 197.375 101.948 197.617 103.379C200.377 120.267 199.721 113.522 199.721 115.575Z" fill="#B1F1FF"/>
<path d="M316.245 17.6953C316.245 21.6456 310.95 20.4553 310.846 18.1611C310.949 17.37 311.349 16.6474 311.963 16.1385C312.577 15.6297 313.362 15.3724 314.158 15.4183C315.676 15.5218 316.245 16.1083 316.245 17.6953Z" fill="#B1F1FF"/>
<path d="M69.968 218.949C69.554 211.583 69.4333 204.166 67.7083 196.938C67.5072 195.907 67.3747 194.864 67.3115 193.816C67.208 192.867 66.6733 192.746 66.38 193.816C65.3795 197.421 67.208 200.716 66.8803 209.617C66.449 220.64 67.208 221.295 65.7763 227.212C65.2933 229.213 64.5343 229.592 62.516 229.868C59.687 230.248 56.8063 229.868 53.891 230.317C52.166 230.61 48.716 230.472 49.5785 228.954C50.441 227.436 49.7683 226.315 49.7683 225.004C49.7683 207.064 49.0783 201.906 51.4933 194.144C52.9567 188.95 54.1088 183.674 54.9433 178.343C55.0272 177.754 55.1717 177.176 55.3745 176.618C55.616 176.014 55.3745 174.893 56.5475 175.065C57.4445 175.203 58.583 175.065 58.5485 176.549C58.5485 177.308 59.825 177.359 59.7388 176.549C59.6525 175.738 60.0838 175.634 60.8945 175.634C65.1035 175.634 69.278 176.186 73.4698 176.307C74.5393 176.307 75.8675 175.514 76.5748 177.118C76.661 177.325 77.2303 177.325 77.3683 177.118C78.1445 175.393 79.8178 176.255 81.0253 175.841C81.5237 175.781 82.0276 175.781 82.526 175.841C85.3205 175.565 85.3378 175.565 85.3205 178.412C85.3205 183.69 85.9588 185.743 87.0455 198.094C88.5118 213.947 87.2353 215.068 87.0455 245.549C86.9865 247.898 86.7907 250.243 86.459 252.569C86.2348 254.605 85.4758 255.312 83.4575 255.674C81.229 256.028 78.9586 256.028 76.73 255.674C74.4185 255.347 71.1583 257.037 71.4343 254.415C71.9 250.758 70.451 227.798 69.968 218.949ZM63.068 180.999C63.1618 180.299 63.0056 179.588 62.627 178.992C62.2484 178.396 61.6716 177.952 60.998 177.739C57.2203 177.014 55.823 178.481 57.065 182.034C58.7383 187.019 63.068 185.708 63.068 180.947V180.999ZM80.5768 182.845C80.5768 180.344 79.697 179.395 76.9888 178.964C75.2638 178.705 74.5393 179.395 74.522 181.068C74.4185 186.968 80.5078 188.52 80.5768 182.845ZM54.8743 205.701C54.0463 205.701 52.8905 205.598 52.6145 206.667C52.5462 206.887 52.5531 207.124 52.6344 207.339C52.7156 207.555 52.8665 207.737 53.063 207.857C53.6507 208.282 54.33 208.563 55.0462 208.677C55.7624 208.791 56.4953 208.735 57.1858 208.513C59.1868 207.754 57.893 205.701 54.8743 205.632V205.701ZM81.353 228.937C81.353 227.436 77.213 227.678 75.8675 227.747C75.6097 227.747 75.3622 227.848 75.1783 228.029C74.9944 228.209 74.8888 228.455 74.8843 228.713C74.8843 229.265 75.3155 229.454 75.7295 229.627C76.4195 229.834 81.3013 230.075 81.353 228.868V228.937Z" fill="#4CA8DF"/>
<path d="M277.725 106.39C277.817 108.849 277.515 111.306 276.828 113.669C273.912 124.019 264.218 126.451 253.782 124.243C253.52 124.177 253.248 124.164 252.981 124.205C252.714 124.247 252.458 124.342 252.229 124.485C251.384 125.037 250.504 125.503 249.693 126.106C248.883 126.71 247.744 126.348 246.864 126.003C245.985 125.658 246.278 124.813 246.468 124.278C246.732 123.347 246.73 122.36 246.462 121.43C246.193 120.5 245.669 119.664 244.95 119.017C241.224 114.48 240.465 106.476 241.5 100.663C242.456 96.6813 244.741 93.1448 247.977 90.6361C251.213 88.1274 255.208 86.7965 259.302 86.8627C267.789 86.8627 273.964 90.6577 276.776 99.7657C277.517 101.892 277.839 104.141 277.725 106.39ZM265.046 110.392C264.39 110.219 263.683 110.012 263.321 110.788C262.959 111.565 263.597 111.996 264.097 112.393C265.237 113.215 266.5 113.85 267.84 114.273C268.461 114.497 269.169 114.67 269.652 114.066C269.855 113.812 269.983 113.505 270.019 113.182C270.056 112.858 270 112.531 269.859 112.237L267.633 107.062C267.288 106.252 266.702 105.838 265.908 106.2C264.494 106.804 265.218 108.235 265.908 109.753C266.391 110.668 266.616 110.806 265.046 110.392ZM252.764 102.612C253.178 102.25 253.609 102.422 253.989 102.301C254.368 102.181 255.558 102.112 255.558 101.197C255.558 100.283 254.713 100.128 254.023 100.042C251.298 99.6622 249.141 98.1615 248.193 99.369C246.709 101.232 251.194 105.406 253.161 107.425C253.397 107.696 253.731 107.862 254.09 107.888C254.448 107.914 254.803 107.797 255.075 107.563C256.507 106.321 253.368 104.371 252.764 102.629V102.612ZM257.37 112.6C257.621 112.681 257.892 112.678 258.141 112.591C258.39 112.504 258.604 112.337 258.75 112.117C260.699 108.908 262.993 105.924 264.77 102.612C265.115 101.956 265.322 101.197 264.511 100.766C264.356 100.689 264.187 100.646 264.014 100.637C263.841 100.629 263.668 100.656 263.506 100.718C263.344 100.779 263.196 100.874 263.073 100.995C262.949 101.116 262.851 101.261 262.786 101.422C260.871 104.682 255.3 111.996 257.37 112.617V112.6Z" fill="#4CA8DF"/>
<path d="M81.5289 172.835C78.0789 172.835 77.6477 172.991 77.2509 172.249C77.2167 172.181 77.1689 172.121 77.1105 172.073C77.0521 172.025 76.9844 171.989 76.9116 171.968C76.8388 171.947 76.7624 171.941 76.6872 171.951C76.612 171.96 76.5397 171.986 76.4747 172.025C73.2662 173.232 69.9542 172.439 66.7112 172.387C64.9862 172.387 63.2612 172.387 61.5362 172.232C60.8634 172.232 60.1217 172.404 59.6559 171.611C59.1902 170.817 58.5174 172.766 56.6717 171.783C56.0507 171.473 56.6717 170.783 56.6717 170.282C58.1724 162.882 54.3257 158.811 58.1379 154.757C59.8155 152.769 61.6312 150.901 63.5717 149.168C64.9017 147.962 66.0623 146.581 67.0217 145.063C67.3276 144.757 67.52 144.356 67.567 143.927C67.6141 143.497 67.513 143.064 67.2804 142.7C66.8319 142.096 67.7117 140.975 68.6949 140.975C69.6782 140.975 69.8679 140.509 70.4199 139.974C73.8561 136.122 77.7289 132.684 81.9602 129.728C84.0992 128.313 85.3067 129.866 84.4269 131.056C81.6068 135.257 78.3641 139.159 74.7497 142.7C74.5133 142.884 74.359 143.153 74.3203 143.451C74.2815 143.748 74.3614 144.048 74.5427 144.287C75.092 145.47 75.8256 146.559 76.7162 147.512C83.6162 154.706 81.5289 153.584 84.2717 154.154C85.4102 154.395 88.0149 153.964 87.8252 156.845C87.5521 161.729 86.976 166.591 86.1002 171.404C85.8932 172.525 85.4447 172.956 84.3752 172.835C83.4609 172.766 81.3564 172.835 81.5289 172.835ZM61.5362 156.344C66.9872 156.051 72.0414 156.551 77.0612 156.017C78.7862 155.827 78.4067 155.499 71.3514 147.064C70.3854 145.908 69.3677 148.082 68.0394 149.237C65.6628 151.406 63.4863 153.785 61.5362 156.344Z" fill="#4CA8DF"/>
<path d="M74.422 131.318C72.283 131.68 72.697 129.092 69.4885 125.66C68.7589 124.912 68.3504 123.909 68.35 122.865C68.35 120.726 64.7448 119.812 62.6575 119.57C61.4427 119.342 60.3432 118.703 59.5426 117.761C58.7419 116.819 58.2888 115.631 58.2588 114.395C58.483 111.377 61.5018 114.585 60.9153 110.687C60.691 109.169 60.1735 107.702 59.9838 106.15C59.6168 103.844 59.8248 101.484 60.5891 99.2783C61.3534 97.0725 62.6506 95.0896 64.3653 93.5056C65.9868 91.9876 67.5738 91.3148 69.937 93.5056C72.3003 95.6963 73.5423 99.0083 75.3708 101.717C77.0958 104.114 77.8893 104.597 80.5458 103.769C81.184 103.58 81.9085 103.649 82.5123 103.045C83.116 102.441 83.254 103.2 83.2368 103.718C83.116 106.322 80.425 108.72 82.081 112.17C82.7193 113.498 82.8573 115.051 83.3748 116.448C84.5823 119.777 82.8745 121.899 80.7873 123.452C75.25 127.643 80.632 131.283 74.422 131.318Z" fill="#4CA8DF"/>
<path d="M170.774 294.967C161.568 294.863 152.439 293.267 143.743 290.241C139.417 288.85 135.178 287.202 131.047 285.307C130.202 284.859 129.892 284.479 130.237 283.461C133.687 273.594 132.531 272.508 135.86 273.75C142.657 276.251 149.212 279.425 156.336 280.926C169.946 283.824 169.912 284.1 173.965 284.151C174.414 284.103 174.866 284.222 175.232 284.487C175.598 284.751 175.854 285.142 175.949 285.583C176.569 287.827 176.791 290.163 176.605 292.483C176.601 293.021 176.391 293.537 176.019 293.925C175.647 294.313 175.141 294.544 174.604 294.57C173.354 294.891 172.063 295.025 170.774 294.967Z" fill="#4CA8DF"/>
<path d="M168.537 272.181C166.06 271.573 163.65 270.718 161.344 269.628C155.099 266.644 148.527 264.453 142.127 261.969C138.246 260.417 137.866 260.969 138.229 259.865C139.557 255.673 140.902 251.499 142.196 247.29C142.576 246.048 143.248 245.565 144.508 246.099C148.699 248.118 156.841 250.015 164.604 253.569C165.755 254.187 166.661 255.179 167.174 256.38C169.258 260.317 170.486 264.649 170.779 269.094C170.952 271.25 171.711 272.233 168.537 272.181Z" fill="#4CA8DF"/>
<path d="M199.243 43.1193C197.518 43.1193 197.104 42.5845 197.035 40.9803C196.915 38.7033 195.828 35.8053 198.657 35.2878C199.844 35.101 201.044 35.0087 202.245 35.0118L250.217 34.7013C251.804 34.615 252.615 35.3223 253.012 37.4958C253.132 38.134 253.012 38.8068 253.15 39.445C253.495 41.4633 252.684 42.481 250.597 42.4983C211.37 42.6535 210.301 43.1193 199.243 43.1193Z" fill="#4CA8DF"/>
<path d="M315.229 306.714C312.009 306.311 308.813 305.735 305.655 304.989C298.134 302.867 287.801 302.695 280.936 299.314C280.747 299.259 280.572 299.165 280.423 299.037C280.274 298.909 280.154 298.75 280.072 298.572C279.99 298.393 279.948 298.199 279.948 298.002C279.948 297.806 279.991 297.612 280.073 297.433C281.057 293.983 281.798 290.533 282.782 287.204C283.058 286.204 283.661 285.755 284.696 286.324C291.596 290.085 305.724 293.673 314.815 296.191C315.159 296.262 315.464 296.459 315.672 296.743C315.879 297.026 315.973 297.377 315.936 297.727C315.911 300.14 316.621 302.505 317.972 304.506C318.593 305.386 318.368 306.007 317.264 306.231L315.229 306.714Z" fill="#4CA8DF"/>
<path d="M149.494 42.2364C110.906 42.2364 120.169 45.5484 117.029 36.3886C115.805 32.7316 118.513 34.6636 131.002 34.0254C134.452 33.8529 137.798 33.9219 141.197 33.7494C148.183 33.4044 155.169 32.8869 162.173 32.8696C164.484 32.8696 164.726 33.1801 164.812 35.4226C164.807 37.0724 164.697 38.7202 164.484 40.3561C164.363 41.8741 163.553 42.2881 161.966 42.2536C157.946 42.1846 149.321 42.2364 149.494 42.2364Z" fill="#4CA8DF"/>
<path d="M69.9855 33.7488C73.815 33.7488 77.61 32.8173 81.474 32.9036C84.1132 32.9036 84.8032 33.6108 84.7687 36.1983C84.7687 38.0786 85.0792 41.3733 83.0437 41.5976C77.9722 42.3393 45.249 42.4946 40.1085 42.5118C36.6585 42.5118 35.5027 34.7666 41.2987 34.4561C51.7522 33.8696 65.9145 33.8006 69.9855 33.7488Z" fill="#4CA8DF"/>
<path d="M314.729 282.563C314.729 286.237 314.539 286.461 311.038 285.754C295.03 282.494 288.147 277.974 286.163 278.285C285.042 278.457 285.49 277.405 285.628 277.06C286.548 274.061 287.217 270.992 287.629 267.883C287.75 266.727 288.354 266.537 289.354 267.02C294.009 269.104 298.841 270.766 303.793 271.988C306.494 272.904 309.324 273.382 312.176 273.403C313.47 273.403 314.039 273.955 314.091 275.128C314.143 277.715 314.781 280.165 314.729 282.563Z" fill="#4CA8DF"/>
<path d="M300.724 245.999C305.536 246.637 307.106 246.361 307.865 248.879C309.038 252.761 309.59 256.78 310.746 260.661C311.16 261.955 311.815 263.128 312.316 264.353C312.54 264.887 312.816 265.405 312.316 265.888C312.084 266.111 311.775 266.236 311.453 266.236C311.131 266.236 310.822 266.111 310.591 265.888C305.916 262.697 300.603 260.575 295.911 257.435C293.565 255.866 291.943 255.71 292.461 253.985C294.755 247.31 294.669 245.93 300.724 245.999Z" fill="#4CA8DF"/>
<path d="M204.465 191.551C205.707 191.344 207.121 190.827 207.397 191.931C207.535 192.552 207 192.604 206.569 192.724C204.499 193.345 204.482 193.363 205.448 195.433C205.672 195.898 205.655 196.537 206.345 196.709C207.346 196.968 207.259 197.347 206.862 198.313C206.259 199.849 205.827 199.918 204.568 198.952C203.775 198.348 202.636 198.693 201.67 198.952C201.17 199.107 201.36 199.435 201.446 199.78C201.687 200.884 202.878 201.953 202.274 203.005C201.67 204.058 197.755 203.35 198.824 205.162C199.031 205.524 199.186 205.886 199.359 206.248C199.41 206.337 199.443 206.434 199.456 206.535C199.469 206.636 199.463 206.739 199.436 206.838C199.41 206.936 199.364 207.029 199.302 207.109C199.24 207.19 199.162 207.258 199.074 207.309C198.986 207.36 198.888 207.393 198.787 207.407C198.686 207.42 198.583 207.413 198.485 207.387C198.386 207.36 198.294 207.315 198.213 207.252C198.132 207.19 198.064 207.113 198.013 207.025C197.814 206.795 197.646 206.54 197.513 206.266C197.116 205.196 196.512 204.748 195.339 205.248C194.925 205.42 194.218 205.455 194.029 204.868C193.511 203.281 197.478 204.454 195.15 200.694C194.563 199.762 193.752 200.159 193.011 200.383C192.562 200.539 192.649 200.901 192.787 201.263C192.925 201.625 193.097 202.212 193.252 202.678C193.407 203.143 193.77 203.695 193.131 203.989C191.993 204.506 191.682 202.833 191.406 202.039C191.13 201.246 190.958 200.452 189.681 200.314C188.957 200.314 188.577 199.452 189.354 199.107C190.716 198.486 189.681 197.83 189.612 196.278C189.607 196.125 189.656 195.975 189.75 195.854C189.844 195.733 189.978 195.649 190.127 195.616C190.277 195.583 190.433 195.604 190.569 195.674C190.705 195.745 190.812 195.861 190.872 196.002C191.458 197.296 191.631 199.452 193.925 198.279C194.132 198.175 194.339 198.037 194.235 197.865C193.666 196.83 194.235 195.157 192.372 194.812C191.596 194.674 191.389 194.104 192.062 193.518C192.48 193.257 192.787 192.852 192.924 192.379C193.028 191.81 193.528 191.862 193.804 192.276C194.632 193.501 195.633 192.5 196.547 192.552C196.892 192.552 196.926 192.276 196.823 192.017C196.426 191.086 196.633 189.878 195.495 189.292C195.046 189.05 194.839 188.55 195.357 188.205C195.874 187.86 195.805 187.498 195.874 187.049C195.943 186.601 196.443 186.394 196.754 186.773C197.944 188.291 199.117 186.773 200.204 186.773C200.704 186.773 200.204 186.1 200.204 185.755C200.204 184.738 199.031 184.03 199.669 182.806C199.859 182.461 199.997 181.926 200.48 182.219C201.636 182.857 202.464 181.943 203.43 181.719C204.896 181.374 202.654 179.114 204.068 178.648C205.483 178.183 204.637 181.736 206.759 180.563C206.943 180.487 207.133 180.43 207.328 180.391C207.932 180.235 208.484 180.391 208.656 180.977C208.829 181.564 208.398 181.84 207.88 182.064C206.155 182.788 206.035 183.202 206.828 184.858C207.225 185.721 208.553 184.858 208.553 185.911C208.553 186.566 207.449 186.756 207.794 187.636C208.139 188.515 208.656 189.361 207.622 189.706C206.586 190.051 206.345 188.86 206.017 188.101C205.396 186.635 204.396 187.739 203.585 187.774C202.774 187.808 202.757 188.533 203.033 189.085C203.309 189.637 203.171 191.465 204.465 191.551ZM199.29 194.553C199.29 195.467 199.428 197.261 200.911 197.278C201.808 197.278 203.309 197.934 203.758 196.554C204.603 194.104 199.307 192.707 199.341 194.553H199.29ZM199.445 192.414C200.032 191.689 201.722 192.828 201.808 191.482C201.808 190.603 201.808 188.826 200.601 188.705C199.773 188.602 198.117 188.584 197.754 189.913C197.684 190.471 197.824 191.036 198.145 191.498C198.467 191.96 198.949 192.286 199.497 192.414H199.445ZM196.357 194.518C194.995 194.518 194.632 194.674 194.925 195.398C195.219 196.123 194.925 197.917 196.461 198.037C196.978 198.037 198.186 198.348 198.306 197.244C198.462 195.795 197.41 194.501 196.409 194.518H196.357ZM197.91 202.954C198.772 202.419 200.256 202.833 200.118 201.729C200.014 200.918 199.963 199.279 198.393 199.417C197.806 199.417 196.513 199.159 196.668 200.228C196.676 200.748 196.796 201.261 197.019 201.731C197.242 202.201 197.564 202.618 197.962 202.954H197.91ZM202.757 186.652C203.568 186.169 204.982 186.652 205.155 185.531C205.241 184.91 205.155 183.323 203.861 183.513C203.067 183.634 201.636 183.513 201.618 184.876C201.653 185.479 201.705 186.532 202.809 186.652H202.757Z" fill="#4CA8DF"/>
<path d="M241.983 180.563C243.047 181.004 244.069 181.541 245.036 182.167C246.054 182.581 245.691 183.15 245.243 183.65C243.897 185.099 242.345 185.375 243.759 186.014C244.346 186.307 244.932 186.566 245.484 186.911C247.089 187.911 247.209 189.602 245.64 190.568C243.19 192.069 246.433 192.689 247.968 194.828C248.244 195.225 248.607 195.657 248.158 196.174C248.085 196.277 247.99 196.363 247.88 196.426C247.77 196.489 247.648 196.528 247.522 196.539C247.396 196.551 247.269 196.535 247.149 196.492C247.03 196.45 246.921 196.383 246.83 196.295C245.829 195.57 245.312 196.588 244.605 196.933C243.897 197.278 246.226 199.244 248.055 198.365C248.676 198.071 249.486 197.537 249.78 198.003C250.073 198.468 249.624 198.641 249.383 198.83C247.658 200.245 249.987 200.728 248.934 201.711C247.882 202.695 247.209 200.814 246.381 201.211C245.553 201.608 245.001 201.901 244.777 202.453C244.553 203.005 245.502 203.091 245.933 203.35C247.209 204.092 247.227 204.074 249.383 203.695C248.796 204.557 248.469 205.42 249.573 205.937C250.228 206.282 249.883 207.283 248.952 207.059C248.02 206.834 247.089 206.058 245.967 206.524C245.795 206.524 245.519 206.369 245.571 206.179C246.019 204.954 244.829 204.937 244.311 204.454C243.466 203.747 242.586 203.264 241.62 204.454C241.564 204.54 241.489 204.612 241.4 204.666C241.312 204.719 241.213 204.752 241.11 204.762C241.008 204.772 240.904 204.758 240.808 204.723C240.711 204.688 240.623 204.631 240.551 204.557C239.964 203.954 240.758 203.367 241.431 202.729C240.81 202.246 240.223 201.797 239.706 201.314C239.586 201.216 239.507 201.079 239.481 200.926C239.456 200.774 239.487 200.618 239.568 200.487C239.775 200.176 240.085 200.262 240.378 200.383C243.069 201.59 242.811 201.918 245.105 200.141C243.673 198.917 242.707 197.744 241.465 199.193C241.275 199.354 241.066 199.493 240.844 199.607C240.361 199.934 239.706 200.211 239.361 199.745C239.016 199.279 239.654 198.813 240.068 198.485C241.5 197.364 241.5 197.364 240.068 196.157C239.688 195.863 238.998 195.622 239.343 195.053C239.688 194.483 240.24 194.932 240.689 195.053C241.052 195.219 241.404 195.409 241.741 195.622C242.229 195.883 242.793 195.962 243.333 195.845C243.874 195.728 244.355 195.423 244.691 194.984C245.295 194 242.673 192.69 241.482 193.397C240.947 193.854 240.325 194.2 239.654 194.414C239.326 194.414 238.929 194.552 238.74 194.156C238.55 193.759 239.102 193.293 239.188 193.121C239.568 192.396 241.155 192.017 240.706 191.396C240.385 190.858 239.958 190.391 239.451 190.023C238.944 189.656 238.367 189.395 237.756 189.257C237.08 188.643 236.584 187.856 236.325 186.98C236.601 186.445 237.049 186.479 237.463 186.755C238.429 187.411 238.929 186.583 239.188 186.014C239.447 185.444 238.602 185.427 238.36 185.065C238.36 185.065 238.257 185.065 238.222 185.065C237.722 184.582 236.618 184.22 237.015 183.443C237.411 182.667 238.308 183.444 238.947 183.668C240.102 184.013 241.241 185.22 242.397 183.668C242.621 183.357 242.88 183.081 242.397 182.84C241.189 182.236 239.999 181.115 238.533 182.322C238.329 182.474 238.102 182.591 237.86 182.667C237.532 182.788 237.153 182.857 236.911 182.512C236.67 182.167 236.911 181.839 237.204 181.615C237.894 181.046 238.291 180.528 237.204 179.89C236.428 179.51 237.204 178.355 238.17 178.907C238.747 179.2 239.401 179.304 240.04 179.201C240.679 179.099 241.268 178.797 241.724 178.337C242.397 177.854 242.586 177.578 241.914 177.044C241.241 176.509 241.31 175.974 241.914 175.319C243.178 173.71 244.549 172.188 246.019 170.765C246.778 170.109 247.451 169.609 248.451 170.61C249.452 171.61 249.555 172.058 248.641 173.076C247.787 174.118 246.808 175.051 245.726 175.853C244.018 176.957 243.328 178.889 241.983 180.563ZM245.433 188.981C243.984 188.308 242.414 187.583 241.776 187.256C241.137 186.928 240.585 187.428 240.051 187.756C239.085 188.411 241.948 191.206 244.536 189.481L245.433 188.981Z" fill="#4CA8DF"/>
<path d="M223.749 192.051C224.991 190.516 223.749 190.033 222.972 189.308C222.196 188.584 221.696 188.204 220.73 188.808C220.23 189.118 219.798 189.325 220.126 190.05C220.196 190.244 220.196 190.457 220.128 190.652C220.059 190.846 219.925 191.012 219.749 191.119C219.572 191.226 219.364 191.27 219.159 191.242C218.955 191.213 218.766 191.115 218.625 190.964C218.578 190.939 218.537 190.903 218.505 190.861C217.987 189.929 217.056 190.861 216.521 190.429C215.693 189.86 217.28 189.308 216.693 188.618C216.107 187.928 215.814 186.893 214.52 187.29C214.379 187.353 214.22 187.362 214.073 187.314C213.927 187.266 213.803 187.165 213.726 187.031C213.537 186.686 214.002 186.531 214.037 186.307C214.296 185.03 214.382 184.15 216.331 184.582C217.642 184.858 217.918 183.719 216.866 182.581C216.297 181.96 215.917 181.045 214.71 181.528C214.261 181.718 213.675 181.028 213.985 180.752C214.744 180.062 214.554 179.579 213.985 178.941C213.416 178.303 214.589 177.544 215.124 178.268C217.194 181.149 218.401 175.56 222.576 178.941C223.386 179.614 224.301 180.666 225.577 179.545C226.215 179.027 227.302 178.855 226.284 177.716C225.853 177.25 226.664 176.353 227.423 176.974C229.286 178.527 229.941 175.888 231.028 176.974C232.115 178.061 230.269 178.199 230.373 179.182C230.476 180.166 229.752 180.166 229.2 179.993C228.906 179.893 228.591 179.874 228.287 179.937C227.984 180.001 227.703 180.146 227.475 180.355C227.043 180.7 225.888 180.787 226.457 181.632C228.182 184.133 228.837 181.632 230.856 181.528C231.287 181.528 231.684 181.528 231.891 181.994C232.098 182.46 231.39 183.133 230.718 183.495C230.045 183.857 228.837 184.116 230.062 185.22C230.304 185.427 230.183 185.789 229.941 186.013C229.7 186.238 229.32 186.22 228.975 186.013C228.232 185.667 227.399 185.56 226.592 185.709C225.785 185.857 225.045 186.253 224.473 186.841C224.359 186.933 224.28 187.061 224.249 187.204C224.249 187.894 226.629 189.308 227.25 188.929C227.869 188.423 228.569 188.027 229.32 187.756C230.442 187.549 230.7 188.635 230.028 188.929C227.958 189.929 226.474 191.844 223.749 192.051ZM222.248 181.252C221.989 180.666 221.351 180.493 220.937 180.079C220.725 179.873 220.471 179.714 220.192 179.613C219.913 179.513 219.617 179.472 219.321 179.495C219.026 179.518 218.739 179.604 218.479 179.746C218.219 179.888 217.993 180.084 217.815 180.321C217.176 181.321 218.556 181.477 218.85 182.046C218.946 182.22 219.09 182.363 219.264 182.46C220.161 183.098 220.713 182.167 221.403 181.942C221.748 181.891 222.179 181.753 222.248 181.252ZM225.939 184.116C225.508 183.719 225.267 183.478 224.991 183.253C223.8 182.339 220.523 183.253 221.092 184.426C221.201 184.7 221.371 184.945 221.59 185.143C221.808 185.34 222.069 185.485 222.352 185.567C222.634 185.648 222.932 185.664 223.222 185.613C223.512 185.562 223.787 185.445 224.025 185.272L225.939 184.116ZM219.16 187.911C219.609 187.721 220.299 187.669 220.454 186.962C220.609 186.255 219.212 185.099 218.729 185.237C215.624 185.772 218.556 188.014 219.16 187.911Z" fill="#4CA8DF"/>
<path d="M116.148 104.128C115.717 98.6769 118.926 95.5029 123.169 93.0706C124.618 92.2254 125.688 92.7256 125.877 94.3299C126.189 95.3725 126.599 96.3833 127.102 97.3486C127.206 97.6936 127.43 97.9869 127.533 98.3146C128.931 102.351 128.81 102.299 125.912 104.473C124.69 105.319 123.537 106.259 122.462 107.285C122.149 107.652 121.722 107.903 121.249 107.997C120.777 108.09 120.286 108.022 119.857 107.802C118.891 107.388 117.942 106.94 116.994 106.457C116.045 105.974 116.097 104.99 116.148 104.128Z" fill="#4CA8DF"/>
<path d="M176.417 112.759C176.555 111.638 176.572 110.861 177.935 110.309C179.66 109.637 181.005 106.118 182.23 105.859C182.419 105.808 182.616 105.798 182.809 105.829C183.002 105.86 183.186 105.932 183.349 106.04C183.512 106.147 183.651 106.288 183.755 106.454C183.86 106.619 183.928 106.804 183.955 106.997C184.904 110.948 187.095 114.329 188.854 117.917C189.82 119.831 189.458 120.918 187.526 122.022C187.008 122.315 186.819 123.747 185.473 123.35C184.559 123.109 184.197 122.246 183.748 121.625C181.488 119.021 177.038 115.916 176.417 112.759Z" fill="#4CA8DF"/>
<path d="M151.648 222.827C160.273 224.81 158.686 225.207 160.169 235.488C160.376 236.92 159.6 237.696 158.203 237.386C154.989 236.429 151.941 234.986 149.164 233.108C148.06 232.469 148.612 232.211 150.371 223.793C150.377 223.64 150.417 223.49 150.488 223.354C150.559 223.218 150.659 223.1 150.781 223.008C150.903 222.915 151.044 222.851 151.194 222.82C151.344 222.788 151.499 222.791 151.648 222.827Z" fill="#4CA8DF"/>
<path d="M201.826 157.954C201.826 154.504 204.224 150.899 207.139 153.055C208.432 153.81 209.382 155.037 209.79 156.478C210.199 157.918 210.034 159.461 209.33 160.783C209.114 161.455 208.71 162.051 208.166 162.5C207.622 162.95 206.96 163.234 206.259 163.319C203.551 163.474 201.826 160.421 201.826 157.954Z" fill="#4CA8DF"/>
<path d="M304.328 20.2618C302.258 20.417 299.653 18.7265 301.568 16.4668C301.951 15.8765 302.497 15.4095 303.14 15.1219C303.782 14.8342 304.494 14.7382 305.19 14.8453C305.897 15.0173 306.529 15.4152 306.99 15.9786C307.451 16.542 307.715 17.2403 307.743 17.9675C307.64 19.5028 306.553 20.2618 304.328 20.2618Z" fill="#4CA8DF"/>
<path d="M63.33 233.059C63.9337 233.059 64.7445 233.059 64.71 233.801C64.6755 234.543 63.882 234.525 63.2437 234.508C48.7192 233.87 49.254 233.939 49.0815 233.87C48.633 233.715 47.8912 233.732 47.943 233.111C47.9947 232.49 48.6847 232.766 49.0815 232.749C54.36 232.645 63.3127 233.059 63.33 233.059Z" fill="#4CA8DF"/>
<path d="M182.025 213.253C182.129 212.097 182.319 211.045 183.647 210.838C185.855 210.493 186.286 213.408 186.355 215.668C186.383 215.982 186.31 216.298 186.147 216.569C185.985 216.84 185.741 217.053 185.45 217.178C185.159 217.302 184.837 217.331 184.529 217.261C184.22 217.192 183.942 217.026 183.733 216.789C182.793 215.828 182.193 214.586 182.025 213.253Z" fill="#4CA8DF"/>
<path d="M81.7692 260.086C78.1984 259.569 74.2827 259.931 70.4014 259.551C70.0392 259.551 69.4699 259.672 69.5044 259.068C69.5389 258.465 70.0909 258.672 70.4704 258.62C74.5615 258.292 78.6684 258.206 82.7697 258.361C83.4079 258.361 84.3739 258.12 84.4947 259.137C84.6154 260.155 83.5459 259.931 82.9077 260.069C82.5295 260.11 82.1484 260.115 81.7692 260.086Z" fill="#4CA8DF"/>
<path d="M199.637 309.631C200.999 307.906 199.947 305.819 201.068 294.262C201.793 286.948 202.207 279.668 202.224 272.32C202.224 267.731 204.812 248.308 204.225 240.752C203.69 233.956 208.503 230.902 205.674 222.139C205.364 221.191 205.864 220.414 205.847 219.673C205.829 218.931 210.021 219.673 210.297 220.552C210.452 221.07 210.539 221.777 211.16 221.812C211.781 221.846 212.315 221.38 212.419 220.587C212.522 219.793 213.161 220.087 213.609 220.087C225.046 220.087 222.079 220.466 232.308 219.034C233.826 218.827 233.378 219.793 233.464 220.294C233.619 221.156 233.343 222.502 234.671 222.433C236 222.364 235.931 221.018 235.844 220.19C235.706 218.672 236.465 218.31 237.656 218.362C238.846 218.413 239.743 217.62 240.571 218.137C241.399 218.655 240.916 219.983 241.054 220.932C244.262 242.167 243.296 241.632 244.055 249.308C244.504 253.862 245.401 258.347 246.005 262.884C246.108 263.677 245.366 257.26 249.989 298.384C250.539 301.078 250.856 303.813 250.938 306.561C250.817 308.803 250.145 309.7 247.919 309.838C242.376 310.183 236.828 310.482 231.273 310.735C229.272 310.822 228.858 310.304 228.944 308.355C229.203 303.18 227.426 281.635 227.099 264.143C227.026 258.741 226.565 253.351 225.719 248.014C225.253 245.185 225.598 241.942 224.356 241.994C223.459 241.994 223.407 242.218 223.235 255.242C223.235 261.004 222.51 266.731 222.131 272.492C221.768 277.667 222.51 279.685 220.82 304.163C220.664 306.181 220.25 308.2 219.905 310.201C219.888 310.447 219.822 310.688 219.711 310.908C219.599 311.129 219.445 311.325 219.258 311.486C219.07 311.646 218.852 311.768 218.617 311.843C218.381 311.919 218.133 311.947 217.887 311.926C213.299 311.891 203.311 312.219 199.637 309.631Z" fill="#B1F1FF"/>
<path d="M94.4103 316.584C94.4103 320.034 94.4103 322.449 94.4103 324.864C94.4103 327.624 94.0308 330.333 93.8066 333.075C93.809 333.252 93.7757 333.427 93.7087 333.59C93.6417 333.754 93.5424 333.902 93.4167 334.026C93.2911 334.15 93.1416 334.247 92.9774 334.312C92.8132 334.377 92.6376 334.408 92.4611 334.404C90.3566 334.404 92.0643 330.005 91.9781 322.898C91.8056 308.839 92.3058 308.529 90.2531 308.563C85.9061 308.649 81.6281 309.391 77.2983 309.477C70.5536 309.598 63.8088 309.339 57.0813 309.598C45.8861 310.012 45.1098 309.098 45.2651 310.995C45.4893 313.98 45.6446 316.964 45.8861 319.948C46.0758 322.363 45.4548 324.726 45.5583 327.141C45.5583 327.883 45.7826 328.28 46.5933 328.176C50.9576 327.573 55.3563 328.004 59.7378 327.383C69.516 325.85 79.4439 325.508 89.3043 326.365C90.4946 326.365 90.2013 327.331 89.4423 327.538C85.5266 328.59 86.7341 326.831 72.1923 328.125C70.3638 328.297 68.5181 328.125 66.6723 328.401C54.2006 330.126 51.5786 329.763 47.6973 329.625C43.4883 329.487 46.2828 332.523 44.2473 332.661C42.5223 332.799 42.6258 329.867 42.6776 328.211C43.7298 297.489 42.2808 287.777 42.6776 283.671C42.8846 281.757 43.6608 267.301 43.5401 262.971C43.2641 251.569 42.5741 262.747 43.1606 234.181C43.2986 227.471 42.8156 220.761 42.9881 214.05C43.1433 207.737 42.2981 201.406 42.6776 195.075C42.7811 193.35 43.5573 178.964 42.9708 177.273C42.9214 177.147 42.8997 177.011 42.9072 176.875C42.9147 176.74 42.9512 176.607 43.0144 176.487C43.0775 176.367 43.1657 176.261 43.2731 176.178C43.3805 176.095 43.5045 176.036 43.6367 176.005C43.7689 175.973 43.9063 175.971 44.0396 175.997C44.1728 176.024 44.2988 176.079 44.409 176.158C44.5193 176.238 44.6112 176.34 44.6785 176.458C44.7458 176.576 44.787 176.707 44.7993 176.842C45.7136 184.156 44.3163 180.292 45.4548 195.213C45.654 199.312 45.6021 203.42 45.2996 207.513C45.2996 208.755 44.9028 210.238 47.0246 209.634C47.2167 209.591 47.4183 209.626 47.5849 209.731C47.7515 209.836 47.8695 210.003 47.913 210.195C47.9564 210.387 47.9218 210.589 47.8166 210.755C47.7115 210.922 47.5445 211.04 47.3523 211.083C47.1281 211.187 46.8348 211.377 46.6451 211.325C44.4543 210.652 44.9201 212.256 44.9201 213.36C44.7993 217.224 44.4543 221.071 44.6613 224.935C45.1961 235.061 44.6613 245.187 44.9201 255.312C45.1099 256.598 45.2136 257.894 45.2306 259.194C45.2306 259.573 45.2306 259.746 45.8171 259.78C50.3006 259.936 54.7894 259.797 59.2548 259.366C62.1873 259.176 65.1371 259.125 68.0696 258.711C68.2299 258.67 68.397 258.664 68.5598 258.693C68.7227 258.722 68.8776 258.785 69.0144 258.878C69.1512 258.97 69.2669 259.091 69.3538 259.232C69.4407 259.372 69.4968 259.53 69.5186 259.694C69.6911 260.643 68.9321 260.936 68.2421 261.039C63.3945 261.703 58.5069 262.031 53.6141 262.023C46.5416 262.385 44.9891 260.781 45.2996 262.54C45.7826 266.145 45.0753 269.733 45.0236 273.321C45.0236 273.96 44.8856 274.029 45.7481 274.167C49.6466 274.805 53.5278 274.167 57.4091 274.167C65.1198 274.339 84.3363 272.597 87.9588 272.787C88.8903 272.787 89.9598 272.787 89.9426 273.994C89.9253 275.202 88.9421 275.443 87.8898 275.46C76.2116 275.736 67.3278 278.634 55.3046 277.099C52.1306 276.685 48.9393 276.513 45.7998 275.874C45.0753 275.719 44.9201 276.047 44.9201 276.668C44.9201 280.929 44.4026 285.172 44.5751 289.433C44.5751 290.106 44.5751 290.692 45.5411 290.502C48.4007 290.082 51.3065 290.082 54.1661 290.502C63.5673 291.399 70.3638 286.121 88.2693 288.777C90.7878 289.157 90.6671 289.209 90.8396 286.569C91.0983 282.24 90.8396 277.858 91.1156 273.546C92.3231 257.227 91.1156 238.476 91.7538 229.127C92.8751 212.256 91.2018 186.002 93.4788 174.634C93.538 174.31 93.7199 174.022 93.9867 173.829C94.2535 173.636 94.5845 173.554 94.9106 173.599C96.9116 173.599 96.3078 177.636 96.0663 179.619C95.8248 181.603 94.9623 197.163 95.3246 203.01C95.5488 206.719 95.4626 210.428 95.5833 214.137C95.616 217.93 95.2576 221.716 94.5138 225.435C94.2551 227.674 94.1514 229.927 94.2033 232.18C93.9361 237.133 93.9361 242.097 94.2033 247.05C94.3413 248.775 94.0308 250.655 94.0136 252.449C94.0136 258.969 94.1861 265.507 93.8928 272.01C92.9613 301.473 94.5483 305.32 94.4103 316.584ZM91.4261 307.683C91.4261 296.868 91.4261 301.818 91.1673 292.693C91.1673 291.261 91.4778 292.089 79.7133 292.279C74.6936 292.279 69.6738 292.279 64.6886 292.745C58.5432 293.581 52.3244 293.737 46.1448 293.211C45.2823 293.107 45.0408 293.211 45.0753 294.159C45.2018 297.713 45.2996 301.266 45.3686 304.82C45.3686 308.149 45.3686 308.149 48.6288 308.011C83.8016 306.528 69.1908 307.235 73.4516 306.976C75.7976 306.838 78.1436 306.976 80.4723 306.717C83.3967 306.361 86.3411 306.194 89.2871 306.217C90.2703 306.269 91.2881 306.459 91.4261 307.683Z" fill="#B1F1FF"/>
<path d="M231.655 182.016C231.914 178.394 230.051 176.255 231.534 175.116C231.955 174.888 232.43 174.781 232.908 174.805C233.386 174.829 233.847 174.985 234.243 175.254C235.138 175.591 235.898 176.212 236.406 177.022C236.914 177.832 237.142 178.787 237.054 179.739C236.364 188.589 236.192 192.384 239.124 195.799C240.418 197.3 239.935 197.386 240.108 209.599C240.108 211.462 240.953 213.049 239.694 213.273C238.917 213.394 238.141 213.515 237.348 213.584C236.157 213.705 234.898 214.032 234.432 212.342C234.208 211.548 232.707 211.566 232.88 212.946C233.052 214.326 232.345 214.55 231.258 214.515C225.393 214.36 219.546 214.809 213.681 214.86C212.818 214.86 211.956 215.033 212.111 213.636C212.266 212.704 210.938 212.204 210.041 213.636C209.765 214.101 210.041 214.895 209.213 215.085C208.385 215.274 207.488 214.826 206.556 214.74C206.16 214.74 206.211 214.446 206.263 214.101C206.901 210.358 208.126 203.337 208.178 200.888C208.178 197.317 209.403 189.192 209.42 186.95C209.51 183.77 209.815 180.601 210.334 177.462C210.455 176.6 210.783 175.875 211.835 176.013C212.05 176.036 212.258 176.103 212.447 176.21C212.635 176.317 212.799 176.461 212.928 176.635C213.058 176.808 213.15 177.006 213.2 177.217C213.249 177.428 213.254 177.646 213.215 177.859C213.166 180.687 213.397 183.512 213.905 186.294C214.578 193.056 232.587 194.471 231.655 182.016Z" fill="#B1F1FF"/>
<path d="M42.3349 114.504C42.197 110.761 42.5743 107.017 43.4561 103.377C44.3359 99.2892 46.9061 96.4775 49.8904 93.9072C51.958 92.0074 54.2804 90.405 56.7904 89.1462C60.2404 87.4212 63.6904 86.3862 67.3819 88.8357C68.3306 89.4912 69.7969 88.6287 70.8319 91.4232C70.9229 91.6036 70.9433 91.8115 70.8891 92.0061C70.8348 92.2008 70.7098 92.3682 70.5386 92.4755C70.1246 92.7342 69.6934 92.9412 69.2966 92.579C67.3301 90.7332 65.9501 92.4237 64.6564 93.4932C62.9464 95.2244 61.5045 97.2012 60.3784 99.3582C58.2566 102.549 58.3774 105.948 58.9811 109.449C59.1114 110.342 59.551 111.16 60.2231 111.761C61.1201 112.572 60.8441 113.486 59.8091 114.038C59.3089 114.297 58.3429 113.727 58.3084 114.831C58.2088 115.373 58.2315 115.929 58.3748 116.46C58.518 116.992 58.7782 117.484 59.1364 117.902C61.9654 120.714 68.4686 118.661 67.9511 122.611C67.8673 122.873 67.8825 123.156 67.9938 123.407C68.1051 123.659 68.3047 123.86 68.5549 123.974C69.8995 124.565 71.0109 125.584 71.716 126.873C72.4211 128.161 72.6803 129.647 72.4534 131.098C72.1316 133.684 71.1384 136.14 69.5726 138.222C68.7101 139.344 67.4336 139.827 66.4676 140.775C65.8769 141.265 65.37 141.848 64.9669 142.5C64.5011 143.553 64.0699 143.277 63.4834 142.638C59.5504 138.464 62.6036 132.996 65.0704 128.459C65.3119 128.01 65.8811 127.493 65.2601 127.01C63.7766 125.854 63.0004 130.029 55.8071 137.619C55.1344 138.343 54.3754 138.912 53.3576 138.119C53.1161 137.946 52.8056 137.601 53.1851 137.429C54.3064 136.877 54.1684 135.704 54.4961 134.859C55.4285 132.832 56.5857 130.917 57.9461 129.149C58.3256 128.493 57.6356 128.114 57.2389 128.614C56.1004 130.063 54.8066 129.511 53.4956 128.942C50.1319 127.458 46.5956 126.182 44.1116 123.301C41.8864 120.869 42.3349 119.799 42.3349 114.504ZM50.9599 111.916C50.7356 111.571 51.0634 111.347 51.3221 111.709C51.8396 112.434 52.4434 112.865 53.3404 112.382C54.2374 111.899 54.5824 111.692 54.1684 110.76C53.7544 109.829 53.4784 108.466 51.7534 108.673C50.5114 108.88 50.6321 109.294 50.5631 110.053C50.1146 109.967 49.8386 109.398 49.4419 110.277C49.3247 110.602 49.281 110.948 49.3138 111.291C49.3466 111.634 49.4552 111.965 49.6316 112.261C50.8909 113.469 51.1841 112.399 50.9771 111.916H50.9599Z" fill="#B1F1FF"/>
<path d="M215.114 160.422C215.114 157.627 215.718 157.248 217.908 157.817C222.083 158.904 226.292 159.87 230.484 160.87C231.588 161.129 232.209 161.715 231.812 162.888C231.399 164.166 230.921 165.421 230.38 166.649C229.772 167.674 228.84 168.466 227.73 168.9C226.621 169.335 225.398 169.386 224.256 169.047C219.53 167.201 217.908 170.772 216.494 166.287C215.879 164.371 215.418 162.41 215.114 160.422Z" fill="#B1F1FF"/>
<path d="M122.756 73.1713C123.192 73.0936 123.641 73.1864 124.01 73.4304C124.379 73.6744 124.64 74.051 124.74 74.4823C125.137 75.6208 126.016 76.9491 124.74 77.9323C120.031 81.3823 120.341 85.6776 122.239 90.3351C122.791 91.6806 122.911 92.6983 121.497 93.6643C118.461 95.7171 118.616 92.7501 117.374 87.2473C117.207 86.3636 116.977 85.493 116.684 84.6426C116.27 83.6076 115.908 82.5381 114.373 82.4863C113.687 82.2833 113.081 81.8721 112.639 81.3097C112.197 80.7472 111.941 80.0613 111.906 79.3468C112.027 77.6218 113.148 77.8116 118.306 74.7066C119.722 74.0171 121.216 73.5015 122.756 73.1713Z" fill="#B1F1FF"/>
<path d="M86.0316 134.375C83.0474 135.479 83.2026 138.705 78.0966 141.275C77.5546 141.514 76.962 141.615 76.3716 141.569C75.4746 141.569 75.1296 140.551 76.0611 140.068C80.8739 137.584 83.6511 133.168 86.4111 128.786C86.5795 128.401 86.857 128.073 87.2095 127.843C87.562 127.613 87.974 127.491 88.3949 127.493C89.4126 127.596 89.4989 127.613 89.9819 144.743C89.9819 145.226 90.1199 145.933 89.4816 145.967C88.8434 146.002 88.8606 145.243 88.7916 144.708C88.1016 137.808 88.2396 137.998 87.8256 137.808C87.4116 137.618 87.2909 138.17 87.1701 138.464C84.5309 144.725 81.6501 146.502 76.4406 147.796C75.8886 147.934 75.0089 148.02 75.0261 146.985C75.0105 146.822 75.0308 146.657 75.0857 146.503C75.1405 146.348 75.2287 146.208 75.3438 146.091C75.4589 145.974 75.5983 145.884 75.752 145.827C75.9058 145.77 76.0702 145.747 76.2336 145.76C80.0114 145.553 82.2194 143.069 84.0134 140.154C85.1651 138.43 85.8596 136.442 86.0316 134.375Z" fill="#B1F1FF"/>
<path d="M48.8183 245.048C52.9583 245.79 57.4434 245.669 62.0146 246.014C64.2054 246.17 66.3616 245.48 68.5696 245.687C69.1561 245.687 69.8116 245.6 70.0014 246.428C70.1911 247.256 69.6564 247.653 69.0009 247.808C63.8258 249.102 54.6488 248.171 49.4566 247.222C46.7828 246.722 45.7478 247.222 45.7306 246.17C45.7133 245.117 47.4038 245.117 48.8183 245.048Z" fill="#B1F1FF"/>
<path d="M73.3315 112.949C73.3315 115.088 72.0378 117.003 70.5715 116.779C68.2773 116.399 66.0865 115.313 66.121 112.622C66.1203 112.152 66.2154 111.688 66.4005 111.256C66.5857 110.825 66.8569 110.436 67.1976 110.113C67.5384 109.79 67.9414 109.54 68.3822 109.378C68.8229 109.216 69.292 109.146 69.7608 109.172C70.2462 109.176 70.7257 109.278 71.1708 109.472C71.6158 109.666 72.017 109.948 72.3505 110.3C72.6839 110.653 72.9427 111.07 73.1113 111.525C73.2798 111.98 73.3547 112.465 73.3315 112.949Z" fill="#B1F1FF"/>
<path d="M53.0446 149.88C50.7309 150.072 48.4042 149.724 46.2481 148.863C46.0239 148.707 45.7134 148.535 45.8341 148.155C45.8638 147.98 45.9584 147.822 46.099 147.714C46.2396 147.605 46.4161 147.553 46.5931 147.569C51.4852 147.593 56.3731 147.276 61.2211 146.62C61.7386 146.62 62.2561 146.62 62.4286 147.224C62.9116 148.949 59.6859 149.449 57.9091 149.553C56.3041 149.837 54.6732 149.946 53.0446 149.88Z" fill="#B1F1FF"/>
<path d="M112.457 135.686C112.457 136.945 111.801 137.256 110.732 136.773C109.662 136.29 109.007 135.048 108.196 134.065C105.912 131.004 103.881 127.762 102.124 124.37C101.865 123.922 101.71 123.335 102.124 123.007C102.538 122.68 102.918 123.197 103.245 123.49C104.331 124.502 105.267 125.664 106.023 126.94C109.145 132.012 112.336 134.548 112.457 135.686Z" fill="#B1F1FF"/>
<path d="M208.934 315.842C206.019 315.342 198.291 315.048 197.998 314.893C197.273 314.531 195.928 314.307 196.118 313.513C196.411 312.288 198.17 313.979 202.414 313.72C205.07 313.565 207.589 314.393 210.314 314.358C214.023 314.358 216.059 313.479 220.112 313.427C220.526 313.427 220.992 313.427 221.009 313.996C221.027 314.565 220.509 314.531 220.233 314.565C216.662 314.841 213.178 315.876 208.934 315.842Z" fill="#B1F1FF"/>
<path d="M230.844 312.823C237.024 312.687 243.186 312.111 249.284 311.098C250.302 310.805 250.509 311.581 249.629 312.168C248.511 312.734 247.276 313.029 246.024 313.03C241.125 313.599 231.861 314.755 227.049 313.979C226.871 313.948 226.71 313.858 226.591 313.723C226.472 313.588 226.402 313.417 226.393 313.237C226.445 312.668 226.514 312.84 230.844 312.823Z" fill="#B1F1FF"/>
<path d="M98.1747 141.687C98.2955 142.084 97.9332 142.153 97.6917 142.308C97.5507 142.416 97.3733 142.466 97.1966 142.447C97.0198 142.427 96.8573 142.34 96.743 142.204C95.1905 140.341 93.293 133.303 91.568 128.404C91.466 128.208 91.4343 127.983 91.4783 127.766C91.5222 127.55 91.6391 127.355 91.8095 127.214C92.327 126.835 92.7927 127.214 93.086 127.645C93.7415 128.508 93.8105 128.922 97.8815 140.479C98.0012 140.876 98.0991 141.279 98.1747 141.687Z" fill="#B1F1FF"/>
<path d="M97.6888 125.921C97.909 125.921 98.123 125.994 98.2977 126.128C98.4723 126.262 98.5978 126.45 98.6548 126.663C100.552 130.613 102.467 134.58 104.347 138.531C104.572 139.014 104.917 139.635 104.175 139.945C102.139 140.825 101.484 138.134 97.2748 127.266C97.1368 126.68 96.878 126.093 97.6888 125.921Z" fill="#B1F1FF"/>
<path d="M114.885 127.387C113.971 127.491 113.402 126.818 112.798 126.352C110.383 124.489 107.968 122.574 105.605 120.625C105.087 120.194 104.018 119.676 104.518 118.9C105.018 118.124 105.898 118.9 106.536 119.176C109.748 121.099 112.841 123.213 115.8 125.507C116.006 125.608 116.165 125.784 116.245 125.999C116.326 126.214 116.32 126.451 116.231 126.663C116.122 126.918 115.929 127.129 115.685 127.26C115.441 127.392 115.159 127.437 114.885 127.387Z" fill="#B1F1FF"/>
<path d="M53.1513 167.045C54.0655 167.287 55.1868 166.769 55.1695 167.891C55.1523 169.012 54.3588 169.167 53.341 169.253C51.2323 169.58 49.1628 170.124 47.1655 170.875C41.9043 172.393 41.68 172.91 41.2833 172.169C41.0245 171.703 41.4558 171.358 41.68 170.996C41.68 170.996 41.818 170.858 41.9043 170.806C45.5304 169.211 49.2951 167.952 53.1513 167.045Z" fill="#B1F1FF"/>
<path d="M109.922 112.655C110.871 112.655 110.94 112.655 118.237 117.071C119.203 117.657 120.186 118.451 119.53 119.365C118.875 120.279 117.495 119.607 111.906 115.915C111.095 115.363 110.353 114.708 109.543 114.19C108.732 113.673 108.111 112.931 109.922 112.655Z" fill="#B1F1FF"/>
<path d="M323.788 15.106C324.126 15.0664 324.468 15.0998 324.792 15.2038C325.116 15.3078 325.414 15.4801 325.666 15.7089C325.918 15.9378 326.117 16.2179 326.252 16.5305C326.386 16.8431 326.452 17.1808 326.444 17.521C326.425 18.2938 326.135 19.0352 325.624 19.6155C325.113 20.1957 324.414 20.5778 323.65 20.695C322.959 20.5737 322.321 20.2446 321.822 19.7515C321.322 19.2583 320.985 18.6246 320.855 17.935C320.941 17.1968 321.28 16.5112 321.815 15.9952C322.35 15.4792 323.047 15.1649 323.788 15.106Z" fill="#B1F1FF"/>
<path d="M42.764 164.128C42.3327 164.128 41.8497 164.266 41.7462 163.662C41.7269 163.522 41.7359 163.38 41.7726 163.244C41.8093 163.108 41.873 162.98 41.9599 162.869C42.0468 162.758 42.1551 162.666 42.2784 162.598C42.4017 162.529 42.5375 162.486 42.6777 162.472C45.9098 161.635 49.2035 161.059 52.5275 160.747C53.3037 160.643 54.2525 160.747 54.2525 161.695C54.3732 163.576 51.2855 162.403 42.764 164.128Z" fill="#B1F1FF"/>
<path d="M81.0792 151.433C79.6819 151.433 78.3537 151.709 78.2847 150.312C78.2847 149.553 78.9574 149.518 79.3542 149.518C81.8554 149.518 84.2704 148.673 86.7889 148.776C87.4099 148.776 88.0654 148.776 88.1172 149.587C88.1689 150.398 87.4962 150.726 86.8579 150.812C84.9553 151.199 83.0206 151.407 81.0792 151.433Z" fill="#B1F1FF"/>
<path d="M113.097 108.43C114.494 108.733 115.842 109.233 117.099 109.913C118.215 110.177 119.278 110.632 120.239 111.259C120.704 111.673 121.136 112.138 120.739 112.794C120.583 113.031 120.344 113.199 120.068 113.267C119.793 113.334 119.503 113.294 119.255 113.156C116.944 112.138 114.667 111.069 112.355 110.017C111.855 109.792 111.476 109.378 111.683 108.861C111.89 108.343 112.545 108.464 113.097 108.43Z" fill="#B1F1FF"/>
<path d="M53.7747 171.649C54.1886 171.649 54.6027 171.649 54.8269 172.063C54.9399 172.291 54.9654 172.552 54.8987 172.797C54.8319 173.041 54.6774 173.253 54.4646 173.392C52.5272 174.84 50.4666 176.116 48.3064 177.204C47.5647 177.549 46.9609 176.859 47.2886 176.014C49.1129 174.111 51.3248 172.622 53.7747 171.649Z" fill="#B1F1FF"/>
<path d="M50.3583 157.18C48.4263 157.18 46.5633 156.61 44.6313 156.576C44.5306 156.586 44.4288 156.575 44.3331 156.541C44.2374 156.508 44.1503 156.454 44.0779 156.383C44.0054 156.312 43.9494 156.226 43.9139 156.132C43.8784 156.037 43.8642 155.935 43.8723 155.834C43.8723 155.351 44.2346 155.231 44.6486 155.093C46.0488 154.718 47.5122 154.641 48.9438 154.868C52.2213 155.3 53.1528 154.748 53.1356 156.007C53.1183 157.266 51.5141 157.145 50.3583 157.18Z" fill="#B1F1FF"/>
<path d="M55.8608 140.341C57.5858 140.531 59.19 139.893 60.4838 141.669C61.2428 142.722 60.363 143.049 59.8455 142.963C57.0683 142.446 51.5828 142.653 52.0313 140.91C52.2038 140.169 52.7903 140.341 55.8608 140.341Z" fill="#B1F1FF"/>
<path d="M66.3676 153.882C66.0668 153.935 65.7571 153.871 65.5011 153.705C65.245 153.539 65.0615 153.281 64.9876 152.985C64.7806 152.122 65.6258 152.036 66.1433 151.967C68.0657 151.622 70.0342 151.622 71.9566 151.967C72.4223 152.071 73.0778 152.071 72.9053 152.795C72.8687 153.075 72.7343 153.332 72.5258 153.521C72.3173 153.711 72.0484 153.82 71.7668 153.83C69.8866 153.899 67.0403 153.847 66.3676 153.882Z" fill="#B1F1FF"/>
<path d="M87.4617 209.924C87.2375 209.234 87.3065 208.648 88.1862 208.699C89.5317 208.699 89.2902 210.01 89.549 210.821C89.8077 211.632 89.6525 212.287 88.7037 212.201C87.3065 212.046 87.548 210.856 87.4617 209.924Z" fill="#B1F1FF"/>
<path d="M90.1699 224.813C89.6179 226.4 87.0822 226.538 87.2029 224.813C87.3237 223.088 89.7042 223.226 90.1699 224.813Z" fill="#B1F1FF"/>
<path d="M66.6402 226.434C65.7949 226.279 65.4844 225.433 65.2947 224.709C65.2744 224.571 65.2867 224.429 65.3306 224.297C65.3746 224.164 65.449 224.043 65.5479 223.944C65.6468 223.846 65.7674 223.771 65.9001 223.727C66.0329 223.683 66.1741 223.671 66.3124 223.691C67.9512 223.812 68.4342 226.313 66.6402 226.434Z" fill="#B1F1FF"/>
<path d="M87.8769 260.747C87.725 260.793 87.564 260.801 87.4083 260.77C87.2526 260.739 87.1069 260.67 86.9841 260.569C86.8613 260.469 86.7652 260.34 86.7043 260.193C86.6434 260.046 86.6195 259.887 86.6349 259.729C86.6349 258.366 89.5329 258.228 89.4294 259.867C89.3776 260.643 88.6359 260.764 87.8769 260.747Z" fill="#B1F1FF"/>
<path d="M88.6861 245.098C86.9611 244.943 87.4958 242.839 88.9276 242.977C89.6176 242.977 90.1178 243.391 90.1006 244.029C90.0833 244.667 89.4968 245.098 88.6861 245.098Z" fill="#B1F1FF"/>
<path d="M47.6472 225.972C47.6472 227.421 45.6635 227.317 45.9222 226.093C46.0947 225.42 45.7842 224.23 46.7502 224.195C47.7162 224.161 47.147 225.403 47.6472 225.972Z" fill="#B1F1FF"/>
<path d="M333.669 13.4686C333.669 11.3469 333.324 10.6396 331.185 10.5706C321.387 10.2429 12.5772 12.2956 12.4047 12.2956C9.2307 12.2439 8.62695 12.9684 8.62695 16.0734C8.76495 36.9976 10.352 246.568 10.352 252.692C10.352 254.037 10.766 254.951 12.3012 254.934C12.491 254.934 35.744 255.676 41.0225 255.676C41.0225 337.32 40.712 336.958 42.3162 333.301C42.4025 333.077 42.5922 176.619 42.5922 176.447C43.1521 176.582 43.6404 176.924 43.96 177.403C44.2796 177.883 44.4071 178.465 44.3172 179.034C44.5587 343.185 44.3172 333.801 45.542 333.922C45.7317 333.611 46.1112 333.284 46.0595 333.008C45.7662 330.886 47.198 330.955 48.5952 330.938C52.994 330.834 88.115 329.747 89.2017 329.747C89.2017 334.008 89.0637 332.904 89.7537 333.836C89.9827 333.623 90.1802 333.379 90.3402 333.111C90.4955 332.714 92.0652 174.635 92.0652 174.411H93.9454C93.9454 175.429 92.9105 323.21 92.9105 332.335C92.9105 332.904 93.3935 333.491 93.6522 334.06C93.9282 333.491 94.2042 332.921 94.463 332.335C94.463 332.335 95.1012 255.055 95.1012 255.003L134.914 256.418C134.776 257.694 124.875 288.537 124.461 289.779C124.039 291.084 123.211 292.221 122.097 293.022C116.129 296.817 116.353 304.666 122.96 307.064C135.932 311.773 146.196 310.514 150.18 310.514C158.916 310.71 167.623 309.463 175.952 306.822C178.509 306.068 180.831 304.673 182.697 302.768C185.129 300.198 185.146 294.143 180.972 292.746C177.228 291.452 176.073 292.746 175.607 291.021C175.072 288.951 174.417 286.898 173.882 284.811C171.95 277.152 167.137 257.849 166.516 255.486L200.102 256.556C200.102 266.233 198.843 302.82 195.927 311.428C195.577 312.784 195.478 314.193 195.634 315.585C195.755 318.121 197.894 317.983 200.516 318.242C200.361 320.432 200.136 322.364 200.085 324.314C200.033 326.263 200.757 327.16 202.551 327.263C205.843 327.462 209.144 327.462 212.436 327.263C216.196 327.039 215.506 324.503 215.247 319.294C216.472 319.156 217.662 318.983 218.853 318.914C220.043 318.845 220.974 318.224 220.854 316.862C220.681 314.602 220.854 312.256 219.353 310.255C218.646 309.237 220.44 303.441 223.424 258.505C224.269 267.216 225.942 304.925 225.494 310.082C225.27 312.515 223.148 317.276 228.185 317.966C229.03 318.086 229.91 318.259 230.652 318.397C230.514 320.122 230.272 321.847 230.238 323.572C230.146 324.136 230.188 324.714 230.36 325.259C230.533 325.805 230.83 326.302 231.23 326.711C231.629 327.12 232.118 327.43 232.659 327.616C233.2 327.802 233.777 327.858 234.343 327.781C237.086 327.781 239.846 327.47 242.571 327.194C242.966 327.192 243.355 327.112 243.719 326.959C244.082 326.806 244.412 326.583 244.689 326.303C244.966 326.023 245.185 325.691 245.334 325.326C245.483 324.961 245.558 324.57 245.556 324.176C245.438 322.709 245.125 321.264 244.624 319.88C244.366 319.146 244.055 318.431 243.693 317.741C247.815 317.224 251.455 317.379 251.007 312.773C250.99 312.118 250.844 311.473 250.575 310.876C248.471 307.081 249.454 304.217 248.85 296.731C248.298 290.486 245.4 259.333 245.159 256.193H288.543C288.025 258.35 286.059 264.732 283.868 272.374C280.884 282.724 277.106 293.074 275.088 303.734C274.76 305.459 265.531 306.236 266.083 313.463C266.411 317.552 269.119 319.984 272.328 321.743C282.35 327.194 294.235 326.918 305.62 325.331C311.37 324.716 316.866 322.631 321.576 319.277C322.731 318.601 323.716 317.67 324.455 316.555C325.194 315.439 325.666 314.169 325.837 312.842C325.901 310.346 325.002 307.921 323.325 306.071C321.648 304.221 319.323 303.087 316.833 302.906C314.004 287.088 311.192 271.253 308.38 255.503C316.039 256.176 309.294 255.607 332.133 256.607C335.1 256.728 336.515 255.452 336.48 252.416C335.428 173.393 334.014 40.5166 333.669 13.4686ZM329.839 23.6289C329.529 23.5254 19.2012 25.1641 11.5422 25.1641V14.8141C13.2672 14.6071 329.822 13.2616 331.116 13.1926V47.8479L11.663 52.8331V26.9581L328.735 25.6126C330.891 25.5436 331.029 24.1464 329.839 23.6289ZM41.7642 168.218C43.127 162.146 44.5242 156.074 45.9732 150.071C47.2842 144.517 51.0447 142.223 59.6697 135.133C59.1867 138.859 58.445 140.756 60.86 142.844C61.9812 143.827 62.9472 144.983 63.965 146.035L54.1325 156.575L52.5627 152.676C51.6485 152.969 52.2867 154.401 51.1137 153.935C51.1137 154.28 50.8895 154.867 50.993 154.936C53.0975 156.212 52.925 158.386 53.27 160.387C54.9087 169.478 53.9255 171.617 52.5455 177.792C50.5617 177.344 48.7677 176.964 46.9737 176.516C46.0589 176.369 45.1861 176.027 44.4142 175.515C43.6423 175.002 42.9892 174.33 42.4989 173.544C42.0085 172.758 41.6923 171.876 41.5716 170.957C41.4508 170.038 41.5282 169.105 41.7987 168.218H41.7642ZM81.4392 110.586C81.6038 110.947 81.6893 111.338 81.6899 111.735C81.6906 112.131 81.6064 112.523 81.443 112.884C81.2795 113.245 81.0407 113.567 80.7425 113.828C80.4444 114.09 80.0937 114.284 79.7142 114.398C77.7132 115.278 78.731 115.727 80.1627 115.261C81.1417 114.869 81.949 114.141 82.4397 113.208C84.7857 116.658 84.4407 118.487 80.8355 120.798C76.2125 123.748 76.6954 126.249 76.4195 130.096L73.7802 131.096C72.8832 131.424 73.142 131.907 74.0907 131.821L77.2475 131.528C66.1557 144.086 70.658 139.721 72.0725 134.805C74.4357 126.818 68.726 124.455 68.45 123.627C67.415 120.315 66.3282 119.435 62.999 119.297C62.3937 119.271 61.8004 119.12 61.257 118.852C60.7135 118.584 60.2317 118.207 59.8423 117.742C59.4529 117.278 59.1643 116.738 58.995 116.157C58.8257 115.575 58.7794 114.964 58.859 114.364C58.859 114.071 59.3764 113.588 59.5317 113.622C61.2567 114.105 61.2567 112.673 61.4292 111.811C61.8432 109.655 57.0995 100.719 65.483 93.7501C69.4332 90.4554 72.5382 95.5959 75.005 99.9774C76.9542 103.427 78.0065 103.893 82.112 103.013C81.9976 103.905 81.7953 104.783 81.5082 105.635C80.8315 107.212 80.8066 108.992 81.4392 110.586ZM122.615 73.7746C122.822 73.9471 122.925 73.9816 122.96 74.0679C124.806 77.8284 124.857 77.9146 121.338 80.6056C120.74 80.963 120.295 81.5285 120.088 82.1938C119.882 82.8591 119.927 83.5773 120.217 84.2109C120.855 86.2464 121.321 88.3509 121.942 90.3864C122.425 91.7491 122.408 92.7496 120.959 93.4051C120.571 93.6218 120.202 93.8699 119.855 94.1469C118.848 91.1568 117.996 88.1167 117.302 85.0389C116.698 81.0369 112.989 86.2981 110.937 81.1749C110.592 80.4948 110.194 79.843 109.746 79.2256L122.615 73.7746ZM109.212 78.1216L105.399 70.4971C107.297 70.6524 106.9 69.3241 107.124 68.4271C109.764 69.4621 109.764 69.4621 110.454 65.7706C113.524 66.9954 113.524 66.9954 114.473 64.1664C114.919 64.5706 115.392 64.9451 115.887 65.2876C117.423 66.2536 117.457 65.8569 117.854 64.5976C118.251 63.3384 117.733 62.7864 121.994 72.7741L109.212 78.1216ZM119.217 94.7679C119.803 95.0784 118.975 95.6304 118.975 96.3204C120.114 95.4234 120.993 94.5954 121.925 93.9744C124.305 92.2494 125.375 92.9566 124.771 94.5436C124.53 95.1991 124.167 95.8201 123.857 96.4584L125.927 95.8029C126.41 95.6476 127.324 96.3376 125.737 98.1489C125.601 98.2737 125.492 98.4257 125.418 98.595C125.344 98.7643 125.305 98.9472 125.306 99.1321C125.549 99.2495 125.803 99.3419 126.065 99.4081C127.083 99.5289 127.117 100.133 126.6 100.736C126.082 101.34 125.823 102.099 126.841 102.582L121.511 106.722L115.232 104.825C115.836 101.875 115.991 98.6491 117.992 95.8374C118.216 95.3889 118.613 94.4746 119.217 94.7679ZM115.422 106.946C116.885 107.225 118.322 107.629 119.717 108.154C119.964 108.307 120.171 108.516 120.321 108.765C120.471 109.014 120.56 109.296 120.579 109.586C120.663 110.874 120.535 112.168 120.2 113.415C118.13 119.625 115.956 125.818 113.731 131.976C110.85 139.946 98.2062 139.842 87.5802 146.656C86.8212 147.139 86.1312 147.311 86.7177 148.743C87.0672 150.353 87.114 152.015 86.8557 153.642C83.4057 154.022 81.9567 154.539 80.9389 153.28C80.6802 152.969 73.4697 143.171 73.2282 142.93L78.0927 137.306C79.9597 135.575 81.6157 133.63 83.0262 131.51C84.6305 128.405 87.0972 128.302 89.9262 128.06C100.052 126.801 100.863 125.921 112.023 108.671C112.318 108.047 112.811 107.539 113.427 107.226C114.042 106.914 114.744 106.815 115.422 106.946ZM72.452 142.464C72.3194 142.804 72.2645 143.17 72.2913 143.534C72.3182 143.898 72.4261 144.252 72.6072 144.569C74.798 147.605 77.0922 150.52 79.352 153.521C81.6117 156.523 82.5087 156.023 86.666 154.85C86.0105 156.937 85.2687 158.834 84.8375 160.801C82.8554 170.226 82.6623 179.939 84.2682 189.436C84.7684 192.489 84.665 195.629 84.9065 198.734C85.976 212.844 85.4412 189.005 85.4412 254.503L70.3475 255.176C70.3475 241.169 67.07 202.218 67.07 194.231C69.6767 194.547 72.312 194.547 74.9187 194.231C75.4017 194.231 75.8847 193.196 74.7462 193.127C68.312 192.713 74.7462 193.748 61.274 191.402C59.549 191.092 60.2907 192.161 60.5494 192.351C62.1926 193.184 63.9301 193.815 65.7245 194.231C64.7584 220.451 65.276 208.221 63.551 225.851C63.5196 226.906 63.5773 227.962 63.7234 229.007L49.0437 229.715C49.0437 204.564 48.578 200.666 50.4755 194.697C52.2526 188.395 53.6978 182.003 54.8052 175.55C55.9566 169.951 55.8624 164.168 54.5292 158.61C54.4926 158.402 54.4998 158.189 54.5503 157.984C54.6008 157.779 54.6935 157.587 54.8225 157.42C57.9792 153.97 61.1877 150.744 64.2927 147.501C64.9655 147.725 65.759 148.812 66.3627 148.174C66.9665 147.536 65.8107 146.846 65.5865 146.311C65.9436 145.803 66.3606 145.339 66.8285 144.931C67.967 144.172 67.8807 143.482 66.8285 142.757L68.8295 140.532C70.658 142.533 70.3475 140.532 78.7655 132.08C79.4413 131.525 80.2302 131.125 81.077 130.907C81.8705 130.665 81.9222 131.096 81.56 131.493C76.7645 136.875 74.177 139.566 72.452 142.464ZM46.301 253.571V248.069H68.8467V254.141C54.719 253.33 60.584 253.571 46.301 253.571ZM68.312 255.883C68.312 256.297 68.2257 256.866 68.1912 257.332H46.2665V255.296L68.312 255.883ZM72.6072 264.111C72.383 266.681 72.1587 269.114 71.9 271.925H46.3355V261.851H68.657C69.002 264.853 71.5377 263.387 72.6072 264.025V264.111ZM71.1582 262.576C70.9163 262.537 70.6881 262.438 70.495 262.287C70.302 262.136 70.1503 261.939 70.0542 261.713C69.8248 260.288 69.7152 258.845 69.7265 257.401C69.7906 257.155 69.916 256.93 70.091 256.746C70.266 256.562 70.4848 256.425 70.727 256.349C75.6605 255.986 80.594 255.728 86.0622 255.4C85.7 257.694 85.424 259.85 84.9927 261.972C84.9927 262.3 84.1992 262.714 83.768 262.714C79.559 262.645 75.3672 262.593 71.1582 262.49V262.576ZM47.612 222.918L46.2837 223.16V212.309H47.612V222.918ZM47.612 223.953V225.971H46.2837V224.246L47.612 223.953ZM47.75 227.058C47.8031 227.836 47.7273 228.617 47.5257 229.37C46.3872 231.681 47.1462 234.01 47.2497 236.27C47.2497 237.736 48.6125 238.236 49.82 238.443V243.618L46.2665 243.86V226.782L47.75 227.058ZM47.5947 207.203C47.0427 207.428 47.4222 207.376 46.2147 207.445V177.671L52.373 179.396C48.9057 192.989 46.9392 198.544 47.612 207.203H47.5947ZM48.6297 235.769C48.4023 234.436 48.3041 233.085 48.3365 231.733C48.3365 230.922 48.44 230.008 49.7165 230.008C60.2217 229.87 62.792 229.646 64.517 229.766C64.2237 231.681 63.9995 233.458 63.6372 235.217C63.5337 235.683 63.0162 236.39 62.6195 236.442C58.376 237.011 54.1152 237.788 49.82 236.96C49.5478 236.862 49.3011 236.704 49.0981 236.498C48.8951 236.292 48.7409 236.043 48.647 235.769H48.6297ZM62.24 238.046C64.655 237.926 65.0345 236.149 65.1725 234.286C65.345 232.061 66.6042 229.801 64.724 227.386L67.4667 226.92C67.7945 232.423 68.1049 237.788 68.4327 243.239H62.24V238.046ZM67.2252 224.419C67.2252 224.988 67.2252 225.471 67.3115 226.144H64.9655V224.246L67.2252 224.419ZM65.0517 223.091L66.2075 212.965H66.5697C66.725 216.311 66.8975 219.641 67.07 223.091H65.0517ZM61.0497 140.998C60.5432 139.673 60.4235 138.231 60.7047 136.841C61.4637 130.717 63.9822 127.474 67.8635 125.352C68.1222 125.214 68.864 125.663 69.209 126.008C71.5377 128.336 71.7275 131.183 71.1582 134.201C70.727 136.858 68.7605 138.359 67.277 140.239C66.242 141.55 65.2587 142.895 64.241 144.241C63.0127 143.335 61.9356 142.241 61.0497 140.998ZM66.2247 92.2149C61.9985 93.9398 57.893 101.012 60.2217 109.465C60.418 109.926 60.5682 110.406 60.6702 110.897C60.6702 111.794 60.5667 112.622 59.3592 112.622C59.0758 112.67 58.809 112.788 58.5831 112.966C58.3572 113.144 58.1792 113.375 58.0655 113.639C57.878 114.654 57.9369 115.699 58.237 116.687C58.5372 117.675 59.0699 118.576 59.7905 119.315C62.102 121.764 65.759 118.711 67.553 122.989C64.7412 123.351 63.7924 124.438 64.586 126.128C63.9822 128.147 62.24 127.319 61.0325 127.474C53.1665 128.405 48.4055 126.974 43.9205 120.367C43.2684 118.911 42.9784 117.319 43.0752 115.727C42.7456 110.324 43.1284 104.901 44.2137 99.5979C44.3931 98.3373 44.8418 97.1302 45.5294 96.0587C46.217 94.9871 47.1273 94.0762 48.1985 93.3879C52.2537 90.4531 56.6358 87.9987 61.2567 86.0739C64.586 84.8664 65.8107 85.1596 68.0705 87.7989C69.1572 89.1099 70.5372 90.2829 70.6925 91.9906C69.1791 91.7897 67.6419 91.8657 66.1557 92.2149H66.2247ZM62.2917 128.302C60.675 132.373 57.7419 135.786 53.96 137.996C52.8905 135.167 54.719 133.356 55.7885 131.2C57.203 128.336 60.0665 129.768 62.2917 128.302ZM47.681 208.428C47.1462 209.394 48.578 211.016 46.37 211.119C45.887 208.721 46.0077 208.428 47.681 208.428ZM46.2837 245.033L68.4845 244.498C68.4845 245.188 68.657 245.809 68.7777 246.689H46.1802C46.2147 245.981 46.2492 245.498 46.2837 245.033ZM66.8285 258.626C68.0532 258.626 68.5535 259.126 68.4327 260.351H46.3527C46.3527 259.678 46.2665 258.936 46.232 258.401C68.5535 258.401 58.0827 258.522 66.8285 258.626ZM89.15 328.04L46.3527 329.609V326.711C60.584 324.986 74.8497 326.936 89.15 325.314V328.04ZM89.2879 324.072L46.3355 324.9V311.669L89.2017 310.082C89.3225 311.324 89.2879 308.771 89.2879 324.072ZM46.301 310.151V306.701L89.2017 305.701V308.461L46.301 310.151ZM89.3224 304.028L46.3182 305.201V293.591L89.3224 293.005V304.028ZM89.3224 291.487L46.1975 291.97V289.193L89.3224 288.537V291.487ZM89.3224 286.985L46.1975 287.778V277.428L89.3224 276.548V286.985ZM89.3224 275.22L46.1975 275.979V273.495L89.3224 272.546V275.22ZM89.3224 270.959L83.975 271.373C83.7507 268.907 83.5437 266.561 83.3367 264.146C84 264.192 84.6594 264.011 85.2053 263.631C85.7512 263.251 86.151 262.696 86.3382 262.058C86.5107 261.575 88.2012 261.662 89.3224 261.472V270.959ZM89.6502 224.591V225.799L87.3905 225.902C87.5112 224.643 87.5112 224.643 89.84 224.591H89.6502ZM87.5457 223.384V211.982L89.6502 212.085V223.384H87.5457ZM89.771 210.998C87.3215 211.223 87.218 211.136 87.3732 208.618L89.771 208.963V210.998ZM89.702 226.765V241.496H86.7522C86.9075 236.753 87.08 232.026 87.2352 227.162L89.702 226.765ZM89.702 242.773V244.757H86.9075V242.773H89.702ZM89.702 246.085V253.399C88.4427 253.399 86.4935 253.399 86.4935 253.399C86.4935 253.399 86.4935 247.931 86.4935 246.119L89.702 246.085ZM89.702 255.158V257.125H87.2352V255.296C87.7527 255.141 88.8395 255.296 89.702 255.158ZM89.702 260.126H86.9247L87.218 258.401H89.7882L89.702 260.126ZM170.57 279.584C171.312 282.275 172.295 284.88 173.157 287.554C173.606 289.089 173.813 290.676 174.123 292.246C174.572 294.54 175.676 292.763 179.126 293.678C183.318 294.764 185.353 301.509 175.917 305.045C169.759 307.059 163.394 308.378 156.942 308.978C145.437 308.978 134.707 309.737 124.167 305.528C119.234 303.596 118.423 299.215 121.666 295.282C122.125 294.786 122.729 294.448 123.391 294.316C123.833 294.266 124.25 294.085 124.589 293.796C124.927 293.507 125.171 293.123 125.289 292.694C127.893 284.984 130.653 277.307 133.155 269.562C134.673 264.905 135.777 260.126 137.174 255.452C137.657 253.813 143.746 234.165 144.367 232.595C145.218 230.526 146.288 228.554 147.558 226.713C149.283 224.229 154.596 223.953 155.545 226.886C160.082 240.41 159.564 239.426 170.656 279.584H170.57ZM244.227 266.578C247.074 293.126 246.332 290.573 247.229 306.546C247.229 307.46 248.781 310.962 249.282 313.308C249.644 315.033 248.247 315.585 247.039 315.74C241.158 316.713 235.178 316.957 229.237 316.465C226.632 316.137 225.408 314.498 226.529 312.101C227.65 309.703 227.322 307.098 227.305 304.597C227.305 296.093 226.408 278.498 225.891 271.253C225.442 264.784 224.597 258.332 224.166 251.846C223.941 248.966 224.166 246.033 224.166 242.894L227.529 242.669C227.979 242.721 228.435 242.692 228.875 242.583C230.6 241.772 229.254 240.858 228.771 240.858C227.046 240.858 225.321 241.117 223.596 241.117C221.871 241.117 219.888 240.893 218.042 240.893C216.196 240.893 217.007 242.29 217.904 242.462C219.422 242.738 220.974 242.842 222.372 242.997C222.372 245.55 222.372 248.172 222.372 250.622C222.061 257.297 219.232 296.696 219.129 297.973C218.163 309.41 217.266 309.03 218.577 311.6C219.168 313.176 219.506 314.835 219.577 316.517C219.577 316.758 218.973 317.327 218.628 317.345C212.986 317.622 207.33 317.414 201.723 316.724C201.068 316.724 200.43 316.517 199.791 316.465C197.169 316.258 196.548 315.585 196.997 313.015C197.445 310.445 199.998 305.045 200.55 287.243C200.826 278.618 200.999 280.343 203.431 239.875C203.586 237.494 202.344 235.131 204.466 232.009C205.504 230.64 206.109 228.993 206.204 227.278C206.299 225.563 205.88 223.859 205.001 222.383C204.831 222.092 204.758 221.753 204.794 221.417C205.432 215.966 205.932 210.481 206.812 205.064C208.213 196.31 208.997 187.467 209.158 178.603C209.158 177.809 209.4 177.43 210.21 177.309C210.953 177.134 211.684 176.915 212.401 176.654C213.212 190.557 212.211 191.264 219.111 191.713C222.165 191.92 225.218 192.006 228.288 192.092C231.98 192.196 230.41 191.213 231.738 175.308L235.93 176.136C235.93 189.936 235.533 191.661 237.224 193.697C238.914 195.732 238.949 198.044 238.949 200.441C239.242 206.341 239.794 212.24 240.087 218.14C240.312 222.539 240.087 226.972 240.415 231.371C241.174 241.496 243.486 258.936 244.314 266.578H244.227ZM197.497 226.799C193.564 223.953 189.7 221.038 185.853 218.174C184.449 217.228 183.428 215.812 182.973 214.181C182.517 212.55 182.658 210.81 183.369 209.273C183.732 208.307 184.077 207.341 184.56 206.013C187.216 208.221 190.356 209.86 192.029 212.447C194.369 215.602 197.298 218.273 200.654 220.313C205.346 223.763 205.708 227.903 202.586 232.388C202.093 233.04 201.513 233.621 200.861 234.113C200.395 234.476 199.74 235.269 199.878 233.596C200.102 230.819 200.223 228.714 197.583 226.799H197.497ZM186.164 200.924C186.164 200.597 186.509 200.217 186.94 199.751C187.992 201.804 192.943 205.358 197.29 208.721C196.824 209.118 196.6 209.463 196.428 209.446C195.513 209.342 195.203 209.67 195.134 210.602C195.065 211.533 194.306 211.964 193.409 211.395C192.926 211.136 193.409 211.395 184.353 204.047C184.353 204.047 184.353 203.891 184.491 203.857C184.8 203.786 185.092 203.654 185.351 203.47C185.609 203.286 185.829 203.052 185.997 202.783C186.165 202.514 186.279 202.214 186.331 201.901C186.383 201.588 186.374 201.268 186.302 200.959L186.164 200.924ZM195.272 189.643C195.151 187.745 196.6 186.935 197.67 185.779C201.516 181.587 200.757 178.879 208.278 177.792C207.45 185.123 206.553 192.248 205.829 199.389L205.501 199.268C203.448 200.631 205.501 198.527 197.566 207.169L187.82 199.613C195.531 189.867 195.393 190.16 195.358 189.746L195.272 189.643ZM203.552 220.624L194.22 213.724C195.669 212.24 197.359 211.223 197.946 209.774C199.498 205.961 203.224 204.081 205.329 200.838C205.691 200.252 205.656 199.493 203.552 220.624ZM200.913 144.896C199.539 144.707 198.257 144.098 197.241 143.154C196.226 142.209 195.526 140.974 195.237 139.618C194.833 137.828 195.062 135.953 195.887 134.314C196.711 132.675 198.079 131.373 199.757 130.631C201.898 129.388 204.413 128.953 206.847 129.406C199.153 134.771 198.101 137.996 200.913 144.896ZM206.812 131.096C211.733 128.738 217.076 127.389 222.527 127.129C226.956 127.079 231.269 128.539 234.757 131.269C238.787 134.141 241.535 138.474 242.416 143.344C243.52 148.053 239.19 151.072 239.19 156.54C239.18 157.043 239.02 157.531 238.731 157.942C238.442 158.354 238.038 158.67 237.569 158.852C231.583 161.957 225.373 159.283 217.179 157.265C215.067 156.578 213.151 155.395 211.59 153.815C205.053 148.226 201.24 146.673 201.24 138.531C201.518 136.94 202.167 135.438 203.135 134.146C204.104 132.854 205.363 131.809 206.812 131.096ZM217.766 126.663C222.837 124.938 227.857 124.472 232.842 126.905C235.96 128.416 238.745 130.533 241.036 133.132C243.227 135.633 243.417 138.617 243.21 141.929C238.535 130.079 230.151 125.076 217.766 126.629V126.663ZM201.637 147.035C214.609 158.144 212.867 156.074 213.574 159.628C214.644 164.975 213.885 168.253 218.749 167.873C220.474 167.735 220.06 168.046 227.719 169.064V172.031C223.424 172.272 219.198 172.531 214.971 172.721C214.747 172.721 214.368 172.22 214.264 171.893C214.092 171.272 214.143 170.599 214.005 169.978C213.453 167.563 211.435 168.477 206.105 166.407C204.778 165.992 203.624 165.153 202.82 164.019C202.016 162.885 201.606 161.518 201.654 160.128L201.637 147.035ZM229.582 189.298C229.582 190.419 229.289 190.902 227.995 190.781C216.869 189.729 215.196 190.919 215.006 187.728C214.799 184.019 214.368 180.328 214.005 176.429C216.649 177.733 219.585 178.327 222.527 178.154C225.425 177.999 227.253 175.722 229.979 174.446C229.561 179.373 229.429 184.321 229.582 189.263V189.298ZM225.666 176.084C224.001 176.898 222.158 177.279 220.307 177.191C218.455 177.104 216.656 176.551 215.075 175.584C214.592 175.325 214.35 174.618 213.798 173.859L227.736 173.152C227.757 173.795 227.566 174.427 227.192 174.951C226.818 175.475 226.282 175.861 225.666 176.05V176.084ZM244.641 162.284C245.676 160.973 246.78 159.317 247.919 157.868C247.626 157.868 247.66 157.282 247.488 157.472C246.677 158.455 245.763 159.904 243.882 161.957C243.399 162.077 243.003 162.336 242.537 162.095C243.504 159.744 244.97 157.631 246.832 155.902L247.35 156.109C247.263 156.609 247.35 157.282 247.35 157.834C249.454 159.559 249.747 159.869 250.161 159.835C255.336 159.369 254.94 163.147 255.647 163.406C258.027 164.251 258.493 166.459 259.097 168.46C259.69 170.655 259.513 172.986 258.597 175.067C258.01 173.566 257.544 172.307 257.01 171.082C254.612 165.614 252.507 167.77 249.489 171.22L245.383 167.321C247.626 165.096 246.539 163.682 244.71 162.319L244.641 162.284ZM255.302 158.369C255.888 158.783 256.768 159.507 255.888 160.611L253.784 159.145C253.577 158.489 254.629 157.886 255.302 158.369ZM245.728 169.253L247.35 171.168L243.02 176.585L240.346 175.429L245.728 169.253ZM244.003 182.605C244.067 184.865 244.786 187.059 246.073 188.918C246.305 189.209 246.474 189.545 246.572 189.903C246.67 190.262 246.694 190.637 246.642 191.006C245.832 193.3 247.367 194.99 247.867 196.94C248.712 200.39 249.282 203.84 249.954 207.29L249.454 207.497C248.212 206.841 247.005 206.099 245.711 205.53C243.658 204.633 240.864 204.357 240.743 202.787C240.156 194.887 240.329 192.248 239.76 188.556C239.57 187.331 238.966 187.107 238.88 188.763C238.794 190.419 238.707 191.799 238.638 193.3C236.913 187.918 238.242 182.346 237.396 176.912C241.502 176.498 243.606 178.344 244.003 182.605ZM246.677 210.86C245.728 211.93 244.866 211.688 243.813 211.24C240.57 209.843 241.071 210.257 240.829 204.944L248.988 208.894C247.953 211.188 246.349 209.066 245.055 209.998L246.677 210.86ZM243.831 212.447L241.485 214.034C241.381 213.051 241.312 212.309 241.226 211.481L243.831 212.447ZM310.053 275.272C310.881 281.482 312.675 287.571 313.935 293.747C314.694 297.369 315.263 301.026 315.918 304.666C316.281 306.65 317.385 306.132 317.005 304.511C320.455 304.649 322.491 306.494 323.733 310.634C324.647 313.653 323.595 316.137 320.283 318.466C316.103 321.435 311.246 323.309 306.155 323.917C300.34 324.549 294.495 324.854 288.646 324.831C283.17 324.743 277.802 323.284 273.035 320.588C271.573 319.959 270.296 318.966 269.327 317.704C268.358 316.441 267.728 314.952 267.498 313.377C267.084 309.151 270.534 307.995 274.553 305.408C274.346 306.201 273.742 307.322 274.553 307.409C275.364 307.495 275.26 306.598 275.312 306.408C276.14 303.648 289.526 257.642 291.234 252.071C292.941 246.499 295.305 247.637 300.894 247.189C303.395 246.982 304.896 248.431 305.396 251.018C307.052 259.091 309.001 267.061 310.105 275.272H310.053ZM325.872 254.02C305.931 253.502 311.33 253.278 307.742 253.916C306.672 247.706 306.638 244.895 303.826 245.102C300.48 245.343 297.133 245.516 293.787 245.705C293.285 245.721 292.802 245.897 292.407 246.207C292.013 246.518 291.729 246.946 291.596 247.43C290.837 249.535 290.061 251.657 289.267 253.796H244.797C242.774 241.474 241.793 229.004 241.864 216.518C241.896 216.245 241.987 215.982 242.13 215.747C242.272 215.512 242.464 215.31 242.692 215.156C244.397 214.012 246.172 212.975 248.005 212.051C249.284 211.487 250.31 210.471 250.886 209.198C251.462 207.924 251.548 206.483 251.127 205.151C250.334 201.321 250.006 197.336 247.988 193.817C247.539 193.041 248.764 190.695 246.694 186.917C245.964 185.082 245.46 183.165 245.193 181.208C244.848 179.914 244.417 178.655 243.951 177.102L248.609 171.927C249.592 173.1 250.144 172.462 250.938 171.565C251.59 170.919 252.307 170.341 253.077 169.84C253.342 169.652 253.67 169.574 253.991 169.622C254.313 169.67 254.603 169.841 254.802 170.099C255.37 170.79 255.851 171.549 256.233 172.358C257.562 175.463 257.148 176.774 258.131 177.016C259.459 177.326 260.235 174.48 260.442 173.117C260.89 171.104 260.758 169.005 260.062 167.063C259.366 165.122 258.134 163.417 256.509 162.146C256.913 161.34 257.148 160.459 257.199 159.559C257.096 158.869 256.216 158.213 255.578 157.696C254.112 156.506 253.508 157.989 252.766 158.679C252.1 158.662 251.436 158.587 250.782 158.455C249.696 158.179 248.592 157.92 248.471 156.402C248.394 156.101 248.255 155.819 248.061 155.575C247.868 155.331 247.626 155.131 247.35 154.988C247.056 154.832 246.263 155.16 245.987 155.505C244.572 157.23 243.175 158.955 241.933 160.68C240.984 162.06 241.726 163.319 243.399 163.457C244.745 163.561 245.211 164.768 244.9 165.993C243.9 169.943 240.432 172.065 238.535 175.274L229.22 173.221C228.633 165.734 228.547 169.409 231.221 163.751C231.374 163.189 231.416 162.603 231.342 162.026L230.928 161.853C229.375 163.992 229.479 164.51 228.168 166.545C226.063 169.857 222.734 165.044 217.818 166.545C217.487 166.522 217.168 166.414 216.89 166.233C216.612 166.052 216.385 165.803 216.231 165.51C215.472 163.061 214.937 160.542 214.281 157.92C223.907 160.421 231.152 163.164 238.052 159.973C239.328 159.369 240.432 158.558 240.484 157.178C240.588 154.091 242.451 151.641 243.175 148.829C245.607 139.411 245.849 134.408 239.087 129.216C234.757 125.904 230.1 123.368 224.528 123.886C221.425 124.321 218.374 125.066 215.42 126.111C211.452 127.353 209.175 129.216 207.933 128.802C206.428 128.319 204.836 128.171 203.268 128.369C201.699 128.567 200.193 129.105 198.855 129.947C197.517 130.789 196.38 131.913 195.522 133.241C194.665 134.569 194.108 136.068 193.892 137.634C193.881 139.314 194.35 140.962 195.246 142.384C196.142 143.805 197.426 144.941 198.946 145.655C199.964 146.018 200.067 146.483 200.05 147.38C200.05 151.693 200.05 156.005 200.05 160.301C200.05 164.596 203.017 166.7 206.657 167.994C208.209 168.546 209.865 168.753 211.418 169.271C211.953 169.46 212.332 170.133 212.763 170.599C212.763 170.599 212.763 170.789 212.763 170.892C213.471 176.067 213.264 174.929 209.313 175.877C205.863 176.705 202.051 176.274 198.722 181.673C197.656 183.132 196.504 184.526 195.272 185.848C193.84 187.745 193.719 189.574 192.891 190.781C192.771 190.954 187.613 198.268 187.13 198.423C186.412 198.592 185.785 199.029 185.378 199.645C184.971 200.26 184.814 201.008 184.939 201.735C184.939 202.477 182.024 203.339 183.214 205.185C184.077 206.531 177.625 213.206 184.818 218.985C188.527 221.952 192.391 224.729 196.152 227.61C197.09 228.455 197.966 229.365 198.774 230.336C197.704 231.302 195.324 232.871 197.532 234.079C197.79 234.234 198.222 234.286 198.308 234.493C198.981 236.028 200.033 235.821 201.637 235.148C201.292 241.669 200.964 247.982 200.654 254.02C175.848 254.02 179.695 253.037 167.068 253.813C165.119 253.934 166.206 254.382 159.582 231.578C158.925 229.479 158.141 227.423 157.236 225.419C156.944 224.74 156.464 224.159 155.853 223.743C155.242 223.328 154.524 223.095 153.786 223.073C149.646 222.642 147.3 221.228 145.523 225.385C139.382 239.754 138.105 247.81 135.828 253.951L95.222 252.899C95.222 251.864 95.636 199.424 95.8602 174.446C95.8602 173.117 95.4462 172.721 94.1352 172.721C92.8242 172.721 90.8232 172.151 90.323 173.514C90.1879 174.079 90.1356 174.66 90.1677 175.239C89.9607 208.601 90.1677 208.014 89.6157 207.859C86.9247 207.376 86.7177 207.221 86.804 203.891C87.1662 189.764 83.1814 178.016 85.2514 166.459C86.183 161.163 87.701 157.627 87.9425 149.381C87.8704 148.874 87.9773 148.357 88.2448 147.919C88.5124 147.482 88.9239 147.151 89.4087 146.984C94.463 145.069 107.228 139.894 108.677 139.273C110.392 138.493 111.924 137.363 113.175 135.955C114.426 134.546 115.368 132.891 115.939 131.096C118.078 125.076 120.165 119.021 122.132 112.932C122.649 111.362 121.942 108.361 123.046 107.309C126.22 104.29 128.601 104.031 127.893 101.375C127.665 99.8608 127.532 98.334 127.497 96.8034C127.319 96.0699 127.034 95.3666 126.651 94.7161C126.548 94.4919 126.237 94.2676 126.255 94.0606C126.375 92.3356 125.375 91.7491 123.771 91.7664C122.925 88.9029 122.046 86.0566 121.304 83.1414C121.288 82.893 121.326 82.6442 121.415 82.412C121.505 82.1797 121.643 81.9695 121.821 81.7959C122.723 80.8482 123.685 79.9608 124.702 79.1394C124.928 79.0041 125.123 78.8242 125.277 78.6108C125.43 78.3973 125.538 78.1548 125.595 77.8981C125.651 77.6413 125.655 77.3757 125.605 77.1175C125.556 76.8593 125.454 76.614 125.306 76.3966C119.32 65.2876 119.406 61.7514 118.026 61.9411C117.285 62.0619 116.922 63.8904 116.595 64.3216C113.679 62.5966 113.662 62.5966 112.92 65.6671C112.23 65.2704 111.54 64.9254 110.919 64.4941C109.281 63.3211 109.401 65.1151 108.987 67.8061C108.211 67.4784 107.418 66.8574 106.728 66.9436C106.314 66.9436 106.055 68.1856 105.675 68.9791C104.451 68.7549 103.95 69.3414 104.589 70.7041C105.675 72.9466 106.814 75.1546 107.883 77.3971C108.111 78.4026 108.399 79.3935 108.746 80.3641C109.246 81.2439 109.815 82.0891 110.333 82.9171C111.644 85.1424 111.972 85.3666 114.559 84.8491C115.629 84.6249 115.939 84.8491 116.163 85.9014C116.681 88.1784 117.388 90.4209 117.888 92.6979C118.527 95.2509 115.18 93.7156 114.214 104.618C114.214 104.825 114.214 105.014 114.214 105.29C113.445 105.398 112.713 105.692 112.082 106.146C111.451 106.6 110.939 107.2 110.592 107.895C106.952 113.519 103.502 119.746 99.3275 123.955C97.8095 125.49 91.8755 125.68 87.3905 126.611C83.9405 127.353 81.5945 130.286 77.903 130.251C77.4027 126.905 78.248 123.886 80.8872 122.282C84.7167 119.936 86.5797 118.073 83.699 112.484C83.0439 111.494 82.6621 110.349 82.5925 109.165C82.5228 107.98 82.7676 106.798 83.3022 105.739C83.4853 105.327 83.5737 104.879 83.561 104.428C83.7335 101.547 83.3367 101.219 80.5767 101.978C79.9436 102.208 79.2495 102.206 78.6178 101.972C77.9861 101.739 77.4577 101.288 77.1267 100.702C75.7467 98.4594 74.5219 96.1479 74.0734 95.7339C72.562 94.3866 71.5626 92.5584 71.2445 90.5589C70.8819 89.1966 70.2021 87.9394 69.2607 86.8901C68.3193 85.8408 67.143 85.0291 65.828 84.5214C64.3444 84.1318 62.7761 84.2162 61.343 84.7629C56.72 86.0911 52.925 89.0926 48.7505 91.3351C43.5755 94.1641 42.6095 98.8561 41.9712 104.031C41.5376 108.566 41.4224 113.125 41.6262 117.676C41.691 118.925 42.0107 120.148 42.5654 121.269C43.1201 122.391 43.8982 123.387 44.852 124.196C46.2427 125.743 47.9276 126.997 49.8082 127.886C51.6889 128.774 53.7277 129.279 55.8057 129.371C53.8392 132.373 50.9067 134.909 53.201 138.755C49.6475 141.533 46.025 143.93 44.3345 150.503C42.4453 156.708 41.0495 163.053 40.16 169.478C39.9357 171.703 40.16 172.617 42.0057 175.429C41.6258 176.077 41.3521 176.782 41.195 177.516C41.195 195.111 41.195 251.191 41.057 253.606L12.9912 252.916C12.5887 186.745 12.1862 120.62 11.7837 54.5409L331.374 49.5901C332.076 117.9 332.789 186.043 333.513 254.02C330.891 254.02 328.407 254.072 325.923 254.02H325.872Z" fill="#282828"/>
<path d="M79.5214 21.7675C76.8477 21.595 75.8989 20.0425 77.2789 17.8863C78.3312 16.2993 79.7457 17.248 90.0784 17.1963C126.838 16.9893 253.953 16.1785 280.725 15.9888C288.471 15.9888 286.866 21.7848 281.139 21.7848C97.2544 21.802 86.3869 22.1988 79.5214 21.7675ZM281.346 17.8C236.496 17.8 82.9714 18.4383 79.1247 18.49C78.5382 18.49 77.2272 19.663 78.8314 20.215C79.9354 20.5945 61.9954 20.215 281.053 19.9218C282.519 19.9218 284.072 17.8 281.277 17.8H281.346Z" fill="#282828"/>
<path d="M317.179 31.4448C317.514 31.452 317.843 31.5349 318.142 31.6872C318.44 31.8396 318.701 32.0574 318.904 32.3246C319.231 33.2906 318.283 33.6183 317.541 33.6701C314.902 33.8426 312.262 33.9806 309.623 33.9806C309.071 33.9806 307.036 32.2556 309.623 31.8243C309.882 31.7898 316.989 31.4448 317.179 31.4448Z" fill="#282828"/>
<path d="M309.484 41.9799C308.553 41.8419 307.621 40.2549 309.57 40.0996C312.072 40.0134 314.59 39.9789 317.091 40.0996C318.506 40.0996 318.54 41.8246 317.281 41.9281C314.694 42.2661 312.075 42.2835 309.484 41.9799Z" fill="#282828"/>
<path d="M309.69 37.4812C308.137 37.2225 308.707 35.3595 309.931 35.4112C312.312 35.4112 314.71 35.7045 317.09 35.9977C317.521 35.9977 319.229 37.326 316.987 37.947C314.545 38.0692 312.097 37.9129 309.69 37.4812Z" fill="#282828"/>
<path d="M213.371 224.107C217.355 224.107 217.545 223.4 217.511 227.177C217.511 230.627 218.183 232.887 215.786 232.784C210.904 232.577 209.127 233.525 209.213 231.507C209.541 223.055 208.075 224.055 213.319 224.055L213.371 224.107ZM210.369 224.969V231.99L216.372 231.559V225.297L210.369 224.969Z" fill="#282828"/>
<path d="M232.239 232.437C228.789 232.437 228.789 232.437 228.669 229.125C228.669 228.124 228.669 227.124 228.565 226.141C228.462 225.157 229.134 224.761 229.997 224.692C231.394 224.571 232.791 224.485 234.171 224.398C234.457 224.342 234.751 224.353 235.031 224.428C235.312 224.504 235.571 224.643 235.789 224.834C236.008 225.026 236.179 225.265 236.29 225.534C236.402 225.802 236.45 226.092 236.431 226.382C236.592 227.872 236.666 229.369 236.655 230.867C236.594 231.13 236.471 231.375 236.297 231.581C236.123 231.788 235.903 231.951 235.655 232.057C234.517 232.296 233.364 232.463 232.205 232.558L232.239 232.437ZM229.428 225.968C229.583 227.693 229.686 229.09 229.945 230.539C230.002 230.765 230.116 230.972 230.276 231.142C230.437 231.311 230.637 231.436 230.859 231.505C232.36 231.626 233.861 231.505 235.31 231.505C235.31 229.78 235.31 228.452 235.31 227.158C235.31 225.865 234.827 225.433 233.585 225.537C232.343 225.64 230.98 225.744 229.428 225.968Z" fill="#282828"/>
<path d="M244.765 309.463C242.022 309.757 232.224 310.671 229.378 310.723C228.636 310.723 227.187 309.757 229.378 309.584C234.191 309.17 239.038 308.791 243.868 308.411C247.284 308.152 246.3 309.308 244.765 309.463Z" fill="#282828"/>
<path d="M198.719 309.413C204.567 311.017 210.587 310.706 216.556 310.913V311.5C216.001 311.709 215.421 311.842 214.831 311.897C203.687 311.483 203.049 311.379 199.409 310.603C199.047 310.517 198.754 310.068 198.443 309.775L198.719 309.413Z" fill="#282828"/>
<path d="M71.2252 157.715L62.6002 157.197C61.2892 157.197 60.996 156.663 61.7722 155.662C63.963 152.816 66.2227 150.004 68.4825 147.227C68.5968 147.041 68.7566 146.888 68.9469 146.782C69.1371 146.676 69.3514 146.62 69.5692 146.62C69.7871 146.62 70.0014 146.676 70.1916 146.782C70.3818 146.888 70.5417 147.041 70.656 147.227C72.7605 149.711 74.8477 152.195 76.9177 154.679C77.7802 155.731 77.3835 156.525 76.2622 156.818C74.6925 157.232 73.0537 157.404 71.2252 157.715ZM62.859 155.99C67.206 156.801 71.2942 156.111 75.5205 155.766L69.5692 147.951L62.859 155.99Z" fill="#282828"/>
<path d="M77.4387 178.929C80.3194 178.929 81.0439 178.601 81.0956 181.275C81.2681 191.883 72.2119 187.64 73.8679 179.739C73.9613 179.535 74.1025 179.356 74.2797 179.218C74.4569 179.08 74.6647 178.987 74.8857 178.946C75.7356 178.885 76.5887 178.885 77.4387 178.946V178.929ZM74.6097 180.084C74.7994 181.378 74.8857 182.499 75.1444 183.534C75.4032 184.569 77.1799 186.536 77.9734 186.294C78.5903 186.074 79.1206 185.662 79.4869 185.119C79.8531 184.576 80.036 183.93 80.0089 183.276C80.0917 182.883 80.1493 182.485 80.1814 182.085C80.1814 180.205 79.8709 179.964 77.9907 180.033C77.0074 180.119 76.0069 180.084 74.6097 180.084Z" fill="#282828"/>
<path d="M63.3937 177.79C63.3937 179.515 63.3937 181.24 63.3937 182.965C63.4113 183.595 63.2012 184.211 62.8021 184.698C62.4029 185.186 61.8413 185.514 61.2202 185.622C60.5941 185.891 59.8953 185.94 59.2376 185.762C58.5799 185.583 58.0019 185.187 57.5977 184.638C57.0041 183.712 56.6061 182.674 56.4281 181.589C56.2501 180.503 56.2959 179.392 56.5627 178.325C56.6641 178.12 56.8149 177.943 57.0016 177.81C57.1883 177.678 57.405 177.594 57.6322 177.566C59.4952 177.531 61.3755 177.669 63.3937 177.79ZM57.8047 178.532C57.7229 178.522 57.6399 178.532 57.5626 178.56C57.4853 178.589 57.4159 178.635 57.3602 178.696C57.3046 178.757 57.2642 178.83 57.2425 178.909C57.2208 178.989 57.2184 179.072 57.2355 179.153C57.546 180.654 57.7702 181.965 58.167 183.224C58.2383 183.478 58.3595 183.715 58.5237 183.922C58.6878 184.128 58.8914 184.3 59.1228 184.427C59.3541 184.554 59.6084 184.633 59.8708 184.661C60.1332 184.688 60.3984 184.663 60.651 184.587C61.14 184.515 61.5857 184.267 61.9036 183.888C62.2216 183.51 62.3896 183.028 62.376 182.534C62.376 181.361 62.376 180.171 62.376 178.946L57.8047 178.532Z" fill="#282828"/>
<path d="M75.2139 228.125C75.1282 228.099 75.0553 228.042 75.0092 227.965C74.9631 227.888 74.9471 227.797 74.9642 227.709C74.9814 227.621 75.0305 227.543 75.1021 227.489C75.1737 227.435 75.2627 227.41 75.3519 227.418C80.7684 227.418 80.8029 227.297 80.8891 227.728C80.9129 227.813 80.905 227.904 80.8669 227.983C80.8288 228.062 80.7631 228.125 80.6821 228.16C79.8415 228.615 78.8995 228.85 77.9436 228.844C76.9876 228.838 76.0487 228.591 75.2139 228.125Z" fill="#282828"/>
<path d="M54.2208 205.735C55.0475 205.791 55.8708 205.888 56.6876 206.028C57.2568 206.149 58.0676 207.615 54.5486 206.856C52.4613 206.39 53.3583 206.218 54.2208 205.735Z" fill="#282828"/>
<path d="M205.073 135.481C205.053 135.4 205.06 135.315 205.096 135.239C205.131 135.163 205.191 135.102 205.266 135.065C205.341 135.029 205.426 135.019 205.507 135.039C205.589 135.058 205.661 135.104 205.712 135.17C206.402 136.033 207.143 136.154 208.61 135.722C210.476 135.227 212.285 134.539 214.009 133.67C226.877 126.77 241.385 138.155 239.763 148.694C239.608 149.523 239.383 150.336 239.09 151.127C238.245 153.68 238.142 150.833 238.366 150.247C239.884 146.107 238.142 142.588 235.934 139.448C233.562 136.118 230.064 133.759 226.087 132.808C222.111 131.857 217.925 132.377 214.302 134.273C212.247 135.255 210.097 136.023 207.885 136.568C206.402 137.033 205.28 136.533 205.073 135.481Z" fill="#282828"/>
<path d="M235.688 158.109C230.786 158.912 225.757 158.314 221.18 156.384C217.239 154.973 213.499 153.053 210.054 150.674C202.033 144.429 201.119 137.219 203.327 141.48C206.471 147.51 211.803 152.108 218.231 154.331C226.459 157.401 228.581 158.074 235.688 157.608C236.412 157.539 236.516 157.884 235.688 158.109Z" fill="#282828"/>
<path d="M70.5365 104.839C70.3123 105.926 69.743 106.426 69.0358 105.77C68.3019 104.986 67.7173 104.074 67.3108 103.079C66.9485 102.338 68.3113 101.354 68.9495 102.234C69.5314 103.069 70.0614 103.939 70.5365 104.839Z" fill="#282828"/>
<path d="M170.015 296.522C169.705 295.194 153.334 303.129 130.84 296.954C127.735 296.091 127.632 296.022 127.39 296.177C126.804 296.695 126.976 296.626 127.718 297.281C128.115 297.701 128.598 298.03 129.133 298.247C133.935 299.881 138.95 300.805 144.019 300.99C160.441 300.99 162.322 299.558 169.894 297.54C170.326 297.402 170.136 296.988 170.015 296.522Z" fill="#282828"/>
<path d="M313.955 310.032C313.645 309.531 312.696 310.032 312.023 310.377C301.484 316.535 290.271 317.035 278.679 311.877C277.696 311.446 277.127 311.394 276.954 311.774C276.023 313.723 296.429 322.538 312.972 311.774C313.541 311.481 314.318 310.497 313.955 310.032Z" fill="#282828"/>
<path d="M59.7746 94.8735C57.1526 94.2697 47.8721 99.6862 48.7346 100.652C48.7794 100.686 48.8339 100.704 48.8898 100.704C48.9458 100.704 49.0003 100.686 49.0451 100.652C60.8096 95.046 59.9988 95.2875 59.9643 95.0287C59.948 94.9892 59.9221 94.9543 59.889 94.9272C59.8559 94.9001 59.8166 94.8817 59.7746 94.8735Z" fill="#282828"/>
<path d="M67.952 97.1138C67.6221 96.9291 67.2577 96.8146 66.8815 96.7774C66.5053 96.7403 66.1254 96.7813 65.7658 96.8979C65.4062 97.0146 65.0746 97.2043 64.7918 97.4551C64.509 97.706 64.2811 98.0127 64.1225 98.3558C63.3117 99.7013 63.2427 100.236 64.1225 101.323C65.0022 102.41 64.295 97.9935 67.8312 97.5968C67.8953 97.6128 67.9631 97.6027 68.0197 97.5687C68.0763 97.5348 68.1171 97.4797 68.1331 97.4157C68.1491 97.3516 68.139 97.2838 68.1051 97.2272C68.0711 97.1706 68.016 97.1298 67.952 97.1138Z" fill="#282828"/>
<path d="M18.9779 18.7495V17.7662C18.9772 17.6686 18.9489 17.5731 18.8962 17.4909C18.8436 17.4086 18.7687 17.343 18.6803 17.3015C18.5919 17.26 18.4936 17.2444 18.3967 17.2564C18.2998 17.2684 18.2082 17.3076 18.1327 17.3695L16.1317 18.9737C16.0413 19.0482 15.9686 19.1417 15.9186 19.2475C15.8687 19.3534 15.8428 19.469 15.8428 19.5861C15.8428 19.7032 15.8687 19.8188 15.9186 19.9246C15.9686 20.0305 16.0413 20.124 16.1317 20.1985C18.2534 21.9235 18.2017 21.9235 18.4604 21.9235C18.5947 21.9235 18.7238 21.8714 18.8204 21.778C18.9169 21.6847 18.9734 21.5575 18.9779 21.4232V20.4227H21.9794C22.2082 20.4227 22.4275 20.3318 22.5893 20.1701C22.751 20.0083 22.8419 19.789 22.8419 19.5602C22.8419 19.3315 22.751 19.1121 22.5893 18.9503C22.4275 18.7886 22.2082 18.6977 21.9794 18.6977L18.9779 18.7495Z" fill="#282828"/>
<path d="M37.2646 18.7495V17.7662C37.2653 17.6686 37.2936 17.5731 37.3462 17.4909C37.3989 17.4086 37.4737 17.343 37.5621 17.3015C37.6505 17.26 37.7489 17.2444 37.8458 17.2564C37.9427 17.2684 38.0342 17.3076 38.1098 17.3695L40.1108 19.0082C40.2011 19.0827 40.2739 19.1762 40.3238 19.282C40.3738 19.3879 40.3997 19.5035 40.3997 19.6206C40.3997 19.7377 40.3738 19.8533 40.3238 19.9591C40.2739 20.065 40.2011 20.1585 40.1108 20.233C37.9718 21.958 38.0408 21.958 37.782 21.958C37.7149 21.9603 37.648 21.9491 37.5853 21.925C37.5226 21.9009 37.4654 21.8644 37.4171 21.8177C37.3688 21.771 37.3304 21.7151 37.3042 21.6532C37.278 21.5914 37.2645 21.5249 37.2646 21.4577V20.4572H34.2458C34.0171 20.4572 33.7977 20.3663 33.6359 20.2046C33.4742 20.0428 33.3833 19.8235 33.3833 19.5947C33.3833 19.366 33.4742 19.1466 33.6359 18.9848C33.7977 18.8231 34.0171 18.7322 34.2458 18.7322L37.2646 18.7495Z" fill="#282828"/>
<path d="M50.9414 16.501C50.2966 16.501 49.6663 16.6922 49.1301 17.0504C48.594 17.4087 48.1761 17.9179 47.9293 18.5136C47.6826 19.1093 47.618 19.7648 47.7438 20.3973C47.8696 21.0297 48.1801 21.6106 48.6361 22.0666C49.092 22.5225 49.6729 22.833 50.3054 22.9588C50.9378 23.0846 51.5933 23.0201 52.189 22.7733C52.7848 22.5265 53.294 22.1087 53.6522 21.5725C54.0104 21.0364 54.2017 20.406 54.2017 19.7612C54.2017 18.8966 53.8582 18.0673 53.2468 17.4559C52.6353 16.8445 51.8061 16.501 50.9414 16.501ZM50.9414 21.2792C50.5388 21.2792 50.1527 21.1193 49.868 20.8346C49.5833 20.5499 49.4234 20.1638 49.4234 19.7612C49.4234 19.3586 49.5833 18.9725 49.868 18.6878C50.1527 18.4032 50.5388 18.2432 50.9414 18.2432C51.344 18.2432 51.7301 18.4032 52.0148 18.6878C52.2995 18.9725 52.4594 19.3586 52.4594 19.7612C52.4594 20.1638 52.2995 20.5499 52.0148 20.8346C51.7301 21.1193 51.344 21.2792 50.9414 21.2792Z" fill="#282828"/>
<path d="M67.9861 19.4745C64.2946 16.0245 64.5361 16.1798 64.2084 16.1798C63.8806 16.1798 64.2084 16.0418 60.4306 19.4745C60.3484 19.5521 60.2911 19.6524 60.2661 19.7627C60.241 19.8729 60.2494 19.9881 60.2901 20.0936C60.3308 20.1991 60.402 20.29 60.4947 20.3549C60.5873 20.4198 60.6971 20.4556 60.8101 20.4578H62.1039V22.1828C62.1039 22.4115 62.1947 22.6309 62.3565 22.7926C62.5182 22.9544 62.7376 23.0453 62.9664 23.0453H65.5539C65.7826 23.0453 66.002 22.9544 66.1637 22.7926C66.3255 22.6309 66.4164 22.4115 66.4164 22.1828V20.4578H67.6756C67.7829 20.4435 67.8839 20.399 67.9668 20.3294C68.0496 20.2598 68.111 20.1681 68.1436 20.0649C68.1761 19.9617 68.1786 19.8514 68.1508 19.7468C68.1229 19.6422 68.0658 19.5478 67.9861 19.4745Z" fill="#282828"/>
</svg>
