<svg width="80" height="80" viewBox="0 0 80 80" fill="none" xmlns="http://www.w3.org/2000/svg">
<path d="M66.6669 28.7733C66.6675 26.9154 66.1102 25.1002 65.0671 23.5627C64.0241 22.0252 62.5434 20.8363 60.8169 20.15C61.5514 18.4441 61.7571 16.557 61.4074 14.7329C61.0577 12.9088 60.1686 11.2316 58.8553 9.91827C57.542 8.60495 55.8648 7.71592 54.0407 7.36621C52.2166 7.01649 50.3295 7.22218 48.6236 7.95665C47.9366 6.23123 46.7477 4.75164 45.2106 3.70924C43.6736 2.66685 41.8591 2.10962 40.0019 2.10962C38.1448 2.10962 36.3303 2.66685 34.7933 3.70924C33.2562 4.75164 32.0673 6.23123 31.3803 7.95665C29.6739 7.21907 27.7854 7.01096 25.9593 7.3593C24.1333 7.70763 22.454 8.59634 21.139 9.91028C19.8239 11.2242 18.9339 12.9028 18.584 14.7286C18.2342 16.5543 18.4408 18.443 19.1769 20.15C17.4502 20.8357 15.9691 22.0242 14.9256 23.5614C13.8821 25.0986 13.3242 26.9137 13.3242 28.7717C13.3242 30.6296 13.8821 32.4447 14.9256 33.9819C15.9691 35.5191 17.4502 36.7076 19.1769 37.3933C18.4425 39.0993 18.2368 40.9863 18.5865 42.8104C18.9362 44.6345 19.8252 46.3117 21.1386 47.625C22.4519 48.9384 24.1291 49.8274 25.9532 50.1771C27.7773 50.5268 29.6643 50.3211 31.3703 49.5867C32.056 51.3134 33.2445 52.7945 34.7817 53.838C36.3189 54.8815 38.134 55.4394 39.9919 55.4394C41.8499 55.4394 43.665 54.8815 45.2022 53.838C46.7394 52.7945 47.9279 51.3134 48.6136 49.5867C50.3195 50.3211 52.2066 50.5268 54.0307 50.1771C55.8548 49.8274 57.532 48.9384 58.8453 47.625C60.1586 46.3117 61.0477 44.6345 61.3974 42.8104C61.7471 40.9863 61.5414 39.0993 60.8069 37.3933C62.5353 36.7096 64.0182 35.5221 65.0632 33.9849C66.1082 32.4478 66.6669 30.632 66.6669 28.7733Z" fill="#9FEAFF"/>
<path d="M58.8469 9.91665C57.5331 8.60366 55.8555 7.71501 54.0312 7.3656C52.2069 7.01618 50.3197 7.22208 48.6136 7.95665C47.9266 6.23123 46.7377 4.75164 45.2006 3.70924C43.6636 2.66685 41.8491 2.10962 39.9919 2.10962C38.1348 2.10962 36.3203 2.66685 34.7833 3.70924C33.2462 4.75164 32.0573 6.23123 31.3703 7.95665C29.6643 7.22218 27.7773 7.01649 25.9532 7.36621C24.1291 7.71592 22.4519 8.60495 21.1386 9.91827C19.8252 11.2316 18.9362 12.9088 18.5865 14.7329C18.2368 16.557 18.4425 18.4441 19.1769 20.15C17.4502 20.8357 15.9691 22.0242 14.9256 23.5614C13.8821 25.0986 13.3242 26.9137 13.3242 28.7717C13.3242 30.6296 13.8821 32.4447 14.9256 33.9819C15.9691 35.5191 17.4502 36.7076 19.1769 37.3933C18.441 39.0991 18.2344 40.9867 18.5838 42.8113C18.9333 44.6359 19.8228 46.3135 21.1369 47.6267L58.8469 9.91665Z" fill="#DFF9FF"/>
<path d="M66.5368 49.21L76.9635 67.2666C77.4235 68.06 77.0568 68.6 76.1535 68.4333L64.9602 66.54L61.0802 77.2066C60.7668 78.0666 60.1268 78.1266 59.6602 77.34L49.6602 60.43" fill="#9FEAFF"/>
<path d="M66.5368 49.21L76.9635 67.2666C77.4235 68.06 77.0568 68.6 76.1535 68.4333L64.9602 66.54L61.0802 77.2066C60.7668 78.0666 60.1268 78.1266 59.6602 77.34L49.6602 60.43" stroke="#00303E" stroke-linecap="round" stroke-linejoin="round"/>
<path d="M13.4633 49.21L3.03662 67.2666C2.57662 68.06 2.94329 68.6 3.84662 68.4333L15.04 66.54L18.9233 77.2066C19.2366 78.07 19.8766 78.1266 20.3433 77.34L30.3433 60.45" fill="#9FEAFF"/>
<path d="M13.4633 49.21L3.03662 67.2666C2.57662 68.06 2.94329 68.6 3.84662 68.4333L15.04 66.54L18.9233 77.2066C19.2366 78.07 19.8766 78.1266 20.3433 77.34L30.3433 60.45" stroke="#00303E" stroke-linecap="round" stroke-linejoin="round"/>
<path d="M41.6667 35.4401V20.4401C41.6667 20.1306 41.5805 19.8272 41.4178 19.5639C41.255 19.3006 41.0222 19.0878 40.7454 18.9494C40.4685 18.811 40.1586 18.7524 39.8503 18.7802C39.5421 18.808 39.2476 18.9211 39 19.1068L35 22.1068" stroke="#00303E" stroke-linecap="round" stroke-linejoin="round"/>
<path d="M38.3232 35.4399H44.9899" stroke="#00303E" stroke-linecap="round" stroke-linejoin="round"/>
<path d="M66.6669 28.7733C66.6675 26.9154 66.1102 25.1002 65.0671 23.5627C64.0241 22.0252 62.5434 20.8363 60.8169 20.15C61.5514 18.4441 61.7571 16.557 61.4074 14.7329C61.0577 12.9088 60.1686 11.2316 58.8553 9.91827C57.542 8.60495 55.8648 7.71592 54.0407 7.36621C52.2166 7.01649 50.3295 7.22218 48.6236 7.95665C47.9366 6.23123 46.7477 4.75164 45.2106 3.70924C43.6736 2.66685 41.8591 2.10962 40.0019 2.10962C38.1448 2.10962 36.3303 2.66685 34.7933 3.70924C33.2562 4.75164 32.0673 6.23123 31.3803 7.95665C29.6739 7.21907 27.7854 7.01096 25.9593 7.3593C24.1333 7.70763 22.454 8.59634 21.139 9.91028C19.8239 11.2242 18.9339 12.9028 18.584 14.7286C18.2342 16.5543 18.4408 18.443 19.1769 20.15C17.4502 20.8357 15.9691 22.0242 14.9256 23.5614C13.8821 25.0986 13.3242 26.9137 13.3242 28.7717C13.3242 30.6296 13.8821 32.4447 14.9256 33.9819C15.9691 35.5191 17.4502 36.7076 19.1769 37.3933C18.4425 39.0992 18.2368 40.9863 18.5865 42.8104C18.9362 44.6345 19.8252 46.3117 21.1386 47.625C22.4519 48.9384 24.1291 49.8274 25.9532 50.1771C27.7773 50.5268 29.6643 50.3211 31.3703 49.5867C32.056 51.3134 33.2445 52.7945 34.7817 53.838C36.3189 54.8815 38.134 55.4394 39.9919 55.4394C41.8499 55.4394 43.665 54.8815 45.2022 53.838C46.7394 52.7945 47.9279 51.3134 48.6136 49.5867C50.3195 50.3211 52.2066 50.5268 54.0307 50.1771C55.8548 49.8274 57.532 48.9384 58.8453 47.625C60.1586 46.3117 61.0477 44.6345 61.3974 42.8104C61.7471 40.9863 61.5414 39.0992 60.8069 37.3933C62.5353 36.7096 64.0182 35.5221 65.0632 33.9849C66.1082 32.4478 66.6669 30.632 66.6669 28.7733Z" stroke="#00303E" stroke-linecap="round" stroke-linejoin="round"/>
</svg>
