<svg width="80" height="80" viewBox="0 0 80 80" fill="none" xmlns="http://www.w3.org/2000/svg">
<path d="M16.6663 18.3334C18.3145 18.3334 19.9257 17.8447 21.2961 16.929C22.6665 16.0133 23.7346 14.7118 24.3653 13.1891C24.9961 11.6664 25.1611 9.99084 24.8396 8.37433C24.518 6.75782 23.7243 5.27297 22.5589 4.10753C21.3935 2.94209 19.9086 2.14842 18.2921 1.82687C16.6756 1.50533 15 1.67036 13.4773 2.30109C11.9546 2.93182 10.6531 3.99992 9.73743 5.37033C8.82175 6.74074 8.33301 8.35191 8.33301 10.0001C8.33301 12.2102 9.21098 14.3298 10.7738 15.8926C12.3366 17.4554 14.4562 18.3334 16.6663 18.3334Z" fill="#DFF9FF" stroke="#282828" stroke-linecap="round" stroke-linejoin="round"/>
<path d="M40 45H76.6667" stroke="#282828" stroke-linecap="round" stroke-linejoin="round"/>
<path d="M78.333 20L72.463 36.1367C72.2297 36.7797 71.8043 37.3355 71.2443 37.7285C70.6844 38.1214 70.0171 38.3326 69.333 38.3333H53.333" stroke="#282828" stroke-linecap="round" stroke-linejoin="round"/>
<path d="M55 45V78.3333" stroke="#282828" stroke-linecap="round" stroke-linejoin="round"/>
<path d="M6.66699 60L1.66699 78.3333" stroke="#282828" stroke-linecap="round" stroke-linejoin="round"/>
<path d="M1.66699 28.3333L6.66699 59.9999H16.667" stroke="#282828" stroke-linecap="round" stroke-linejoin="round"/>
<path d="M41.267 78.3333C40.2874 78.3339 39.3292 78.0467 38.5114 77.5075C37.6937 76.9682 37.0523 76.2006 36.667 75.3L31.3337 63.03C30.9483 62.131 30.3077 61.3648 29.4913 60.8263C28.6749 60.2877 27.7184 60.0004 26.7403 60H16.667C15.3409 60 14.0691 59.4732 13.1315 58.5355C12.1938 57.5978 11.667 56.3261 11.667 55V28.3333C11.667 27.3117 11.98 26.3145 12.5639 25.4761C13.1477 24.6377 13.9744 23.9983 14.9326 23.6439C15.8908 23.2896 16.9346 23.2372 17.9235 23.494C18.9124 23.7507 19.7989 24.3042 20.4637 25.08L26.4637 32.08C27.2467 32.9935 28.2182 33.7266 29.3115 34.2289C30.4048 34.7313 31.5938 34.9909 32.797 34.99H41.667C42.9931 34.99 44.2648 35.5168 45.2025 36.4545C46.1402 37.3921 46.667 38.6639 46.667 39.99C46.667 41.3161 46.1402 42.5878 45.2025 43.5255C44.2648 44.4632 42.9931 44.99 41.667 44.99H32.8003C28.777 44.9969 24.8637 43.6764 21.667 41.2333V50H26.7403C29.6768 50.0008 32.5484 50.8635 34.9992 52.4812C37.4499 54.0988 39.372 56.4002 40.527 59.1L45.8603 71.37C46.1848 72.13 46.3159 72.9586 46.2418 73.7817C46.1677 74.6048 45.8907 75.3967 45.4356 76.0865C44.9806 76.7763 44.3617 77.3426 43.6342 77.7347C42.9067 78.1268 42.0934 78.3325 41.267 78.3333Z" fill="#B1F1FF" stroke="#282828" stroke-linecap="round" stroke-linejoin="round"/>
</svg>
