<svg width="80" height="80" viewBox="0 0 80 80" fill="none" xmlns="http://www.w3.org/2000/svg">
<path d="M45.2796 16.6667V38.3334H1.94629V16.6667C1.94629 15.3407 2.47307 14.0689 3.41076 13.1312C4.34844 12.1935 5.62021 11.6667 6.94629 11.6667H40.2796C41.6057 11.6667 42.8775 12.1935 43.8152 13.1312C44.7528 14.0689 45.2796 15.3407 45.2796 16.6667Z" fill="#9FEAFF"/>
<path d="M6.94629 11.6667C5.62021 11.6667 4.34844 12.1935 3.41076 13.1312C2.47307 14.0689 1.94629 15.3407 1.94629 16.6667V38.3334H6.30296L32.9696 11.6667H6.94629Z" fill="#DFF9FF"/>
<path d="M65.2936 25.0001C67.6011 25.0001 69.8567 24.3158 71.7753 23.0339C73.6938 21.7519 75.1892 19.9299 76.0722 17.7981C76.9552 15.6663 77.1863 13.3205 76.7361 11.0574C76.286 8.79425 75.1748 6.71545 73.5432 5.08384C71.9116 3.45223 69.8328 2.34109 67.5697 1.89093C65.3066 1.44076 62.9608 1.6718 60.829 2.55483C58.6972 3.43785 56.8751 4.93319 55.5931 6.85177C54.3112 8.77034 53.627 11.026 53.627 13.3334C53.627 16.4276 54.8561 19.3951 57.044 21.583C59.232 23.7709 62.1994 25.0001 65.2936 25.0001Z" fill="#DFF9FF"/>
<path d="M65.2936 9.12008C67.7271 9.12717 70.0972 9.89701 72.0704 11.3213C74.0436 12.7456 75.5206 14.7526 76.2936 17.0601C76.7184 15.8627 76.9436 14.6038 76.9603 13.3334C76.9603 10.2392 75.7311 7.27176 73.5432 5.08384C71.3553 2.89591 68.3878 1.66675 65.2936 1.66675C62.1994 1.66675 59.232 2.89591 57.044 5.08384C54.8561 7.27176 53.627 10.2392 53.627 13.3334C53.642 14.6039 53.8672 15.8632 54.2936 17.0601C55.0658 14.7521 56.5426 12.7445 58.516 11.32C60.4893 9.89562 62.8599 9.12617 65.2936 9.12008Z" fill="white"/>
<path d="M45.2796 38.3333V39.9999C45.2796 41.326 44.7528 42.5978 43.8152 43.5355C42.8775 44.4731 41.6057 44.9999 40.2796 44.9999H6.94629C5.62021 44.9999 4.34844 44.4731 3.41076 43.5355C2.47307 42.5978 1.94629 41.326 1.94629 39.9999V38.3333H45.2796Z" fill="white" stroke="#00303E" stroke-linecap="round" stroke-linejoin="round"/>
<path d="M45.2796 16.6667V38.3334H1.94629V16.6667C1.94629 15.3407 2.47307 14.0689 3.41076 13.1312C4.34844 12.1935 5.62021 11.6667 6.94629 11.6667H40.2796C41.6057 11.6667 42.8775 12.1935 43.8152 13.1312C44.7528 14.0689 45.2796 15.3407 45.2796 16.6667Z" stroke="#00303E" stroke-linecap="round" stroke-linejoin="round"/>
<path d="M28.627 51.6667V45H18.627V51.6667H28.627Z" fill="#DFF9FF" stroke="#00303E" stroke-linecap="round" stroke-linejoin="round"/>
<path d="M3.16686 54.0801C3.03915 53.8253 2.97893 53.5419 2.99198 53.2571C3.00503 52.9724 3.0909 52.6957 3.24138 52.4536C3.39186 52.2115 3.60193 52.012 3.8515 51.8743C4.10107 51.7365 4.3818 51.6651 4.66686 51.6668H75.9302C76.2144 51.6668 76.4939 51.7395 76.7421 51.8779C76.9903 52.0164 77.199 52.216 77.3483 52.4579C77.4976 52.6997 77.5826 52.9757 77.5952 53.2596C77.6078 53.5436 77.5475 53.826 77.4202 54.0801L73.6269 61.6668H6.96019L3.16686 54.0801Z" fill="#9FEAFF" stroke="#00303E" stroke-linecap="round" stroke-linejoin="round"/>
<path d="M6.96049 61.6667L2.60382 76.1868C2.52895 76.4357 2.51335 76.6987 2.55828 76.9548C2.60321 77.2108 2.70741 77.4528 2.86256 77.6614C3.01771 77.87 3.21951 78.0394 3.45182 78.1561C3.68413 78.2728 3.94052 78.3335 4.20049 78.3334H7.38715C7.7455 78.3335 8.09434 78.2182 8.38195 78.0044C8.66956 77.7907 8.88062 77.4899 8.98382 77.1467L13.6272 61.6667H6.96049Z" fill="#9FEAFF" stroke="#00303E" stroke-linecap="round" stroke-linejoin="round"/>
<path d="M73.6266 61.6667L78 76.1868C78.0748 76.4357 78.0904 76.6987 78.0455 76.9548C78.0006 77.2108 77.8964 77.4528 77.7412 77.6614C77.5861 77.87 77.3843 78.0394 77.152 78.1561C76.9196 78.2728 76.6633 78.3335 76.4033 78.3334H73.2C72.8416 78.3335 72.4928 78.2182 72.2052 78.0044C71.9176 77.7907 71.7065 77.4899 71.6033 77.1467L66.96 61.6667H73.6266Z" fill="#9FEAFF" stroke="#00303E" stroke-linecap="round" stroke-linejoin="round"/>
<path d="M65.2936 25.0001C67.6011 25.0001 69.8567 24.3158 71.7753 23.0339C73.6938 21.7519 75.1892 19.9299 76.0722 17.7981C76.9552 15.6663 77.1863 13.3205 76.7361 11.0574C76.286 8.79426 75.1748 6.71545 73.5432 5.08384C71.9116 3.45223 69.8328 2.34109 67.5697 1.89093C65.3066 1.44076 62.9608 1.6718 60.829 2.55483C58.6972 3.43785 56.8751 4.93319 55.5931 6.85177C54.3112 8.77034 53.627 11.026 53.627 13.3334C53.627 16.4276 54.8561 19.3951 57.044 21.583C59.232 23.7709 62.1994 25.0001 65.2936 25.0001Z" stroke="#00303E" stroke-linecap="round" stroke-linejoin="round"/>
<path d="M65.293 6.66675V13.3334H70.7096" stroke="#00303E" stroke-linecap="round" stroke-linejoin="round"/>
<path d="M60.2936 38.3333H70.2936C70.7356 38.3333 71.1596 38.5088 71.4721 38.8214C71.7847 39.134 71.9603 39.5579 71.9603 39.9999V51.6666H58.627V39.9999C58.627 39.5579 58.8026 39.134 59.1151 38.8214C59.4277 38.5088 59.8516 38.3333 60.2936 38.3333Z" fill="#9FEAFF" stroke="#00303E" stroke-linecap="round" stroke-linejoin="round"/>
<path d="M66.96 38.3334V31.6667" stroke="#00303E" stroke-linecap="round" stroke-linejoin="round"/>
<path d="M60.293 31.6667L63.6263 38.3334" stroke="#00303E" stroke-linecap="round" stroke-linejoin="round"/>
</svg>
