<svg width="80" height="80" viewBox="0 0 80 80" fill="none" xmlns="http://www.w3.org/2000/svg">
<path d="M61.3005 38.6866C58.0683 38.7203 54.8804 39.4423 51.9491 40.8045C49.0178 42.1667 46.4104 44.1379 44.3005 46.5866C44.2881 43.9155 43.6299 41.287 42.382 38.9253C41.1341 36.5635 39.3335 34.5386 37.1338 33.0233C39.916 31.041 43.251 29.9834 46.6671 29.9999C49.6621 29.9976 52.6023 30.8033 55.1777 32.3321C57.7531 33.8609 59.8683 36.0562 61.3005 38.6866Z" fill="#4CA8DF"/>
<path d="M25.0003 78.3333L26.667 58.3333H35.0003V46.6667C35.0003 42.2464 33.2444 38.0072 30.1188 34.8816C26.9932 31.7559 22.7539 30 18.3337 30C13.9134 30 9.67415 31.7559 6.54855 34.8816C3.42294 38.0072 1.66699 42.2464 1.66699 46.6667V58.3333H10.0003L11.667 78.3333H25.0003Z" fill="#B1F1FF"/>
<path d="M18.3337 25.0001C24.777 25.0001 30.0003 19.7767 30.0003 13.3334C30.0003 6.89009 24.777 1.66675 18.3337 1.66675C11.8903 1.66675 6.66699 6.89009 6.66699 13.3334C6.66699 19.7767 11.8903 25.0001 18.3337 25.0001Z" fill="#B1F1FF"/>
<path d="M46.667 25C52.1898 25 56.667 20.5228 56.667 15C56.667 9.47715 52.1898 5 46.667 5C41.1441 5 36.667 9.47715 36.667 15C36.667 20.5228 41.1441 25 46.667 25Z" fill="#4CA8DF"/>
<path d="M35.0003 46.6667V52.7667C35.0003 48.3464 33.2444 44.1072 30.1188 40.9816C26.9932 37.8559 22.7539 36.1 18.3337 36.1C13.9134 36.1 9.67415 37.8559 6.54855 40.9816C3.42294 44.1072 1.66699 48.3464 1.66699 52.7667V46.6667C1.66699 42.2464 3.42294 38.0072 6.54855 34.8816C9.67415 31.7559 13.9134 30 18.3337 30C22.7539 30 26.9932 31.7559 30.1188 34.8816C33.2444 38.0072 35.0003 42.2464 35.0003 46.6667Z" fill="#FEFEFE"/>
<path d="M41.2038 37.0334C43.7276 36.1342 46.4334 35.8679 49.0841 36.2578C51.7347 36.6478 54.2493 37.6821 56.4071 39.2701C58.0123 38.8991 59.653 38.7035 61.3005 38.6868C59.8683 36.0564 57.7531 33.8611 55.1777 32.3322C52.6023 30.8034 49.6621 29.9977 46.6671 30.0001C43.2501 29.9878 39.9155 31.0488 37.1338 33.0334C38.7101 34.1231 40.0869 35.4763 41.2038 37.0334Z" fill="#B1F1FF"/>
<path d="M18.3337 7.76341C20.8902 7.76846 23.3739 8.61551 25.4007 10.1736C27.4276 11.7317 28.8848 13.9141 29.547 16.3834C29.8337 15.3916 29.9862 14.3658 30.0003 13.3334C30.0003 10.2392 28.7712 7.27176 26.5832 5.08384C24.3953 2.89591 21.4279 1.66675 18.3337 1.66675C15.2395 1.66675 12.272 2.89591 10.0841 5.08384C7.89616 7.27176 6.66699 10.2392 6.66699 13.3334C6.68114 14.3658 6.83361 15.3916 7.12033 16.3834C7.78253 13.9141 9.2397 11.7317 11.2666 10.1736C13.2934 8.61551 15.7771 7.76846 18.3337 7.76341Z" fill="#FEFEFE"/>
<path d="M46.667 11.0967C48.7797 11.1017 50.8361 11.7779 52.5394 13.0277C54.2428 14.2775 55.5049 16.0362 56.1437 18.05C56.6504 16.5459 56.7918 14.9427 56.5562 13.3731C56.3206 11.8034 55.7148 10.3124 54.7888 9.0233C53.8628 7.7342 52.6432 6.68403 51.2309 5.95964C49.8186 5.23524 48.2542 4.85742 46.667 4.85742C45.0798 4.85742 43.5153 5.23524 42.1031 5.95964C40.6908 6.68403 39.4712 7.7342 38.5452 9.0233C37.6192 10.3124 37.0134 11.8034 36.7778 13.3731C36.5422 14.9427 36.6836 16.5459 37.1903 18.05C37.8291 16.0362 39.0912 14.2775 40.7946 13.0277C42.4979 11.7779 44.5543 11.1017 46.667 11.0967Z" fill="#B1F1FF"/>
<path d="M35.0003 50V46.6667C35.0003 42.2464 33.2444 38.0072 30.1188 34.8816C26.9932 31.7559 22.7539 30 18.3337 30C13.9134 30 9.67415 31.7559 6.54855 34.8816C3.42294 38.0072 1.66699 42.2464 1.66699 46.6667V58.3333H10.0003L11.667 78.3333H25.0003L26.667 58.3333H30.0003" stroke="#282828" stroke-linecap="round" stroke-linejoin="round"/>
<path d="M18.3337 25.0001C24.777 25.0001 30.0003 19.7767 30.0003 13.3334C30.0003 6.89009 24.777 1.66675 18.3337 1.66675C11.8903 1.66675 6.66699 6.89009 6.66699 13.3334C6.66699 19.7767 11.8903 25.0001 18.3337 25.0001Z" stroke="#282828" stroke-linecap="round" stroke-linejoin="round"/>
<path d="M46.667 25C52.1898 25 56.667 20.5228 56.667 15C56.667 9.47715 52.1898 5 46.667 5C41.1441 5 36.667 9.47715 36.667 15C36.667 20.5228 41.1441 25 46.667 25Z" stroke="#282828" stroke-linecap="round" stroke-linejoin="round"/>
<path d="M62.3336 41.6167C61.5797 39.2424 60.3032 37.0673 58.5979 35.2514C56.8927 33.4355 54.802 32.0249 52.4798 31.1235C50.1575 30.222 47.6627 29.8526 45.1789 30.0423C42.695 30.2321 40.2853 30.9762 38.127 32.22" stroke="#282828" stroke-linecap="round" stroke-linejoin="round"/>
<path d="M72.9998 62.7766V71.0633C72.9994 71.7324 72.7976 72.3859 72.4207 72.9388C72.0438 73.4917 71.5092 73.9184 70.8865 74.1633L60.8365 78.1199C60.0841 78.4011 59.2556 78.4011 58.5032 78.1199L48.4532 74.1633C47.8305 73.9184 47.2959 73.4917 46.919 72.9388C46.542 72.3859 46.3403 71.7324 46.3398 71.0633V62.7766" fill="#4CA8DF"/>
<path d="M72.9998 62.7766V71.0633C72.9994 71.7324 72.7976 72.3859 72.4207 72.9388C72.0438 73.4917 71.5092 73.9184 70.8865 74.1633L60.8365 78.1199C60.0841 78.4011 59.2556 78.4011 58.5032 78.1199L48.4532 74.1633C47.8305 73.9184 47.2959 73.4917 46.919 72.9388C46.542 72.3859 46.3403 71.7324 46.3398 71.0633V62.7766" stroke="#282828" stroke-linecap="round" stroke-linejoin="round"/>
<path d="M59.027 51.9334L39.667 60.0001L59.027 68.0668C59.2298 68.1511 59.4473 68.1946 59.667 68.1946C59.8867 68.1946 60.1042 68.1511 60.307 68.0668L77.8203 60.7701C77.9727 60.7071 78.1029 60.6003 78.1945 60.4632C78.2861 60.3261 78.335 60.165 78.335 60.0001C78.335 59.8352 78.2861 59.6741 78.1945 59.537C78.1029 59.4 77.9727 59.2931 77.8203 59.2301L60.307 51.9334C60.1042 51.8491 59.8867 51.8057 59.667 51.8057C59.4473 51.8057 59.2298 51.8491 59.027 51.9334Z" fill="#4CA8DF" stroke="#282828" stroke-linecap="round" stroke-linejoin="round"/>
<path d="M39.667 60V71.6667" stroke="#282828" stroke-linecap="round" stroke-linejoin="round"/>
</svg>
