<svg width="80" height="80" viewBox="0 0 80 80" fill="none" xmlns="http://www.w3.org/2000/svg">
<path d="M58.6721 21.672C58.6241 21.152 58.7481 21.02 59.2561 20.948C59.5681 20.904 59.9761 20.948 60.1561 20.736C60.3361 20.524 60.2441 20.152 60.3001 19.852C60.3641 19.3359 60.3841 18.8154 60.3601 18.296C60.3601 18.096 60.3961 17.968 60.6441 17.944C61.7241 17.8392 62.7877 17.6055 63.8121 17.248C64.3441 17.148 64.4961 17.248 64.6121 17.76C64.6961 18.12 64.8961 18.432 65.0121 18.784C65.1521 19.248 65.0121 19.424 64.5481 19.44C63.9201 19.464 63.3761 19.772 62.7881 19.944C62.6281 19.992 62.6841 20.1 62.7121 20.2C62.8321 20.6 62.9561 21 63.0761 21.4C63.2361 21.924 63.1721 22.036 62.6761 22.2C62.1081 22.4 61.5481 22.624 60.9881 22.832C60.8823 22.8618 60.7898 22.9268 60.7258 23.0162C60.6618 23.1056 60.6302 23.2142 60.6361 23.324C60.6117 23.8063 60.5201 24.2829 60.3641 24.74C60.3121 24.888 60.2561 25.044 60.0881 25.084C59.7601 25.156 59.4241 25.176 59.0961 25.252C58.8721 25.304 58.7321 25.076 58.7321 24.852C58.7241 24 58.7521 22.584 58.6721 21.672Z" fill="#B1F1FF"/>
<path d="M49.8242 53.9559C50.2242 54.0799 51.6042 54.6919 53.1802 55.3279C53.3922 55.4119 53.3722 55.4679 53.2402 55.6119C52.3656 56.5719 51.4949 57.5346 50.6282 58.4999C50.6092 58.5262 50.5852 58.5483 50.5576 58.5652C50.5299 58.582 50.4992 58.5932 50.4671 58.598C50.4351 58.6029 50.4025 58.6013 50.3711 58.5934C50.3397 58.5854 50.3101 58.5714 50.2842 58.5519C49.2882 58.0519 48.2842 57.5559 47.2962 57.0719C47.1202 56.9839 47.1122 56.9159 47.2282 56.7879C49.8442 53.8599 49.7242 53.9639 49.8242 53.9559Z" fill="#B1F1FF"/>
<path d="M56.5962 52.4L58.0962 50.8C58.2961 50.6336 58.4772 50.4458 58.6362 50.24C58.9842 49.648 59.4162 49.692 59.9802 49.908C61.0242 50.308 62.1002 50.64 63.1802 51.008C63.2602 51.036 63.3962 51.008 63.4082 51.136C63.4202 51.264 63.3042 51.276 63.2322 51.336C62.4602 51.996 61.6802 52.644 60.9282 53.336C60.8012 53.488 60.6265 53.5924 60.4326 53.6324C60.2386 53.6724 60.0369 53.6454 59.8602 53.556C58.6282 53.08 57.7282 52.852 56.5962 52.4Z" fill="#B1F1FF"/>
<path d="M57.9359 44.892C58.0119 44.932 58.0799 44.96 58.1359 44.996C59.0973 45.548 60.0135 46.1753 60.8759 46.872C61.2119 47.164 61.2199 47.2 60.8959 47.528C60.3319 48.1 59.7679 48.672 59.2119 49.256C59.0719 49.408 58.9519 49.36 58.8119 49.308C56.4119 48.472 55.6439 48.196 55.3279 48.108C55.0759 48.052 55.0799 47.944 55.2439 47.776C55.6439 47.34 56.0439 46.896 56.4839 46.464C56.9239 46.032 57.2839 45.576 57.6839 45.116C57.7637 45.0367 57.8478 44.962 57.9359 44.892Z" fill="#B1F1FF"/>
<path d="M55.0082 48.244C55.0482 48.244 57.4762 49.084 58.6082 49.468C58.8162 49.536 58.8842 49.588 58.6962 49.784C57.9722 50.532 57.2642 51.288 56.5642 52.056C56.4956 52.1494 56.3969 52.2164 56.2847 52.2455C56.1725 52.2746 56.0536 52.2642 55.9482 52.216C54.8576 51.8373 53.7616 51.4706 52.6602 51.116C52.4002 51.032 52.3642 50.944 52.5482 50.74C53.2482 49.976 53.9402 49.204 54.6402 48.436C54.7442 48.34 54.8202 48.224 55.0082 48.244Z" fill="#B1F1FF"/>
<path d="M49.468 53.8799C49.304 54.0879 48.024 55.5039 47.068 56.6039C47.0409 56.6474 47.0053 56.6848 46.9632 56.714C46.9211 56.7431 46.8735 56.7634 46.8233 56.7735C46.7731 56.7836 46.7214 56.7833 46.6713 56.7728C46.6212 56.7622 46.5738 56.7415 46.532 56.7119C45.568 56.2279 44.596 55.7719 43.62 55.3199C43.372 55.2079 43.284 55.1239 43.52 54.8879C44.228 54.1759 44.924 53.4519 45.616 52.7199C45.6805 52.6295 45.7751 52.565 45.8828 52.5378C45.9906 52.5107 46.1044 52.5228 46.204 52.5719C49.468 53.8279 49.436 53.7079 49.468 53.8799Z" fill="#B1F1FF"/>
<path d="M60.2159 53.9439C57.1999 56.6999 58.5759 55.3919 57.2759 56.5559C57.2269 56.6111 57.1606 56.6479 57.0879 56.6603C57.0151 56.6726 56.9404 56.6598 56.8759 56.6239C55.9519 56.2239 55.0239 55.8519 54.0959 55.4719C53.8759 55.3799 53.8679 55.2839 54.0279 55.1119C54.7599 54.3439 55.4879 53.5679 56.2159 52.7919C56.255 52.7325 56.3131 52.6883 56.3808 52.6664C56.4484 52.6446 56.5215 52.6465 56.5879 52.6719C57.7799 53.0959 58.9799 53.5119 60.2159 53.9439Z" fill="#B1F1FF"/>
<path d="M44.5762 59.872C45.3042 59.02 46.0122 58.2 46.7122 57.372C46.7378 57.3333 46.771 57.3002 46.8099 57.2749C46.8487 57.2495 46.8923 57.2324 46.938 57.2245C46.9837 57.2167 47.0306 57.2182 47.0757 57.2291C47.1207 57.24 47.1631 57.2601 47.2002 57.288C48.1122 57.756 49.0282 58.224 49.9562 58.66C50.2562 58.8 50.2522 58.924 50.0642 59.132L47.8962 61.532C47.8042 61.632 47.7202 61.704 47.5682 61.616C46.5802 61.028 45.6002 60.456 44.5762 59.872Z" fill="#B1F1FF"/>
<path d="M56.8842 56.88C56.4842 57.216 54.1602 59.164 53.3602 59.828C53.2682 59.904 53.1962 60 53.0522 59.932C52.2762 59.532 51.4922 59.132 50.7002 58.756C51.2722 58.12 53.1002 56.12 53.4802 55.724C53.5682 55.632 53.6442 55.52 53.8082 55.588L56.8842 56.88Z" fill="#B1F1FF"/>
<path d="M56.0999 52.548C55.2799 53.416 54.4999 54.256 53.6999 55.104C53.6641 55.1504 53.6124 55.1818 53.5547 55.1922C53.497 55.2026 53.4376 55.1911 53.3879 55.16L50.1879 53.84C50.0079 53.764 49.9959 53.692 50.1319 53.54C50.7599 52.836 51.3759 52.12 51.9959 51.408C52.0999 51.288 52.1999 51.184 52.3959 51.248C56.4799 52.648 55.8079 52.4 56.0999 52.548Z" fill="#B1F1FF"/>
<path d="M46.6202 57.08C45.9082 57.968 45.4682 58.432 44.5922 59.48C44.5671 59.5226 44.5331 59.5593 44.4924 59.5874C44.4517 59.6156 44.4054 59.6345 44.3566 59.6429C44.3079 59.6512 44.2579 59.6489 44.2101 59.636C44.1624 59.623 44.118 59.5998 44.0802 59.568C43.1175 58.992 42.1509 58.4227 41.1802 57.86C41.0162 57.764 40.9762 57.692 41.1282 57.528C41.7562 56.852 42.3682 56.164 42.9802 55.476C43.1002 55.34 43.2042 55.36 43.3482 55.432C44.3602 55.92 45.3762 56.4 46.3882 56.884C46.4762 56.936 46.6002 56.948 46.6202 57.08Z" fill="#B1F1FF"/>
<path d="M33.2359 61.384C33.6359 61.552 34.5999 62.08 35.9359 62.744C36.1519 62.852 36.0959 62.948 35.9839 63.084C35.4479 63.724 34.9279 64.38 34.3839 65.008C33.8399 65.636 33.8599 65.588 33.1399 65.3C32.2986 64.9632 31.5062 64.5152 30.7839 63.968C30.5439 63.784 30.5159 63.64 30.7839 63.432C31.4079 62.932 32.0199 62.416 32.6359 61.904C32.7799 61.78 32.9159 61.648 33.0599 61.528C33.0999 61.476 33.1679 61.432 33.2359 61.384Z" fill="#B1F1FF"/>
<path d="M55.2 44.3679C55.9669 44.3376 56.7331 44.4418 57.464 44.6759C57.644 44.7399 57.664 44.7679 57.544 44.9279C57.2 45.3959 56.744 45.7679 56.376 46.2079C55.908 46.7559 55.388 47.2599 54.896 47.7839C54.854 47.8386 54.7956 47.8782 54.7293 47.897C54.663 47.9157 54.5924 47.9125 54.528 47.8879C53.532 47.6119 52.528 47.3559 51.528 47.0879C51.152 46.9919 51.152 46.9839 51.424 46.6879C51.696 46.3919 51.884 46.2079 52.084 45.9519C52.4457 45.5445 52.9351 45.2723 53.472 45.1799C53.604 45.1439 53.776 45.1799 53.744 44.9479C53.7452 44.9318 53.7507 44.9163 53.7598 44.903C53.769 44.8896 53.7814 44.8789 53.796 44.8719C54.276 44.7559 54.696 44.4519 55.2 44.3679Z" fill="#B1F1FF"/>
<path d="M32.4201 52.068C32.8074 52.1665 33.1725 52.3375 33.4961 52.572C33.7736 52.8433 34.0291 53.1362 34.2601 53.448C34.3681 53.576 34.3601 53.644 34.1801 53.728C33.0121 54.2933 31.8587 54.8907 30.7201 55.52C30.3201 55.752 30.3201 55.5 28.4361 54.532C28.1561 54.384 28.2481 54.16 28.2321 53.952C28.2179 53.8635 28.2339 53.7728 28.2774 53.6945C28.3209 53.6162 28.3895 53.5547 28.4721 53.52C29.7361 53.024 31.1241 52.472 32.4201 52.068Z" fill="#B1F1FF"/>
<path d="M42.0403 62.1599C41.9363 62.1039 39.8643 60.9599 38.9563 60.4839C38.6963 60.3439 38.6563 60.2399 38.8843 59.9999C39.4683 59.3839 40.0283 58.7439 40.5843 58.0999C40.6084 58.0608 40.641 58.0275 40.6798 58.0026C40.7185 57.9777 40.7622 57.9618 40.8079 57.956C40.8536 57.9503 40.8999 57.9548 40.9436 57.9693C40.9873 57.9839 41.0271 58.008 41.0603 58.0399C41.9963 58.6133 42.9389 59.1746 43.8883 59.7239C44.1243 59.8639 44.2043 59.9559 43.9763 60.1919C43.4003 60.7839 42.8523 61.3919 42.2923 62.0159C42.2323 62.0839 42.1923 62.1839 42.0403 62.1599Z" fill="#B1F1FF"/>
<path d="M48.5879 49.676C49.2079 49.028 49.8839 48.412 50.4519 47.704C50.8519 47.2 51.2519 47.184 51.8039 47.372C52.6039 47.636 53.4399 47.816 54.2599 48.032C54.4919 48.092 54.5759 48.152 54.3599 48.38C53.6559 49.128 52.9719 49.896 52.2879 50.664C52.2262 50.7487 52.1368 50.809 52.0352 50.8346C51.9336 50.8602 51.8263 50.8493 51.7319 50.804C48.5959 49.7 48.6719 49.836 48.5879 49.676Z" fill="#B1F1FF"/>
<path d="M63.6 55.2C62.908 55.764 60.848 57.448 60.476 57.776C60.3925 57.8661 60.2803 57.9245 60.1585 57.9413C60.0367 57.9581 59.9129 57.9322 59.808 57.868C59.124 57.552 58.424 57.272 57.728 56.976C57.624 56.932 57.496 56.92 57.436 56.796L60.372 54.18C60.444 54.116 60.508 54.04 60.616 54.08L63.6 55.2Z" fill="#B1F1FF"/>
<path d="M51.9039 51.116C51.1919 51.916 50.4999 52.716 49.8119 53.516C49.7735 53.5672 49.7176 53.6024 49.6549 53.6149C49.5922 53.6275 49.527 53.6165 49.4719 53.584C48.4159 53.184 47.3559 52.784 46.2719 52.384C46.0559 52.304 46.0719 52.244 46.2119 52.104C46.8639 51.452 47.5239 50.808 48.1359 50.104C48.2319 49.996 48.3359 49.896 48.4999 49.952L51.9039 51.116Z" fill="#B1F1FF"/>
<path d="M41.9163 62.428C41.8003 62.572 41.6923 62.728 41.5643 62.868C40.1523 64.368 40.3203 64.7 39.9283 64.5C38.8723 63.964 37.8163 63.432 36.7523 62.9C36.5683 62.808 36.5683 62.732 36.6883 62.592C37.2216 61.9494 37.7549 61.3054 38.2883 60.66C38.3118 60.6256 38.342 60.5963 38.3772 60.5739C38.4124 60.5515 38.4517 60.5365 38.4928 60.5298C38.534 60.5231 38.5761 60.5248 38.6165 60.5348C38.657 60.5448 38.695 60.5629 38.7283 60.588C42.0203 62.4 41.8923 62.28 41.9163 62.428Z" fill="#B1F1FF"/>
<path d="M37.364 66.144C36.324 66.048 35.364 66.072 34.4 65.796C34.164 65.728 34.1 65.672 34.288 65.456C34.88 64.768 35.456 64.068 36.036 63.368C36.36 62.968 36.368 62.968 36.836 63.196C37.776 63.668 38.712 64.148 39.66 64.604C39.964 64.748 39.908 64.86 39.776 65.124C39.376 65.924 38.628 65.964 37.9 66.076C37.688 66.108 37.488 66.128 37.364 66.144Z" fill="#B1F1FF"/>
<path d="M29.8721 59.332C30.7241 58.816 31.5401 58.404 32.2721 57.86C32.8841 57.396 33.3521 57.46 33.9201 57.888C34.3903 58.2036 34.8807 58.4883 35.3881 58.74C35.6001 58.852 35.5681 58.936 35.4161 59.072C34.7681 59.644 34.1201 60.212 33.4881 60.8C33.4089 60.9015 33.2936 60.9686 33.1661 60.9872C33.0387 61.0058 32.909 60.9746 32.8041 60.9C31.8561 60.376 30.9041 59.88 29.8721 59.332Z" fill="#B1F1FF"/>
<path d="M62.7678 58.2599C62.2336 58.2406 61.6988 58.262 61.1678 58.3239C61.0744 58.3459 60.9772 58.3459 60.8838 58.3239C60.7478 58.2919 60.5718 58.2599 60.5358 58.1239C60.4998 57.9879 60.6638 57.9239 60.7638 57.8439C61.7238 57.0639 62.6878 56.2879 63.6398 55.4999C63.7054 55.4346 63.7903 55.3923 63.8818 55.3794C63.9734 55.3664 64.0667 55.3834 64.1478 55.4279C64.9238 55.7479 65.6998 56.0559 66.4838 56.3559C66.7438 56.4559 66.7518 56.5519 66.5478 56.7279C66.0718 57.1279 65.6278 57.5799 65.1438 57.9719C64.7998 58.2519 64.3438 58.2079 63.9438 58.2559C63.5522 58.2774 63.1596 58.2787 62.7678 58.2599Z" fill="#B1F1FF"/>
<path d="M60.7041 53.864C61.6681 53.012 62.5721 52.172 63.5441 51.408C63.5971 51.3602 63.6596 51.3242 63.7274 51.3021C63.7953 51.2801 63.867 51.2726 63.938 51.2802C64.0089 51.2877 64.0775 51.3101 64.1392 51.3459C64.2009 51.3818 64.2543 51.4302 64.2961 51.488C64.7921 52.132 65.2641 52.792 65.7561 53.44C65.8601 53.58 65.8081 53.636 65.6881 53.716C65.1361 54.116 64.5921 54.492 64.0441 54.884C63.9734 54.936 63.8897 54.9676 63.8023 54.9753C63.7148 54.9831 63.6269 54.9667 63.5481 54.928C62.6241 54.576 61.6921 54.232 60.7041 53.864Z" fill="#B1F1FF"/>
<path d="M45.152 63.5519C45.152 63.1119 45.104 63.0719 44.752 63.2959C44.6501 63.3737 44.5246 63.4141 44.3965 63.4105C44.2683 63.4068 44.1453 63.3593 44.048 63.2759C42.556 62.3559 42.208 62.4479 42.488 62.1519C43.084 61.5079 43.688 60.8639 44.26 60.2159C44.356 60.1039 44.448 60.0759 44.564 60.1479L47.364 61.7759C47.492 61.8479 47.504 61.9159 47.4 62.0199C46.788 62.6279 46.176 63.2439 45.564 63.8559C45.531 63.8985 45.4847 63.9288 45.4325 63.9418C45.3802 63.9549 45.3251 63.95 45.276 63.9279C45.088 63.8399 45.176 63.6599 45.152 63.5519Z" fill="#B1F1FF"/>
<path d="M45.3641 70.9199H44.9001C44.2961 70.9199 44.0521 70.6399 44.1641 70.0439C44.3081 69.2719 44.4841 68.5079 44.6561 67.7439C44.6655 67.6737 44.6923 67.607 44.7341 67.5499C44.7759 67.4927 44.8313 67.4469 44.8954 67.4167C44.9594 67.3864 45.03 67.3727 45.1007 67.3768C45.1714 67.3809 45.24 67.4026 45.3001 67.4399C46.2121 67.8799 47.1241 68.3359 48.0401 68.7719C48.2561 68.8759 48.3121 68.9479 48.1121 69.1359C47.5761 69.6479 47.0721 70.1999 46.5121 70.6759C46.2001 70.9119 46.1961 70.9199 45.3641 70.9199Z" fill="#B1F1FF"/>
<path d="M52.8842 60.16C52.879 60.1978 52.863 60.2334 52.8382 60.2625C52.8134 60.2915 52.7808 60.3129 52.7442 60.324C52.4121 60.5221 52.117 60.7766 51.8722 61.076C51.2842 61.684 50.6362 62.236 50.0122 62.812C49.9696 62.8537 49.9135 62.8787 49.854 62.8823C49.7945 62.886 49.7356 62.8681 49.6882 62.832C49.1682 62.532 48.6522 62.224 48.1282 61.928C47.9682 61.832 47.9722 61.74 48.0922 61.624C48.8922 60.844 49.5922 59.992 50.3242 59.164C50.35 59.1265 50.3832 59.0946 50.4218 59.0705C50.4604 59.0464 50.5036 59.0304 50.5486 59.0237C50.5936 59.0169 50.6395 59.0195 50.6835 59.0313C50.7275 59.043 50.7686 59.0637 50.8042 59.092C51.4202 59.408 52.0522 59.7 52.6762 60.004C52.7602 60.04 52.8522 60.072 52.8842 60.16Z" fill="#B1F1FF"/>
<path d="M33.4238 61.1999L35.1758 59.6239C35.1758 59.6239 35.1998 59.6239 35.2078 59.6239C35.6558 58.9759 36.1478 59.0879 36.7158 59.4839C37.1516 59.7664 37.6044 60.0216 38.0718 60.2479C38.2078 60.3199 38.2478 60.3639 38.1318 60.5039C37.5678 61.1719 37.0158 61.8479 36.4638 62.5039C36.4468 62.5348 36.4234 62.5617 36.3951 62.5828C36.3668 62.6039 36.3344 62.6187 36.2999 62.6263C36.2655 62.6339 36.2298 62.634 36.1953 62.6267C36.1608 62.6194 36.1283 62.6048 36.0998 62.5839C35.2238 62.1239 34.3398 61.6719 33.4238 61.1999Z" fill="#B1F1FF"/>
<path d="M30.4003 63.4319C30.3565 63.4285 30.3144 63.4133 30.2785 63.388C30.2426 63.3626 30.2142 63.3281 30.1963 63.2879C29.5732 62.3281 29.1149 61.2708 28.8403 60.1599C28.7723 59.9159 28.9323 59.9399 29.5203 59.5439C29.7523 59.3879 29.7003 59.5439 32.7203 61.0959C32.9923 61.2359 32.9003 61.3319 32.7203 61.4639C32.187 61.9199 31.6456 62.3746 31.0963 62.8279C30.9174 63.0173 30.7205 63.1888 30.5083 63.3399C30.4723 63.3639 30.4283 63.4079 30.4003 63.4319Z" fill="#B1F1FF"/>
<path d="M45.3359 67.172C46.0173 66.6401 46.6689 66.0712 47.2879 65.468C47.4719 65.276 47.3839 65.396 50.0879 66.804C50.3199 66.924 50.3239 67 50.1399 67.168C49.6399 67.632 49.1879 68.152 48.6559 68.588C48.6173 68.6303 48.5655 68.6585 48.5089 68.6679C48.4524 68.6773 48.3943 68.6675 48.3439 68.64C47.3639 68.156 46.3759 67.676 45.3359 67.172Z" fill="#B1F1FF"/>
<path d="M32.7999 57.244C29.7759 59.112 29.6919 59.184 29.6519 59.168C29.284 59.0417 28.9322 58.8725 28.6039 58.664C28.3799 58.532 28.4479 58.292 28.3919 58.1C28.1679 57.36 28.3679 56.852 29.1679 56.608C29.5544 56.4583 29.9233 56.2665 30.2679 56.036C30.344 55.9825 30.4348 55.9537 30.5279 55.9537C30.621 55.9537 30.7118 55.9825 30.7879 56.036C31.4199 56.44 32.0719 56.82 32.7999 57.244Z" fill="#B1F1FF"/>
<path d="M36.0601 58.876C36.8601 58.204 37.5961 57.5759 38.3321 56.9359C38.3787 56.8767 38.4372 56.8277 38.5038 56.7923C38.5704 56.7568 38.6436 56.7356 38.7189 56.7299C38.7941 56.7243 38.8697 56.7343 38.9408 56.7595C39.0119 56.7846 39.0771 56.8243 39.1321 56.8759C40.0921 57.6159 40.7841 57.5599 40.3081 58.076C40.0841 58.3199 39.8441 58.5479 39.6321 58.8039C39.2681 59.2359 38.8681 59.64 38.4921 60.064C38.4241 60.14 38.3841 60.1639 38.2881 60.1119L36.0601 58.876Z" fill="#B1F1FF"/>
<path d="M51.3361 65.8C51.4001 66.14 51.0762 66.268 50.8842 66.472C50.8402 66.5299 50.7851 66.5786 50.7223 66.6152C50.6594 66.6518 50.5899 66.6757 50.5178 66.6853C50.4457 66.695 50.3723 66.6903 50.302 66.6715C50.2317 66.6528 50.1658 66.6203 50.1081 66.576C49.3641 66.14 48.6042 65.74 47.8442 65.336C47.6802 65.248 47.6281 65.18 47.7961 65.036C48.4681 64.4626 49.1348 63.8866 49.7961 63.308C49.8254 63.2789 49.8649 63.2626 49.9062 63.2626C49.9474 63.2626 49.9869 63.2789 50.0162 63.308C50.1455 63.4117 50.2881 63.4978 50.4402 63.564C50.5905 63.5984 50.7319 63.6639 50.8553 63.7563C50.9788 63.8487 51.0815 63.966 51.1569 64.1005C51.2322 64.2351 51.2786 64.3839 51.2929 64.5374C51.3073 64.691 51.2893 64.8458 51.2402 64.992C51.2533 65.2632 51.2853 65.5332 51.3361 65.8Z" fill="#B1F1FF"/>
<path d="M30.728 55.8C31.928 55.148 33.1 54.568 34.276 53.992C34.428 53.916 34.516 53.948 34.572 54.104C34.972 55.244 35.8 55.304 35.328 55.616C34.608 56.064 33.9 56.528 33.184 56.984C33.121 57.0289 33.0455 57.0531 32.968 57.0531C32.8906 57.0531 32.8151 57.0289 32.752 56.984C32.096 56.596 31.432 56.216 30.728 55.8Z" fill="#B1F1FF"/>
<path d="M48.0243 49.8599C47.4883 50.4919 46.5123 51.4599 45.9483 52.0279C45.6883 52.2879 45.6283 52.0759 43.8563 51.5359C43.6283 51.4679 43.6683 51.3959 43.7803 51.2559C44.2998 50.6043 44.8695 49.9945 45.4843 49.4319C45.6349 49.282 45.8313 49.1868 46.0422 49.1615C46.2531 49.1361 46.4665 49.182 46.6483 49.2919C47.0483 49.4519 47.4483 49.5759 47.8483 49.7199C47.9163 49.7439 48.0003 49.7399 48.0243 49.8599Z" fill="#B1F1FF"/>
<path d="M38.0799 56.8C37.5079 57.288 36.9439 57.7919 36.3559 58.2599C35.7679 58.7279 35.7319 58.736 35.0479 58.344C34.5386 58.048 34.0266 57.7546 33.5119 57.464C33.3319 57.36 33.2319 57.2719 33.5119 57.1159C34.2026 56.6919 34.8892 56.2586 35.5719 55.8159C35.5999 55.7863 35.6337 55.7627 35.6712 55.7465C35.7087 55.7304 35.7491 55.722 35.7899 55.722C35.8307 55.722 35.8711 55.7304 35.9086 55.7465C35.9461 55.7627 35.9799 55.7863 36.0079 55.8159C36.5839 56.3679 37.2079 56.7799 38.0839 56.6919C38.0679 56.7199 38.0759 56.752 38.0799 56.8Z" fill="#B1F1FF"/>
<path d="M59.3721 49.488C59.8521 48.98 60.3481 48.528 60.7801 48.008C60.9151 47.8771 61.0357 47.7323 61.1401 47.576C61.2521 47.356 61.3601 47.4 61.5041 47.576C61.8185 47.9274 62.0873 48.3171 62.3041 48.736C62.7232 49.4376 63.1952 50.1062 63.7161 50.736C63.7641 50.796 63.8641 50.84 63.7721 50.936C63.7448 50.9729 63.7052 50.9989 63.6605 51.0092C63.6157 51.0195 63.5687 51.0134 63.5281 50.992C58.9081 49.344 59.7041 49.672 59.3721 49.488Z" fill="#B1F1FF"/>
<path d="M54.04 59.6C54.472 59.24 56.388 57.652 56.908 57.2C56.9638 57.1313 57.0408 57.083 57.1269 57.0628C57.2131 57.0425 57.3035 57.0514 57.384 57.088C58.184 57.432 58.984 57.772 59.784 58.108C59.96 58.18 59.904 58.236 59.784 58.32C59.5945 58.4602 59.3779 58.5596 59.148 58.612C56.852 59.192 55.78 59.108 54.064 59.688L54.04 59.6Z" fill="#B1F1FF"/>
<path d="M42.5199 53C42.5598 52.7427 42.6869 52.5068 42.8799 52.332C43.4519 51.616 43.4639 51.62 44.3359 51.932C44.6719 52.044 44.9959 52.184 45.3359 52.28C45.6759 52.376 45.5279 52.444 45.3959 52.596C44.7079 53.396 43.8839 54.088 43.2039 54.908C43.1319 54.996 43.0599 55.084 42.9079 55.016C42.5079 54.832 42.1079 54.664 41.7079 54.492C41.4479 54.38 41.5119 54.248 41.6759 54.092L43.1999 52.76C42.8799 52.624 42.7599 52.98 42.5199 53Z" fill="#B1F1FF"/>
<path d="M49.7241 63.132C49.3561 63.364 49.7961 63 47.6481 64.888C47.5754 64.9713 47.4734 65.0236 47.3633 65.034C47.2531 65.0445 47.1432 65.0122 47.0561 64.944C45.8561 64.172 45.5081 64.256 45.7961 63.972C46.4041 63.376 46.9961 62.772 47.6041 62.168C47.7081 62.06 47.7921 62.016 47.9361 62.1C48.4441 62.4 49.6001 63.052 49.7241 63.132Z" fill="#B1F1FF"/>
<path d="M42.8683 55.2239L40.9003 57.4199C40.8808 57.4491 40.8555 57.4738 40.826 57.4926C40.7964 57.5114 40.7633 57.5238 40.7287 57.5291C40.694 57.5344 40.6587 57.5324 40.6249 57.5232C40.5911 57.514 40.5595 57.4979 40.5323 57.4759C40.0603 57.1879 39.5843 56.9039 39.1083 56.6239C38.9443 56.5279 38.9523 56.4399 39.1083 56.3399C39.8235 55.8412 40.4821 55.2658 41.0723 54.6239C41.1049 54.5761 41.1544 54.5425 41.2109 54.5299C41.2673 54.5173 41.3265 54.5266 41.3763 54.5559C41.8563 54.7999 42.3443 54.9879 42.8683 55.2239Z" fill="#B1F1FF"/>
<path d="M46.1763 48.908C48.6723 47.112 47.3203 48.108 48.9763 46.992C49.5243 46.624 50.0083 46.92 50.5163 47.028C50.6523 47.056 50.6443 47.148 50.5763 47.24C50.5474 47.2774 50.5153 47.3123 50.4803 47.344C49.8283 48.028 49.1683 48.704 48.5203 49.388C48.4527 49.4771 48.356 49.5395 48.247 49.5643C48.138 49.5892 48.0238 49.5749 47.9243 49.524C47.3683 49.316 46.8003 49.132 46.1763 48.908Z" fill="#B1F1FF"/>
<path d="M51.8482 69.3999C51.8482 69.6839 51.6122 69.7719 51.4842 69.9439C51.2842 70.2239 51.1202 70.0359 50.9202 69.9439C50.2802 69.6079 49.6362 69.2879 48.9842 68.9719C48.8082 68.8879 48.7682 68.8239 48.9282 68.6799C49.4295 68.2132 49.9255 67.7412 50.4162 67.2639C50.468 67.2117 50.5369 67.1797 50.6103 67.1738C50.6836 67.168 50.7567 67.1886 50.8162 67.2319C51.0565 67.2867 51.2694 67.4257 51.4161 67.6238C51.5628 67.8219 51.6338 68.066 51.6162 68.3119C51.6614 68.6807 51.739 69.0448 51.8482 69.3999Z" fill="#B1F1FF"/>
<path d="M40.3398 64.7C40.8918 64.008 41.4238 63.336 42.0158 62.7C42.1118 62.604 42.1878 62.48 42.3678 62.584C42.9718 62.932 43.5678 63.264 44.2238 63.616C43.7847 64.0014 43.2965 64.3269 42.7718 64.584C42.4318 64.776 42.0758 64.936 41.7238 65.1C41.6211 65.1532 41.5058 65.1776 41.3903 65.1706C41.2748 65.1636 41.1634 65.1253 41.0678 65.06C40.8358 64.936 40.5918 64.824 40.3398 64.7Z" fill="#B1F1FF"/>
<path d="M46.5923 70.8999C46.7661 70.6765 46.9756 70.4832 47.2123 70.3279C48.4123 69.3079 48.4123 68.9319 48.8123 69.1559C49.4603 69.4959 50.1123 69.8279 50.7763 70.1399C51.3003 70.3879 50.7123 70.4719 50.4363 70.9399C50.399 71.0002 50.3454 71.0488 50.2817 71.0799C50.218 71.111 50.1468 71.1235 50.0763 71.1159C49.2483 71.1159 48.4363 70.9879 47.6123 70.9399C47.3003 70.9359 46.9683 70.9559 46.5923 70.8999Z" fill="#B1F1FF"/>
<path d="M32.068 51.9C31.464 52.124 29.232 52.984 28.668 53.192C28.568 53.228 28.448 53.344 28.34 53.236C28.232 53.128 28.34 53.04 28.34 52.94C28.42 52.444 28.5 51.944 28.564 51.444C28.6334 51.2434 28.6672 51.0323 28.664 50.82C28.612 50.516 28.884 50.552 29.064 50.632C29.924 50.98 31.868 51.816 32.068 51.9Z" fill="#B1F1FF"/>
<path d="M19.2839 35.728C19.0559 35.768 18.9999 35.584 18.9679 35.388C18.9279 35.12 19.1359 35.184 19.2919 35.152C20.1279 34.968 23.5239 34.204 24.3879 34.036C24.5879 33.996 24.8239 33.92 24.9079 34.276C24.9919 34.632 24.9079 34.648 24.6119 34.676C24.08 34.7761 23.555 34.9097 23.0399 35.076C21.8079 35.3 20.5639 35.488 19.2839 35.728Z" fill="#B1F1FF"/>
<path d="M24.1081 39.788C24.0641 39.568 24.2201 39.492 24.4081 39.452C25.8121 39.172 27.1681 38.684 28.5881 38.456C28.7641 38.428 28.8961 38.456 28.9361 38.64C28.953 38.7083 28.9961 38.7672 29.0561 38.804C29.1481 38.876 29.2601 38.952 29.1961 39.092C29.1682 39.1452 29.1262 39.1898 29.0748 39.2209C29.0233 39.2519 28.9642 39.2682 28.9041 39.268C27.8721 39.364 26.8841 39.696 25.8681 39.888L24.5241 40.14C24.1841 40.204 24.1041 40.14 24.1081 39.788Z" fill="#B1F1FF"/>
<path d="M28.736 50.116C28.884 49.488 28.904 48.916 29.056 48.356C29.172 47.956 29.268 48.212 31.16 48.704C31.5 48.792 31.54 49.0479 31.608 49.3079C31.644 49.4439 31.54 49.436 31.468 49.46L29.02 50.26C28.8 50.328 28.732 50.256 28.736 50.116Z" fill="#B1F1FF"/>
<path d="M66.8958 56.2879C66.3998 56.0719 66.3438 56.0239 64.4118 55.2719C64.1838 55.1839 64.1758 55.0839 64.3758 54.9439C64.8758 54.5879 65.3718 54.2319 65.8638 53.8639C66.0118 53.7479 66.0638 53.8239 66.1278 53.9399C67.2758 55.9639 67.1438 55.6879 67.1878 55.7759C67.2318 55.8639 67.3918 55.9439 67.2638 56.0799C67.2241 56.1419 67.1698 56.1933 67.1056 56.2296C67.0415 56.2658 66.9695 56.2859 66.8958 56.2879Z" fill="#B1F1FF"/>
<path d="M29.3281 50.432C29.3841 50.328 29.4961 50.316 29.5921 50.288C30.1961 50.092 30.7921 49.888 31.4041 49.7C31.6441 49.616 31.7481 49.7 31.8041 49.92C31.9577 50.4516 32.2027 50.9524 32.5281 51.4C32.5881 51.484 32.7081 51.596 32.6201 51.708C32.58 51.752 32.5264 51.7814 32.4677 51.7915C32.4091 51.8017 32.3487 51.792 32.2961 51.764L29.4721 50.564C29.4241 50.54 29.3441 50.524 29.3281 50.432Z" fill="#B1F1FF"/>
<path d="M47.2201 65.2719C46.5721 65.8359 45.9721 66.3639 45.3641 66.8719C45.3178 66.9304 45.2527 66.9711 45.1798 66.9872C45.1069 67.0032 45.0308 66.9936 44.9641 66.9599C44.7801 66.8559 44.9081 66.7119 44.9281 66.5839C45.0583 66.0113 45.1307 65.427 45.1441 64.8399C45.1441 64.4039 45.3841 64.2599 45.7721 64.4679C46.2481 64.7279 46.7121 64.9919 47.2201 65.2719Z" fill="#B1F1FF"/>
<path d="M28.4643 31.236C28.3894 31.2213 28.3194 31.1883 28.2603 31.14C27.8452 30.79 27.4574 30.4089 27.1003 30C27.0746 29.9724 27.0549 29.9397 27.0425 29.9041C27.0301 29.8684 27.0252 29.8306 27.0282 29.793C27.0312 29.7554 27.042 29.7188 27.0599 29.6856C27.0779 29.6523 27.1025 29.6232 27.1323 29.6C27.3323 29.4 27.5323 29.2 27.7363 29C27.7645 28.9612 27.8015 28.9296 27.8442 28.9078C27.887 28.886 27.9343 28.8746 27.9823 28.8746C28.0303 28.8746 28.0776 28.886 28.1203 28.9078C28.1631 28.9296 28.2001 28.9612 28.2283 29C28.6084 29.4364 28.9041 29.9396 29.1003 30.484C29.1126 30.576 29.1056 30.6695 29.0795 30.7586C29.0535 30.8477 29.0091 30.9303 28.9492 31.0012C28.8892 31.072 28.8151 31.1295 28.7316 31.17C28.6481 31.2104 28.557 31.2329 28.4643 31.236Z" fill="#B1F1FF"/>
<path d="M23.0041 42.1199C23.0479 42.1072 23.0941 42.1051 23.1389 42.1138C23.1838 42.1224 23.2259 42.1416 23.2618 42.1697C23.2977 42.1978 23.3265 42.2341 23.3457 42.2755C23.3648 42.3169 23.3739 42.3623 23.3721 42.4079C23.3721 42.6159 23.3721 42.8479 23.0481 42.9079C22.4281 43.0319 21.8121 43.1839 21.1961 43.3079C20.2081 43.5359 20.4601 42.7599 20.6241 42.7039C21.3987 42.4397 22.1951 42.2443 23.0041 42.1199Z" fill="#B1F1FF"/>
<path d="M30.2438 55.748L28.4398 56.724C28.2998 56.796 28.2358 56.724 28.2358 56.596C28.2358 55.964 28.2358 55.328 28.2358 54.632L30.2438 55.748Z" fill="#B1F1FF"/>
<path d="M51.6001 61.672C51.4633 62.2726 51.3592 62.8801 51.2881 63.492C51.2881 63.648 51.2281 63.788 51.0081 63.62C50.7813 63.4734 50.5462 63.3398 50.3041 63.22C50.1561 63.132 50.0721 63.052 50.2681 62.884C50.7121 62.524 51.1201 62.124 51.6001 61.672Z" fill="#B1F1FF"/>
<path d="M29.6643 47.2279C30.3563 47.2279 30.6803 47.7599 31.0123 48.2919C31.1083 48.4399 31.0123 48.4679 30.8963 48.4399C30.3683 48.2799 29.8363 48.1319 29.3243 47.9319C29.0883 47.8399 29.3003 47.6199 29.3243 47.4679C29.3483 47.3159 29.3923 47.1519 29.6643 47.2279Z" fill="#B1F1FF"/>
<path d="M65.5239 57.9759C66.0119 57.5359 66.4919 57.0919 66.9919 56.6679C67.1559 56.5319 67.3519 56.6679 67.4679 56.7839C67.5839 56.8999 67.4079 56.9919 67.3399 57.0759C67.1196 57.3475 66.8433 57.5685 66.53 57.7238C66.2166 57.8791 65.8735 57.9651 65.5239 57.9759Z" fill="#B1F1FF"/>
<path d="M49.8081 46.6199C50.4627 46.2756 51.1467 45.9904 51.8521 45.7679C51.5906 46.1796 51.2636 46.5457 50.8841 46.8519C50.8001 46.9319 50.6841 46.8519 50.5801 46.8519C50.3481 46.7599 50.1121 46.6999 49.8081 46.6199Z" fill="#B1F1FF"/>
<path d="M50.48 71.0799C50.696 70.8919 50.916 70.7119 51.12 70.5199C51.324 70.3279 51.364 70.5199 51.784 70.6759C51.8184 70.6856 51.8506 70.702 51.8787 70.7241C51.9068 70.7463 51.9302 70.7737 51.9477 70.8049C51.9651 70.8361 51.9763 70.8705 51.9804 70.906C51.9846 70.9415 51.9817 70.9775 51.972 71.0119C51.9671 71.0504 51.9545 71.0875 51.9351 71.1211C51.9157 71.1547 51.8898 71.1841 51.8589 71.2076C51.828 71.231 51.7927 71.2481 51.7551 71.2578C51.7175 71.2675 51.6784 71.2695 51.64 71.2639C51.276 71.2639 50.916 71.2119 50.552 71.1839L50.48 71.0799Z" fill="#B1F1FF"/>
<path d="M26.9201 34.2999C26.6681 34.2999 26.5201 34.2199 26.4641 33.9959C26.4081 33.7719 26.6401 33.7479 26.8121 33.7199C27.2721 33.6359 27.6121 33.3679 27.7041 33.6759C27.7274 33.7802 27.7123 33.8894 27.6616 33.9834C27.6109 34.0775 27.528 34.1501 27.4281 34.1879C27.2639 34.2456 27.0933 34.2832 26.9201 34.2999Z" fill="#B1F1FF"/>
<path d="M40.9402 65.344C40.5264 65.503 40.0975 65.6196 39.6602 65.692C39.9442 64.916 40.3522 64.8 40.9402 65.344Z" fill="#B1F1FF"/>
<path d="M18.2641 29.272C18.2517 29.3894 18.2012 29.4995 18.1203 29.5855C18.0394 29.6715 17.9325 29.7285 17.8161 29.748C17.7635 29.7454 17.712 29.7325 17.6644 29.71C17.6169 29.6875 17.5742 29.6559 17.5389 29.6168C17.5036 29.5778 17.4764 29.5322 17.4587 29.4827C17.4411 29.4331 17.4334 29.3805 17.4361 29.328C17.4361 29.108 17.6001 28.98 17.8361 28.968C17.8842 28.9594 17.9335 28.9605 17.9812 28.9712C18.0289 28.9819 18.074 29.002 18.1138 29.0303C18.1537 29.0586 18.1875 29.0945 18.2133 29.136C18.2391 29.1775 18.2563 29.2237 18.2641 29.272Z" fill="#B1F1FF"/>
<path d="M28.5083 58.864C28.6591 58.9303 28.806 59.005 28.9483 59.088C29.0843 59.172 29.3243 59.176 29.3203 59.352C29.3163 59.528 29.0883 59.52 28.9683 59.608C28.8483 59.696 28.6723 59.724 28.6523 59.46C28.6167 59.2585 28.5686 59.0595 28.5083 58.864Z" fill="#B1F1FF"/>
<path d="M51.4479 67.2679C51.2279 67.1319 50.8839 67.1199 50.8679 66.8959C50.8519 66.6719 51.1199 66.4959 51.3799 66.3879C51.4614 66.6737 51.4845 66.973 51.4479 67.2679Z" fill="#B1F1FF"/>
<path d="M51.4683 70.2319L51.8683 69.8879C51.9243 70.0519 52.0643 70.2359 51.9203 70.3759C51.7763 70.5159 51.6563 70.3119 51.4683 70.2319Z" fill="#B1F1FF"/>
<path d="M76.148 68.68C76.148 69.036 76.148 69.392 76.148 69.748C76.157 69.9544 76.0858 70.1562 75.9494 70.3113C75.8129 70.4664 75.6218 70.5627 75.416 70.58C74.9134 70.648 74.4071 70.6841 73.9 70.688C72.956 70.764 72.008 70.736 71.064 70.78C69.34 70.868 67.612 70.84 65.896 71.044C65.496 71.096 65.048 71.084 64.624 71.112C63.704 71.172 62.78 71.156 61.86 71.212C60.712 71.276 59.56 71.212 58.416 71.296C57.508 71.36 56.596 71.296 55.692 71.396C55.1359 71.4342 54.5772 71.3856 54.036 71.252C53.9249 71.243 53.8168 71.2119 53.7179 71.1605C53.6191 71.1092 53.5315 71.0385 53.4603 70.9528C53.3891 70.8671 53.3358 70.7681 53.3035 70.6614C53.2711 70.5548 53.2604 70.4428 53.272 70.332C53.2303 68.459 53.3454 66.5858 53.616 64.732C53.6864 63.6246 53.9071 62.5319 54.272 61.484C54.4968 60.8956 54.8646 60.3724 55.3423 59.9618C55.82 59.5511 56.3925 59.266 57.008 59.132C57.8672 58.9227 58.7446 58.7968 59.628 58.756C64.956 58.436 63.552 58.264 67.344 58.048C69.088 57.948 70.912 57.868 72.424 58.624C73.3385 59.0169 74.0801 59.7272 74.512 60.624C76.156 64.336 75.932 63.204 76.168 68.708L76.148 68.68Z" fill="#282828"/>
<path d="M13.8321 29.4601C13.9001 29.5721 13.8321 29.7081 13.9641 29.8401C14.2601 28.6041 15.3321 28.3481 16.2721 28.0041C18.73 27.1272 21.2402 26.4044 23.7881 25.8401C25.5401 25.4401 26.2161 25.0401 31.0921 24.3481C32.4481 24.1561 33.7841 23.8521 35.1321 23.6121C36.5681 23.3601 38.0121 23.1521 39.4561 22.9321C39.7456 22.873 40.0293 22.7887 40.3041 22.6801C41.9601 22.1161 42.8321 22.4841 44.3601 21.9041C44.5133 21.8415 44.6711 21.7906 44.8321 21.7521C44.9069 21.7279 44.9882 21.7341 45.0585 21.7692C45.1288 21.8044 45.1825 21.8657 45.2081 21.9401C45.2231 21.9761 45.2304 22.015 45.2293 22.054C45.2282 22.0931 45.2188 22.1314 45.2018 22.1666C45.1848 22.2018 45.1605 22.2329 45.1306 22.258C45.1006 22.2831 45.0657 22.3015 45.0281 22.3121C44.4061 22.6026 43.7393 22.7852 43.0561 22.8521C42.0519 22.8844 41.0589 23.072 40.1121 23.4081C39.9841 23.4601 39.8401 23.4601 39.8841 23.6801C39.9281 23.9001 39.7321 23.9121 39.5961 23.9121C37.8881 23.9121 36.2921 24.5401 34.6201 24.7561C33.9321 24.8481 33.2441 24.9561 32.5561 25.0641C32.3456 25.0907 32.1428 25.1602 31.9601 25.2681C31.3761 25.6161 30.6921 25.6161 30.0561 25.7681C27.6241 26.3521 26.7801 26.0561 22.9681 27.2681C22.0401 27.5601 21.0481 27.5281 20.1281 27.8321C19.5243 27.9819 18.9127 28.0981 18.2961 28.1801C17.7721 28.2921 17.3081 28.5001 16.8121 28.6561C16.5938 28.718 16.3998 28.8457 16.2567 29.0218C16.1136 29.1978 16.0281 29.4137 16.0121 29.6401C15.8081 31.2161 16.0521 33.9601 16.2761 35.3961C16.4721 36.6561 16.6241 37.9241 16.8841 39.1681C17.5641 42.3961 17.6641 44.2681 18.5321 46.1841C18.6404 46.4062 18.8123 46.5909 19.0261 46.7149C19.2398 46.8388 19.4856 46.8964 19.7321 46.8801C21.8281 46.9801 23.8321 46.4481 26.6121 45.8481C26.8572 45.7995 27.1087 45.7927 27.3561 45.8281C27.9361 45.9001 28.2001 46.4881 27.9521 47.1201C27.8499 47.3575 27.7152 47.5796 27.5521 47.7801C27.2914 48.1457 26.9503 48.4465 26.555 48.6595C26.1597 48.8724 25.7208 48.9916 25.2721 49.0081C25.1963 49.004 25.1206 49.0178 25.0511 49.0484C24.9816 49.079 24.9203 49.1254 24.8721 49.1841C24.7201 49.3601 24.4721 49.3641 24.2601 49.4401C23.3521 49.7841 22.3801 49.7601 21.4601 49.9401C20.9875 50.048 20.4967 50.048 20.0241 49.9401C19.7507 49.9186 19.4761 49.9639 19.2241 50.0721C18.2161 50.3121 17.5361 50.0121 17.0721 49.0801C16.6325 48.1353 16.3114 47.1397 16.1161 46.1161C15.8921 45.0921 14.5921 39.8761 14.2681 36.9601C14.0961 35.4081 13.7561 33.8881 13.6121 32.3361C13.5738 31.8874 13.594 31.4356 13.6721 30.9921C13.7601 30.4921 13.6281 29.9641 13.8321 29.4601Z" fill="#282828"/>
<path d="M47.2003 44.748C46.7881 44.8774 46.367 44.9763 45.9403 45.044C45.1403 45.108 44.3403 45.224 43.5163 45.308C41.9448 45.4747 40.3856 45.7419 38.8483 46.108C36.7643 46.604 34.6643 47.044 32.5683 47.504C32.0123 47.624 31.8963 47.504 31.8523 46.92C31.7883 46.12 32.0643 45.384 32.1603 44.612C32.1923 44.38 32.3843 44.476 32.5163 44.424C33.0403 44.216 33.5963 44.18 34.1163 44.024C36.1163 43.428 38.1843 43.104 40.2163 42.64C40.7803 42.508 41.3523 42.436 41.9243 42.336C42.2043 42.288 42.4803 42.48 42.7643 42.336C42.8203 42.308 42.8923 42.404 42.9123 42.468C43.0043 42.76 43.2283 42.76 43.4723 42.744C44.4755 42.7185 45.4782 42.8097 46.4603 43.016C46.7033 43.0373 46.9327 43.1376 47.1133 43.3016C47.2939 43.4656 47.4158 43.6842 47.4603 43.924C47.5643 44.456 47.4523 44.688 47.2003 44.748Z" fill="#282828"/>
<path d="M53.4683 19.428C53.4744 19.2528 53.4388 19.0787 53.3643 18.92C52.9447 17.7035 52.6053 16.4609 52.3483 15.2C52.2083 14.536 52.3083 14.4 52.9203 14.076C53.7603 13.644 53.7523 13.648 53.4723 12.784C53.3083 12.276 53.0723 11.8 52.9403 11.28C52.7883 10.608 52.8483 10.456 53.4723 10.172C53.8243 10.012 54.1883 9.86803 54.5563 9.73603C55.2676 9.44592 55.9597 9.11057 56.6283 8.73203C57.1083 8.48403 57.3083 8.53603 57.4763 9.06403C57.7443 9.89203 58.0363 11.116 58.1563 11.52C58.2763 11.924 58.1923 12.1 57.7323 12.128C57.276 12.1929 56.829 12.311 56.4003 12.48C56.1763 12.548 56.2523 12.68 56.3363 12.808C56.6123 13.232 56.8923 13.656 57.1683 14.084C57.4443 14.512 57.3523 14.62 56.9323 14.82C56.3443 15.1 55.8123 15.476 55.2563 15.812C55.0083 15.96 55.0883 16.18 55.1323 16.38C55.372 17.2226 55.4839 18.0963 55.4643 18.972C55.4363 19.428 55.3203 19.6 54.8763 19.58C54.3003 19.548 53.3923 20.036 53.4683 19.428Z" fill="#282828"/>
<path d="M39.0161 46.5161C39.2121 46.5161 39.4161 46.6521 39.5801 46.3601C39.6481 46.2281 39.8961 46.3121 40.0521 46.4401C40.7761 47.0281 41.4921 47.6401 42.2361 48.1921C42.706 48.5492 43.1245 48.9691 43.4801 49.4401C43.5558 49.5092 43.6125 49.5966 43.6448 49.6939C43.6771 49.7911 43.684 49.8951 43.6648 49.9957C43.6455 50.0964 43.6008 50.1905 43.5348 50.269C43.4689 50.3474 43.384 50.4077 43.2881 50.4441C42.9303 50.6544 42.5373 50.798 42.1281 50.8681C39.3281 51.3641 37.5441 51.2681 34.7001 52.1281C34.5361 52.1761 34.3481 52.2521 34.2001 52.0921C34.0521 51.9321 34.2001 51.7801 34.2401 51.6161C34.4841 50.4161 35.1361 49.3761 35.9081 48.0161C36.1177 47.6543 36.4519 47.3813 36.8481 47.2481C37.4423 46.9869 38.0498 46.7573 38.6681 46.5601C38.7833 46.5393 38.8994 46.5246 39.0161 46.5161Z" fill="#282828"/>
<path d="M25.1998 56.08C25.3878 56.48 25.3878 56.48 24.9678 56.588H24.9358C24.4478 56.692 23.9198 57.112 23.5158 56.416C23.5158 56.444 23.4798 56.488 23.4918 56.504C23.7758 56.904 23.7678 56.904 23.3118 57.084C22.9358 57.232 22.6478 57.244 22.4398 56.836C22.4183 56.7799 22.3758 56.7344 22.3213 56.7091C22.2668 56.6837 22.2047 56.6804 22.1478 56.7L22.5838 57.292C22.4558 57.332 22.3398 57.36 22.2358 57.404C21.7398 57.624 21.2878 57.696 20.9958 57.096C20.9958 57.056 20.9318 57.032 20.8918 57.004C20.8639 56.9922 20.8341 56.9854 20.8038 56.984C20.7558 57.16 20.9158 57.228 20.9838 57.328C21.2318 57.684 21.2398 57.676 20.8078 57.792C20.3998 57.885 19.9988 58.0067 19.6078 58.156C19.3358 58.272 19.1758 58.18 19.1558 57.88C19.0975 57.5649 19.1558 57.2393 19.3198 56.964C19.7678 56.5 20.1198 55.892 20.8478 55.764C21.9958 55.544 23.1278 55.248 24.2718 55.024C24.7512 54.944 25.2405 54.944 25.7198 55.024C25.8658 55.0701 26.0203 55.0829 26.1719 55.0615C26.3235 55.04 26.4684 54.9848 26.5958 54.9C26.7918 54.744 26.9958 54.868 26.9958 55.128C26.9812 55.3634 26.9947 55.5997 27.0358 55.832C27.0838 56.004 26.9158 56.016 26.8158 56.048C26.4998 56.148 26.1798 56.224 25.8678 56.332C25.8271 56.3547 25.7822 56.3689 25.7359 56.3737C25.6895 56.3786 25.6426 56.3739 25.5981 56.3601C25.5536 56.3462 25.5124 56.3235 25.4769 56.2932C25.4414 56.2629 25.4125 56.2258 25.3918 56.184C25.3758 56.12 25.3438 56.032 25.1998 56.08Z" fill="#282828"/>
<path d="M23.692 60.14C23.968 60.056 24.216 59.992 24.452 59.9C24.5293 59.8585 24.6194 59.8474 24.7045 59.8689C24.7896 59.8903 24.8636 59.9428 24.912 60.016C25.056 60.204 25.276 60.312 25.412 60.516C25.4452 60.5709 25.4966 60.6126 25.5571 60.6337C25.6177 60.6549 25.6838 60.6543 25.744 60.632C25.54 60.296 25.208 60.096 24.968 59.764C25.332 59.66 25.668 59.56 26.008 59.472C26.252 59.412 26.328 59.624 26.892 60.224C26.968 60.304 27.04 60.416 27.236 60.364C27.008 60.108 26.804 59.872 26.592 59.644C26.448 59.488 26.344 59.372 26.672 59.308C26.924 59.26 27.184 59.072 27.416 59.14C27.648 59.208 27.584 59.572 27.708 59.784C27.832 59.996 27.972 60.284 28.108 60.532C28.74 61.712 26.864 61.552 25.564 61.808C25.1837 61.8919 24.797 61.9441 24.408 61.964C24.1347 61.9789 23.8724 62.0765 23.656 62.244C23.5754 62.3036 23.4824 62.3445 23.3839 62.3635C23.2854 62.3825 23.184 62.3792 23.0869 62.3539C22.9899 62.3286 22.8997 62.2818 22.8231 62.2172C22.7464 62.1525 22.6853 62.0714 22.644 61.98C22.4712 61.5776 22.2318 61.2071 21.936 60.884C21.58 60.484 22.196 60.656 23.36 60.256C23.536 60.196 23.644 60.324 23.76 60.436C23.876 60.548 24.076 60.74 24.236 60.892L24.332 60.816L23.692 60.14Z" fill="#282828"/>
<path d="M18.3479 33.2441C18.3479 33.0681 18.3199 32.9281 18.6119 32.9841C18.8356 32.9957 19.0586 32.9503 19.2599 32.8521C20.4599 32.4241 21.7159 32.2921 22.9479 32.0241C25.3873 31.4922 27.8535 31.0916 30.3359 30.8241C30.5319 30.7961 30.7359 30.7321 30.9199 30.6921C30.9599 30.6921 34.9199 29.8921 34.9199 29.8921C35.1279 29.9121 35.4439 29.7921 35.4839 30.0921C35.5239 30.3921 35.1999 30.3161 35.0239 30.3681C33.6399 30.8001 32.1559 30.8001 30.7439 31.2001C29.8439 31.4281 28.9439 31.6361 28.0319 31.7961C25.9759 32.1521 23.9359 32.5961 21.8799 32.9361C20.8429 33.0909 19.8148 33.3005 18.7999 33.5641C18.4679 33.6601 18.3519 33.5681 18.3479 33.2441Z" fill="#282828"/>
<path d="M47.8161 33.796C48.0907 33.7791 48.3653 33.8277 48.6175 33.9379C48.8696 34.048 49.0919 34.2164 49.2662 34.4293C49.4404 34.6422 49.5615 34.8935 49.6196 35.1624C49.6776 35.4313 49.6709 35.7102 49.6001 35.976C49.3681 36.996 48.9721 37.264 47.9521 37.54C47.4161 37.684 46.6601 37.196 46.4121 36.624C46.2299 36.1855 46.191 35.7007 46.3009 35.2388C46.4108 34.7769 46.6639 34.3615 47.0241 34.052C47.1317 33.9577 47.2575 33.8864 47.3937 33.8424C47.5298 33.7984 47.6736 33.7826 47.8161 33.796Z" fill="#282828"/>
<path d="M39.56 53.0801C39.604 53.5721 39.212 53.4801 38.948 53.5641C38.684 53.6481 38.48 53.6161 38.412 53.2961C38.22 53.4201 38.464 53.6201 38.328 53.6961C38.0951 53.7777 37.8573 53.8445 37.616 53.8961C37.452 53.9481 37.436 53.8081 37.412 53.7201C37.356 53.5041 37.22 53.4841 36.96 53.5281C37.184 53.6041 37.308 53.7241 37.284 53.8921C37.26 54.0601 37.064 53.9801 36.96 54.0481C36.9383 54.0584 36.9155 54.0665 36.892 54.0721C36.292 54.2241 36.044 54.0721 35.864 53.4681C35.812 53.3001 35.824 53.1961 36.044 53.1401C36.844 52.9481 37.644 52.9241 38.416 52.7401C39.38 52.5321 40.544 52.1561 40.784 52.1521C41.024 52.1481 41.148 52.2841 41.044 52.5321C40.936 52.7549 40.7719 52.9458 40.5678 53.086C40.3638 53.2263 40.1267 53.3111 39.88 53.3321C39.68 53.3841 39.72 53.1441 39.56 53.0801Z" fill="#282828"/>
<path d="M37.6 40.208C37.5996 40.2463 37.5913 40.2842 37.5758 40.3193C37.5603 40.3543 37.5379 40.3859 37.5098 40.4121C37.4818 40.4382 37.4488 40.4585 37.4127 40.4715C37.3767 40.4846 37.3383 40.4902 37.3 40.488C36.3614 40.5491 35.4335 40.7223 34.536 41.004C34.236 41.1 34.196 40.904 34.136 40.708C34.076 40.512 34.096 40.376 34.336 40.308C35.26 40.088 36.184 39.848 37.112 39.636C37.436 39.564 37.6 39.736 37.6 40.208Z" fill="#282828"/>
<path d="M31.6843 29.964C31.5463 29.9853 31.4054 29.9528 31.2907 29.8731C31.1761 29.7934 31.0964 29.6727 31.0683 29.536C30.9523 29.136 30.8603 28.764 30.7483 28.38C30.6923 28.176 30.7483 28.072 30.9683 28.024C31.2323 27.96 31.4923 27.884 31.7683 27.816C32.0443 27.748 32.2283 27.852 32.2043 28.14C32.1643 28.644 32.1603 29.152 32.1443 29.656C32.1203 29.94 31.9083 30 31.6843 29.964Z" fill="#282828"/>
<path d="M23.0402 40.1C23.049 40.1362 23.05 40.1738 23.0432 40.2103C23.0364 40.2469 23.0219 40.2816 23.0008 40.3122C22.9796 40.3428 22.9523 40.3685 22.9205 40.3878C22.8887 40.4071 22.8532 40.4194 22.8162 40.424C22.0402 40.628 21.2362 40.652 20.4562 40.824C20.0562 40.916 20.1122 40.548 20.0562 40.336C20.0002 40.124 20.1602 40.068 20.3522 40.048C21.0762 39.953 21.7945 39.8195 22.5042 39.648C22.8922 39.576 23.0442 39.7 23.0402 40.1Z" fill="#282828"/>
<path d="M22.584 59.228C22.056 59.42 21.556 59.592 21.06 59.784C20.876 59.852 20.86 59.716 20.34 59.224C20.18 59.076 20.216 59.012 20.416 58.952C21.828 58.552 21.872 58.388 22.016 58.552C22.16 58.716 22.4 58.988 22.584 59.228Z" fill="#282828"/>
<path d="M23.3039 60C23.3039 60.104 23.2239 60.116 23.1639 60.128C22.6759 60.26 22.1879 60.384 21.6959 60.504C21.6039 60.528 21.1279 60.056 21.1399 59.964C21.1519 59.872 21.2359 59.86 21.2919 59.84C21.7159 59.692 22.1439 59.556 22.5679 59.416C22.6023 59.41 22.6375 59.41 22.6719 59.416C22.9119 59.5763 23.1252 59.7734 23.3039 60Z" fill="#282828"/>
<path d="M21.7521 58.304L20.1201 58.856C19.9073 58.756 19.727 58.598 19.6001 58.4C19.6001 58.3 19.6961 58.316 19.7561 58.292C20.2406 58.1089 20.7397 57.9671 21.2481 57.868C21.5641 57.816 21.5681 58.148 21.7521 58.304Z" fill="#282828"/>
<path d="M22.1479 58.4L23.1639 58.124C23.1975 58.1116 23.2342 58.1107 23.2683 58.1216C23.3024 58.1325 23.3318 58.1544 23.352 58.184C23.496 58.424 23.7519 58.584 23.8679 58.864C22.7479 59.22 22.6559 59.3 22.1479 58.4Z" fill="#282828"/>
<path d="M25.9683 57.4081C26.2302 57.5441 26.4408 57.7618 26.5683 58.0281C26.5683 58.0961 26.4963 58.1041 26.4403 58.1201C26.3043 58.1561 26.1683 58.2041 26.0403 58.2441C25.3723 58.4601 25.3083 58.4401 24.9083 57.8841C24.8603 57.8161 24.7763 57.7401 24.9083 57.7001C25.2723 57.6001 25.6363 57.5001 25.9683 57.4081Z" fill="#282828"/>
<path d="M27.3759 58.9201C27.0407 59.0461 26.6973 59.149 26.3479 59.2281C26.1799 59.2841 26.1479 59.2041 25.6479 58.6081C26.3999 58.0881 26.7999 58.1521 27.3759 58.9201Z" fill="#282828"/>
<path d="M27.2002 56.904C27.1042 57.104 26.1602 57.184 26.0002 57.012C25.6402 56.58 25.6402 56.58 26.1722 56.412C26.3553 56.3678 26.5345 56.309 26.7082 56.236C27.0322 56.076 27.1522 56.204 27.1762 56.52C27.2061 56.6457 27.2142 56.7755 27.2002 56.904Z" fill="#282828"/>
<path d="M25.9999 59.304C25.7679 59.368 25.5639 59.42 25.3639 59.48C24.7799 59.656 24.7879 59.652 24.4079 59.176C24.2719 59.008 24.2439 58.924 24.4879 58.888C24.5219 58.8764 24.5552 58.8631 24.5879 58.848C25.4039 58.576 25.4039 58.576 25.9999 59.304Z" fill="#282828"/>
<path d="M24.7441 57.564C24.4761 57.508 24.3681 57.268 24.2201 57.088C24.1481 57 24.2721 56.988 24.3321 56.968C24.6761 56.856 25.0241 56.744 25.3721 56.644C25.5041 56.604 25.9481 57.044 25.9321 57.184C25.9321 57.244 25.8841 57.252 25.8361 57.264L24.7441 57.564Z" fill="#282828"/>
<path d="M23.4883 58.0761C23.7993 57.9549 24.1247 57.8743 24.4563 57.8361C24.7199 57.9693 24.9487 58.1625 25.1243 58.4001C25.1483 58.4961 25.0723 58.5121 25.0043 58.5361C24.7923 58.6041 24.5803 58.6761 24.3643 58.7401C24.2859 58.7655 24.2015 58.7661 24.1227 58.7417C24.044 58.7174 23.9747 58.6693 23.9243 58.6041C23.7883 58.4361 23.6443 58.2641 23.4883 58.0761Z" fill="#282828"/>
<path d="M22.9121 59.34C23.2561 59.24 23.5681 59.144 23.8841 59.056C23.9347 59.0398 23.9892 59.0408 24.0392 59.0589C24.0891 59.077 24.1317 59.1112 24.1601 59.156C24.2525 59.2771 24.3527 59.392 24.4601 59.5C24.7041 59.74 24.4361 59.732 24.2681 59.784C23.4841 60.02 23.4841 60.02 22.9121 59.34Z" fill="#282828"/>
<path d="M24.3599 57.564C24.3599 57.724 24.2839 57.648 23.4999 57.856C23.4119 57.88 23.3399 57.896 23.2759 57.82C23.2119 57.744 22.9679 57.604 22.9919 57.42C23.0159 57.236 23.2359 57.276 23.3919 57.232C23.9999 57.036 24.0559 57.032 24.3599 57.564Z" fill="#282828"/>
<path d="M23.108 57.948L22.104 58.224C21.804 58.308 21.732 58.032 21.664 57.872C21.596 57.712 21.82 57.732 21.928 57.692C22.0418 57.6634 22.1539 57.6287 22.264 57.588C22.652 57.404 22.908 57.54 23.108 57.948Z" fill="#282828"/>
<path d="M38.5201 54.576C38.7961 54.576 38.7721 54.8041 38.8081 54.9521C38.8441 55.1001 38.4081 55.4601 38.1161 55.4281C37.8241 55.3961 37.7801 55.048 37.8121 54.892C37.8801 54.528 38.3001 54.724 38.5201 54.576Z" fill="#282828"/>
<path d="M36.7399 54.8481C36.5119 54.8081 36.5039 54.5881 36.4479 54.4241C36.3919 54.2601 36.5879 54.3001 36.6719 54.2601C36.7911 54.2133 36.9143 54.1772 37.0399 54.1521C37.3359 54.0761 37.5159 54.2161 37.5159 54.5161C37.5159 54.5681 37.5159 54.6081 37.4599 54.6241L36.7399 54.8481Z" fill="#282828"/>
<path d="M26.3521 57.372C26.5081 57.224 26.7161 57.272 26.8881 57.212C27.0601 57.152 27.1721 57.128 27.2441 57.272C27.2904 57.3617 27.3145 57.4611 27.3145 57.562C27.3145 57.6629 27.2904 57.7624 27.2441 57.852C27.1945 57.9062 27.1309 57.9457 27.0603 57.9662C26.9898 57.9867 26.9149 57.9873 26.8441 57.968C26.6321 57.932 26.5841 57.712 26.4441 57.568C26.4046 57.5072 26.3737 57.4412 26.3521 57.372Z" fill="#282828"/>
<path d="M39.7321 54C39.7321 54.096 39.6841 54.12 39.6081 54.136C39.3921 54.192 39.1801 54.26 38.9641 54.304C38.6721 54.364 38.7841 54.092 38.7161 53.976C38.6481 53.86 38.7161 53.748 38.8521 53.716C38.9881 53.684 39.1521 53.664 39.3041 53.636C39.3577 53.6181 39.4151 53.6142 39.4706 53.625C39.5261 53.6357 39.5779 53.6605 39.6209 53.6972C39.664 53.7338 39.6969 53.7809 39.7164 53.834C39.7358 53.8871 39.7413 53.9443 39.7321 54Z" fill="#282828"/>
<path d="M38.2841 53.856C38.5441 53.832 38.5241 54.044 38.5841 54.184C38.7121 54.508 38.3201 54.38 37.9881 54.52C37.6561 54.66 37.6601 54.428 37.5881 54.236C37.5001 53.972 37.7121 54.02 37.8441 53.98L38.2841 53.856Z" fill="#282828"/>
<path d="M36.8003 55.016C37.6003 54.744 37.5403 54.72 37.7443 55.232C37.8323 55.448 37.7843 55.496 37.5643 55.488C37.2203 55.472 37.1243 55.424 36.8003 55.016Z" fill="#282828"/>
<path d="M17.272 29.496C17.277 29.5391 17.2722 29.5827 17.2582 29.6237C17.2442 29.6647 17.2212 29.702 17.191 29.733C17.1607 29.7641 17.1239 29.7879 17.0833 29.803C17.0427 29.818 16.9992 29.8238 16.956 29.82C16.9119 29.8234 16.8676 29.8169 16.8263 29.8009C16.7851 29.7849 16.7479 29.7599 16.7176 29.7277C16.6873 29.6954 16.6646 29.6568 16.6511 29.6146C16.6377 29.5725 16.6339 29.5278 16.64 29.484C16.6374 29.4425 16.6439 29.401 16.6591 29.3623C16.6743 29.3236 16.6978 29.2888 16.7279 29.2602C16.7581 29.2316 16.7941 29.2099 16.8335 29.1967C16.8729 29.1836 16.9148 29.1792 16.956 29.184C16.9979 29.1811 17.04 29.1871 17.0794 29.2017C17.1188 29.2163 17.1546 29.2391 17.1845 29.2687C17.2144 29.2982 17.2376 29.3337 17.2527 29.3729C17.2678 29.4121 17.2744 29.4541 17.272 29.496Z" fill="#282828"/>
<path d="M39.9402 53.9321C39.7562 53.5321 39.7562 53.5321 40.3802 53.3721C40.2882 53.6001 40.0882 53.7201 39.9402 53.9321Z" fill="#282828"/>
<path d="M39.02 54.488C38.94 54.508 38.8839 54.548 38.9079 54.632C38.9239 54.6993 38.9569 54.7613 39.004 54.812C39.052 54.848 39.1119 54.812 39.1519 54.752C39.1919 54.692 39.38 54.58 39.388 54.424C39.262 54.4169 39.1361 54.4388 39.02 54.488Z" fill="#282828"/>
<path d="M27.3401 58.56C27.1961 58.444 27.0201 58.352 27.0681 58.16C27.0681 58.12 27.2441 58.06 27.2761 58.084C27.4441 58.2 27.3441 58.4 27.3401 58.56Z" fill="#282828"/>
<path d="M52.1796 39.4601C52.1529 39.0949 52.1744 38.7277 52.2436 38.3681C52.2692 38.2069 52.3577 38.0625 52.4897 37.9665C52.6217 37.8705 52.7864 37.8308 52.9476 37.8561C53.1421 37.8842 53.3406 37.8517 53.5159 37.7629C53.6913 37.6741 53.835 37.5335 53.9276 37.3601C54.5996 36.3721 54.8796 35.3361 54.3276 34.1961C54.1116 33.7681 53.7876 33.6561 53.3996 33.9561C52.3916 34.7321 51.7996 34.4961 50.9396 33.7881C50.3222 33.2203 49.6746 32.6862 48.9996 32.1881C48.8133 32.0796 48.6652 31.9161 48.5756 31.7201C48.1996 30.7641 47.4876 31.0601 46.6636 29.5361C46.5116 29.2481 46.3956 29.1801 46.0876 29.3881C45.4556 29.8161 44.7836 30.1881 44.1236 30.5881C44.0316 30.6401 43.9156 30.7681 43.8316 30.5881C43.7476 30.4081 43.8756 30.3801 43.9836 30.3121C44.6716 29.8761 45.3556 29.4361 46.0436 29.0041C46.1796 28.9201 46.2396 28.8521 46.1316 28.7041C45.4356 27.7801 45.2956 26.6801 44.4996 25.2081C44.2756 24.8081 44.1316 24.7561 43.7636 25.0721C42.7636 25.9201 42.5916 26.9481 41.8876 28.8721C41.5387 29.7379 41.2917 30.6413 41.1516 31.5641C41.1236 31.8081 41.0476 32.0401 40.7516 32.0881C40.627 32.1056 40.5002 32.0818 40.3904 32.0204C40.2806 31.959 40.1939 31.8634 40.1436 31.7481C39.9663 31.4402 39.7643 31.1473 39.5396 30.8721C39.4024 30.712 39.2386 30.5767 39.0556 30.4721C38.9076 30.3881 38.6916 30.3281 38.5916 30.4481C38.2476 30.8481 38.2476 30.4481 38.2196 30.2881C38.0063 29.3236 38.0272 28.322 38.2805 27.3671C38.5338 26.4123 39.0122 25.5321 39.6756 24.8001C40.4119 23.8927 41.4247 23.2508 42.5596 22.9721C43.1156 22.8401 44.0156 23.9601 45.1516 23.2921C45.9797 22.7946 46.8613 22.3921 47.7796 22.0921C47.8667 22.0545 47.958 22.0276 48.0516 22.0121C49.5516 21.7758 51.0869 21.9216 52.5156 22.4361C53.5808 22.8627 54.6175 23.3571 55.6196 23.9161C56.2598 24.302 56.8063 24.8253 57.2196 25.4481C58.1236 26.6921 59.0436 27.9241 59.9476 29.1681C61.1476 30.8161 61.2556 33.1321 60.8516 35.1201C60.626 36.0197 60.1728 36.8462 59.5356 37.5201C59.0505 38.1108 58.3767 38.5162 57.6276 38.6681C57.425 38.7262 57.2102 38.7262 57.0076 38.6681C56.5276 38.4961 56.4756 38.5201 56.2076 38.9761C56.0036 39.3481 55.8076 39.7281 55.6076 40.1041C55.1219 40.9712 54.3143 41.6121 53.3596 41.8881C53.2669 41.9321 53.1654 41.9543 53.0629 41.953C52.9603 41.9516 52.8594 41.9269 52.7679 41.8805C52.6764 41.8342 52.5967 41.7675 52.5349 41.6857C52.4732 41.6038 52.431 41.5088 52.4116 41.4081C52.1922 40.7837 52.113 40.1186 52.1796 39.4601Z" fill="#B1F1FF"/>
<path d="M34.9959 32.3C35.0919 31.98 35.2719 31.924 35.4839 32.148C35.6414 32.327 35.7599 32.5368 35.8319 32.764C36.3553 34.0821 36.4284 35.5361 36.0399 36.9C35.9468 37.2199 35.7841 37.5152 35.5635 37.7649C35.3429 38.0145 35.0699 38.2123 34.7639 38.344C33.7755 38.7686 32.7339 39.0565 31.6679 39.2C31.1599 39.284 31.0879 39.36 31.0759 39.888C31.0759 40.688 30.7319 41.3 30.7239 43.488C30.7239 43.66 30.7519 43.888 30.4919 43.888C30.2319 43.888 30.1919 43.676 30.1799 43.488C30.1279 42.7797 30.1279 42.0684 30.1799 41.36C30.1799 41.148 30.3119 40.936 30.0439 40.768C29.9359 40.7 29.9839 40.5 30.0439 40.368C30.1519 40.044 30.2599 39.72 30.3879 39.404C30.4172 39.3538 30.4353 39.2978 30.4407 39.2399C30.4462 39.182 30.439 39.1235 30.4196 39.0687C30.4002 39.0139 30.369 38.9639 30.3283 38.9224C30.2876 38.8808 30.2383 38.8486 30.1839 38.828C29.5188 38.5368 28.9652 38.0392 28.605 37.4088C28.2448 36.7785 28.0971 36.0489 28.1839 35.328C28.1911 34.6539 28.3268 33.9873 28.5839 33.364C29.3199 31.764 30.8519 31.068 32.7119 31.388C33.5218 31.5751 34.295 31.8954 34.9999 32.336L34.9959 32.3ZM35.4279 35.944C35.3025 35.2506 35.2144 34.5509 35.1639 33.848C35.1639 33.012 34.5999 32.672 33.9999 32.3C33.4782 32.0216 32.9052 31.8528 32.3159 31.804C31.7557 31.6921 31.175 31.746 30.645 31.9591C30.1149 32.1723 29.6586 32.5354 29.3319 33.004C28.8399 33.672 28.7599 34.452 28.6359 35.24C28.5583 35.6763 28.5809 36.1245 28.7022 36.5508C28.8235 36.977 29.0402 37.37 29.3359 37.7C29.6248 38.119 30.0482 38.4267 30.5359 38.572C31.005 38.6687 31.492 38.6298 31.9399 38.46C32.769 38.1484 33.6142 37.8813 34.4719 37.66C34.6172 37.6293 34.7527 37.5632 34.8665 37.4676C34.9802 37.3721 35.0686 37.2499 35.1239 37.112C35.3132 36.7511 35.4172 36.3515 35.4279 35.944Z" fill="#B1F1FF"/>
<path d="M47.2199 12.1401C47.0959 13.5321 47.1679 14.8361 46.9999 16.1401C46.9781 16.2797 47.0095 16.4225 47.0879 16.5401C47.2279 16.7561 47.1319 16.9401 46.8959 17.0041C46.5445 17.0986 46.1836 17.1536 45.8199 17.1681C45.5759 17.2041 45.4679 17.0041 45.4199 16.8081C44.6839 14.7561 44.6719 14.0721 44.4359 12.0081C44.4119 11.7601 44.4999 11.6401 44.7679 11.6081C45.2839 11.5761 45.8039 11.5321 46.3159 11.4521C47.0319 11.3481 47.2999 11.2881 47.2199 12.1401Z" fill="#B1F1FF"/>
<path d="M27.7278 36.4881C27.7385 36.5221 27.741 36.5582 27.7352 36.5933C27.7293 36.6285 27.7154 36.6618 27.6944 36.6905C27.6734 36.7193 27.6459 36.7428 27.6142 36.759C27.5825 36.7753 27.5475 36.7839 27.5118 36.7841C25.8158 37.0761 24.1398 37.4721 22.4598 37.8401C21.6318 38.0201 20.7838 38.1121 19.9638 38.3401C19.6438 38.4281 19.6038 38.1081 19.5238 37.9401C19.4438 37.7721 19.6198 37.6841 19.7838 37.6521C22.2638 37.1361 24.7598 36.6881 27.2278 36.1161C27.5998 36.0241 27.7198 36.1321 27.7278 36.4881Z" fill="#B1F1FF"/>
<path d="M24.6758 33.7601C24.6758 33.4001 24.8238 33.2361 25.1038 33.3321C25.4546 33.4385 25.8226 33.4765 26.1878 33.4441C26.6718 33.4441 26.5878 33.8441 26.6638 34.0881C26.686 34.1373 26.6965 34.1909 26.6947 34.2448C26.6928 34.2988 26.6786 34.3516 26.653 34.3991C26.6275 34.4467 26.5914 34.4877 26.5475 34.5191C26.5036 34.5505 26.453 34.5713 26.3998 34.5801C26.1321 34.6719 25.8757 34.794 25.6358 34.9441C25.2798 35.1641 25.0278 35.0681 24.8958 34.6801C24.7916 34.3816 24.7179 34.0734 24.6758 33.7601Z" fill="#B1F1FF"/>
<path d="M25.088 42.5001C24.892 42.4721 24.688 42.5001 24.688 42.2121C24.688 41.9241 24.84 41.9361 25.044 41.8921C25.864 41.7201 26.684 41.5561 27.512 41.4401C27.688 41.4161 27.912 41.3161 28.012 41.5561C28.0246 41.6194 28.0241 41.6845 28.0105 41.7476C27.997 41.8106 27.9706 41.8702 27.9332 41.9227C27.8957 41.9752 27.8478 42.0194 27.7926 42.0527C27.7374 42.0859 27.6759 42.1075 27.612 42.1161C26.768 42.2481 25.928 42.3721 25.088 42.5001Z" fill="#B1F1FF"/>
<path d="M18.9838 28.6881C19.2038 28.7321 19.3398 28.8441 19.3038 29.0521C19.2948 29.1518 19.2487 29.2446 19.1746 29.312C19.1006 29.3794 19.0039 29.4165 18.9038 29.4161C18.8547 29.4144 18.8066 29.4023 18.7625 29.3807C18.7184 29.3591 18.6794 29.3284 18.6481 29.2906C18.6167 29.2528 18.5937 29.2088 18.5806 29.1615C18.5674 29.1142 18.5644 29.0647 18.5718 29.0161C18.5878 28.7241 18.7998 28.7281 18.9838 28.6881Z" fill="#B1F1FF"/>
<path d="M34.6998 35.0961C34.6078 35.8961 34.4758 36.6961 33.6998 37.1841C33.6518 37.2161 33.6078 37.2561 33.5558 37.2841C33.4278 37.3521 33.2718 37.4321 33.1558 37.2841C33.0398 37.1361 33.1558 37.0121 33.2998 36.9361C34.0278 36.4641 34.2198 35.7161 34.3358 34.9361C34.3358 34.8041 34.2958 34.6001 34.4918 34.5921C34.6878 34.5841 34.6998 34.8001 34.6998 35.0961Z" fill="#B1F1FF"/>
<path d="M32.7119 37.5081C32.7119 37.6281 32.6479 37.7161 32.5159 37.7041C32.4568 37.702 32.4009 37.6771 32.3598 37.6345C32.3188 37.592 32.2959 37.5352 32.2959 37.4761C32.2959 37.3481 32.3719 37.2881 32.4959 37.2881C32.5254 37.2848 32.5553 37.2883 32.5833 37.2982C32.6112 37.3082 32.6366 37.3244 32.6574 37.3455C32.6782 37.3667 32.6939 37.3924 32.7033 37.4205C32.7128 37.4487 32.7157 37.4786 32.7119 37.5081Z" fill="#B1F1FF"/>
<path d="M62.0874 50.8555V50.8521H62.084L62.0874 50.8555Z" fill="#282828"/>
<path d="M77.784 48.5161C77.32 48.5161 78.392 48.3641 68.656 50.5601C65.504 51.2721 65.108 51.3001 64.448 51.5841C64.4102 51.6091 64.3675 51.6257 64.3228 51.6328C64.2781 51.6398 64.2324 51.6372 64.1887 51.6251C64.1451 51.6129 64.1046 51.5916 64.07 51.5624C64.0353 51.5333 64.0074 51.497 63.988 51.4561C62.616 49.5321 62.58 49.5321 61.924 48.8161C61.7429 48.6909 61.5936 48.5252 61.488 48.3321L59.724 46.5921C59.648 46.5921 59.612 46.5281 59.58 46.4681L59.508 46.4001C59.3719 46.3295 59.251 46.233 59.152 46.1161L57.872 45.2641C57.6685 45.199 57.4767 45.1018 57.304 44.9761C57.1472 44.9384 57.0009 44.8659 56.876 44.7641C56.7201 44.7239 56.5744 44.6517 56.448 44.5521C56.2909 44.5186 56.145 44.4457 56.024 44.3401C55.6858 44.1865 55.3275 44.0815 54.96 44.0281H54.748C54.5713 43.9547 54.414 43.8414 54.2884 43.697C54.1628 43.5527 54.0723 43.3812 54.024 43.1961C53.8253 42.7158 53.6908 42.2115 53.624 41.6961C53.536 41.2961 53.9 41.3961 54.052 41.3561C54.6353 41.243 55.1795 40.9812 55.632 40.5961C56.3052 39.8658 56.7441 38.9504 56.892 37.9681C56.928 37.8001 56.96 37.5681 56.728 37.5281C56.496 37.4881 56.364 37.6281 56.304 37.8961C56.1877 38.5637 55.8778 39.1825 55.4126 39.6753C54.9475 40.1682 54.3478 40.5134 53.688 40.6681C53.244 40.7881 53.58 40.6121 53 38.3961C53.316 38.4373 53.6371 38.3831 53.9222 38.2406C54.2073 38.098 54.4433 37.8736 54.6 37.5961C54.9474 37.0402 55.1219 36.3937 55.1012 35.7385C55.0806 35.0833 54.8657 34.449 54.484 33.9161C54.3762 33.7578 54.2205 33.6383 54.0399 33.5749C53.8592 33.5116 53.663 33.5078 53.48 33.5641C53.2772 33.6298 53.0866 33.7284 52.916 33.8561C52.58 34.1401 52.3 34.0321 52 33.8041C50.9172 32.9072 50.004 31.8234 49.304 30.6041C49.1188 30.2783 48.9506 29.9432 48.8 29.6001C48.744 29.4961 48.676 29.3761 48.532 29.4161C48.388 29.4561 48.388 29.6041 48.4 29.7161C48.436 30.0041 48.496 30.2881 48.548 30.6041C48.0813 30.2769 47.6752 29.8708 47.348 29.4041C47.212 29.2321 47.22 29.1281 47.408 29.0041C47.4715 28.9814 47.5284 28.943 47.5731 28.8924C47.6179 28.8418 47.6491 28.7808 47.6638 28.7149C47.6786 28.649 47.6765 28.5804 47.6576 28.5156C47.6387 28.4508 47.6038 28.3918 47.556 28.3441C47.512 28.2641 47.472 28.1761 47.436 28.0921C47.204 27.5841 47.172 27.5641 46.728 27.8761C46.524 28.0241 46.46 27.9721 46.356 27.7681C45.268 25.6681 45.676 24.3641 44.172 23.7681C44.1518 23.7549 44.1293 23.7458 44.1056 23.7415C44.0819 23.7372 44.0576 23.7376 44.0341 23.7428C44.0106 23.7481 43.9884 23.7579 43.9688 23.7719C43.9492 23.7859 43.9326 23.8036 43.92 23.8241C43.856 23.9481 43.96 24.0321 44.32 24.4721C43.948 24.7041 43.576 24.9041 43.24 25.1521C42.3259 25.7421 41.6697 26.6571 41.404 27.7121C41.108 29.0841 40.776 30.4561 40.892 31.8841C40.892 32.0121 40.984 32.1961 40.74 32.2521C40.6746 32.2656 40.6171 32.3041 40.5798 32.3594C40.5424 32.4147 40.5281 32.4824 40.54 32.5481C40.5486 32.6132 40.579 32.6735 40.6262 32.7193C40.6734 32.765 40.7346 32.7935 40.8 32.8001C40.88 32.8001 40.956 32.8001 41 32.9081C41.05 33.0469 41.0532 33.1983 41.0092 33.3391C40.9651 33.48 40.8762 33.6025 40.756 33.6881C40.396 33.8921 40.028 34.0881 39.66 34.2681C39.5547 34.3113 39.4592 34.3751 39.3789 34.4557C39.2986 34.5364 39.2352 34.6322 39.1924 34.7376C39.1496 34.8429 39.1282 34.9558 39.1295 35.0696C39.1308 35.1833 39.1547 35.2957 39.2 35.4001C39.2621 35.5923 39.3741 35.7646 39.5244 35.8995C39.6748 36.0344 39.8582 36.127 40.056 36.1681C40.2124 36.2052 40.3593 36.2745 40.4874 36.3716C40.6155 36.4688 40.722 36.5915 40.8 36.7321C41.848 38.8081 41.412 40.1801 42.184 41.5321C42.296 41.7321 42.184 41.7601 42.044 41.8121C39.796 42.5561 38.168 42.5801 32.336 44.0121C31.956 44.1041 31.936 44.0721 32.016 43.6761C32.1516 43.2881 32.2403 42.8852 32.28 42.4761C32.28 41.7481 32.016 41.5201 31.288 41.6401C31.368 41.1841 31.464 40.7361 31.516 40.2841C31.5158 40.1243 31.5745 39.9699 31.6806 39.8505C31.7868 39.731 31.9332 39.6547 32.092 39.6361C32.44 39.5641 32.78 39.4601 33.128 39.3961C34.1844 39.2723 35.1527 38.7466 35.832 37.9281C36.1899 37.4539 36.444 36.9096 36.5777 36.3307C36.7114 35.7518 36.7217 35.1512 36.608 34.5681C36.344 32.7281 35.408 31.3921 33.58 30.7841C32.9538 30.5945 32.2913 30.5574 31.648 30.6761C30.9607 30.7183 30.2901 30.9051 29.68 31.2241C28.6354 31.9192 27.8998 32.9911 27.627 34.2158C27.3542 35.4405 27.5652 36.7233 28.216 37.7961C28.4786 38.2057 28.7917 38.5806 29.148 38.9121C29.3583 39.0574 29.5097 39.2731 29.575 39.5203C29.6403 39.7675 29.6151 40.0299 29.504 40.2601C29.424 40.4361 29.504 40.6841 29.196 40.7241C28.972 40.7561 28.832 41.0761 28.66 41.0681C28.34 41.0681 28.228 41.2521 28.072 41.4281C27.82 41.7161 27.7 42.0721 27.424 42.3681C27.1068 42.7083 26.9131 43.1453 26.874 43.6087C26.8348 44.0722 26.9524 44.5354 27.208 44.9241C27.312 45.0801 27.408 45.2441 27.52 45.4241C26.948 45.5921 23.092 46.3601 20.26 46.7041C19.412 46.8081 19.024 46.5681 18.724 45.7601C18.136 44.1601 17.924 42.5041 17.576 40.8681C17.308 39.6681 17.308 38.4001 17.12 37.1721C16.808 35.1081 16.5106 33.0388 16.228 30.9641C16.196 30.7441 16.156 30.5641 16.508 30.5641C16.7545 30.5435 16.9968 30.4883 17.228 30.4001C19.836 29.7321 36.532 25.8601 37.5 25.6481C37.452 25.7561 37.428 25.8241 37.396 25.8801C37.0635 26.4895 36.8732 27.1663 36.8393 27.8596C36.8053 28.553 36.9286 29.2451 37.2 29.8841C37.2839 30.1436 37.42 30.3832 37.6 30.5881C37.6417 30.6398 37.7006 30.6748 37.766 30.6865C37.8314 30.6983 37.8988 30.6861 37.956 30.6521C38.184 30.5281 37.996 30.3001 37.824 29.8521C37.6283 29.4205 37.5271 28.952 37.5271 28.4781C37.5271 28.0042 37.6283 27.5357 37.824 27.1041C38.0207 26.6632 38.2507 26.238 38.512 25.8321C40.556 22.8761 43.088 23.6001 43.484 23.4681C43.5601 23.4502 43.6273 23.4057 43.6735 23.3426C43.7197 23.2796 43.7418 23.2021 43.736 23.1241C43.736 22.9441 43.592 22.9441 43.468 22.9041C42.228 22.4841 41.068 22.8161 39.98 23.3761C39.3552 23.704 38.6787 23.9219 37.98 24.0201C34.896 24.4801 30.156 25.6001 28.236 26.0001C26.856 26.2841 25.46 26.4801 24.088 26.8241C22.292 27.2761 20.488 27.6241 18.656 27.9961C17.992 28.1401 17.288 28.1801 16.7 28.5481C15.872 29.0601 15.644 29.0561 15.74 30.2601C15.984 33.3201 16.62 37.3121 16.644 37.4601C16.86 39.0041 16.896 40.5681 17.272 42.0921C17.592 43.3881 17.724 44.7241 18.196 45.9841C18.3161 46.4344 18.6037 46.8219 18.9999 47.0673C19.3962 47.3126 19.8713 47.3973 20.328 47.3041C21.928 47.1401 26.328 46.2161 27.64 45.9481C27.748 45.9481 27.828 45.8841 27.92 45.9961C28.428 46.6281 28.616 46.6641 28.46 46.7961C27.924 47.1961 27.868 47.8201 27.788 48.3961C27.7869 48.4658 27.7588 48.5323 27.7095 48.5816C27.6602 48.6309 27.5937 48.6591 27.524 48.6601C27.3 48.6961 21.456 49.7521 21.416 49.7561C20.6282 49.9308 19.8228 50.0141 19.016 50.0041C18.7178 50 18.4279 49.9051 18.185 49.7322C17.942 49.5593 17.7575 49.3165 17.656 49.0361C17.304 48.2041 17.056 46.7841 16.804 45.7081C15.872 41.7361 14.988 35.6601 14.672 34.0241C14.3848 32.6092 14.207 31.1743 14.14 29.7321C14.1248 29.4715 14.1695 29.2109 14.2707 28.9703C14.372 28.7296 14.527 28.5154 14.724 28.3441C15.1972 27.912 15.7599 27.5897 16.372 27.4001C17.936 26.8801 19.572 26.6001 21.172 26.2281C23 25.8001 24.8 25.2721 26.676 24.9201C29.8 24.3241 32.948 23.8681 36.064 23.2321C39.0686 22.5619 42.1251 22.1497 45.2 22.0001C45.256 22.0001 45.336 21.9401 45.376 22.0561C44.9304 22.3229 44.5147 22.6367 44.136 22.9921C44.036 23.1001 43.94 23.2201 44.06 23.3641C44.18 23.5081 44.316 23.4521 44.46 23.3641C45.0505 22.969 45.665 22.611 46.3 22.2921C47.444 21.7801 48.604 21.4921 49.82 22.0721C51.4616 22.5812 52.9661 23.4566 54.22 24.6321C57.268 27.5681 57.9 27.3841 59.5 29.8561C59.7403 30.2522 59.8918 30.6957 59.944 31.1561C60.0854 32.2987 59.9594 33.4585 59.576 34.5441C59.084 36.0361 58.5 37.4881 57.08 38.3801C56.76 38.5801 57.16 38.6361 57.132 38.8961C57.3137 38.9276 57.5006 38.9082 57.672 38.8401C58.0754 38.7152 58.444 38.4973 58.748 38.2041C59.716 37.2201 60.192 35.9841 60.524 34.6441C60.524 34.5441 60.484 34.4401 60.556 34.3481C60.556 34.2601 60.584 34.1681 60.596 34.0761C60.608 33.9841 60.544 33.8241 60.632 33.7121C60.684 33.4401 60.672 33.7441 60.672 31.5161C60.672 31.4481 60.648 31.3801 60.632 31.3121C60.544 31.2001 60.6 31.0681 60.596 30.9481C60.4656 30.255 60.1782 29.601 59.756 29.0361C59.3273 28.4149 58.8353 27.8398 58.288 27.3201C53 22.7841 53.656 22.6841 49.088 21.1241C48.6378 21.0949 48.1861 21.0949 47.736 21.1241C47.6961 21.1545 47.6497 21.1754 47.6005 21.1851C47.5512 21.1948 47.5004 21.1931 47.452 21.1801C47.0638 21.2635 46.6856 21.3882 46.324 21.5521C46.192 21.6241 46.08 21.5521 45.96 21.5321H43.044C42.7815 21.5898 42.5121 21.61 42.244 21.5921C41.8216 21.672 41.3936 21.7188 40.964 21.7321C39.28 22.0361 32.288 23.3321 30.472 23.6161C27.8564 24.0133 25.2636 24.5474 22.704 25.2161C18.66 26.3121 17.104 26.2561 15.224 27.2401C14.8638 27.4138 14.5427 27.6587 14.28 27.9601C14.1804 28.0551 14.0671 28.1346 13.944 28.1961L13.588 28.5481C13.588 28.7161 13.452 28.7641 13.36 28.8561C13.3588 28.8635 13.3555 28.8705 13.3506 28.8761C13.3456 28.8818 13.3392 28.8859 13.332 28.8881C13.304 29.0841 13.088 29.1521 13.04 29.3321L12.932 29.8201C12.932 29.8801 12.96 29.9401 12.88 29.9681C12.88 30.3441 12.88 30.7241 12.86 31.1001C12.8999 31.1492 12.9276 31.2071 12.9408 31.2689C12.954 31.3308 12.9524 31.395 12.936 31.4561V31.6001C12.936 31.7441 13.044 31.8761 12.996 32.0241C12.948 32.1721 12.996 32.2121 12.996 32.3081C13.124 32.4761 13.084 32.7081 13.132 32.8801C13.132 32.9241 13.132 32.9721 13.132 33.0201C13.256 33.1921 13.228 33.3481 13.276 33.7281C13.3908 33.9806 13.4599 34.2514 13.48 34.5281C13.48 34.5521 13.48 34.5761 13.48 34.6001C13.48 34.7441 13.616 34.8681 13.56 35.0241V35.1681C13.688 35.3481 13.656 35.3521 13.636 35.5241C13.616 35.6961 13.772 35.7921 13.716 35.9481C13.716 36.0201 13.716 36.0921 13.716 36.1601C13.7579 36.2081 13.7878 36.2655 13.8032 36.3274C13.8185 36.3893 13.8187 36.454 13.804 36.5161C13.804 36.5521 13.804 36.5161 13.804 36.5881C13.804 36.7161 13.936 36.8081 13.876 36.9441V37.1521C13.9949 37.5156 14.0727 37.8913 14.108 38.2721C14.196 38.7281 14.28 39.1881 14.364 39.6441V39.7881C14.4011 39.8244 14.4286 39.8693 14.444 39.9189C14.4593 39.9685 14.4621 40.0212 14.452 40.0721C14.452 40.1201 14.452 40.1681 14.452 40.2121C14.5659 40.4824 14.6387 40.7682 14.668 41.0601C14.7384 41.3916 14.7905 41.7268 14.824 42.0641C14.824 42.1081 14.824 42.1561 14.824 42.2041C14.824 42.2521 14.948 42.3201 14.908 42.4161L15.028 42.9721C15.0242 43.0939 15.046 43.2152 15.092 43.3281C15.132 43.5481 15.172 43.7641 15.208 43.9841C15.2138 43.9853 15.2194 43.9879 15.2241 43.9916C15.2289 43.9952 15.2328 44 15.2355 44.0053C15.2382 44.0107 15.2396 44.0166 15.2397 44.0227C15.2398 44.0287 15.2385 44.0346 15.236 44.0401L15.332 44.6201C15.424 44.7441 15.4 44.9001 15.444 45.0201C15.445 45.1427 15.4709 45.2638 15.52 45.3761C15.5729 45.5662 15.5999 45.7627 15.6 45.9601L15.64 46.0921C15.6411 46.2466 15.6572 46.4007 15.688 46.5521C15.7402 46.6785 15.7582 46.8165 15.74 46.9521C15.7856 47.035 15.8025 47.1306 15.788 47.2241C15.7769 47.497 15.8218 47.7692 15.92 48.0241C16.38 49.7681 16.384 49.6241 16.672 50.0961C16.916 50.3267 17.205 50.5043 17.521 50.6179C17.8369 50.7315 18.173 50.7785 18.508 50.7561L18.724 50.7241C19.16 50.5441 19.624 50.6481 20.072 50.6081C20.2367 50.5733 20.4039 50.5505 20.572 50.5401C20.8769 50.4741 21.1854 50.426 21.496 50.3961L21.896 50.3321L22.248 50.2681C22.6324 50.2203 23.0133 50.1468 23.388 50.0481C23.7376 49.9495 24.0948 49.8799 24.456 49.8401L25.656 49.6281H25.812C26.3876 49.5739 26.9568 49.4654 27.512 49.3041C27.4908 49.5303 27.4298 49.751 27.332 49.9561C27.148 50.9321 26.932 51.9001 26.8 52.8881C26.8243 53.1743 26.8657 53.4588 26.924 53.7401C26.9318 53.7489 26.9362 53.7603 26.9362 53.7721C26.9362 53.7839 26.9318 53.7953 26.924 53.8041C26.9613 53.9943 26.9867 54.1867 27 54.3801C27.124 54.7241 26.828 54.6801 26.668 54.7161C24.848 55.1161 23.02 55.4921 21.216 55.9441C20.38 56.1561 19.552 56.3841 18.704 56.5441C18.46 56.6841 18.512 56.9081 18.552 57.1241C18.552 57.2041 18.668 57.2801 18.552 57.3681C18.5304 57.5183 18.4887 57.665 18.428 57.8041C18.4172 57.9007 18.3767 57.9916 18.312 58.0641C18.26 58.3481 18.504 58.4641 18.8 58.7081C19.2208 59.0542 19.6214 59.4242 20 59.8161C20.117 59.8898 20.2166 59.9881 20.292 60.1041L20.572 60.3841L21.004 60.8001C21.1879 60.9136 21.3492 61.06 21.48 61.2321C21.6499 61.3499 21.8009 61.4929 21.928 61.6561C22.328 61.9561 22.6 62.4241 23.128 62.5921C24.868 62.0961 26.64 61.7321 28.392 61.3001C28.72 61.2201 28.68 61.4641 28.736 61.6001C28.824 61.8161 28.6 61.7441 28.524 61.7641C23.416 62.8801 5.49996 66.8001 3.59996 67.2001C3.19996 67.2841 2.79996 67.4161 2.39996 67.4961C2.26485 67.5215 2.14304 67.5937 2.05596 67.7001C1.97996 67.8681 2.05596 67.9641 2.21996 67.9921C2.34382 68.0001 2.46809 68.0001 2.59196 67.9921C3.11596 67.8281 3.66396 67.8081 4.19196 67.6881C4.85596 67.5361 5.51996 67.4001 6.19196 67.2521C7.01596 67.0721 7.83196 66.8521 8.66796 66.7281C9.13398 66.6655 9.59509 66.5706 10.048 66.4441C10.584 66.2961 11.144 66.2641 11.68 66.1041C12.08 65.9841 12.588 65.9401 13.012 65.8201C13.436 65.7001 15.268 65.3441 15.988 65.1721C16.452 65.0601 16.956 65.1001 17.392 64.8521C17.4385 64.8178 17.4942 64.7983 17.552 64.7961C18.06 64.8761 18.516 64.6281 18.984 64.5281C19.4132 64.4918 19.8349 64.3935 20.236 64.2361C20.4441 64.1469 20.6697 64.1059 20.896 64.1161C21.4568 64.0469 22.0099 63.925 22.548 63.7521C23.1119 63.6725 23.6704 63.5576 24.22 63.4081C24.5511 63.2863 24.8944 63.2005 25.244 63.1521C26.104 63.0761 26.912 62.7521 27.756 62.6241C28.1107 62.5854 28.4606 62.5104 28.8 62.4001C28.8369 62.379 28.8782 62.3669 28.9206 62.3647C28.963 62.3625 29.0054 62.3703 29.0443 62.3874C29.0831 62.4045 29.1175 62.4305 29.1445 62.4632C29.1716 62.496 29.1905 62.5347 29.2 62.5761C29.4163 62.9795 29.7246 63.3262 30.1 63.5881C30.152 63.5881 30.22 63.5881 30.24 63.6641C30.5592 63.8019 30.8355 64.0229 31.04 64.3041C31.155 64.3725 31.2523 64.4671 31.324 64.5801L32.176 65.1561C32.228 65.1561 32.296 65.1561 32.32 65.2281C32.4124 65.2285 32.5037 65.248 32.5883 65.2851C32.673 65.3223 32.7491 65.3764 32.812 65.4441C33.1434 65.4966 33.4598 65.6194 33.74 65.8041C33.7884 65.7959 33.838 65.7989 33.8852 65.8128C33.9323 65.8266 33.9756 65.851 34.012 65.8841C34.136 65.8041 34.208 65.9161 34.296 65.9641C34.8 65.9641 35.284 66.1601 35.788 66.1601C36.016 66.1001 36.188 66.2761 36.428 66.2441C37.364 66.2201 36.552 66.2441 37.708 66.2441C38.1171 66.1571 38.5185 66.0367 38.908 65.8841H39.044C39.5525 65.431 40.134 65.0671 40.764 64.8081C41.3216 64.5468 41.8947 64.3197 42.48 64.1281C43.2543 63.8875 43.9879 63.5315 44.656 63.0721C44.8 62.9801 44.992 62.8081 45.116 62.9321C45.1799 63.0105 45.2117 63.1102 45.205 63.2112C45.1983 63.3121 45.1536 63.4068 45.08 63.4761C45.056 64.5441 45.036 65.6121 45.012 66.6761C45.012 66.7361 45.04 66.7961 44.96 66.8241L44.936 66.9601C44.96 67.0881 44.992 67.2161 44.868 67.3161C44.868 67.4121 44.868 67.5081 44.868 67.6001C44.868 67.6921 44.868 67.7281 44.8 67.7481C44.8 67.9121 44.8 68.0761 44.8 68.2401C44.824 68.3081 44.8 68.3641 44.736 68.3881V69.0241C44.76 69.0881 44.76 69.1481 44.676 69.1721C44.612 69.6401 44.736 70.1161 44.676 70.5881C44.848 70.8121 45.048 70.7201 45.244 70.6321C45.3186 70.5128 45.351 70.372 45.336 70.2321C45.336 69.9961 45.26 69.7481 45.392 69.5201V69.3081C45.3652 69.1613 45.3748 69.0103 45.42 68.8681L45.468 68.4681C45.468 68.3881 45.432 68.3121 45.492 68.2441C45.5306 68.0844 45.5468 67.9202 45.54 67.7561C45.6094 67.277 45.7028 66.8018 45.82 66.3321C45.82 66.2881 45.82 66.2401 45.82 66.1921C45.904 65.8441 45.888 65.9481 45.888 65.7641C45.844 65.6521 45.948 65.5801 45.96 65.4801C45.972 65.3801 45.92 65.2761 45.988 65.1841C46.056 65.0921 46.016 65.0041 46.028 64.9121C46.04 64.8201 45.98 64.6161 46.092 64.4841C46.092 64.0841 46.092 64.4121 46.092 63.0641C46.0914 62.8766 46.0767 62.6894 46.048 62.5041C45.944 62.3601 46.012 62.2801 46.136 62.2001C47.444 61.3481 48.664 60.3641 50.008 59.5681C50.0818 59.5116 50.1465 59.4441 50.2 59.3681C50.224 59.3201 50.244 59.2721 50.264 59.2241C50.228 59.0481 50.228 58.9841 49.98 58.8601C49.336 58.9601 48.904 59.4321 48.404 59.7801C46.7 60.9561 45.04 62.2001 43.16 63.1001C42.285 63.4645 41.3767 63.7431 40.448 63.9321C38.784 64.3561 37.648 65.6521 36.332 65.4721C36.232 65.4721 36.124 65.5201 36.036 65.4321C35.236 65.4321 34.536 65.0321 33.772 64.8881C32.408 64.6201 31.4 63.7841 30.512 62.7761L30.432 62.7001C30.2907 62.6121 30.1727 62.4913 30.088 62.3481L29.976 62.2201C29.408 61.6441 29.208 60.8761 28.944 60.1521C28.6236 59.1826 28.3644 58.194 28.168 57.1921C28.168 57.1121 28.148 57.0361 28.136 56.9561C28.0346 56.6479 27.9886 56.3243 28 56.0001C27.88 55.8481 27.94 55.6721 27.94 55.5041V55.2881C27.84 55.1841 27.872 55.0561 27.88 54.9361C27.652 53.5481 27.716 53.1521 27.952 50.6681C28.188 49.5561 28.676 48.5201 28.936 47.4161C28.976 47.2401 29.08 47.2321 29.22 47.2681C29.5583 47.2166 29.9044 47.2595 30.22 47.3921C30.4137 47.3907 30.6056 47.429 30.784 47.5046C30.9624 47.5802 31.1234 47.6914 31.2572 47.8316C31.3909 47.9717 31.4946 48.1377 31.5618 48.3194C31.629 48.5011 31.6583 48.6946 31.648 48.8881C31.788 48.9641 31.684 49.0801 31.696 49.1761C31.86 49.5201 31.912 49.9001 32.096 50.2481C32.896 51.7201 32.96 51.4241 33.068 51.7121C34.388 52.8801 35.008 54.4921 35.892 55.4361C35.9263 55.4498 35.9575 55.4703 35.9836 55.4964C36.0097 55.5226 36.0303 55.5538 36.044 55.5881L36.488 56.0521C36.636 56.0761 36.708 56.2161 36.832 56.2721C37.1533 56.376 37.4979 56.3843 37.824 56.2961C38.34 56.2189 38.8201 55.9858 39.2 55.6281C39.44 55.4481 39.688 55.2761 39.932 55.1041C39.9835 55.0158 40.06 54.9448 40.152 54.9001L40.8 54.2881C40.8117 54.2557 40.8308 54.2266 40.8558 54.203C40.8808 54.1793 40.911 54.1619 40.944 54.1521C41.92 53.2481 42.604 52.1081 43.42 51.0801C43.748 50.6801 44.084 50.2561 44.412 49.8481C44.452 49.6481 44.648 49.6081 44.772 49.4961C45.256 48.9361 45.84 48.4841 46.372 47.9761C46.6921 47.6895 47.0622 47.4644 47.464 47.3121H47.488C48.176 46.7961 49.088 46.7441 49.836 46.2321C50.9141 45.5337 52.0971 45.0125 53.34 44.6881C53.7744 44.6078 54.2218 44.6339 54.644 44.7641C54.82 44.7961 55.044 44.7641 55.164 44.9441C55.4521 44.9823 55.7231 45.1032 55.944 45.2921C56.186 45.3466 56.4069 45.4703 56.58 45.6481C56.6891 45.6625 56.7896 45.7149 56.864 45.7961C56.9098 45.7922 56.9557 45.8034 56.9947 45.8279C57.0337 45.8525 57.0636 45.889 57.08 45.9321C57.3332 46.0147 57.572 46.1362 57.788 46.2921C57.9 46.2921 57.956 46.3481 58.004 46.4321C58.2509 46.5046 58.4735 46.6429 58.648 46.8321C58.768 46.8321 58.804 46.9161 58.856 46.9921L59.3 47.4161C59.452 47.4161 59.492 47.5481 59.568 47.6361L59.784 47.8481C59.942 47.9451 60.0706 48.0834 60.156 48.2481C60.1857 48.2597 60.2123 48.278 60.2338 48.3016C60.2553 48.3252 60.2711 48.3534 60.28 48.3841C60.376 48.4601 60.484 48.5241 60.496 48.6641C60.6133 48.7369 60.7097 48.8389 60.776 48.9601C60.872 49.0441 61.004 49.1001 61.028 49.2481C61.0353 49.2522 61.0417 49.2579 61.0465 49.2649C61.0514 49.2718 61.0546 49.2797 61.056 49.2881C61.331 49.5642 61.5533 49.8881 61.712 50.2441C61.784 50.2441 61.78 50.3281 61.792 50.3801C61.9199 50.4945 62.0152 50.6408 62.068 50.8041C62.2224 50.9107 62.3431 51.0592 62.416 51.2321C62.5506 51.3116 62.6527 51.4363 62.704 51.5841C63.0075 51.8906 63.2758 52.23 63.504 52.5961C63.5111 52.5996 63.5173 52.6046 63.5221 52.6109C63.527 52.6171 63.5303 52.6244 63.532 52.6321C63.6811 52.7571 63.807 52.9074 63.904 53.0761C64.0932 53.242 64.2588 53.4331 64.396 53.6441C64.6027 53.8239 64.7737 54.041 64.9 54.2841C65.0793 54.4144 65.2247 54.5859 65.324 54.7841C66.0674 55.5537 66.6435 56.4689 67.016 57.4721C67.072 57.6081 67.112 57.7521 67.168 57.8721C67.336 58.2721 67.336 58.2721 66.876 58.3961C66.6898 58.3937 66.5038 58.4071 66.32 58.4361C66.252 58.5081 66.172 58.4761 66.096 58.4681C65.8862 58.517 65.6714 58.5411 65.456 58.5401C65.151 58.5941 64.8417 58.6195 64.532 58.6161C64.2974 58.6614 64.0588 58.6828 63.82 58.6801H63.536C63.326 58.7273 63.1111 58.7488 62.896 58.7441H62.684L62.264 58.7921C61.564 58.8441 62.06 58.8241 61.332 58.8841C61.164 58.8841 61.008 58.9921 60.836 58.9521H60.62L60.052 59.0201C59.7902 59.0176 59.5288 59.0417 59.272 59.0921H58.916C58.7276 59.131 58.5362 59.1537 58.344 59.1601C58.012 59.1542 57.6801 59.177 57.352 59.2281C56.9707 59.2249 56.5898 59.249 56.212 59.3001C55.8083 59.3095 55.4064 59.3578 55.012 59.4441H54.872C54.0732 59.5351 53.3014 59.7883 52.604 60.1881C52.604 60.2321 52.604 60.2481 52.548 60.2481C52.508 60.4161 52.336 60.5001 52.272 60.6481C52.12 60.8961 52.116 61.2041 51.944 61.4481C51.9643 61.4968 51.9683 61.5509 51.9553 61.6021C51.9423 61.6533 51.9131 61.6989 51.872 61.7321C51.872 61.8001 51.872 61.8721 51.872 61.9441C51.948 62.0841 51.872 62.1921 51.796 62.3001C51.796 62.3721 51.796 62.4401 51.796 62.5121C51.8348 62.6521 51.8348 62.8001 51.796 62.9401V63.2241C51.8399 63.5305 51.8399 63.8417 51.796 64.1481C51.8314 64.741 51.8073 65.336 51.724 65.9241C51.724 66.1841 51.724 66.4481 51.724 66.7241C51.7685 67.101 51.7833 67.4809 51.768 67.8601C51.796 69.6681 51.768 69.3241 51.848 69.8361V70.0641C51.876 70.2761 51.92 70.4641 51.928 70.6961C51.9256 70.7716 51.9446 70.8462 51.9828 70.9113C52.021 70.9764 52.0769 71.0294 52.144 71.0641H52.496C52.78 70.5681 52.728 69.9401 52.724 68.9401C52.694 68.6088 52.694 68.2754 52.724 67.9441C52.645 67.6851 52.6258 67.4116 52.668 67.1441C52.668 66.9601 52.648 66.7721 52.636 66.5841C52.5899 66.3713 52.5778 66.1526 52.6 65.9361C52.54 64.7921 52.6 65.4681 52.6 63.3081L52.564 63.0321C52.4959 62.7942 52.4959 62.542 52.564 62.3041C52.5612 61.9658 52.6336 61.631 52.776 61.3241C52.816 61.2801 52.776 61.1881 52.864 61.1721C52.9231 61.0006 53.0178 60.8435 53.1419 60.7112C53.266 60.5788 53.4166 60.4742 53.584 60.4041C53.7961 60.2692 54.0349 60.1819 54.284 60.1481C54.376 60.0761 54.48 60.1121 54.58 60.1161C54.7435 60.0815 54.9124 60.0815 55.076 60.1161C55.552 60.1161 55.236 60.1481 56.484 59.9201L57.068 59.9001C57.2552 59.8601 57.4487 59.8601 57.636 59.9001H58.06C58.2398 59.8218 58.4388 59.7982 58.632 59.8321H59.056C59.128 59.7821 59.2109 59.7499 59.2978 59.7381C59.3847 59.7263 59.4732 59.7352 59.556 59.7641H60C60.0737 59.7179 60.1564 59.6879 60.2426 59.6762C60.3288 59.6644 60.4166 59.6712 60.5 59.6961H60.856C61.0083 59.6162 61.1838 59.5921 61.352 59.6281H61.564C61.72 59.5641 61.864 59.4561 62.048 59.5041C62.672 59.4601 62.396 59.4481 63.06 59.4161C63.2481 59.3861 63.4398 59.3861 63.628 59.4161H64.052C64.2329 59.3419 64.4307 59.3183 64.624 59.3481H65.12C65.263 59.254 65.4333 59.2103 65.604 59.2241H65.904C66.1134 59.1746 66.3292 59.1571 66.544 59.1721L67.252 59.1481C67.5161 59.1035 67.7846 59.0901 68.052 59.1081L69.188 59.0801C69.538 59.0282 69.8939 59.0282 70.244 59.0801C70.372 59.0041 70.46 59.0801 70.544 59.1561H70.68C71.2157 59.1649 71.7372 59.3304 72.18 59.6321C72.3523 59.6814 72.5048 59.7835 72.616 59.9241C72.6512 59.931 72.6839 59.9473 72.7106 59.9713C72.7373 59.9952 72.7572 60.0259 72.768 60.0601C72.959 60.1779 73.1215 60.3366 73.2439 60.5247C73.3664 60.7128 73.4456 60.9257 73.476 61.1481C73.684 62.0161 73.916 62.8841 74.136 63.7521L74.156 64.0521C74.224 64.6241 74.208 64.4761 74.228 64.7641C74.281 64.9484 74.2986 65.1412 74.28 65.3321C74.304 66.4361 74.28 66.1721 74.28 66.5321C74.28 67.0801 74.316 67.6241 74.252 68.1681C74.252 68.1681 74.272 69.3681 74.28 69.8041C74.4 70.0201 74.324 70.2921 74.456 70.5041L74.784 70.6681C74.964 70.6281 75.052 70.4641 75.184 70.3641C75.2226 70.0845 75.2333 69.8018 75.216 69.5201C75.1661 69.3352 75.1498 69.1428 75.168 68.9521L75.144 67.6001C75.087 67.3673 75.064 67.1275 75.076 66.8881C75.0288 66.7027 75.0113 66.511 75.024 66.3201C75.024 66.0121 75.024 64.6161 75 64.4721C75 64.0921 74.932 63.2401 74.932 63.1921C74.7925 62.2227 74.5108 61.2792 74.096 60.3921C73.9649 60.1272 73.811 59.8742 73.636 59.6361L72.932 59.1081L71.732 58.5641C71.1725 58.3967 70.6035 58.2632 70.028 58.1641H68.68C68.484 58.2281 68.38 58.1641 68.28 57.9721C68.024 57.4521 67.648 57.0001 67.408 56.4681L67.356 56.3801C66.6205 54.9722 65.7497 53.6393 64.756 52.4001C64.508 52.0601 64.508 52.0841 64.912 52.0001C68.068 51.3401 70.952 50.6081 73.164 50.1801C73.808 50.0561 74.444 49.8881 75.084 49.7801C75.992 49.6121 76.9 49.3801 77.792 49.1161C77.932 49.0761 77.9 49.1161 78 48.8921C78.0011 48.8158 77.9817 48.7406 77.9437 48.6744C77.9056 48.6082 77.8505 48.5535 77.784 48.5161ZM16.288 29.2241C16.6381 28.817 17.1271 28.5547 17.66 28.4881C19.26 28.1321 20.824 27.8041 22.412 27.4841C23.536 27.2561 24.64 26.9201 25.776 26.7401C28.496 26.3081 31.168 25.6481 33.872 25.1401C38.672 24.2281 38.032 24.3761 38.588 24.3401C37.788 25.2801 37.832 25.2521 37.752 25.2601C35.752 25.4681 34.952 25.9121 24.792 28.2601C16.492 30.1761 17.684 30.0321 16.792 30.1921C16.58 30.2281 16.392 30.4161 16.164 30.2881C16.06 30.2121 16.168 29.3881 16.288 29.2241ZM16.844 49.5641C16.4924 48.8054 16.2655 47.995 16.172 47.1641C16.04 45.8681 15.68 44.6161 15.46 43.3401C15.012 40.7121 14.452 38.1081 14.072 35.4681C13.812 33.6281 12.964 31.2841 13.272 29.7201C13.325 29.5169 13.4159 29.3255 13.54 29.1561C13.608 29.7161 13.564 30.2801 13.616 30.8441C13.78 32.6161 14.14 34.3521 14.416 36.1001C14.636 37.4201 14.816 38.7481 15.048 40.0561C15.568 42.7721 16.04 45.5001 16.724 48.1801C16.912 48.9281 17.124 49.6721 17.816 50.2561C17.6066 50.2392 17.4057 50.1659 17.2345 50.0441C17.0634 49.9223 16.9285 49.7564 16.844 49.5641ZM26.844 55.2601C26.928 55.2601 27.056 55.1241 27.096 55.3161C27.136 55.5081 27.004 55.4601 26.9 55.4921C25.728 55.8481 24.5 55.9241 23.3 56.2001C22.1 56.4761 20.82 56.8001 19.58 57.1041C19.408 57.1481 19.256 57.1801 19.18 56.9441C20.6 56.7081 19.868 56.7401 26.84 55.2601H26.844ZM22.844 62.0601C18.604 58.0841 19.292 58.6801 18.956 58.4041C18.728 58.2161 18.644 58.0481 18.796 57.7841C18.8322 57.6954 18.8629 57.6046 18.888 57.5121C19.688 58.1441 20.416 59.1401 22.908 61.4201C23.156 61.6401 22.8 61.7921 22.848 62.0601H22.844ZM28.176 60.6001C28.364 60.5561 28.388 60.7001 28.428 60.8201C28.488 61.0041 28.34 61.0001 28.228 61.0281L23.128 62.2601C23.1247 62.2349 23.1247 62.2093 23.128 62.1841C23.184 61.6561 23.464 61.4361 24.008 61.3561C25.348 61.1521 26.676 60.8721 28.008 60.6201C28.064 60.6121 28.124 60.6121 28.18 60.6001H28.176ZM28.024 59.6641C28.052 59.7881 28.284 59.9081 27.872 60.0121C27.016 60.2241 26.152 60.3721 25.292 60.5521C24.6726 60.6492 24.0596 60.7828 23.456 60.9521C23.4075 60.9697 23.3548 60.9722 23.3048 60.9594C23.2549 60.9465 23.2099 60.9189 23.176 60.8801C21.976 59.7921 20.856 58.6121 19.708 57.4681C19.708 57.4681 19.708 57.4281 19.688 57.3921C22.148 56.6761 24.656 56.2721 27.148 55.6961C27.2313 56.6326 27.396 57.5601 27.64 58.4681C27.728 58.8801 27.944 59.2481 28.028 59.6641H28.024ZM46.96 28.1961C47.14 28.2161 47.064 28.4561 47.176 28.5361C47.176 28.6921 47.056 28.7841 46.984 28.7721C46.824 28.7441 46.76 28.5681 46.724 28.4361C46.688 28.3041 46.868 28.1841 46.96 28.1961ZM43.36 30.1961C43.128 30.3601 43.076 30.5961 43.232 30.7681C43.712 31.3121 43.256 31.8801 43.724 32.6721C43.7675 32.7646 43.8424 32.8387 43.9354 32.8812C44.0284 32.9237 44.1335 32.9318 44.232 32.9041C44.444 32.8521 44.488 32.6761 44.496 32.5041C44.515 32.0303 44.4528 31.5568 44.312 31.1041C44.256 30.9241 44.268 30.8361 44.444 30.7481C44.904 30.5281 45.352 30.2921 45.796 30.0521C45.932 29.9761 45.992 29.9961 46.072 30.1281C46.608 31.0241 46.644 32.7681 45.3 33.5241C44.8229 33.7704 44.268 33.8191 43.7553 33.6597C43.2426 33.5003 42.8132 33.1455 42.56 32.6721C41.908 31.2441 42.352 30.3841 43.36 29.3881C43.704 29.0521 44.184 29.2081 44.692 29.2041C44.232 29.5561 43.812 29.8841 43.376 30.1921L43.36 30.1961ZM45.16 29.3961C45.336 29.2761 45.52 29.4561 45.592 29.5881C45.664 29.7201 45.464 29.7401 45.376 29.7881C44.736 30.1321 43.964 30.5161 43.776 30.6281C43.7446 30.6197 43.7149 30.6062 43.688 30.5881C43.648 30.5441 43.664 30.5041 43.688 30.4721C44.204 30.0961 44.676 29.7201 45.176 29.3801L45.16 29.3961ZM46.056 28.7881C46.276 28.7881 46.272 29.0321 46.388 29.1281C46.388 29.2201 46.344 29.2801 46.3 29.2641C46.1305 29.1997 45.989 29.078 45.9 28.9201C45.904 28.8401 46.024 28.7721 46.072 28.7721L46.056 28.7881ZM41.56 30.8001C41.648 29.6681 41.76 28.5281 42.324 27.5161C42.8584 26.5905 43.6161 25.8136 44.528 25.2561C44.708 25.1401 44.752 25.1881 44.808 25.3721C45.0529 26.3412 45.4044 27.2803 45.856 28.1721C45.896 28.2481 45.992 28.3441 45.856 28.4161C45.72 28.4881 45.552 28.7081 45.292 28.6321C44.8001 28.5049 44.2907 28.4589 43.784 28.4961C43.3475 28.4935 42.9233 28.6399 42.5814 28.9112C42.2395 29.1826 42.0005 29.5625 41.904 29.9881C41.824 30.2561 41.732 30.5241 41.648 30.7881V32.0801H41.56C41.5059 31.6551 41.5059 31.225 41.56 30.8001ZM28.4 37.0401C27.516 35.2241 28.184 32.6161 29.964 31.6801C31.268 31.0001 32.712 30.8001 34.12 31.6001C35.384 32.2961 35.944 33.4241 36.088 34.7761C36.2345 35.668 36.0617 36.583 35.6 37.3601C34.968 38.3321 34.04 38.7241 32.972 38.9241C32.5198 39.0061 32.0745 39.1225 31.64 39.2721C31.5024 39.3107 31.3791 39.3883 31.2847 39.4954C31.1903 39.6026 31.1289 39.7348 31.108 39.8761C30.9121 40.7899 30.7679 41.714 30.676 42.6441C30.697 42.9838 30.648 43.3241 30.532 43.6441C30.348 42.8681 30.572 42.0441 30.576 41.3961C30.576 41.0361 30.612 40.6401 30.152 40.4841C30.036 40.4441 30.096 40.3321 30.12 40.2721C30.376 39.6081 30.344 39.0721 29.676 38.6121C29.1273 38.2015 28.6889 37.6614 28.4 37.0401ZM31.2 46.8001C31.1 47.1001 30.92 46.6041 29.14 46.5521C29.1006 46.5551 29.061 46.5491 29.0243 46.5346C28.9875 46.52 28.9546 46.4973 28.928 46.4681C28.3696 45.8367 27.8864 45.1428 27.488 44.4001C27.144 43.7961 27.324 43.2001 27.64 42.5321C27.6769 42.9298 27.774 43.3195 27.928 43.6881C27.968 43.7881 28.012 43.9121 28.144 43.8681C28.276 43.8241 28.28 43.6961 28.24 43.5721C28.2 43.4481 28.128 43.2121 28.072 43.0321C27.9867 42.7343 27.9861 42.4186 28.0702 42.1205C28.1543 41.8223 28.3197 41.5535 28.548 41.3441C28.3925 41.7239 28.3294 42.1352 28.364 42.5441C28.3579 42.6133 28.3579 42.6829 28.364 42.7521C28.396 42.8481 28.404 42.9921 28.54 42.9841C28.676 42.9761 28.656 42.8241 28.648 42.7321C28.6242 42.2819 28.7238 41.8338 28.936 41.4361C28.9678 41.3434 29.0204 41.2591 29.0897 41.1898C29.159 41.1205 29.2432 41.0679 29.336 41.0361C29.2251 41.5874 29.1847 42.1506 29.216 42.7121C29.216 42.8681 29.216 43.0521 29.416 43.0681C29.764 43.1001 29.588 42.6281 29.928 41.2881C29.9473 41.14 30.0099 41.0008 30.108 40.8881C30.26 40.9921 30.208 41.1441 30.204 41.2881C30.18 42.2041 29.764 44.0881 30.468 44.1481C30.924 44.1841 31.012 43.2761 31.204 42.6561C31.284 42.4001 31.316 42.0001 31.644 42.0801C31.972 42.1601 31.836 42.5561 31.76 42.7841C31.4919 43.6161 31.4113 44.4972 31.524 45.3641C31.6 45.8761 31.332 46.3481 31.2 46.8001ZM32.08 47.4641C31.936 47.5401 31.904 47.4241 31.872 47.3561C31.8 47.1761 31.444 47.2001 31.572 46.8761C31.7906 46.3655 31.9374 45.827 32.008 45.2761C32.036 45.0561 31.896 44.7721 32.052 44.6281C32.208 44.4841 32.452 44.5641 32.66 44.5161C35.492 43.8161 38.36 43.2921 41.228 42.7481C43 42.4081 42.988 42.3481 43.228 42.4201C44.428 42.7761 45.424 42.3721 46.932 42.6441C47.0679 42.6561 47.197 42.7092 47.3021 42.7964C47.4071 42.8836 47.4831 43.0007 47.52 43.1321C47.636 43.5321 47.764 43.8961 47.888 44.2761C47.888 44.4841 47.736 44.4441 47.632 44.4561C44.596 44.7681 44.716 44.6401 41.632 45.2561C38.888 45.8161 36.128 46.2921 33.44 47.0921C32.9688 47.1779 32.5068 47.3078 32.06 47.4801L32.08 47.4641ZM32.2 48.0001L35.112 47.3841C35.112 47.3841 35.152 47.3441 35.156 47.3481C35.16 47.3521 35.184 47.4001 35.156 47.4241C34.756 48.5041 34.328 49.0241 33.736 50.7161C33.2954 50.4047 32.9292 49.9998 32.6637 49.5302C32.3981 49.0606 32.2397 48.5381 32.2 48.0001ZM40.36 53.6681C39.9112 54.3303 39.3278 54.8905 38.648 55.3121C38.3014 55.49 37.9309 55.6166 37.548 55.6881C37.128 55.7841 36.872 55.4641 36.628 55.1961C36.2864 54.7896 36.0036 54.3372 35.788 53.8521L40.824 52.7841C40.636 53.0601 40.56 53.3881 40.36 53.6521V53.6681ZM41.188 52.4681C41.188 52.5081 41.14 52.5281 41.096 52.5121L37.852 53.2001C37.452 53.2881 37.052 53.3401 36.692 53.4641C36.396 53.5601 36.092 53.5401 35.796 53.6201C35.568 53.6761 35.552 53.4641 35.468 53.3041C37.388 53.0441 39.264 52.7081 41.144 52.3841C41.1879 52.3521 41.2393 52.332 41.2932 52.3257C41.3472 52.3194 41.4019 52.3271 41.452 52.3481C41.396 52.4881 41.276 52.4001 41.2 52.4481L41.188 52.4681ZM42.144 51.5841C40.236 51.9841 38.332 52.3841 36.404 52.6761C36.196 52.7081 36.004 52.7681 35.784 52.8201C35.216 52.9561 35.216 52.9601 34.904 52.3801C37.484 52.4401 39.908 51.6441 42.436 51.3161C42.36 51.4441 42.3 51.5321 42.144 51.5641V51.5841ZM40.636 50.9801C39.532 51.1761 38.436 51.4201 37.336 51.6281C36.4589 51.7628 35.5747 51.8456 34.688 51.8761C34.356 51.8961 34.288 51.5081 34.12 51.3201C33.952 51.1321 34.168 51.0961 34.208 50.9921C34.672 49.7921 35.304 48.6601 35.724 47.4401C35.7484 47.3526 35.7964 47.2735 35.8627 47.2115C35.929 47.1494 36.0111 47.1067 36.1 47.0881C36.944 46.8361 37.816 46.7441 38.668 46.5561C38.852 46.5161 38.932 46.5561 39.036 46.7481C39.396 47.3641 39.996 47.7481 40.512 48.2121C41.228 48.8521 41.94 49.4921 42.592 50.2121C42.68 50.3041 42.756 50.4081 42.852 50.5241C42.1267 50.7309 41.3855 50.8767 40.636 50.9601V50.9801ZM47.764 46.3961C46.508 47.0881 45.264 47.8001 44.32 48.9161C43.376 50.0321 43.468 50.2281 43.232 49.9681C42.2896 48.937 41.2561 47.9932 40.144 47.1481C39.884 46.9481 39.652 46.7121 39.372 46.4601C42.1003 45.7834 44.8808 45.3378 47.684 45.1281C47.968 45.1001 48.084 45.2041 48.084 45.4681C48.084 45.7321 48.272 46.0961 47.764 46.3761V46.3961ZM53.336 43.9961C52.2179 44.1849 51.1374 44.5523 50.136 45.0841C49.736 45.3081 49.336 45.6041 48.936 45.8841C48.892 45.9121 48.84 45.9361 48.74 45.9881C48.7619 45.1146 48.6485 44.2429 48.404 43.4041C48.228 42.7601 48.004 42.1561 47.324 42.0521C44.924 41.6761 43.324 42.5361 42.652 41.1521C41.98 39.7681 42.42 38.4761 41.228 36.2441C41.1513 36.0966 41.0431 35.9679 40.9111 35.8669C40.779 35.766 40.6264 35.6954 40.464 35.6601C40.22 35.5961 39.872 35.5521 39.848 35.2601C39.824 34.9681 40.184 34.9401 40.4 34.8601C40.8273 34.6599 41.218 34.3895 41.556 34.0601C41.671 33.9485 41.7525 33.8069 41.7914 33.6515C41.8303 33.496 41.8249 33.3327 41.776 33.1801C41.7387 33.0311 41.7265 32.877 41.74 32.7241C41.8866 33.1078 42.1206 33.4521 42.4233 33.7298C42.7259 34.0075 43.0891 34.2109 43.484 34.3241C44.2745 34.5147 45.1083 34.3853 45.804 33.9641C46.824 33.4001 47.68 31.8521 46.728 29.8401C46.924 29.7921 46.968 29.9641 47.044 30.0641C47.3198 30.4507 47.6675 30.7807 48.068 31.0361C48.36 31.2081 48.516 31.1561 48.644 30.8481C49.2027 31.8256 49.8843 32.7276 50.672 33.5321C50.9677 33.8394 51.3211 34.0854 51.712 34.2561C51.8214 34.3154 51.9422 34.3507 52.0663 34.3597C52.1905 34.3687 52.3151 34.3511 52.432 34.3081C52.432 34.5081 52.344 34.7081 52.564 34.8121C52.784 34.9161 52.912 34.7321 53.028 34.5801C53.1885 34.4217 53.3807 34.299 53.592 34.2201C53.772 34.1241 53.876 34.2441 53.972 34.3761C54.2603 34.8058 54.4198 35.3089 54.4319 35.8262C54.4439 36.3435 54.308 36.8535 54.04 37.2961C53.692 37.8201 53.328 37.9121 52.744 37.6241C52.548 37.5281 52.452 37.6001 52.448 37.8121C52.424 39.1801 52.74 40.5081 52.928 41.8521C53.0319 42.4936 53.2188 43.1188 53.484 43.7121C53.6 43.9041 53.552 43.9481 53.336 44.0001V43.9961Z" fill="#282828"/>
<path d="M39.1762 27.72C39.1733 27.7635 39.1652 27.8065 39.1522 27.848C38.6682 29.236 39.2962 30.292 40.1642 31.28C40.2842 31.4261 40.4181 31.56 40.5642 31.68C40.6251 31.7249 40.6663 31.7917 40.679 31.8663C40.6917 31.9409 40.6749 32.0175 40.6322 32.08C40.5522 32.192 40.4162 32.08 40.3282 31.996C39.7177 31.606 39.217 31.0666 38.8733 30.4289C38.5296 29.7912 38.3544 29.0764 38.3642 28.352C38.379 28.0711 38.4584 27.7973 38.5962 27.552C38.6167 27.4819 38.6635 27.4224 38.7269 27.3859C38.7902 27.3493 38.8652 27.3387 38.9362 27.356C39.1242 27.396 39.1682 27.544 39.1762 27.72Z" fill="#282828"/>
<path d="M44.9082 38.0201C45.0122 38.0561 45.1562 38.0201 45.2042 38.1681C45.3282 38.5081 44.7162 38.4961 43.7122 39.3681C43.659 39.4209 43.5871 39.4505 43.5122 39.4505C43.4372 39.4505 43.3653 39.4209 43.3122 39.3681C43.2645 39.3315 43.232 39.2787 43.221 39.2196C43.2099 39.1606 43.221 39.0995 43.2522 39.0481C43.6847 38.5426 44.2632 38.1835 44.9082 38.0201Z" fill="#282828"/>
<path d="M36.976 44.0961C37.1765 44.1028 37.3672 44.1847 37.5102 44.3255C37.6532 44.4663 37.7381 44.6557 37.748 44.8561C37.7092 45.0595 37.6027 45.2438 37.4458 45.3789C37.2889 45.514 37.0909 45.592 36.884 45.6001C36.6944 45.597 36.5134 45.52 36.3797 45.3855C36.246 45.251 36.17 45.0697 36.168 44.8801C36.1906 44.6759 36.2836 44.4859 36.431 44.3428C36.5785 44.1997 36.7712 44.1125 36.976 44.0961ZM36.832 45.2481C37.104 45.2481 37.364 45.0201 37.34 44.8201C37.3369 44.7707 37.3241 44.7223 37.3024 44.6779C37.2806 44.6334 37.2502 44.5937 37.2131 44.561C37.1759 44.5283 37.1327 44.5032 37.0858 44.4873C37.0389 44.4714 36.9894 44.4648 36.94 44.4681C36.732 44.4681 36.54 44.7481 36.54 45.0121C36.54 45.2761 36.724 45.2001 36.832 45.2481Z" fill="#282828"/>
<path d="M31.956 31.5161C32.4853 31.5026 33.0113 31.6047 33.4971 31.8154C33.983 32.0261 34.417 32.3403 34.7689 32.736C35.1208 33.1317 35.3821 33.5994 35.5347 34.1065C35.6872 34.6136 35.7272 35.1479 35.652 35.6721C35.468 37.2721 34.428 38.1401 32.964 38.5481C32.326 38.7896 31.6333 38.8477 30.964 38.7161C30.3571 38.5649 29.8059 38.2437 29.3752 37.7902C28.9444 37.3368 28.6519 36.7699 28.532 36.1561C28.3627 35.5286 28.3651 34.8671 28.5389 34.2409C28.7127 33.6146 29.0515 33.0466 29.52 32.5961C29.8294 32.2576 30.2056 31.9868 30.6249 31.801C31.0441 31.6151 31.4974 31.5181 31.956 31.5161ZM35.324 35.2561C35.3405 34.8162 35.2668 34.3777 35.1073 33.9674C34.9479 33.5571 34.7062 33.1839 34.397 32.8706C34.0878 32.5573 33.7178 32.3106 33.3097 32.1458C32.9015 31.9809 32.464 31.9014 32.024 31.9121C30.276 31.9121 28.852 33.3001 28.824 35.3641C28.8149 35.7552 28.8833 36.1442 29.0252 36.5088C29.1671 36.8734 29.3796 37.2063 29.6506 37.4885C29.9216 37.7706 30.2457 37.9964 30.6043 38.1529C30.9629 38.3093 31.3488 38.3933 31.74 38.4001C33.688 38.3481 35.32 37.2001 35.324 35.2561Z" fill="#282828"/>
<path d="M32.6401 34.8001C32.8172 34.8909 33.0131 34.9389 33.2121 34.9401C33.3321 34.9401 33.4321 34.9081 33.4401 34.7761C33.4421 34.7494 33.4382 34.7225 33.4285 34.6974C33.4187 34.6724 33.4035 34.6498 33.384 34.6314C33.3644 34.613 33.341 34.5992 33.3154 34.591C33.2898 34.5828 33.2627 34.5805 33.2361 34.5841C33.0361 34.5841 32.8361 34.5841 32.6361 34.5841C32.7041 34.2641 32.4681 33.8641 32.9001 33.6361C32.9521 33.6041 32.9521 33.4721 32.8761 33.4121C32.8594 33.3951 32.8391 33.382 32.8166 33.3738C32.7941 33.3656 32.7701 33.3625 32.7464 33.3648C32.7226 33.3671 32.6996 33.3747 32.6791 33.3871C32.6587 33.3994 32.6412 33.4162 32.6281 33.4361C32.4961 33.6561 32.3681 33.6161 32.2001 33.4801C32.1435 33.4481 32.0811 33.4278 32.0165 33.4202C31.952 33.4126 31.8865 33.4181 31.8241 33.4361C31.7401 33.4361 31.6681 33.4361 31.6241 33.3481C31.5801 33.2601 31.5001 33.0641 31.3161 33.1721C31.1321 33.2801 31.2441 33.3961 31.2841 33.5201C31.4401 34.0001 31.3721 34.1121 30.8841 34.1321C30.7921 34.1321 30.7041 34.1321 30.6841 34.2401C30.6641 34.3481 30.8361 34.3921 30.9681 34.4641C31.1001 34.5361 31.1841 34.5121 31.1081 34.6801C31.0321 34.8481 31.0401 34.9001 30.8761 34.8721C30.771 34.8621 30.6652 34.8621 30.5601 34.8721C30.5001 34.8721 30.4361 34.8721 30.4281 34.9521C30.4281 35.1241 30.5441 35.0761 30.7401 35.1721C30.8321 35.2161 30.9961 35.1721 31.0001 35.3401C31.0041 35.5081 30.8361 35.4721 30.6001 35.5521C30.4961 35.5921 30.3321 35.5761 30.3601 35.7521C30.3881 35.9281 30.5401 35.8841 30.6481 35.8681C30.8601 35.8321 30.9601 35.8921 30.9201 36.1201C30.907 36.1781 30.907 36.2382 30.9201 36.2961C31.0081 36.5961 31.1001 36.9161 31.4481 36.9921C31.7961 37.0681 31.9361 36.7641 32.0721 36.5201C32.1681 36.3441 32.2561 36.2721 32.4401 36.4081C32.5481 36.4921 32.7081 36.6001 32.7881 36.4081C32.8681 36.2161 32.6761 36.1481 32.5521 36.1201C32.0961 36.0161 32.4801 35.7841 32.4801 35.6281C32.4801 35.3441 32.6681 35.5281 32.7681 35.5641C32.8681 35.6001 33.0721 35.6601 33.1321 35.4881C33.1921 35.3161 33.0281 35.2441 32.8841 35.2281C32.6561 35.2001 32.6041 35.0281 32.6401 34.8001Z" fill="#282828"/>
</svg>
