<svg width="80" height="80" viewBox="0 0 80 80" fill="none" xmlns="http://www.w3.org/2000/svg">
<path d="M78.3333 31.6667C78.3333 31.2246 78.1577 30.8007 77.8452 30.4882C77.5326 30.1756 77.1087 30 76.6667 30H68.3333V21.6667C68.3333 21.2246 68.1577 20.8007 67.8452 20.4882C67.5326 20.1756 67.1087 20 66.6667 20H56.6667C56.2246 20 55.8007 20.1756 55.4882 20.4882C55.1756 20.8007 55 21.2246 55 21.6667V30H46.6667C46.2246 30 45.8007 30.1756 45.4882 30.4882C45.1756 30.8007 45 31.2246 45 31.6667V41.6667C45 42.1087 45.1756 42.5326 45.4882 42.8452C45.8007 43.1577 46.2246 43.3333 46.6667 43.3333H55V51.6667C55 52.1087 55.1756 52.5326 55.4882 52.8452C55.8007 53.1577 56.2246 53.3333 56.6667 53.3333H66.6667C67.1087 53.3333 67.5326 53.1577 67.8452 52.8452C68.1577 52.5326 68.3333 52.1087 68.3333 51.6667V43.3333H76.6667C77.1087 43.3333 77.5326 43.1577 77.8452 42.8452C78.1577 42.5326 78.3333 42.1087 78.3333 41.6667V31.6667Z" fill="#9FEAFF"/>
<path d="M66.6667 20H56.6667C56.2246 20 55.8007 20.1756 55.4882 20.4882C55.1756 20.8007 55 21.2246 55 21.6667V30H46.6667C46.2246 30 45.8007 30.1756 45.4882 30.4882C45.1756 30.8007 45 31.2246 45 31.6667V41.6667C45 42.1087 45.1756 42.5326 45.4882 42.8452C45.8007 43.1577 46.2246 43.3333 46.6667 43.3333H54.8167L68.3333 29.8167V21.6667C68.3333 21.2246 68.1577 20.8007 67.8452 20.4882C67.5326 20.1756 67.1087 20 66.6667 20Z" fill="#DFF9FF"/>
<path d="M1.66699 43.3333L78.3337 69.9999" stroke="#00303E" stroke-linecap="round" stroke-linejoin="round"/>
<path d="M78.3333 31.6667C78.3333 31.2246 78.1577 30.8007 77.8452 30.4882C77.5326 30.1756 77.1087 30 76.6667 30H68.3333V21.6667C68.3333 21.2246 68.1577 20.8007 67.8452 20.4882C67.5326 20.1756 67.1087 20 66.6667 20H56.6667C56.2246 20 55.8007 20.1756 55.4882 20.4882C55.1756 20.8007 55 21.2246 55 21.6667V30H46.6667C46.2246 30 45.8007 30.1756 45.4882 30.4882C45.1756 30.8007 45 31.2246 45 31.6667V41.6667C45 42.1087 45.1756 42.5326 45.4882 42.8452C45.8007 43.1577 46.2246 43.3333 46.6667 43.3333H55V51.6667C55 52.1087 55.1756 52.5326 55.4882 52.8452C55.8007 53.1577 56.2246 53.3333 56.6667 53.3333H66.6667C67.1087 53.3333 67.5326 53.1577 67.8452 52.8452C68.1577 52.5326 68.3333 52.1087 68.3333 51.6667V43.3333H76.6667C77.1087 43.3333 77.5326 43.1577 77.8452 42.8452C78.1577 42.5326 78.3333 42.1087 78.3333 41.6667V31.6667Z" stroke="#00303E" stroke-linecap="round" stroke-linejoin="round"/>
<path d="M38.7031 57.3901C38.8593 57.1966 39.0568 57.0406 39.2812 56.9334C39.5056 56.8262 39.7511 56.7705 39.9997 56.7705C40.2484 56.7705 40.4939 56.8262 40.7183 56.9334C40.9426 57.0406 41.1402 57.1966 41.2964 57.3901L51.9631 70.6167C52.1616 70.8614 52.2867 71.1574 52.3238 71.4703C52.3609 71.7832 52.3086 72.1003 52.1729 72.3847C52.0371 72.669 51.8236 72.9091 51.5569 73.077C51.2903 73.2449 50.9815 73.3338 50.6664 73.3334H29.3331C29.018 73.3338 28.7092 73.2449 28.4426 73.077C28.1759 72.9091 27.9623 72.669 27.8266 72.3847C27.6909 72.1003 27.6385 71.7832 27.6757 71.4703C27.7128 71.1574 27.8379 70.8614 28.0364 70.6167L38.7031 57.3901Z" fill="#DFF9FF" stroke="#00303E" stroke-linecap="round" stroke-linejoin="round"/>
<path d="M18.3337 40.0001C27.5384 40.0001 35.0003 32.5382 35.0003 23.3334C35.0003 14.1287 27.5384 6.66675 18.3337 6.66675C9.12891 6.66675 1.66699 14.1287 1.66699 23.3334C1.66699 32.5382 9.12891 40.0001 18.3337 40.0001Z" fill="#9FEAFF"/>
<path d="M6.54626 35.1201C3.42024 31.9941 1.66406 27.7543 1.66406 23.3334C1.66406 18.9126 3.42024 14.6728 6.54626 11.5467C9.67228 8.42073 13.9121 6.66455 18.3329 6.66455C22.7538 6.66455 26.9936 8.42073 30.1196 11.5467L6.54626 35.1201Z" fill="#DFF9FF"/>
<path d="M18.3337 40.0001C27.5384 40.0001 35.0003 32.5382 35.0003 23.3334C35.0003 14.1287 27.5384 6.66675 18.3337 6.66675C9.12891 6.66675 1.66699 14.1287 1.66699 23.3334C1.66699 32.5382 9.12891 40.0001 18.3337 40.0001Z" stroke="#00303E" stroke-linecap="round" stroke-linejoin="round"/>
<path d="M18.333 30V33.3333" stroke="#00303E" stroke-linecap="round" stroke-linejoin="round"/>
<path d="M18.333 13.3333V16.6666" stroke="#00303E" stroke-linecap="round" stroke-linejoin="round"/>
<path d="M11.667 30.0001H21.667C22.551 30.0001 23.3989 29.6489 24.024 29.0238C24.6491 28.3986 25.0003 27.5508 25.0003 26.6667C25.0003 25.7827 24.6491 24.9348 24.024 24.3097C23.3989 23.6846 22.551 23.3334 21.667 23.3334H15.0003C14.1163 23.3334 13.2684 22.9822 12.6433 22.3571C12.0182 21.732 11.667 20.8841 11.667 20.0001C11.667 19.116 12.0182 18.2682 12.6433 17.6431C13.2684 17.0179 14.1163 16.6667 15.0003 16.6667H25.0003" stroke="#00303E" stroke-linecap="round" stroke-linejoin="round"/>
</svg>
