<svg width="80" height="80" viewBox="0 0 80 80" fill="none" xmlns="http://www.w3.org/2000/svg">
<path d="M45.8232 1.66675H69.0232C69.3369 1.66719 69.644 1.75612 69.9093 1.9233C70.1747 2.09048 70.3875 2.32913 70.5232 2.61183C70.659 2.89453 70.7123 3.20981 70.6769 3.52142C70.6415 3.83304 70.5189 4.12835 70.3232 4.37341L66.6666 8.96008C66.4307 9.25542 66.3023 9.62214 66.3023 10.0001C66.3023 10.378 66.4307 10.7447 66.6666 11.0401L70.3332 15.6267C70.5289 15.8718 70.6515 16.1671 70.6869 16.4787C70.7223 16.7904 70.669 17.1056 70.5332 17.3883C70.3975 17.671 70.1847 17.9097 69.9193 18.0769C69.654 18.244 69.3469 18.333 69.0332 18.3334H45.8332L45.8232 1.66675Z" fill="#9FEAFF"/>
<path d="M45.8232 18.3334H46.1632L62.8299 1.66675H45.8232V18.3334Z" fill="#DFF9FF"/>
<path d="M62.6332 54.7334L54.8332 61.3667C54.1941 61.9023 53.3774 62.1789 52.5443 62.1419C51.7112 62.1048 50.9223 61.7569 50.3332 61.1667L48.1665 59.0334C47.542 58.4126 46.6972 58.0641 45.8165 58.0641C44.9359 58.0641 44.0911 58.4126 43.4665 59.0334L41.3332 61.1667C40.7441 61.7569 39.9552 62.1048 39.1221 62.1419C38.289 62.1789 37.4724 61.9023 36.8332 61.3667L29.0332 54.7334L42.4999 33.3334C42.894 32.8247 43.3992 32.413 43.977 32.1297C44.5548 31.8465 45.1897 31.6992 45.8332 31.6992C46.4767 31.6992 47.1116 31.8465 47.6894 32.1297C48.2672 32.413 48.7724 32.8247 49.1665 33.3334L62.6332 54.7334Z" fill="#DFF9FF"/>
<path d="M45.8336 49.5167C49.9704 49.5216 54.0718 48.754 57.9269 47.2534L49.1669 33.3334C48.7728 32.8247 48.2675 32.413 47.6898 32.1297C47.112 31.8465 46.477 31.6992 45.8336 31.6992C45.1901 31.6992 44.5552 31.8465 43.9774 32.1297C43.3996 32.413 42.8943 32.8247 42.5002 33.3334L33.7402 47.2534C37.5953 48.754 41.6967 49.5216 45.8336 49.5167Z" fill="white"/>
<path d="M62.6332 54.7334L54.8332 61.3667C54.1941 61.9023 53.3774 62.1789 52.5443 62.1419C51.7112 62.1048 50.9223 61.7569 50.3332 61.1667L48.1665 59.0334C47.542 58.4126 46.6972 58.0641 45.8165 58.0641C44.9359 58.0641 44.0911 58.4126 43.4665 59.0334L41.3332 61.1667C40.7441 61.7569 39.9552 62.1048 39.1221 62.1419C38.289 62.1789 37.4724 61.9023 36.8332 61.3667L29.0332 54.7334L42.4999 33.3334C42.894 32.8247 43.3992 32.413 43.977 32.1297C44.5548 31.8465 45.1897 31.6992 45.8332 31.6992C46.4767 31.6992 47.1116 31.8465 47.6894 32.1297C48.2672 32.413 48.7724 32.8247 49.1665 33.3334L62.6332 54.7334Z" stroke="#00303E" stroke-width="0.985" stroke-linecap="round" stroke-linejoin="round"/>
<path d="M23 64.3332L14.1667 78.3333H2.5L14.1667 59.9999C14.5691 59.498 15.0754 59.0891 15.6508 58.8014C16.2262 58.5137 16.857 58.354 17.5 58.3333C18.1422 58.3577 18.7719 58.519 19.3467 58.8065C19.9216 59.0939 20.4284 59.5008 20.8333 59.9999L23 64.3332Z" fill="#9FEAFF" stroke="#00303E" stroke-width="0.985" stroke-linecap="round" stroke-linejoin="round"/>
<path d="M77.5003 78.3334H14.167L23.0003 64.3334L29.0337 54.7334L36.8337 61.3667C37.4728 61.9023 38.2895 62.1789 39.1226 62.1418C39.9556 62.1048 40.7445 61.7569 41.3337 61.1667L43.467 59.0334C44.0915 58.4126 44.9364 58.0641 45.817 58.0641C46.6976 58.0641 47.5424 58.4126 48.167 59.0334L50.3337 61.1667C50.9228 61.7569 51.7117 62.1048 52.5448 62.1418C53.3778 62.1789 54.1945 61.9023 54.8337 61.3667L62.6337 54.7334L77.5003 78.3334Z" fill="#9FEAFF" stroke="#00303E" stroke-width="0.985" stroke-linecap="round" stroke-linejoin="round"/>
<path d="M45.8232 31.6667V1.66675" stroke="#00303E" stroke-width="0.985" stroke-linecap="round" stroke-linejoin="round"/>
<path d="M45.8232 1.66675H69.0232C69.3369 1.66719 69.644 1.75612 69.9093 1.9233C70.1747 2.09048 70.3875 2.32913 70.5232 2.61183C70.659 2.89453 70.7123 3.20981 70.6769 3.52142C70.6415 3.83304 70.5189 4.12835 70.3232 4.37341L66.6666 8.96008C66.4307 9.25542 66.3023 9.62214 66.3023 10.0001C66.3023 10.378 66.4307 10.7447 66.6666 11.0401L70.3332 15.6267C70.5289 15.8718 70.6515 16.1671 70.6869 16.4787C70.7223 16.7904 70.669 17.1056 70.5332 17.3883C70.3975 17.671 70.1847 17.9097 69.9193 18.0769C69.654 18.244 69.3469 18.333 69.0332 18.3334H45.8332L45.8232 1.66675Z" stroke="#00303E" stroke-width="0.985" stroke-linecap="round" stroke-linejoin="round"/>
</svg>
