<svg width="75" height="70" viewBox="0 0 75 70" fill="none" xmlns="http://www.w3.org/2000/svg">
<path d="M34.8567 9.35197C35.0687 9.35197 35.2407 9.18721 35.2407 8.98397C35.2407 8.78073 35.0687 8.61597 34.8567 8.61597C34.6446 8.61597 34.4727 8.78073 34.4727 8.98397C34.4727 9.18721 34.6446 9.35197 34.8567 9.35197Z" fill="#B1F1FF"/>
<path d="M66.0646 20.652C66.2414 20.652 66.3846 20.5087 66.3846 20.332C66.3846 20.1552 66.2414 20.012 66.0646 20.012C65.8879 20.012 65.7446 20.1552 65.7446 20.332C65.7446 20.5087 65.8879 20.652 66.0646 20.652Z" fill="#B1F1FF"/>
<path d="M48.9846 7.68798C48.7766 7.73598 48.2406 9.25998 47.5326 9.15598C46.8246 9.05198 46.9886 7.95598 46.8686 7.78398C46.7486 7.61198 44.9406 7.59598 44.9646 7.07998C44.9886 6.56398 46.3086 6.17198 46.3366 5.98798C46.3646 5.80398 45.8846 3.79198 46.1766 3.47198C46.4686 3.15198 47.5886 4.67198 47.7046 4.69598C47.8206 4.71998 49.5366 3.28398 50.4366 3.79998C50.5526 3.86798 50.5926 4.01198 50.5446 4.30798C50.4366 4.99998 49.9846 5.41998 50.0366 5.69598C50.0886 5.97198 51.4086 7.62398 50.9286 8.12798C50.4486 8.63198 49.1726 7.64398 48.9846 7.68798Z" fill="#B1F1FF"/>
<path d="M72.2165 43.608C71.8765 43.496 71.6485 44.008 71.4405 44.12C71.2325 44.232 70.8605 44.064 70.9045 44.408C70.9485 44.752 72.6605 48.584 72.7685 48.932C72.8765 49.28 73.1685 49.732 73.5685 49.428C73.9685 49.124 75.7245 47.992 75.9445 47.672C76.1645 47.352 76.0845 47.328 75.8205 47.008C75.5565 46.688 72.6325 43.748 72.2165 43.608Z" fill="#B1F1FF"/>
<path d="M47.8486 46.6641C48.1034 46.5709 48.3826 46.569 48.6386 46.6587C48.8947 46.7484 49.1116 46.9242 49.2526 47.156C49.5646 47.66 50.5606 49.276 50.2326 49.98C50.0835 50.299 49.8607 50.5778 49.5824 50.7934C49.3042 51.0091 48.9786 51.1553 48.6326 51.2201C48.0446 51.3201 47.2286 51.516 47.2286 51.516C47.2286 51.516 48.9846 62.792 49.2286 64.272C49.4726 65.752 49.9046 68.5841 49.3606 68.4281C48.8166 68.2721 47.6446 58.7121 47.5406 57.7001C47.4366 56.6881 46.4366 51.48 46.4366 51.48L40.9206 51.4201C40.9206 51.4201 39.4646 57.732 39.6766 58.004C39.8886 58.276 45.5606 58.404 46.2206 58.404C46.8806 58.404 47.1166 58.596 47.0966 58.848C47.0766 59.1 46.8446 59.248 46.2966 59.216C45.7486 59.184 40.1206 58.8161 39.8966 58.9281C39.6726 59.0401 38.6966 65.3921 38.2966 66.5281C37.8966 67.6641 37.6926 68.1041 37.4006 67.5001C37.1086 66.8961 38.0806 61.6561 38.2366 60.7001C38.3926 59.7441 39.6526 52.68 39.7526 52.06C39.7827 51.8901 39.7497 51.7151 39.6599 51.5678C39.57 51.4204 39.4294 51.311 39.2646 51.26C39.2646 51.26 38.7806 50.4241 39.0126 50.2881C39.2446 50.1521 40.5286 50.4241 41.0526 50.4081C41.5766 50.3921 43.3806 50.0561 44.2526 50.0761C45.1246 50.0961 46.3486 49.7081 46.7166 48.5441C46.886 48.0534 47.0288 47.554 47.1446 47.048L47.8486 46.6641Z" fill="#B1F1FF"/>
<path d="M33.1165 23.596C32.1445 23.596 31.9165 23.196 31.7165 23.196C31.5165 23.196 31.3365 23.8 30.6965 23.8C30.0565 23.8 29.0965 23.464 28.9885 22.672C28.8805 21.88 29.1245 21.62 29.1245 21.62C28.9427 21.3581 28.8452 21.0469 28.8452 20.728C28.8452 20.4092 28.9427 20.098 29.1245 19.836C29.7325 18.816 31.1245 19.396 31.1805 19.412C31.2365 19.428 31.4085 19.732 31.6685 19.44C32.4685 18.56 35.2325 16.884 38.1565 18.328C39.4525 19.732 39.3565 20.036 39.4965 20.812C39.6365 21.588 39.7885 22.672 40.5045 23.144C41.2205 23.616 41.5845 24.18 40.7605 25.544C39.9365 26.908 38.7605 27.768 38.3605 27.644C37.9605 27.52 37.0205 26.136 37.1605 25.512C37.3005 24.888 37.2365 23.7 36.7605 23.608C36.6855 23.5862 36.6063 23.5831 36.5298 23.5988C36.4533 23.6146 36.3818 23.6488 36.3214 23.6985C36.2611 23.7481 36.2139 23.8117 36.1837 23.8838C36.1536 23.9559 36.1415 24.0342 36.1485 24.112C36.1965 24.308 35.4485 24.448 34.8845 23.912C34.3205 23.376 34.7005 22.876 34.5965 22.772C34.4925 22.668 33.8805 23.612 33.1165 23.596Z" fill="#B1F1FF"/>
<path d="M5.81672 0.600033C5.52072 0.400033 2.93672 2.63603 2.59272 3.00003C2.24872 3.36403 2.73272 3.40003 3.24872 3.64003C3.76472 3.88003 6.75672 7.14803 6.97672 7.44803C7.19672 7.74803 7.49272 7.62003 7.71272 7.49203C7.93272 7.36403 8.46472 7.18003 8.51272 6.83603C8.56072 6.49203 6.19272 0.844033 5.81672 0.600033Z" fill="#282828"/>
<path d="M36.1524 9.30002C36.349 9.30002 36.5084 9.11377 36.5084 8.88402C36.5084 8.65427 36.349 8.46802 36.1524 8.46802C35.9558 8.46802 35.7964 8.65427 35.7964 8.88402C35.7964 9.11377 35.9558 9.30002 36.1524 9.30002Z" fill="#282828"/>
<path d="M64.9847 20.8161C65.21 20.8161 65.3927 20.6532 65.3927 20.4521C65.3927 20.2511 65.21 20.0881 64.9847 20.0881C64.7593 20.0881 64.5767 20.2511 64.5767 20.4521C64.5767 20.6532 64.7593 20.8161 64.9847 20.8161Z" fill="#282828"/>
<path d="M5.53253 24.6001C2.65653 24.6841 1.03253 27.0361 1.75653 29.7361C2.48053 32.4361 2.36853 33.8561 1.64053 35.4801C0.91253 37.1041 1.78853 38.7041 4.34053 39.1681C6.89253 39.6321 8.84053 38.2961 9.68053 38.3681C10.5205 38.4401 11.8005 39.3521 12.7565 38.4241C13.7125 37.4961 14.6125 35.1761 14.0045 34.5081C14.0045 34.5081 9.76453 34.9481 8.13253 33.6041C6.50053 32.2601 5.53253 24.6001 5.53253 24.6001Z" fill="#282828"/>
<path d="M28.8844 45.9519C28.6684 46.2439 28.8204 46.1799 29.3884 45.9159C30.1582 45.5336 30.9827 45.2731 31.8324 45.1439C32.7364 45.0479 31.7844 44.8319 31.4924 44.8959C31.2004 44.9599 29.4084 45.2599 28.8844 45.9519Z" fill="#282828"/>
<path d="M35.7168 44.4321C34.3968 45.0001 31.0928 46.2001 29.7408 46.9041C28.3888 47.6081 27.5648 48.5041 27.8928 49.6521C28.2208 50.8001 29.7728 51.7281 31.1688 52.6881C32.5648 53.6481 34.7288 56.3801 34.9688 56.6881C35.2088 56.9961 36.7648 58.1081 37.1368 57.9321C37.5088 57.7561 37.5848 57.1121 37.9368 56.9001C38.2888 56.6881 38.5968 57.1481 38.6128 56.8281C38.4446 55.4354 37.9302 54.107 37.1168 52.9641C35.9448 51.2921 34.7168 50.6161 34.8768 50.3481C35.0368 50.0801 37.6008 50.1321 38.1848 50.0801C38.7688 50.0281 44.1848 49.9681 45.2728 49.2801C46.3608 48.5921 46.9528 47.4881 46.7848 47.2801C46.6168 47.0721 45.1208 47.3521 43.7488 46.4801C42.3768 45.6081 38.7448 43.9761 37.2528 44.1441C35.7608 44.3121 35.7168 44.4321 35.7168 44.4321Z" fill="#282828"/>
<path d="M34.6445 43.4961C34.6445 42.8521 34.7045 42.1761 35.4445 42.0761C36.1845 41.9761 36.7165 43.1001 36.7165 43.1001C36.7165 43.1001 35.4965 43.6801 34.6445 43.4961Z" fill="#282828"/>
<path d="M67.0646 45.0361C66.9863 45.0577 66.9165 45.1025 66.8644 45.1647C66.8122 45.2268 66.7802 45.3034 66.7726 45.3841C66.6886 46.5841 67.1726 50.7761 67.0406 51.2281C66.9046 51.7401 67.2406 51.9201 67.8406 51.5601C68.7952 51.0912 69.8061 50.747 70.8486 50.5361C71.2486 50.5361 71.2086 50.1121 70.9606 49.6441C70.7126 49.1761 68.6246 45.1201 68.1286 44.6721C67.9006 44.4601 67.7566 44.6161 67.5006 44.8361C67.3726 44.9356 67.2234 45.0041 67.0646 45.0361Z" fill="#282828"/>
<path d="M54.8687 9.62814C55.3807 9.80814 55.7647 8.74414 55.9807 8.76414C56.1967 8.78414 56.8367 10.0321 57.2367 9.87214C57.6367 9.71214 57.4127 8.15214 57.6367 7.87214C57.8607 7.59214 58.3247 7.71214 58.3167 7.17214C58.3087 6.63214 56.9247 6.40414 56.6687 6.28014C56.4127 6.15614 56.5567 4.89614 56.1807 4.80414C55.5607 4.65214 54.7887 6.59214 54.5127 6.68414C54.2367 6.77614 53.7127 6.33614 53.4967 6.53614C53.4016 6.69225 53.3628 6.87623 53.3868 7.05744C53.4108 7.23866 53.4962 7.40618 53.6287 7.53214C53.9126 7.75366 54.18 7.99564 54.4287 8.25614C54.5687 8.44414 54.3607 9.44814 54.8687 9.62814Z" fill="#282828"/>
<path d="M39.0646 17.1561C38.9846 17.1321 38.9366 16.9721 39.1726 16.2641C39.4086 15.5561 40.8006 12.4081 41.0926 12.1161C41.3846 11.8241 41.5966 11.9961 41.7606 12.2681C41.9246 12.5401 43.0206 13.9801 43.1166 14.1401C43.2126 14.3001 43.1806 14.5401 42.8566 14.7561C42.5326 14.9721 40.2606 17.3601 40.0246 17.4921C39.7886 17.6241 39.6606 17.4241 39.4126 17.2521C39.1646 17.0801 39.1726 17.1881 39.0646 17.1561Z" fill="#282828"/>
<path d="M41.6885 19.7161C41.3525 19.5081 41.8085 19.1481 41.8845 19.0161C41.9605 18.8841 42.5485 18.2481 42.5485 17.9841C42.5485 17.7201 42.1485 17.1641 42.3485 16.8361C42.5485 16.5081 43.9485 16.3481 43.9725 16.0361C43.9965 15.7241 43.4605 15.6641 43.5725 15.2681C43.6845 14.8721 44.6045 14.0681 44.8405 14.1201C45.0765 14.1721 46.8405 15.2041 47.1005 15.3201C47.3605 15.4361 47.2205 15.9801 46.8085 16.1201C46.3965 16.2601 44.9685 16.9881 44.9205 17.1321C44.8725 17.2761 45.8485 17.7681 45.8045 18.1361C45.7605 18.5041 44.0685 18.9881 43.5325 19.2201C42.9965 19.4521 42.1085 19.9801 41.6885 19.7161Z" fill="#282828"/>
<path d="M33.3448 24.8961C32.8488 25.1841 32.9448 26.2201 33.3448 26.4641C33.4926 26.5319 33.655 26.5617 33.8173 26.5511C33.9795 26.5404 34.1366 26.4895 34.2743 26.403C34.412 26.3165 34.526 26.1971 34.606 26.0555C34.6861 25.914 34.7296 25.7547 34.7328 25.5921C34.7208 24.7201 33.8368 24.6001 33.3448 24.8961Z" fill="#282828"/>
<path d="M15.7766 28.6639C15.7766 28.6639 11.1486 29.4639 10.6366 29.3639C10.415 29.2944 10.2289 29.142 10.1171 28.9385C10.0053 28.735 9.97643 28.4962 10.0366 28.2719C10.1766 27.9639 16.1526 27.0239 16.5966 26.9719C17.0406 26.9199 17.1926 27.1239 17.0246 27.4679C16.8566 27.8119 16.1166 27.7559 15.9126 27.7759C15.7086 27.7959 15.7766 28.6639 15.7766 28.6639Z" fill="#282828"/>
<path d="M18.4123 27.048C18.2523 27.172 18.4123 28.148 18.7603 28.204C19.1083 28.26 24.9483 27.916 25.4883 27.528C26.0283 27.14 25.9123 26.084 25.7203 25.928C25.5283 25.772 18.7603 26.776 18.4123 27.048Z" fill="#282828"/>
<path d="M26.9724 25.8321C26.7124 25.9481 26.7444 27.1841 27.0324 27.3161C27.3204 27.4481 30.2524 27.0841 30.4644 27.0281C30.6764 26.9721 30.9844 26.1801 30.9284 25.6801C30.8724 25.1801 30.7324 25.2801 30.7324 25.2801C30.7324 25.2801 27.2844 25.6961 26.9724 25.8321Z" fill="#282828"/>
<path d="M9.82044 24.428C9.35644 24.264 9.35244 23.388 9.50044 23.324C10.4629 23.2417 11.4202 23.1082 12.3684 22.924C13.6644 22.604 25.1684 20.948 25.5004 20.948C25.8324 20.948 26.0724 21.968 25.3284 22.264C24.5844 22.56 18.8284 23.136 16.6404 23.464C14.4524 23.792 10.4764 24.664 9.82044 24.428Z" fill="#282828"/>
<path d="M9.48046 22.6001C9.06046 22.4881 9.03646 21.7161 9.29646 21.4961C9.55646 21.2761 15.0565 20.5561 16.3885 20.2961C17.7205 20.0361 24.9605 19.0961 26.0565 18.9481C27.1525 18.8001 29.1605 18.6841 29.1605 18.6841C28.7079 19.0763 28.3049 19.5222 27.9605 20.0121C27.9605 20.0121 26.0405 20.2641 24.2765 20.4681C22.5125 20.6721 18.1165 20.9881 16.2765 21.4201C14.4365 21.8521 13.4765 21.9081 12.4365 22.0961C11.3965 22.2841 10.0365 22.7481 9.48046 22.6001Z" fill="#282828"/>
<path d="M44.2764 25.4001C44.2764 25.4001 45.3804 25.0841 48.6764 24.7681C51.9724 24.4521 57.1724 23.5681 59.7804 23.3041C62.3884 23.0401 64.4004 22.5881 64.6924 22.7921C64.9844 22.9961 65.3644 23.9921 64.7804 24.3121C64.1964 24.6321 59.3724 25.1121 56.2164 25.4841C53.0604 25.8561 44.3244 26.7681 44.3244 26.7681L44.2764 25.4001Z" fill="#282828"/>
<path d="M44.0366 27.9521C43.9788 28.3762 44.0283 28.8081 44.1806 29.2081C44.2966 29.2641 50.9046 28.2441 53.2406 28.0081C55.5766 27.7721 60.4006 27.4841 60.7806 27.2081C60.8696 27.1076 60.9373 26.9902 60.9797 26.863C61.0222 26.7357 61.0385 26.6011 61.0277 26.4674C61.0168 26.3336 60.9791 26.2035 60.9167 26.0847C60.8543 25.9659 60.7686 25.8609 60.6646 25.7761C60.2046 25.4961 44.8366 27.3361 44.0366 27.9521Z" fill="#282828"/>
<path d="M43.1367 30.76C43.1767 30.592 43.1927 30.4 43.6287 30.252C44.0647 30.104 49.6727 29.136 50.1247 29.232C50.5767 29.328 50.5247 30.432 50.2567 30.628C49.9887 30.824 44.3847 31.44 44.0367 31.8C43.6887 32.16 43.1367 30.76 43.1367 30.76Z" fill="#282828"/>
<path d="M51.8243 30.4761C51.6323 30.3761 51.3523 29.4561 51.5603 29.2481C51.7683 29.0401 58.5083 28.2481 58.7603 28.4481C59.0123 28.6481 58.9283 29.6481 58.8323 29.7121C58.7363 29.7761 52.1083 30.6281 51.8243 30.4761Z" fill="#282828"/>
<path d="M60.2287 28.2C60.0007 28.408 60.1727 29.576 60.4367 29.748C60.7007 29.92 62.3607 29.312 64.4367 29.068C66.5127 28.824 67.1927 29.012 67.6367 28.668C68.0807 28.324 67.7287 27.468 67.5967 27.308C67.4647 27.148 64.3487 27.668 63.3087 27.836C62.2687 28.004 60.4927 27.964 60.2287 28.2Z" fill="#282828"/>
<path d="M47.6367 40.128C48.6207 40.22 53.3607 39.512 53.6367 39.636C53.9127 39.76 53.9407 40.744 53.7287 40.928C53.5167 41.112 48.0327 41.82 47.8767 41.852C47.7207 41.884 47.6367 40.128 47.6367 40.128Z" fill="#282828"/>
<path d="M46.8564 38.2199C46.8564 38.2199 52.6164 37.4799 55.3244 37.2039C58.0324 36.9279 67.1124 35.8799 67.6084 35.8479C68.1044 35.8159 67.9444 37.2639 67.4844 37.4799C67.0244 37.6959 59.2644 38.3399 57.7244 38.4959C56.1844 38.6519 52.6764 38.9559 51.3844 39.1119C50.0924 39.2679 47.4124 39.9119 47.4124 39.9119L46.8564 38.2199Z" fill="#282828"/>
<path d="M4.31259 9.11609C3.93064 9.38462 3.59435 9.71281 3.31659 10.0881C3.22859 10.3161 0.384588 8.48809 0.160588 8.38409C-0.0634125 8.28009 -0.0434125 8.08009 0.160588 7.70409C0.542776 6.92408 0.993904 6.17979 1.50859 5.48009C1.90859 5.04809 2.04059 5.54409 2.18059 5.76809C2.32059 5.99209 4.06059 8.36009 4.25259 8.56809C4.44459 8.77609 4.48059 9.00009 4.31259 9.11609Z" fill="#B1F1FF"/>
<path d="M8.51647 3.00009C8.35247 2.63609 8.93647 2.52009 9.42847 2.47209C9.92047 2.42409 10.7725 1.85609 11.0685 1.67209C11.3645 1.48809 11.5605 1.59609 11.6285 2.29609C11.6965 2.99609 11.8005 4.51609 11.9925 4.98809C12.1656 5.5566 12.208 6.15689 12.1165 6.74409C12.0325 6.96409 11.6005 6.90809 11.3765 7.04409C11.1525 7.18009 10.8285 7.36809 10.5765 7.14009C10.3245 6.91209 8.68847 3.40009 8.51647 3.00009Z" fill="#B1F1FF"/>
<path d="M8.16477 14.512C7.90877 14.628 7.98477 15.712 8.41677 15.916C8.64477 16.024 14.9048 14.716 18.7768 14.376C18.8651 14.3666 18.9507 14.3397 19.0285 14.2968C19.1062 14.2539 19.1747 14.196 19.2298 14.1263C19.285 14.0567 19.3256 13.9767 19.3495 13.8912C19.3734 13.8056 19.3799 13.7161 19.3688 13.628C19.3208 13.324 18.9888 12.996 18.1448 13.088C17.3008 13.18 8.52877 14.34 8.16477 14.512Z" fill="#B1F1FF"/>
<path d="M20.8364 14.3961C20.6204 14.3241 20.3004 13.3401 20.4364 13.1041C20.5724 12.8681 24.1644 12.4361 25.8644 12.1761C27.5644 11.9161 32.7484 11.7161 33.2684 11.5441C33.7884 11.3721 34.3084 11.1961 34.2204 11.7441C34.1324 12.2921 34.1324 12.7521 33.5564 12.9441C32.9804 13.1361 29.0964 13.3441 28.1724 13.4481C26.2684 13.6561 21.1484 14.4961 20.8364 14.3961Z" fill="#B1F1FF"/>
<path d="M37.0607 9.25619C37.2705 9.25619 37.4407 9.07352 37.4407 8.84819C37.4407 8.62285 37.2705 8.44019 37.0607 8.44019C36.8508 8.44019 36.6807 8.62285 36.6807 8.84819C36.6807 9.07352 36.8508 9.25619 37.0607 9.25619Z" fill="#B1F1FF"/>
<path d="M8.62051 18.3841C8.44851 18.3081 8.34851 17.2601 8.50051 17.0961C8.65251 16.9321 8.70051 17.1801 9.97251 16.8361C11.2445 16.4921 19.0085 15.2361 20.2725 15.2361C21.5365 15.2361 21.7325 14.8601 22.0725 14.9401C22.4125 15.0201 22.4725 15.7681 22.3525 16.1841C22.2325 16.6001 21.8565 16.5841 20.9405 16.7041C20.0245 16.8241 15.4725 17.4441 13.7605 17.7201C12.0485 17.9961 8.98851 18.5521 8.62051 18.3841Z" fill="#B1F1FF"/>
<path d="M8.72845 19.8002C8.65645 20.2682 8.87645 20.9082 9.02445 20.9722C9.17245 21.0362 13.2604 20.0802 14.9564 19.8362C16.6524 19.5922 25.7564 18.4562 28.0444 18.1402C29.7093 17.9347 31.3834 17.8132 33.0604 17.7762C33.6111 17.4032 34.2411 17.1635 34.9004 17.0762C35.5629 17.0755 36.2195 17.1989 36.8364 17.4402C36.8364 17.4402 37.2964 16.0802 36.5444 15.6442C35.7924 15.2082 23.7444 17.2122 21.3844 17.6442C19.0244 18.0762 10.8084 19.0722 9.88445 19.1602C9.32445 19.2122 8.83645 19.2202 8.72845 19.8002Z" fill="#B1F1FF"/>
<path d="M9.68041 26.0761C9.68041 26.4761 9.82441 26.9121 10.3044 26.8761C10.7844 26.8401 15.1844 26.2641 15.5484 26.2001C15.9124 26.1361 15.4484 25.8201 15.4484 25.4401C15.4484 25.0601 15.5004 24.4961 15.3004 24.4961C15.1004 24.4961 10.9964 25.4001 10.6004 25.5201C10.2044 25.6401 9.99241 25.2761 9.80041 25.3241C9.60841 25.3721 9.66841 25.7761 9.68041 26.0761Z" fill="#B1F1FF"/>
<path d="M17.6367 25.996C18.2367 25.932 23.0247 25.16 24.6687 24.916C26.3127 24.672 28.5887 24.328 28.9727 24.284C29.3567 24.24 29.1367 23.884 29.0207 23.628C28.9047 23.372 28.9367 22.896 28.6207 22.896C28.3047 22.896 25.2887 23.236 23.2767 23.52C21.2647 23.804 18.4767 24.372 17.6767 24.492C16.8767 24.612 16.5207 24.292 16.5007 24.676C16.4647 25.584 16.7927 26.092 17.6367 25.996Z" fill="#B1F1FF"/>
<path d="M16.6325 27.6841C16.8285 27.4121 17.4685 27.3521 17.5485 27.6841C17.6285 28.0161 17.6525 38.9921 17.5725 39.6121C17.4925 40.2321 16.7725 40.2921 16.6725 39.4921C16.5725 38.6921 16.4725 31.4921 16.4525 30.7521C16.4325 30.0121 16.2725 28.2001 16.6325 27.6841Z" fill="#B1F1FF"/>
<path d="M4.87647 45.0322C4.64447 44.9122 3.72447 45.8562 3.04447 45.4002C2.36447 44.9442 3.39647 44.1682 3.44447 43.7002C3.49247 43.2322 2.37247 41.3442 2.73647 41.0162C3.10047 40.6882 3.53647 41.6722 3.81247 41.6082C4.08847 41.5442 5.30047 40.1402 5.88847 40.4442C6.47647 40.7482 6.03247 41.8042 6.36047 42.1042C6.68847 42.4042 8.14047 42.9042 8.10047 43.3722C8.06047 43.8402 6.53247 43.8802 6.41247 44.0762C6.29247 44.2722 6.47647 45.9202 5.77247 46.0402C5.06847 46.1602 5.09647 45.1522 4.87647 45.0322Z" fill="#B1F1FF"/>
<path d="M54.0685 18.16C53.6685 15.844 54.7444 11.944 58.6484 11.66C62.5524 11.376 61.9564 12.004 64.6484 9.91203C67.3404 7.82003 72.1924 4.57604 74.9364 6.60003C77.6804 8.62403 74.0964 13.092 73.7364 13.684C73.3764 14.276 74.9364 15.152 74.4844 17.432C74.0324 19.712 71.9564 22.672 71.2844 23.112C71.2844 23.112 71.5325 19.148 69.5645 17.68C67.5965 16.212 54.0685 18.16 54.0685 18.16Z" fill="#B1F1FF"/>
<path d="M63.6645 20.9801C63.8943 20.9801 64.0805 20.776 64.0805 20.5241C64.0805 20.2723 63.8943 20.0681 63.6645 20.0681C63.4348 20.0681 63.2485 20.2723 63.2485 20.5241C63.2485 20.776 63.4348 20.9801 63.6645 20.9801Z" fill="#B1F1FF"/>
<path d="M45.5925 33.0321C45.5925 32.8881 45.5925 32.7041 46.1765 32.5961C46.7605 32.4881 51.5686 32.0041 51.8885 31.9761C52.2085 31.9481 52.2885 32.0321 52.2885 32.2721C52.2885 32.5121 52.2885 32.7001 52.2885 32.8321C52.2885 32.9641 51.9285 33.1521 51.3965 33.1801C50.8645 33.2081 46.2685 33.8001 45.9365 33.8001C45.6045 33.8001 45.5605 33.6281 45.5605 33.4801C45.5605 33.3321 45.5845 33.2761 45.5925 33.0321Z" fill="#B1F1FF"/>
<path d="M54.1247 31.764C53.9927 31.864 53.9327 32.744 54.1487 32.804C54.9418 32.8607 55.7385 32.8446 56.5287 32.756C57.2647 32.66 59.5527 32.568 60.0487 32.256C60.5447 31.944 60.5207 31.248 60.2247 31.168C59.9287 31.088 57.8247 31.408 57.0247 31.516C56.2247 31.624 54.2727 31.648 54.1247 31.764Z" fill="#B1F1FF"/>
<path d="M61.7928 31.056C61.7507 31.2327 61.7551 31.4174 61.8056 31.5919C61.856 31.7665 61.9509 31.925 62.0808 32.052C62.3568 32.224 66.4808 31.848 67.1808 31.784C67.2903 31.7833 67.3983 31.758 67.4966 31.7098C67.595 31.6616 67.6812 31.5919 67.7489 31.5058C67.8165 31.4196 67.8639 31.3194 67.8874 31.2124C67.911 31.1054 67.9101 30.9945 67.8848 30.888C67.8208 30.62 67.7408 30.272 67.6408 30.248C67.5408 30.224 62.0008 30.852 61.7928 31.056Z" fill="#B1F1FF"/>
<path d="M45.7524 35.272C46.0364 35.12 48.5844 34.872 50.4044 34.6C52.2244 34.328 56.7684 33.676 58.3044 33.512C59.8404 33.348 60.7644 33.156 60.9524 33.368C61.1404 33.58 61.1204 35.048 60.8804 35.168C60.6404 35.288 57.0724 35.38 55.4884 35.568C53.9044 35.756 46.6444 36.704 46.5484 36.8C46.4524 36.896 45.7524 35.272 45.7524 35.272Z" fill="#B1F1FF"/>
<path d="M34.1845 34.7202C34.6965 34.6642 35.8405 34.9642 36.0725 35.2562L35.9685 35.7362C35.3815 35.3624 34.6961 35.1729 34.0005 35.1922L34.1845 34.7202Z" fill="#B1F1FF"/>
<path d="M36.2564 33.9041C35.9124 33.7481 35.2404 33.4081 35.0564 33.6681C34.8724 33.9281 36.0964 34.3401 36.1684 34.3761C36.2404 34.4121 36.2564 33.9041 36.2564 33.9041Z" fill="#B1F1FF"/>
<path d="M36.2688 32.948C35.9502 32.7487 35.6018 32.6015 35.2368 32.512C35.0608 32.512 35.4648 32.144 35.4648 32.144C35.7992 32.2633 36.1026 32.4561 36.3528 32.708C36.6168 33.04 36.2688 32.948 36.2688 32.948Z" fill="#B1F1FF"/>
<path d="M37.2368 35.5762C37.1928 34.6842 37.2968 31.7722 37.3208 31.3722C37.3448 30.9722 37.6248 30.8362 37.6888 31.3002C37.7528 31.7642 37.6888 34.8642 37.6888 34.8642L37.2368 35.5762Z" fill="#B1F1FF"/>
<path d="M39.8364 28.9761L39.9084 31.8441L40.4284 31.7161L40.3484 29.1161L39.8364 28.9761Z" fill="#B1F1FF"/>
<path d="M42.5325 30.5161C42.5129 31.035 42.5236 31.5545 42.5645 32.0721C42.5766 32.1168 42.5993 32.1579 42.6307 32.192C42.6621 32.226 42.7012 32.252 42.7448 32.2677C42.7884 32.2834 42.8351 32.2884 42.881 32.2822C42.9269 32.276 42.9706 32.2588 43.0085 32.2321C43.1565 32.1121 43.1645 30.9561 43.1645 30.9561L42.5325 30.5161Z" fill="#B1F1FF"/>
<path d="M39.2085 32.7202C39.7965 32.6962 42.2005 33.4722 42.9405 34.1802C43.6805 34.8882 43.3965 33.6602 42.7965 33.3802C41.7987 32.8291 40.6903 32.508 39.5525 32.4402L39.2085 32.7202Z" fill="#B1F1FF"/>
<path d="M42.7483 36.6C42.1259 35.9886 41.4186 35.4699 40.6483 35.06C40.01 34.7273 39.34 34.4593 38.6483 34.26C38.3923 34.2 38.5403 33.932 38.8603 33.952C39.6454 34.0706 40.4028 34.3294 41.0964 34.716C41.8124 35.164 42.9964 36.08 42.9964 36.08L42.7483 36.6Z" fill="#B1F1FF"/>
<path d="M37.5566 35.712C37.5566 35.712 40.1646 36.588 41.1206 37.396C42.0766 38.204 42.1246 38.428 42.1246 38.428L42.4846 38.028C42.0163 37.3945 41.4014 36.8839 40.6926 36.54C39.7301 36.0395 38.7297 35.6155 37.7006 35.272L37.5566 35.712Z" fill="#B1F1FF"/>
<path d="M37.0728 43.108C37.1223 43.3885 37.1223 43.6755 37.0728 43.956H37.6208C37.6889 43.5477 37.7131 43.1334 37.6928 42.72L37.0728 43.108Z" fill="#B1F1FF"/>
<path d="M39.1884 44.1321C39.0564 43.5841 39.6084 41.6561 39.5884 40.9321L40.0684 40.3521C40.1435 41.3843 40.0351 42.4216 39.7484 43.4161C39.6044 44.0761 39.7244 44.2681 39.7244 44.2681L39.1884 44.1321Z" fill="#B1F1FF"/>
<path d="M41.4688 45C41.5287 44.316 41.9807 41.8 42.1167 40.6C42.2527 39.4 42.1167 38.792 42.4447 38.696C42.7727 38.6 42.8728 38.976 42.7848 39.648C42.6968 40.32 42.6047 41.892 42.4207 42.708C42.2367 43.524 41.9687 45.248 41.9687 45.248L41.4688 45Z" fill="#B1F1FF"/>
<path d="M44.6168 33.6201C44.6168 33.6801 44.5408 37.2721 44.4288 38.8841C44.3168 40.4961 43.9248 45.0801 43.7608 45.4961C43.5968 45.9121 44.0128 46.1481 44.1608 45.6401C44.4645 44.0368 44.6702 42.4165 44.7768 40.7881C44.8688 39.3001 44.9928 33.8841 44.9928 33.8841L44.6168 33.6201Z" fill="#B1F1FF"/>
<path d="M46.0605 36.6921C46.0605 36.6921 46.1325 40.3881 46.2045 41.2401C46.2765 42.0921 46.4245 42.2361 46.2405 43.4481C46.0565 44.6601 46.3485 46.8161 46.5685 47.0881C46.7885 47.3601 47.0285 47.0241 47.0285 47.0241C46.7925 46.1841 46.6965 42.2801 46.7805 40.9561C46.8645 39.6321 46.9485 38.8561 46.9485 38.8561C46.9485 38.8561 46.7165 37.0641 46.0605 36.6921Z" fill="#B1F1FF"/>
<path d="M42.7847 15.3359C42.8567 15.6039 42.8767 15.9159 42.9447 16.1879C43.0127 16.4599 43.3967 16.1879 43.3967 15.9759C43.3967 15.7639 43.2767 15.5759 43.2487 15.2759C43.2207 14.9759 42.6927 14.9999 42.7847 15.3359Z" fill="#282828"/>
<path d="M31.8486 25.0759C32.2486 25.6399 32.4886 25.0759 32.2206 24.6759C31.7886 24.0359 31.4326 24.5199 31.8486 25.0759Z" fill="#282828"/>
<path d="M32.5366 28.356C32.5366 28.532 32.7966 28.516 32.8166 28.4C32.8366 28.284 32.8166 28.104 32.8446 28C32.8726 27.896 32.9566 27.904 33.1286 27.896C33.3926 27.896 33.2846 27.496 33.1286 27.544C32.9726 27.592 32.6806 27.576 32.5566 27.696C32.4326 27.816 32.5166 28.176 32.5366 28.356Z" fill="#282828"/>
<path d="M35.9165 26.4681C36.0214 26.3059 36.064 26.1113 36.0365 25.9201C36.0365 25.7281 35.9125 25.7321 35.9125 25.8361C35.8987 25.9547 35.8467 26.0655 35.7645 26.1521C35.6924 25.9637 35.6493 25.7654 35.6365 25.5641C35.6125 25.2201 35.2885 25.2641 35.3565 25.5881C35.3976 25.8601 35.4632 26.1279 35.5525 26.3881C35.6045 26.4681 35.8085 26.5721 35.9165 26.4681Z" fill="#282828"/>
<path d="M33.6367 23.2C34.0567 23.2 34.5247 22.356 34.6367 22C34.7487 21.644 34.5767 21.472 34.2967 21.836C34.0463 22.1792 33.731 22.47 33.3687 22.692C33.1967 22.728 32.9967 22.496 32.9007 22.632C32.7287 22.868 33.1967 23.216 33.6367 23.2Z" fill="#282828"/>
<path d="M36.8888 20.94C36.6408 21.168 37.2888 21.548 37.4848 21.864C37.6496 22.1547 37.739 22.482 37.7448 22.816C37.7448 23.032 38.2888 23.156 38.3128 22.712C38.3545 22.3088 38.2494 21.904 38.0168 21.572C37.7928 21.3 37.0368 20.8 36.8888 20.94Z" fill="#282828"/>
<path d="M38.4849 20.4881C38.7369 20.4281 38.6209 20.1361 38.4449 19.8881C38.3542 19.7756 38.2338 19.6909 38.0973 19.6435C37.9608 19.5961 37.8138 19.588 37.6729 19.6201C37.4369 19.6761 37.3249 19.8881 37.5689 19.8801C38.1449 19.8641 37.9689 20.6001 38.4849 20.4881Z" fill="#282828"/>
<path d="M28.7565 19.424C29.5125 18.836 31.0205 19.36 31.2045 19.608C31.3885 19.856 31.4725 19.608 31.4005 19.304C31.3285 19 30.0805 18.16 28.7565 18.768C28.3278 18.9697 27.987 19.3202 27.7972 19.7542C27.6074 20.1882 27.5815 20.6764 27.7245 21.128C27.8965 21.616 28.5645 21.796 28.2205 20.86C28.0845 20.484 28.0005 20.012 28.7565 19.424Z" fill="#282828"/>
<path d="M40.1248 42.9999C39.6168 43.0999 39.6808 43.4959 40.1848 43.4319C40.9458 43.3631 41.7063 43.5688 42.3288 44.0119C42.8848 44.4439 43.8488 45.0599 44.3288 44.9879C44.8088 44.9159 44.6968 44.5439 44.3048 44.4919C43.9128 44.4399 43.5528 44.0919 42.6648 43.3839C41.7768 42.6759 40.6288 42.8879 40.1248 42.9999Z" fill="#282828"/>
<path d="M72.8687 39.976C72.6727 37.52 72.5127 31.976 72.3167 30.088C72.1207 28.2 71.8527 23.248 71.4567 20.488C71.0607 17.728 69.2767 16.488 66.8687 16.58C64.4607 16.672 60.8687 16.98 57.7167 17.336C54.5647 17.692 44.7527 18.884 44.0087 19C43.2647 19.116 43.0247 19.296 43.0927 19.856C43.1607 20.416 43.3047 22.432 43.5287 23.976C43.7527 25.52 43.7687 27.268 43.3327 28.128C43.1734 28.4828 42.9264 28.7913 42.615 29.0243C42.3036 29.2573 41.938 29.4073 41.5527 29.46C41.2127 29.28 40.8727 29.112 40.5647 28.968C40.7107 28.8583 40.8447 28.7337 40.9647 28.596C42.1047 27.396 42.2207 24.96 41.8487 22.924C41.4767 20.888 41.1207 17.656 41.0487 17.324C40.9367 16.884 40.0927 17.096 40.2487 17.724C40.3647 18.156 40.5047 19.128 40.7207 20.124C40.9709 21.6744 41.1431 23.2364 41.2367 24.804C41.3567 26.428 40.9727 27.728 40.4367 28.12C40.2496 28.2688 40.123 28.4807 40.0807 28.716L39.5247 28.476V28.448C39.5247 28.248 39.2927 28.108 38.8967 27.828C38.7221 27.6929 38.5673 27.534 38.4367 27.356C38.7407 27.084 39.4127 26.484 39.7687 26.228C40.3598 25.7153 40.7426 25.0038 40.8447 24.228C40.9727 23.376 40.3007 22.92 40.0447 22.492C39.7887 22.064 39.5447 20.524 39.4087 19.74C39.2727 18.956 37.7727 16.848 35.3567 16.872C32.9407 16.896 31.9487 18.44 31.8367 18.74C31.7247 19.04 31.8367 19.392 32.2367 18.844C33.0367 17.74 34.1927 17.424 36.0207 17.524C37.8487 17.624 39.1287 19.76 39.2447 20.432C39.3791 21.2307 39.5867 22.0153 39.8647 22.776C40.0767 23.236 40.4607 23.852 39.9607 24.812C39.5607 25.612 38.4487 26.556 38.0767 26.864C37.7887 26.436 37.5287 26.008 37.4567 25.88C37.3087 25.632 37.4167 25.448 37.4247 25.156C37.4327 24.864 37.4927 23.424 36.8207 23.272C36.1487 23.12 35.9647 23.624 35.8567 23.624C35.7487 23.624 35.6127 23.572 35.4887 23.224C35.3647 22.876 35.5927 22.276 35.3447 22.188C35.0967 22.1 34.8367 22.768 34.8887 23.264C34.9407 23.76 35.0927 24.064 35.8767 24.18C35.8767 24.18 35.8767 24.48 36.0887 24.528C36.3007 24.576 36.2407 24.448 36.3047 24.216C36.3687 23.984 36.4727 23.776 36.6047 23.768C36.7367 23.76 36.8447 23.812 36.9327 24.348C37.0207 24.884 36.7727 25.596 36.7367 25.912C36.7007 26.228 37.3807 26.896 37.6287 27.268C37.8767 27.64 38.8287 28.436 38.8567 28.56C38.8847 28.684 38.8167 29.08 37.9367 29.796C37.0567 30.512 36.5407 30.456 36.5407 30.456C36.5407 30.456 36.6087 29.048 36.1407 28.856C35.6727 28.664 35.2087 28.932 34.6887 29.16C34.1687 29.388 33.3247 29.668 32.9367 29.596C32.5487 29.524 32.3087 29.088 32.0367 28.468C31.748 27.9797 31.3661 27.5529 30.9127 27.212C30.7887 27.1 30.7727 26.984 30.9127 26.876C31.1135 26.4955 31.2139 26.0701 31.2047 25.64C31.1881 25.071 31.0632 24.5103 30.8367 23.988C30.7647 23.764 30.7727 23.68 30.8367 23.632C30.9007 23.584 31.3247 23.42 31.5567 23.308C31.7887 23.196 31.6247 23.612 31.5327 23.788C31.4407 23.964 31.5327 24.076 31.7047 24.008C31.8767 23.94 32.1367 23.344 32.2567 23.116C32.3767 22.888 32.1607 22.884 32.0767 22.8C31.9927 22.716 31.9967 22.692 32.1687 22.4C32.239 22.3034 32.272 22.1846 32.2617 22.0656C32.2514 21.9465 32.1985 21.8352 32.1127 21.752C32.0047 21.712 31.7407 22.016 31.6127 22.28C31.5543 22.4403 31.4491 22.5794 31.3107 22.6793C31.1724 22.7791 31.0072 22.8351 30.8367 22.84C30.4367 22.84 30.4727 22.604 30.3447 22.208C30.2167 21.812 29.9727 21.936 29.9167 22.544C29.8607 23.152 30.3167 23.284 30.3527 23.4C30.3887 23.516 30.3247 23.72 30.2127 23.704C29.9704 23.6771 29.7371 23.5968 29.5296 23.4688C29.3221 23.3408 29.1455 23.1684 29.0127 22.964C28.6127 22.312 29.0607 21.208 29.5127 20.908C29.9647 20.608 29.6767 20.44 29.1487 20.756C28.6207 21.072 27.9487 22.176 28.5327 23.156C28.6895 23.4464 28.9198 23.6905 29.2006 23.8639C29.4814 24.0373 29.8028 24.1339 30.1327 24.144C30.3767 24.144 30.4327 24.944 30.5687 25.344C30.6908 25.7512 30.7155 26.1815 30.6407 26.6C30.5807 26.832 30.2407 27.096 30.5647 27.4C30.9995 27.8772 31.3608 28.4164 31.6367 29C31.7371 29.2495 31.8717 29.4837 32.0367 29.696C31.7892 29.8043 31.5282 29.8783 31.2607 29.916C30.8327 30.004 25.7447 30.4 23.1927 30.716C20.6407 31.032 18.3687 31.144 17.7127 31.18C17.547 31.1716 17.383 31.2164 17.2447 31.308C17.1047 30.036 16.9047 28.432 16.8927 28.052C16.8927 27.488 16.7247 27.444 16.4647 27.444C16.2047 27.444 15.9567 27.504 15.6647 27.516C15.3727 27.528 15.3567 27.8 15.4167 28.2C15.4767 28.6 15.4807 29.704 15.6127 31.044C15.6127 31.068 15.6127 31.092 15.6127 31.116C14.7687 31.156 11.9127 31.288 10.9607 31.36C9.8367 31.444 9.3287 30.832 9.0127 29.54C8.6967 28.248 8.1447 23.688 7.9927 22.536C7.8567 21.552 7.1927 15.712 6.9367 13.548C7.7847 13.388 11.2407 12.864 13.4727 12.548C15.9767 12.2 20.0367 11.92 21.5087 11.844C22.9807 11.768 26.9607 11.044 28.5207 10.868C30.0807 10.692 36.7127 10.004 37.4727 9.97601C38.2327 9.94801 38.5447 9.35201 37.3607 9.46801C36.1767 9.58401 29.6847 10.168 27.5007 10.512C25.3167 10.856 20.1247 11.204 15.3487 11.864C11.2567 12.428 7.8007 12.96 6.8887 13.1C6.8887 12.96 6.8567 12.856 6.8487 12.796C6.7247 12.02 7.0367 11.74 8.2167 11.492C9.3967 11.244 22.3767 9.69601 24.7807 9.40001C27.1847 9.10401 36.1927 8.28001 36.9767 8.20001C37.7607 8.12001 38.2847 8.31201 38.4527 9.19201C38.6207 10.072 39.4687 13.404 39.6327 13.948C39.7967 14.492 40.2207 14.348 40.1367 13.74C40.0527 13.132 39.6567 12.296 39.6567 11.12C39.6567 9.94401 39.3607 8.23201 38.7967 7.76801C38.2327 7.30401 37.1647 7.20401 34.9127 7.36801C32.6607 7.53201 23.9087 8.62801 20.8047 9.08801C17.7007 9.54801 14.1207 9.99201 11.6047 10.18C9.0887 10.368 7.7767 10.5 7.0767 10.684C6.3767 10.868 5.8767 11.712 6.1447 12.944C6.4127 14.176 6.4887 18.364 6.9447 20.22C7.4007 22.076 7.6767 25.664 7.8167 27.4C7.9567 29.136 8.2167 31.052 9.2847 31.824C10.3527 32.596 12.2127 32.196 13.0567 32.224C13.9455 32.1916 14.8314 32.1021 15.7087 31.956C15.7885 32.6116 15.8246 33.2717 15.8167 33.932C14.9567 34.004 9.6807 34.392 8.4807 33.644C7.1767 32.844 6.3207 27.672 6.1567 25.792C5.9927 23.912 5.5927 19.064 5.2367 16.852C4.8807 14.64 4.5127 11.072 5.2727 10.388C6.0327 9.70401 12.3807 8.67601 15.2367 8.23601C18.0927 7.79601 26.4687 6.63601 29.1687 6.34801C31.8687 6.06001 35.7647 6.03601 36.9207 6.03601C38.0767 6.03601 39.2487 5.83601 40.6047 7.63601C41.9607 9.43601 42.2047 12.38 42.2567 13C42.3087 13.62 43.1367 13.488 43.1007 12.868C43.0647 12.248 42.5167 8.96801 42.0127 7.80001C41.5087 6.63201 39.6367 4.86401 37.7287 4.86401C35.8207 4.86401 30.3887 5.23201 28.0367 5.55201C25.6847 5.87201 19.7727 6.65601 17.4807 7.05601C15.1887 7.45601 8.0367 8.50001 6.8367 8.78401C5.0527 9.18401 4.2207 9.46001 3.9767 11.424C3.6447 14.096 4.5647 18.808 4.8007 21.024C5.1087 23.884 5.3527 28.908 5.9207 30.224C6.4887 31.54 6.9927 33.484 8.1007 34.184C9.2087 34.884 10.8367 34.932 12.4367 34.832C13.6967 34.752 15.1647 34.708 15.7567 34.692C15.719 35.862 15.7471 37.0332 15.8407 38.2C15.8887 38.464 15.8407 38.388 15.6207 38.764C15.4007 39.14 14.4687 40.764 14.2447 41.216C14.1589 41.4033 14.1217 41.6092 14.1363 41.8148C14.151 42.0203 14.2172 42.2188 14.3287 42.392C14.395 42.4866 14.4809 42.5658 14.5807 42.624C14.0407 42.696 13.2327 42.84 12.7847 42.928C12.3367 43.016 12.3487 43.16 12.3847 43.48C12.4207 43.8 12.4487 44.28 12.4927 44.524C12.5058 44.6488 12.5662 44.7639 12.6613 44.8457C12.7565 44.9275 12.8793 44.9698 13.0047 44.964H13.2247C13.2687 46.408 13.4887 53.54 13.6447 55.404C13.8207 57.484 14.2407 68.876 14.2807 69.128C14.3207 69.38 14.6087 69.46 14.8287 69.432C15.0487 69.404 15.3567 69.396 15.5047 69.396C15.6527 69.396 15.7007 69.292 15.7007 68.964C15.7007 68.636 16.1327 63.996 16.0047 62.016C15.8767 60.036 15.6047 50.22 15.5407 49.192C15.5007 48.392 15.4807 45.848 15.4727 44.792C17.6327 44.632 20.5527 44.416 21.4207 44.34C22.1607 44.272 23.8487 44.128 25.3407 44.004C25.3927 45.296 25.5847 50.12 25.6647 51.808C25.7527 53.76 26.3447 65.96 26.3927 66.708C26.4407 67.456 26.5647 68.044 26.5327 68.248C26.5007 68.452 26.7687 68.648 27.0247 68.648C27.2807 68.648 27.6727 68.58 27.8247 68.58C27.9767 68.58 28.0647 68.392 28.0807 67.828C28.0967 67.264 27.8327 57.068 27.8327 55.868V51.4C28.0633 51.6811 28.3104 51.9482 28.5727 52.2C30.0367 53.552 34.4367 56.9 35.6367 57.52C36.8367 58.14 36.9407 58.076 37.0247 58.272C37.1087 58.468 36.8807 58.764 36.8687 59.264C36.8582 59.5136 36.9311 59.7596 37.076 59.9632C37.2208 60.1667 37.4294 60.3162 37.6687 60.388C37.5687 60.844 37.4807 61.256 37.4167 61.552C37.1447 62.836 36.4407 65.988 36.3487 66.496C36.2567 67.004 36.2247 67.392 36.4207 67.588C36.6167 67.784 37.4127 67.644 37.5647 67.656C37.7167 67.668 37.7847 67.372 37.8087 67.084C37.8327 66.796 38.4287 64.648 38.6087 63.976C38.6847 63.7 39.1207 61.54 39.6047 59.104C41.0096 59.0815 42.4144 59.1577 43.8087 59.332C44.8431 59.429 45.883 59.4531 46.9207 59.404C46.9607 59.728 46.9967 59.996 47.0207 60.204C47.2167 61.776 47.8567 67.432 47.8927 67.928C47.9287 68.424 48.1487 68.544 48.4207 68.56C48.6519 68.6104 48.8882 68.6332 49.1247 68.628C49.3967 68.596 49.5527 68.228 49.4847 67.808C49.4167 67.388 48.6247 60.884 48.4567 59.508C48.2887 58.132 48.3367 57.044 48.0567 55.16C47.8367 53.712 47.6127 52.268 47.5207 51.672C48.0276 51.6288 48.5157 51.4596 48.9407 51.18C49.6287 50.552 49.2567 48.78 49.2167 48.328C49.1767 47.876 48.5487 47 48.0927 46.66C48.1939 46.4432 48.2562 46.2104 48.2767 45.972C49.7767 45.82 54.6127 45.324 57.3207 45.02C60.5567 44.652 68.0687 43.82 69.8567 43.496C71.6447 43.172 73.0607 42.432 72.8687 39.976ZM44.3047 22.496L47.6047 21.8C49.3247 21.432 57.1807 20.236 58.9447 19.98C60.7087 19.724 65.7687 19.18 67.2367 19.892C67.5525 20.078 67.8027 20.3576 67.9527 20.692C66.5527 20.864 58.4847 21.856 55.5527 22.16C52.6207 22.464 45.8127 23.8 44.4807 24.056C44.4367 23.512 44.3647 23 44.3047 22.496ZM44.5967 25.62C44.5967 25.272 44.5527 24.916 44.5247 24.564C45.3135 24.3618 46.1154 24.2147 46.9247 24.124C49.4847 23.76 52.6007 23.36 54.2127 22.924C56.0167 22.444 61.2607 21.912 64.1447 21.724C65.5095 21.6637 66.8702 21.5302 68.2207 21.324C68.8207 23.044 68.9807 25.772 69.1767 27.196C69.4527 29.196 70.0567 35.732 70.1967 37.832C70.3367 39.932 68.9527 40.428 67.9687 40.756C66.9847 41.084 62.9087 41.316 59.8967 41.612C57.0647 41.892 50.0447 42.64 48.2327 42.836C48.0219 41.0539 47.6196 39.2998 47.0327 37.604C46.1887 35.416 44.1087 31.236 42.9487 30.312C42.7064 30.1243 42.4525 29.952 42.1887 29.796C44.2727 29.4 44.7127 27.74 44.5967 25.62ZM36.9967 31.08C37.4777 30.8756 37.9351 30.6194 38.3607 30.316C38.8615 29.9375 39.2398 29.42 39.4487 28.828C40.2727 29.584 41.3607 29.736 42.2207 30.428C43.0807 31.12 45.9647 36.516 46.4807 38.084C46.9967 39.652 47.6087 43.216 47.5047 44.836C47.4007 46.456 47.4607 46.784 46.9847 46.976C46.5087 47.168 45.3847 46.976 44.7647 46.676C44.1447 46.376 43.1167 45.944 42.6967 45.524C42.2767 45.104 39.7487 43.856 38.4127 43.804C37.7844 43.7492 37.1516 43.7828 36.5327 43.904L36.4247 43.504L36.5167 43.476C38.3927 42.844 40.1647 40.54 40.8607 39.412C41.4127 39.632 41.9567 39.328 42.5767 38.424C43.3407 37.324 43.4087 35.112 43.0127 33.652C42.6167 32.192 41.7047 31.092 41.0127 31.14C40.1433 31.2314 39.3453 31.6627 38.7927 32.34C38.0067 33.3918 37.3912 34.5608 36.9687 35.804C36.6847 36.688 36.9687 36.736 37.3687 36.972L37.4367 37.016C37.0005 37.6729 36.5136 38.2948 35.9807 38.876C36.0407 38.172 36.3407 35.74 36.5887 34.604C36.7943 33.4389 36.9252 32.2618 36.9807 31.08H36.9967ZM36.0087 43.996C35.0687 44.228 32.4407 44.592 31.0527 44.796C29.6803 45.0761 28.4492 45.8275 27.5727 46.92L27.4647 43.8L28.0367 43.76C28.5007 43.724 28.3927 43.36 28.3767 43.028C28.3607 42.696 28.2327 42.436 28.1967 42.112C28.1727 41.9 27.9607 41.788 27.5687 41.764C27.5613 41.6139 27.5453 41.4643 27.5207 41.316C27.9316 41.2174 28.3053 41.0021 28.5967 40.696C28.8927 40.46 29.1967 40.532 29.4487 40.896C31.1127 43.264 33.2487 44.316 35.9007 43.652L36.0087 43.996ZM31.7167 45.216C30.789 45.485 29.8951 45.8594 29.0527 46.332C28.6527 46.624 28.8007 46.228 28.9807 46.076C29.7316 45.4273 30.6967 45.0809 31.6887 45.104C31.8167 45.12 32.0367 45.144 31.7167 45.216ZM21.6367 42.168C21.6007 42.024 21.5687 41.828 21.6367 41.768C23.3902 41.5744 25.1526 41.4716 26.9167 41.46C26.9727 41.512 26.9687 41.668 26.9607 41.776L26.8367 41.8C26.2847 41.848 23.6367 42.032 21.6367 42.168ZM36.3847 31.428C36.3567 31.624 36.2967 31.892 36.2207 32.32C36.1287 32.848 35.9127 34.984 35.7407 36.776L34.0367 35.824C33.8487 35.72 34.0647 35.512 34.2647 35.12C34.4647 34.728 34.5847 33.768 35.0647 32.944C35.4424 32.3877 35.8856 31.8787 36.3847 31.428ZM35.6927 37.276C35.6047 38.172 35.5367 38.92 35.5087 39.24C34.6697 39.7483 33.6722 39.9279 32.7087 39.744C33.6207 39.32 33.8727 39.128 34.2047 38.292C34.4003 37.7874 34.562 37.2702 34.6887 36.744C35.0647 36.94 35.4647 37.152 35.6927 37.276ZM34.3127 40.272C35.8527 40.188 37.5127 37.872 37.9127 37.332C38.6767 37.848 39.9647 38.768 40.4887 39.188L40.5247 39.22C39.7007 40.78 37.5527 43.132 35.3247 43.276C34.3419 43.3265 33.3609 43.147 32.4596 42.7519C31.5583 42.3568 30.7615 41.757 30.1327 41C29.2527 39.872 28.7407 40.012 28.3727 40.4C28.0047 40.788 27.8847 40.8 27.7807 40.86C27.6767 40.92 27.5887 40.86 27.6687 40.684C27.7203 40.5775 27.7791 40.4746 27.8447 40.376C27.9047 40.28 27.8447 40.108 27.6687 40.212C27.4816 40.371 27.3077 40.5449 27.1487 40.732C27.0407 40.828 26.9367 40.776 27.0167 40.66C27.0967 40.544 27.2087 40.26 27.3087 40.108C27.4087 39.956 27.3087 39.88 27.1167 40.028C26.9247 40.176 26.2327 40.72 26.1087 40.8C25.9847 40.88 25.8927 40.744 26.0247 40.604C26.2317 40.4081 26.4494 40.2239 26.6767 40.052C26.8047 39.96 26.7247 39.744 26.5327 39.836C26.3407 39.928 25.9007 40.124 25.7527 40.176C25.3527 40.332 26.0327 39.56 26.1527 39.468C26.4207 39.268 26.9127 39.1 27.9487 39.172C30.5087 39.336 31.5727 40.416 34.3127 40.272ZM40.8367 38.88C40.5327 38.704 38.4367 36.972 37.5647 36.428C37.3967 36.32 37.5367 36.084 37.6727 35.812C37.8087 35.54 38.5447 33.62 39.1847 32.976C39.8247 32.332 40.7847 31.568 41.0567 31.66C41.5317 31.9948 41.9317 32.4249 42.2312 32.9228C42.5308 33.4207 42.7234 33.9756 42.7967 34.552C42.9767 36.204 42.1447 38.332 41.8247 38.664C41.713 38.8122 41.552 38.9154 41.3707 38.9551C41.1895 38.9947 41 38.9681 40.8367 38.88ZM17.9767 31.952C18.4927 31.928 27.9767 31.048 29.5767 30.864C31.1767 30.68 32.3407 30.62 32.7047 30.42C32.7836 30.383 32.8482 30.3212 32.8887 30.244L33.0207 30.28C33.7207 30.448 35.0207 29.624 35.4207 29.48C35.8207 29.336 35.9447 29.48 35.9447 29.824C36.0069 30.1824 36.1272 30.5283 36.3007 30.848C35.479 31.5325 34.8388 32.409 34.4367 33.4C33.9767 34.532 33.9887 34.856 33.6367 35.276C33.2847 35.696 33.1247 36.124 33.6767 36.304C33.8524 36.3669 34.0246 36.439 34.1927 36.52C34.1655 37.2789 33.9482 38.0189 33.5607 38.672C33.1535 39.1778 32.5681 39.5084 31.9247 39.596C30.1447 39.196 28.4847 38.684 27.0727 38.796C25.5647 38.904 25.2047 39.916 25.1487 40.108C25.1232 40.198 25.13 40.2942 25.168 40.3797C25.206 40.4652 25.2728 40.5346 25.3567 40.576C25.5247 40.636 25.6527 40.52 25.7127 40.624C25.7727 40.728 25.6207 40.896 25.6047 41.024C25.4047 41.024 25.2047 41.052 25.0647 41.068C24.3167 41.136 21.7047 41.276 21.3767 41.34C21.0487 41.404 20.9047 41.488 20.9527 41.692C20.9807 41.816 21.0247 42.052 21.0567 42.216L19.4127 42.336L18.8407 42.388C18.8167 42.152 18.7767 41.8 18.7567 41.672C18.7207 41.476 18.6247 41.272 18.2047 41.272C17.5537 41.2743 16.9031 41.2369 16.2567 41.16C15.9687 41.1 15.8247 40.932 15.9767 40.628C16.0502 40.4666 16.1473 40.317 16.2647 40.184C16.6482 40.3248 17.0618 40.3633 17.4647 40.296C17.7047 40.296 17.6967 40.076 17.6967 39.836C17.6967 39.672 17.5567 36.636 17.4567 34.54C18.4013 34.5198 19.344 34.4477 20.2807 34.324C22.1887 34.084 27.2847 33.444 28.2607 33.276C29.2367 33.108 33.6367 32.768 34.2447 32.6C34.8527 32.432 34.7047 31.924 34.1887 31.98C33.6727 32.036 31.8567 32.236 30.3967 32.38C28.9367 32.524 24.3087 32.856 21.5727 33.18C19.4807 33.432 18.0207 33.684 17.4527 33.788C17.4287 33.28 17.4087 32.892 17.4007 32.72C17.3927 32.548 17.3647 32.244 17.3287 31.888C17.5381 31.953 17.7586 31.9748 17.9767 31.952ZM16.0367 27.908C16.1379 27.9141 16.2395 27.9141 16.3407 27.908C16.3525 27.9088 16.3637 27.9136 16.3724 27.9216C16.3812 27.9296 16.3869 27.9403 16.3887 27.952C16.3887 28.212 16.5127 29.672 16.5927 30.492C16.6807 31.392 16.9927 34.348 16.9567 35.292C16.9207 36.236 16.9927 38.956 17.0127 39.204C17.0327 39.452 16.9727 39.704 16.8527 39.744C16.7327 39.784 16.5447 39.744 16.4887 39.26C16.0887 35.912 16.4047 33.304 16.1167 30.588C16.0527 29.96 15.9687 28.26 15.9447 28.128C15.9207 27.996 15.9447 27.9 16.0367 27.908ZM14.9487 41.4C15.1247 41.04 15.6607 39.864 15.7487 39.676C15.8367 39.488 16.0527 39.568 15.9407 39.788C15.8287 40.008 15.6567 40.476 15.5407 40.7C15.4731 40.8249 15.4425 40.9665 15.4524 41.1082C15.4623 41.2498 15.5124 41.3857 15.5967 41.5C15.6811 41.5964 15.7882 41.6703 15.9083 41.715C16.0284 41.7597 16.1578 41.7738 16.2847 41.756C16.6367 41.756 17.8847 41.756 18.0447 41.796C18.2047 41.836 18.2207 41.904 18.2327 42.056C18.2447 42.208 18.2767 42.336 18.1087 42.352C17.9407 42.368 15.7087 42.352 15.3647 42.292C15.2761 42.2646 15.1942 42.219 15.1244 42.1581C15.0545 42.0972 14.9981 42.0223 14.9589 41.9382C14.9197 41.8542 14.8986 41.7629 14.8968 41.6702C14.8951 41.5775 14.9127 41.4855 14.9487 41.4ZM14.6047 46.252C14.6407 47.204 14.8007 52.476 14.8727 54.156C14.9447 55.836 15.3567 62.432 15.3367 63.212C15.3167 63.992 15.3607 68.292 15.3367 68.456C15.3127 68.62 14.8487 68.596 14.8207 68.428C14.7927 68.26 14.8207 65.44 14.7647 64.36C14.7087 63.28 14.6007 59.272 14.4927 57.372C14.3847 55.472 13.9847 46.632 13.9367 45.96C13.9087 45.6 13.9127 45.196 13.9367 44.892L14.6327 44.84C14.6047 45.196 14.5847 45.72 14.6047 46.248V46.252ZM15.1607 43.928C13.8007 43.976 13.1607 44.328 13.0087 44.252C12.865 43.9789 12.832 43.6608 12.9167 43.364C13.0727 43.244 13.3167 43.336 14.1167 43.228C14.9167 43.12 17.7407 43.196 18.7167 43.112C19.6927 43.028 23.7447 42.672 24.5607 42.652C25.3767 42.632 27.2247 42.296 27.4207 42.404C27.6167 42.512 27.7727 43.02 27.6447 43.096C27.5167 43.172 25.1767 43.296 23.7287 43.468C22.2807 43.64 16.5207 43.88 15.1607 43.924V43.928ZM27.4007 56.084C27.4007 57.62 27.6007 67.46 27.6167 67.724C27.6327 67.988 27.0767 68.152 27.1087 67.772C27.1407 67.392 26.7087 61.628 26.7087 60.292C26.7087 58.956 26.3687 53.26 26.3687 51.768C26.3687 50.464 26.1167 45.26 26.0487 43.928L26.7407 43.872C27.0367 46.452 27.1927 47.072 27.1687 47.54C27.0807 47.7509 27.0228 47.973 26.9967 48.2C26.879 48.9394 26.952 49.6967 27.2087 50.4C27.2087 50.44 27.2087 50.48 27.2087 50.52C27.2047 51.168 27.4007 54.54 27.4007 56.08V56.084ZM36.8367 57.644C36.6087 57.564 35.8887 57.036 34.9167 56.48C33.9447 55.924 30.6727 53.172 29.6367 52.272C28.6007 51.372 27.7007 50.576 27.6367 49.02C27.5727 47.464 28.7647 46.876 30.0007 46.368C31.2367 45.86 35.3647 44.744 36.2047 44.488C37.0447 44.232 39.5767 44.52 41.4047 45.456C43.2327 46.392 44.7447 47.532 46.6047 47.548C45.7567 49.248 44.2687 49.28 42.1567 49.332C40.0447 49.384 35.9447 49.456 35.0287 49.408C34.1127 49.36 33.0887 49.408 33.2487 49.936C33.4087 50.464 35.0287 52.312 35.9287 53.42C36.712 54.4426 37.3326 55.58 37.7687 56.792C37.7687 57.048 37.0807 57.724 36.8367 57.644ZM38.6727 55.068L38.6127 55.56C38.2528 54.5387 37.73 53.5824 37.0647 52.728C36.4487 51.928 34.8567 50.116 34.6647 49.928C34.4727 49.74 34.7207 49.848 35.0127 49.832C35.1967 49.832 36.3647 49.868 37.8527 49.908C37.9335 50.2661 37.9685 50.6331 37.9567 51C37.9127 51.5 38.0487 51.636 38.3967 51.668L39.1967 51.716C38.9687 52.764 38.7887 54.272 38.6847 55.068H38.6727ZM38.2407 56.696C38.1287 56.732 38.0327 56.672 38.0327 56.296C38.0327 55.92 37.4967 54.844 36.9887 53.896C36.4807 52.948 35.7887 52.468 35.1647 51.7C34.5407 50.932 33.6007 49.86 33.7047 49.78C33.7913 49.7414 33.8859 49.7241 33.9806 49.7297C34.0753 49.7353 34.1672 49.7635 34.2487 49.812C34.5207 50.168 34.7527 50.528 35.0087 50.82C35.2647 51.112 36.4887 52.672 37.0607 53.476C37.5763 54.2416 37.9804 55.0766 38.2607 55.956C38.3647 56.4 38.3647 56.66 38.2527 56.696H38.2407ZM37.7287 59.656C37.5167 59.748 37.3287 59.46 37.3887 59.112C37.4247 58.8554 37.4877 58.6034 37.5767 58.36C37.6607 58.1 37.4567 58.008 37.4967 57.848C37.5367 57.688 38.0567 56.996 38.2087 57.048C38.2887 57.048 38.3407 57.136 38.3527 57.264C38.2447 57.756 38.0607 58.6 37.8727 59.444C37.8491 59.5255 37.8034 59.5989 37.7407 59.656H37.7287ZM38.3087 62.62C37.9647 64.056 37.2927 66.828 37.2087 67.06C37.1247 67.292 36.8287 67.156 36.9087 66.66C36.9887 66.164 37.9047 61.3 38.1727 60.144C38.4407 58.988 38.7327 57.816 38.9327 57.004C39.1628 55.8065 39.3072 54.5941 39.3647 53.376C39.4027 52.8201 39.5075 52.2709 39.6767 51.74L40.3327 51.776C40.3327 52.056 40.2607 52.576 40.1287 53.34C39.9247 54.6 38.6687 61.184 38.3207 62.62H38.3087ZM45.9807 51.82L46.7807 58.152C46.3447 58.184 44.8527 58.288 44.3167 58.272C43.6847 58.252 42.2687 57.964 41.3447 57.892C40.8507 57.8562 40.3547 57.8562 39.8607 57.892C40.3887 55.228 40.9127 52.548 41.0607 51.824C42.3567 51.888 43.7687 51.94 44.3727 51.912C44.7727 51.888 45.3647 51.868 45.9927 51.824L45.9807 51.82ZM45.6367 58.964C44.6247 58.964 42.8927 58.916 42.2487 58.852C41.7167 58.8 40.2047 58.756 39.7007 58.744C39.7287 58.612 39.7527 58.48 39.7807 58.344C40.3747 58.3013 40.9717 58.3241 41.5607 58.412C42.4876 58.5502 43.4235 58.6198 44.3607 58.62C45.0087 58.62 46.4247 58.62 46.8607 58.62C46.8607 58.716 46.8727 58.808 46.8967 58.896C46.4785 58.9442 46.0577 58.967 45.6367 58.964ZM47.6887 56.116C47.8527 57.58 47.8007 58.916 47.9447 59.884C48.0887 60.852 48.9687 67.332 48.9687 67.756C48.9687 68.18 48.5687 67.976 48.4927 67.464C48.4167 66.952 47.8727 63.492 47.7447 62.664C47.6167 61.836 47.6327 60.264 47.5047 59.464C47.3767 58.664 47.1967 56.464 47.1047 55.844C47.0127 55.224 46.7047 52.768 46.5327 51.8L46.9887 51.756C47.1647 53.104 47.5207 54.76 47.6727 56.116H47.6887ZM48.4487 50.732C48.0247 51.028 45.4327 51.132 43.7527 51.232C42.0727 51.332 38.7127 51.08 38.6007 50.972C38.5065 50.6294 38.4607 50.2753 38.4647 49.92C39.2087 49.92 40.0127 49.952 40.7967 49.956C43.2247 49.956 44.4407 49.908 45.4967 49.388C46.0958 49.6251 46.7558 49.6602 47.3767 49.488C47.8614 49.3364 48.321 49.114 48.7407 48.828C48.7567 49.516 48.7367 50.524 48.4367 50.732H48.4487ZM48.6847 48.216C48.3059 48.5824 47.8513 48.8611 47.3529 49.0325C46.8546 49.2039 46.3247 49.2638 45.8007 49.208C46.1134 49.011 46.3816 48.7509 46.5882 48.4444C46.7948 48.138 46.9353 47.7918 47.0007 47.428C47.3094 47.3303 47.5951 47.1711 47.8407 46.96C48.1692 47.3358 48.4475 47.7526 48.6687 48.2L48.6847 48.216ZM71.6727 41.7C70.9727 42.532 70.5367 42.664 68.3047 42.864C66.0727 43.064 61.8047 43.8 59.2727 44.032C56.7407 44.264 55.7967 44.556 48.3447 45.364C48.3447 45.244 48.3447 45.12 48.3727 44.964C48.3948 44.4929 48.3801 44.0208 48.3287 43.552C49.6327 43.416 53.6807 43.004 56.0127 42.812C58.8127 42.58 64.8127 41.832 66.8127 41.764C68.8127 41.696 69.8927 40.772 70.4887 39.612C71.0847 38.452 70.6527 33.692 70.4887 30.504C70.3247 27.316 69.0047 20.364 68.1487 19.504C67.2927 18.644 64.4847 18.94 60.3167 19.292C56.5767 19.608 46.3167 21.492 44.2527 21.876C44.1567 21.172 44.0647 20.64 44.0167 20.432C43.8967 19.92 43.8047 19.932 44.3687 19.8C44.9327 19.668 65.0327 17.616 67.3607 17.4C69.6887 17.184 70.3327 19.4 70.5007 20.344C70.6687 21.288 70.9487 21.752 71.1167 23.02C71.2847 24.288 71.2487 27.452 71.5487 29.42C71.8487 31.388 72.2487 36.352 72.3487 38.02C72.4487 39.688 72.3567 40.864 71.6567 41.7H71.6727Z" fill="#282828"/>
</svg>
