<svg width="80" height="80" viewBox="0 0 80 80" fill="none" xmlns="http://www.w3.org/2000/svg">
<path d="M54.9202 51.144C54.9202 50.128 55.0282 50.54 55.9442 48.648C56.4882 47.52 57.2722 46.544 57.8762 45.448C58.2562 44.772 58.8482 45.996 59.4402 46.556C59.8105 46.8759 60.2725 47.0705 60.7602 47.1119C61.1602 47.1719 61.2922 47.028 61.3402 46.644C61.4008 46.2577 61.4275 45.8669 61.4202 45.476C61.4202 45.264 61.4922 44.776 61.6882 44.86C62.3762 45.16 62.5202 44.7879 66.5922 44.7679C67.6122 44.7679 68.6322 44.668 69.6522 44.692C69.7568 44.6843 69.8614 44.7084 69.952 44.7613C70.0427 44.8141 70.1153 44.8931 70.1602 44.988C71.0082 46.472 71.8242 47.972 72.8042 49.388C73.16 49.8897 73.3527 50.4888 73.3562 51.104C73.3562 51.148 74.2002 76.7879 74.2002 76.832C74.2002 77.04 74.1762 77.1959 73.9162 77.1559C71.8162 76.84 65.8322 77.364 55.2082 77.084C54.9682 77.084 54.8602 76.9879 54.8402 76.72C54.7442 75.292 54.9202 51.2 54.9202 51.144ZM66.9202 54.532C66.9682 53.38 66.0162 54.5 63.9322 54.132C63.7882 54.0963 63.6363 54.1115 63.5022 54.1749C63.3681 54.2383 63.26 54.3461 63.1962 54.4799C62.2642 55.9879 60.8722 57.0479 59.8682 58.0799C59.7442 58.2079 59.6322 58.376 59.8122 58.544C60.0051 58.7523 60.1829 58.9742 60.3442 59.208C60.422 59.3344 60.5248 59.4435 60.6464 59.5287C60.768 59.6139 60.9057 59.6733 61.051 59.7033C61.1964 59.7332 61.3464 59.7332 61.4917 59.703C61.6371 59.6729 61.7747 59.6133 61.8962 59.528C62.0682 59.416 62.2482 59.3279 62.4202 59.2239C62.8962 58.9319 62.6082 59.536 62.7282 60.596C62.8122 61.296 62.7562 61.9959 62.7802 62.6919C62.7802 62.8159 62.7522 62.912 62.6042 62.896C62.5642 62.896 60.6642 62.896 60.6242 62.896C60.1642 62.944 59.9402 63.164 60.0042 63.552C60.1162 64.216 59.8882 64.888 60.0922 65.552C60.1562 65.76 60.2002 65.9 60.3922 65.952C60.6322 66.0575 60.8951 66.1002 61.1562 66.076C61.7322 65.956 62.3082 66.0959 62.8802 66.0239C63.4522 65.9519 63.9642 66.132 64.5082 66.1439C65.6722 66.176 66.8362 66.1439 68.0002 66.1439C68.3325 66.1288 68.6611 66.0668 68.9762 65.9599C69.7482 65.7279 69.2642 65.0079 69.3442 64.2999C69.3489 63.9677 69.3234 63.6356 69.2682 63.308C69.2715 63.2166 69.2391 63.1275 69.1779 63.0595C69.1167 62.9916 69.0314 62.9501 68.9402 62.944C68.3602 62.916 67.7962 62.756 67.2162 62.728C66.5202 62.692 66.4162 62.5879 66.5802 61.8919C66.7002 61.3599 66.5562 62.996 66.9162 54.532H66.9202Z" fill="#B1F1FF"/>
<path d="M53.164 31.528C52.968 31.568 52.828 31.412 52.704 31.252C52.156 30.556 51.652 29.82 51.056 29.164C50.854 28.9984 50.7217 28.7629 50.6854 28.5042C50.6491 28.2456 50.7114 27.9828 50.86 27.768C50.9135 27.6622 50.959 27.5526 50.996 27.44C51.0105 27.3787 51.0405 27.3222 51.083 27.2759C51.1256 27.2295 51.1794 27.1948 51.2391 27.1752C51.2989 27.1555 51.3628 27.1515 51.4246 27.1635C51.4863 27.1756 51.544 27.2033 51.592 27.244C52.0533 27.5354 52.4685 27.894 52.824 28.308C53.14 28.708 53.364 28.46 54.284 28.308C54.684 28.244 54.8 28.408 54.648 28.772C54.192 29.884 53.988 30.048 54.248 30.332C54.3167 30.4137 54.3671 30.5092 54.396 30.612C54.544 31.012 54.5 31.108 54.108 31.26C53.8102 31.4005 53.4913 31.4911 53.164 31.528Z" fill="#B1F1FF"/>
<path d="M39.456 11.268C38.748 11.072 38.256 10.812 38.128 11.436C38.0593 11.7304 37.9223 12.0045 37.728 12.236C37.536 12.508 37.276 12.416 37.216 12.14C37.156 11.864 37.068 11.52 37.008 11.208C36.948 10.896 36.832 11.116 35.684 10.98C35.424 10.948 35.348 10.704 35.532 10.504C35.7279 10.2494 35.971 10.0348 36.248 9.87201C36.3147 9.85093 36.3764 9.8165 36.4293 9.77084C36.4823 9.72517 36.5254 9.66921 36.5561 9.60636C36.5868 9.54351 36.6044 9.47508 36.6078 9.40523C36.6112 9.33537 36.6004 9.26556 36.576 9.20001C36.524 8.88615 36.524 8.56587 36.576 8.25201C36.612 7.85201 36.856 7.85201 37.072 8.09201C37.736 8.85201 37.392 8.83201 39.032 8.36801C39.432 8.25601 39.644 8.58401 39.376 8.85201C38.856 9.36401 38.976 9.85201 39.376 10.352C39.5023 10.5085 39.6185 10.6728 39.724 10.844C39.864 11.028 39.824 11.288 39.456 11.268ZM36.192 10.528C36.4309 10.5698 36.6758 10.563 36.912 10.508C36.9578 10.4854 37.0084 10.4739 37.0595 10.4746C37.1106 10.4753 37.1609 10.488 37.2061 10.5118C37.2514 10.5356 37.2904 10.5698 37.3199 10.6115C37.3494 10.6533 37.3686 10.7014 37.376 10.752L37.584 11.432C37.952 10.964 37.652 10.52 38.296 10.548C38.524 10.548 38.748 10.708 39.016 10.572C38.88 10.368 38.76 10.172 38.616 9.98001C38.472 9.78801 38.34 9.51201 38.616 9.26401C38.672 9.21201 38.744 9.12001 38.7 9.04401C38.656 8.96801 38.532 9.01601 38.452 9.04401C37.972 9.23201 37.504 9.35201 37.14 8.92001C36.828 8.55201 36.96 8.92001 36.968 8.97201C37.08 9.63601 36.672 10.092 36.192 10.528Z" fill="#B1F1FF"/>
<path d="M63.152 12.4C63.396 12.352 63.552 12.088 63.672 11.788C63.7958 11.5455 63.9461 11.3174 64.12 11.108C64.2 10.996 64.304 10.876 64.472 10.92C64.5476 10.9424 64.6148 10.9866 64.6654 11.0471C64.7159 11.1075 64.7474 11.1816 64.756 11.26C64.94 12 64.84 12.156 65.096 12.196C65.4624 12.2895 65.8198 12.4153 66.164 12.572C66.292 12.616 66.412 12.68 66.404 12.844C66.3983 12.9099 66.3721 12.9724 66.3291 13.0226C66.286 13.0728 66.2283 13.1083 66.164 13.124C65.9534 13.2066 65.7384 13.2774 65.52 13.336C65.28 13.396 65.224 13.532 65.3 13.736C65.3983 14.0665 65.4375 14.4118 65.416 14.756C65.416 14.888 65.416 15.028 65.256 15.076C64.992 15.156 64.964 14.98 64.372 14.496C64.22 14.372 64.136 14.396 64.02 14.524C63.768 14.804 63.336 15.188 63.032 14.968C62.896 14.868 62.912 14.7 62.956 14.54C63.0019 14.3207 63.0607 14.1043 63.132 13.892C63.276 13.548 63.036 13.492 62.436 12.94C62.296 12.812 62.132 12.68 62.224 12.46C62.364 12.156 62.944 12.456 63.152 12.4ZM64.324 11.76C63.924 12.228 63.712 12.764 63.024 12.876C63.556 13.236 63.872 13.62 63.56 14.248C64.052 13.88 64.052 13.876 64.66 14.132C64.924 14.24 64.844 13.996 64.78 13.732C64.644 13.168 64.692 13.084 65.24 12.932C65.304 12.932 65.384 12.932 65.464 12.8C64.828 12.756 64.244 12.636 64.324 11.772V11.76Z" fill="#B1F1FF"/>
<path d="M70.4399 8.26807C69.9639 8.10407 69.7239 8.44807 69.5359 8.95207C69.4519 9.16807 69.3479 9.50407 68.9959 9.40007C68.6439 9.29607 68.7319 8.97607 68.7079 8.73207C68.6599 8.24007 68.6759 8.24007 68.1759 8.35607C67.958 8.41248 67.736 8.45127 67.5119 8.47207C67.4406 8.48537 67.3671 8.47711 67.3006 8.44836C67.2341 8.4196 67.1777 8.37165 67.1386 8.31065C67.0995 8.24966 67.0795 8.17838 67.0811 8.10595C67.0828 8.03351 67.106 7.96322 67.1479 7.90407C67.3596 7.51829 67.6793 7.20271 68.0679 6.99607C68.2079 6.93207 68.1919 6.84407 68.1999 6.74407C68.2959 5.36007 68.2439 5.26807 68.4839 5.21207C68.5602 5.19116 68.6418 5.20128 68.7107 5.24025C68.7797 5.27921 68.8304 5.34385 68.8519 5.42007C69.0959 6.12407 69.5879 6.22007 70.2239 6.00007C70.4276 5.94117 70.6346 5.89442 70.8439 5.86007C70.901 5.83965 70.9633 5.83922 71.0207 5.85884C71.0781 5.87845 71.1272 5.91696 71.1599 5.96807C71.1932 6.02511 71.2062 6.09177 71.1968 6.15716C71.1873 6.22254 71.156 6.2828 71.1079 6.32807C70.9519 6.48807 70.7959 6.65607 70.6279 6.80407C70.593 6.82632 70.5633 6.85572 70.5407 6.89032C70.518 6.92491 70.503 6.96392 70.4966 7.00476C70.4902 7.0456 70.4925 7.08733 70.5034 7.12721C70.5143 7.16709 70.5335 7.20419 70.5599 7.23607C70.7039 7.45607 70.8359 7.67607 70.9599 7.89607C71.0001 7.94747 71.0258 8.00875 71.0343 8.07349C71.0427 8.13824 71.0336 8.20406 71.0079 8.26407C70.9439 8.43607 70.6239 8.33207 70.4399 8.26807ZM70.1199 7.42007C69.9439 7.09607 69.8559 6.78807 70.2279 6.50007C69.6719 6.58007 69.1159 6.78407 68.7039 6.06007C68.7039 6.90407 68.1799 7.35607 67.8039 7.88807C67.9399 7.96407 68.0439 7.88807 68.1559 7.85607C68.9159 7.72407 68.9079 7.75607 69.0919 8.33607C69.1679 8.57207 69.2839 8.42407 69.2999 8.33607C69.3025 8.24073 69.3271 8.14728 69.3718 8.063C69.4165 7.97871 69.48 7.90587 69.5574 7.85014C69.6348 7.79441 69.724 7.75729 69.8181 7.74167C69.9122 7.72604 70.0086 7.73234 70.0999 7.76007C70.2479 7.76407 70.3999 7.92007 70.1199 7.42007Z" fill="#B1F1FF"/>
<path d="M38.7999 21.356C38.839 21.1354 38.8925 20.9177 38.9599 20.704C39.0261 20.574 39.049 20.4263 39.0252 20.2824C39.0015 20.1384 38.9323 20.0059 38.8279 19.904C38.6915 19.7254 38.5685 19.5368 38.4599 19.34C38.2999 19.088 38.4599 18.896 38.7239 18.94C38.9879 18.984 39.1759 18.976 39.3919 19.028C39.6079 19.08 39.6639 18.984 39.7519 18.82C39.9199 18.496 40.1279 18.192 40.3159 17.876C40.4439 17.66 40.7679 17.64 40.7999 17.992C40.8134 18.3067 40.9166 18.611 41.0973 18.8689C41.2781 19.1269 41.5288 19.3278 41.8199 19.448C41.9965 19.5447 42.1604 19.663 42.3079 19.8C42.5479 19.988 42.4599 20.2 42.1959 20.284C41.9319 20.368 41.5039 20.364 41.3559 20.592C41.2079 20.82 41.3319 21.168 41.3079 21.464C41.2519 22.264 41.2039 22.372 40.6359 21.716C40.4799 21.536 40.3679 21.296 40.1799 21.18C39.9919 21.064 40.0439 21.288 39.1359 21.552C38.9199 21.644 38.7999 21.6 38.7999 21.356ZM39.0079 19.396C39.0599 19.864 39.6159 19.932 39.4079 20.596C39.3719 20.72 39.2039 20.904 39.3799 20.996C39.5559 21.088 39.6559 20.904 39.7799 20.82C39.8092 20.8022 39.8361 20.7807 39.8599 20.756C40.4119 20.248 40.3799 21.052 40.8679 21.284C40.88 21.0775 40.88 20.8705 40.8679 20.664C40.8239 20.3 40.9959 20.148 41.3319 20.092C41.4095 20.0944 41.4865 20.0779 41.5562 20.0437C41.626 20.0095 41.6863 19.9588 41.7319 19.896C41.4238 19.7887 41.1472 19.6064 40.9272 19.3655C40.7073 19.1245 40.5508 18.8326 40.4719 18.516C40.1679 19.2 39.7799 19.64 38.9879 19.396H39.0079Z" fill="#B1F1FF"/>
<path d="M52.0718 32.6842C52.0718 32.9762 51.9118 32.9122 51.2398 34.0282C51.1678 34.1482 51.1078 34.2962 50.9358 34.2802C50.5358 34.2362 50.4478 33.4802 50.1678 32.3162C50.1579 32.2306 50.1206 32.1505 50.0615 32.0878C50.0024 32.0251 49.9246 31.9831 49.8398 31.9682C49.4398 31.8482 49.0398 31.7162 48.6398 31.6042C48.3878 31.5322 48.3958 31.4242 48.5678 31.2642C49.4078 30.4642 49.0718 30.5202 50.0238 31.0202C50.5598 31.2962 52.0358 32.1002 52.0718 32.6842Z" fill="#B1F1FF"/>
<path d="M55.1081 32.3041C54.7441 32.3041 54.8001 32.0881 54.7601 32.0801C54.1761 31.9641 54.4001 31.7281 54.6241 31.4161C55.0001 30.9001 55.1241 31.6121 55.5521 31.7921C55.8041 31.9001 55.5401 32.3121 55.1081 32.3041Z" fill="#B1F1FF"/>
<path d="M25.1521 66.6441C25.1385 66.6962 25.1144 66.745 25.0814 66.7877C25.0484 66.8303 25.0072 66.8658 24.9601 66.8921C22.9601 68.4921 11.5201 77.3121 11.1801 77.5441C11.0441 77.6401 10.8721 77.8361 10.7241 77.6481C10.5761 77.4601 10.8041 77.3481 10.9241 77.2481C13.1321 75.4241 22.4521 68.2761 24.6561 66.5841C24.692 66.5453 24.7353 66.514 24.7833 66.492C24.8314 66.4701 24.8833 66.4578 24.9361 66.4561C25.0601 66.4641 25.1401 66.5121 25.1521 66.6441Z" fill="#282828"/>
<path d="M6.50384 76.544C6.47299 76.5473 6.44191 76.5404 6.41524 76.5246C6.38857 76.5087 6.36774 76.4847 6.35584 76.456C6.33549 76.4191 6.32762 76.3765 6.33338 76.3347C6.33915 76.2929 6.35825 76.2541 6.38784 76.224C6.51984 76.1 6.65184 75.984 6.78784 75.872C8.69984 74.376 17.9878 67.16 20.7038 65.052C20.8798 64.916 21.1038 64.652 21.3078 64.896C21.5118 65.14 21.1598 65.264 20.9998 65.388C18.7998 67.096 7.82784 75.6 6.95184 76.272C6.81887 76.3872 6.66741 76.4792 6.50384 76.544Z" fill="#282828"/>
<path d="M6.60799 72.4001C6.47199 72.4001 6.37999 72.3641 6.34799 72.2601C6.32854 72.197 6.33012 72.1294 6.35249 72.0673C6.37485 72.0053 6.4168 71.9522 6.47199 71.9161C6.79999 71.6561 7.12399 71.4001 7.45599 71.1481C16.28 64.4801 15.084 65.4001 15.392 65.1481C15.528 65.0321 15.692 64.8801 15.844 65.0761C15.996 65.2721 15.8 65.3721 15.672 65.4761C15.48 65.6321 15.272 65.7801 15.084 65.9321L7.02399 72.1321C6.88399 72.2401 6.73199 72.3321 6.60799 72.4001Z" fill="#282828"/>
<path d="M25.1601 71.2761C25.1601 71.4001 25.0441 71.4721 24.9561 71.5481C24.0841 72.3001 18.3881 77.0841 18.1561 77.2681C18.0281 77.3721 17.8561 77.4361 17.7561 77.3121C17.6561 77.1881 17.7841 77.0401 17.8801 76.9521C20.3401 74.7521 22.4841 73.0441 24.5961 71.2401C24.6512 71.1863 24.7172 71.1449 24.7896 71.1187C24.8621 71.0924 24.9393 71.082 25.0161 71.0881C25.1161 71.1001 25.1681 71.1521 25.1601 71.2761Z" fill="#282828"/>
<path d="M47.5562 24.1242C47.4442 24.0922 47.2762 24.0762 47.3082 23.9242C47.3402 23.7722 47.5162 23.8282 47.6362 23.8402C49.1482 23.9722 49.8762 24.3402 52.2202 23.5722C53.8863 23.0607 55.5222 22.4558 57.1202 21.7602C57.3002 21.6802 57.5802 21.5922 57.6442 21.7282C57.7082 21.8642 57.4562 22.0082 57.2962 22.0882C55.5591 22.8811 53.7613 23.5338 51.9202 24.0402C50.5055 24.4974 48.9874 24.5266 47.5562 24.1242Z" fill="#282828"/>
<path d="M47.6921 22.6322C47.6241 22.5922 47.5161 22.5922 47.5201 22.4842C47.5241 22.3762 47.6281 22.3282 47.7241 22.3282C48.5147 22.2652 49.2996 22.1436 50.0721 21.9642C54.9961 21.0602 55.8521 20.4362 56.6721 20.1682C56.7801 20.1322 56.9161 20.0362 56.9721 20.2002C57.0281 20.3642 56.8841 20.4082 56.7801 20.4602C56.1734 20.7581 55.5449 21.0095 54.9001 21.2122C52.4281 22.0002 48.1161 22.8562 47.6921 22.6322Z" fill="#282828"/>
<path d="M54.1239 5.1401C53.5039 5.1401 53.3839 4.9641 53.4919 4.3801C53.6239 3.6881 53.7399 2.9881 53.8559 2.2881C53.8879 2.0961 53.9679 1.9801 54.1799 2.0041C54.4046 2.01517 54.628 2.0446 54.8479 2.0921C54.9453 2.12188 55.0277 2.18772 55.0783 2.27618C55.1288 2.36463 55.1437 2.46904 55.1199 2.5681C54.9519 3.3081 54.7799 4.0441 54.5839 4.7761C54.5279 4.9921 54.3999 5.2001 54.1239 5.1401Z" fill="#282828"/>
<path d="M6.17608 68.8001C6.14039 68.8012 6.10525 68.791 6.07576 68.7709C6.04627 68.7507 6.02396 68.7217 6.01208 68.6881C5.99128 68.6384 5.98665 68.5835 5.99886 68.5311C6.01107 68.4786 6.03949 68.4314 6.08008 68.3961C6.32565 68.1397 6.59336 67.9054 6.88008 67.6961C7.88808 66.8681 8.98008 66.1521 9.94008 65.2681C10.1774 65.072 10.4273 64.8916 10.6881 64.7281C10.8161 64.6401 10.9601 64.5441 11.0881 64.7081C11.2161 64.8721 11.0641 64.9721 10.9641 65.0521C10.4041 65.5281 7.57208 67.8241 6.72008 68.5001C6.56613 68.6432 6.37929 68.7462 6.17608 68.8001Z" fill="#282828"/>
<path d="M50.3762 20.684C50.1762 20.64 49.8322 20.776 49.8242 20.48C49.8242 20.248 50.1562 20.304 50.3522 20.256C52.0202 19.856 53.7402 19.632 55.3002 18.86C55.6198 18.7311 55.9287 18.5773 56.2242 18.4C56.3282 18.324 56.4762 18.244 56.5722 18.4C56.6682 18.556 56.5162 18.648 56.4122 18.708C55.5806 19.2394 54.6784 19.6514 53.7322 19.932C52.8082 20.188 51.8722 20.388 50.9322 20.62C50.7514 20.6702 50.5638 20.6918 50.3762 20.684Z" fill="#282828"/>
<path d="M50.3999 26.2762C50.2799 26.2762 50.1759 26.2482 50.1679 26.1202C50.1599 25.9922 50.2719 25.9202 50.4039 25.9082C52.6655 25.7564 54.8702 25.1323 56.8759 24.0762C56.9799 24.0242 57.0879 24.0082 57.1559 24.1242C57.2239 24.2402 57.1199 24.3002 57.0519 24.3562C56.9681 24.4218 56.8784 24.4794 56.7839 24.5282C54.4479 25.8002 51.5239 26.3642 50.3999 26.2762Z" fill="#282828"/>
<path d="M11.2 60.324C11.1955 60.4605 11.151 60.5926 11.072 60.704C10.4658 61.7479 9.80628 62.7599 9.096 63.736C8.924 63.992 8.776 64.264 8.6 64.512C8.532 64.608 8.448 64.772 8.296 64.692C8.144 64.612 8.224 64.448 8.296 64.32C8.58977 63.7258 8.94505 63.1641 9.356 62.644C9.892 61.888 10.372 61.104 10.84 60.308C10.9 60.2 10.964 60.096 11.108 60.116C11.252 60.136 11.176 60.252 11.2 60.324Z" fill="#282828"/>
<path d="M17.7803 60.1921C17.7803 60.1521 17.7803 59.9961 17.9483 59.9761C18.1163 59.9561 18.1683 60.0881 18.1923 60.2241C18.2803 60.7321 18.3523 61.2441 18.4563 61.7521C18.6099 62.6718 18.8236 63.5805 19.0963 64.4721C19.1363 64.5921 19.2723 64.7561 19.0723 64.8401C18.8723 64.9241 18.7803 64.7321 18.7203 64.5841C18.507 63.9964 18.3333 63.3951 18.2003 62.7841C17.998 61.9314 17.8576 61.0651 17.7803 60.1921Z" fill="#282828"/>
<path d="M52.1203 18.9042C51.8603 18.9042 51.5643 18.9442 51.5563 18.6722C51.5483 18.4002 51.8323 18.4162 52.0363 18.4082C53.0923 18.3642 54.0643 17.9682 55.0763 17.7362C55.2683 17.6882 55.5443 17.4842 55.6483 17.7162C55.7523 17.9482 55.4283 18.0322 55.2483 18.1162C54.581 18.4185 53.876 18.6297 53.1523 18.7442C52.8003 18.8282 52.4323 18.8602 52.1203 18.9042Z" fill="#282828"/>
<path d="M14.96 64.3242C15.06 63.7322 15.156 63.1242 15.268 62.5242C15.38 61.9242 15.496 61.3242 15.628 60.7162C15.6767 60.5327 15.7437 60.3544 15.828 60.1842C15.872 60.0842 15.94 59.9762 16.06 60.0002C16.18 60.0242 16.18 60.1562 16.18 60.2602C16.188 60.3427 16.188 60.4257 16.18 60.5082C15.904 61.7802 15.624 63.0482 15.348 64.3202C15.348 64.3442 15.348 64.3682 15.348 64.3922C15.3 64.5162 15.3 64.7242 15.12 64.7002C14.94 64.6762 14.996 64.4682 14.96 64.3242Z" fill="#282828"/>
<path d="M51.676 27.4201C51.644 27.1401 51.968 27.2321 52.12 27.2121C53.536 27.0401 54.864 26.5161 56.232 26.1601C56.344 26.1321 56.472 26.0281 56.544 26.1601C56.616 26.2921 56.492 26.3961 56.372 26.4601C55.8239 26.7145 55.2499 26.9089 54.66 27.0401C54.216 27.2001 51.732 27.8881 51.676 27.4201Z" fill="#282828"/>
<path d="M11.4121 64.7242C11.2921 64.6882 11.3121 64.5882 11.3361 64.5202C11.4028 64.3178 11.483 64.12 11.5761 63.9282C12.1881 62.7282 12.6681 61.4522 13.3241 60.2722C13.4161 60.1002 13.5121 59.8162 13.7241 59.9362C13.9361 60.0562 13.7241 60.2762 13.6481 60.4282C13.0121 61.7442 12.3641 63.0522 11.7201 64.3602C11.6663 64.5157 11.5565 64.6455 11.4121 64.7242Z" fill="#282828"/>
<path d="M22.508 77.54C22.4638 77.5457 22.419 77.5376 22.3796 77.5169C22.3402 77.4961 22.3082 77.4637 22.288 77.424C22.2635 77.3817 22.2561 77.3317 22.2673 77.2842C22.2784 77.2366 22.3073 77.1951 22.348 77.168C22.888 76.676 22.908 76.668 24.708 75.236C24.7639 75.1914 24.8242 75.1526 24.888 75.12C25 75.068 25.132 75.032 25.208 75.152C25.284 75.272 25.236 75.396 25.116 75.492C24.584 75.92 22.964 77.228 22.68 77.444C22.6252 77.4804 22.5677 77.5125 22.508 77.54Z" fill="#282828"/>
<path d="M21.5403 59.8921C21.671 59.9537 21.7738 60.0622 21.8283 60.1961C22.4563 61.4401 23.0283 62.7121 23.5923 63.9881C23.6567 64.1536 23.7385 64.3118 23.8363 64.4601C23.8803 64.5201 23.9083 64.5961 23.8363 64.6481C23.8209 64.6572 23.8038 64.6631 23.7861 64.6654C23.7684 64.6677 23.7504 64.6664 23.7332 64.6615C23.716 64.6567 23.6999 64.6484 23.686 64.6371C23.6721 64.6259 23.6607 64.6119 23.6523 64.5961C23.5526 64.4483 23.4617 64.2947 23.3803 64.1361C22.7563 62.8521 22.1323 61.5601 21.5123 60.2721C21.4523 60.1441 21.3203 60.0001 21.5403 59.8921Z" fill="#282828"/>
<path d="M19.9322 59.896C20.0922 59.936 20.1162 60.076 20.1602 60.192C20.5962 61.296 21.6602 64.004 21.7602 64.26C21.8002 64.364 21.9042 64.508 21.7602 64.56C21.6162 64.612 21.5802 64.44 21.5322 64.336C21.3122 63.848 21.0762 63.368 20.8802 62.876C20.5282 61.996 20.1962 61.108 19.8562 60.224C19.7922 60.092 19.7042 59.952 19.9322 59.896Z" fill="#282828"/>
<path d="M54.8479 28.604C54.7119 28.576 54.5479 28.652 54.5199 28.492C54.4919 28.332 54.6479 28.296 54.7559 28.272C55.3879 28.112 56.0159 27.96 56.6519 27.824C56.7559 27.8 56.9399 27.732 56.9799 27.916C57.0199 28.1 56.8519 28.1 56.7439 28.14C56.129 28.3575 55.4938 28.5129 54.8479 28.604Z" fill="#282828"/>
<path d="M51.6439 14.444C51.6514 14.5126 51.6441 14.5821 51.6223 14.6476C51.6006 14.7131 51.5649 14.7732 51.5179 14.8237C51.4708 14.8742 51.4134 14.914 51.3495 14.9402C51.2857 14.9665 51.2169 14.9787 51.1479 14.976C51.0059 14.9556 50.875 14.8874 50.7769 14.7827C50.6788 14.678 50.6192 14.5431 50.6079 14.4C50.611 14.3319 50.6275 14.265 50.6566 14.2033C50.6857 14.1416 50.7267 14.0863 50.7773 14.0405C50.8279 13.9948 50.887 13.9595 50.9513 13.9368C51.0156 13.914 51.0838 13.9042 51.1519 13.908C51.2209 13.9058 51.2896 13.9185 51.3533 13.9453C51.417 13.9721 51.4741 14.0123 51.5208 14.0632C51.5675 14.1141 51.6027 14.1744 51.624 14.2402C51.6452 14.3059 51.652 14.3754 51.6439 14.444Z" fill="#282828"/>
<path d="M56.8001 17.256C56.2367 17.2166 55.6896 17.0497 55.2001 16.768C55.1041 16.708 55.0521 16.648 55.0881 16.544C55.1241 16.44 55.2201 16.428 55.3201 16.46C55.8758 16.6587 56.4454 16.8164 57.0241 16.932C57.1041 16.932 57.2481 16.976 57.1841 17.108C57.1201 17.24 56.9561 17.268 56.8001 17.256Z" fill="#282828"/>
<path d="M55.9481 15.7962C55.8761 15.7642 55.7721 15.7402 55.8001 15.6322C55.8073 15.6091 55.8191 15.5877 55.8348 15.5692C55.8505 15.5508 55.8697 15.5357 55.8914 15.5249C55.9131 15.514 55.9367 15.5077 55.9609 15.5062C55.985 15.5047 56.0093 15.5081 56.0321 15.5162C56.5396 15.6713 57.0656 15.7574 57.5961 15.7722C57.6197 15.7709 57.6433 15.7748 57.6653 15.7835C57.6873 15.7922 57.7071 15.8056 57.7235 15.8227C57.7398 15.8398 57.7522 15.8602 57.7599 15.8826C57.7676 15.9049 57.7704 15.9287 57.7681 15.9522C57.7681 16.0562 57.6841 16.0922 57.6001 16.1002C57.0318 16.1554 56.4595 16.0501 55.9481 15.7962Z" fill="#282828"/>
<path d="M54.8001 12.2721C54.5481 12.2481 54.3641 12.1361 54.3601 11.8721C54.3534 11.8191 54.3593 11.7653 54.3775 11.7151C54.3956 11.6649 54.4255 11.6197 54.4646 11.5834C54.5037 11.547 54.5509 11.5205 54.6023 11.506C54.6537 11.4915 54.7078 11.4895 54.7601 11.5001C54.9761 11.5001 55.2161 11.5761 55.1921 11.8561C55.1561 12.0481 55.1241 12.3001 54.8001 12.2721Z" fill="#282828"/>
<path d="M43.6401 49.552C43.4961 49.552 43.3841 49.508 43.3761 49.336C43.3681 49.164 43.7241 48.936 44.0161 48.936C44.0425 48.9306 44.0697 48.9317 44.0956 48.939C44.1215 48.9463 44.1452 48.9598 44.1648 48.9782C44.1844 48.9966 44.1993 49.0195 44.2082 49.0449C44.2172 49.0702 44.2199 49.0974 44.2161 49.124C44.2161 49.324 43.8921 49.556 43.6401 49.552Z" fill="#282828"/>
<path d="M59.7242 42.8002C59.8162 42.8002 59.9442 42.8002 59.9042 42.9402C59.8706 43.0552 59.8029 43.1573 59.71 43.233C59.6172 43.3087 59.5036 43.3544 59.3842 43.3642C59.3577 43.3706 59.3301 43.3713 59.3034 43.366C59.2767 43.3608 59.2514 43.3498 59.2293 43.3338C59.2073 43.3178 59.1889 43.2972 59.1756 43.2735C59.1623 43.2497 59.1543 43.2233 59.1522 43.1962C59.1322 43.0282 59.4962 42.7762 59.7242 42.8002Z" fill="#282828"/>
<path d="M59.684 44.0001C59.544 44.0001 59.396 44.0001 59.44 43.8641C59.4846 43.7609 59.5566 43.672 59.6484 43.6071C59.7401 43.5422 59.8479 43.5038 59.96 43.4961C60.044 43.4961 60.144 43.4961 60.128 43.6201C60.08 43.8921 59.844 43.9361 59.684 44.0001Z" fill="#282828"/>
<path d="M44.3602 50.0001C44.3344 50.0874 44.282 50.1644 44.2103 50.2203C44.1385 50.2763 44.0511 50.3084 43.9602 50.3121C43.8362 50.3121 43.7922 50.2401 43.8002 50.1281C43.8002 49.8921 44.0042 49.8641 44.2002 49.8321C44.2762 49.8281 44.3682 49.8561 44.3602 50.0001Z" fill="#282828"/>
<path d="M57.0639 37.1082C57.1199 36.4522 56.9919 35.6682 57.1199 34.8882C57.1479 34.7282 57.0479 34.7002 56.9279 34.7202C55.8919 34.8762 54.8319 34.9322 53.8839 35.4522C53.5759 35.6202 53.5839 35.9442 53.5839 36.2002C53.5325 36.9183 53.4242 37.6312 53.2599 38.3322C53.2103 38.7785 53.1369 39.2218 53.0399 39.6602C52.4599 41.8442 49.6519 43.7722 47.3759 45.7002C46.6599 46.3082 45.9039 46.8522 45.1359 47.3882C44.7759 47.6402 44.6359 47.6442 44.3359 47.3442C44.1243 47.1539 43.9302 46.9451 43.7559 46.7202C43.6799 46.6162 43.5839 46.4722 43.4759 46.4522C42.9439 46.3602 43.2279 46.0962 43.3759 45.9282C44.5039 44.6802 45.5439 43.3522 46.8999 42.3282C47.5641 41.828 48.1753 41.261 48.7239 40.6362C48.9666 40.3546 49.0938 39.9917 49.0799 39.6202C49.0952 38.3666 49.2088 37.1161 49.4199 35.8802C49.4446 35.7704 49.4449 35.6565 49.4207 35.5466C49.3965 35.4367 49.3484 35.3335 49.2799 35.2442C48.6279 34.3922 48.7079 33.3922 48.7359 32.4082C48.7359 32.1842 49.2559 31.8442 49.4679 31.8922C49.8679 31.9882 49.5359 32.6922 50.5199 34.4762C50.7319 34.8762 50.7479 34.8482 51.0399 34.5442C51.6519 33.9002 51.8399 32.8962 52.2959 33.6442C52.3944 33.848 52.5137 34.041 52.6519 34.2202C52.7088 34.2982 52.7897 34.3553 52.8822 34.3828C52.9747 34.4102 53.0737 34.4065 53.1639 34.3722C53.5399 34.1642 53.9639 34.1002 54.3119 33.7722C54.6599 33.4442 54.9039 33.2722 54.8799 32.8162C54.8799 32.6402 55.0999 32.6322 55.4839 32.3602C55.7159 32.1962 55.7399 32.0322 55.5839 31.7602C54.8479 30.4882 54.0999 30.0922 54.4559 29.5602C54.6119 29.3242 54.8199 29.3962 55.0319 29.4602C56.2719 29.8282 57.8319 29.3042 59.5999 29.6242C60.8439 29.8442 61.3479 29.9442 61.7439 31.0442C61.8005 31.1999 61.8342 31.3629 61.8439 31.5282C61.9479 35.1642 61.7479 34.0482 59.7799 40.3282C59.5159 41.1682 59.4119 41.2122 58.5239 41.1002C56.9799 40.8802 57.1039 40.9482 57.0639 37.1082Z" fill="#B1F1FF"/>
<path d="M53.5996 8.50002C53.8556 8.86802 54.8236 8.99202 54.2276 9.48402C53.6446 9.93268 53.0266 10.334 52.3796 10.684C52.0596 10.872 51.9796 10.632 51.7396 10.284C51.6556 10.74 51.6476 10.74 51.0516 10.552C51.1996 10.84 51.3236 11.1 51.4516 11.352C51.5796 11.604 51.5316 11.776 51.2436 11.896C50.7716 12.088 50.3116 12.296 49.8516 12.532C49.5676 12.668 49.4156 12.86 49.5716 13.208C49.6671 13.4247 49.7252 13.6559 49.7436 13.892C49.7825 14.0457 49.7824 14.2068 49.7433 14.3604C49.7041 14.5141 49.6273 14.6556 49.5196 14.772C49.1596 15.132 49.3076 15.572 49.8236 16.02C50.2236 16.384 50.7036 16.636 51.2836 16.356C51.5756 16.212 52.2716 17.06 52.6676 17.34C52.6887 17.3521 52.7069 17.3686 52.7212 17.3883C52.7354 17.408 52.7453 17.4305 52.7502 17.4543C52.7551 17.4781 52.755 17.5027 52.7497 17.5265C52.7444 17.5502 52.7341 17.5725 52.7196 17.592C52.6992 17.6417 52.66 17.6813 52.6106 17.7022C52.5612 17.7232 52.5055 17.7238 52.4556 17.704C52.1636 17.608 51.8676 17.528 51.5756 17.44C51.4116 18.336 50.9956 17.992 50.4156 18.156C50.2236 18.212 49.9756 18.208 49.8996 18.024C49.7836 17.744 49.6316 17.86 49.4556 17.9C49.1076 17.984 48.7876 17.784 48.4436 17.792C48.2672 17.7717 48.0939 17.73 47.9276 17.668C47.8315 17.6478 47.744 17.5986 47.6768 17.5271C47.6095 17.4556 47.5658 17.3651 47.5516 17.268C47.4916 17.04 47.4156 16.816 47.3476 16.588C47.3156 16.492 47.3116 16.352 47.1916 16.336C47.0716 16.32 47.0596 16.456 47.0116 16.532C46.6476 17.08 46.4236 17.108 45.9076 16.696C45.2596 16.176 44.4236 15.896 45.0156 15.404C45.3797 15.0454 45.6337 14.5902 45.7476 14.092C45.7596 14.0649 45.7658 14.0356 45.7658 14.006C45.7658 13.9764 45.7596 13.9471 45.7476 13.92C45.6876 13.844 45.6156 13.92 45.5636 13.948C45.0643 14.196 44.55 14.4124 44.0236 14.596C43.5636 14.804 43.3756 14.5 43.6236 14.288C45.9436 12.24 45.7276 10.424 47.8436 8.18802C48.4036 7.6168 49.1504 7.26611 49.9476 7.20002C51.5476 7.02002 53.1156 6.80002 54.6956 6.60802C55.2836 6.52802 55.0636 7.11602 54.8956 8.36802C54.8596 8.64002 54.6276 8.70802 54.4036 8.60002C54.1503 8.49192 53.8717 8.45727 53.5996 8.50002Z" fill="#B1F1FF"/>
<path d="M48.9916 61.1321C48.9916 61.2681 48.8596 61.3521 48.7596 61.4481C31.0196 78.3521 32.2596 77.1721 31.9996 77.3161C31.8276 77.4201 31.6556 77.2361 31.7596 77.0561C31.8636 76.8761 44.2036 65.1241 48.4956 61.0081C48.6996 60.8201 48.9956 60.8601 48.9916 61.1321Z" fill="#B1F1FF"/>
<path d="M29.9999 74.6201C29.8039 74.6201 29.7719 74.4881 29.8279 74.3721C29.9479 74.1321 44.6799 60.1721 47.2639 57.6201C47.4479 57.4441 47.6119 57.3321 47.7759 57.5161C47.9399 57.7001 47.8079 57.8441 47.6759 57.9481C47.3599 58.1961 30.7399 74.0521 29.9999 74.6201Z" fill="#B1F1FF"/>
<path d="M48.8957 66.532C48.8717 66.72 48.7317 66.82 48.6157 66.932C46.5317 68.996 38.6157 76.82 38.4237 76.988C38.2317 77.156 38.1037 77.304 37.9117 77.092C37.7197 76.88 37.9117 76.724 38.0597 76.584C39.2877 75.348 46.9077 67.888 48.4117 66.44C48.5117 66.344 48.6157 66.268 48.7597 66.34C48.798 66.3562 48.831 66.3828 48.855 66.4167C48.879 66.4506 48.8931 66.4905 48.8957 66.532Z" fill="#B1F1FF"/>
<path d="M42.1918 58.1041C42.1745 58.2223 42.1131 58.3295 42.0198 58.4041C40.8598 59.5121 30.9358 69.0361 30.2358 69.6961C30.1118 69.8081 29.9878 69.9601 29.8358 69.7761C29.6838 69.5921 29.8358 69.4921 29.9358 69.3761C42.6278 57.1921 41.7998 57.8281 42.0678 57.9041C42.1438 57.9401 42.1718 58.0201 42.1918 58.1041Z" fill="#B1F1FF"/>
<path d="M37.944 58.044C37.944 58.168 37.852 58.232 37.776 58.304L30.092 65.412C29.98 65.508 29.832 65.608 29.716 65.492C29.532 65.312 29.38 65.536 37.508 57.952C37.6 57.868 37.692 57.796 37.824 57.844C37.8631 57.8596 37.8961 57.8876 37.9178 57.9237C37.9395 57.9599 37.9487 58.0021 37.944 58.044Z" fill="#B1F1FF"/>
<path d="M44.1078 4.50815C43.9358 4.81215 43.7078 4.90815 43.4358 4.73215C42.6358 4.29215 43.3398 3.79215 43.3958 2.98415C43.3958 2.78015 43.6878 2.77615 43.8638 2.71615C44.4398 2.52415 44.4398 2.52815 44.7438 3.06015C44.8958 3.32815 45.0598 3.58815 45.2158 3.86015C45.3718 4.13215 45.4358 4.32415 45.7838 4.22415C45.9158 4.18815 46.3838 4.77615 46.4118 4.98415C46.4438 5.26415 46.3558 5.25215 44.5878 6.29615C44.2318 6.50415 44.1878 6.18815 43.9518 5.70415C43.9071 5.62134 43.893 5.52539 43.912 5.43321C43.931 5.34102 43.982 5.2585 44.0558 5.20015C44.3478 4.91615 44.3398 4.90415 44.1078 4.50815ZM44.7158 4.96415C44.6318 5.38815 44.1798 5.36415 44.4238 5.76415C44.5278 5.93615 44.6358 5.79215 44.7238 5.76415C45.0721 5.61319 45.4034 5.42546 45.7118 5.20415C45.8038 5.13215 46.0598 5.15215 45.9438 4.93615C45.8638 4.78815 45.8278 4.53615 45.5438 4.65215C45.5105 4.66578 45.4748 4.67266 45.4388 4.67238C45.4028 4.67211 45.3672 4.66468 45.3341 4.65054C45.3009 4.6364 45.271 4.61583 45.2459 4.59001C45.2208 4.5642 45.201 4.53365 45.1878 4.50015C44.9438 4.08015 44.6878 3.66815 44.4318 3.25615C44.3758 3.16415 44.3598 2.99215 44.1918 3.04815C44.0238 3.10415 43.8318 3.14015 43.7478 3.25615C43.6432 3.49805 43.5589 3.74825 43.4958 4.00415C43.4558 4.12015 43.3838 4.26815 43.5398 4.34815C43.7798 4.47215 43.8638 4.14815 43.9718 3.98415C44.0798 3.82015 44.1798 3.82415 44.2598 3.95215C44.4603 4.26549 44.6139 4.60642 44.7158 4.96415Z" fill="#B1F1FF"/>
<path d="M43.532 77.2202C43.32 77.2002 43.248 77.0762 43.368 76.8842C43.6 76.5082 43.396 76.7602 48.448 71.6842C48.584 71.5482 48.736 71.4202 48.908 71.5722C49.18 71.8082 49.124 71.7442 43.928 76.9602C43.82 77.0762 43.728 77.2002 43.532 77.2202Z" fill="#B1F1FF"/>
<path d="M49.6436 3.44812C49.6436 2.64812 49.5916 2.47212 50.5476 2.39212C50.8116 2.37212 50.8756 2.55612 50.8596 2.76412C50.8596 2.80412 50.8596 5.10812 50.8956 5.32412C50.9316 5.54012 50.8636 5.66412 50.4116 5.72412C50.0756 5.78012 49.9716 5.66412 49.9236 5.39612C49.7693 4.75701 49.6755 4.1048 49.6436 3.44812Z" fill="#B1F1FF"/>
<path d="M32.1559 57.5361C31.9559 57.4921 31.9279 57.4001 32.0319 57.2121C32.6239 56.1041 33.3399 55.0681 33.9839 53.9881C34.8999 52.4521 34.6959 52.6201 34.8839 52.3881C34.9639 52.2881 35.0559 52.1601 35.2079 52.2561C35.3599 52.3521 35.3039 52.4801 35.2439 52.6041C34.7119 53.6721 34.6839 53.7401 32.5559 57.1641C32.4559 57.3081 32.3999 57.5001 32.1559 57.5361Z" fill="#B1F1FF"/>
<path d="M29.7758 62.2482C29.6558 62.2482 29.5798 62.2482 29.5478 62.1682C29.4278 61.8562 30.3118 61.3682 32.5238 59.2362C32.9478 58.8362 33.8718 57.9402 33.9078 57.9122C34.0198 57.8202 34.1518 57.7682 34.2598 57.8842C34.3678 58.0002 34.2598 58.1042 34.1798 58.1922C32.9078 59.4602 33.3798 59.0402 30.2478 61.8922C30.1116 62.0365 29.952 62.1569 29.7758 62.2482Z" fill="#B1F1FF"/>
<path d="M35.368 57.3202C34.94 57.2282 35.112 57.1242 37.548 52.6362C37.632 52.4882 37.704 52.2682 37.948 52.3962C38.192 52.5242 38.052 52.6922 37.948 52.8562C35.468 57.3522 35.6 57.2002 35.368 57.3202Z" fill="#B1F1FF"/>
<path d="M43.7198 52.4C44.2451 53.2047 44.7104 54.047 45.1118 54.92C46.2198 57.148 46.2638 57.1 46.1358 57.208C45.9198 57.392 45.5918 56.752 45.4558 56.504C43.1238 52.156 43.5478 52.904 43.2198 52.472C43.0558 52.272 43.3838 51.928 43.7198 52.4Z" fill="#B1F1FF"/>
<path d="M41.1158 52.1362C41.3838 52.2042 41.2998 52.3682 41.9158 54.3322C42.2118 55.2682 42.4958 56.2082 42.7158 57.1602C42.7558 57.3242 42.8518 57.5162 42.6318 57.5842C42.4118 57.6522 42.3798 57.4562 42.3318 57.3042C41.8678 55.7042 41.3198 54.1282 40.9438 52.5042C40.9318 52.3442 40.9038 52.1882 41.1158 52.1362Z" fill="#B1F1FF"/>
<path d="M39.4116 52.3521C39.4436 52.1921 39.4356 51.9521 39.7036 52.0041C40.0636 52.0801 39.8116 52.3241 39.4596 54.8041C39.3676 55.4681 39.4156 56.0761 39.2916 56.8881C39.2916 57.0121 39.2556 57.1761 39.0716 57.1561C38.8876 57.1361 38.9436 56.9841 38.9436 56.8721C38.954 55.3539 39.1107 53.8402 39.4116 52.3521Z" fill="#B1F1FF"/>
<path d="M56.752 12.0001C56.592 12.3121 56.404 12.8801 56.152 12.5681C55.116 11.2881 55.076 11.3321 55.192 11.2001C55.308 11.0681 55.376 11.2401 55.46 11.2481C55.8543 11.3393 56.225 11.5124 56.548 11.7561C56.6006 11.7751 56.6471 11.8077 56.683 11.8505C56.7188 11.8934 56.7426 11.945 56.752 12.0001Z" fill="#B1F1FF"/>
<path d="M54.0602 11.136C54.0449 11.1042 54.0236 11.0758 53.9974 11.0522C53.9711 11.0287 53.9405 11.0106 53.9073 10.9989C53.874 10.9872 53.8388 10.9821 53.8036 10.984C53.7684 10.986 53.734 10.9948 53.7022 11.01C53.6704 11.0252 53.6419 11.0466 53.6184 11.0728C53.5949 11.0991 53.5767 11.1297 53.565 11.1629C53.5533 11.1962 53.5483 11.2314 53.5502 11.2666C53.5521 11.3018 53.5609 11.3362 53.5762 11.368C53.7322 11.696 53.8642 11.824 54.0162 11.768C54.1682 11.712 54.2322 11.424 54.0602 11.136Z" fill="#282828"/>
<path d="M51.94 12.6719C51.9266 12.6368 51.9059 12.6048 51.8794 12.578C51.853 12.5513 51.8212 12.5303 51.7862 12.5164C51.7512 12.5026 51.7137 12.4961 51.6761 12.4975C51.6385 12.4989 51.6015 12.5081 51.5676 12.5244C51.5337 12.5408 51.5036 12.5641 51.4792 12.5927C51.4547 12.6214 51.4365 12.6548 51.4256 12.6908C51.4148 12.7268 51.4115 12.7648 51.416 12.8021C51.4206 12.8395 51.4328 12.8755 51.452 12.9079C51.608 13.2359 51.744 13.3639 51.896 13.3079C52.048 13.2519 52.112 12.9639 51.94 12.6719Z" fill="#282828"/>
<path d="M42.36 51.6C42.3717 51.5687 42.3953 51.5433 42.4257 51.5295C42.4561 51.5156 42.4907 51.5143 42.522 51.526C42.5533 51.5377 42.5787 51.5613 42.5926 51.5917C42.6064 51.6221 42.6077 51.6567 42.596 51.688L42.532 51.86C42.876 51.86 43.368 51.88 43.756 51.88C43.38 51.54 43.016 51.204 42.648 50.876C42.0406 50.377 41.5365 49.7642 41.164 49.072C41.0661 48.9139 41.0186 48.7297 41.0279 48.5439C41.0371 48.3581 41.1028 48.1796 41.216 48.032C41.596 47.56 42.016 47.124 42.416 46.672C43.216 45.756 43.5 45.276 43.984 44.772C45.384 43.3 46.784 41.848 48.216 40.372C48.585 40.0021 48.7946 39.5025 48.8 38.98C48.832 38.072 48.948 37.164 49.044 36.256C49.075 36.1095 49.0701 35.9577 49.0297 35.8135C48.9893 35.6693 48.9146 35.5371 48.812 35.428C47.904 34.428 48.232 33.064 48.412 31.804C47.964 31.544 47.528 31.648 48.088 31.08C48.312 30.852 48.568 30.68 48.808 30.452C48.164 30 47.608 29.6 47.048 29.22C46.7876 29.055 46.5884 28.8092 46.4808 28.5203C46.3732 28.2314 46.3631 27.9152 46.452 27.62C46.636 26.752 46.852 25.896 47.064 25.032C47.0716 24.891 47.0595 24.7497 47.028 24.612C46.9928 24.4818 46.9807 24.3464 46.992 24.212C47.18 23.444 47.392 22.676 47.584 21.912C47.6598 21.6525 47.7889 21.4117 47.9632 21.2051C48.1375 20.9984 48.353 20.8305 48.596 20.712C49.316 20.312 50.036 19.888 50.74 19.452C50.9783 19.3461 51.172 19.1601 51.2874 18.9263C51.4029 18.6925 51.4328 18.4256 51.372 18.172C51.1195 18.1875 50.8683 18.2195 50.62 18.268C50.22 18.364 49.92 18.392 49.848 17.796C49.632 18.24 49.32 18.144 49.048 18.092C48.56 17.992 48.084 17.852 47.6 17.736C47.5469 17.7327 47.4951 17.7179 47.4482 17.6926C47.4014 17.6673 47.3606 17.6321 47.3286 17.5895C47.2967 17.5469 47.2744 17.4979 47.2632 17.4459C47.2521 17.3938 47.2523 17.34 47.264 17.288C47.277 17.0724 47.2372 16.8568 47.148 16.66C47.0588 16.8154 46.9543 16.9615 46.836 17.096C46.7906 17.1357 46.7367 17.1646 46.6785 17.1805C46.6204 17.1964 46.5593 17.199 46.5 17.188C45.916 16.852 45.332 16.512 44.78 16.124C44.316 15.804 44.328 15.676 44.66 15.236C44.928 14.888 45.18 14.532 45.46 14.168C43.896 14.736 43.892 14.76 43.46 14.812C43.4219 14.8154 43.3835 14.8104 43.3475 14.7973C43.3116 14.7841 43.2789 14.7632 43.252 14.736C43.2407 14.6988 43.2384 14.6594 43.2453 14.6212C43.2523 14.5829 43.2683 14.5468 43.292 14.516C44.492 13.124 45.144 11.404 45.984 9.80401C46.732 8.36401 47.944 7.55601 49.408 7.04001C49.98 6.84001 50.392 6.92001 53.66 6.74401C54.132 6.72001 54.604 6.66401 55.076 6.60001C55.36 6.56001 55.416 6.70401 55.372 6.92801C55.28 7.40401 55.168 7.87601 55.068 8.34801C55.028 8.53601 54.94 8.64001 54.724 8.62001C54.5141 8.60125 54.3025 8.6216 54.1 8.68001C54.244 8.74001 54.388 8.80401 54.536 8.85201C54.784 8.93201 54.796 9.07601 54.64 9.25201C54.484 9.42801 54.292 9.60401 54.076 9.82401C54.2587 10.0956 54.4766 10.3417 54.724 10.556C55.332 10.956 55.984 11.296 56.624 11.652C56.828 11.764 56.892 11.6 56.964 11.46C57.6147 10.2067 58.268 8.95601 58.924 7.70801C59.724 6.17601 60.348 5.64801 60.464 4.59201C60.496 4.29601 60.8 4.02801 60.976 3.74401C61.0177 3.66346 61.0474 3.5772 61.064 3.48801C61.0742 3.39139 61.1072 3.29858 61.1604 3.21726C61.2136 3.13594 61.2854 3.06845 61.3698 3.02037C61.4542 2.97229 61.5489 2.945 61.646 2.94077C61.743 2.93653 61.8397 2.95547 61.928 2.99601C62.0035 3.00805 62.0805 3.00805 62.156 2.99601C62.26 2.99601 62.444 2.96401 62.46 2.99601C62.628 3.39601 63.148 3.19601 63.316 3.50001C63.4111 3.64669 63.5239 3.78104 63.652 3.90001C63.784 4.04801 63.768 4.34401 63.776 4.58001C63.7588 4.69761 63.7074 4.80753 63.628 4.89601C63.2587 5.48717 62.7777 6.00073 62.212 6.40801C62.0579 6.51294 61.9394 6.66219 61.872 6.83601C61.44 7.97201 61.072 9.14401 60.592 10.256C59.064 13.72 58.784 13.68 56.808 18.684C56.7381 18.8779 56.7381 19.0901 56.808 19.284C57.084 19.936 57.396 20.576 57.7 21.22C57.8265 21.465 57.9022 21.7329 57.9229 22.0078C57.9435 22.2827 57.9085 22.5589 57.82 22.82C57.492 23.828 57.196 24.852 56.9 25.872C56.7785 26.2362 56.8029 26.6334 56.968 26.98C57.0247 27.1801 57.0463 27.3885 57.032 27.596C57.032 27.684 57.032 27.8 57.092 27.852C57.2769 28.0227 57.4009 28.2492 57.445 28.4969C57.489 28.7447 57.4508 29.0001 57.336 29.224C57.3289 29.2704 57.3289 29.3176 57.336 29.364C58.3324 29.342 59.3292 29.3848 60.32 29.492C60.6904 29.5227 61.0411 29.6719 61.3199 29.9176C61.5988 30.1633 61.791 30.4924 61.868 30.856C62.352 32.364 61.78 33.552 60.268 38.66C60.024 39.488 59.784 40.316 59.56 41.148C59.5201 41.3061 59.5313 41.4727 59.592 41.624C60.048 42.624 60.52 43.624 60.988 44.62C63.324 44.576 69.144 44.476 69.712 44.488C69.928 44.488 70.212 44.98 70.332 45.156C71.38 46.64 72.436 48.12 73.46 49.62C73.6283 49.8995 73.7283 50.2147 73.752 50.54C73.788 50.84 73.752 49.052 73.9 76.56C73.9 77.196 73.812 77.28 73.184 77.28C71.52 77.28 56.504 77.412 55.136 77.424C54.8168 77.4348 54.4972 77.4214 54.18 77.384C54.1163 77.3602 54.0597 77.3205 54.0156 77.2687C53.9715 77.2169 53.9414 77.1547 53.928 77.088C53.888 76.616 53.88 76.14 53.88 75.668C53.88 68.068 53.908 51.436 53.92 50.712C53.92 49.716 53.736 50.564 57.196 45.212C57.2803 45.0375 57.417 44.8937 57.5869 44.8005C57.7568 44.7073 57.9515 44.6694 58.144 44.692C58.2297 44.6883 58.3151 44.6803 58.4 44.668C58.0747 44.3402 57.7257 44.0367 57.356 43.76C57.22 43.668 56.956 43.76 56.736 43.792C53.804 44.3 50.336 44.376 46.036 48.392C45.608 48.792 45.236 49.224 44.804 49.632C44.7151 49.7088 44.6574 49.8156 44.6419 49.932C44.6264 50.0485 44.6542 50.1666 44.72 50.264C44.996 50.828 45.264 51.392 45.52 51.964C45.884 51.856 46.036 52.088 46.176 52.32C46.936 53.568 47.68 54.824 48.444 56.068C48.68 56.444 48.976 56.784 49.22 57.16C49.2932 57.2919 49.3291 57.4412 49.324 57.592C49.324 59.556 49.22 75.192 49.204 76.484C49.1922 76.601 49.2031 76.7191 49.236 76.832C49.404 77.232 49.308 77.384 48.876 77.38C48.104 77.38 32.58 77.544 29.904 77.588C29.28 77.588 29.28 77.588 29.28 76.988C29.28 70.948 29.28 58.124 29.28 57.748C29.2993 57.6021 29.3573 57.4639 29.448 57.348C30.608 55.636 31.764 53.924 32.948 52.232C33.0341 52.1495 33.1367 52.0861 33.2491 52.0461C33.3615 52.0061 33.4811 51.9904 33.6 52C36.148 51.94 37.892 51.968 38.772 51.9C38.2103 51.4646 37.6225 51.0638 37.012 50.7C34.116 49.188 30.98 48.396 27.7 48.98C26.7032 49.1183 25.7169 49.3241 24.748 49.596C22.064 50.46 20.172 52.288 18.748 54.672C17.8247 56.1956 17.1496 57.8563 16.748 59.592C16.748 59.64 16.748 59.684 16.72 59.768C17.328 59.768 21.412 59.724 22.86 59.7C23.0013 59.7065 23.1377 59.7537 23.2527 59.8361C23.3677 59.9184 23.4564 60.0323 23.508 60.164C24.188 61.388 24.88 62.608 25.508 63.864C25.6878 64.2857 25.7725 64.7419 25.756 65.2C25.756 68.752 25.756 76.924 25.732 77.456C25.732 77.68 25.64 77.856 25.364 77.828C24.1222 77.7632 22.8778 77.7632 21.636 77.828C19.676 77.86 7.78801 78.028 6.55201 78.04C6.02801 78.04 5.93601 77.936 5.93201 77.412C5.90401 73.312 5.88001 69.212 5.82001 65.116C5.80728 64.779 5.89952 64.4463 6.08401 64.164C6.88401 62.856 7.68401 61.552 8.48401 60.24C8.54088 60.1301 8.62788 60.0386 8.73484 59.9762C8.8418 59.9139 8.9643 59.8833 9.08801 59.888C11.372 59.86 16.172 59.784 16.248 59.784C16.548 58.86 16.792 57.96 17.128 57.092C18.0609 54.4724 19.7407 52.1835 21.96 50.508C23.2435 49.578 24.7373 48.9802 26.308 48.768C28.964 48.392 31.872 47.76 36.428 49.924C37.4262 50.4208 38.3576 51.0417 39.2 51.772C39.452 51.984 39.76 51.868 41.724 51.904C41.888 51.904 42.164 51.904 42.164 51.904C42.2394 51.8095 42.305 51.7077 42.36 51.6ZM54.436 50.4V76.916L73.356 76.788C73.356 76.592 73.208 52.412 73.204 50.452C73.204 50.352 73.18 50.256 73.172 50.168L54.436 50.4ZM29.828 58.044V77.156L48.676 76.868C48.72 70.432 48.768 64.068 48.812 57.616C48.448 57.636 48.084 57.668 47.716 57.676C27.728 58.088 31.268 57.912 29.828 58.044ZM6.22801 65C6.22801 66.692 6.30801 64.888 6.38801 77C6.38801 77.308 6.46801 77.4 6.78801 77.4C8.20401 77.364 24.984 77.22 25.164 77.22V64.704L6.22801 65ZM56.132 15.092C55.704 15.7 55.168 16.22 55.144 17.024C55.2748 16.9898 55.4089 16.9697 55.544 16.964C55.624 16.964 55.756 17.04 55.76 17.092C55.8155 17.6003 55.7609 18.1146 55.6 18.6H55.492V17.32L53.944 17.588C53.7439 17.5958 53.5459 17.6322 53.356 17.696C52.84 17.976 52.348 18.224 51.812 17.756C51.812 17.756 51.772 17.756 51.732 17.78C51.78 18.328 52.072 19.076 50.972 19.76C50.268 20.2 49.556 20.624 48.84 21.044C48.6382 21.1472 48.4595 21.2906 48.3151 21.4653C48.1707 21.64 48.0634 21.8424 48 22.06C47.804 22.776 47.6 23.492 47.392 24.208C47.332 24.424 47.472 24.468 47.632 24.52C48.296 24.732 48.968 24.92 49.632 25.172C49.968 25.296 50.096 25.172 50.212 24.892C50.412 24.4 50.636 23.916 50.864 23.436C50.992 23.16 51.344 22.996 51.084 23.596C50.508 24.9 50.156 25.336 50.416 25.996C50.564 26.356 50.332 27.196 50.24 27.78C50.2428 27.8634 50.259 27.9458 50.288 28.024C50.492 27.656 50.608 27.312 50.756 26.976C50.7673 26.9213 50.7928 26.8704 50.8299 26.8286C50.867 26.7867 50.9145 26.7554 50.9675 26.7376C51.0205 26.7197 51.0772 26.7161 51.1321 26.7271C51.1869 26.7381 51.2379 26.7632 51.28 26.8C51.6678 27.0711 52.0391 27.3649 52.392 27.68C52.5563 27.8892 52.7765 28.0476 53.0271 28.1368C53.2777 28.226 53.5485 28.2423 53.808 28.184C53.9736 28.1661 54.1409 28.1742 54.304 28.208C54.924 28.26 55.076 28.252 54.724 28.976C54.724 28.976 56.048 29.188 56.668 29.276C56.717 29.2825 56.7669 29.278 56.814 29.2628C56.861 29.2476 56.9041 29.222 56.94 29.188C57.0323 29.0238 57.0729 28.8355 57.0565 28.6478C57.0401 28.4601 56.9674 28.2817 56.848 28.136C56.7555 28.0612 56.6898 27.9583 56.6609 27.8428C56.632 27.7273 56.6416 27.6056 56.688 27.496C56.7131 27.4245 56.7236 27.3488 56.7188 27.2732C56.714 27.1976 56.694 27.1237 56.66 27.056C56.5739 26.8798 56.524 26.6882 56.513 26.4925C56.502 26.2967 56.5302 26.1007 56.596 25.916C56.86 24.912 57.128 23.916 57.436 22.92C57.5244 22.6591 57.5597 22.3831 57.5398 22.1083C57.5199 21.8335 57.4451 21.5655 57.32 21.32C56.984 20.604 56.684 19.868 56.384 19.136C56.3283 18.9637 56.2868 18.7871 56.26 18.608C56.412 18.532 56.548 18.508 56.58 18.436C56.916 17.684 57.236 16.92 57.568 16.168C57.5889 16.136 57.6022 16.0997 57.6067 16.0617C57.6113 16.0238 57.607 15.9853 57.5942 15.9493C57.5814 15.9133 57.5605 15.8807 57.5331 15.8541C57.5056 15.8275 57.4724 15.8076 57.436 15.796C57.012 15.6 56.592 15.352 56.132 15.092ZM72.984 49.704C72.476 48.976 71.876 47.944 70.488 46.036C70.212 45.636 70.032 45.104 69.664 44.916C69.296 44.728 68.74 44.916 68.264 44.916C60.384 45.036 61.692 45 61.164 45.04C61.216 45.356 61.284 45.632 61.308 45.912C61.344 46.42 61.056 46.608 60.62 46.344C60.1551 46.0817 59.7159 45.7764 59.308 45.432C59.1601 45.2737 58.9753 45.1543 58.7702 45.0845C58.565 45.0147 58.3458 44.9967 58.132 45.032C57.9698 45.0578 57.8207 45.1366 57.708 45.256C56.716 46.688 55.732 48.128 54.756 49.576C54.6904 49.678 54.6303 49.7835 54.576 49.892C60.8 49.808 66.768 49.764 72.984 49.704ZM44.22 52.228C43.5961 52.3524 42.9577 52.3874 42.324 52.332L41.924 53.74C41.896 53.84 41.924 53.956 41.9 54.056C41.876 54.156 41.832 54.34 41.752 54.372C41.672 54.404 41.508 54.328 41.424 54.252C40.804 53.716 40.2 53.172 39.588 52.628C39.4681 52.524 39.3282 52.4455 39.1769 52.3973C39.0256 52.3492 38.866 52.3324 38.708 52.348C37.576 52.376 34.248 52.372 33.716 52.4C33.6274 52.4066 33.5411 52.4309 33.4621 52.4714C33.3831 52.5119 33.313 52.5679 33.256 52.636C32.244 54.088 30.056 57.284 29.92 57.516L48.596 57.116L45.728 52.4C45.684 52.568 45.692 52.828 45.584 52.888C45.476 52.948 45.228 52.888 45.076 52.788C44.772 52.616 44.496 52.4 44.22 52.228ZM6.40001 64.46L25.124 64.172C24.7 63.252 23.992 62.172 23.372 60.852C23.2876 60.5825 23.1065 60.3537 22.8636 60.2097C22.6206 60.0657 22.333 60.0166 22.056 60.072C20.352 60.176 18.636 60.16 16.924 60.176C16.396 60.176 16.584 60.576 16.432 61.484C16.426 61.5283 16.403 61.5684 16.368 61.5961C16.3329 61.6237 16.2884 61.6366 16.244 61.632C16.2002 61.628 16.1594 61.6077 16.1298 61.5751C16.1002 61.5425 16.0838 61.5 16.084 61.456C16.084 61.28 16.116 60.952 16.164 60.256C15.672 60.256 11.04 60.308 9.21201 60.324C9.11921 60.3165 9.02631 60.3374 8.94561 60.3838C8.8649 60.4302 8.80019 60.5 8.76001 60.584C8.25601 61.448 6.70001 64 6.40001 64.46ZM58.7 34.108C58.456 34.204 58.204 34.272 57.964 34.372C57.9255 34.3902 57.8914 34.4164 57.8638 34.4488C57.8362 34.4812 57.8158 34.5191 57.804 34.56C57.664 35.36 57.644 35.508 57.404 39.34C57.378 39.6955 57.378 40.0525 57.404 40.408C57.404 40.556 57.532 40.808 57.636 40.808C58.0903 40.8938 58.5501 40.9472 59.012 40.968C59.0714 40.9553 59.1271 40.9293 59.1749 40.8918C59.2227 40.8544 59.2614 40.8066 59.288 40.752C59.308 40.708 61.168 34.64 61.388 33.896C61.892 32.216 61.936 29.896 60.188 29.8C59.892 29.8 59.596 29.728 59.304 29.736C57.7322 29.806 56.1587 29.6402 54.636 29.244L54.284 30.128C56.012 31.944 56.192 31.968 55.484 32.24C55.3895 32.2628 55.3065 32.3192 55.2505 32.3987C55.1946 32.4782 55.1695 32.5754 55.18 32.672C55.18 32.84 55 33.02 54.896 33.188C54.86 33.244 54.76 33.28 54.76 33.328C54.76 33.7 54.516 33.772 54.22 33.76C54.136 34.388 53.48 34.12 53.212 34.444C52.412 34.388 52.536 33.608 52.164 33.156C51.672 33.74 51.428 34.032 51.288 34.192C50.98 34.548 50.752 34.728 50.58 34.192C50.084 32.636 50.044 32.124 49.836 32.064C49.5 31.968 49.156 31.908 48.772 31.824C48.6844 32.443 48.6349 33.0669 48.624 33.692C48.688 35.236 49.568 35.848 51.124 35.76C51.968 35.712 52.512 35.496 58.16 33.94C59.26 33.636 59.148 33.924 58.7 34.108ZM55.072 6.90801C54.708 6.90801 50.828 7.16801 50.216 7.21201C49.9213 7.23372 49.6308 7.29424 49.352 7.39201C48.5904 7.64719 47.8917 8.0612 47.3021 8.60665C46.7126 9.1521 46.2455 9.81654 45.932 10.556C45.416 11.684 44.756 12.748 44.148 13.832C43.9821 14.0793 43.799 14.3145 43.6 14.536C44.2597 14.3846 44.8861 14.1134 45.448 13.736C45.4912 13.7086 45.5421 13.6959 45.5931 13.6999C45.6441 13.7039 45.6924 13.7243 45.7308 13.7582C45.7691 13.792 45.7955 13.8374 45.8058 13.8875C45.8161 13.9377 45.8099 13.9898 45.788 14.036C45.5 14.596 45.084 15.092 44.768 15.676L46.628 16.896L47.028 16.188C47.248 15.788 47.4 15.844 47.428 16.092C47.484 16.44 47.512 16.796 47.58 17.144C47.595 17.205 47.6228 17.2622 47.6614 17.3118C47.7 17.3615 47.7486 17.4024 47.804 17.432C48.24 17.572 48.692 17.668 49.132 17.808C49.408 17.896 49.584 17.884 49.64 17.552C49.64 17.508 49.784 17.272 49.932 17.508C50.3 18.1 50.232 18.072 51.392 17.832C51.392 17.644 51.392 17.696 51.392 17.488C51.3942 17.4497 51.4055 17.4125 51.425 17.3794C51.4445 17.3464 51.4717 17.3185 51.5042 17.2981C51.5367 17.2778 51.5737 17.2655 51.6119 17.2623C51.6501 17.2592 51.6886 17.2652 51.724 17.28C51.8394 17.3265 51.9442 17.3959 52.032 17.484C52.1293 17.5914 52.2651 17.6558 52.4098 17.6633C52.5544 17.6708 52.6962 17.6207 52.804 17.524C52.4247 17.0427 51.9595 16.6358 51.432 16.324C51.388 16.3 51.3 16.324 51.236 16.352C50.8808 16.4599 50.498 16.4295 50.1642 16.2671C49.8304 16.1047 49.5703 15.8221 49.436 15.476C49.39 15.3942 49.364 15.3027 49.36 15.2089C49.3561 15.1151 49.3744 15.0217 49.4134 14.9363C49.4524 14.851 49.511 14.776 49.5844 14.7176C49.6578 14.6591 49.744 14.6188 49.836 14.6L49.2 12.144C49.016 11.472 49.112 11.652 49.7 12.472L51.44 11.6C50.948 10.824 50.736 10.508 50.64 10.344C50.476 10.044 50.576 9.76001 50.928 10.036C51.124 10.192 51.296 10.38 51.476 10.552C51.4307 10.2415 51.3557 9.93615 51.252 9.64001C51.18 9.40401 51.376 9.29201 51.616 9.66001C51.72 9.81601 51.88 10.084 52.164 10.556C53.0044 10.2321 53.7695 9.73928 54.412 9.10801C53.04 8.49201 53.04 8.49201 53.1 8.18801L54.7 8.38401L55.072 6.90801ZM44.436 49.54C45.9987 47.6952 47.9287 46.1965 50.103 45.1393C52.2773 44.0821 54.648 43.4898 57.064 43.4C56.912 43.168 56.812 43.036 56.732 42.896C56.564 42.592 56.332 42.272 56.564 41.932C56.9346 41.3188 57.1091 40.6071 57.064 39.892C57.064 38.472 57.232 37.052 57.336 35.632C57.364 35.272 57.424 34.916 57.476 34.528C57.148 34.576 57.76 34.42 54.304 35.388C52.964 35.788 54.204 35.484 52.916 40.412C52.8178 40.8554 52.581 41.2561 52.24 41.556C47.736 45.392 49.736 43.732 45.04 47.508C44.868 47.648 44.592 47.764 44.552 47.936C44.458 48.4652 44.4192 49.0028 44.436 49.54ZM49.428 35.876C49.344 36.976 49.236 38.012 49.2 39.076C49.1944 39.3659 49.131 39.6518 49.0136 39.9169C48.8961 40.1821 48.727 40.4211 48.516 40.62C43.424 45.74 44.892 44.248 43.192 46.148L44.592 47.416C44.808 47.26 44.992 47.136 45.192 46.988C47.268 45.268 49.348 43.556 51.408 41.816C51.864 41.416 52.376 41.06 52.532 40.424C52.712 39.692 52.932 38.96 53.04 38.216C53.176 37.416 53.228 36.576 53.32 35.708C52.848 35.804 52.436 35.864 52.04 35.972C51.1851 36.2481 50.2603 36.2141 49.428 35.876ZM51.28 10.868C51.3808 11.0436 51.4917 11.2132 51.612 11.376C51.78 11.596 51.724 11.732 51.496 11.852C51.004 12.112 50.52 12.384 50.028 12.652C49.884 12.728 49.776 12.788 49.812 12.996C49.924 13.596 50.016 14.196 50.116 14.832C50.1202 14.8545 50.1193 14.8777 50.1134 14.8998C50.1074 14.9219 50.0965 14.9424 50.0815 14.9597C50.0665 14.977 50.0478 14.9907 50.0267 14.9998C50.0057 15.0088 49.9829 15.013 49.96 15.012C49.464 15.012 49.728 15.56 50.108 15.876C50.2619 15.9981 50.4434 16.0806 50.6366 16.1161C50.8298 16.1517 51.0287 16.1393 51.216 16.08C51.2824 16.0601 51.3522 16.054 51.421 16.0623C51.4898 16.0706 51.5562 16.0929 51.616 16.128C52.608 16.928 52.956 17.392 53.176 17.368C53.756 17.3 54.336 17.204 54.9 17.124C55.036 15.488 55.792 15.328 56.172 14.368C56.628 13.216 55.672 12.3 53.9 9.99201C53.436 10.228 52.992 10.452 52.556 10.68C52.284 10.82 52.02 10.98 51.804 10.592L51.976 11.104C52.06 11.348 51.976 11.384 51.772 11.196C51.392 10.844 51.024 10.464 51.28 10.868ZM62.08 4.40401C62.115 4.406 62.1496 4.39584 62.1779 4.37525C62.2063 4.35466 62.2266 4.32492 62.2356 4.29104C62.2445 4.25716 62.2415 4.22124 62.227 4.18935C62.2125 4.15745 62.1874 4.13155 62.156 4.11601C61.708 3.86001 61.016 3.82801 60.892 4.22801C60.768 4.62801 60.668 5.00001 60.556 5.38401C60.5336 5.52202 60.4933 5.65649 60.436 5.78401C59.836 6.85601 57.236 11.512 56.572 12.772C56.4996 12.8743 56.4669 12.9994 56.48 13.124C56.5825 13.4028 56.6251 13.7 56.6051 13.9964C56.5851 14.2927 56.503 14.5815 56.364 14.844L57.82 15.584C58.348 14.444 58.804 13.34 59.368 12.16C60.2545 10.4349 60.975 8.62944 61.52 6.76801C61.584 6.52801 61.844 6.32801 62.04 6.13601C62.1875 6.01805 62.3425 5.90982 62.504 5.81201C62.544 5.78001 62.552 5.70001 62.576 5.64001C62.5153 5.60496 62.449 5.58061 62.38 5.56801C61.768 5.53201 61.324 5.25201 61.516 4.68801C61.5286 4.59912 61.5286 4.5089 61.516 4.42001L62.08 4.40401ZM54.424 31.232C53.164 31.632 53.012 31.76 52.604 31.232C51.6323 29.8307 50.4887 28.5568 49.2 27.44C49.0958 27.3738 49.0197 27.2714 48.9865 27.1525C48.9533 27.0336 48.9652 26.9066 49.02 26.796C49.164 26.396 49.316 25.996 49.464 25.572L47.436 24.82C47.22 25.748 47 26.644 46.804 27.544C46.7138 27.8301 46.726 28.1385 46.8384 28.4166C46.9508 28.6947 47.1564 28.925 47.42 29.068C47.796 29.296 48.144 29.56 48.516 29.796C50.916 31.328 52.116 31.884 52.516 33.232C52.5962 33.4663 52.7007 33.6916 52.828 33.904C52.9035 34.0048 52.9923 34.095 53.092 34.172L53.176 34.112L53.016 33.668C53.0077 33.6452 53.0077 33.6202 53.0159 33.5974C53.0241 33.5746 53.04 33.5553 53.0609 33.543C53.0817 33.5306 53.1063 33.526 53.1302 33.5298C53.1542 33.5337 53.176 33.5458 53.192 33.564C53.472 33.892 54.1 34.196 53.832 33.664C53.432 32.864 53.368 32.828 54.164 33.432C54.48 33.668 54.436 33.372 54.3 33.032C54.236 32.884 53.948 32.744 54.068 32.608C54.188 32.472 54.352 32.756 54.5 32.812C54.972 32.984 54.82 32.54 54.78 32.5C54.304 31.98 54.096 31.956 54.104 31.78C54.112 31.604 54.192 31.644 54.504 31.38C54.764 31.248 54.672 31.156 54.424 31.232ZM43 46.464C41.208 48.464 41.116 48.388 41.676 49.264C41.7288 49.3433 41.7863 49.4195 41.848 49.492C42.7496 50.5172 43.7625 51.4389 44.868 52.24C45.268 52.564 45.508 52.616 45.24 52.092C44.508 50.68 43.72 49.292 44.32 47.62L43 46.464ZM60.82 46.064L60.96 45.968C60.732 44.948 61.156 45.9 59.268 41.568C59.2496 41.5289 59.2229 41.4944 59.1897 41.4668C59.1566 41.4391 59.1177 41.4191 59.076 41.408C58.48 41.344 57.876 41.296 57.288 41.248C57.2206 41.4172 57.1418 41.5816 57.052 41.74C56.9839 41.8201 56.9323 41.9128 56.9001 42.0129C56.8679 42.1129 56.8557 42.2183 56.8643 42.3231C56.8728 42.4278 56.9019 42.5299 56.9499 42.6234C56.9979 42.7169 57.0639 42.8 57.144 42.868C59.768 45.448 59.22 44.864 60.82 46.048V46.064ZM51.092 27C50.9 27.468 50.744 27.8 50.608 28.2C50.54 28.388 50.872 28.6 52.82 31.092C52.8752 31.1825 52.9595 31.2515 53.059 31.2878C53.1586 31.3242 53.2675 31.3256 53.368 31.292C53.7694 31.1417 54.1868 31.0383 54.612 30.984C54.5616 30.9124 54.4977 30.8513 54.424 30.804C54.044 30.616 53.932 30.376 53.976 30.1C54.0364 29.9009 54.1126 29.7069 54.204 29.52L54.604 28.572C54.1939 28.5415 53.7821 28.5415 53.372 28.572C53.2469 28.5996 53.1169 28.5945 52.9943 28.5574C52.8718 28.5203 52.7608 28.4523 52.672 28.36C52.168 27.916 51.66 27.492 51.092 27ZM50.884 34.148C51.284 33.708 51.624 33.348 51.948 32.948C51.9718 32.898 51.9842 32.8434 51.9842 32.788C51.9842 32.7327 51.9718 32.678 51.948 32.628C51.924 32.572 52.14 32.744 49.244 30.592L48.372 31.36C48.856 31.488 49.296 31.636 49.744 31.708C49.9031 31.7161 50.0544 31.7798 50.1714 31.888C50.2883 31.9961 50.3636 32.142 50.384 32.3C50.524 32.9 50.704 33.496 50.884 34.148ZM39.836 52.352C39.836 52.376 41.036 53.28 41.556 53.712L41.912 52.364L39.836 52.352ZM49.836 25.58C49.636 26.096 49.436 26.54 49.296 26.988C49.2914 27.0268 49.2958 27.0662 49.309 27.103C49.3222 27.1398 49.3438 27.173 49.372 27.2C49.544 27.356 49.728 27.496 49.92 27.648C50.132 26.676 50.12 26.06 49.856 25.6L49.836 25.58ZM63.52 4.09601C63.06 4.26801 62.664 4.99201 62.796 5.38401C63.027 5.26078 63.2179 5.07402 63.3462 4.8458C63.4745 4.61757 63.5348 4.3574 63.52 4.09601ZM56.624 12L55.376 11.352L56.3 12.632L56.624 12ZM54.92 31.284L54.52 31.768L54.92 32.136L55.44 31.884L54.92 31.284ZM62.84 4.42001C62.936 4.20001 63.032 4.02001 63.096 3.82001C63.0984 3.77799 63.0905 3.73601 63.0731 3.69769C63.0557 3.65937 63.0292 3.62585 62.996 3.60001C62.9593 3.59487 62.9219 3.59873 62.8871 3.61128C62.8523 3.62382 62.821 3.64467 62.796 3.67201C62.732 3.90401 62.588 4.15201 62.84 4.42001ZM62.64 4.68801C62.212 4.62801 62.1 4.78401 62.2 5.26401C62.648 5.28401 62.48 4.88001 62.64 4.68801ZM61.804 3.69601C61.8391 3.62641 61.8646 3.55241 61.88 3.47601C61.984 3.10801 61.404 3.07601 61.316 3.39201C61.2859 3.48311 61.2644 3.57686 61.252 3.67201C61.4347 3.62844 61.6258 3.63676 61.804 3.69601ZM62.56 3.89601L62.328 3.30001C62.264 3.34801 62.152 3.39201 62.144 3.45201C62.108 3.67201 62.148 3.87601 62.56 3.89601Z" fill="#282828"/>
<path d="M36.6081 53.7521C36.6493 53.7474 36.691 53.7474 36.7322 53.7521C37.3922 54.0721 38.0561 54.3921 38.7081 54.7241C38.7378 54.7492 38.7603 54.7816 38.7737 54.818C38.787 54.8545 38.7906 54.8938 38.7841 54.9321C38.7606 54.9631 38.7304 54.9885 38.6958 55.0065C38.6612 55.0245 38.6231 55.0346 38.5841 55.0361C38.4895 55.0388 38.3957 55.0167 38.3121 54.9721C37.7241 54.6601 37.1442 54.3441 36.5642 54.0201C36.5082 53.9881 36.4881 53.8961 36.4521 53.8321L36.6081 53.7521Z" fill="#282828"/>
<path d="M44.092 53.724C43.728 54.08 43.364 54.432 42.984 54.772C42.764 54.968 42.584 54.7 42.728 54.524C43.02 54.212 43.324 53.912 43.644 53.632C43.964 53.352 44.356 53.464 44.092 53.724Z" fill="#282828"/>
<path d="M19.676 60.9441C19.7047 60.9397 19.734 60.9451 19.7592 60.9596C19.7843 60.974 19.8038 60.9965 19.8145 61.0234C19.8252 61.0504 19.8264 61.0802 19.818 61.1079C19.8095 61.1357 19.7919 61.1597 19.768 61.1761C19.284 61.5201 18.804 61.8641 18.304 62.1841C17.976 62.3921 17.744 62.0961 18.064 61.8321C18.8 61.2281 19.148 61.0281 19.676 60.9441Z" fill="#282828"/>
<path d="M13.7322 61.2001C13.9791 61.4301 14.1848 61.7006 14.3402 62.0001C14.4642 62.2601 14.2922 62.5081 14.0122 62.2081C13.7507 61.9329 13.505 61.6431 13.2762 61.3401C13.2442 61.3081 13.1762 60.7081 13.7322 61.2001Z" fill="#282828"/>
<path d="M52.692 14.5401C52.596 14.2641 52.8 14.0521 53.092 14.0521C53.5729 14.0541 54.0536 14.0301 54.532 13.9801C54.892 13.9441 55.056 14.0281 54.996 14.3801C54.86 15.1801 54.636 15.4041 54.408 15.5121C53.776 15.8161 52.876 15.0881 52.692 14.5401ZM54.756 14.2441L52.96 14.4001C53.0341 14.6456 53.1772 14.8647 53.3722 15.0313C53.5672 15.1979 53.8059 15.3051 54.06 15.3401C54.62 15.3321 54.84 14.6361 54.756 14.2441Z" fill="#282828"/>
<path d="M54.2639 13.4399L54.4959 13.0399C54.5075 13.0228 54.5137 13.0025 54.5138 12.9817C54.5138 12.9609 54.5076 12.9406 54.496 12.9234C54.4843 12.9062 54.4678 12.8929 54.4486 12.8851C54.4293 12.8774 54.4082 12.8756 54.3879 12.8799L54.0399 12.9359C53.5079 13.0239 53.6399 12.7839 53.9439 12.6839C54.1223 12.621 54.3076 12.5794 54.4959 12.5599C54.5503 12.5559 54.605 12.563 54.6566 12.5809C54.7082 12.5988 54.7556 12.6271 54.7959 12.6639C54.8197 12.7068 54.8322 12.7549 54.8322 12.8039C54.8322 12.8529 54.8197 12.9011 54.7959 12.9439C54.6759 13.1399 54.5399 13.3239 54.3959 13.5079C54.2519 13.6919 54.1519 13.6239 54.2639 13.4399Z" fill="#282828"/>
<path d="M50.8001 15.8L50.4001 15.768L50.1001 15.368C50.1744 15.3384 50.2545 15.3265 50.3342 15.3335C50.4139 15.3404 50.4908 15.3658 50.5588 15.4078C50.6269 15.4498 50.6842 15.5072 50.726 15.5753C50.7679 15.6434 50.7933 15.7204 50.8001 15.8Z" fill="#282828"/>
</svg>
