<svg width="72" height="72" viewBox="0 0 72 72" fill="none" xmlns="http://www.w3.org/2000/svg">
<path d="M4.5 40.5L29.601 15.399C30.1231 14.8759 30.82 14.5639 31.558 14.5229C32.296 14.482 33.0232 14.7149 33.6 15.177L44.337 23.766C44.9276 24.2363 45.6738 24.4666 46.4267 24.411C47.1796 24.3554 47.8839 24.0179 48.399 23.466L69 1.5" stroke="#00303E" stroke-linecap="round" stroke-linejoin="round"/>
<path d="M48 1.5H69V21" stroke="#00303E" stroke-linecap="round" stroke-linejoin="round"/>
<path d="M33 63C33 62.6022 32.842 62.2206 32.5607 61.9393C32.2794 61.658 31.8978 61.5 31.5 61.5H7.5C7.10218 61.5 6.72064 61.658 6.43934 61.9393C6.15804 62.2206 6 62.6022 6 63V69C6 69.3978 6.15804 69.7794 6.43934 70.0607C6.72064 70.342 7.10218 70.5 7.5 70.5H31.5C31.8978 70.5 32.2794 70.342 32.5607 70.0607C32.842 69.7794 33 69.3978 33 69V63Z" fill="#9FEAFF"/>
<path d="M30 54C30 53.6022 29.842 53.2206 29.5607 52.9393C29.2794 52.658 28.8978 52.5 28.5 52.5H4.5C4.10218 52.5 3.72064 52.658 3.43934 52.9393C3.15804 53.2206 3 53.6022 3 54V60C3 60.3978 3.15804 60.7794 3.43934 61.0607C3.72064 61.342 4.10218 61.5 4.5 61.5H28.5C28.8978 61.5 29.2794 61.342 29.5607 61.0607C29.842 60.7794 30 60.3978 30 60V54Z" fill="#9FEAFF"/>
<path d="M66 63C66 62.6022 65.842 62.2206 65.5607 61.9393C65.2794 61.658 64.8978 61.5 64.5 61.5H40.5C40.1022 61.5 39.7206 61.658 39.4393 61.9393C39.158 62.2206 39 62.6022 39 63V69C39 69.3978 39.158 69.7794 39.4393 70.0607C39.7206 70.342 40.1022 70.5 40.5 70.5H64.5C64.8978 70.5 65.2794 70.342 65.5607 70.0607C65.842 69.7794 66 69.3978 66 69V63Z" fill="#9FEAFF"/>
<path d="M69 36C69 35.6022 68.842 35.2206 68.5607 34.9393C68.2794 34.658 67.8978 34.5 67.5 34.5H43.5C43.1022 34.5 42.7206 34.658 42.4393 34.9393C42.158 35.2206 42 35.6022 42 36V42C42 42.3978 42.158 42.7794 42.4393 43.0607C42.7206 43.342 43.1022 43.5 43.5 43.5H67.5C67.8978 43.5 68.2794 43.342 68.5607 43.0607C68.842 42.7794 69 42.3978 69 42V36Z" fill="#9FEAFF"/>
<path d="M66 45C66 44.6022 65.842 44.2206 65.5607 43.9393C65.2794 43.658 64.8978 43.5 64.5 43.5H40.5C40.1022 43.5 39.7206 43.658 39.4393 43.9393C39.158 44.2206 39 44.6022 39 45V51C39 51.3978 39.158 51.7794 39.4393 52.0607C39.7206 52.342 40.1022 52.5 40.5 52.5H64.5C64.8978 52.5 65.2794 52.342 65.5607 52.0607C65.842 51.7794 66 51.3978 66 51V45Z" fill="#9FEAFF"/>
<path d="M69 54C69 53.6022 68.842 53.2206 68.5607 52.9393C68.2794 52.658 67.8978 52.5 67.5 52.5H43.5C43.1022 52.5 42.7206 52.658 42.4393 52.9393C42.158 53.2206 42 53.6022 42 54V60C42 60.3978 42.158 60.7794 42.4393 61.0607C42.7206 61.342 43.1022 61.5 43.5 61.5H67.5C67.8978 61.5 68.2794 61.342 68.5607 61.0607C68.842 60.7794 69 60.3978 69 60V54Z" fill="#9FEAFF"/>
<path d="M66 63C66 62.6022 65.842 62.2206 65.5607 61.9393C65.2794 61.658 64.8978 61.5 64.5 61.5H40.5C40.1022 61.5 39.7206 61.658 39.4393 61.9393C39.158 62.2206 39 62.6022 39 63V69C39 69.3978 39.158 69.7794 39.4393 70.0607C39.7206 70.342 40.1022 70.5 40.5 70.5H64.5C64.8978 70.5 65.2794 70.342 65.5607 70.0607C65.842 69.7794 66 69.3978 66 69V63Z" fill="#9FEAFF"/>
<path d="M30 54C30 53.6022 29.842 53.2206 29.5607 52.9393C29.2794 52.658 28.8978 52.5 28.5 52.5H4.5C4.10218 52.5 3.72064 52.658 3.43934 52.9393C3.15804 53.2206 3 53.6022 3 54V60C3 60.3978 3.15804 60.7794 3.43934 61.0607C3.72064 61.342 4.10218 61.5 4.5 61.5H28.5C28.8978 61.5 29.2794 61.342 29.5607 61.0607C29.842 60.7794 30 60.3978 30 60V54Z" fill="#9FEAFF"/>
<path d="M33 63C33 62.6022 32.842 62.2206 32.5607 61.9393C32.2794 61.658 31.8978 61.5 31.5 61.5H7.5C7.10218 61.5 6.72064 61.658 6.43934 61.9393C6.15804 62.2206 6 62.6022 6 63V69C6 69.3978 6.15804 69.7794 6.43934 70.0607C6.72064 70.342 7.10218 70.5 7.5 70.5H31.5C31.8978 70.5 32.2794 70.342 32.5607 70.0607C32.842 69.7794 33 69.3978 33 69V63Z" fill="#9FEAFF"/>
<path d="M66 45C66 44.6022 65.842 44.2206 65.5607 43.9393C65.2794 43.658 64.8978 43.5 64.5 43.5H40.5C40.1022 43.5 39.7206 43.658 39.4393 43.9393C39.158 44.2206 39 44.6022 39 45V51C39 51.3978 39.158 51.7794 39.4393 52.0607C39.7206 52.342 40.1022 52.5 40.5 52.5H64.5C64.8978 52.5 65.2794 52.342 65.5607 52.0607C65.842 51.7794 66 51.3978 66 51V45Z" fill="#9FEAFF"/>
<path d="M69 54C69 53.6022 68.842 53.2206 68.5607 52.9393C68.2794 52.658 67.8978 52.5 67.5 52.5H43.5C43.1022 52.5 42.7206 52.658 42.4393 52.9393C42.158 53.2206 42 53.6022 42 54V60C42 60.3978 42.158 60.7794 42.4393 61.0607C42.7206 61.342 43.1022 61.5 43.5 61.5H67.5C67.8978 61.5 68.2794 61.342 68.5607 61.0607C68.842 60.7794 69 60.3978 69 60V54Z" fill="#9FEAFF"/>
<path d="M43.5 34.5H67.5C67.8978 34.5 68.2794 34.658 68.5607 34.9393C68.842 35.2206 69 35.6022 69 36V40.5C69 40.1022 68.842 39.7206 68.5607 39.4393C68.2794 39.158 67.8978 39 67.5 39H43.5C43.1022 39 42.7206 39.158 42.4393 39.4393C42.158 39.7206 42 40.1022 42 40.5V36C42 35.6022 42.158 35.2206 42.4393 34.9393C42.7206 34.658 43.1022 34.5 43.5 34.5Z" fill="#DFF9FF"/>
<path d="M40.5 43.5H64.5C64.8978 43.5 65.2794 43.658 65.5607 43.9393C65.842 44.2206 66 44.6022 66 45V49.5C66 49.1022 65.842 48.7206 65.5607 48.4393C65.2794 48.158 64.8978 48 64.5 48H40.5C40.1022 48 39.7206 48.158 39.4393 48.4393C39.158 48.7206 39 49.1022 39 49.5V45C39 44.6022 39.158 44.2206 39.4393 43.9393C39.7206 43.658 40.1022 43.5 40.5 43.5Z" fill="#DFF9FF"/>
<path d="M43.5 52.5H67.5C67.8978 52.5 68.2794 52.658 68.5607 52.9393C68.842 53.2206 69 53.6022 69 54V58.5C69 58.1022 68.842 57.7206 68.5607 57.4393C68.2794 57.158 67.8978 57 67.5 57H43.5C43.1022 57 42.7206 57.158 42.4393 57.4393C42.158 57.7206 42 58.1022 42 58.5V54C42 53.6022 42.158 53.2206 42.4393 52.9393C42.7206 52.658 43.1022 52.5 43.5 52.5Z" fill="#DFF9FF"/>
<path d="M4.5 52.5H28.5C28.8978 52.5 29.2794 52.658 29.5607 52.9393C29.842 53.2206 30 53.6022 30 54V58.5C30 58.1022 29.842 57.7206 29.5607 57.4393C29.2794 57.158 28.8978 57 28.5 57H4.5C4.10218 57 3.72064 57.158 3.43934 57.4393C3.15804 57.7206 3 58.1022 3 58.5V54C3 53.6022 3.15804 53.2206 3.43934 52.9393C3.72064 52.658 4.10218 52.5 4.5 52.5Z" fill="#DFF9FF"/>
<path d="M7.5 61.5H31.5C31.8978 61.5 32.2794 61.658 32.5607 61.9393C32.842 62.2206 33 62.6022 33 63V67.5C33 67.1022 32.842 66.7206 32.5607 66.4393C32.2794 66.158 31.8978 66 31.5 66H7.5C7.10218 66 6.72064 66.158 6.43934 66.4393C6.15804 66.7206 6 67.1022 6 67.5V63C6 62.6022 6.15804 62.2206 6.43934 61.9393C6.72064 61.658 7.10218 61.5 7.5 61.5Z" fill="#DFF9FF"/>
<path d="M40.5 61.5H64.5C64.8978 61.5 65.2794 61.658 65.5607 61.9393C65.842 62.2206 66 62.6022 66 63V67.5C66 67.1022 65.842 66.7206 65.5607 66.4393C65.2794 66.158 64.8978 66 64.5 66H40.5C40.1022 66 39.7206 66.158 39.4393 66.4393C39.158 66.7206 39 67.1022 39 67.5V63C39 62.6022 39.158 62.2206 39.4393 61.9393C39.7206 61.658 40.1022 61.5 40.5 61.5Z" fill="#DFF9FF"/>
<path d="M69 36C69 35.6022 68.842 35.2206 68.5607 34.9393C68.2794 34.658 67.8978 34.5 67.5 34.5H43.5C43.1022 34.5 42.7206 34.658 42.4393 34.9393C42.158 35.2206 42 35.6022 42 36V42C42 42.3978 42.158 42.7794 42.4393 43.0607C42.7206 43.342 43.1022 43.5 43.5 43.5H67.5C67.8978 43.5 68.2794 43.342 68.5607 43.0607C68.842 42.7794 69 42.3978 69 42V36Z" stroke="#00303E" stroke-linecap="round" stroke-linejoin="round"/>
<path d="M66 45C66 44.6022 65.842 44.2206 65.5607 43.9393C65.2794 43.658 64.8978 43.5 64.5 43.5H40.5C40.1022 43.5 39.7206 43.658 39.4393 43.9393C39.158 44.2206 39 44.6022 39 45V51C39 51.3978 39.158 51.7794 39.4393 52.0607C39.7206 52.342 40.1022 52.5 40.5 52.5H64.5C64.8978 52.5 65.2794 52.342 65.5607 52.0607C65.842 51.7794 66 51.3978 66 51V45Z" stroke="#00303E" stroke-linecap="round" stroke-linejoin="round"/>
<path d="M69 54C69 53.6022 68.842 53.2206 68.5607 52.9393C68.2794 52.658 67.8978 52.5 67.5 52.5H43.5C43.1022 52.5 42.7206 52.658 42.4393 52.9393C42.158 53.2206 42 53.6022 42 54V60C42 60.3978 42.158 60.7794 42.4393 61.0607C42.7206 61.342 43.1022 61.5 43.5 61.5H67.5C67.8978 61.5 68.2794 61.342 68.5607 61.0607C68.842 60.7794 69 60.3978 69 60V54Z" stroke="#00303E" stroke-linecap="round" stroke-linejoin="round"/>
<path d="M66 63C66 62.6022 65.842 62.2206 65.5607 61.9393C65.2794 61.658 64.8978 61.5 64.5 61.5H40.5C40.1022 61.5 39.7206 61.658 39.4393 61.9393C39.158 62.2206 39 62.6022 39 63V69C39 69.3978 39.158 69.7794 39.4393 70.0607C39.7206 70.342 40.1022 70.5 40.5 70.5H64.5C64.8978 70.5 65.2794 70.342 65.5607 70.0607C65.842 69.7794 66 69.3978 66 69V63Z" stroke="#00303E" stroke-linecap="round" stroke-linejoin="round"/>
<path d="M30 54C30 53.6022 29.842 53.2206 29.5607 52.9393C29.2794 52.658 28.8978 52.5 28.5 52.5H4.5C4.10218 52.5 3.72064 52.658 3.43934 52.9393C3.15804 53.2206 3 53.6022 3 54V60C3 60.3978 3.15804 60.7794 3.43934 61.0607C3.72064 61.342 4.10218 61.5 4.5 61.5H28.5C28.8978 61.5 29.2794 61.342 29.5607 61.0607C29.842 60.7794 30 60.3978 30 60V54Z" stroke="#00303E" stroke-linecap="round" stroke-linejoin="round"/>
<path d="M33 63C33 62.6022 32.842 62.2206 32.5607 61.9393C32.2794 61.658 31.8978 61.5 31.5 61.5H7.5C7.10218 61.5 6.72064 61.658 6.43934 61.9393C6.15804 62.2206 6 62.6022 6 63V69C6 69.3978 6.15804 69.7794 6.43934 70.0607C6.72064 70.342 7.10218 70.5 7.5 70.5H31.5C31.8978 70.5 32.2794 70.342 32.5607 70.0607C32.842 69.7794 33 69.3978 33 69V63Z" stroke="#00303E" stroke-linecap="round" stroke-linejoin="round"/>
</svg>
