<svg width="80" height="80" viewBox="0 0 80 80" fill="none" xmlns="http://www.w3.org/2000/svg">
<g clip-path="url(#clip0_110_1225)">
<path d="M62.6665 26.6666C65.9802 26.6666 68.6665 23.9803 68.6665 20.6666C68.6665 17.3529 65.9802 14.6666 62.6665 14.6666C59.3528 14.6666 56.6665 17.3529 56.6665 20.6666C56.6665 23.9803 59.3528 26.6666 62.6665 26.6666Z" fill="#DFF9FF"/>
<path d="M62.6665 29.3334C60.5448 29.3334 58.5099 30.1762 57.0096 31.6765C55.5094 33.1768 54.6665 35.2116 54.6665 37.3334V44H58.6665L59.9998 56H65.3332L66.6665 44H70.6665V37.3334C70.6665 35.2116 69.8237 33.1768 68.3234 31.6765C66.8231 30.1762 64.7882 29.3334 62.6665 29.3334Z" fill="#DFF9FF"/>
<path d="M17.3335 26.6666C20.6472 26.6666 23.3335 23.9803 23.3335 20.6666C23.3335 17.3529 20.6472 14.6666 17.3335 14.6666C14.0198 14.6666 11.3335 17.3529 11.3335 20.6666C11.3335 23.9803 14.0198 26.6666 17.3335 26.6666Z" fill="#DFF9FF"/>
<path d="M17.3335 29.3334C15.2118 29.3334 13.1769 30.1762 11.6766 31.6765C10.1764 33.1768 9.3335 35.2116 9.3335 37.3334V44H13.3335L14.6668 56H20.0002L21.3335 44H25.3335V37.3334C25.3335 35.2116 24.4906 33.1768 22.9904 31.6765C21.4901 30.1762 19.4552 29.3334 17.3335 29.3334Z" fill="#DFF9FF"/>
<path d="M39.9998 24C44.0499 24 47.3332 20.7168 47.3332 16.6667C47.3332 12.6166 44.0499 9.33337 39.9998 9.33337C35.9497 9.33337 32.6665 12.6166 32.6665 16.6667C32.6665 20.7168 35.9497 24 39.9998 24Z" fill="#DFF9FF"/>
<path d="M49.3332 36C49.3332 33.5246 48.3498 31.1506 46.5995 29.4003C44.8492 27.65 42.4752 26.6666 39.9998 26.6666C37.5245 26.6666 35.1505 27.65 33.4002 29.4003C31.6498 31.1506 30.6665 33.5246 30.6665 36V44H34.8878L35.9998 57.3333H43.9998L45.1118 44H49.3332V36Z" fill="#DFF9FF"/>
<path d="M62.6665 20.6293C63.7187 20.6317 64.7516 20.9122 65.6606 21.4423C66.5695 21.9724 67.3223 22.7333 67.8425 23.648C68.376 22.7446 68.6604 21.7158 68.6665 20.6666C68.6665 19.0753 68.0344 17.5492 66.9091 16.424C65.7839 15.2988 64.2578 14.6666 62.6665 14.6666C61.0752 14.6666 59.5491 15.2988 58.4239 16.424C57.2986 17.5492 56.6665 19.0753 56.6665 20.6666C56.6726 21.7158 56.957 22.7446 57.4905 23.648C58.0107 22.7333 58.7635 21.9724 59.6724 21.4423C60.5814 20.9122 61.6143 20.6317 62.6665 20.6293Z" fill="white"/>
<path d="M62.6665 29.3334C60.5448 29.3334 58.5099 30.1762 57.0096 31.6765C55.5094 33.1768 54.6665 35.2116 54.6665 37.3334V43.296C54.6665 41.1743 55.5094 39.1395 57.0096 37.6392C58.5099 36.1389 60.5448 35.296 62.6665 35.296C64.7882 35.296 66.8231 36.1389 68.3234 37.6392C69.8237 39.1395 70.6665 41.1743 70.6665 43.296V37.3334C70.6665 35.2116 69.8237 33.1768 68.3234 31.6765C66.8231 30.1762 64.7882 29.3334 62.6665 29.3334Z" fill="white"/>
<path d="M17.3335 20.6293C18.3857 20.6317 19.4186 20.9122 20.3276 21.4423C21.2365 21.9724 21.9893 22.7333 22.5095 23.648C23.043 22.7446 23.3274 21.7158 23.3335 20.6666C23.3335 19.0753 22.7014 17.5492 21.5761 16.424C20.4509 15.2988 18.9248 14.6666 17.3335 14.6666C15.7422 14.6666 14.2161 15.2988 13.0909 16.424C11.9656 17.5492 11.3335 19.0753 11.3335 20.6666C11.3396 21.7158 11.624 22.7446 12.1575 23.648C12.6777 22.7333 13.4305 21.9724 14.3394 21.4423C15.2484 20.9122 16.2813 20.6317 17.3335 20.6293Z" fill="white"/>
<path d="M17.3335 29.3334C15.2118 29.3334 13.1769 30.1762 11.6766 31.6765C10.1764 33.1768 9.3335 35.2116 9.3335 37.3334V43.296C9.3335 41.1743 10.1764 39.1395 11.6766 37.6392C13.1769 36.1389 15.2118 35.296 17.3335 35.296C19.4552 35.296 21.4901 36.1389 22.9904 37.6392C24.4906 39.1395 25.3335 41.1743 25.3335 43.296V37.3334C25.3335 35.2116 24.4906 33.1768 22.9904 31.6765C21.4901 30.1762 19.4552 29.3334 17.3335 29.3334Z" fill="white"/>
<path d="M39.9998 15.296C41.4159 15.2977 42.8012 15.7096 43.9881 16.4819C45.175 17.2543 46.1127 18.354 46.6878 19.648C47.1901 18.5312 47.4048 17.3064 47.3122 16.0854C47.2196 14.8643 46.8226 13.6859 46.1576 12.6576C45.4926 11.6293 44.5807 10.784 43.5051 10.1986C42.4295 9.6133 41.2244 9.30664 39.9998 9.30664C38.7753 9.30664 37.5702 9.6133 36.4946 10.1986C35.419 10.784 34.507 11.6293 33.842 12.6576C33.177 13.6859 32.7801 14.8643 32.6875 16.0854C32.5949 17.3064 32.8095 18.5312 33.3118 19.648C33.8869 18.354 34.8246 17.2543 36.0116 16.4819C37.1985 15.7096 38.5838 15.2977 39.9998 15.296Z" fill="white"/>
<path d="M39.9998 26.6666C37.5245 26.6666 35.1505 27.65 33.4002 29.4003C31.6498 31.1506 30.6665 33.5246 30.6665 36V41.9626C30.6665 39.4873 31.6498 37.1133 33.4002 35.363C35.1505 33.6126 37.5245 32.6293 39.9998 32.6293C42.4752 32.6293 44.8492 33.6126 46.5995 35.363C48.3498 37.1133 49.3332 39.4873 49.3332 41.9626V36C49.3332 33.5246 48.3498 31.1506 46.5995 29.4003C44.8492 27.65 42.4752 26.6666 39.9998 26.6666Z" fill="white"/>
<path d="M40.0002 70.6667C56.9369 70.6667 70.6668 68.2753 70.6668 65.3253C70.6668 62.3754 56.9369 59.984 40.0002 59.984C23.0634 59.984 9.3335 62.3754 9.3335 65.3253C9.3335 68.2753 23.0634 70.6667 40.0002 70.6667Z" fill="#9FEAFF"/>
<path d="M53.3335 60.5333C63.5948 61.4 70.6668 63.2267 70.6668 65.3333C70.6668 68.2667 56.9388 70.6667 40.0002 70.6667C23.0615 70.6667 9.3335 68.2667 9.3335 65.3333C9.3335 63.2267 16.3602 61.4053 26.5548 60.5333" stroke="#00303E" stroke-linecap="round" stroke-linejoin="round"/>
<path d="M62.6665 26.6666C65.9802 26.6666 68.6665 23.9803 68.6665 20.6666C68.6665 17.3529 65.9802 14.6666 62.6665 14.6666C59.3528 14.6666 56.6665 17.3529 56.6665 20.6666C56.6665 23.9803 59.3528 26.6666 62.6665 26.6666Z" stroke="#00303E" stroke-linecap="round" stroke-linejoin="round"/>
<path d="M62.6665 29.3334C60.5448 29.3334 58.5099 30.1762 57.0096 31.6765C55.5094 33.1768 54.6665 35.2116 54.6665 37.3334V44H58.6665L59.9998 56H65.3332L66.6665 44H70.6665V37.3334C70.6665 35.2116 69.8237 33.1768 68.3234 31.6765C66.8231 30.1762 64.7882 29.3334 62.6665 29.3334Z" stroke="#00303E" stroke-linecap="round" stroke-linejoin="round"/>
<path d="M17.3335 26.6666C20.6472 26.6666 23.3335 23.9803 23.3335 20.6666C23.3335 17.3529 20.6472 14.6666 17.3335 14.6666C14.0198 14.6666 11.3335 17.3529 11.3335 20.6666C11.3335 23.9803 14.0198 26.6666 17.3335 26.6666Z" stroke="#00303E" stroke-linecap="round" stroke-linejoin="round"/>
<path d="M17.3335 29.3334C15.2118 29.3334 13.1769 30.1762 11.6766 31.6765C10.1764 33.1768 9.3335 35.2116 9.3335 37.3334V44H13.3335L14.6668 56H20.0002L21.3335 44H25.3335V37.3334C25.3335 35.2116 24.4906 33.1768 22.9904 31.6765C21.4901 30.1762 19.4552 29.3334 17.3335 29.3334Z" stroke="#00303E" stroke-linecap="round" stroke-linejoin="round"/>
<path d="M39.9998 24C44.0499 24 47.3332 20.7168 47.3332 16.6667C47.3332 12.6166 44.0499 9.33337 39.9998 9.33337C35.9497 9.33337 32.6665 12.6166 32.6665 16.6667C32.6665 20.7168 35.9497 24 39.9998 24Z" stroke="#00303E" stroke-linecap="round" stroke-linejoin="round"/>
<path d="M49.3332 36C49.3332 33.5246 48.3498 31.1506 46.5995 29.4003C44.8492 27.65 42.4752 26.6666 39.9998 26.6666C37.5245 26.6666 35.1505 27.65 33.4002 29.4003C31.6498 31.1506 30.6665 33.5246 30.6665 36V44H34.8878L35.9998 57.3333H43.9998L45.1118 44H49.3332V36Z" stroke="#00303E" stroke-linecap="round" stroke-linejoin="round"/>
</g>
<defs>
<clipPath id="clip0_110_1225">
<rect width="64" height="64" fill="white" transform="translate(8 8)"/>
</clipPath>
</defs>
</svg>
