<svg width="80" height="80" viewBox="0 0 80 80" fill="none" xmlns="http://www.w3.org/2000/svg">
<path d="M50.5879 27.96C48.6879 28.312 47.2199 27.96 44.9279 27.96C43.6193 27.9315 42.315 27.7977 41.0279 27.56C40.9805 27.5598 40.9338 27.5478 40.8921 27.5253C40.8504 27.5027 40.815 27.4702 40.7888 27.4306C40.7627 27.3911 40.7468 27.3457 40.7424 27.2984C40.7381 27.2512 40.7454 27.2037 40.7639 27.16C40.7919 27.116 42.9079 19.932 48.0639 22.36C48.8282 22.7176 49.5034 23.241 50.0403 23.892C50.5772 24.5431 50.9624 25.3055 51.1679 26.124C51.4039 26.912 51.3959 27.808 50.5879 27.96Z" fill="#B1F1FF"/>
<path d="M66.3717 71.3841C56.0317 62.5841 56.5557 63.0881 56.4277 62.8601C56.3917 62.7961 56.3237 62.7401 56.3797 62.6601C56.3913 62.6416 56.4067 62.6258 56.4248 62.6136C56.4429 62.6014 56.4633 62.5932 56.4848 62.5894C56.5063 62.5857 56.5284 62.5864 56.5495 62.5917C56.5707 62.597 56.5905 62.6067 56.6077 62.6201C57.2197 63.0681 57.8637 62.7921 58.4997 62.7241C58.5837 62.7241 58.6957 62.7041 58.7197 62.6241C58.8477 62.2241 59.0677 62.4161 59.2397 62.5561C60.5437 63.6121 62.8837 65.6721 67.7877 69.9401C67.8333 69.971 67.8719 70.0111 67.9013 70.0577C67.9306 70.1043 67.95 70.1564 67.9583 70.2109C67.9666 70.2653 67.9635 70.3209 67.9493 70.3741C67.9351 70.4273 67.91 70.477 67.8757 70.5201C67.6497 70.855 67.3807 71.159 67.0757 71.4241C66.9686 71.4908 66.8434 71.5228 66.7174 71.5157C66.5913 71.5085 66.4706 71.4625 66.3717 71.3841Z" fill="#B1F1FF"/>
<path d="M8.87971 17.696C8.91171 17.696 17.8277 24.86 17.9797 25.1C18.0157 25.152 18.0677 25.2 18.0437 25.268C18.0197 25.336 17.5437 25.068 17.5237 26.52C17.5237 26.748 17.2437 26.808 17.0317 26.636C16.0477 25.836 8.96371 20.032 7.96371 19.036C7.64771 18.708 8.71971 17.704 8.87971 17.696Z" fill="#B1F1FF"/>
<path d="M40.2199 17.476C40.2559 17.26 40.3079 17.004 40.3519 16.744C40.3719 16.608 40.3519 16.484 40.1959 16.44C39.8359 16.348 39.7959 16.04 39.7959 15.764C39.8559 14.784 40.7199 14.988 41.4559 14.748C41.6479 14.684 41.7879 14.856 41.7639 15.08C41.7319 15.372 41.6959 15.668 41.6399 15.956C41.5839 16.244 41.6759 16.196 41.8519 16.116C42.3879 15.868 42.7599 15.964 42.6079 16.536C42.4759 17.032 42.0479 18.856 41.7759 19.256C41.6999 19.364 41.6279 19.508 41.4479 19.424C41.3774 19.3969 41.3193 19.3449 41.2846 19.2778C41.2499 19.2107 41.2412 19.1332 41.2599 19.06C41.3034 18.7141 41.2844 18.3632 41.2039 18.024C41.2039 17.86 41.1399 17.728 40.9359 17.864C40.8698 17.8991 40.7981 17.9222 40.7239 17.932C40.3999 18 40.2199 17.852 40.2199 17.476Z" fill="#B1F1FF"/>
<path d="M43.7195 29.264C43.6833 29.897 43.5636 30.5224 43.3635 31.124C43.2355 31.524 42.9875 31.62 42.5635 31.56C42.1766 31.5264 41.8112 31.3676 41.5225 31.1078C41.2339 30.848 41.0376 30.5013 40.9635 30.12C40.8325 29.6833 40.7468 29.2343 40.7075 28.78C40.7075 28.46 40.8275 28.356 41.1395 28.436C41.4515 28.516 43.2995 28.908 43.3435 28.892C43.7555 28.756 43.7315 29.016 43.7195 29.264Z" fill="#B1F1FF"/>
<path d="M46.9238 16.744C46.4398 16.744 46.3558 16.076 46.0838 16.556C45.9564 16.7942 45.7931 17.0114 45.5998 17.2C45.5078 17.288 45.4118 17.344 45.2878 17.272C45.2348 17.246 45.1931 17.2017 45.1703 17.1473C45.1475 17.0928 45.1452 17.032 45.1638 16.976C45.2064 16.7466 45.2212 16.5129 45.2078 16.28C45.2078 16.076 45.1318 16.012 44.9478 16.04C44.6728 16.04 44.4006 15.9843 44.1478 15.876C44.0278 15.844 43.8998 15.776 43.8918 15.628C43.8838 15.48 44.1278 15.308 44.3358 15.228C44.4543 15.1884 44.559 15.1158 44.6377 15.0188C44.7164 14.9217 44.7657 14.8042 44.7798 14.68C44.8612 14.3748 44.9766 14.0796 45.1238 13.8C45.2438 13.54 45.5238 13.52 45.6238 13.78C45.6416 13.8771 45.6813 13.9689 45.74 14.0483C45.7987 14.1277 45.8747 14.1926 45.9623 14.2382C46.0499 14.2837 46.1467 14.3086 46.2454 14.311C46.3441 14.3134 46.4421 14.2932 46.5318 14.252C46.6989 14.2279 46.8687 14.2279 47.0358 14.252C47.3838 14.252 47.4678 14.432 47.2798 14.728C47.2138 14.85 47.1272 14.9596 47.0238 15.052C46.9703 15.0852 46.9249 15.1299 46.8908 15.1828C46.8568 15.2358 46.8349 15.2956 46.8269 15.3581C46.8189 15.4205 46.8248 15.4839 46.8443 15.5438C46.8639 15.6036 46.8965 15.6583 46.9398 15.704C47.0736 15.9069 47.1711 16.1316 47.2278 16.368C47.2638 16.632 47.1678 16.748 46.9238 16.744ZM46.3518 15.628C46.1918 15.4 46.1798 15.228 46.4478 15.044C46.537 14.9969 46.6116 14.9263 46.6638 14.84C46.7158 14.732 46.7078 14.716 46.5758 14.708C46.1758 14.68 45.6518 15.136 45.3758 14.376C45.2275 14.8059 45.0143 15.2105 44.7438 15.576C45.1438 15.628 45.6998 15.428 45.6558 16.136C45.6558 16.228 45.7598 16.22 45.7878 16.136C46.0238 15.6 46.7998 16.228 46.3518 15.628Z" fill="#B1F1FF"/>
<path d="M46.0479 37.156C45.9999 36.936 46.1439 36.828 46.3239 36.756C46.5428 36.6776 46.7768 36.6503 47.0079 36.676C47.0715 36.6785 47.1324 36.7021 47.1812 36.7429C47.23 36.7837 47.2639 36.8396 47.2777 36.9017C47.2914 36.9639 47.2841 37.0288 47.257 37.0864C47.2299 37.144 47.1845 37.191 47.1279 37.22C46.7319 37.38 46.1399 37.572 46.0479 37.156Z" fill="#B1F1FF"/>
<path d="M45.6439 38.324C45.8439 38.36 46.0439 38.424 46.0439 38.656C46.0197 38.7546 45.964 38.8427 45.8854 38.9069C45.8067 38.9711 45.7093 39.008 45.6079 39.012C45.4082 39.0323 45.2069 38.9948 45.0279 38.904C44.9611 38.8823 44.904 38.8382 44.8661 38.7791C44.8281 38.7201 44.8118 38.6497 44.8199 38.58C44.8359 38.272 45.3639 38.28 45.6439 38.324Z" fill="#B1F1FF"/>
<path d="M55.8476 30.376C55.9038 30.3735 55.9594 30.388 56.0072 30.4176C56.055 30.4472 56.0928 30.4905 56.1157 30.5418C56.1386 30.5932 56.1455 30.6502 56.1355 30.7056C56.1255 30.7609 56.099 30.8119 56.0596 30.852C55.8584 31.0756 55.5824 31.2179 55.2836 31.252C55.0556 31.296 54.9316 31.04 55.0476 30.852C55.131 30.7126 55.2478 30.596 55.3875 30.513C55.5271 30.4299 55.6853 30.3828 55.8476 30.376Z" fill="#B1F1FF"/>
<path d="M41.7158 36.636C41.7158 36.496 41.8158 36.436 41.9278 36.4C42.2271 36.3361 42.5365 36.3361 42.8358 36.4C42.9045 36.416 42.9647 36.4572 43.0043 36.5156C43.0439 36.574 43.06 36.6452 43.0494 36.7149C43.0388 36.7847 43.0023 36.8478 42.9471 36.8918C42.8919 36.9358 42.8222 36.9573 42.7518 36.952C42.4238 36.916 41.7598 37.008 41.7158 36.636Z" fill="#B1F1FF"/>
<path d="M42.2956 37.5641C42.3355 37.5596 42.3758 37.5634 42.4142 37.575C42.4525 37.5867 42.4881 37.606 42.5188 37.6318C42.5495 37.6576 42.5746 37.6893 42.5926 37.7251C42.6106 37.761 42.6212 37.8 42.6236 37.8401C42.63 37.8745 42.6294 37.9098 42.6219 37.944C42.6144 37.9782 42.6002 38.0106 42.5801 38.0393C42.56 38.0679 42.5344 38.0923 42.5048 38.111C42.4752 38.1297 42.4422 38.1423 42.4076 38.1481C42.2011 38.226 41.9789 38.2534 41.7596 38.2281C41.5716 38.1961 41.4276 38.0881 41.4556 37.8921C41.4582 37.8469 41.4696 37.8026 41.4893 37.7618C41.509 37.7211 41.5366 37.6846 41.5704 37.6545C41.6042 37.6244 41.6436 37.6013 41.6864 37.5864C41.7292 37.5716 41.7744 37.5653 41.8196 37.5681L42.2956 37.5641Z" fill="#B1F1FF"/>
<path d="M39.4478 34.96C39.2598 34.904 39.2438 34.76 39.2758 34.608C39.2811 34.5741 39.2931 34.5415 39.3111 34.5122C39.3291 34.4829 39.3528 34.4575 39.3807 34.4374C39.4086 34.4173 39.4402 34.403 39.4737 34.3952C39.5072 34.3874 39.5419 34.3863 39.5758 34.392C39.7198 34.392 39.8678 34.428 40.0118 34.448C40.2438 34.476 40.4798 34.528 40.4598 34.82C40.4318 35.224 39.8358 35.068 39.4478 34.96Z" fill="#B1F1FF"/>
<path d="M50.8555 35.904C50.6555 35.904 50.4555 35.904 50.4155 35.66C50.3755 35.416 50.5315 35.344 50.7235 35.26C50.8501 35.2244 50.9827 35.2145 51.1132 35.231C51.2438 35.2475 51.3697 35.29 51.4835 35.356C51.5298 35.382 51.5669 35.4217 51.5897 35.4697C51.6124 35.5177 51.6197 35.5715 51.6104 35.6238C51.6012 35.6761 51.576 35.7243 51.5382 35.7616C51.5004 35.7989 51.4519 35.8235 51.3995 35.832C51.1995 35.868 51.0235 35.884 50.8555 35.904Z" fill="#B1F1FF"/>
<path d="M50.5159 34.188C50.2519 34.188 50.0599 34.124 50.0319 33.864C50.0039 33.604 50.2039 33.572 50.4079 33.54C50.5933 33.4959 50.7865 33.4959 50.9719 33.54C51.0349 33.5524 51.092 33.5855 51.134 33.6341C51.1761 33.6826 51.2007 33.7439 51.2039 33.808C51.2039 33.8729 51.1829 33.9361 51.1439 33.988C51.105 34.0399 51.0502 34.0778 50.9879 34.096C50.8384 34.1582 50.6779 34.1895 50.5159 34.188Z" fill="#B1F1FF"/>
<path d="M48.2119 34.7C48.4279 34.7 48.6439 34.724 48.6719 34.98C48.6999 35.236 48.4759 35.304 48.2719 35.332C48.132 35.382 47.9805 35.3904 47.8359 35.356C47.7119 35.308 47.5879 35.268 47.5559 35.128C47.5239 34.988 47.6479 34.876 47.7559 34.796C47.8935 34.7155 48.0535 34.6818 48.2119 34.7Z" fill="#B1F1FF"/>
<path d="M39.2235 35.756C39.6235 35.756 39.6755 36.2 39.3395 36.296C39.1946 36.3589 39.0359 36.3832 38.8788 36.3664C38.7217 36.3495 38.5717 36.2922 38.4435 36.2C38.3515 36.124 38.2755 36.032 38.3275 35.9C38.3795 35.768 38.4875 35.78 38.5955 35.784C38.7035 35.788 39.1195 35.76 39.2235 35.756Z" fill="#B1F1FF"/>
<path d="M48.0196 38.712C48.1756 38.712 48.4196 38.64 48.4196 38.94C48.4196 39.24 48.2436 39.3 48.0196 39.34C47.9166 39.3684 47.8104 39.3832 47.7036 39.384C47.5636 39.384 47.3916 39.384 47.3436 39.188C47.3249 39.108 47.3351 39.024 47.3725 38.9507C47.4098 38.8775 47.4718 38.8199 47.5476 38.788C47.6959 38.723 47.8584 38.6968 48.0196 38.712Z" fill="#B1F1FF"/>
<path d="M53.2239 32.4C53.2741 32.4229 53.3167 32.4598 53.3466 32.5062C53.3764 32.5527 53.3923 32.6068 53.3923 32.662C53.3923 32.7172 53.3764 32.7713 53.3466 32.8177C53.3167 32.8642 53.2741 32.901 53.2239 32.924C53.1112 32.9816 52.9864 33.0116 52.8599 33.0116C52.7333 33.0116 52.6086 32.9816 52.4959 32.924C52.447 32.903 52.4053 32.8681 52.376 32.8237C52.3467 32.7793 52.3311 32.7272 52.3311 32.674C52.3311 32.6207 52.3467 32.5687 52.376 32.5243C52.4053 32.4798 52.447 32.4449 52.4959 32.424C52.6085 32.3682 52.7317 32.3373 52.8573 32.3331C52.9829 32.329 53.1079 32.3518 53.2239 32.4Z" fill="#B1F1FF"/>
<path d="M56.6558 32.064C56.6278 31.636 57.6758 31.368 57.7118 31.888C57.7318 32.244 56.6838 32.572 56.6558 32.064Z" fill="#B1F1FF"/>
<path d="M43.5479 39.732C43.0799 39.732 42.8479 39.268 43.1759 39.192C43.4247 39.0994 43.6964 39.0882 43.9519 39.16C44.0799 39.212 44.1799 39.288 44.1639 39.44C44.1576 39.4986 44.1308 39.5531 44.0885 39.594C44.0461 39.6349 43.9907 39.6597 43.9319 39.664L43.5479 39.732Z" fill="#B1F1FF"/>
<path d="M54.2239 34.368C54.2559 34.596 54.0879 34.66 53.9159 34.696C53.7843 34.728 53.6506 34.7507 53.5159 34.764C53.0039 34.808 52.9759 34.172 53.4959 34.192C54.0159 34.212 54.1839 34.124 54.2239 34.368Z" fill="#B1F1FF"/>
<path d="M54.6439 32.8C54.4799 32.8 54.3319 32.768 54.3119 32.584C54.2919 32.4 54.6319 32.1 54.9199 32.1C54.965 32.095 55.0107 32.0995 55.054 32.1132C55.0973 32.127 55.1372 32.1497 55.1711 32.1799C55.2051 32.21 55.2323 32.247 55.251 32.2884C55.2698 32.3298 55.2796 32.3746 55.2799 32.42C55.2999 32.624 54.9999 32.8 54.6439 32.8Z" fill="#B1F1FF"/>
<path d="M44.2277 40.8721C44.0277 40.8721 43.7957 40.8961 43.6837 40.6561C43.657 40.6097 43.6456 40.5561 43.6514 40.5028C43.6571 40.4496 43.6797 40.3996 43.7157 40.3601C43.8957 40.1681 44.1157 40.2601 44.3077 40.3001C44.4997 40.3401 44.7077 40.4361 44.6557 40.6641C44.6037 40.8921 44.3997 40.8921 44.2277 40.8721Z" fill="#B1F1FF"/>
<path d="M48.8837 36.988C48.6637 36.988 48.4517 36.948 48.4517 36.688C48.4517 36.428 48.6677 36.384 48.8797 36.368C49.0917 36.352 49.4157 36.412 49.4157 36.676C49.4157 36.94 49.2357 36.968 49.0437 36.988C48.9917 36.992 48.9357 36.984 48.8837 36.988Z" fill="#B1F1FF"/>
<path d="M57.2516 29.86C57.0036 29.86 56.8516 29.8 56.8516 29.568C56.8516 29.336 57.0836 29.224 57.4356 29.22C57.6396 29.22 57.7996 29.288 57.8356 29.496C57.8716 29.704 57.5556 29.856 57.2516 29.86Z" fill="#B1F1FF"/>
<path d="M55.5519 33.6C55.4665 33.6205 55.3764 33.6064 55.3015 33.5606C55.2265 33.5149 55.1727 33.4413 55.1519 33.356C55.0799 33 55.5919 33.008 55.9519 33.06C55.9984 33.0723 56.04 33.0985 56.0713 33.135C56.1025 33.1716 56.1218 33.2169 56.1266 33.2648C56.1313 33.3126 56.1214 33.3608 56.098 33.4028C56.0747 33.4449 56.039 33.4788 55.9959 33.5C55.8607 33.5756 55.7064 33.6104 55.5519 33.6Z" fill="#B1F1FF"/>
<path d="M41.7118 35.084C41.6127 35.0991 41.5114 35.0848 41.4204 35.0428C41.3294 35.0009 41.2527 34.9332 41.1998 34.848C41.1773 34.8052 41.1718 34.7554 41.1844 34.7087C41.197 34.662 41.2268 34.6217 41.2678 34.596C41.3422 34.5351 41.4335 34.4986 41.5295 34.4914C41.6254 34.4843 41.7211 34.5068 41.8038 34.556C41.9478 34.64 42.2478 34.644 42.1758 34.9C42.1038 35.156 41.8678 35.064 41.7118 35.084Z" fill="#B1F1FF"/>
<path d="M58.5795 30.316C58.6915 30.352 58.8475 30.364 58.8595 30.54C58.8715 30.716 58.4915 31.008 58.3075 30.996C58.2728 30.9967 58.2384 30.9901 58.2065 30.9767C58.1745 30.9632 58.1458 30.9432 58.122 30.918C58.0983 30.8927 58.0801 30.8628 58.0686 30.8301C58.0572 30.7973 58.0527 30.7626 58.0555 30.728C58.0515 30.584 58.3755 30.32 58.5795 30.316Z" fill="#B1F1FF"/>
<path d="M49.9679 57.8799C50.1756 57.7623 50.407 57.6927 50.6451 57.676C50.8832 57.6594 51.1219 57.6963 51.3439 57.7839C51.3866 57.7891 51.4277 57.8031 51.4646 57.825C51.5015 57.847 51.5335 57.8764 51.5583 57.9115C51.5832 57.9465 51.6004 57.9864 51.609 58.0285C51.6175 58.0706 51.6172 58.114 51.6079 58.1559C51.5679 58.3479 51.4079 58.3919 51.2399 58.3879C50.8502 58.4276 50.4566 58.4005 50.0759 58.3079C49.8439 58.2199 49.8279 58.3919 49.7799 58.5239C49.5541 59.3299 49.2541 60.1132 48.8839 60.8639C46.8839 64.3159 44.2839 64.4159 43.3639 62.4639C42.6742 61.0378 42.5319 59.4081 42.9639 57.8839C43.369 56.4482 44.1031 55.1265 45.1079 54.0239C47.1999 51.6959 48.8359 52.5999 49.4359 53.9359C50.1479 55.5359 50.1679 55.3719 50.0999 56.1999C50.0719 56.7479 50.0679 57.3039 49.9679 57.8799Z" fill="#282828"/>
<path d="M14.7999 33.0959C17.4519 27.0599 20.1399 30.3239 20.3999 33.6359C20.4399 34.1919 20.3999 34.1999 20.9559 34.3279C21.4279 34.4399 22.1559 34.4439 22.0919 34.7999C22.0819 34.8519 22.0574 34.9001 22.0214 34.939C21.9853 34.9779 21.9391 35.0059 21.8879 35.0199C21.502 35.0944 21.1073 35.1133 20.7159 35.0759C20.4999 35.0759 20.4199 35.1119 20.3959 35.3639C20.3257 36.3283 20.0489 37.2664 19.5845 38.1146C19.12 38.9627 18.4787 39.7012 17.7039 40.2799C15.6279 41.9079 12.4959 38.3679 14.7999 33.0959Z" fill="#282828"/>
<path d="M63.9162 59.4399C63.8132 59.4779 63.7033 59.4935 63.5939 59.4857C63.4844 59.4779 63.3778 59.4469 63.2813 59.3946C63.1848 59.3424 63.1005 59.2702 63.0341 59.1828C62.9677 59.0954 62.9207 58.9949 62.8962 58.8879C62.4642 57.6039 63.1082 56.7159 62.7482 55.4079C62.5056 54.6081 62.3106 53.7947 62.1642 52.9719C61.9802 51.7719 61.6802 51.4759 62.4602 50.5319C63.6402 49.0959 65.1962 49.1359 66.1482 50.0159C67.0395 50.8541 67.5846 51.9957 67.6762 53.2159C68.0362 56.3679 66.1802 58.9519 63.9162 59.4399Z" fill="#282828"/>
<path d="M21.572 12.7759C21.3 12.6039 21.456 12.3759 21.72 12.5039L22.968 13.0599C23.112 13.1239 23.172 13.0599 23.144 12.9239C23.1224 12.4658 23.0124 12.0162 22.82 11.5999C22.456 11.0079 23.668 11.1239 23.876 11.4879C24.0571 11.8183 24.2789 12.1246 24.536 12.3999C24.8083 12.6723 25.0065 13.0096 25.112 13.3799C25.452 14.6679 27.02 14.6319 29.016 15.7239C29.76 16.1239 30.156 17.2599 30.088 17.8959C30.0486 18.0951 29.9544 18.2793 29.816 18.4279C29.416 18.9479 29.016 19.4679 28.616 19.9799C28.284 20.3799 28.168 20.4119 27.668 20.2559C27.2165 20.1421 26.7781 19.9812 26.36 19.7759C24.876 18.9519 26.384 18.0319 23.768 16.8959C23.0544 16.567 22.4373 16.0601 21.976 15.4239C21.8149 15.2218 21.7376 14.9655 21.76 14.7079C21.752 14.6599 21.716 12.8679 21.572 12.7759Z" fill="#282828"/>
<path d="M35.9161 25.0279C35.9282 24.8164 35.892 24.6049 35.8102 24.4095C35.7284 24.2141 35.6032 24.0398 35.4441 23.8999C35.1585 23.5334 34.9404 23.1189 34.8001 22.6759C34.5961 22.1439 35.1361 22.0999 35.3441 22.3559C35.5149 22.5647 35.7429 22.719 36.0001 22.7999C36.7388 23.0232 37.3615 23.5253 37.7361 24.1999C38.0164 24.6533 38.4381 25.0019 38.9361 25.1919C39.6441 25.4879 39.9641 26.1079 40.3441 26.6879C40.3968 26.7686 40.4309 26.8599 40.4441 26.9554C40.4572 27.0508 40.449 27.148 40.4201 27.2399C40.2942 27.6913 40.2942 28.1685 40.4201 28.6199C40.4614 29.0034 40.5255 29.3841 40.6121 29.7599C40.6801 29.9679 40.3521 30.0519 40.2121 30.0319C39.5281 29.9559 38.8081 29.9559 38.3361 29.2959C37.7321 28.4479 38.0361 27.5559 37.2201 27.2199C36.8222 27.0237 36.4663 26.752 36.1721 26.4199C35.8441 26.0759 35.8601 25.6479 35.9161 25.0279Z" fill="#282828"/>
<path d="M46.268 34.5999C46.2821 34.8093 46.2399 35.0187 46.1457 35.2063C46.0516 35.3939 45.9089 35.5529 45.7326 35.6668C45.5563 35.7807 45.3527 35.8453 45.143 35.8539C44.9333 35.8625 44.725 35.8149 44.54 35.7159C43.8077 35.385 43.1241 34.9557 42.508 34.4399C42.3194 34.3291 42.1674 34.1655 42.0707 33.9693C41.974 33.7731 41.9369 33.5529 41.964 33.3359C41.988 33.1799 41.784 33.0439 41.564 33.0479C41.0968 33.0307 40.6421 32.8929 40.244 32.6479C40.0826 32.5839 39.9436 32.474 39.8441 32.3318C39.7446 32.1896 39.6889 32.0214 39.684 31.8479C39.684 31.6959 39.544 31.5959 39.46 31.4759C39.4263 31.432 39.4095 31.3776 39.4124 31.3224C39.4154 31.2672 39.438 31.2149 39.4761 31.1748C39.5142 31.1348 39.5653 31.1097 39.6203 31.104C39.6753 31.0983 39.7305 31.1125 39.776 31.1439C40.0172 31.3017 40.2904 31.4042 40.576 31.4439C41.596 31.7239 41.408 31.8879 41.66 32.2119C42.004 32.6639 42.588 32.8199 43.052 33.1199C43.708 33.5439 44.472 33.7239 45.164 34.0599C45.256 34.1039 45.316 34.0999 45.372 34.0039C45.5 33.7919 45.684 33.8279 45.832 33.9519C45.98 34.0759 46.292 34.2599 46.268 34.5999Z" fill="#282828"/>
<path d="M49.5681 20.632C49.8411 19.447 50.2858 18.3083 50.8881 17.252C50.9058 17.1921 50.9388 17.1379 50.9838 17.0947C51.0288 17.0514 51.0843 17.0206 51.1448 17.0053C51.2054 16.99 51.2688 16.9906 51.329 17.0072C51.3892 17.0238 51.444 17.0558 51.4881 17.1C51.652 17.1726 51.826 17.2198 52.0041 17.24C52.3601 17.344 52.4601 17.492 52.3361 17.844C52.0212 18.7274 51.6318 19.5825 51.1721 20.4C51.0445 20.6794 50.876 20.9382 50.6721 21.168C50.6229 21.2375 50.5483 21.2849 50.4645 21.2999C50.3807 21.3148 50.2943 21.2962 50.2241 21.248C49.9601 21.076 49.5481 21.036 49.5681 20.632Z" fill="#282828"/>
<path d="M45.376 30.7759C45.3794 30.8971 45.3361 31.015 45.2549 31.1052C45.1737 31.1953 45.061 31.2507 44.94 31.2599C44.8166 31.2521 44.6996 31.2021 44.6086 31.1184C44.5176 31.0347 44.4581 30.9222 44.44 30.7999C44.4389 30.7371 44.4505 30.6747 44.474 30.6165C44.4976 30.5582 44.5326 30.5053 44.577 30.4609C44.6214 30.4165 44.6743 30.3815 44.7326 30.3579C44.7908 30.3344 44.8532 30.3228 44.916 30.3239C44.978 30.3138 45.0415 30.3185 45.1013 30.3375C45.1612 30.3566 45.2157 30.3894 45.2605 30.4334C45.3053 30.4774 45.3391 30.5314 45.3591 30.5909C45.3792 30.6504 45.385 30.7137 45.376 30.7759Z" fill="#282828"/>
<path d="M49.4917 31.448C49.2557 31.448 49.2037 31.268 49.1997 31.072C49.1997 30.784 49.3357 30.62 49.5757 30.624C50.0677 30.636 49.9677 31.48 49.4917 31.448Z" fill="#282828"/>
<path d="M27.3639 34.3239C27.3303 35.447 27.4651 36.5688 27.7639 37.6519C27.8159 37.8479 27.8959 38.0519 27.6999 38.2079C27.5039 38.3639 27.2999 38.2079 27.1439 38.1159C26.3632 37.7236 25.546 37.4088 24.7039 37.1759C24.4999 37.1119 24.4879 37.1759 24.5159 37.3519C25.2279 41.1119 27.1359 42.8639 27.2399 44.2879C27.3159 45.3079 25.8199 43.8479 25.1039 43.0639C24.1915 42.0309 23.3584 40.9305 22.6119 39.7719C21.6759 38.3719 21.0119 36.8879 20.6919 36.5719C20.5683 36.4276 20.478 36.2578 20.4275 36.0745C20.377 35.8913 20.3676 35.6992 20.3999 35.5119C20.3988 35.4155 20.4326 35.3219 20.4951 35.2484C20.5576 35.1748 20.6445 35.1264 20.7399 35.1119C21.5119 34.9199 21.9399 35.5119 21.9959 35.0719C22.0029 35.0301 22.0122 34.9887 22.0239 34.9479C22.1599 34.3159 22.0239 34.0999 21.4079 33.9919C21.2165 33.9822 21.0339 33.9088 20.8889 33.7835C20.744 33.6581 20.6451 33.4879 20.6079 33.2999C20.0519 31.2559 19.7239 29.4239 17.7279 29.1479C17.1959 29.0719 17.0559 28.8199 17.1959 28.3039C17.9119 25.6959 18.7119 23.9039 20.5599 22.7399C24.6479 20.2039 31.1879 21.9399 35.2719 23.8639C35.6719 24.0479 35.7239 24.2639 35.5679 24.6639C35.4163 25.1427 35.4306 25.6585 35.6084 26.1281C35.7862 26.5978 36.1172 26.9937 36.5479 27.2519C36.8097 27.3685 37.0408 27.5446 37.2227 27.7661C37.4046 27.9876 37.5324 28.2484 37.5959 28.5279C37.7239 29.1399 38.4359 29.5639 37.8799 30.1279C37.4479 30.5639 37.0599 31.0399 36.6399 31.4879C36.2726 31.8392 36.0357 32.305 35.9681 32.8087C35.9005 33.3125 36.0062 33.8242 36.2679 34.2599C37.3839 36.5119 40.1679 38.8199 41.5079 39.9879C42.4465 40.734 43.4744 41.3601 44.5679 41.8519C47.5279 43.3639 50.0959 42.7919 50.0479 40.8279C50.0159 39.6879 50.1079 38.5399 49.7639 37.4239C49.5879 36.8559 50.2639 36.2759 50.8479 36.4599C51.157 36.5631 51.4332 36.7467 51.6479 36.9919C58.1439 43.9239 59.7079 47.2519 61.1559 50.1119C63.6679 55.0839 62.9519 58.4199 60.9119 60.8879C59.8599 62.1599 55.6519 63.5799 50.8279 61.1759C50.4101 60.9696 50.0269 60.6998 49.6919 60.3759C49.609 60.3081 49.546 60.2191 49.5094 60.1185C49.4728 60.0178 49.464 59.9092 49.4839 59.8039C49.5359 59.5145 49.6108 59.2296 49.7079 58.9519C49.7531 58.8265 49.8382 58.7194 49.9503 58.6471C50.0623 58.5749 50.195 58.5414 50.3279 58.5519C50.6033 58.5386 50.8794 58.5534 51.1519 58.5959C51.5519 58.6879 51.7719 58.5079 51.7719 58.0879C51.7719 57.3879 51.9079 57.4079 51.0919 57.4079C50.2759 57.4079 50.3519 57.4079 50.2279 56.6399C50.0919 55.8119 50.1799 54.9399 49.8559 54.1479C48.6119 51.1199 45.8319 51.7959 44.3399 53.6759C44.1304 53.9082 43.9699 54.1803 43.8679 54.4759C43.8616 54.5181 43.8469 54.5585 43.8246 54.5949C43.8023 54.6312 43.7729 54.6626 43.7382 54.6873C43.7034 54.7119 43.6641 54.7293 43.6224 54.7384C43.5808 54.7474 43.5377 54.7479 43.4959 54.7399C43.4096 54.7328 43.3294 54.6926 43.272 54.6278C43.2146 54.5629 43.1845 54.4784 43.1879 54.3919C43.1879 53.8519 42.3879 45.5919 41.4999 45.5519C41.3519 45.5519 41.3359 45.7479 41.2879 45.8639C40.9999 46.5599 41.0599 46.8759 40.7399 46.9119C40.6507 46.9214 40.561 46.8982 40.4875 46.8467C40.414 46.7953 40.3616 46.719 40.3399 46.6319C39.3799 44.1919 38.4279 41.4599 36.8759 39.3639C36.7519 39.1959 36.6559 39.1639 36.5599 39.4039C36.3648 39.896 36.2148 40.4047 36.1119 40.9239C36.0719 41.0959 36.0519 41.2999 35.8359 41.3519C35.6199 41.4039 35.4759 41.2759 35.3399 41.1359C32.0959 37.7719 31.5239 37.0599 30.1399 36.1039C29.2759 35.5079 28.4319 34.8799 27.5239 34.3559C27.4839 34.2479 27.4199 34.2159 27.3639 34.3239Z" fill="#B1F1FF"/>
<path d="M52.3999 22.628C52.413 22.4938 52.4582 22.3648 52.5319 22.252C53.0119 21.528 53.5799 20.868 54.1039 20.18C54.2999 19.92 54.5039 19.944 54.6319 20.236C54.6683 20.3055 54.7181 20.3672 54.7786 20.4173C54.839 20.4675 54.9088 20.5051 54.9839 20.528C55.0503 20.5404 55.1122 20.5705 55.1629 20.6151C55.2137 20.6597 55.2515 20.7171 55.2724 20.7814C55.2933 20.8457 55.2964 20.9144 55.2816 20.9803C55.2667 21.0462 55.2343 21.1069 55.1879 21.156C54.9195 21.5766 54.5982 21.9611 54.2319 22.3C53.2279 23.232 53.2239 23.388 53.0319 23.364C52.8703 23.3092 52.7263 23.212 52.6151 23.0825C52.5039 22.953 52.4296 22.796 52.3999 22.628Z" fill="#B1F1FF"/>
<path d="M52.6359 25.24C52.6236 25.1547 52.6363 25.0678 52.6725 24.9896C52.7088 24.9115 52.7669 24.8456 52.8399 24.8C53.5411 24.2354 54.2802 23.7195 55.0519 23.256C55.3759 23.08 55.5319 23.12 55.6639 23.448C55.7519 23.664 55.8519 23.876 55.9279 24.096C55.967 24.184 55.9696 24.284 55.9351 24.374C55.9006 24.464 55.8319 24.5366 55.7439 24.576C54.9719 25.024 54.1439 25.34 53.3439 25.712C52.8879 25.928 52.6399 25.732 52.6359 25.24Z" fill="#B1F1FF"/>
<path d="M18.272 73.0639C17.932 73.9359 17.904 74.1239 17.668 74.1199C17.5 74.1199 17.444 73.9799 17.384 73.8559C17.2045 73.4564 17.0534 73.0447 16.932 72.6239C16.572 73.4639 16.532 73.5839 16.272 74.1039C16.232 74.1919 16.164 74.2759 16.052 74.2319C16.0297 74.2222 16.0098 74.208 15.9935 74.19C15.9772 74.1721 15.9648 74.1509 15.9573 74.1279C15.9497 74.1048 15.9471 74.0804 15.9497 74.0563C15.9522 74.0322 15.9598 74.0089 15.972 73.9879C16.2093 73.3506 16.4493 72.7173 16.692 72.0879C16.7085 72.0274 16.7455 71.9744 16.7967 71.938C16.8479 71.9016 16.9101 71.8841 16.9727 71.8883C17.0353 71.8926 17.0946 71.9183 17.1404 71.9613C17.1862 72.0042 17.2157 72.0617 17.224 72.1239C17.36 72.5239 17.492 72.9239 17.624 73.3839C17.752 73.1159 17.852 72.8999 17.96 72.6879C18.156 72.3279 18.424 72.2519 18.62 72.7399C18.7343 73.1338 18.8898 73.5146 19.084 73.8759C19.0993 73.8948 19.1108 73.9165 19.1177 73.9398C19.1246 73.9631 19.1268 73.9876 19.1242 74.0118C19.1216 74.0359 19.1142 74.0594 19.1025 74.0807C19.0908 74.102 19.075 74.1208 19.056 74.1359C18.972 74.2079 18.892 74.1359 18.828 74.0959C18.552 73.8599 18.448 73.2479 18.272 73.0639Z" fill="#B1F1FF"/>
<path d="M7.08394 65.6C7.25245 65.3189 7.37785 65.0142 7.45594 64.696C7.56794 64.372 7.83194 64.252 8.03594 64.664C8.23439 65.0136 8.36978 65.3954 8.43594 65.792C8.47194 66.1 8.32794 66.064 8.23194 65.884C7.98394 65.42 7.86394 65.012 7.73594 65.34C7.63994 65.588 7.52394 65.824 7.41594 66.068C7.35594 66.196 7.27994 66.32 7.12394 66.324C6.96794 66.328 6.89194 66.204 6.82394 66.08C6.67048 65.7605 6.53689 65.4319 6.42394 65.096C6.16794 65.688 5.94794 66.208 5.71994 66.724C5.45994 67.304 5.35194 66.888 5.41594 66.6C5.47994 66.312 6.06394 64.864 6.17594 64.6C6.28794 64.336 6.53994 64.224 6.70794 64.6C6.80497 64.9433 6.93075 65.2778 7.08394 65.6Z" fill="#B1F1FF"/>
<path d="M60.5639 7.01995C60.2847 7.26464 60.0265 7.53224 59.7919 7.81995C59.6999 7.91195 59.6079 8.06795 59.4559 7.92795C59.3039 7.78795 59.4559 7.69195 59.5239 7.59995C59.7886 7.17786 60.1149 6.79767 60.4919 6.47195C60.7919 6.23995 60.9359 6.30395 60.9839 6.66795C61.0319 7.03195 61.0439 7.06795 61.4159 6.87995C61.6359 6.75595 61.8559 6.47995 62.1279 6.63995C62.3999 6.79995 62.3039 7.13195 62.3159 7.39995C62.3279 7.66795 62.3159 7.90795 62.3159 8.16395C62.3159 8.30795 62.2919 8.49995 62.1079 8.50795C61.9239 8.51595 61.9039 8.29595 61.8879 8.17195C61.8695 7.9056 61.8695 7.6383 61.8879 7.37195C61.8879 6.97195 61.6239 7.31595 61.2279 7.55995C60.7439 7.85995 60.7159 7.55595 60.5639 7.01995Z" fill="#B1F1FF"/>
<path d="M35.9719 6.43995C35.7759 6.70795 35.6199 6.91595 35.4679 7.12795C35.1119 7.61195 34.9319 7.28795 35.0679 7.01995C35.2639 6.67195 35.4679 6.32395 35.6719 5.97995C35.7025 5.91114 35.7534 5.85326 35.8177 5.81398C35.8819 5.77469 35.9566 5.75585 36.0319 5.75995C36.1037 5.77713 36.1694 5.81389 36.2217 5.86614C36.2739 5.91839 36.3107 5.98409 36.3279 6.05595C36.4199 6.33595 36.5199 6.61195 36.6279 6.91595C36.7879 6.81995 36.8399 6.65595 36.9319 6.51595C37.0004 6.3957 37.093 6.29085 37.2039 6.20795C37.3719 6.11195 37.4879 6.15995 37.4599 6.35995C37.3668 6.85291 37.1137 7.30141 36.7399 7.63595C36.5719 7.80395 36.3159 7.68395 36.2319 7.41595C36.1479 7.14795 36.0759 6.81995 35.9719 6.43995Z" fill="#B1F1FF"/>
<path d="M70.5 22.4759C70.6776 22.1124 70.8978 21.7714 71.156 21.4599C71.24 21.3559 71.352 21.2199 71.496 21.3319C71.64 21.4439 71.568 21.5999 71.496 21.7039C71.2385 22.0274 71.0185 22.379 70.84 22.7519C70.716 22.9919 70.472 22.9839 70.236 22.7519C70.0441 22.5217 69.8827 22.2676 69.756 21.9959C69.572 22.2999 69.672 22.8959 69.356 22.8399C69.192 22.8079 69.2 22.6399 69.208 22.5239C69.208 22.1239 69.312 21.7239 69.296 21.2959C69.296 20.9719 69.96 21.4599 70.096 21.6959C70.1984 21.9715 70.334 22.2334 70.5 22.4759Z" fill="#B1F1FF"/>
<path d="M72.4717 37.144L71.9997 37.744C71.9804 37.7767 71.9494 37.8007 71.9129 37.8111C71.8764 37.8215 71.8373 37.8176 71.8037 37.8C71.7793 37.7785 71.7632 37.7491 71.7581 37.717C71.753 37.6849 71.7592 37.652 71.7757 37.624C71.9063 37.2197 72.1187 36.8466 72.3997 36.528C72.4455 36.4673 72.5069 36.42 72.5772 36.3912C72.6476 36.3623 72.7245 36.3529 72.7997 36.364C72.9957 36.412 72.9997 36.58 73.0237 36.74C73.057 37.0981 73.1144 37.4536 73.1957 37.804C73.2317 37.92 73.2437 38.072 73.0797 38.128C72.7877 38.228 72.6317 37.728 72.5797 37.436C72.5706 37.3307 72.5333 37.2299 72.4717 37.144Z" fill="#B1F1FF"/>
<path d="M71.2718 35.9759C71.0678 36.1679 70.9038 36.3359 70.7278 36.4879C70.6358 36.5679 70.5238 36.6719 70.3958 36.5479C70.2678 36.4239 70.3478 36.3239 70.3958 36.2279C70.687 35.8657 71.001 35.5223 71.3358 35.1999C71.3722 35.1595 71.4212 35.1324 71.4748 35.1229C71.5285 35.1135 71.5837 35.1223 71.6318 35.1479C71.6875 35.168 71.735 35.206 71.7668 35.2559C71.7987 35.3059 71.8131 35.3649 71.8078 35.4239C71.7838 35.7799 71.7638 36.1399 71.7238 36.4959C71.7238 36.5999 71.6638 36.7439 71.5198 36.7439C71.3758 36.7439 71.3318 36.4559 71.2718 35.9759Z" fill="#B1F1FF"/>
<path d="M38.7997 6.61191C38.6093 7.05781 38.3381 7.46465 37.9997 7.81191C37.9654 7.84323 37.9209 7.86106 37.8744 7.86209C37.828 7.86311 37.7828 7.84725 37.7471 7.81747C37.7115 7.78768 37.6878 7.74597 37.6806 7.70008C37.6733 7.65419 37.683 7.60723 37.7077 7.56791C37.9277 7.16791 38.1437 6.79991 38.3677 6.41591C38.4357 6.30391 38.5357 6.21591 38.6837 6.27591C38.8317 6.33591 38.8277 6.43991 38.7997 6.61191Z" fill="#B1F1FF"/>
<path d="M72.7997 22.8199C72.7695 22.9045 72.7292 22.985 72.6797 23.0599C72.4273 23.3564 72.1288 23.6103 71.7957 23.8119C71.7736 23.8308 71.7477 23.8448 71.7199 23.8533C71.6921 23.8617 71.6628 23.8643 71.6339 23.8609C71.605 23.8575 71.5771 23.8482 71.552 23.8336C71.5268 23.819 71.505 23.7994 71.4877 23.7759C71.3917 23.6439 71.4877 23.5639 71.5757 23.4839C72.3757 22.7159 72.4717 22.5559 72.6957 22.6199C72.7757 22.6439 72.7997 22.7239 72.7997 22.8199Z" fill="#B1F1FF"/>
<path d="M49.2518 60.668C48.8282 61.5296 48.2334 62.2958 47.5038 62.92C46.7478 63.576 45.9038 64.08 44.8438 63.852C44.3142 63.7468 43.8279 63.4864 43.4468 63.1038C43.0657 62.7213 42.807 62.234 42.7038 61.704C42.4023 60.4507 42.4174 59.142 42.7478 57.896C42.8038 57.672 42.8038 57.496 42.5758 57.372C41.8198 56.9 41.0878 56.388 40.3278 55.924C38.0438 54.528 35.9278 52.904 33.7638 51.316C29.1038 47.88 25.5678 43.876 21.9998 39.42C21.4518 38.736 21.1118 38.132 20.2878 36.9C19.8398 38.208 19.3638 39.388 18.2238 40.296C16.3558 41.784 14.1958 40.364 13.8478 37.144C13.6081 35.1591 14.0164 33.1499 15.0118 31.416C15.4034 30.6932 15.9841 30.0903 16.6918 29.672C16.7323 29.6376 16.7656 29.5955 16.7896 29.5481C16.8136 29.5007 16.828 29.449 16.8318 29.396C17.0998 26.572 17.6078 24.548 19.7998 22.892C21.5748 21.5508 23.7833 20.9139 25.9998 21.104C26.4878 21.136 26.9678 21.204 27.4558 21.228C27.5834 21.2217 27.7043 21.1691 27.7958 21.08C27.9109 20.9577 28.0128 20.8236 28.0998 20.68C27.7278 20.576 27.3838 20.456 27.0278 20.388C26.6067 20.3247 26.2133 20.1394 25.8963 19.8551C25.5792 19.5708 25.3524 19.1998 25.2438 18.788C25.1357 18.3753 24.9244 17.9969 24.6298 17.6883C24.3353 17.3797 23.967 17.1511 23.5598 17.024C22.2078 16.568 21.5598 15.732 21.5598 13.964C21.5598 13.336 21.5078 12.764 21.0158 12.304C20.7838 12.088 21.1198 11.936 21.2638 11.98C21.7198 12.116 22.5278 12.38 22.9758 12.544C22.5758 11.832 22.3718 11.488 22.2678 11.3C22.0758 10.952 22.0318 10.708 22.4598 10.768C23.5318 10.916 24.4118 11.324 24.8598 12.408C25.0861 13.0033 25.4555 13.5338 25.9355 13.9524C26.4155 14.371 26.9912 14.6648 27.6118 14.808C29.0998 15.16 29.6398 16.608 30.1838 17.608C30.224 17.6888 30.2902 17.7536 30.3718 17.792C30.6878 17.936 30.7398 18.08 30.5318 18.376C30.1998 18.8 28.7558 20.8 28.3598 21.348C30.7078 21.908 32.9918 22.52 35.0838 23.64C35.0118 23.516 34.9198 23.36 34.8198 23.212C34.5769 22.7955 34.4798 22.3099 34.5438 21.832C34.5438 21.556 34.7878 21.58 34.9438 21.676C35.5518 22.052 35.4958 22.328 36.2798 22.656C36.9358 22.932 37.6278 23.856 38.3598 24.656C38.4531 24.7593 38.5716 24.8365 38.7038 24.88C39.0859 24.9827 39.4384 25.1738 39.733 25.4378C40.0276 25.7019 40.256 26.0314 40.3998 26.4C40.6078 25.824 40.7998 25.28 40.9958 24.724C41.0238 24.644 40.9198 24.48 40.8318 24.412C39.4838 23.336 13.6878 2.70398 13.3318 2.37198C12.9758 2.03998 13.3878 1.91198 13.5878 2.06398C17.9518 5.35198 40.0478 23.056 41.3318 24.028C41.7958 23.628 42.2078 23.176 42.6798 22.828C44.3558 21.584 46.1678 21.468 48.0958 22.2C50.4358 23.088 51.6038 26.176 50.9758 28.088C50.9323 28.402 50.9176 28.7193 50.9318 29.036C50.8998 29.78 50.7958 30.488 49.9718 30.808C50.0598 31.428 50.6838 31.536 50.9358 31.908C51.9158 31.408 52.8798 30.944 53.8118 30.432C54.6558 29.968 55.4638 29.432 56.3078 28.964C56.7372 28.671 57.2195 28.4645 57.7278 28.356C58.3238 28.292 58.7198 27.884 59.2438 27.724C59.3078 27.724 59.3438 27.604 59.3958 27.54C59.6878 27.164 59.9638 26.776 60.2798 26.424C60.4518 26.228 60.6798 26.024 60.9758 26.212C61.0118 26.212 61.0878 26.184 61.1438 26.164C61.4198 26.048 61.6798 26.02 61.8678 26.32C61.8956 26.3631 61.9383 26.3945 61.9878 26.408C62.0591 26.4159 62.1276 26.4407 62.1874 26.4802C62.2472 26.5198 62.2968 26.5731 62.332 26.6356C62.3672 26.6982 62.387 26.7682 62.3897 26.8399C62.3925 26.9116 62.3781 26.9829 62.3478 27.048C62.7478 27.368 62.7478 27.484 62.4198 28.076C62.4803 28.1509 62.5217 28.2394 62.5406 28.3338C62.5594 28.4283 62.555 28.5258 62.5279 28.6182C62.5008 28.7106 62.4517 28.7951 62.3848 28.8643C62.3179 28.9336 62.2352 28.9856 62.1438 29.016C61.7438 29.216 61.2958 29.384 60.8638 29.548C60.7278 29.6 60.6998 29.696 60.6278 29.804C60.4458 30.0146 60.2342 30.1978 59.9998 30.348C59.9278 30.412 59.8038 30.46 59.7838 30.536C59.4878 31.564 58.6758 31.892 58.1598 32.572C57.0998 33.972 55.3998 34.5 54.6358 34.952C55.4998 35.752 76.9878 53.04 77.1438 53.296C77.3638 53.664 77.0198 53.956 76.4718 53.508C70.2158 48.4 54.3238 35.408 54.1158 35.22L51.2718 36.364C55.8518 40.52 59.6718 45.14 61.9998 50.892C62.1478 50.68 62.2598 50.492 62.3798 50.344C64.2598 47.812 68.5518 49.252 67.8478 55.496C67.7341 56.6016 67.2523 57.6369 66.4798 58.436C66.0342 58.9617 65.4103 59.3046 64.7277 59.3991C64.045 59.4936 63.3515 59.3329 62.7798 58.948C61.8118 60.416 60.7238 62.696 57.5358 62.948C54.0278 63.24 51.4958 61.78 49.2518 60.668ZM38.4878 29.788C38.2265 29.4499 38.0038 29.0836 37.8238 28.696C37.7228 28.373 37.5573 28.0738 37.3373 27.8167C37.1173 27.5595 36.8473 27.3497 36.5438 27.2C36.3429 27.1088 36.166 26.972 36.0271 26.8005C35.8882 26.629 35.7912 26.4275 35.7438 26.212C35.6575 25.8748 35.6145 25.528 35.6158 25.18C35.6158 24.78 35.6598 24.424 35.1718 24.22C34.6838 24.016 34.3158 23.652 33.8518 23.468C32.1118 22.7694 30.3144 22.2233 28.4798 21.836C28.3474 21.792 28.2036 21.7968 28.0745 21.8497C27.9454 21.9025 27.8394 21.9998 27.7758 22.124C27.3118 22.7826 26.8278 23.4266 26.3238 24.056C26.1798 24.24 25.5838 24.28 26.0238 23.564C26.1998 23.284 26.5678 22.764 27.3358 21.692C25.1812 21.3224 22.9649 21.6888 21.0438 22.732C19.7183 23.425 18.6738 24.5558 18.0878 25.932C17.6558 27.0477 17.3864 28.2197 17.2878 29.412C17.3065 29.4249 17.3267 29.4357 17.3478 29.444C17.6869 29.3778 18.0372 29.3972 18.3669 29.5006C18.6966 29.604 18.9952 29.788 19.2358 30.036C20.3118 31.036 20.3478 32.132 20.7318 33.988C21.1038 34.06 21.5518 34.132 21.9878 34.244C22.1078 34.276 22.2718 34.424 22.2798 34.532C22.3198 35.004 22.1078 35.204 21.6318 35.208H20.6278C20.5518 35.648 20.3838 36.144 20.6278 36.476C23.6398 40.844 23.1238 39.948 23.9438 40.94C26.8427 44.5367 30.1503 47.7838 33.7998 50.616C36.7758 52.86 39.8318 54.972 42.9998 56.892C43.7358 55.372 44.3198 53.744 46.0278 52.684C46.9518 52.112 48.1878 52.056 48.9278 52.76C49.7505 53.4819 50.2858 54.4758 50.4358 55.56C50.4679 56.1462 50.4679 56.7338 50.4358 57.32C50.8078 57.352 51.1958 57.396 51.5838 57.424C52.1358 57.464 51.8358 57.972 51.7158 58.432C51.6678 58.616 51.5678 58.656 51.3838 58.628C51.0478 58.584 50.7078 58.56 50.3718 58.544C50.2918 58.544 50.1518 58.576 50.1318 58.628C49.9038 59.18 49.6918 59.74 49.4678 60.312C50.5718 60.784 51.6438 61.26 52.7358 61.696C54.5358 62.4072 56.5041 62.5782 58.3998 62.188C59.9598 61.888 60.9358 60.796 61.7358 59.532C62.4494 58.3137 62.7602 56.9013 62.6238 55.496C62.549 54.489 62.3266 53.4984 61.9638 52.556C60.3241 47.9764 57.7341 43.7955 54.3638 40.288C53.2078 39.06 52.0398 37.848 50.8478 36.596L49.7438 37.136C50.3928 38.0876 50.6611 39.2481 50.4958 40.388C50.3438 41.824 49.5278 42.6 48.1718 42.732C46.7439 42.8442 45.3175 42.4981 44.0998 41.744C42.0616 40.5427 40.1806 39.093 38.4998 37.428C37.7508 36.6821 37.0494 35.8899 36.3998 35.056C36.1833 34.7852 36.0306 34.469 35.9531 34.1311C35.8755 33.7932 35.8751 33.4421 35.9518 33.104C36.2198 31.544 37.1998 30.512 38.4878 29.788ZM48.7198 39.66C48.6158 39.26 48.4838 38.836 48.3918 38.396C48.3287 38.2068 48.3302 38.002 48.3961 37.8138C48.462 37.6255 48.5885 37.4645 48.7558 37.356C50.6318 36.188 50.0838 36.624 55.1878 34.276C57.7158 33.112 57.8358 32.196 58.3358 31.82C58.9998 31.316 59.5358 30.732 59.5838 29.844C59.5838 29.804 59.6478 29.732 59.6758 29.736C59.7049 29.7392 59.733 29.7484 59.7584 29.7628C59.7839 29.7772 59.8061 29.7967 59.8238 29.82C59.8567 29.8936 59.8783 29.9719 59.8878 30.052L60.3238 29.732C59.9478 29.18 59.5838 28.652 59.1998 28.096L58.7078 28.424C58.7878 28.552 58.7438 28.424 58.8758 28.888C58.7518 28.864 58.5958 28.888 58.5118 28.804C58.4186 28.7231 58.302 28.674 58.179 28.664C58.056 28.6539 57.933 28.6833 57.8278 28.748C53.9958 30.576 55.4958 29.992 51.2598 32.196C49.5318 33.092 49.8278 32.908 49.1358 33.244C48.3632 33.6608 47.561 34.0204 46.7358 34.32C46.5858 34.3588 46.4566 34.4542 46.3753 34.5862C46.294 34.7182 46.267 34.8765 46.2998 35.028C46.3231 35.1831 46.3002 35.3417 46.2341 35.4839C46.1679 35.6261 46.0614 35.7458 45.9278 35.828C45.3718 36.268 44.5678 36.096 43.9678 35.704C43.5958 35.46 43.2558 35.172 42.9038 34.904C42.4478 34.548 41.9478 34.232 41.7918 33.704C40.8478 33.744 39.9398 33.812 39.0278 33.82C38.7141 33.817 38.4053 33.8977 38.1332 34.0538C37.8611 34.2099 37.6356 34.4357 37.4798 34.708C37.3612 34.8352 37.2932 35.0015 37.2888 35.1754C37.2844 35.3493 37.3438 35.5189 37.4558 35.652C38.3867 36.7304 39.3947 37.7397 40.4718 38.672L40.3038 37.248C40.2438 36.732 40.5838 37.212 40.6318 37.612C41.2558 37.152 40.8238 37.872 40.8238 38.012C40.8238 38.308 40.6878 38.756 40.8918 38.928C41.9075 39.8154 43.0152 40.5919 44.1958 41.244C44.5958 41.464 44.7798 41.416 45.1198 41.096C45.4905 40.7217 45.8919 40.3792 46.3198 40.072C46.577 39.935 46.8609 39.8558 47.1518 39.84C47.3438 39.812 47.5518 39.904 47.7438 39.876C48.0678 39.832 48.3998 39.732 48.7198 39.66ZM42.8918 59.936C42.8385 60.8008 43.0416 61.6622 43.4758 62.412C43.5769 62.6127 43.7179 62.7907 43.8903 62.9349C44.0626 63.0792 44.2627 63.1866 44.4781 63.2507C44.6935 63.3147 44.9198 63.3341 45.143 63.3075C45.3661 63.2809 45.5815 63.2089 45.7758 63.096C46.2514 62.8646 46.681 62.5488 47.0438 62.164C47.8831 61.2519 48.5286 60.1789 48.9411 59.0101C49.3537 57.8412 49.5247 56.6008 49.4438 55.364C49.4162 54.6161 49.1577 53.8951 48.7038 53.3C48.5034 53.0391 48.2292 52.8443 47.9169 52.7409C47.6045 52.6375 47.2684 52.6302 46.9518 52.72C46.2598 52.9426 45.6462 53.3591 45.1838 53.92C43.7168 55.5817 42.9024 57.7193 42.8918 59.936ZM50.6758 27.936C50.6758 27.716 50.7318 27.456 50.7318 27.196C50.7579 26.4303 50.6103 25.6687 50.2999 24.9683C49.9895 24.2679 49.5245 23.647 48.9398 23.152C48.0723 22.4487 46.98 22.0823 45.8638 22.12C45.0695 22.1268 44.288 22.3214 43.5831 22.6877C42.8782 23.0541 42.2699 23.5818 41.8078 24.228C41.145 25.1612 40.757 26.2615 40.6878 27.404C40.7972 27.4447 40.9095 27.4767 41.0238 27.5C42.3438 27.696 43.6318 28.024 44.9958 27.96C46.8598 27.86 48.7278 27.924 50.6758 27.924V27.936ZM14.1678 36.272C14.2158 36.636 14.2598 37.232 14.3838 37.808C14.5115 38.668 14.936 39.4562 15.5838 40.036C16.1038 40.46 16.8998 40.712 17.5518 39.892C18.1818 39.1079 18.6889 38.2325 19.0558 37.296C19.9718 34.944 19.9998 31.6 18.5878 30.272C18.0278 29.748 17.4838 29.56 16.7958 30.052C16.3942 30.3253 16.0356 30.6569 15.7318 31.036C14.6078 32.508 14.2398 34.232 14.1678 36.272ZM21.7678 12.496C21.8118 12.944 21.8838 13.384 21.9038 13.828C21.9918 15.66 22.4878 16.196 23.7038 16.628C23.8518 16.684 23.9878 16.768 24.1358 16.824C24.656 17.033 25.0824 17.424 25.3358 17.924C25.4616 18.1697 25.5673 18.4252 25.6518 18.688C25.747 18.9929 25.9187 19.2684 26.1504 19.4883C26.3822 19.7081 26.6663 19.865 26.9758 19.944C27.3758 20.044 27.7558 20.136 28.1398 20.252C28.2069 20.281 28.2825 20.2831 28.3511 20.2577C28.4196 20.2324 28.4758 20.1816 28.5078 20.116C28.9772 19.46 29.4518 18.8093 29.9318 18.164C29.981 18.109 30.0082 18.0378 30.0082 17.964C30.0082 17.8902 29.981 17.819 29.9318 17.764C29.3118 16.728 28.8678 15.44 27.4998 15.076C26.9839 14.9204 26.4914 14.6957 26.0358 14.408C25.2358 13.928 24.8358 13.124 24.4358 12.32C24.2675 11.9772 24.0109 11.6853 23.6924 11.4744C23.374 11.2636 23.0052 11.1412 22.6238 11.12C23.0518 12 23.2478 12.4 23.3278 12.58C23.4638 12.908 23.3598 13.084 23.0118 12.98C22.8678 12.928 22.5718 12.8 21.7638 12.496H21.7678ZM63.0598 54.04C63.6038 54.004 64.1398 53.956 64.6598 53.936C64.7478 53.936 64.9158 54.024 64.9198 54.08C64.9198 54.308 64.9718 54.816 64.7438 54.848C64.2838 54.912 63.8238 54.964 63.3678 55.048C63.3211 55.065 63.2796 55.0939 63.2474 55.1317C63.2151 55.1696 63.1932 55.2152 63.1838 55.264C63.2538 56.292 63.1538 57.3245 62.8878 58.32C62.8799 58.3616 62.8816 58.4045 62.8927 58.4453C62.9038 58.4862 62.924 58.524 62.9518 58.556C63.8718 59.404 65.3518 59.12 66.2478 57.476C67.0268 56.0364 67.292 54.3745 66.9998 52.764C66.8868 51.7853 66.4537 50.8713 65.7678 50.164C65.4619 49.8228 65.0351 49.6144 64.5779 49.583C64.1208 49.5517 63.6694 49.6998 63.3198 49.996C62.9263 50.3598 62.5699 50.7617 62.2558 51.196C62.2302 51.2397 62.2144 51.2884 62.2096 51.3389C62.2047 51.3893 62.211 51.4402 62.2278 51.488C62.5078 52.34 62.7998 53.2 63.0598 54.04ZM45.2838 33.96C45.5358 33.36 46.0078 33.288 46.5398 33.348C46.8038 33.376 47.0678 33.388 47.3398 33.44C48.6518 33.692 50.1718 32.068 49.6598 30.836H49.3718C49.2984 31.0029 49.1984 31.1569 49.0758 31.292C48.9158 31.408 48.3438 31.292 48.0678 31.12C47.8838 31.016 47.8318 30.904 48.1318 30.948L48.7798 31.048C48.9278 31.072 49.0278 31.092 48.8598 30.884L47.9518 29.732C47.9014 29.8964 47.8358 30.0557 47.7558 30.208C47.636 30.4735 47.4631 30.7117 47.2478 30.908C47.0219 31.0478 46.7657 31.1314 46.5007 31.1516C46.2358 31.1719 45.9699 31.1283 45.7253 31.0244C45.4807 30.9205 45.2647 30.7595 45.0953 30.5548C44.9259 30.3501 44.8081 30.1077 44.7518 29.848C44.6838 29.584 44.6398 29.316 44.5798 29.048L43.8998 28.988C43.8478 29.52 43.8158 30.024 43.7438 30.524C43.6718 31.024 43.7958 31.612 43.1678 31.78L43.1078 32.876L45.2838 33.96ZM34.9518 22.184C34.9255 22.3839 34.9457 22.5872 35.0109 22.7781C35.0761 22.9689 35.1846 23.142 35.3278 23.284C35.5858 23.5783 35.7819 23.9217 35.9042 24.2935C36.0266 24.6653 36.0727 25.0579 36.0398 25.448C36.009 25.7471 36.0737 26.0483 36.2246 26.3084C36.3755 26.5686 36.6049 26.7742 36.8798 26.896C37.1902 27.0489 37.466 27.2637 37.6902 27.5271C37.9145 27.7906 38.0825 28.0972 38.1838 28.428C38.3166 28.7938 38.5364 29.1219 38.8242 29.3839C39.1119 29.6459 39.4591 29.834 39.8358 29.932C40.0919 29.9686 40.3518 29.9686 40.6078 29.932C40.5078 29.416 40.4158 28.984 40.3438 28.548C40.2509 28.2508 40.2209 27.9374 40.2558 27.628C40.3323 27.4042 40.3209 27.1597 40.2238 26.944C39.8878 26.184 39.4678 25.52 38.5918 25.288C38.0598 25.148 37.8318 24.624 36.8078 23.564C36.5823 23.3498 36.3342 23.1607 36.0678 23C35.8358 22.844 35.5758 22.736 35.3438 22.576C35.203 22.4559 35.0719 22.3248 34.9518 22.184ZM44.8798 28.232C44.928 28.9382 45.0971 29.631 45.3798 30.28C45.493 30.4748 45.6612 30.6319 45.8633 30.7315C46.0654 30.8312 46.2924 30.8689 46.5158 30.84C46.7484 30.8428 46.9747 30.7645 47.1558 30.6185C47.3368 30.4725 47.4613 30.2679 47.5078 30.04C47.5796 29.8426 47.6943 29.6636 47.8438 29.516C47.8867 29.4881 47.9358 29.4712 47.9868 29.467C48.0378 29.4628 48.089 29.4714 48.1358 29.492C48.3798 29.752 48.5958 30.036 48.8198 30.292C48.8878 30.372 48.9398 30.484 49.0278 30.524C49.2742 30.6226 49.549 30.6233 49.7959 30.5258C50.0428 30.4284 50.2431 30.2403 50.3558 30C50.4958 29.476 50.5438 28.932 50.6358 28.372L44.8798 28.232ZM40.7718 28.452C40.8718 28.948 40.9958 29.4 41.0518 29.856C41.1878 30.96 41.9398 31.292 42.9318 31.336C42.9806 31.3447 43.0306 31.3427 43.0785 31.3301C43.1264 31.3175 43.1709 31.2946 43.209 31.2629C43.2471 31.2313 43.2778 31.1918 43.299 31.147C43.3202 31.1023 43.3314 31.0535 43.3318 31.004C43.4238 30.452 43.5118 29.9 43.5998 29.348C43.6438 29.084 43.5998 28.896 43.2598 28.9C43.0919 28.8881 42.9256 28.8586 42.7638 28.812L40.7718 28.452ZM42.3078 33.448C42.1038 33.66 42.0718 33.708 42.3078 33.888C42.9838 34.46 43.6718 35.028 44.3918 35.54C44.6566 35.6919 44.9587 35.7668 45.2638 35.756C45.3587 35.7676 45.4549 35.7585 45.5459 35.7294C45.6369 35.7002 45.7205 35.6515 45.7909 35.5869C45.8612 35.5222 45.9167 35.443 45.9535 35.3548C45.9903 35.2666 46.0074 35.1715 46.0038 35.076L45.6038 35.132C45.2758 35.176 45.2478 35.084 45.5518 34.94L46.1158 34.668C45.5678 34.424 43.8878 33.588 43.1518 33.192C42.8838 33.044 42.7238 33.044 42.5238 33.284L43.3238 34.032C43.4438 34.144 43.3918 34.284 43.2238 34.152L42.3078 33.448ZM47.9598 41.416C47.9764 41.4046 47.9897 41.3889 47.9981 41.3706C48.0066 41.3523 48.0099 41.332 48.0078 41.312C48.0054 41.2921 47.9979 41.2731 47.986 41.257C47.974 41.2409 47.9581 41.2281 47.9398 41.22C47.7638 41.156 47.6558 41.32 47.5398 41.332C47.2678 41.36 47.3198 41.184 47.4078 41.104C47.4958 41.024 47.6798 40.904 47.8078 40.792C47.8598 40.748 47.8078 40.54 47.6558 40.628C47.5038 40.716 47.4398 40.8 47.3198 40.864C47.1998 40.928 46.9598 40.924 47.1798 40.676C47.2751 40.579 47.3752 40.4869 47.4798 40.4C47.6318 40.26 47.5998 40.204 47.3638 40.212C47.1495 40.1955 46.9344 40.2298 46.7358 40.312C46.1038 40.712 45.5118 41.144 44.8558 41.6C45.6396 42.028 46.5149 42.2613 47.4078 42.28C47.6358 42.28 47.7158 42.192 47.7398 42.02C47.7417 42.0072 47.7401 41.9941 47.7352 41.9821C47.7302 41.9702 47.7222 41.9598 47.7118 41.952C47.701 41.9452 47.6886 41.9417 47.6758 41.9417C47.6631 41.9417 47.6506 41.9452 47.6398 41.952C47.6092 41.9639 47.5767 41.9707 47.5438 41.972C47.2958 41.972 47.2478 41.868 47.4398 41.708C47.5229 41.6627 47.6099 41.6253 47.6998 41.596C47.7718 41.536 47.8598 41.48 47.9598 41.416ZM19.1398 30.564C19.4702 31.0973 19.7032 31.6851 19.8278 32.3C20.069 33.332 20.1098 34.4006 19.9478 35.448C19.6772 36.9299 19.0831 38.3339 18.2078 39.56C17.8078 40.096 18.3358 39.864 18.3758 39.82C19.4094 38.3408 20.0495 36.6229 20.2358 34.828C20.4343 33.3089 20.0778 31.7692 19.2318 30.492C18.9758 30.128 18.9158 30.184 19.1398 30.564ZM60.4958 29.364L61.2958 29.104C61.4678 28.468 60.8958 28.304 60.5998 28.048C60.4038 27.872 60.3558 27.764 60.4598 27.556C60.4998 27.48 60.5638 27.396 60.5558 27.324C60.5118 26.988 60.6478 26.924 60.9558 27.092C60.9558 26.828 61.0078 26.984 60.8158 26.524C60.4158 26.764 60.7558 26.4 59.7198 27.7C59.6465 27.7839 59.6088 27.8932 59.6148 28.0045C59.6208 28.1158 59.6699 28.2204 59.7518 28.296C59.9998 28.62 60.2318 28.976 60.4958 29.344V29.364ZM49.5438 54.28C49.9718 55.608 49.6958 57.408 49.3638 58.6C48.9524 60.0826 48.1593 61.4315 47.0638 62.512C46.8998 62.668 46.9158 63.164 47.2918 62.796C48.6775 61.4337 49.6211 59.6859 49.9998 57.78C50.2935 56.5837 50.2082 55.3257 49.7558 54.18C49.7537 54.1603 49.7469 54.1415 49.736 54.125C49.7251 54.1085 49.7104 54.0949 49.6932 54.0852C49.676 54.0755 49.6567 54.0701 49.6369 54.0694C49.6172 54.0687 49.5975 54.0728 49.5796 54.0812C49.5618 54.0896 49.5462 54.1022 49.5341 54.1179C49.5221 54.1336 49.514 54.1519 49.5105 54.1714C49.507 54.1908 49.5082 54.2108 49.514 54.2297C49.5198 54.2486 49.53 54.2658 49.5438 54.28ZM40.2478 31.404C40.2083 31.3904 40.1657 31.3889 40.1253 31.3995C40.0849 31.4101 40.0485 31.4324 40.0208 31.4635C39.993 31.4947 39.975 31.5334 39.9692 31.5748C39.9633 31.6161 39.9698 31.6583 39.9878 31.696C40.081 31.9138 40.1866 32.1261 40.3038 32.332C40.5518 32.768 41.0558 32.86 41.5038 32.972C41.5926 32.9859 41.683 32.9859 41.7718 32.972C41.5455 32.8356 41.3302 32.6818 41.1278 32.512C41.1136 32.4937 41.1058 32.4712 41.1058 32.448C41.1058 32.4248 41.1136 32.4023 41.1278 32.384C41.1431 32.367 41.1637 32.3557 41.1863 32.3521C41.2089 32.3484 41.232 32.3526 41.2518 32.364C41.8918 32.764 41.8638 32.74 42.0158 32.584C41.8518 32.436 41.6918 32.284 41.5238 32.136C41.3743 31.9599 41.199 31.8075 41.0038 31.684C40.757 31.5773 40.5046 31.4839 40.2478 31.404ZM44.5278 28.368C40.1278 27.68 40.7158 27.76 40.5278 27.78C40.4798 28.028 40.6398 28.088 40.8158 28.124C42.0452 28.4117 43.2917 28.6201 44.5478 28.748L44.5278 28.368ZM48.2038 40.744C48.8038 40.492 49.3318 40.716 49.8038 41.144C49.8975 41.0122 49.9754 40.8699 50.0358 40.72C49.7407 40.4838 49.4099 40.2961 49.0558 40.164C48.8687 40.0943 48.6686 40.0665 48.4696 40.0824C48.2706 40.0983 48.0775 40.1575 47.9038 40.256L48.2038 40.744ZM67.1998 57.084C68.0798 55.372 67.7278 52.096 66.9998 50.84C66.8918 50.656 66.5718 50.612 66.7038 50.908C67.1298 51.8664 67.3586 52.9007 67.3764 53.9494C67.3943 54.9981 67.2009 56.0396 66.8078 57.012C66.7518 57.156 67.0638 57.348 67.1998 57.084ZM48.3998 41.028L47.9998 42.284C48.3118 42.224 48.6558 42.332 48.7638 42.032C48.8382 41.7026 48.8731 41.3656 48.8678 41.028H48.3998ZM63.1518 54.764L64.5998 54.612C64.6638 54.368 64.5998 54.248 64.3638 54.268L63.1118 54.388L63.1518 54.764ZM21.9598 34.48C21.5598 34.392 21.0758 34.404 20.6918 34.316V34.904C21.3958 34.904 21.8358 34.904 21.9438 34.904C21.9897 34.7671 21.9953 34.6199 21.9598 34.48ZM51.4718 57.792L50.3238 57.668L50.2318 58.196C50.4977 58.1668 50.766 58.1668 51.0318 58.196C51.3798 58.288 51.4678 58.124 51.4718 57.792ZM46.1678 34.128L47.2158 33.728C46.6918 33.728 46.1958 33.476 45.6998 33.812L46.1678 34.128ZM61.9478 26.68C61.832 26.905 61.6982 27.1204 61.5478 27.324C61.3998 27.508 61.1998 27.652 61.0318 27.824C60.9878 27.868 60.9918 27.952 60.9638 28.06C61.7198 27.7 62.2038 27.008 61.9478 26.68ZM61.4278 28.28C61.5398 28.372 61.9598 28.152 62.2278 27.768C62.4158 27.5 62.4158 27.476 62.3198 27.456L61.4278 28.28ZM49.8038 32.528L50.6038 32.176L50.0918 31.776L49.8038 32.528ZM61.1998 27.372C61.3478 27.104 61.4878 26.868 61.5998 26.62C61.6062 26.5811 61.6026 26.5412 61.5893 26.5041C61.576 26.4671 61.5535 26.434 61.5238 26.408C61.4884 26.3904 61.4494 26.3812 61.4098 26.3812C61.3703 26.3812 61.3312 26.3904 61.2958 26.408C61.1718 26.5 61.1998 26.696 61.1998 27.372ZM61.5318 28.744C61.9318 28.868 62.2718 28.632 62.2198 28.272L61.5318 28.744ZM41.9318 33.316C41.936 33.3311 41.9436 33.3451 41.954 33.3569C41.9644 33.3686 41.9773 33.3779 41.9918 33.384C42.0061 33.391 42.0219 33.3947 42.0378 33.3947C42.0538 33.3947 42.0695 33.391 42.0838 33.384C42.2819 33.2794 42.4468 33.1214 42.5598 32.928C42.5696 32.9102 42.5748 32.8903 42.5748 32.87C42.5748 32.8497 42.5696 32.8297 42.5598 32.812C42.5494 32.7948 42.5348 32.7806 42.5172 32.7708C42.4997 32.761 42.4799 32.7559 42.4598 32.756C42.3853 32.756 42.3116 32.7708 42.2429 32.7997C42.1742 32.8285 42.112 32.8708 42.0598 32.924C42.0063 32.9731 41.9654 33.0343 41.9403 33.1025C41.9153 33.1707 41.9069 33.2439 41.9158 33.316H41.9318Z" fill="#282828"/>
<path d="M33.5998 77.6319C1.52376 51.1119 3.26376 52.5839 2.86376 52.1399C2.83881 52.1195 2.81814 52.0943 2.80293 52.0658C2.78772 52.0373 2.77826 52.0061 2.7751 51.974C2.77195 51.9419 2.77515 51.9094 2.78453 51.8785C2.79391 51.8476 2.80928 51.8189 2.82976 51.7939C2.85025 51.769 2.87545 51.7483 2.90392 51.7331C2.9324 51.7179 2.96359 51.7084 2.99572 51.7053C3.02785 51.7021 3.06029 51.7053 3.09118 51.7147C3.12207 51.7241 3.15081 51.7395 3.17576 51.7599C3.97576 52.2919 34.1518 77.2239 34.1958 77.2559C34.7998 77.7599 34.5318 78.3999 33.5998 77.6319Z" fill="#282828"/>
<path d="M24.2759 51.2C24.4457 51.2459 24.6075 51.3174 24.7559 51.412C25.6239 52.156 26.4919 52.908 27.3359 53.68C31.3719 57.364 39.5519 64.88 39.6119 64.92C40.0599 65.364 39.6119 65.784 39.1799 65.408C39.1319 65.368 25.5559 52.8079 24.6639 51.9479C24.4859 51.7528 24.3215 51.5456 24.1719 51.328L24.2759 51.2Z" fill="#282828"/>
<path d="M22.4798 45.288C22.9558 45.62 21.3798 44.2 36.1238 57.156C36.2539 57.2486 36.3663 57.3637 36.4558 57.496C36.4846 57.5523 36.4996 57.6147 36.4996 57.678C36.4996 57.7413 36.4846 57.8036 36.4558 57.86C36.346 57.928 36.2141 57.951 36.0878 57.924C36.0078 57.924 35.9318 57.824 35.8598 57.76C21.6238 45.148 22.5158 46 22.2398 45.6C22.1358 45.432 22.2438 45.272 22.4798 45.288Z" fill="#282828"/>
<path d="M13.4956 10.232C14.3676 10.972 23.1996 18.628 23.1996 18.652C23.6396 19.052 23.2436 19.452 22.8196 19.084C21.3996 17.824 13.2636 10.584 13.0236 10.332C12.7836 10.08 13.0076 9.81604 13.4956 10.232Z" fill="#282828"/>
<path d="M10.7276 4.26402C20.1876 12.664 19.8917 12.396 19.9276 12.484C20.1356 12.916 19.6757 12.988 19.3957 12.732C9.84765 4.04402 10.4796 4.64002 10.2756 4.40002C10.1756 4.25602 10.2716 3.85602 10.7276 4.26402Z" fill="#282828"/>
<path d="M5.04782 29.832C5.15182 29.912 5.28782 29.992 5.39982 30.096C6.31982 30.976 12.9998 37.448 12.9998 37.468C13.1398 37.608 13.2438 37.772 13.0798 37.94C12.9158 38.108 12.7438 38.048 12.5878 37.888C12.1878 37.488 7.25182 32.632 5.19982 30.608C5.06229 30.4756 4.94018 30.328 4.83582 30.168C4.73182 30 4.81982 29.892 5.04782 29.832Z" fill="#282828"/>
<path d="M6.98781 28.52C7.14186 28.6049 7.29018 28.6998 7.43181 28.804C7.59981 28.956 12.3638 33.116 12.3998 33.2C12.4478 33.34 12.5238 33.536 12.4678 33.636C12.3518 33.836 12.1558 33.764 12.0078 33.636C11.5718 33.236 8.40782 30.308 7.23982 29.236C7.11961 29.1329 7.01812 29.0097 6.93982 28.872C6.89582 28.8 6.95981 28.668 6.98781 28.52Z" fill="#282828"/>
<path d="M45.9356 58.444C45.5596 58.844 44.9236 57.984 45.4516 57.504C45.9796 57.024 46.6236 57.712 45.9356 58.444Z" fill="#282828"/>
<path d="M46.9916 31.7079C47.0756 31.4079 47.2356 31.3879 47.4796 31.5479C47.6499 31.6528 47.8262 31.7476 48.0076 31.8319C48.2356 31.9479 48.2956 32.1159 48.1356 32.3199C47.9828 32.5357 47.8026 32.7307 47.5996 32.8999C47.1716 33.2279 46.8276 32.9839 46.8316 32.4999C46.8509 32.2302 46.9047 31.964 46.9916 31.7079ZM47.5236 32.6959C47.6516 32.5119 47.8516 32.2399 47.9236 32.1279L47.2316 31.7519C47.1756 31.9319 47.1116 32.2519 47.0596 32.4799C47.0036 32.7719 47.3236 32.9719 47.5236 32.6959Z" fill="#282828"/>
<path d="M45.4399 28.444C45.8421 28.4226 46.2453 28.4521 46.6399 28.532C46.8079 28.568 46.8359 28.852 46.5959 28.816C46.1959 28.756 45.7959 28.688 45.4279 28.616C45.1999 28.58 45.1159 28.448 45.4399 28.444Z" fill="#282828"/>
<path d="M49.0959 29.2C49.1122 29.1553 49.1418 29.1166 49.1808 29.0893C49.2198 29.062 49.2663 29.0474 49.3139 29.0474C49.3615 29.0474 49.4079 29.062 49.4469 29.0893C49.4859 29.1166 49.5156 29.1553 49.5319 29.2C49.6439 29.368 49.6479 29.944 49.2919 29.94C48.9359 29.936 49.0559 29.284 49.0959 29.2Z" fill="#282828"/>
<path d="M46.0959 29.0399C46.1095 28.9941 46.137 28.9537 46.1745 28.9241C46.212 28.8945 46.2577 28.8772 46.3054 28.8746C46.3531 28.872 46.4005 28.8842 46.441 28.9094C46.4815 28.9347 46.5133 28.9719 46.5319 29.0159C46.6439 29.1839 46.6479 29.7639 46.2919 29.7559C45.9359 29.7479 46.0559 29.1199 46.0959 29.0399Z" fill="#282828"/>
<path d="M49.2357 28.576C49.4717 28.504 49.7117 28.436 49.9517 28.388C49.9931 28.3827 50.0349 28.394 50.0679 28.4195C50.1009 28.4451 50.1224 28.4826 50.1277 28.524C50.133 28.5654 50.1217 28.6072 50.0961 28.6402C50.0706 28.6732 50.0331 28.6947 49.9917 28.7C49.8997 28.732 49.7197 28.772 49.3037 28.872C49.1517 28.912 48.9517 28.668 49.2357 28.576Z" fill="#282828"/>
<path d="M17.1718 34.9453C17.2279 34.5204 17.0692 34.149 16.8174 34.1158C16.5655 34.0825 16.3158 34.4 16.2598 34.8249C16.2037 35.2498 16.3624 35.6212 16.6142 35.6544C16.8661 35.6877 17.1158 35.3702 17.1718 34.9453Z" fill="#282828"/>
</svg>
