<svg width="967" height="911" viewBox="0 0 967 911" fill="none" xmlns="http://www.w3.org/2000/svg">
<path d="M584.103 -392.189C476.969 -315.361 327.226 -104.135 326.929 101.405C326.567 352.52 372.627 436.693 312.36 601.899C235.549 812.457 -32.7807 603.649 -145.57 560.04C-258.36 516.431 -380.271 377.376 -625.129 615.29C-821.015 805.622 -589.311 889.659 -448.973 907.886C-450.108 807.563 -396.238 616.743 -171.673 656.043C109.033 705.168 154.251 580.858 171.653 495.905C181.199 383.568 155.853 220.663 183.457 136.185C237.977 -30.6682 353.806 -110.613 400.21 -143.713C703.719 -327.175 943.467 44.4613 963.982 -10.2972" stroke="#D6F0FF" stroke-width="5"/>
</svg>
