<svg width="547" height="1263" viewBox="0 0 547 1263" fill="none" xmlns="http://www.w3.org/2000/svg">
<path d="M-600.597 -65.2196C-539.428 51.5641 -351.097 229.246 -147.599 258.146C101.022 293.454 190.786 259.556 345.997 342.229C543.816 447.596 299.695 684.254 240.813 789.877C181.932 895.5 27.2635 996.871 228.785 1272.46C390.002 1492.93 505.468 1275.17 543.049 1138.74C443.544 1125.9 262.079 1046 332.25 829.086C419.963 557.949 303.156 495.871 221.452 466.814C111.536 441.728 -53.3107 444.155 -133.125 405.063C-290.766 327.852 -353.813 202.024 -380.133 151.464C-519.568 -174.624 -118.183 -360.316 -169.553 -388.253" stroke="#D6F0FF" stroke-width="5"/>
</svg>
