<svg width="1046" height="1140" viewBox="0 0 1046 1140" fill="none" xmlns="http://www.w3.org/2000/svg">
<path d="M2.40271 -295.22C63.5722 -178.436 251.903 -0.753656 455.401 28.1459C704.022 63.4535 793.786 29.5564 948.997 112.229C1146.82 217.596 902.695 454.254 843.813 559.877C784.931 665.5 630.263 766.871 831.784 1042.46C993.001 1262.93 1108.47 1045.17 1146.05 908.738C1046.54 895.9 865.079 815.996 935.25 599.086C1022.96 327.949 906.155 265.871 824.452 236.814C714.536 211.728 549.689 214.155 469.875 175.063C312.233 97.8515 249.187 -27.9761 222.867 -78.5357C83.4314 -404.624 484.817 -590.316 433.446 -618.253" stroke="#D6F0FF" stroke-width="5"/>
</svg>
