<svg width="869" height="1114" viewBox="0 0 869 1114" fill="none" xmlns="http://www.w3.org/2000/svg">
<path d="M2.40296 -321.22C63.5725 -204.436 251.903 -26.7537 455.401 2.14589C704.022 37.4535 793.786 3.55643 948.997 86.2291C1146.82 191.596 902.695 428.254 843.813 533.877C784.932 639.5 630.264 740.871 831.785 1016.46C993.002 1236.93 1108.47 1019.17 1146.05 882.738C1046.54 869.9 865.079 789.996 935.25 573.086C1022.96 301.949 906.156 239.871 824.452 210.814C714.536 185.728 549.689 188.155 469.875 149.063C312.234 71.8515 249.187 -53.9761 222.867 -104.536C83.4317 -430.624 484.817 -616.316 433.447 -644.253" stroke="#D6F0FF" stroke-width="5"/>
</svg>
