<svg width="175" height="120" viewBox="0 0 175 120" fill="none" xmlns="http://www.w3.org/2000/svg">
<path d="M27.6514 90.5198C25.7848 89.5929 24.8515 89.1295 24.5546 88.5028C24.2964 87.9575 24.298 87.3248 24.5592 86.7809C24.8594 86.1558 25.7951 85.6972 27.6665 84.7802L85.7108 56.3376C86.2256 56.0853 86.483 55.9592 86.7526 55.9093C86.9914 55.865 87.2363 55.8647 87.4752 55.9082C87.7449 55.9573 88.0027 56.0826 88.5183 56.3333L147.003 84.7718C148.892 85.6904 149.837 86.1497 150.139 86.7768C150.401 87.3223 150.402 87.9573 150.142 88.5039C149.843 89.1322 148.9 89.5953 147.015 90.5217L88.4361 119.303C87.9157 119.559 87.6555 119.686 87.383 119.736C87.1417 119.781 86.8942 119.78 86.653 119.735C86.3808 119.684 86.1211 119.555 85.6018 119.297L27.6514 90.5198Z" fill="#4CA8DF" fill-opacity="0.2"/>
<path d="M27.6515 79.0624C25.7849 78.1355 24.8516 77.6721 24.5548 77.0454C24.2965 76.5001 24.2982 75.8674 24.5593 75.3235C24.8595 74.6984 25.7952 74.2398 27.6667 73.3228L85.711 44.8802C86.2258 44.6279 86.4832 44.5018 86.7527 44.4519C86.9915 44.4076 87.2364 44.4073 87.4753 44.4508C87.745 44.4999 88.0028 44.6252 88.5184 44.8759L147.003 73.3144C148.892 74.233 149.837 74.6923 150.139 75.3194C150.401 75.8649 150.402 76.4999 150.142 77.0465C149.843 77.6748 148.9 78.1379 147.015 79.0643L88.4363 107.846C87.9158 108.101 87.6556 108.229 87.3831 108.279C87.1418 108.323 86.8943 108.323 86.6532 108.278C86.3809 108.226 86.1212 108.097 85.6019 107.84L27.6515 79.0624Z" fill="#4CA8DF" fill-opacity="0.4"/>
<path d="M27.6515 67.605C25.7849 66.6781 24.8516 66.2147 24.5548 65.588C24.2965 65.0427 24.2982 64.41 24.5593 63.8661C24.8595 63.241 25.7952 62.7824 27.6667 61.8654L85.711 33.4228C86.2258 33.1705 86.4832 33.0444 86.7527 32.9945C86.9915 32.9502 87.2364 32.9499 87.4753 32.9934C87.745 33.0425 88.0028 33.1678 88.5184 33.4185L147.003 61.857C148.892 62.7756 149.837 63.2349 150.139 63.862C150.401 64.4075 150.402 65.0425 150.142 65.5891C149.843 66.2174 148.9 66.6805 147.015 67.6069L88.4363 96.3881C87.9158 96.6438 87.6556 96.7717 87.3831 96.8217C87.1418 96.8659 86.8943 96.8654 86.6532 96.8201C86.3809 96.769 86.1212 96.64 85.6019 96.3821L27.6515 67.605Z" fill="#4CA8DF" fill-opacity="0.7"/>
<path d="M5.81009 45.531C3.9435 44.6041 3.01021 44.1406 2.71335 43.5139C2.45507 42.9686 2.45674 42.3359 2.7179 41.792C3.01806 41.1669 3.95379 40.7084 5.82524 39.7913L85.627 0.687329C86.1418 0.435071 86.3992 0.308942 86.6688 0.259006C86.9076 0.214772 87.1524 0.2144 87.3914 0.257909C87.6611 0.307026 87.9189 0.432373 88.4344 0.683066L168.845 39.7829C170.734 40.7015 171.679 41.1608 171.98 41.7879C172.243 42.3334 172.244 42.9684 171.984 43.515C171.685 44.1433 170.742 44.6065 168.857 45.5328L88.3203 85.1024C87.7999 85.3581 87.5396 85.486 87.2672 85.536C87.0258 85.5802 86.7784 85.5797 86.5372 85.5344C86.2649 85.4833 86.0053 85.3543 85.4859 85.0964L5.81009 45.531Z" fill="#2F9FE2"/>
<path fill-rule="evenodd" clip-rule="evenodd" d="M13.75 39.2826C13.75 38.5922 13.1903 38.0326 12.5 38.0326C11.8096 38.0326 11.25 38.5922 11.25 39.2826L11.25 71.5795L7.86081 79.2661C7.49651 80.0923 8.10158 81.0204 9.00457 81.0204H15.9953C16.8983 81.0204 17.5034 80.0923 17.1391 79.2661L13.75 71.5796L13.75 39.2826Z" fill="#2F9FE2"/>
</svg>
