<svg width="175" height="133" viewBox="0 0 175 133" fill="none" xmlns="http://www.w3.org/2000/svg">
<path d="M26.9689 99.9506C25.2985 99.0312 24.4632 98.5715 24.1887 97.9655C23.9494 97.4373 23.9511 96.8314 24.1933 96.3046C24.4713 95.7001 25.3091 95.2451 26.9847 94.3351L85.5922 62.5053C86.1481 62.2034 86.4261 62.0524 86.7199 61.9929C86.98 61.9402 87.2479 61.9397 87.5082 61.9916C87.8021 62.0502 88.0806 62.2003 88.6375 62.5004L147.691 94.3261C149.383 95.2379 150.229 95.6938 150.508 96.3004C150.752 96.8289 150.753 97.4373 150.512 97.9669C150.235 98.5746 149.391 99.0342 147.703 99.9534L88.556 132.162C87.9941 132.468 87.7131 132.621 87.4162 132.681C87.1534 132.734 86.8827 132.733 86.6202 132.679C86.3235 132.618 86.0432 132.464 85.4827 132.155L26.9689 99.9506Z" fill="#4CA8DF" fill-opacity="0.2"/>
<path d="M26.9691 87.252C25.2986 86.3326 24.4633 85.8729 24.1888 85.2668C23.9495 84.7387 23.9512 84.1327 24.1934 83.606C24.4714 83.0015 25.3092 82.5465 26.9848 81.6365L85.5923 49.8067C86.1482 49.5048 86.4262 49.3538 86.72 49.2943C86.9801 49.2415 87.248 49.2411 87.5083 49.293C87.8023 49.3516 88.0807 49.5017 88.6376 49.8018L147.691 81.6275C149.383 82.5393 150.229 82.9952 150.508 83.6018C150.752 84.1303 150.753 84.7387 150.512 85.2683C150.235 85.876 149.391 86.3356 147.703 87.2548L88.5561 119.464C87.9942 119.77 87.7132 119.923 87.4163 119.982C87.1536 120.035 86.8828 120.034 86.6203 119.98C86.3236 119.919 86.0434 119.765 85.4828 119.457L26.9691 87.252Z" fill="#4CA8DF" fill-opacity="0.4"/>
<path d="M26.9691 74.5533C25.2986 73.6339 24.4633 73.1743 24.1888 72.5682C23.9495 72.0401 23.9512 71.4341 24.1934 70.9074C24.4714 70.3029 25.3092 69.8479 26.9848 68.9379L85.5923 37.1081C86.1482 36.8062 86.4262 36.6552 86.72 36.5957C86.9801 36.5429 87.248 36.5425 87.5083 36.5944C87.8023 36.653 88.0807 36.8031 88.6376 37.1032L147.691 68.9289C149.383 69.8407 150.229 70.2966 150.508 70.9032C150.752 71.4317 150.753 72.0401 150.512 72.5697C150.235 73.1774 149.391 73.637 147.703 74.5562L88.5561 106.765C87.9942 107.071 87.7132 107.224 87.4163 107.284C87.1536 107.336 86.8828 107.336 86.6203 107.282C86.3236 107.221 86.0434 107.067 85.4828 106.758L26.9691 74.5533Z" fill="#4CA8DF" fill-opacity="0.7"/>
<path d="M5.12763 50.0879C3.45715 49.1685 2.62191 48.7088 2.34736 48.1028C2.10809 47.5746 2.10979 46.9687 2.35201 46.4419C2.62995 45.8374 3.46776 45.3824 5.14337 44.4724L85.5083 0.826245C86.0643 0.524307 86.3423 0.373339 86.636 0.31379C86.8961 0.261077 87.1641 0.260645 87.4243 0.312519C87.7183 0.37112 87.9968 0.521191 88.5537 0.821335L169.533 44.4634C171.225 45.3753 172.071 45.8312 172.35 46.4377C172.594 46.9662 172.595 47.5746 172.354 48.1042C172.077 48.712 171.233 49.1715 169.545 50.0907L88.4402 94.2566C87.8782 94.5626 87.5973 94.7156 87.3004 94.7752C87.0376 94.8279 86.7669 94.8273 86.5043 94.7734C86.2077 94.7125 85.9274 94.5582 85.3668 94.2497L5.12763 50.0879Z" fill="#2F9FE2"/>
<path fill-rule="evenodd" clip-rule="evenodd" d="M13.75 43.5382C13.75 42.8479 13.1904 42.2882 12.5 42.2882C11.8097 42.2882 11.25 42.8479 11.25 43.5382L11.25 79.3339L7.76847 88.0855C7.44195 88.9062 8.0466 89.7975 8.92993 89.7975H16.0701C16.9534 89.7975 17.5581 88.9062 17.2316 88.0855L13.75 79.334L13.75 43.5382Z" fill="#2F9FE2"/>
</svg>
