<svg width="938" height="96" viewBox="0 0 938 96" fill="none" xmlns="http://www.w3.org/2000/svg">
<path d="M29.7835 71.9384C27.3242 71.0057 26.0946 70.5394 25.7423 69.866C25.437 69.2825 25.4385 68.5861 25.7463 68.0039C26.1016 67.3321 27.3333 66.8712 29.7967 65.9493L85.9963 44.9181C86.4098 44.7634 86.6165 44.686 86.8292 44.6551C87.0179 44.6278 87.2095 44.6276 87.3982 44.6544C87.611 44.6847 87.8179 44.7616 88.2318 44.9153L144.854 65.9421C147.34 66.8651 148.582 67.3265 148.939 68C149.248 68.5834 149.249 69.2818 148.942 69.8663C148.588 70.5409 147.347 71.0066 144.865 71.938L88.1477 93.2196C87.7295 93.3765 87.5204 93.455 87.3053 93.4858C87.1146 93.5132 86.9208 93.5129 86.7302 93.4848C86.5152 93.4532 86.3064 93.374 85.8888 93.2156L29.7835 71.9384Z" fill="#4CA8DF" fill-opacity="0.2"/>
<path d="M29.7837 63.1884C27.3243 62.2557 26.0947 61.7894 25.7424 61.116C25.4371 60.5325 25.4386 59.8361 25.7465 59.2539C26.1017 58.5821 27.3334 58.1212 29.7968 57.1993L85.9964 36.1681C86.4099 36.0134 86.6166 35.936 86.8293 35.9051C87.018 35.8778 87.2096 35.8776 87.3983 35.9044C87.6111 35.9347 87.818 36.0116 88.2319 36.1653L144.855 57.1921C147.34 58.1151 148.583 58.5765 148.939 59.25C149.248 59.8334 149.25 60.5318 148.942 61.1163C148.588 61.7909 147.347 62.2566 144.865 63.188L88.1478 84.4696C87.7296 84.6265 87.5205 84.705 87.3055 84.7358C87.1147 84.7632 86.921 84.7629 86.7303 84.7348C86.5153 84.7032 86.3065 84.624 85.8889 84.4656L29.7837 63.1884Z" fill="#4CA8DF" fill-opacity="0.4"/>
<path d="M29.7837 54.4384C27.3243 53.5057 26.0947 53.0394 25.7424 52.366C25.4371 51.7825 25.4386 51.0861 25.7465 50.5039C26.1017 49.8321 27.3334 49.3712 29.7968 48.4493L85.9964 27.4181C86.4099 27.2634 86.6166 27.186 86.8293 27.1551C87.018 27.1278 87.2096 27.1276 87.3983 27.1544C87.6111 27.1847 87.818 27.2616 88.2319 27.4153L144.855 48.4421C147.34 49.3651 148.583 49.8265 148.939 50.5C149.248 51.0834 149.25 51.7818 148.942 52.3663C148.588 53.0409 147.347 53.5066 144.865 54.438L88.1478 75.7196C87.7296 75.8765 87.5205 75.955 87.3055 75.9858C87.1147 76.0132 86.921 76.0129 86.7303 75.9848C86.5153 75.9532 86.3065 75.874 85.8889 75.7156L29.7837 54.4384Z" fill="#4CA8DF" fill-opacity="0.7"/>
<path d="M7.94224 37.5805C5.48293 36.6478 4.25327 36.1815 3.90096 35.508C3.59569 34.9246 3.59722 34.2282 3.90505 33.646C4.26031 32.9742 5.49201 32.5132 7.95539 31.5914L85.9124 2.4181C86.3259 2.26336 86.5327 2.18599 86.7454 2.15515C86.934 2.12779 87.1256 2.12755 87.3144 2.15443C87.5271 2.18473 87.7341 2.26158 88.148 2.41528L166.696 31.5842C169.182 32.5072 170.424 32.9686 170.781 33.6421C171.09 34.2255 171.091 34.9239 170.784 35.5084C170.43 36.183 169.189 36.6487 166.707 37.5801L88.0318 67.1007C87.6136 67.2576 87.4046 67.3361 87.1895 67.367C86.9987 67.3943 86.805 67.394 86.6143 67.366C86.3993 67.3343 86.1905 67.2551 85.7729 67.0968L7.94224 37.5805Z" fill="#2F9FE2"/>
<path fill-rule="evenodd" clip-rule="evenodd" d="M13.7499 32C13.7499 31.3096 13.1903 30.75 12.4999 30.75C11.8096 30.75 11.2499 31.3096 11.2499 32L11.2499 56.6651L8.16982 62C7.6887 62.8333 8.2901 63.875 9.25235 63.875H15.7475C16.7098 63.875 17.3112 62.8333 16.8301 62L13.7499 56.6651L13.7499 32Z" fill="#2F9FE2"/>
<path d="M225.549 25.328V32.56H213.645V70H204.685V32.56H192.781V25.328H225.549ZM252.054 34.032C254.742 34.032 257.132 34.6293 259.222 35.824C261.313 36.976 262.934 38.704 264.086 41.008C265.281 43.2693 265.878 46 265.878 49.2V70H256.918V50.416C256.918 47.6 256.214 45.4453 254.806 43.952C253.398 42.416 251.478 41.648 249.046 41.648C246.572 41.648 244.609 42.416 243.158 43.952C241.75 45.4453 241.046 47.6 241.046 50.416V70H232.086V22.64H241.046V38.96C242.198 37.424 243.734 36.2293 245.654 35.376C247.574 34.48 249.707 34.032 252.054 34.032ZM307.359 51.504C307.359 52.784 307.273 53.936 307.103 54.96H281.183C281.396 57.52 282.292 59.5253 283.871 60.976C285.449 62.4267 287.391 63.152 289.695 63.152C293.023 63.152 295.391 61.7227 296.799 58.864H306.463C305.439 62.2773 303.476 65.0933 300.575 67.312C297.673 69.488 294.111 70.576 289.887 70.576C286.473 70.576 283.401 69.8293 280.671 68.336C277.983 66.8 275.871 64.6453 274.335 61.872C272.841 59.0987 272.095 55.8987 272.095 52.272C272.095 48.6027 272.841 45.3813 274.335 42.608C275.828 39.8347 277.919 37.7013 280.607 36.208C283.295 34.7147 286.388 33.968 289.887 33.968C293.257 33.968 296.265 34.6933 298.911 36.144C301.599 37.5947 303.668 39.664 305.119 42.352C306.612 44.9973 307.359 48.048 307.359 51.504ZM298.079 48.944C298.036 46.64 297.204 44.8053 295.583 43.44C293.961 42.032 291.977 41.328 289.631 41.328C287.412 41.328 285.535 42.0107 283.999 43.376C282.505 44.6987 281.588 46.5547 281.247 48.944H298.079ZM361.725 39.152C361.725 41.5413 361.149 43.7813 359.997 45.872C358.887 47.9627 357.117 49.648 354.685 50.928C352.295 52.208 349.266 52.848 345.597 52.848H338.109V70H329.149V25.328H345.597C349.053 25.328 351.997 25.9253 354.429 27.12C356.861 28.3147 358.674 29.9573 359.869 32.048C361.106 34.1387 361.725 36.5067 361.725 39.152ZM345.213 45.616C347.687 45.616 349.522 45.0613 350.717 43.952C351.911 42.8 352.509 41.2 352.509 39.152C352.509 34.8 350.077 32.624 345.213 32.624H338.109V45.616H345.213ZM377.046 22.64V70H368.086V22.64H377.046ZM383.595 52.144C383.595 48.56 384.299 45.3813 385.707 42.608C387.157 39.8347 389.099 37.7013 391.531 36.208C394.005 34.7147 396.757 33.968 399.787 33.968C402.432 33.968 404.736 34.5013 406.699 35.568C408.704 36.6347 410.304 37.9787 411.499 39.6V34.544H420.523V70H411.499V64.816C410.347 66.48 408.747 67.8667 406.699 68.976C404.693 70.0427 402.368 70.576 399.723 70.576C396.736 70.576 394.005 69.808 391.531 68.272C389.099 66.736 387.157 64.5813 385.707 61.808C384.299 58.992 383.595 55.7707 383.595 52.144ZM411.499 52.272C411.499 50.096 411.072 48.24 410.219 46.704C409.365 45.1253 408.213 43.9307 406.763 43.12C405.312 42.2667 403.755 41.84 402.091 41.84C400.427 41.84 398.891 42.2453 397.483 43.056C396.075 43.8667 394.923 45.0613 394.027 46.64C393.173 48.176 392.747 50.0107 392.747 52.144C392.747 54.2773 393.173 56.1547 394.027 57.776C394.923 59.3547 396.075 60.5707 397.483 61.424C398.933 62.2773 400.469 62.704 402.091 62.704C403.755 62.704 405.312 62.2987 406.763 61.488C408.213 60.6347 409.365 59.44 410.219 57.904C411.072 56.3253 411.499 54.448 411.499 52.272ZM439.706 41.904V59.056C439.706 60.2507 439.983 61.1253 440.538 61.68C441.135 62.192 442.116 62.448 443.482 62.448H447.642V70H442.01C434.458 70 430.682 66.3307 430.682 58.992V41.904H426.458V34.544H430.682V25.776H439.706V34.544H447.642V41.904H439.706ZM470.342 41.904H464.134V70H455.046V41.904H451.014V34.544H455.046V32.752C455.046 28.4 456.283 25.2 458.758 23.152C461.233 21.104 464.966 20.144 469.958 20.272V27.824C467.782 27.7813 466.267 28.144 465.414 28.912C464.561 29.68 464.134 31.0667 464.134 33.072V34.544H470.342V41.904ZM491.893 70.576C488.479 70.576 485.407 69.8293 482.677 68.336C479.946 66.8 477.791 64.6453 476.213 61.872C474.677 59.0987 473.909 55.8987 473.909 52.272C473.909 48.6453 474.698 45.4453 476.277 42.672C477.898 39.8987 480.095 37.7653 482.869 36.272C485.642 34.736 488.735 33.968 492.149 33.968C495.562 33.968 498.655 34.736 501.429 36.272C504.202 37.7653 506.378 39.8987 507.957 42.672C509.578 45.4453 510.389 48.6453 510.389 52.272C510.389 55.8987 509.557 59.0987 507.893 61.872C506.271 64.6453 504.053 66.8 501.237 68.336C498.463 69.8293 495.349 70.576 491.893 70.576ZM491.893 62.768C493.514 62.768 495.029 62.384 496.437 61.616C497.887 60.8053 499.039 59.6107 499.893 58.032C500.746 56.4533 501.173 54.5333 501.173 52.272C501.173 48.9013 500.277 46.32 498.485 44.528C496.735 42.6933 494.581 41.776 492.021 41.776C489.461 41.776 487.306 42.6933 485.557 44.528C483.85 46.32 482.997 48.9013 482.997 52.272C482.997 55.6427 483.829 58.2453 485.493 60.08C487.199 61.872 489.333 62.768 491.893 62.768ZM525.921 40.048C527.073 38.1707 528.567 36.6987 530.401 35.632C532.279 34.5653 534.412 34.032 536.801 34.032V43.44H534.433C531.617 43.44 529.484 44.1013 528.033 45.424C526.625 46.7467 525.921 49.0507 525.921 52.336V70H516.961V34.544H525.921V40.048ZM586.868 34.032C591.22 34.032 594.719 35.376 597.364 38.064C600.052 40.7093 601.396 44.4213 601.396 49.2V70H592.436V50.416C592.436 47.6427 591.732 45.5307 590.324 44.08C588.916 42.5867 586.996 41.84 584.564 41.84C582.132 41.84 580.191 42.5867 578.74 44.08C577.332 45.5307 576.628 47.6427 576.628 50.416V70H567.668V50.416C567.668 47.6427 566.964 45.5307 565.556 44.08C564.148 42.5867 562.228 41.84 559.796 41.84C557.322 41.84 555.359 42.5867 553.908 44.08C552.5 45.5307 551.796 47.6427 551.796 50.416V70H542.836V34.544H551.796V38.832C552.948 37.3387 554.42 36.1653 556.212 35.312C558.047 34.4587 560.052 34.032 562.228 34.032C565.001 34.032 567.476 34.6293 569.652 35.824C571.828 36.976 573.514 38.64 574.708 40.816C575.86 38.768 577.524 37.1253 579.7 35.888C581.919 34.6507 584.308 34.032 586.868 34.032ZM652.541 61.488H634.749L631.805 70H622.397L638.461 25.264H648.893L664.957 70H655.485L652.541 61.488ZM650.109 54.32L643.645 35.632L637.181 54.32H650.109ZM668.657 52.272C668.657 48.6027 669.404 45.4027 670.897 42.672C672.39 39.8987 674.46 37.7653 677.105 36.272C679.751 34.736 682.78 33.968 686.193 33.968C690.588 33.968 694.215 35.0773 697.073 37.296C699.975 39.472 701.916 42.544 702.897 46.512H693.233C692.721 44.976 691.847 43.7813 690.609 42.928C689.415 42.032 687.921 41.584 686.129 41.584C683.569 41.584 681.542 42.5227 680.049 44.4C678.556 46.2347 677.809 48.8587 677.809 52.272C677.809 55.6427 678.556 58.2667 680.049 60.144C681.542 61.9787 683.569 62.896 686.129 62.896C689.756 62.896 692.124 61.2747 693.233 58.032H702.897C701.916 61.872 699.975 64.9227 697.073 67.184C694.172 69.4453 690.545 70.576 686.193 70.576C682.78 70.576 679.751 69.8293 677.105 68.336C674.46 66.8 672.39 64.6667 670.897 61.936C669.404 59.1627 668.657 55.9413 668.657 52.272ZM707.157 52.144C707.157 48.56 707.861 45.3813 709.269 42.608C710.72 39.8347 712.661 37.7013 715.093 36.208C717.568 34.7147 720.32 33.968 723.349 33.968C725.995 33.968 728.299 34.5013 730.261 35.568C732.267 36.6347 733.867 37.9787 735.061 39.6V34.544H744.085V70H735.061V64.816C733.909 66.48 732.309 67.8667 730.261 68.976C728.256 70.0427 725.931 70.576 723.285 70.576C720.299 70.576 717.568 69.808 715.093 68.272C712.661 66.736 710.72 64.5813 709.269 61.808C707.861 58.992 707.157 55.7707 707.157 52.144ZM735.061 52.272C735.061 50.096 734.635 48.24 733.781 46.704C732.928 45.1253 731.776 43.9307 730.325 43.12C728.875 42.2667 727.317 41.84 725.653 41.84C723.989 41.84 722.453 42.2453 721.045 43.056C719.637 43.8667 718.485 45.0613 717.589 46.64C716.736 48.176 716.309 50.0107 716.309 52.144C716.309 54.2773 716.736 56.1547 717.589 57.776C718.485 59.3547 719.637 60.5707 721.045 61.424C722.496 62.2773 724.032 62.704 725.653 62.704C727.317 62.704 728.875 62.2987 730.325 61.488C731.776 60.6347 732.928 59.44 733.781 57.904C734.635 56.3253 735.061 54.448 735.061 52.272ZM750.532 52.144C750.532 48.56 751.236 45.3813 752.644 42.608C754.095 39.8347 756.057 37.7013 758.532 36.208C761.007 34.7147 763.759 33.968 766.788 33.968C769.092 33.968 771.29 34.48 773.38 35.504C775.471 36.4853 777.135 37.808 778.372 39.472V22.64H787.46V70H778.372V64.752C777.263 66.5013 775.706 67.9093 773.7 68.976C771.695 70.0427 769.37 70.576 766.724 70.576C763.737 70.576 761.007 69.808 758.532 68.272C756.057 66.736 754.095 64.5813 752.644 61.808C751.236 58.992 750.532 55.7707 750.532 52.144ZM778.436 52.272C778.436 50.096 778.01 48.24 777.156 46.704C776.303 45.1253 775.151 43.9307 773.7 43.12C772.25 42.2667 770.692 41.84 769.028 41.84C767.364 41.84 765.828 42.2453 764.42 43.056C763.012 43.8667 761.86 45.0613 760.964 46.64C760.111 48.176 759.684 50.0107 759.684 52.144C759.684 54.2773 760.111 56.1547 760.964 57.776C761.86 59.3547 763.012 60.5707 764.42 61.424C765.871 62.2773 767.407 62.704 769.028 62.704C770.692 62.704 772.25 62.2987 773.7 61.488C775.151 60.6347 776.303 59.44 777.156 57.904C778.01 56.3253 778.436 54.448 778.436 52.272ZM829.171 51.504C829.171 52.784 829.086 53.936 828.915 54.96H802.995C803.208 57.52 804.104 59.5253 805.683 60.976C807.262 62.4267 809.203 63.152 811.507 63.152C814.835 63.152 817.203 61.7227 818.611 58.864H828.275C827.251 62.2773 825.288 65.0933 822.387 67.312C819.486 69.488 815.923 70.576 811.699 70.576C808.286 70.576 805.214 69.8293 802.483 68.336C799.795 66.8 797.683 64.6453 796.147 61.872C794.654 59.0987 793.907 55.8987 793.907 52.272C793.907 48.6027 794.654 45.3813 796.147 42.608C797.64 39.8347 799.731 37.7013 802.419 36.208C805.107 34.7147 808.201 33.968 811.699 33.968C815.07 33.968 818.078 34.6933 820.723 36.144C823.411 37.5947 825.481 39.664 826.931 42.352C828.425 44.9973 829.171 48.048 829.171 51.504ZM819.891 48.944C819.849 46.64 819.017 44.8053 817.395 43.44C815.774 42.032 813.79 41.328 811.443 41.328C809.225 41.328 807.347 42.0107 805.811 43.376C804.318 44.6987 803.401 46.5547 803.059 48.944H819.891ZM879.743 34.032C884.095 34.032 887.594 35.376 890.239 38.064C892.927 40.7093 894.271 44.4213 894.271 49.2V70H885.311V50.416C885.311 47.6427 884.607 45.5307 883.199 44.08C881.791 42.5867 879.871 41.84 877.439 41.84C875.007 41.84 873.066 42.5867 871.615 44.08C870.207 45.5307 869.503 47.6427 869.503 50.416V70H860.543V50.416C860.543 47.6427 859.839 45.5307 858.431 44.08C857.023 42.5867 855.103 41.84 852.671 41.84C850.197 41.84 848.234 42.5867 846.783 44.08C845.375 45.5307 844.671 47.6427 844.671 50.416V70H835.711V34.544H844.671V38.832C845.823 37.3387 847.295 36.1653 849.087 35.312C850.922 34.4587 852.927 34.032 855.103 34.032C857.876 34.032 860.351 34.6293 862.527 35.824C864.703 36.976 866.389 38.64 867.583 40.816C868.735 38.768 870.399 37.1253 872.575 35.888C874.794 34.6507 877.183 34.032 879.743 34.032ZM936.694 34.544L914.742 86.768H905.206L912.886 69.104L898.678 34.544H908.726L917.878 59.312L927.158 34.544H936.694Z" fill="#2F9FE2"/>
</svg>
