<svg width="67" height="36" viewBox="0 0 67 36" fill="none" xmlns="http://www.w3.org/2000/svg">
<path d="M11.2706 26.9781C10.3403 26.6284 9.87515 26.4536 9.74239 26.2005C9.62738 25.9813 9.62795 25.7194 9.74392 25.5007C9.87778 25.2483 10.3437 25.0754 11.2755 24.7298L32.5398 16.8417C32.6937 16.7846 32.7707 16.7561 32.8498 16.7447C32.92 16.7346 32.9913 16.7345 33.0615 16.7444C33.1406 16.7556 33.2177 16.784 33.3717 16.8407L54.7961 24.7271C55.7362 25.0732 56.2062 25.2462 56.3406 25.4992C56.4571 25.7184 56.4575 25.981 56.3418 26.2006C56.2083 26.4541 55.7388 26.6287 54.7999 26.978L33.3398 34.9599C33.1842 35.0178 33.1063 35.0468 33.0263 35.0582C32.9553 35.0683 32.8833 35.0682 32.8124 35.0578C32.7324 35.0461 32.6547 35.0169 32.4992 34.9585L11.2706 26.9781Z" fill="#4CA8DF" fill-opacity="0.2"/>
<path d="M11.2706 23.6969C10.3403 23.3472 9.87515 23.1723 9.74239 22.9193C9.62738 22.7 9.62795 22.4382 9.74392 22.2195C9.87778 21.967 10.3437 21.7942 11.2755 21.4485L32.5398 13.5605C32.6937 13.5034 32.7707 13.4748 32.8498 13.4635C32.92 13.4534 32.9913 13.4533 33.0615 13.4632C33.1406 13.4744 33.2177 13.5027 33.3717 13.5594L54.7961 21.4459C55.7362 21.7919 56.2062 21.965 56.3406 22.218C56.4571 22.4372 56.4575 22.6998 56.3418 22.9194C56.2083 23.1729 55.7388 23.3475 54.7999 23.6967L33.3398 31.6787C33.1842 31.7366 33.1063 31.7655 33.0263 31.7769C32.9553 31.787 32.8833 31.7869 32.8124 31.7766C32.7324 31.7649 32.6547 31.7357 32.4992 31.6772L11.2706 23.6969Z" fill="#4CA8DF" fill-opacity="0.4"/>
<path d="M11.2706 20.4156C10.3403 20.0659 9.87515 19.8911 9.74239 19.638C9.62738 19.4188 9.62795 19.1569 9.74392 18.9382C9.87778 18.6858 10.3437 18.5129 11.2755 18.1673L32.5398 10.2792C32.6937 10.2221 32.7707 10.1936 32.8498 10.1822C32.92 10.1721 32.9913 10.172 33.0615 10.1819C33.1406 10.1931 33.2177 10.2215 33.3717 10.2782L54.7961 18.1646C55.7362 18.5107 56.2062 18.6837 56.3406 18.9367C56.4571 19.1559 56.4575 19.4185 56.3418 19.6381C56.2083 19.8916 55.7388 20.0662 54.7999 20.4155L33.3398 28.3974C33.1842 28.4553 33.1063 28.4843 33.0263 28.4957C32.9553 28.5058 32.8833 28.5057 32.8124 28.4953C32.7324 28.4836 32.6547 28.4544 32.4992 28.396L11.2706 20.4156Z" fill="#4CA8DF" fill-opacity="0.7"/>
<path d="M3.00789 14.0939C2.0776 13.7442 1.61246 13.5693 1.4797 13.3163C1.36469 13.0971 1.36526 12.8352 1.48123 12.6165C1.61509 12.3641 2.08099 12.1912 3.0128 11.8456L32.5081 0.904223C32.662 0.847132 32.739 0.818586 32.8181 0.807206C32.8883 0.797111 32.9595 0.797022 33.0298 0.806941C33.1089 0.818123 33.1859 0.846475 33.34 0.903181L63.059 11.8429C63.9991 12.189 64.4692 12.362 64.6036 12.615C64.72 12.8342 64.7205 13.0968 64.6048 13.3164C64.4712 13.5699 64.0018 13.7445 63.0628 14.0937L33.296 25.1654C33.1403 25.2233 33.0625 25.2522 32.9825 25.2636C32.9115 25.2737 32.8395 25.2736 32.7685 25.2632C32.6886 25.2516 32.6108 25.2223 32.4554 25.1639L3.00789 14.0939Z" fill="#2F9FE2"/>
<path fill-rule="evenodd" clip-rule="evenodd" d="M5.19774 12C5.19774 11.7411 4.98787 11.5312 4.72899 11.5312C4.4701 11.5312 4.26024 11.7411 4.26024 12L4.26024 21.2423L3.09174 23.2485C2.90973 23.561 3.13516 23.9531 3.4968 23.9531H5.96112C6.32275 23.9531 6.54818 23.561 6.36617 23.2485L5.19774 21.2424L5.19774 12Z" fill="#2F9FE2"/>
</svg>
